<?xml version="1.0" encoding="UTF-8" standalone="no"?>
<!-- Created with Inkscape (http://www.inkscape.org/) -->

<svg
   xmlns:dc="http://purl.org/dc/elements/1.1/"
   xmlns:cc="http://creativecommons.org/ns#"
   xmlns:rdf="http://www.w3.org/1999/02/22-rdf-syntax-ns#"
   xmlns:svg="http://www.w3.org/2000/svg"
   xmlns="http://www.w3.org/2000/svg"
   xmlns:sodipodi="http://sodipodi.sourceforge.net/DTD/sodipodi-0.dtd"
   xmlns:inkscape="http://www.inkscape.org/namespaces/inkscape"
   width="236.64685"
   height="110.32333"
   id="svg7125"
   version="1.1"
   inkscape:version="0.48.4 r9939"
   sodipodi:docname="residuals_global.svg"
   inkscape:export-filename="/home/ian/Grad/Research/Disks/TAC/2014-06/specfit.png"
   inkscape:export-xdpi="300"
   inkscape:export-ydpi="300">
  <defs
     id="defs7127">
    <clipPath
       id="p6c2c4a6cf7-14">
      <rect
         height="288"
         width="1008"
         x="0"
         y="0"
         id="rect3017-9"
         style="stroke-linecap:butt;stroke-linejoin:round" />
    </clipPath>
    <clipPath
       id="p6c2c4a6cf7-18">
      <rect
         height="288"
         width="1008"
         x="0"
         y="0"
         id="rect3040-8"
         style="stroke-linecap:butt;stroke-linejoin:round" />
    </clipPath>
    <clipPath
       id="p6c2c4a6cf7-1">
      <rect
         height="288"
         width="1008"
         x="0"
         y="0"
         id="rect19-9"
         style="stroke-linecap:butt;stroke-linejoin:round" />
    </clipPath>
    <clipPath
       clipPathUnits="userSpaceOnUse"
       id="clipPath3016">
      <rect
         style="fill:none;stroke:#000000;stroke-width:3.1527257;stroke-linecap:round;stroke-linejoin:round;stroke-miterlimit:4;stroke-opacity:1;stroke-dasharray:none;stroke-dashoffset:0"
         id="rect3018"
         width="350.81531"
         height="143.55429"
         x="10.841191"
         y="70.487419" />
    </clipPath>
  </defs>
  <sodipodi:namedview
     id="base"
     pagecolor="#ffffff"
     bordercolor="#666666"
     borderopacity="1.0"
     inkscape:pageopacity="0.0"
     inkscape:pageshadow="2"
     inkscape:zoom="0.98994949"
     inkscape:cx="203.29966"
     inkscape:cy="94.287345"
     inkscape:document-units="px"
     inkscape:current-layer="layer1"
     showgrid="true"
     width="960px"
     inkscape:window-width="957"
     inkscape:window-height="707"
     inkscape:window-x="706"
     inkscape:window-y="89"
     inkscape:window-maximized="0"
     fit-margin-top="10"
     fit-margin-left="10"
     fit-margin-right="10"
     fit-margin-bottom="10">
    <inkscape:grid
       type="xygrid"
       id="grid7228"
       empspacing="5"
       visible="true"
       enabled="true"
       snapvisiblegridlinesonly="true"
       originx="-138.04208px"
       originy="-169.9068px" />
  </sodipodi:namedview>
  <metadata
     id="metadata7130">
    <rdf:RDF>
      <cc:Work
         rdf:about="">
        <dc:format>image/svg+xml</dc:format>
        <dc:type
           rdf:resource="http://purl.org/dc/dcmitype/StillImage" />
        <dc:title></dc:title>
      </cc:Work>
    </rdf:RDF>
  </metadata>
  <g
     inkscape:label="Layer 1"
     inkscape:groupmode="layer"
     id="layer1"
     transform="translate(-138.04208,-772.13205)">
    <g
       id="g3020">
      <g
         clip-path="url(#clipPath3016)"
         transform="matrix(0.61755243,0,0,0.72496202,141.34708,717.28327)"
         id="axes_1-2"
         style="stroke-linecap:butt;stroke-linejoin:round">
        <g
           id="line2d_1-0"
           style="stroke-linecap:butt;stroke-linejoin:round">
          <path
             inkscape:connector-curvature="0"
             clip-path="url(#p6c2c4a6cf7-18)"
             d="m -0.307893,132.041 0.82255,-5.105 0.822493,-18.09 0.82244,-9.7516 0.82239,-8.141 0.82232,6.5598 0.82228,11.6808 0.82222,23.737 0.82216,5.82 0.82211,-7.484 0.82205,2.022 0.82199,-5.64 0.82194,5.742 0.82185,4.142 0.8219,-6.058 0.8217,10.324 0.8218,-4.59 0.8216,5.241 0.8216,-6.342 0.8216,5.163 0.8215,2.022 0.8214,0.504 0.8214,-2.807 0.8214,-4.849 0.8212,10.281 1.6424,-7.37 0.8211,7.211 0.8211,-3.94 0.821,-0.849 0.8209,1.081 0.8209,-4.617 0.8208,12.881 0.8208,-11.266 0.8207,1.166 1.6413,14.471 0.8206,0.27 0.8205,-3.363 0.8204,1.088 0.8204,-5.259 0.8203,-6.115 0.8203,-13.053 0.8202,9.259 0.8202,3.673 0.8201,9.678 0.8201,-11.226 0.82,10.978 0.8199,6.995 0.8199,1.044 0.8198,9.631 0.8198,0.025 0.8198,-3.93 0.8196,-21.213 0.8196,5.697 1.6391,-3.694 0.8194,12.631 0.8194,-13.508 0.8194,0.388 0.8192,-3.871 0.8193,4.034 0.8191,-4.772 0.8191,0.022 0.8191,-4.139 0.819,-0.564 0.819,4.406 0.8188,-4.069 0.8189,3.462 0.8188,2.001 0.8187,-4.114 0.8187,6.058 0.8186,1.306 0.8185,-1.644 0.8185,-4.183 0.8185,3.42 0.8184,1.745 0.8183,-0.202 0.8183,4.923 0.8182,-7.629 0.8182,-5.894 0.8181,-1.734 0.818,4.914 0.818,1.188 0.818,6.722 0.8179,0.183 0.8178,3.25 0.8178,6.562 0.8177,2.767 0.8177,-11.663 0.8176,-2.272 0.8176,2.883 0.8175,-0.749 1.6348,-7.451 0.8173,-6.358 0.8173,11.801 0.8172,-8.481 0.8172,7.296 0.8171,-5.87 0.8171,0.055 0.817,5.169 0.8169,-1.559 0.8169,2.24 0.8169,-12.928 0.8167,11.593 0.8168,-8.449 0.8166,7.352 0.8166,-7.492 0.8166,5.411 0.8165,8.411 0.8164,-4.201 0.8164,4.389 0.8164,-13.604 0.8162,13.39 0.8163,-6.481 1.6322,0.567 0.8161,14.086 0.816,-7.722 0.8159,7.197 0.8159,-7.599 0.8159,-3.248 0.8161,-1.673 0.815,-3.873 0.816,8.912 0.816,-11.48 0.815,1.814 0.816,-1.76 0.815,-0.258 0.816,-6.517 0.815,12.729 0.815,2.756 0.815,-8.33 0.816,2.461 0.815,1.469 0.815,-4.228 0.815,3.656 0.815,7.374 0.815,-7.965 0.814,6.886 0.815,-11.483 0.815,6.192 0.814,-2.999 0.815,5.629 0.815,-5.046 0.814,-3.274 0.815,0.923 0.814,-12.39 0.814,8.834 0.815,-2.356 0.814,2.902 0.814,5.927 0.814,0.388 0.814,2.839 0.814,-1.015 0.814,-2.466 0.814,9.594 0.814,-7.744 0.814,8.25 1.627,-6.359 0.814,7.445 0.813,-5.917 0.814,-2.848 0.813,1.923 0.813,3.262 0.814,-4.903 0.813,7.074 0.813,-4.994 0.813,5.483 0.813,-15.071 0.813,4.519 0.813,3.232 0.813,-6.936 0.813,6.324 0.813,-5.936 0.813,-7.502 0.813,-0.622 0.812,7.82 0.813,0.073 0.812,1.309 0.813,7.702 0.812,-2.846 0.813,-12.449 0.812,10.743 0.812,0.062 1.625,-5.95 0.812,8.778 0.812,3.608 0.812,-5.214 0.812,-3.051 0.812,0.104 0.811,1.834 0.812,15.625 0.812,-11.698 0.812,11.655 0.811,-7.201 0.812,-3.562 0.811,3.847 0.812,-12.092 0.811,2.833 0.811,2.302 0.812,5.441 0.811,-12.822 1.622,7.272 0.811,-9.062 0.811,5.214 0.811,-4.159 0.811,3.662 0.811,-6.527 1.621,15.729 0.811,-7.873 0.81,-0.438 0.811,1.774 0.81,2.761 0.811,-7.358 0.81,4.63 0.81,-2.972 0.811,9.755 0.81,-7.466 0.81,0.376 0.81,13.197 0.81,0.588 0.81,2.452 0.81,-2.333 0.81,10.017 0.81,-7.421 0.809,3.939 0.81,-3.789 0.81,-2.811 0.809,-5.693 0.81,-0.64 0.809,-3.336 0.81,4.302 0.809,-4.158 0.809,1.631 0.81,3.068 0.809,-10.413 0.809,-4.239 0.809,-0.748 0.809,5.543 0.809,-2.878 0.809,2.409 0.809,-4.636 0.809,6.991 0.808,-6.85 0.809,-1.513 0.809,5.684 0.808,-8.667 0.809,2.538 0.808,5.558 0.809,-1.882 0.808,6.956 0.808,3.571 0.808,-11.6 0.809,6.025 0.808,-2.825 0.808,1.704 0.808,-3.055 0.808,-2.003 0.808,3.261 0.808,-11.471 1.615,-3.491 1.615,10.862 0.808,2.482 0.808,3.492 0.807,0.19 0.807,1.867 0.808,-8.797 0.807,3.001 0.807,-4.98 0.807,-4.109 0.808,1.945 0.807,-4.589 0.807,-0.206 0.807,5.219 0.806,10.521 0.807,-3.468 0.807,2.33 0.807,1.434 0.806,2.114 0.807,-8.981 0.807,-2.081 0.806,1.984 0.807,-0.694 0.806,0.606 0.806,6.822 0.807,-7.157 0.806,9.564 0.806,-8.518 0.806,-5.121 0.806,-1.597 0.806,-0.211 0.806,7.38 0.806,4.729 0.806,3.645 0.806,-5.845 0.805,1.838 0.806,0.574 0.806,0.874 0.805,-4.002 0.806,5.751 0.805,-4.937 0.805,6.658 0.806,-4.365 0.805,1.011 0.805,8.842 0.805,1.12 0.805,10.116 0.805,0.648 0.805,4.301 0.805,-3.113 0.805,-6.423 0.805,-4.104 0.805,-1.186 0.805,0.211 0.804,-12.971 0.805,14.241 0.804,0.089 0.805,-4.564 0.804,0.324 0.805,0.883 0.804,1.574 0.804,0.201 0.804,-7.186 0.804,2.759 0.805,6.506 0.804,16.061 0.804,4.344 0.803,0.7 0.804,-3.644 0.804,-0.659 0.804,-4.446 0.804,-6.411 1.607,-7.745 0.803,-7.61 0.804,-2.136 0.803,1.908 0.804,-6.596 1.606,7.354 0.803,-2.223 0.803,1.679 0.804,-4.221 0.803,1.274 0.803,-1.561 0.802,5.896 0.803,1.547 0.803,-2.841 0.803,0.328 0.802,1.079 0.803,13.624 0.803,-4.083 0.802,-5.719 1.605,-1.786 0.802,-5.465 0.803,9.414 0.802,-3.533 0.802,7.907 0.802,-3.089 0.802,5.899 0.802,-2.782 0.802,0.048 0.802,5.286 0.802,2.3 0.802,0.324 0.801,-2.103 0.802,1.076 0.802,-6.005 0.801,11.584 0.802,16.794 0.801,10.103 0.802,-4.592 0.801,-6.663 0.801,-10.159 0.801,-13.737 2.404,-14.394 0.801,3.186 0.801,-1.983 0.801,-9.698 0.8,-3.815 0.801,8.065 0.801,-0.586 0.801,-4.453 0.8,3.291 0.801,-2.175 0.8,8.115 0.801,-8.22 0.8,0.68 0.8,-3.096 0.801,8.746 0.8,-0.39 0.8,1.493 0.8,-7.886 1.6,5.447 0.8,-7.695 0.8,-0.239 0.8,5.497 0.799,-4.303 0.8,7.64 0.8,-3.055 0.799,-2.166 0.8,17.073 1.599,23.697 0.799,-5.708 2.398,-29.19 0.799,-0.987 0.799,4.453 0.799,-6.087 0.799,-1.67 0.799,4.466 0.799,-3.611 0.798,-13.075 0.799,9.885 0.799,-8.385 0.799,2.463 0.798,-7.403 0.799,5.91 1.596,-4.299 0.799,2.25 0.798,11.976 0.798,-2.737 1.597,-1.112 0.798,8.346 0.798,-3.106 0.798,3.961 0.797,1.823 0.798,0.193 0.798,1.335 0.798,0.994 0.797,6.542 0.798,-0.295 0.798,2.505 0.797,7.824 0.798,1.297 0.797,-6.147 0.797,9.222 0.798,-4.666 0.797,2.634 0.797,-11.154 0.797,3.276 0.797,-2.845 0.797,5.888 0.797,1.279 0.797,9.147 1.593,-8.05 0.797,2.434 1.593,-12.56 0.797,0.211 0.796,1.22 0.797,-5.859 0.796,-6.933 0.796,6.808 0.797,-4.011 0.796,-4.707 0.796,1.157 0.796,2.075 0.796,3.727 0.796,-7.416 0.796,9.224 0.796,-8.229 0.796,5.865 0.795,-10.828 0.796,8.503 0.796,-7.54 0.795,0.681 0.796,2.996 0.795,-0.447 0.796,2.425 0.795,-2.422 0.795,3.516 0.796,-7.218 0.795,0.287 0.795,9.036 0.795,-3.526 0.795,-5.27 0.795,2.813 0.795,5.326 0.795,-2.993 0.794,4.802 0.795,-1.989 0.795,-7.777 0.794,-3.34 0.795,1.695 0.794,5.454 0.795,-5.417 0.794,7.236 0.795,0.618 0.794,-10.894 0.794,1.549 0.794,0.611 0.794,0.861 0.794,2.762 0.794,0.355 0.794,2.365 0.794,-6.588 0.794,1.094 0.794,-4.684 0.793,-1.086 0.794,9.171 0.794,0.253 0.793,2.135 0.794,-2.237 0.793,-1.08 0.793,8.318 0.794,-8.499 0.793,3.372 1.586,-7.52 1.586,4.683 0.793,1.28 0.793,3.261 0.793,-1.97 0.793,2.57 0.793,-4.65 0.792,8.177 0.793,-6.752 0.793,0.693 0.792,-9.239 0.793,16.453 0.792,-12.845 0.792,-2.251 0.793,4.525 0.792,-6.854 0.792,11.689 0.792,-2.537 0.792,12.128 0.792,-15.984 0.792,8.521 1.584,-10.583 0.792,-5.241 0.791,-10.417 0.792,4.969 0.792,15.019 0.791,-2.101 0.792,0.638 0.791,-7.41 0.792,2.789 0.791,-6.65 0.791,-2.366 0.791,-0.254 0.791,17.9 0.792,1.237 0.791,3.088 0.791,-2.25 0.79,-3.401 0.791,2.059 0.791,-2.262 0.791,-1.818 0.791,3.522 0.79,2.229 0.791,-5.262 0.79,3.849 0.791,-10.797 0.79,5.906 0.791,-10.206 0.79,11.73 0.79,-6.419 0.79,5.29 0.79,-8.257 0.791,-4.882 1.58,14.448 0.789,0.234 0.79,-7.785 0.79,9.364 0.79,-6.634 0.789,8.166 0.79,-10.342 0.79,-2.998 0.789,-6.592 0.79,-3.658 0.789,0.984 0.789,-4.18 0.79,-7.056 0.789,5.324 0.789,7.036 0.789,12.745 0.789,2.672 1.578,7.936 0.789,-0.768 0.789,-8.587 0.789,2.911 0.788,0.155 0.789,-1.921 0.788,2.88 0.789,5.133 0.788,-10.317 0.789,4.344 0.788,0.033 0.789,-0.461 0.788,0.999 0.788,6.772 0.788,-7.717 0.788,11.635 0.788,-0.725 0.788,-4.517 0.788,-2.907 0.788,-4.147 0.788,-1.947 0.788,-14.637 0.787,14.516 0.788,-4.659 1.575,3.75 0.787,9.426 0.788,-3.606 0.787,2.228 0.787,-6.064 0.788,3.056 0.787,-4.886 0.787,6.616 0.787,-3.963 0.787,10.466 0.787,-14.131 0.787,2.014 0.787,4.416 0.786,-4.096 0.787,-0.136 0.787,-0.478 0.786,1.219 0.787,-1.237 0.786,5.316 0.787,-6.994 0.786,3.33 0.787,-0.359 0.786,0.405 0.786,2.613 0.786,16.54 0.786,-3.487 0.786,7.645 0.786,-6.24 0.786,-9.785 0.786,1.189 0.786,0.607 0.786,-15.582 0.785,15.543 0.786,-2.342 0.786,5.018 0.785,3.875 0.785,-7.408 0.786,3.425 0.785,-0.829 0.786,-6.933 0.785,-1.379 0.785,3.202 0.785,1.939 0.785,-5.213 0.785,0.818 0.785,1.561 0.785,3.454 0.785,-5.195 0.785,7.892 0.784,2.148 0.785,-3.134 0.785,4.305 0.784,-8.316 0.785,-2.234 0.784,1.164 0.784,3.464 0.785,2.732 0.784,0.453 0.784,-2.152 0.784,-5.92 0.784,15.543 0.784,1.217 0.784,-6.739 0.784,9.829 0.784,-3.842 0.784,3.159 0.784,-3.032 0.784,-0.367 0.783,9.81 0.784,2.479 0.783,2.03 1.567,-6.209 0.783,0.275 0.784,-11.012 0.783,-4.767 0.783,5.359 0.783,7.055 0.783,5.444 0.783,0.451 0.783,1.792 0.783,-1.501 0.783,0.618 0.783,-0.694 0.783,-1.345 0.782,-2.569 0.783,-4.166 0.782,-2.736 0.783,1.494 0.782,-8.565 1.565,-11.651 0.782,-11.946 0.782,-0.606 0.783,7.482 0.782,13.081 0.782,2.603 0.782,-1.381 0.782,4.889 0.782,-0.239 0.781,2.685 0.782,-0.487 0.782,0.476 0.781,-10.626 0.782,-12.307 0.781,-10.315 0.782,1.158 0.781,2.461 0.782,7.954 0.781,4.047 0.781,-9.78 0.781,3.973 0.782,-4.771 2.343,12.535 0.78,6.531 0.781,-6.356 0.781,-2.376 0.781,5.785 0.78,-1.781 0.781,0.609 0.781,-1.514 0.78,1.009 0.781,2.517 0.78,-6.79 1.56,23.145 0.781,8.217 0.78,-1.662 0.78,-11.668 0.78,-0.551 0.78,-7.67 0.78,10.44 0.78,-16.027 0.78,4.276 0.779,-1.853 0.78,-3.848 0.78,0.853 0.779,-2.294 0.78,3.379 0.779,2.349 0.78,-2.391 0.779,3.37 0.779,-7.994 0.779,5.341 1.559,1.736 0.779,-4.707 0.779,3.096 0.779,-4.87 0.779,-3.713 0.778,4.086 0.779,-0.454 0.779,1.311 0.779,-2.724 0.778,10.456 0.779,1.985 0.778,-3.349 0.779,-3.965 0.778,2.613 0.778,-0.184 0.779,-1.485 0.778,7.177 0.778,-2.141 0.778,1.216 0.778,-1.781 0.778,-1.123 0.778,-6.249 0.778,4.774 0.778,-1.031 0.777,-5.122 0.778,-6.871 0.778,-11.172 0.777,-17.123 0.778,-4.9808 0.777,6.8768 1.555,29.742 0.777,0.206 0.777,5.278 0.778,3.653 0.777,-4.1 0.777,-8.014 0.777,-0.121 0.777,0.319 0.777,3.988 0.776,6.98 0.777,-2.999 0.777,1.441 0.776,4.541 0.777,9.219 0.777,13.184 0.776,21.965 0.777,39.343 0.776,28.838 0.776,17.93 0.776,-26.069 1.553,-68.831 0.776,-20.385 0.776,-12.799 0.776,-1.202 0.776,-0.442 0.776,4.684 0.775,-8.459 0.776,-1.74 0.776,-8.867 0.775,1.404 0.776,6.649 0.775,-0.189 0.776,-7.712 0.775,-6.143 0.776,6.829 0.775,0.714 0.775,8.227 0.775,5.7 0.775,-7.492 0.775,-4.77 0.775,1.233 0.775,-4.225 0.775,6.833 0.775,-8.319 0.775,-3.972 0.774,7.592 0.775,-2.657 0.775,1.684 0.774,5.699 0.775,4.471 0.774,-6.287 0.774,4.767 0.775,-2.077 0.774,-0.544 0.774,6.241 0.774,-10.21 0.774,9.271 0.774,0.757 0.774,-2.486 0.774,-0.237 0.774,-7.944 0.774,4.77 0.773,-6.619 0.774,-1.807 0.774,1.95 0.773,9.26 0.774,-1.033 0.773,0.649 0.774,2.058 0.773,-1.132 0.773,-6.52 0.773,10.083 0.774,-2.287 0.773,1.811 0.773,4.639 0.773,3.325 0.773,1.889 0.772,6.971 0.773,8.432 0.773,-1.458 0.773,1.871 0.772,-8.052 0.773,-12.247 0.772,4.029 0.773,-12.655 0.772,-1.157 1.545,6.647 0.772,-4.844 0.772,8.518 0.772,-5.153 0.772,0.779 0.772,-4.54 0.772,10.306 0.772,-1.199 0.772,-5.398 0.772,10.699 0.771,-0.271 0.772,7.023 0.772,-12.651 0.771,-5.991 0.772,5.499 0.771,-5.535 0.771,-2.575 0.772,0.834 0.771,-4.662 0.771,4.797 0.771,0.979 0.771,3.495 0.771,-2.109 0.771,-4.321 0.771,9.022 0.771,-9.841 0.771,9.536 0.771,-7.137 0.77,-1.969 0.771,7.114 0.77,-0.001 0.771,-5.722 0.77,5.588 0.771,-11.64 1.54,10.209 0.77,-0.159 0.771,1.828 0.77,-4.24 0.77,-4.904 0.77,0.946 0.77,1.605 0.77,-3.351 0.769,6.869 0.77,-6.467 0.77,-2.497 0.769,1.344 0.77,4.41 0.769,-4.186 0.77,7.044 0.769,3.287 0.77,-1.522 0.769,-2.908 0.769,-1.606 0.769,-7.243 0.769,5.44 0.769,0.075 0.769,6.641 0.769,-6.385 0.769,-0.194 0.769,-1.363 0.769,-5.183 0.769,2.682 0.768,0.165 0.769,-2.213 0.768,-0.36 0.769,-0.583 0.768,-5.087 0.769,-1.351 0.768,-2.734 0.768,-0.3 0.768,2.62 0.768,-2.03 0.769,4.704 0.768,2.573 0.768,13.52 0.767,-12.233 0.768,6.317 1.536,8.858 0.767,-2.392 0.768,2.472 0.768,-3.043 0.767,0.289 1.535,-2.757 0.767,-9.422 0.767,-3.356 0.768,8.201 0.767,1.173 0.767,1.839 0.767,-1.615 0.767,-2.947 0.767,-0.064 0.767,2.677 0.766,9.32 0.767,-0.441 0.767,-10.343 0.766,5.749 0.767,-3.391 0.767,-4.512 0.766,2.364 0.766,9.241 0.767,7.688 0.766,-4.81 0.766,-0.708 0.766,-7.604 1.533,-8.071 0.766,7.078 0.765,-7.54 0.766,7.937 0.766,-4.267 0.766,3.066 0.766,-1.474 0.765,1.18 0.766,-3.769 0.765,1.587 0.766,-2.132 0.765,6.032 0.766,3.374 0.765,1.354 0.765,-8.132 0.765,-0.127 0.765,10.781 0.765,-13.151 0.765,4.468 0.765,5.133 0.765,13.702 0.765,16.44 0.765,-9.883 0.765,-6.29 0.764,-4.359 0.765,-6.257 0.764,0.511 0.765,-4.777 0.764,-0.207 0.765,-3.153 0.764,-3.649 0.764,-1.581 0.764,4.469 0.765,1.516 0.764,7.721 0.764,-17.588 0.764,5.25 0.764,8.718 0.763,-11.76 0.764,6.706 0.764,0.667 0.764,1.264 0.763,3.422 0.764,-5.389 0.763,-0.418 0.764,-0.081 0.763,14.432 0.763,21.289 0.764,8.25 0.763,2.121 0.763,-8.326 1.526,-27.778 0.763,-7.666 0.763,5.917 0.763,-14.837 0.763,4.739 0.762,-0.64 0.763,4.07 0.763,-10.397 0.762,-2.31 0.763,8.146 0.762,1.197 0.763,2.477 0.762,-0.666 0.762,4.466 0.763,-7.992 0.762,3.293 0.762,-3.504 0.762,0.79 0.762,9.867 0.762,-2.319 0.762,-4.942 0.761,0.564 0.762,-7.056 0.762,2.063 0.762,5.039 0.761,-18.004 0.762,9.067 0.761,1.513 0.762,4.164 0.761,9.234 0.761,7.516 0.761,-1.836 0.762,-4.993 0.761,-9.106 0.761,10.408 0.761,-5.658 0.761,19.126 0.761,-5.889 0.76,-12.774 0.761,2.866 0.761,-5.659 1.521,2.72 0.761,-5.059 0.76,4.469 0.761,1.713 0.76,-3.293 0.76,0.435 0.761,1.366 0.76,3.244 0.76,-0.689 0.76,2.242 0.76,-7.564 0.76,2.236 0.76,6.037 0.76,-8.417 0.759,-3.366 0.76,-0.829 0.76,3.669 0.759,-6.803 0.76,9.102 0.76,0.195 0.759,-4.894 0.759,6.445 0.76,-9.055 0.759,-1.474 0.759,10.239 1.518,4.525 0.759,1.056 0.759,-8.391 0.759,9.54 0.759,-6.814 0.759,5.419 0.759,3.79 0.758,5.023 0.759,-6.224 0.758,6.428 1.517,16.472 0.759,12.702 0.758,8.498 0.758,-14.201 0.759,-2.693 0.758,-15.157 0.758,-10.584 0.758,0.052 0.758,-16.445 0.758,-0.631 0.758,-7.617 0.757,9.585 0.758,0.217 0.758,-1.599 0.758,10.92 0.757,-7.398 0.758,-2.967 0.757,-3.784 0.757,4.746 0.758,8.022 0.757,-10.019 0.757,7.653 0.758,-7.202 0.757,1.406 0.757,3.938 0.757,0.012 0.757,1.814 0.756,5.272 0.757,-6.288 0.757,-0.599 0.757,-7.792 0.756,4.279 0.757,5.794 0.756,0.677 0.757,-3.344 0.756,-4.064 0.757,0.677 0.756,6.006 0.756,-2.706 0.756,-3.975 0.757,-3.298 0.756,-2.225 0.756,7.384 0.756,-0.632 0.755,2.596 0.756,5.275 0.756,-5.835 0.756,6.336 0.755,2.77 0.756,-9.056 0.755,1.41 0.756,6.439 0.755,1.184 0.756,11.386 0.755,-0.595 0.755,5.023 0.755,-9.352 0.756,-2.993 0.755,-7.803 0.755,-5.248 0.755,-2.867 0.754,-1.566 0.755,-2.625 0.755,8.297 0.755,1.29 0.754,0.651 0.755,-2.643 0.755,-0.634 0.754,0.443 0.755,-1.959 0.754,-2.718 0.754,-0.903 0.754,7.731 0.755,-6.865 0.754,7.426 0.754,-1.808 0.754,-0.08 0.754,7.861 0.754,-12.836 0.754,8.917 0.753,15.577 0.754,0.74 0.754,2.805 0.753,-0.816 0.754,-19.912 0.753,5.064 0.754,-2.291 0.753,0.392 0.754,15.732 0.753,6.902 0.753,-3.64 0.753,-0.594 0.753,-4.731 0.753,-3.225 0.753,-4.367 0.753,-14.033 0.753,-0.313 0.753,5.203 0.752,-1.421 0.753,-0.837 0.753,0.156 0.752,-9.34 1.505,-11.892 0.753,4.866 0.752,8.919 0.752,-3.573 0.752,0.298 0.753,4.841 0.752,1.592 0.752,-3.624 0.752,-4.64 0.752,2.201 0.751,-1.531 0.752,2.999 0.752,0.606 0.752,9.127 0.751,-1.413 0.752,2.7 0.751,-5.963 0.752,0.228 0.751,4.382 0.752,-5.049 0.751,-3.523 0.751,9.956 0.751,0.394 0.751,-12.003 0.751,11.776 0.751,2.261 0.751,-8.321 0.751,8.875 0.751,0.973 0.751,2.253 0.75,-5.369 0.751,-3.916 0.75,-1.906 0.751,16.075 0.75,-13.745 0.751,4.356 0.75,3.443 0.75,-6.798 0.751,-3.323 0.748,0.167 0.75,4.662 1.5,20.585 0.75,0.787 0.75,5.1 0.75,-9.89 0.75,-3.026 0.75,-6.722 0.75,-1.274 0.75,0.744 0.75,-2.109 0,0"
             style="fill:none;stroke:#000000;stroke-width:3;stroke-linecap:square;stroke-linejoin:round"
             id="path3035" />
        </g>
      </g>
      <rect
         y="800.36218"
         x="190"
         height="39.999996"
         width="60"
         id="rect3251"
         style="fill:none;stroke:#ff0000;stroke-width:3;stroke-linecap:round;stroke-linejoin:round;stroke-miterlimit:4;stroke-opacity:1;stroke-dasharray:none;stroke-dashoffset:0" />
    </g>
  </g>
</svg>
