<?xml version="1.0" encoding="utf-8" standalone="no"?>
<!DOCTYPE svg PUBLIC "-//W3C//DTD SVG 1.1//EN"
  "http://www.w3.org/Graphics/SVG/1.1/DTD/svg11.dtd">
<!-- Created with matplotlib (http://matplotlib.org/) -->
<svg height="129pt" version="1.1" viewBox="0 0 252 129" width="252pt" xmlns="http://www.w3.org/2000/svg" xmlns:xlink="http://www.w3.org/1999/xlink">
 <defs>
  <style type="text/css">
*{stroke-linecap:butt;stroke-linejoin:round;}
  </style>
 </defs>
 <g id="figure_1">
  <g id="patch_1">
   <path d="
M0 129.6
L252 129.6
L252 0
L0 0
z
" style="fill:#ffffff;"/>
  </g>
  <g id="axes_1">
   <g id="patch_2">
    <path d="
M45.36 56.376
L239.4 56.376
L239.4 11.664
L45.36 11.664
z
" style="fill:#ffffff;"/>
   </g>
   <g id="line2d_1">
    <path clip-path="url(#p4f47096078)" d="
M45.8777 16.5235
L46.638 16.5235
L46.638 17.9431
L48.1585 17.9431
L48.1585 17.2538
L49.679 17.2538
L49.679 21.6553
L51.1993 21.6553
L51.1993 17.8461
L52.7195 17.8461
L52.7195 18.6464
L54.2396 18.6464
L54.2396 17.3909
L55.7597 17.3909
L55.7597 16.2413
L57.2796 16.2413
L57.2796 21.1828
L58.7994 21.1828
L58.7994 16.358
L60.3191 16.358
L60.3191 18.1286
L61.8388 18.1286
L61.8388 21.7777
L64.8777 21.7115
L64.8777 21.3274
L66.397 21.3274
L66.397 22.4755
L67.9162 22.4755
L67.9162 17.8531
L69.4354 17.8531
L69.4354 15.5781
L70.9544 15.5781
L70.9544 20.1398
L72.4733 20.1398
L72.4733 19.4154
L73.9921 19.4154
L73.9921 22.9037
L75.5108 22.9037
L75.5108 30.0649
L77.0294 30.0649
L77.0294 26.8064
L78.548 26.8064
L78.548 27.2146
L80.0664 27.2146
L80.0664 22.2639
L81.5847 22.2639
L81.5847 20.09
L83.1029 20.09
L83.1029 17.9483
L86.139 17.9007
L86.139 21.2828
L87.6569 21.2828
L87.6569 22.3987
L89.1748 22.3987
L89.1748 22.241
L90.6925 22.241
L90.6925 22.9992
L92.2101 22.9992
L92.2101 19.3201
L93.7276 19.3201
L93.7276 21.0593
L95.245 21.0593
L95.245 17.7781
L96.7623 17.7781
L96.7623 16.7654
L98.2795 16.7654
L98.2795 17.3285
L101.314 17.2479
L101.314 16.6988
L102.831 16.6988
L102.831 17.0567
L104.347 17.0567
L104.347 17.5734
L105.864 17.5734
L105.864 18.6499
L107.381 18.6499
L107.381 25.0455
L108.897 25.0455
L108.897 27.8242
L110.414 27.8242
L110.414 29.704
L111.93 29.704
L111.93 25.8989
L113.446 25.8989
L113.446 26.2736
L114.962 26.2736
L114.962 18.9006
L116.478 18.9006
L116.478 21.8892
L117.994 21.8892
L117.994 29.922
L119.51 29.922
L119.51 37.5297
L121.026 37.5297
L121.026 45.8408
L122.541 45.8408
L122.541 46.3252
L124.057 46.3252
L124.057 40.3188
L125.572 40.3188
L125.572 29.4904
L127.087 29.4904
L127.087 23.1278
L128.603 23.1278
L128.603 21.1983
L130.118 21.1983
L130.118 20.3472
L131.633 20.3472
L131.633 17.3014
L133.148 17.3014
L133.148 19.4533
L134.662 19.4533
L134.662 21.3601
L136.177 21.3601
L136.177 19.6006
L137.692 19.6006
L137.692 23.1339
L139.206 23.1339
L139.206 19.2352
L140.72 19.2352
L140.72 23.8483
L142.235 23.8483
L142.235 22.0464
L143.749 22.0464
L143.749 23.6259
L145.263 23.6259
L145.263 18.3268
L146.777 18.3268
L146.777 15.7185
L148.291 15.7185
L148.291 21.4351
L149.805 21.4351
L149.805 18.4321
L151.318 18.4321
L151.318 19.5349
L152.832 19.5349
L152.832 21.1601
L154.345 21.1601
L154.345 21.5132
L155.859 21.5132
L155.859 18.8685
L157.372 18.8685
L157.372 21.2257
L158.885 21.2257
L158.885 18.6778
L160.398 18.6778
L160.398 17.313
L161.911 17.313
L161.911 18.2675
L163.424 18.2675
L163.424 18.4836
L166.45 18.419
L166.45 20.1805
L167.962 20.1805
L167.962 23.0357
L169.475 23.0357
L169.475 29.6303
L170.987 29.6303
L170.987 39.0507
L172.499 39.0507
L172.499 45.4296
L174.012 45.4296
L174.012 47.9176
L175.524 47.9176
L175.524 44.5551
L177.036 44.5551
L177.036 48.4761
L178.547 48.4761
L178.547 54.7145
L180.059 54.7145
L180.059 45.9506
L181.571 45.9506
L181.571 34.899
L183.082 34.899
L183.082 23.0496
L184.594 23.0496
L184.594 21.6642
L186.105 21.6642
L186.105 20.0767
L187.617 20.0767
L187.617 18.6288
L189.128 18.6288
L189.128 16.5098
L190.639 16.5098
L190.639 16.2939
L192.15 16.2939
L192.15 19.308
L193.661 19.308
L193.661 19.59
L196.682 19.6787
L196.682 21.9832
L198.193 21.9832
L198.193 19.3739
L199.703 19.3739
L199.703 17.5557
L201.213 17.5557
L201.213 21.025
L202.724 21.025
L202.724 17.7805
L204.234 17.7805
L204.234 19.801
L205.744 19.801
L205.744 17.5445
L207.254 17.5445
L207.254 17.139
L208.764 17.139
L208.764 16.4004
L210.273 16.4004
L210.273 13.5256
L211.783 13.5256
L211.783 15.8825
L213.293 15.8825
L213.293 17.5938
L214.802 17.5938
L214.802 16.8982
L216.311 16.8982
L216.311 20.9455
L217.821 20.9455
L217.821 18.2099
L219.33 18.2099
L219.33 19.6647
L220.839 19.6647
L220.839 17.782
L222.348 17.782
L222.348 18.7275
L223.857 18.7275
L223.857 16.1063
L225.365 16.1063
L225.365 15.4859
L226.874 15.4859
L226.874 17.9956
L228.382 17.9956
L228.382 16.6154
L229.891 16.6154
L229.891 17.2667
L231.399 17.2667
L231.399 18.6025
L232.907 18.6025
L232.907 18.4639
L234.416 18.4639
L234.416 16.9306
L235.924 16.9306
L235.924 14.5424
L237.432 14.5424
L237.432 18.9871
L238.186 18.9871
L238.186 18.9871" style="fill:none;stroke:#0000ff;stroke-linecap:square;"/>
   </g>
   <g id="line2d_2">
    <path clip-path="url(#p4f47096078)" d="
M45.8777 18.7044
L46.638 18.7044
L46.638 18.7044
L46.638 18.7044
L46.638 18.6875
L57.2796 18.7386
L57.2796 18.8156
L58.7994 18.8156
L58.7994 19.0755
L60.3191 19.0755
L60.3191 19.5998
L61.8388 19.5998
L61.8388 20.2112
L63.3583 20.2112
L63.3583 20.5665
L66.397 20.5219
L66.397 20.1869
L67.9162 20.1869
L67.9162 19.7428
L69.4354 19.7428
L69.4354 19.3116
L70.9544 19.3116
L70.9544 19.0636
L72.4733 19.0636
L72.4733 19.2278
L73.9921 19.2278
L73.9921 19.8909
L75.5108 19.8909
L75.5108 20.7536
L77.0294 20.7536
L77.0294 21.181
L78.548 21.181
L78.548 20.8382
L80.0664 20.8382
L80.0664 20.0717
L81.5847 20.0717
L81.5847 19.4732
L83.1029 19.4732
L83.1029 19.3126
L84.621 19.3126
L84.621 19.8034
L86.139 19.8034
L86.139 21.2873
L87.6569 21.2873
L87.6569 23.2469
L89.1748 23.2469
L89.1748 24.1438
L90.6925 24.1438
L90.6925 23.1313
L92.2101 23.1313
L92.2101 21.1089
L93.7276 21.1089
L93.7276 19.591
L95.245 19.591
L95.245 19.0149
L98.2795 18.9096
L98.2795 18.8882
L104.347 18.8396
L104.347 19.0748
L105.864 19.0748
L105.864 20.1828
L107.381 20.1828
L107.381 23.1935
L108.897 23.1935
L108.897 27.6048
L110.414 27.6048
L110.414 30.4061
L111.93 30.4061
L111.93 29.2214
L113.446 29.2214
L113.446 25.3007
L114.962 25.3007
L114.962 22.1002
L117.994 22.062
L117.994 26.7231
L119.51 26.7231
L119.51 36.3051
L121.026 36.3051
L121.026 45.8885
L122.541 45.8885
L122.541 47.7575
L124.057 47.7575
L124.057 40.1122
L125.572 40.1122
L125.572 29.3665
L127.087 29.3665
L127.087 22.4632
L128.603 22.4632
L128.603 20.2999
L130.118 20.2999
L130.118 20.1595
L133.148 20.1244
L133.148 19.77
L134.662 19.77
L134.662 19.3443
L136.177 19.3443
L136.177 19.0987
L143.749 19.0495
L143.749 18.9841
L146.777 18.9058
L146.777 18.8686
L148.291 18.8686
L148.291 18.9839
L149.805 18.9839
L149.805 19.6069
L151.318 19.6069
L151.318 21.1608
L152.832 21.1608
L152.832 23.1866
L154.345 23.1866
L154.345 24.2625
L155.859 24.2625
L155.859 23.6119
L157.372 23.6119
L157.372 22.1089
L158.885 22.1089
L158.885 21.1302
L160.398 21.1302
L160.398 20.8223
L161.911 20.8223
L161.911 20.5025
L163.424 20.5025
L163.424 19.9318
L164.937 19.9318
L164.937 19.4426
L166.45 19.4426
L166.45 19.5609
L167.962 19.5609
L167.962 21.3081
L169.475 21.3081
L169.475 25.9404
L170.987 25.9404
L170.987 32.2772
L172.499 32.2772
L172.499 36.456
L174.012 36.456
L174.012 37.4892
L175.524 37.4892
L175.524 39.6427
L177.036 39.6427
L177.036 45.1291
L178.547 45.1291
L178.547 48.3829
L180.059 48.3829
L180.059 43.5392
L181.571 43.5392
L181.571 33.109
L183.082 33.109
L183.082 24.2934
L184.594 24.2934
L184.594 20.2454
L186.105 20.2454
L186.105 19.2084
L189.128 19.1373
L189.128 19.3746
L190.639 19.3746
L190.639 19.7575
L192.15 19.7575
L192.15 20.0277
L195.171 20.0198
L195.171 19.9028
L201.213 19.8318
L201.213 19.545
L202.724 19.545
L202.724 19.3862
L204.234 19.3862
L204.234 19.5029
L205.744 19.5029
L205.744 19.7661
L207.254 19.7661
L207.254 19.9266
L210.273 19.8373
L210.273 19.5614
L211.783 19.5614
L211.783 19.2872
L213.293 19.2872
L213.293 19.1509
L216.311 19.182
L216.311 19.3435
L217.821 19.3435
L217.821 19.5178
L222.348 19.42
L222.348 19.2217
L223.857 19.2217
L223.857 19.1101
L226.874 19.1601
L226.874 19.3485
L228.382 19.3485
L228.382 19.5402
L235.924 19.6463
L235.924 19.7931
L237.432 19.7931
L237.432 20.0297
L238.186 20.0297
L238.186 20.0297" style="fill:none;stroke:#ff0000;stroke-linecap:square;"/>
   </g>
   <g id="matplotlib.axis_1">
    <g id="xtick_1">
     <g id="line2d_3">
      <defs>
       <path d="
M0 0
L0 -4" id="mc7db9fdffb" style="stroke:#000000;stroke-width:0.5;"/>
      </defs>
      <g>
       <use style="stroke:#000000;stroke-width:0.5;" x="45.36" xlink:href="#mc7db9fdffb" y="56.376"/>
      </g>
     </g>
     <g id="line2d_4">
      <defs>
       <path d="
M0 0
L0 4" id="m5a7d422ac3" style="stroke:#000000;stroke-width:0.5;"/>
      </defs>
      <g>
       <use style="stroke:#000000;stroke-width:0.5;" x="45.36" xlink:href="#m5a7d422ac3" y="11.664"/>
      </g>
     </g>
    </g>
    <g id="xtick_2">
     <g id="line2d_5">
      <g>
       <use style="stroke:#000000;stroke-width:0.5;" x="77.7" xlink:href="#mc7db9fdffb" y="56.376"/>
      </g>
     </g>
     <g id="line2d_6">
      <g>
       <use style="stroke:#000000;stroke-width:0.5;" x="77.7" xlink:href="#m5a7d422ac3" y="11.664"/>
      </g>
     </g>
    </g>
    <g id="xtick_3">
     <g id="line2d_7">
      <g>
       <use style="stroke:#000000;stroke-width:0.5;" x="110.04" xlink:href="#mc7db9fdffb" y="56.376"/>
      </g>
     </g>
     <g id="line2d_8">
      <g>
       <use style="stroke:#000000;stroke-width:0.5;" x="110.04" xlink:href="#m5a7d422ac3" y="11.664"/>
      </g>
     </g>
    </g>
    <g id="xtick_4">
     <g id="line2d_9">
      <g>
       <use style="stroke:#000000;stroke-width:0.5;" x="142.38" xlink:href="#mc7db9fdffb" y="56.376"/>
      </g>
     </g>
     <g id="line2d_10">
      <g>
       <use style="stroke:#000000;stroke-width:0.5;" x="142.38" xlink:href="#m5a7d422ac3" y="11.664"/>
      </g>
     </g>
    </g>
    <g id="xtick_5">
     <g id="line2d_11">
      <g>
       <use style="stroke:#000000;stroke-width:0.5;" x="174.72" xlink:href="#mc7db9fdffb" y="56.376"/>
      </g>
     </g>
     <g id="line2d_12">
      <g>
       <use style="stroke:#000000;stroke-width:0.5;" x="174.72" xlink:href="#m5a7d422ac3" y="11.664"/>
      </g>
     </g>
    </g>
    <g id="xtick_6">
     <g id="line2d_13">
      <g>
       <use style="stroke:#000000;stroke-width:0.5;" x="207.06" xlink:href="#mc7db9fdffb" y="56.376"/>
      </g>
     </g>
     <g id="line2d_14">
      <g>
       <use style="stroke:#000000;stroke-width:0.5;" x="207.06" xlink:href="#m5a7d422ac3" y="11.664"/>
      </g>
     </g>
    </g>
    <g id="xtick_7">
     <g id="line2d_15">
      <g>
       <use style="stroke:#000000;stroke-width:0.5;" x="239.4" xlink:href="#mc7db9fdffb" y="56.376"/>
      </g>
     </g>
     <g id="line2d_16">
      <g>
       <use style="stroke:#000000;stroke-width:0.5;" x="239.4" xlink:href="#m5a7d422ac3" y="11.664"/>
      </g>
     </g>
    </g>
   </g>
   <g id="matplotlib.axis_2">
    <g id="ytick_1">
     <g id="line2d_17">
      <defs>
       <path d="
M0 0
L4 0" id="md7965d1ba0" style="stroke:#000000;stroke-width:0.5;"/>
      </defs>
      <g>
       <use style="stroke:#000000;stroke-width:0.5;" x="45.36" xlink:href="#md7965d1ba0" y="51.408"/>
      </g>
     </g>
     <g id="line2d_18">
      <defs>
       <path d="
M0 0
L-4 0" id="md9a1c1a7cd" style="stroke:#000000;stroke-width:0.5;"/>
      </defs>
      <g>
       <use style="stroke:#000000;stroke-width:0.5;" x="239.4" xlink:href="#md9a1c1a7cd" y="51.408"/>
      </g>
     </g>
     <g id="text_1">
      <!-- $1.4$ -->
      <defs>
       <path d="
M26.5938 63.3125
C26.5938 65.4062 26.5 65.5 25.0938 65.5
C21.2031 61.1875 15.2969 59.7969 9.70312 59.7969
C9.40625 59.7969 8.90625 59.7969 8.79688 59.6094
C8.70312 59.3906 8.70312 59.1719 8.70312 57
C11.7969 57 17 57.5938 21 59.9844
L21 7.20312
C21 3.6875 20.7969 2.5 12.2031 2.5
L9.20312 2.5
L9.20312 0
C14 0 19 0 23.7969 0
C28.5938 0 33.5938 0 38.4062 0
L38.4062 2.5
L35.4062 2.5
C26.7969 2.5 26.5938 3.59375 26.5938 7.15625
z
" id="CMR17-49"/>
       <path d="
M33.5938 64.3281
C33.5938 66.4062 33.5 66.5 31.7031 66.5
L2 19.5938
L2 17
L27.7969 17
L27.7969 7.14062
C27.7969 3.5 27.5938 2.5 20.5938 2.5
L18.7031 2.5
L18.7031 0
C21.9062 0 27.2969 0 30.7031 0
C34.0938 0 39.5 0 42.7031 0
L42.7031 2.5
L40.7969 2.5
C33.7969 2.5 33.5938 3.5 33.5938 7.14062
L33.5938 17
L43.7969 17
L43.7969 19.5938
L33.5938 19.5938
z

M28.0938 57.7656
L28.0938 19.5938
L4 19.5938
z
" id="CMR17-52"/>
       <path d="
M18.4062 4.79688
C18.4062 7.6875 16 9.67188 13.5938 9.67188
C10.7031 9.67188 8.70312 7.28125 8.70312 4.89062
C8.70312 2 11.0938 0 13.5 0
C16.4062 0 18.4062 2.39062 18.4062 4.79688" id="CMMI12-58"/>
      </defs>
      <g transform="translate(28.6299210237 53.8986600249)scale(0.1 -0.1)">
       <use transform="scale(0.9962640099626402)" xlink:href="#CMR17-49"/>
       <use transform="translate(45.69047711706103 0.0)scale(0.9962640099626402)" xlink:href="#CMMI12-58"/>
       <use transform="translate(72.78765420688046 0.0)scale(0.9962640099626402)" xlink:href="#CMR17-52"/>
      </g>
     </g>
    </g>
    <g id="ytick_2">
     <g id="line2d_19">
      <g>
       <use style="stroke:#000000;stroke-width:0.5;" x="45.36" xlink:href="#md7965d1ba0" y="41.472"/>
      </g>
     </g>
     <g id="line2d_20">
      <g>
       <use style="stroke:#000000;stroke-width:0.5;" x="239.4" xlink:href="#md9a1c1a7cd" y="41.472"/>
      </g>
     </g>
     <g id="text_2">
      <!-- $1.6$ -->
      <defs>
       <path d="
M10.5938 34
C10.5938 57.6562 21.7969 63 28.2969 63
C30.4062 63 35.5 62.6406 37.5 59
C35.9062 59 32.9062 59 32.9062 55.5156
C32.9062 52.8281 35.0938 51.9219 36.5 51.9219
C37.4062 51.9219 40.0938 52.3125 40.0938 55.625
C40.0938 61.7812 35.0938 65.2969 28.2031 65.2969
C16.2969 65.2969 3.79688 52.9688 3.79688 31
C3.79688 3.95312 15.0938 -2 23.0938 -2
C32.7969 -2 42 6.67188 42 20.0469
C42 32.5156 33.9062 41.5938 23.7031 41.5938
C17.5938 41.5938 13.0938 37.6094 10.5938 30.625
z

M23.0938 0.390625
C10.7969 0.390625 10.7969 18.75 10.7969 22.4375
C10.7969 29.625 14.2031 40 23.5 40
C25.2031 40 30.0938 40 33.4062 33.125
C35.2031 29.2188 35.2031 25.1406 35.2031 20.1406
C35.2031 14.75 35.2031 10.7812 33.0938 6.78125
C30.9062 2.67188 27.7031 0.390625 23.0938 0.390625" id="CMR17-54"/>
      </defs>
      <g transform="translate(28.6299210237 43.9626600249)scale(0.1 -0.1)">
       <use transform="scale(0.9962640099626402)" xlink:href="#CMR17-49"/>
       <use transform="translate(45.69047711706103 0.0)scale(0.9962640099626402)" xlink:href="#CMMI12-58"/>
       <use transform="translate(72.78765420688046 0.0)scale(0.9962640099626402)" xlink:href="#CMR17-54"/>
      </g>
     </g>
    </g>
    <g id="ytick_3">
     <g id="line2d_21">
      <g>
       <use style="stroke:#000000;stroke-width:0.5;" x="45.36" xlink:href="#md7965d1ba0" y="31.536"/>
      </g>
     </g>
     <g id="line2d_22">
      <g>
       <use style="stroke:#000000;stroke-width:0.5;" x="239.4" xlink:href="#md9a1c1a7cd" y="31.536"/>
      </g>
     </g>
     <g id="text_3">
      <!-- $1.8$ -->
      <defs>
       <path d="
M27.2031 35.375
C33.5 38.5625 39.9062 43.3281 39.9062 50.9844
C39.9062 60.0312 31.0938 65.2969 23 65.2969
C13.9062 65.2969 5.90625 58.7344 5.90625 49.6875
C5.90625 47.2031 6.5 42.9219 10.4062 39.1406
C11.4062 38.1562 15.5938 35.1719 18.2969 33.2812
C13.7969 30.9844 3.29688 25.5312 3.29688 14.5938
C3.29688 4.35938 13.0938 -2 22.7969 -2
C33.5 -2 42.5 5.65625 42.5 15.7969
C42.5 24.8438 36.4062 29.0312 32.4062 31.7031
z

M14.0938 44.125
C13.2969 44.625 9.29688 47.7031 9.29688 52.375
C9.29688 58.4375 15.5938 63 22.7969 63
C30.7031 63 36.5 57.4531 36.5 50.9844
C36.5 41.7344 26.0938 36.4688 25.5938 36.4688
C25.5 36.4688 25.4062 36.4688 24.5938 37.0781
z

M32.5 23.7344
C34 22.6406 38.7969 19.375 38.7969 13.2969
C38.7969 5.95312 31.4062 0.390625 23 0.390625
C13.9062 0.390625 7 6.84375 7 14.6875
C7 22.5469 13.0938 29.0938 20 32.1875
z
" id="CMR17-56"/>
      </defs>
      <g transform="translate(28.6299210237 34.0266600249)scale(0.1 -0.1)">
       <use transform="scale(0.9962640099626402)" xlink:href="#CMR17-49"/>
       <use transform="translate(45.69047711706103 0.0)scale(0.9962640099626402)" xlink:href="#CMMI12-58"/>
       <use transform="translate(72.78765420688046 0.0)scale(0.9962640099626402)" xlink:href="#CMR17-56"/>
      </g>
     </g>
    </g>
    <g id="ytick_4">
     <g id="line2d_23">
      <g>
       <use style="stroke:#000000;stroke-width:0.5;" x="45.36" xlink:href="#md7965d1ba0" y="21.6"/>
      </g>
     </g>
     <g id="line2d_24">
      <g>
       <use style="stroke:#000000;stroke-width:0.5;" x="239.4" xlink:href="#md9a1c1a7cd" y="21.6"/>
      </g>
     </g>
     <g id="text_4">
      <!-- $2.0$ -->
      <defs>
       <path d="
M42 31.6406
C42 37.75 41.9062 48.125 37.7031 56.1094
C34 63.1094 28.0938 65.5938 22.9062 65.5938
C18.0938 65.5938 12 63.4062 8.20312 56.2031
C4.20312 48.7188 3.79688 39.4375 3.79688 31.6406
C3.79688 25.9531 3.90625 17.2812 7 9.67188
C11.2969 -0.609375 19 -2 22.9062 -2
C27.5 -2 34.5 -0.109375 38.5938 9.375
C41.5938 16.2812 42 24.3594 42 31.6406
M22.9062 -0.40625
C16.5 -0.40625 12.7031 5.07812 11.2969 12.6875
C10.2031 18.5625 10.2031 27.1562 10.2031 32.75
C10.2031 40.4375 10.2031 46.8281 11.5 52.9219
C13.4062 61.3906 19 64 22.9062 64
C27 64 32.2969 61.2969 34.2031 53.125
C35.5 47.4375 35.5938 40.7344 35.5938 32.75
C35.5938 26.25 35.5938 18.2656 34.4062 12.375
C32.2969 1.48438 26.4062 -0.40625 22.9062 -0.40625" id="CMR17-48"/>
       <path d="
M41.7031 15.4531
L39.9062 15.4531
C38.9062 8.375 38.0938 7.17188 37.7031 6.5625
C37.2031 5.76562 30 5.76562 28.5938 5.76562
L9.40625 5.76562
C13 9.67188 20 16.75 28.5 24.9531
C34.5938 30.7344 41.7031 37.5312 41.7031 47.4219
C41.7031 59.2188 32.2969 66 21.7969 66
C10.7969 66 4.09375 56.3125 4.09375 47.3438
C4.09375 43.4375 7 42.9375 8.20312 42.9375
C9.20312 42.9375 12.2031 43.5469 12.2031 47.0312
C12.2031 50.1094 9.59375 51 8.20312 51
C7.59375 51 7 50.9062 6.59375 50.7031
C8.5 59.2188 14.2969 63.4062 20.4062 63.4062
C29.0938 63.4062 34.7969 56.5156 34.7969 47.4219
C34.7969 38.7344 29.7031 31.25 24 24.75
L4.09375 2.28125
L4.09375 0
L39.2969 0
z
" id="CMR17-50"/>
      </defs>
      <g transform="translate(28.6299210237 24.0906600249)scale(0.1 -0.1)">
       <use transform="scale(0.9962640099626402)" xlink:href="#CMR17-50"/>
       <use transform="translate(45.69047711706103 0.0)scale(0.9962640099626402)" xlink:href="#CMMI12-58"/>
       <use transform="translate(72.78765420688046 0.0)scale(0.9962640099626402)" xlink:href="#CMR17-48"/>
      </g>
     </g>
    </g>
    <g id="ytick_5">
     <g id="line2d_25">
      <g>
       <use style="stroke:#000000;stroke-width:0.5;" x="45.36" xlink:href="#md7965d1ba0" y="11.664"/>
      </g>
     </g>
     <g id="line2d_26">
      <g>
       <use style="stroke:#000000;stroke-width:0.5;" x="239.4" xlink:href="#md9a1c1a7cd" y="11.664"/>
      </g>
     </g>
     <g id="text_5">
      <!-- $2.2$ -->
      <g transform="translate(28.6299210237 14.1546600249)scale(0.1 -0.1)">
       <use transform="scale(0.9962640099626402)" xlink:href="#CMR17-50"/>
       <use transform="translate(45.69047711706103 0.0)scale(0.9962640099626402)" xlink:href="#CMMI12-58"/>
       <use transform="translate(72.78765420688046 0.0)scale(0.9962640099626402)" xlink:href="#CMR17-50"/>
      </g>
     </g>
    </g>
    <g id="text_6">
     <!-- $\times10^{-13}$ -->
     <defs>
      <path d="
M38.9062 27.8906
L18.9062 47.7969
C17.7031 49 17.5 49.1875 16.7031 49.1875
C15.7031 49.1875 14.7031 48.2969 14.7031 47.1875
C14.7031 46.5 14.9062 46.2969 16 45.1875
L36 25.0938
L16 5
C14.9062 3.89062 14.7031 3.6875 14.7031 3
C14.7031 1.89062 15.7031 1 16.7031 1
C17.5 1 17.7031 1.1875 18.9062 2.39062
L38.7969 22.2969
L59.5 1.59375
C59.7031 1.5 60.4062 1 61 1
C62.2031 1 63 1.89062 63 3
C63 3.1875 63 3.59375 62.7031 4.09375
C62.5938 4.29688 46.7031 20 41.7031 25.0938
L60 43.3906
C60.5 44 62 45.2969 62.5 45.8906
C62.5938 46.0938 63 46.5 63 47.1875
C63 48.2969 62.2031 49.1875 61 49.1875
C60.2031 49.1875 59.7969 48.7969 58.7031 47.6875
z
" id="CMSY10-2"/>
      <path d="
M22.0938 33.7031
C31 33.7031 34.9062 25.9688 34.9062 17.0312
C34.9062 5 28.5 0.390625 22.7031 0.390625
C17.4062 0.390625 8.79688 3.03125 6.09375 10.8281
C6.59375 10.625 7.09375 10.625 7.59375 10.625
C10 10.625 11.7969 12.2188 11.7969 14.8125
C11.7969 17.7031 9.59375 19 7.59375 19
C5.90625 19 3.29688 18.2031 3.29688 14.4688
C3.29688 5.23438 12.2969 -2 22.9062 -2
C34 -2 42.5 6.71875 42.5 16.9531
C42.5 26.6719 34.5 33.6875 25 34.7969
C32.5938 36.375 39.9062 43.0625 39.9062 52.0156
C39.9062 59.6875 32 65.2969 23 65.2969
C13.9062 65.2969 5.90625 59.8281 5.90625 52.0156
C5.90625 48.5938 8.5 48 9.79688 48
C11.9062 48 13.7031 49.2969 13.7031 51.8906
C13.7031 54.4688 11.9062 55.7656 9.79688 55.7656
C9.40625 55.7656 8.90625 55.7656 8.5 55.5625
C11.4062 61.8594 19.2969 63 22.7969 63
C26.2969 63 32.9062 61.3281 32.9062 51.875
C32.9062 49.1094 32.5 44.1875 29.0938 39.8438
C26.0938 36 22.7031 36 19.4062 35.5938
C18.9062 35.5938 16.5938 35.5938 16.2031 35.5938
C15.5 35.4844 15.0938 35.3906 15.0938 34.5938
C15.0938 33.8125 15.2031 33.7031 17.2031 33.7031
z
" id="CMR17-51"/>
      <path d="
M65.9062 23
C67.5938 23 69.4062 23 69.4062 25
C69.4062 27 67.5938 27 65.9062 27
L11.7969 27
C10.0938 27 8.29688 27 8.29688 25
C8.29688 23 10.0938 23 11.7969 23
z
" id="CMSY10-0"/>
     </defs>
     <g transform="translate(45.36 8.664)scale(0.1 -0.1)">
      <use transform="scale(0.9962640099626402)" xlink:href="#CMSY10-2"/>
      <use transform="translate(77.4874676506071 0.0)scale(0.9962640099626402)" xlink:href="#CMR17-49"/>
      <use transform="translate(123.17794476766814 0.0)scale(0.9962640099626402)" xlink:href="#CMR17-48"/>
      <use transform="translate(168.86842188472914 36.15363894185866)scale(0.6973817666173724)" xlink:href="#CMSY10-0"/>
      <use transform="translate(223.1094151327055 36.15363894185866)scale(0.6973817666173724)" xlink:href="#CMR17-49"/>
      <use transform="translate(255.09259709682442 36.15363894185866)scale(0.6973817666173724)" xlink:href="#CMR17-51"/>
     </g>
    </g>
   </g>
   <g id="patch_3">
    <path d="
M45.36 56.376
L239.4 56.376" style="fill:none;stroke:#000000;"/>
   </g>
   <g id="patch_4">
    <path d="
M45.36 11.664
L239.4 11.664" style="fill:none;stroke:#000000;"/>
   </g>
   <g id="patch_5">
    <path d="
M45.36 56.376
L45.36 11.664" style="fill:none;stroke:#000000;"/>
   </g>
   <g id="patch_6">
    <path d="
M239.4 56.376
L239.4 11.664" style="fill:none;stroke:#000000;"/>
   </g>
  </g>
  <g id="axes_2">
   <g id="patch_7">
    <path d="
M45.36 101.088
L239.4 101.088
L239.4 56.376
L45.36 56.376
z
" style="fill:#ffffff;"/>
   </g>
   <g id="line2d_27">
    <path clip-path="url(#p93a8de2613)" d="
M45.36 73.143
L239.4 73.143" style="fill:none;stroke:#808080;stroke-dasharray:1.000000,3.000000;stroke-dashoffset:0.0;"/>
   </g>
   <g id="line2d_28">
    <path clip-path="url(#p93a8de2613)" d="
M45.8777 68.2361
L46.638 68.2361
L46.638 71.4682
L48.1585 71.4682
L48.1585 69.9626
L49.679 69.9626
L49.679 79.8865
L51.1993 79.8865
L51.1993 71.281
L52.7195 71.281
L52.7195 73.0167
L54.2396 73.0167
L54.2396 70.148
L55.7597 70.148
L55.7597 67.5239
L57.2796 67.5239
L57.2796 78.4692
L58.7994 78.4692
L58.7994 67.0287
L60.3191 67.0287
L60.3191 69.8328
L61.8388 69.8328
L61.8388 76.6677
L63.3583 76.6677
L63.3583 75.7194
L64.8777 75.7194
L64.8777 74.9552
L66.397 74.9552
L66.397 78.2923
L67.9162 78.2923
L67.9162 68.8913
L69.4354 68.8913
L69.4354 64.7426
L70.9544 64.7426
L70.9544 75.5645
L72.4733 75.5645
L72.4733 73.5652
L73.9921 73.5652
L73.9921 79.9219
L75.5108 79.9219
L75.5108 94.0935
L77.0294 94.0935
L77.0294 85.8001
L78.548 85.8001
L78.548 87.4899
L80.0664 87.4899
L80.0664 78.0756
L81.5847 78.0756
L81.5847 74.5308
L83.1029 74.5308
L83.1029 70.0734
L84.621 70.0734
L84.621 68.8621
L86.139 68.8621
L86.139 73.1329
L87.6569 73.1329
L87.6569 71.2345
L89.1748 71.2345
L89.1748 68.8617
L90.6925 68.8617
L90.6925 72.8457
L92.2101 72.8457
L92.2101 69.1182
L93.7276 69.1182
L93.7276 76.4468
L95.245 76.4468
L95.245 70.3603
L96.7623 70.3603
L96.7623 68.3187
L98.2795 68.3187
L98.2795 69.6336
L101.314 69.5318
L101.314 68.3671
L102.831 68.3671
L102.831 69.1314
L104.347 69.1314
L104.347 69.7647
L107.381 69.6938
L107.381 77.3101
L108.897 77.3101
L108.897 73.6366
L110.414 73.6366
L110.414 71.5632
L111.93 71.5632
L111.93 65.6673
L113.446 65.6673
L113.446 75.332
L114.962 75.332
L114.962 65.9439
L116.478 65.9439
L116.478 72.7544
L117.994 72.7544
L117.994 80.3407
L119.51 80.3407
L119.51 75.8985
L121.026 75.8985
L121.026 73.0357
L122.541 73.0357
L122.541 69.9203
L124.057 69.9203
L124.057 73.6077
L125.572 73.6077
L125.572 73.4218
L127.087 73.4218
L127.087 74.6383
L128.603 74.6383
L128.603 75.1645
L130.118 75.1645
L130.118 73.5653
L131.633 73.5653
L131.633 66.7913
L133.148 66.7913
L133.148 72.4305
L134.662 72.4305
L134.662 77.6786
L136.177 77.6786
L136.177 74.2722
L137.692 74.2722
L137.692 82.3775
L139.206 82.3775
L139.206 73.5778
L140.72 73.5778
L140.72 83.9049
L142.235 83.9049
L142.235 79.8859
L143.749 79.8859
L143.749 83.587
L145.263 83.587
L145.263 71.8404
L146.777 71.8404
L146.777 66.0552
L148.291 66.0552
L148.291 78.6583
L149.805 78.6583
L149.805 70.4995
L151.318 70.4995
L151.318 69.4847
L152.832 69.4847
L152.832 68.5835
L154.345 68.5835
L154.345 66.957
L155.859 66.957
L155.859 62.4703
L157.372 62.4703
L157.372 71.1559
L158.885 71.1559
L158.885 67.6251
L160.398 67.6251
L160.398 65.247
L161.911 65.247
L161.911 68.1142
L163.424 68.1142
L163.424 69.8844
L164.937 69.8844
L164.937 70.8399
L166.45 70.8399
L166.45 74.5373
L167.962 74.5373
L167.962 77.03
L169.475 77.03
L169.475 81.4453
L170.987 81.4453
L170.987 88.3833
L172.499 88.3833
L172.499 93.3335
L174.012 93.3335
L174.012 96.6068
L175.524 96.6068
L175.524 84.196
L177.036 84.196
L177.036 80.6738
L178.547 80.6738
L178.547 87.3892
L180.059 87.3892
L180.059 78.5687
L181.571 78.5687
L181.571 77.1706
L183.082 77.1706
L183.082 70.3443
L184.594 70.3443
L184.594 76.3353
L186.105 76.3353
L186.105 75.0967
L187.617 75.0967
L187.617 71.9989
L189.128 71.9989
L189.128 66.6971
L190.639 66.6971
L190.639 65.3499
L192.15 65.3499
L192.15 71.5235
L193.661 71.5235
L193.661 72.1759
L195.171 72.1759
L195.171 72.6389
L196.682 72.6389
L196.682 77.7975
L198.193 77.7975
L198.193 71.8037
L199.703 71.8037
L199.703 68.0217
L201.213 68.0217
L201.213 76.4729
L202.724 76.4729
L202.724 69.5301
L204.234 69.5301
L204.234 73.8138
L205.744 73.8138
L205.744 68.1444
L207.254 68.1444
L207.254 66.8708
L208.764 66.8708
L208.764 65.41
L210.273 65.41
L210.273 59.5624
L211.783 59.5624
L211.783 65.4825
L213.293 65.4825
L213.293 69.6395
L214.802 69.6395
L214.802 68.0045
L216.311 68.0045
L216.311 76.7475
L217.821 76.7475
L217.821 70.2004
L219.33 70.2004
L219.33 73.3867
L220.839 73.3867
L220.839 69.4576
L222.348 69.4576
L222.348 72.0311
L223.857 72.0311
L223.857 66.3844
L225.365 66.3844
L225.365 64.8761
L226.874 64.8761
L226.874 70.0991
L228.382 70.0991
L228.382 66.5622
L229.891 66.5622
L229.891 67.8962
L231.399 67.8962
L231.399 71.0111
L232.907 71.0111
L232.907 70.7135
L234.416 70.7135
L234.416 67.0326
L235.924 67.0326
L235.924 61.329
L237.432 61.329
L237.432 70.7971
L238.186 70.7971
L238.186 70.7971" style="fill:none;stroke:#000000;stroke-linecap:square;"/>
   </g>
   <g id="matplotlib.axis_3">
    <g id="xtick_8">
     <g id="line2d_29">
      <g>
       <use style="stroke:#000000;stroke-width:0.5;" x="45.36" xlink:href="#mc7db9fdffb" y="101.088"/>
      </g>
     </g>
     <g id="line2d_30">
      <g>
       <use style="stroke:#000000;stroke-width:0.5;" x="45.36" xlink:href="#m5a7d422ac3" y="56.376"/>
      </g>
     </g>
     <g id="text_7">
      <!-- 5144 -->
      <defs>
       <path d="
M11.4062 57.6875
C12.4062 57.2812 16.5 56 20.7031 56
C30 56 35.0938 61.0156 38 63.9219
C38 64.7344 38 65.25 37.4062 65.25
C37.2969 65.25 37.0938 65.25 36.2969 64.8281
C32.7969 63.3125 28.7031 62.0781 23.7031 62.0781
C20.7031 62.0781 16.2031 62.5 11.2969 64.7344
C10.2031 65.25 10 65.25 9.90625 65.25
C9.40625 65.25 9.29688 65.1406 9.29688 63.1562
L9.29688 34.2812
C9.29688 32.5 9.29688 32 10.2969 32
C10.7969 32 11 32.2031 11.5 32.9062
C14.7031 37.4844 19.0938 39.4062 24.0938 39.4062
C27.5938 39.4062 35.0938 37.2188 35.0938 20.1406
C35.0938 16.9531 35.0938 11.1719 32.0938 6.57812
C29.5938 2.48438 25.7031 0.390625 21.4062 0.390625
C14.7969 0.390625 8.09375 5 6.29688 12.7188
C6.70312 12.6094 7.5 12.4219 7.90625 12.4219
C9.20312 12.4219 11.7031 13.125 11.7031 16.2188
C11.7031 18.9062 9.79688 20 7.90625 20
C5.59375 20 4.09375 18.5938 4.09375 15.7969
C4.09375 7.09375 11 -2 21.5938 -2
C31.9062 -2 41.7031 6.875 41.7031 19.75
C41.7031 31.7188 33.9062 41 24.2031 41
C19.0938 41 14.7969 39.0938 11.4062 35.4531
z
" id="CMR17-53"/>
      </defs>
      <g transform="translate(35.3973294968 112.00649838)scale(0.1 -0.1)">
       <use transform="scale(0.9962640099626402)" xlink:href="#CMR17-53"/>
       <use transform="translate(45.69047711706103 0.0)scale(0.9962640099626402)" xlink:href="#CMR17-49"/>
       <use transform="translate(91.38095423412206 0.0)scale(0.9962640099626402)" xlink:href="#CMR17-52"/>
       <use transform="translate(137.07143135118307 0.0)scale(0.9962640099626402)" xlink:href="#CMR17-52"/>
      </g>
     </g>
    </g>
    <g id="xtick_9">
     <g id="line2d_31">
      <g>
       <use style="stroke:#000000;stroke-width:0.5;" x="77.7" xlink:href="#mc7db9fdffb" y="101.088"/>
      </g>
     </g>
     <g id="line2d_32">
      <g>
       <use style="stroke:#000000;stroke-width:0.5;" x="77.7" xlink:href="#m5a7d422ac3" y="56.376"/>
      </g>
     </g>
     <g id="text_8">
      <!-- 5145 -->
      <g transform="translate(67.7373294968 112.00649838)scale(0.1 -0.1)">
       <use transform="scale(0.9962640099626402)" xlink:href="#CMR17-53"/>
       <use transform="translate(45.69047711706103 0.0)scale(0.9962640099626402)" xlink:href="#CMR17-49"/>
       <use transform="translate(91.38095423412206 0.0)scale(0.9962640099626402)" xlink:href="#CMR17-52"/>
       <use transform="translate(137.07143135118307 0.0)scale(0.9962640099626402)" xlink:href="#CMR17-53"/>
      </g>
     </g>
    </g>
    <g id="xtick_10">
     <g id="line2d_33">
      <g>
       <use style="stroke:#000000;stroke-width:0.5;" x="110.04" xlink:href="#mc7db9fdffb" y="101.088"/>
      </g>
     </g>
     <g id="line2d_34">
      <g>
       <use style="stroke:#000000;stroke-width:0.5;" x="110.04" xlink:href="#m5a7d422ac3" y="56.376"/>
      </g>
     </g>
     <g id="text_9">
      <!-- 5146 -->
      <g transform="translate(100.077329497 112.00649838)scale(0.1 -0.1)">
       <use transform="scale(0.9962640099626402)" xlink:href="#CMR17-53"/>
       <use transform="translate(45.69047711706103 0.0)scale(0.9962640099626402)" xlink:href="#CMR17-49"/>
       <use transform="translate(91.38095423412206 0.0)scale(0.9962640099626402)" xlink:href="#CMR17-52"/>
       <use transform="translate(137.07143135118307 0.0)scale(0.9962640099626402)" xlink:href="#CMR17-54"/>
      </g>
     </g>
    </g>
    <g id="xtick_11">
     <g id="line2d_35">
      <g>
       <use style="stroke:#000000;stroke-width:0.5;" x="142.38" xlink:href="#mc7db9fdffb" y="101.088"/>
      </g>
     </g>
     <g id="line2d_36">
      <g>
       <use style="stroke:#000000;stroke-width:0.5;" x="142.38" xlink:href="#m5a7d422ac3" y="56.376"/>
      </g>
     </g>
     <g id="text_10">
      <!-- 5147 -->
      <defs>
       <path d="
M45.0938 61.5781
L45.0938 63.7656
L21.5938 63.7656
C9.90625 63.7656 9.70312 65.0781 9.29688 67
L7.5 67
L4.59375 48.3438
L6.40625 48.3438
C6.70312 50.2344 7.40625 55.3125 8.59375 57.2031
C9.20312 58 16.5938 58 18.2969 58
L40.2969 58
L29.2031 41.5781
C21.7969 30.5312 16.7031 15.6094 16.7031 2.57812
C16.7031 1.39062 16.7031 -2 20.2969 -2
C23.9062 -2 23.9062 1.39062 23.9062 2.67188
L23.9062 7.26562
C23.9062 23.5625 26.7031 34.3125 31.2969 41.1875
z
" id="CMR17-55"/>
      </defs>
      <g transform="translate(132.417329497 112.00649838)scale(0.1 -0.1)">
       <use transform="scale(0.9962640099626402)" xlink:href="#CMR17-53"/>
       <use transform="translate(45.69047711706103 0.0)scale(0.9962640099626402)" xlink:href="#CMR17-49"/>
       <use transform="translate(91.38095423412206 0.0)scale(0.9962640099626402)" xlink:href="#CMR17-52"/>
       <use transform="translate(137.07143135118307 0.0)scale(0.9962640099626402)" xlink:href="#CMR17-55"/>
      </g>
     </g>
    </g>
    <g id="xtick_12">
     <g id="line2d_37">
      <g>
       <use style="stroke:#000000;stroke-width:0.5;" x="174.72" xlink:href="#mc7db9fdffb" y="101.088"/>
      </g>
     </g>
     <g id="line2d_38">
      <g>
       <use style="stroke:#000000;stroke-width:0.5;" x="174.72" xlink:href="#m5a7d422ac3" y="56.376"/>
      </g>
     </g>
     <g id="text_11">
      <!-- 5148 -->
      <g transform="translate(164.757329497 112.00649838)scale(0.1 -0.1)">
       <use transform="scale(0.9962640099626402)" xlink:href="#CMR17-53"/>
       <use transform="translate(45.69047711706103 0.0)scale(0.9962640099626402)" xlink:href="#CMR17-49"/>
       <use transform="translate(91.38095423412206 0.0)scale(0.9962640099626402)" xlink:href="#CMR17-52"/>
       <use transform="translate(137.07143135118307 0.0)scale(0.9962640099626402)" xlink:href="#CMR17-56"/>
      </g>
     </g>
    </g>
    <g id="xtick_13">
     <g id="line2d_39">
      <g>
       <use style="stroke:#000000;stroke-width:0.5;" x="207.06" xlink:href="#mc7db9fdffb" y="101.088"/>
      </g>
     </g>
     <g id="line2d_40">
      <g>
       <use style="stroke:#000000;stroke-width:0.5;" x="207.06" xlink:href="#m5a7d422ac3" y="56.376"/>
      </g>
     </g>
     <g id="text_12">
      <!-- 5149 -->
      <defs>
       <path d="
M35.2031 29.125
C35.2031 7.25 26.0938 0.484375 18.5938 0.484375
C16.2969 0.484375 10.7031 0.484375 8.40625 4.59375
C11 4.1875 12.9062 5.57812 12.9062 8.09375
C12.9062 10.8125 10.7031 11.7031 9.29688 11.7031
C8.40625 11.7031 5.70312 11.2969 5.70312 7.90625
C5.70312 1.10938 11.5938 -2 18.7969 -2
C30.2969 -2 42 10.5312 42 32.3906
C42 59.6406 30.7969 65.2969 23.2031 65.2969
C13.2969 65.2969 3.79688 56.6875 3.79688 43.4062
C3.79688 31.1094 11.9062 22 22.0938 22
C30.5 22 34.2031 29.7344 35.2031 33
z

M22.2969 23.5938
C19.5938 23.5938 15.7969 24.0938 12.7031 30.0312
C10.5938 33.8906 10.5938 38.4531 10.5938 43.2969
C10.5938 49.1562 10.5938 53.2031 13.4062 57.5625
C14.7969 59.6406 17.4062 63 23.2031 63
C35 63 35 45.0781 35 41.125
C35 34.0938 31.7969 23.5938 22.2969 23.5938" id="CMR17-57"/>
      </defs>
      <g transform="translate(197.097329497 112.00649838)scale(0.1 -0.1)">
       <use transform="scale(0.9962640099626402)" xlink:href="#CMR17-53"/>
       <use transform="translate(45.69047711706103 0.0)scale(0.9962640099626402)" xlink:href="#CMR17-49"/>
       <use transform="translate(91.38095423412206 0.0)scale(0.9962640099626402)" xlink:href="#CMR17-52"/>
       <use transform="translate(137.07143135118307 0.0)scale(0.9962640099626402)" xlink:href="#CMR17-57"/>
      </g>
     </g>
    </g>
    <g id="xtick_14">
     <g id="line2d_41">
      <g>
       <use style="stroke:#000000;stroke-width:0.5;" x="239.4" xlink:href="#mc7db9fdffb" y="101.088"/>
      </g>
     </g>
     <g id="line2d_42">
      <g>
       <use style="stroke:#000000;stroke-width:0.5;" x="239.4" xlink:href="#m5a7d422ac3" y="56.376"/>
      </g>
     </g>
     <g id="text_13">
      <!-- 5150 -->
      <g transform="translate(229.437329497 112.00649838)scale(0.1 -0.1)">
       <use transform="scale(0.9962640099626402)" xlink:href="#CMR17-53"/>
       <use transform="translate(45.69047711706103 0.0)scale(0.9962640099626402)" xlink:href="#CMR17-49"/>
       <use transform="translate(91.38095423412206 0.0)scale(0.9962640099626402)" xlink:href="#CMR17-53"/>
       <use transform="translate(137.07143135118307 0.0)scale(0.9962640099626402)" xlink:href="#CMR17-48"/>
      </g>
     </g>
    </g>
    <g id="text_14">
     <!-- $\lambda$ [\AA] -->
     <defs>
      <path d="
M30.9062 61.9531
C28.4062 69 20.5 69 19.2031 69
C18.5938 69 17.5 69 17.5 68
C17.5 67.2188 18.0938 67.1094 18.5938 67.0156
C20.0938 66.8125 21.2969 66.6094 22.9062 63.75
C23.9062 61.8594 34.2031 32.1719 34.2031 31.9688
C34.2031 31.875 34.0938 31.7656 33.2969 30.9688
L7.29688 4.85938
C6.09375 3.65625 5.29688 2.85938 5.29688 1.59375
C5.29688 0.1875 6.5 -1 8.09375 -1
C8.5 -1 9.59375 -0.796875 10.2031 -0.203125
C11.7969 1.28125 26.0938 18.6562 35.2031 29.3906
C37.7969 21.6094 41 12.4531 44.0938 4.07812
C44.5938 2.59375 45.0938 1.1875 46.5 -0.09375
C47.5 -1 47.7031 -1 50.5 -1
L52.4062 -1
C52.7969 -1 53.5 -1 53.5 -0.171875
C53.5 0.265625 53.4062 0.359375 53 0.78125
C52.0938 1.875 51.4062 3.65625 51 4.84375
z
" id="CMMI12-21"/>
      <path d="
M23.5 -25
L23.5 -21.5156
L14.0938 -21.5156
L14.0938 71
L23.5 71
L23.5 74.4844
L10.5938 74.4844
L10.5938 -25
z
" id="CMR17-91"/>
      <path d="
M14.2969 74.4844
L1.40625 74.4844
L1.40625 71
L10.7969 71
L10.7969 -21.5156
L1.40625 -21.5156
L1.40625 -25
L14.2969 -25
z
" id="CMR17-93"/>
      <path d="
M43.2969 61.8125
C43.2969 66.7969 39.2969 70.5938 34.5938 70.5938
C29.9062 70.5938 25.9062 66.7969 25.9062 61.8125
C25.9062 56.7969 29.9062 53 34.5938 53
C39.2969 53 43.2969 56.7969 43.2969 61.8125
M34.5938 54.5938
C30.4062 54.5938 27.7031 57.1875 27.7031 61.8125
C27.7031 66.5 30.5 69 34.5938 69
C38.7969 69 41.5 66.4062 41.5 61.8125
C41.5 57.0938 38.7031 54.5938 34.5938 54.5938" id="CMR17-23"/>
      <path d="
M36.2969 68.4062
C35.7969 69.7031 35.5938 70 34.5938 70
C33.5938 70 33.4062 69.7031 32.9062 68.4062
L11.7031 8.84375
C9.79688 3.48438 5.79688 2.39062 2.29688 2.39062
L2.29688 -0.203125
C4.09375 0 8.09375 0 10 0
C12.5 0 16.5 0 18.9062 -0.203125
L18.9062 2.39062
C14.2031 2.39062 13.5 5.64062 13.5 6.85938
C13.5 7.76562 13.7031 8.28125 13.9062 8.89062
L19.2031 24
L45.4062 24
L51.4062 6.90625
C51.9062 5.70312 51.9062 5.5 51.9062 5.10938
C51.9062 2.39062 47.5938 2.39062 45.7031 2.39062
L45.7031 0
C48.5938 0 53.7969 0 56.9062 0
C59.5 0 64.5 0 66.9062 -0.203125
L66.9062 2.39062
C61.5938 2.39062 59.7969 2.39062 58.5 6.04688
z

M32.2969 60.5312
L44.5 26.5938
L20.0938 26.5938
z
" id="CMR17-65"/>
     </defs>
     <g transform="translate(131.310373708 127.623620816)scale(0.1 -0.1)">
      <use transform="scale(0.9962640099626402)" xlink:href="#CMMI12-21"/>
      <use transform="translate(86.98003823552305 0.0)scale(0.9962640099626402)" xlink:href="#CMR17-91"/>
      <use transform="translate(111.85109671738793 17.61874416251557)scale(0.9962640099626402)" xlink:href="#CMR17-23"/>
      <use transform="translate(111.85109671738793 0.0)scale(0.9962640099626402)" xlink:href="#CMR17-65"/>
      <use transform="translate(180.92352652163763 0.0)scale(0.9962640099626402)" xlink:href="#CMR17-93"/>
     </g>
    </g>
   </g>
   <g id="matplotlib.axis_4">
    <g id="ytick_6">
     <g id="line2d_43">
      <g>
       <use style="stroke:#000000;stroke-width:0.5;" x="45.36" xlink:href="#md7965d1ba0" y="99.9702"/>
      </g>
     </g>
     <g id="line2d_44">
      <g>
       <use style="stroke:#000000;stroke-width:0.5;" x="239.4" xlink:href="#md9a1c1a7cd" y="99.9702"/>
      </g>
     </g>
     <g id="text_15">
      <!-- $-2.4$ -->
      <g transform="translate(20.881177299 102.460860025)scale(0.1 -0.1)">
       <use transform="scale(0.9962640099626402)" xlink:href="#CMSY10-0"/>
       <use transform="translate(77.4874676506071 0.0)scale(0.9962640099626402)" xlink:href="#CMR17-50"/>
       <use transform="translate(123.17794476766814 0.0)scale(0.9962640099626402)" xlink:href="#CMMI12-58"/>
       <use transform="translate(150.27512185748756 0.0)scale(0.9962640099626402)" xlink:href="#CMR17-52"/>
      </g>
     </g>
    </g>
    <g id="ytick_7">
     <g id="line2d_45">
      <g>
       <use style="stroke:#000000;stroke-width:0.5;" x="45.36" xlink:href="#md7965d1ba0" y="91.0278"/>
      </g>
     </g>
     <g id="line2d_46">
      <g>
       <use style="stroke:#000000;stroke-width:0.5;" x="239.4" xlink:href="#md9a1c1a7cd" y="91.0278"/>
      </g>
     </g>
     <g id="text_16">
      <!-- $-1.6$ -->
      <g transform="translate(20.881177299 93.5184600249)scale(0.1 -0.1)">
       <use transform="scale(0.9962640099626402)" xlink:href="#CMSY10-0"/>
       <use transform="translate(77.4874676506071 0.0)scale(0.9962640099626402)" xlink:href="#CMR17-49"/>
       <use transform="translate(123.17794476766814 0.0)scale(0.9962640099626402)" xlink:href="#CMMI12-58"/>
       <use transform="translate(150.27512185748756 0.0)scale(0.9962640099626402)" xlink:href="#CMR17-54"/>
      </g>
     </g>
    </g>
    <g id="ytick_8">
     <g id="line2d_47">
      <g>
       <use style="stroke:#000000;stroke-width:0.5;" x="45.36" xlink:href="#md7965d1ba0" y="82.0854"/>
      </g>
     </g>
     <g id="line2d_48">
      <g>
       <use style="stroke:#000000;stroke-width:0.5;" x="239.4" xlink:href="#md9a1c1a7cd" y="82.0854"/>
      </g>
     </g>
     <g id="text_17">
      <!-- $-0.8$ -->
      <g transform="translate(20.881177299 84.5760600249)scale(0.1 -0.1)">
       <use transform="scale(0.9962640099626402)" xlink:href="#CMSY10-0"/>
       <use transform="translate(77.4874676506071 0.0)scale(0.9962640099626402)" xlink:href="#CMR17-48"/>
       <use transform="translate(123.17794476766814 0.0)scale(0.9962640099626402)" xlink:href="#CMMI12-58"/>
       <use transform="translate(150.27512185748756 0.0)scale(0.9962640099626402)" xlink:href="#CMR17-56"/>
      </g>
     </g>
    </g>
    <g id="ytick_9">
     <g id="line2d_49">
      <g>
       <use style="stroke:#000000;stroke-width:0.5;" x="45.36" xlink:href="#md7965d1ba0" y="73.143"/>
      </g>
     </g>
     <g id="line2d_50">
      <g>
       <use style="stroke:#000000;stroke-width:0.5;" x="239.4" xlink:href="#md9a1c1a7cd" y="73.143"/>
      </g>
     </g>
     <g id="text_18">
      <!-- $0.0$ -->
      <g transform="translate(28.6299210237 75.6336600249)scale(0.1 -0.1)">
       <use transform="scale(0.9962640099626402)" xlink:href="#CMR17-48"/>
       <use transform="translate(45.69047711706103 0.0)scale(0.9962640099626402)" xlink:href="#CMMI12-58"/>
       <use transform="translate(72.78765420688046 0.0)scale(0.9962640099626402)" xlink:href="#CMR17-48"/>
      </g>
     </g>
    </g>
    <g id="ytick_10">
     <g id="line2d_51">
      <g>
       <use style="stroke:#000000;stroke-width:0.5;" x="45.36" xlink:href="#md7965d1ba0" y="64.2006"/>
      </g>
     </g>
     <g id="line2d_52">
      <g>
       <use style="stroke:#000000;stroke-width:0.5;" x="239.4" xlink:href="#md9a1c1a7cd" y="64.2006"/>
      </g>
     </g>
     <g id="text_19">
      <!-- $0.8$ -->
      <g transform="translate(28.6299210237 66.6912600249)scale(0.1 -0.1)">
       <use transform="scale(0.9962640099626402)" xlink:href="#CMR17-48"/>
       <use transform="translate(45.69047711706103 0.0)scale(0.9962640099626402)" xlink:href="#CMMI12-58"/>
       <use transform="translate(72.78765420688046 0.0)scale(0.9962640099626402)" xlink:href="#CMR17-56"/>
      </g>
     </g>
    </g>
    <g id="text_20">
     <!-- $\times10^{-14}$ -->
     <g transform="translate(45.36 53.376)scale(0.1 -0.1)">
      <use transform="scale(0.9962640099626402)" xlink:href="#CMSY10-2"/>
      <use transform="translate(77.4874676506071 0.0)scale(0.9962640099626402)" xlink:href="#CMR17-49"/>
      <use transform="translate(123.17794476766814 0.0)scale(0.9962640099626402)" xlink:href="#CMR17-48"/>
      <use transform="translate(168.86842188472914 36.15363894185866)scale(0.6973817666173724)" xlink:href="#CMSY10-0"/>
      <use transform="translate(223.1094151327055 36.15363894185866)scale(0.6973817666173724)" xlink:href="#CMR17-49"/>
      <use transform="translate(255.09259709682442 36.15363894185866)scale(0.6973817666173724)" xlink:href="#CMR17-52"/>
     </g>
    </g>
   </g>
   <g id="patch_8">
    <path d="
M45.36 101.088
L239.4 101.088" style="fill:none;stroke:#000000;"/>
   </g>
   <g id="patch_9">
    <path d="
M45.36 56.376
L239.4 56.376" style="fill:none;stroke:#000000;"/>
   </g>
   <g id="patch_10">
    <path d="
M45.36 101.088
L45.36 56.376" style="fill:none;stroke:#000000;"/>
   </g>
   <g id="patch_11">
    <path d="
M239.4 101.088
L239.4 56.376" style="fill:none;stroke:#000000;"/>
   </g>
  </g>
  <g id="text_21">
   <!-- $f_\lambda \quad [\textrm{erg}\;\textrm{cm}^{-2}\;\textrm{s}^{-1}\;\textrm{\AA}^{-1}]$ -->
   <defs>
    <path d="
M67.5938 30.2031
C67.5938 35.1875 66.7031 43.5938 54.7969 43.5938
C48 43.5938 43.2969 39 41.5 33.5938
L41.4062 33.5938
C40.2031 41.7969 34.2969 43.5938 28.7031 43.5938
C20.7969 43.5938 16.7031 37.5625 15.2031 33.5938
L15.0938 33.5938
L15.0938 43.5938
L3.29688 42.5
L3.29688 39.9062
C9.20312 39.9062 10.0938 39.2969 10.0938 34.5
L10.0938 6.6875
C10.0938 2.875 9.70312 2.39062 3.29688 2.39062
L3.29688 -0.203125
C5.70312 0 10.0938 0 12.7031 0
C15.2969 0 19.7969 0 22.2031 -0.203125
L22.2031 2.39062
C15.7969 2.39062 15.4062 2.78125 15.4062 6.6875
L15.4062 25.9062
C15.4062 35.1094 21 42 28 42
C35.4062 42 36.2031 35.4062 36.2031 30.5938
L36.2031 6.6875
C36.2031 2.875 35.7969 2.39062 29.4062 2.39062
L29.4062 -0.203125
C31.7969 0 36.2031 0 38.7969 0
C41.4062 0 45.9062 0 48.2969 -0.203125
L48.2969 2.39062
C41.9062 2.39062 41.5 2.78125 41.5 6.6875
L41.5 25.9062
C41.5 35.1094 47.0938 42 54.0938 42
C61.5 42 62.2969 35.4062 62.2969 30.5938
L62.2969 6.6875
C62.2969 2.875 61.9062 2.39062 55.5 2.39062
L55.5 -0.203125
C57.9062 0 62.2969 0 64.9062 0
C67.5 0 72 0 74.4062 -0.203125
L74.4062 2.39062
C68 2.39062 67.5938 2.78125 67.5938 6.6875
z
" id="CMR17-109"/>
    <path d="
M11.0938 18.1875
C13 16.6875 16.2969 15 20.2969 15
C28.2031 15 35 21.2031 35 29.5
C35 32.0938 34.2031 36.0938 31.2031 39.2031
C34 42.0625 38.0938 43 40.4062 43
C40.7969 43 41.4062 43 41.9062 42.7656
C41.5 42.6719 40.5938 42.2812 40.5938 40.7344
C40.5938 39.4844 41.5 38.6094 42.7969 38.6094
C44.2969 38.6094 45.0938 39.5781 45.0938 40.8438
C45.0938 42.6719 43.5938 44.5938 40.4062 44.5938
C36.4062 44.5938 32.9062 42.7812 30.0938 40.3125
C27.0938 43.0156 23.5 44 20.2969 44
C12.4062 44 5.59375 37.7969 5.59375 29.5
C5.59375 23.7812 8.90625 20.1875 9.90625 19.1875
C6.90625 15.6875 6.90625 11.6094 6.90625 11.1094
C6.90625 8.51562 7.90625 4.71875 11.2969 2.625
C6.09375 1.32812 2 -2.64062 2 -7.59375
C2 -14.7344 11.5 -20 22.9062 -20
C33.9062 -20 43.7969 -14.9375 43.7969 -7.48438
C43.7969 6 29 6 21.2969 6
C19 6 14.9062 6 14.4062 6.10938
C11.2969 6.60938 9.20312 9.40625 9.20312 12.8906
C9.20312 13.7812 9.20312 16 11.0938 18.1875
M20.2969 16.6875
C11.5 16.6875 11.5 27.5 11.5 29.5156
C11.5 31.5 11.5 42.3125 20.2969 42.3125
C29.0938 42.3125 29.0938 31.5 29.0938 29.5156
C29.0938 27.5 29.0938 16.6875 20.2969 16.6875
M22.9062 -18.2969
C12.9062 -18.2969 6 -13.0469 6 -7.59375
C6 -4.51562 7.70312 -1.64062 9.90625 -0.0625
C12.4062 1.625 13.4062 1.625 20.2031 1.625
C28.4062 1.625 39.7969 1.625 39.7969 -7.59375
C39.7969 -13.0469 32.9062 -18.2969 22.9062 -18.2969" id="CMR17-103"/>
    <path d="
M44.5938 40.0938
C46.5938 40.0938 47.4062 40.0938 47.4062 42
C47.4062 43 46.5938 43 44.7969 43
L36.7031 43
C38.5938 53.5781 40 60.8906 40.7969 64.1719
C41.4062 66.6406 43.5 69 46.0938 69
C48.2031 69 50.2969 68.0938 51.2969 67.1562
C47.4062 66.75 46.2031 63.7812 46.2031 62.0156
C46.2031 59.9531 47.7031 58.7344 49.5938 58.7344
C51.5938 58.7344 54.5938 60.4688 54.5938 64.3594
C54.5938 68.6406 50.4062 71 46 71
C41.7031 71 37.5 67.7188 35.5 63.7188
C33.7031 60.125 32.7031 56.4375 30.4062 43
L23.7031 43
C21.7969 43 20.7969 43 20.7969 41.2031
C20.7969 40.0938 21.4062 40.0938 23.4062 40.0938
L29.7969 40.0938
C28 30.875 23.9062 8.46875 21.5938 -2.14062
C19.9062 -10.7656 18.4062 -18 13.4062 -18
C13.0938 -18 10.2031 -18 8.40625 -16.1094
C13.5 -15.7031 13.5 -11.3438 13.5 -11.25
C13.5 -9.26562 12 -8.07812 10.0938 -8.07812
C8.09375 -8.07812 5.09375 -9.76562 5.09375 -13.5469
C5.09375 -17.8125 9.5 -20 13.4062 -20
C23.5938 -20 27.7969 -1.84375 28.9062 3.10938
C30.7031 10.75 35.5938 37.125 36.0938 40.0938
z
" id="CMMI12-102"/>
    <path d="
M15 23.3906
C15 33 19.0938 42 26.5938 42
C27.2969 42 28 41.9062 28.7031 41.5938
C28.7031 41.5938 26.5 40.8906 26.5 38.3125
C26.5 35.9062 28.4062 34.9062 29.9062 34.9062
C31.0938 34.9062 33.2969 35.6094 33.2969 38.4062
C33.2969 41.6094 30.0938 43.5938 26.7031 43.5938
C19.0938 43.5938 15.7969 36.2031 14.7969 32.7031
L14.7031 32.7031
L14.7031 43.5938
L3.09375 42.5
L3.09375 39.9062
C9 39.9062 9.90625 39.2969 9.90625 34.5
L9.90625 6.6875
C9.90625 2.875 9.5 2.39062 3.09375 2.39062
L3.09375 -0.203125
C5.5 0 10.0938 0 12.7031 0
C15.5938 0 20.7031 0 23.4062 -0.203125
L23.4062 2.39062
C16.2031 2.39062 15 2.39062 15 6.875
z
" id="CMR17-114"/>
    <path d="
M38.0938 23
C38.5 23.4062 38.5 23.6094 38.5 24.625
C38.5 34.9688 33.0938 44 21.7031 44
C11.0938 44 2.70312 33.8906 2.70312 21.6094
C2.70312 8.60938 12.2031 -1 22.7969 -1
C34 -1 38.4062 9.46875 38.4062 11.5469
C38.4062 12.25 37.7969 12.25 37.5938 12.25
C36.9062 12.25 36.7969 12.0469 36.4062 10.875
C34.2031 4.14062 28.7031 0.796875 23.5 0.796875
C19.2031 0.796875 14.9062 3.17188 12.2031 7.5
C9.09375 12.5469 9.09375 18.375 9.09375 23
z

M9.20312 24.5
C9.90625 39.1406 17.5938 42.4062 21.5938 42.4062
C28.4062 42.4062 33 35.8906 33.0938 24.5
z
" id="CMR17-101"/>
    <path d="
M30.9062 42.1094
C30.9062 43.9062 30.7969 44 30.2031 44
C29.7969 44 29.7031 43.9062 28.5 42.4219
C28.2031 42.0156 27.2969 41.0156 27 40.625
C23.7969 44 19.2969 44 17.5938 44
C6.5 44 2.5 38.1719 2.5 32.375
C2.5 23.3438 12.7031 21.25 15.5938 20.6406
C21.9062 19.3438 24.0938 18.9375 26.2031 17.125
C27.5 15.9375 29.7031 13.7344 29.7031 10.125
C29.7031 5.90625 27.2969 0.5 18.0938 0.5
C9.40625 0.5 6.29688 7.0625 4.5 15.8281
C4.20312 17.2188 4.20312 17.3281 3.40625 17.3281
C2.59375 17.3281 2.5 17.2188 2.5 15.2344
L2.5 0.890625
C2.5 -0.890625 2.59375 -1 3.20312 -1
C3.70312 -1 3.79688 -0.890625 4.29688 -0.09375
C4.90625 0.796875 6.40625 3.1875 7 4.1875
C9 1.54688 12.5 -1 18.0938 -1
C28 -1 33.2969 4.40625 33.2969 12.2344
C33.2969 17.3438 30.5938 20.0625 29.2969 21.25
C26.2969 24.375 22.7969 25.0625 18.5938 25.8594
C13.0938 27.0781 6.09375 28.4688 6.09375 34.5938
C6.09375 37.1875 7.5 42.7188 17.5938 42.7188
C28.2969 42.7188 28.9062 32.75 29.0938 29.5625
C29.2031 29.0781 29.7031 28.9688 30 28.9688
C30.9062 28.9688 30.9062 29.2812 30.9062 30.9688
z
" id="CMR17-115"/>
    <path d="
M34.9062 35
C33 35 30.2031 35 30.2031 31.5156
C30.2031 28.7188 32.5 27.9219 33.7969 27.9219
C34.5 27.9219 37.4062 28.2344 37.4062 31.625
C37.4062 38.5469 30.5938 43.7969 22.9062 43.7969
C12.2969 43.7969 3.29688 34.0312 3.29688 21.2969
C3.29688 8.0625 12.7031 -1 22.9062 -1
C35.2969 -1 38.4062 10.5938 38.4062 11.6875
C38.4062 12.0938 38.2969 12.3906 37.5938 12.3906
C36.9062 12.3906 36.7969 12.2969 36.4062 10.9844
C33.7969 2.8125 28.0938 0.796875 23.7969 0.796875
C17.4062 0.796875 9.70312 6.67188 9.70312 21.3906
C9.70312 36.5312 17.0938 42 23 42
C26.9062 42 32.7031 40.2031 34.9062 35" id="CMR17-99"/>
   </defs>
   <g transform="translate(18.8247183657 118.086886383)rotate(-90.0)scale(0.1 -0.1)">
    <use transform="translate(0.0 14.943914544092468)scale(0.9962640099626402)" xlink:href="#CMMI12-102"/>
    <use transform="translate(48.083237663449566 0.0)scale(0.6973817666173724)" xlink:href="#CMMI12-21"/>
    <use transform="translate(179.79508301389322 14.943914544092468)scale(0.9962640099626402)" xlink:href="#CMR17-91"/>
    <use transform="translate(204.66614149575813 14.943914544092468)scale(0.9962640099626402)" xlink:href="#CMR17-101"/>
    <use transform="translate(245.15180195847606 14.943914544092468)scale(0.9962640099626402)" xlink:href="#CMR17-114"/>
    <use transform="translate(280.432569757939 14.943914544092468)scale(0.9962640099626402)" xlink:href="#CMR17-103"/>
    <use transform="translate(353.7970555971747 14.943914544092468)scale(0.9962640099626402)" xlink:href="#CMR17-99"/>
    <use transform="translate(394.2827160598926 14.943914544092468)scale(0.9962640099626402)" xlink:href="#CMR17-109"/>
    <use transform="translate(471.2023059279655 51.097553485951124)scale(0.6973817666173724)" xlink:href="#CMSY10-0"/>
    <use transform="translate(525.4432991759419 51.097553485951124)scale(0.6973817666173724)" xlink:href="#CMR17-50"/>
    <use transform="translate(585.5986218672167 14.943914544092468)scale(0.9962640099626402)" xlink:href="#CMR17-115"/>
    <use transform="translate(621.3999595024518 51.097553485951124)scale(0.6973817666173724)" xlink:href="#CMSY10-0"/>
    <use transform="translate(675.6409527504281 51.097553485951124)scale(0.6973817666173724)" xlink:href="#CMR17-49"/>
    <use transform="translate(735.7962754417031 32.56265870660803)scale(0.9962640099626402)" xlink:href="#CMR17-23"/>
    <use transform="translate(735.7962754417031 14.943914544092468)scale(0.9962640099626402)" xlink:href="#CMR17-65"/>
    <use transform="translate(804.8687052459528 74.82118143388077)scale(0.6973817666173724)" xlink:href="#CMSY10-0"/>
    <use transform="translate(859.109698493929 74.82118143388077)scale(0.6973817666173724)" xlink:href="#CMR17-49"/>
    <use transform="translate(891.5910124630293 14.943914544092468)scale(0.9962640099626402)" xlink:href="#CMR17-93"/>
   </g>
  </g>
 </g>
 <defs>
  <clipPath id="p4f47096078">
   <rect height="44.712" width="194.04" x="45.36" y="11.664"/>
  </clipPath>
  <clipPath id="p93a8de2613">
   <rect height="44.712" width="194.04" x="45.36" y="56.376"/>
  </clipPath>
 </defs>
</svg>
