<?xml version="1.0" encoding="utf-8" standalone="no"?>
<!DOCTYPE svg PUBLIC "-//W3C//DTD SVG 1.1//EN"
  "http://www.w3.org/Graphics/SVG/1.1/DTD/svg11.dtd">
<!-- Created with matplotlib (http://matplotlib.org/) -->
<svg height="129pt" version="1.1" viewBox="0 0 252 129" width="252pt" xmlns="http://www.w3.org/2000/svg" xmlns:xlink="http://www.w3.org/1999/xlink">
 <defs>
  <style type="text/css">
*{stroke-linecap:butt;stroke-linejoin:round;}
  </style>
 </defs>
 <g id="figure_1">
  <g id="patch_1">
   <path d="
M0 129.6
L252 129.6
L252 0
L0 0
z
" style="fill:#ffffff;"/>
  </g>
  <g id="axes_1">
   <g id="patch_2">
    <path d="
M45.36 56.376
L239.4 56.376
L239.4 11.664
L45.36 11.664
z
" style="fill:#ffffff;"/>
   </g>
   <g id="line2d_1">
    <path clip-path="url(#p4f47096078)" d="
M45.9272 19.0846
L46.4145 19.0846
L46.4145 18.3566
L47.3889 18.3566
L47.3889 18.643
L48.3632 18.643
L48.3632 19.7983
L49.3375 19.7983
L49.3375 21.8967
L50.3116 21.8967
L50.3116 22.9215
L51.2858 22.9215
L51.2858 22.3959
L52.2598 22.3959
L52.2598 21.9035
L53.2338 21.9035
L53.2338 19.2445
L54.2077 19.2445
L54.2077 17.9944
L55.1815 17.9944
L55.1815 19.0609
L56.1553 19.0609
L56.1553 18.6055
L57.129 18.6055
L57.129 19.0773
L58.1026 19.0773
L58.1026 18.068
L60.0497 17.9996
L60.0497 18.5315
L61.0231 18.5315
L61.0231 17.2337
L61.9964 17.2337
L61.9964 16.86
L62.9697 16.86
L62.9697 17.5995
L63.9429 17.5995
L63.9429 16.7294
L64.916 16.7294
L64.916 17.0833
L65.8891 17.0833
L65.8891 16.4795
L66.8621 16.4795
L66.8621 17.7801
L67.835 17.7801
L67.835 18.0419
L68.8079 18.0419
L68.8079 18.6649
L69.7806 18.6649
L69.7806 17.4265
L70.7533 17.4265
L70.7533 17.1346
L71.726 17.1346
L71.726 17.2828
L72.6986 17.2828
L72.6986 17.1166
L73.671 17.1166
L73.671 18.2861
L74.6435 18.2861
L74.6435 17.2933
L75.6158 17.2933
L75.6158 19.1624
L76.5881 19.1624
L76.5881 21.9327
L77.5603 21.9327
L77.5603 28.8265
L78.5325 28.8265
L78.5325 37.4477
L79.5045 37.4477
L79.5045 40.3244
L80.4766 40.3244
L80.4766 38.3025
L81.4485 38.3025
L81.4485 31.5779
L82.4203 31.5779
L82.4203 24.4547
L83.3921 24.4547
L83.3921 20.5627
L84.3639 20.5627
L84.3639 18.7048
L85.3355 18.7048
L85.3355 17.2549
L86.3071 17.2549
L86.3071 21.2624
L87.2786 21.2624
L87.2786 25.5202
L88.25 25.5202
L88.25 32.15
L89.2214 32.15
L89.2214 41.0543
L90.1927 41.0543
L90.1927 45.8015
L91.1639 45.8015
L91.1639 44.5979
L92.1351 44.5979
L92.1351 38.1765
L93.1062 38.1765
L93.1062 31.0398
L94.0772 31.0398
L94.0772 22.3912
L95.0481 22.3912
L95.0481 20.297
L96.019 20.297
L96.019 18.7955
L96.9898 18.7955
L96.9898 18.5809
L98.9312 18.571
L98.9312 17.8138
L99.9018 17.8138
L99.9018 19.5798
L100.872 19.5798
L100.872 17.115
L101.843 17.115
L101.843 18.1425
L102.813 18.1425
L102.813 19.1017
L103.783 19.1017
L103.783 18.8583
L104.754 18.8583
L104.754 17.7148
L105.724 17.7148
L105.724 18.6801
L106.694 18.6801
L106.694 18.1668
L107.664 18.1668
L107.664 20.0054
L108.634 20.0054
L108.634 17.443
L109.604 17.443
L109.604 18.5296
L110.574 18.5296
L110.574 19.8262
L111.543 19.8262
L111.543 24.9641
L112.513 24.9641
L112.513 32.4435
L113.483 32.4435
L113.483 40.6928
L114.452 40.6928
L114.452 43.612
L115.422 43.612
L115.422 38.3497
L116.391 38.3497
L116.391 29.8516
L117.36 29.8516
L117.36 22.9828
L118.33 22.9828
L118.33 21.5696
L119.299 21.5696
L119.299 20.1465
L120.268 20.1465
L120.268 18.6335
L121.237 18.6335
L121.237 19.8603
L122.206 19.8603
L122.206 19.9735
L124.144 19.9261
L124.144 21.3243
L125.112 21.3243
L125.112 23.279
L126.081 23.279
L126.081 24.0796
L127.05 24.0796
L127.05 23.0801
L128.018 23.0801
L128.018 21.8345
L128.987 21.8345
L128.987 20.7346
L129.955 20.7346
L129.955 25.2972
L130.923 25.2972
L130.923 30.7666
L131.892 30.7666
L131.892 40.4928
L132.86 40.4928
L132.86 47.9734
L133.828 47.9734
L133.828 47.711
L134.796 47.711
L134.796 43.0338
L135.764 43.0338
L135.764 34.0596
L136.732 34.0596
L136.732 26.172
L137.7 26.172
L137.7 22.1878
L138.667 22.1878
L138.667 20.2253
L139.635 20.2253
L139.635 19.1298
L140.603 19.1298
L140.603 17.4646
L141.57 17.4646
L141.57 18.617
L142.538 18.617
L142.538 18.2573
L143.505 18.2573
L143.505 20.1444
L144.473 20.1444
L144.473 25.1276
L145.44 25.1276
L145.44 30.379
L146.407 30.379
L146.407 35.1032
L147.374 35.1032
L147.374 33.6958
L148.341 33.6958
L148.341 27.5735
L149.308 27.5735
L149.308 22.2586
L150.275 22.2586
L150.275 20.614
L151.242 20.614
L151.242 18.2323
L152.209 18.2323
L152.209 20.0718
L153.175 20.0718
L153.175 21.0364
L154.142 21.0364
L154.142 21.6549
L155.109 21.6549
L155.109 20.3999
L156.075 20.3999
L156.075 21.1979
L157.041 21.1979
L157.041 20.3541
L158.008 20.3541
L158.008 20.054
L158.974 20.054
L158.974 21.5549
L159.94 21.5549
L159.94 26.5696
L160.906 26.5696
L160.906 35.8213
L161.872 35.8213
L161.872 44.9101
L162.838 44.9101
L162.838 47.6478
L163.804 47.6478
L163.804 45.4576
L164.77 45.4576
L164.77 40.5962
L165.736 40.5962
L165.736 36.0253
L166.702 36.0253
L166.702 32.942
L167.667 32.942
L167.667 26.8798
L168.633 26.8798
L168.633 23.5353
L169.598 23.5353
L169.598 23.1241
L170.564 23.1241
L170.564 24.46
L171.529 24.46
L171.529 25.9116
L172.494 25.9116
L172.494 24.9505
L173.46 24.9505
L173.46 23.2313
L175.39 23.2147
L175.39 20.9965
L177.32 20.9065
L177.32 19.1415
L178.285 19.1415
L178.285 21.2512
L179.249 21.2512
L179.249 20.8481
L180.214 20.8481
L180.214 23.0347
L181.179 23.0347
L181.179 29.0717
L182.143 29.0717
L182.143 36.4722
L183.108 36.4722
L183.108 46.1908
L184.072 46.1908
L184.072 52.3935
L185.037 52.3935
L185.037 50.9119
L186.001 50.9119
L186.001 43.1753
L186.965 43.1753
L186.965 32.4866
L187.929 32.4866
L187.929 25.51
L188.893 25.51
L188.893 21.4112
L189.857 21.4112
L189.857 19.4628
L191.785 19.5658
L191.785 18.1288
L192.749 18.1288
L192.749 18.2442
L193.713 18.2442
L193.713 19.9517
L194.676 19.9517
L194.676 20.7754
L195.64 20.7754
L195.64 18.8203
L196.603 18.8203
L196.603 20.7338
L197.567 20.7338
L197.567 20.2271
L198.53 20.2271
L198.53 20.6505
L199.494 20.6505
L199.494 21.8267
L200.457 21.8267
L200.457 20.5642
L201.42 20.5642
L201.42 19.0983
L202.383 19.0983
L202.383 19.8059
L203.346 19.8059
L203.346 17.972
L204.309 17.972
L204.309 17.1097
L205.272 17.1097
L205.272 17.5411
L206.235 17.5411
L206.235 17.4082
L207.197 17.4082
L207.197 18.2743
L208.16 18.2743
L208.16 18.5787
L210.085 18.6355
L210.085 18.9616
L211.048 18.9616
L211.048 17.4583
L212.01 17.4583
L212.01 18.8355
L212.972 18.8355
L212.972 18.3243
L213.935 18.3243
L213.935 16.8968
L214.897 16.8968
L214.897 19.0532
L215.859 19.0532
L215.859 18.435
L216.821 18.435
L216.821 19.7347
L217.783 19.7347
L217.783 18.3521
L218.745 18.3521
L218.745 18.7808
L219.706 18.7808
L219.706 20.5304
L220.668 20.5304
L220.668 19.9135
L221.63 19.9135
L221.63 22.5101
L223.553 22.5456
L223.553 23.3804
L224.514 23.3804
L224.514 22.6998
L225.476 22.6998
L225.476 22.3324
L226.437 22.3324
L226.437 23.0055
L227.398 23.0055
L227.398 25.2263
L228.359 25.2263
L228.359 27.264
L229.321 27.264
L229.321 26.1489
L230.282 26.1489
L230.282 23.846
L231.243 23.846
L231.243 20.411
L232.203 20.411
L232.203 19.5106
L233.164 19.5106
L233.164 19.2908
L234.125 19.2908
L234.125 19.5818
L235.086 19.5818
L235.086 18.8545
L237.007 18.8591
L237.007 19.2206
L237.967 19.2206
L237.967 20.0056
L238.447 20.0056
L238.447 20.0056" style="fill:none;stroke:#0000ff;stroke-linecap:square;"/>
   </g>
   <g id="line2d_2">
    <path clip-path="url(#p4f47096078)" d="
M45.9272 18.1549
L46.4145 18.1549
L46.4145 18.1549
L46.4145 18.1549
L46.4145 18.1962
L47.3889 18.1962
L47.3889 18.3325
L48.3632 18.3325
L48.3632 18.6678
L49.3375 18.6678
L49.3375 19.3048
L50.3116 19.3048
L50.3116 20.0522
L51.2858 20.0522
L51.2858 20.4244
L52.2598 20.4244
L52.2598 20.1661
L53.2338 20.1661
L53.2338 19.692
L54.2077 19.692
L54.2077 19.916
L55.1815 19.916
L55.1815 21.3563
L56.1553 21.3563
L56.1553 23.317
L57.129 23.317
L57.129 24.3431
L58.1026 24.3431
L58.1026 23.6235
L59.0762 23.6235
L59.0762 21.7365
L60.0497 21.7365
L60.0497 19.9448
L61.0231 19.9448
L61.0231 18.9175
L61.9964 18.9175
L61.9964 18.4873
L62.9697 18.4873
L62.9697 18.3104
L64.916 18.2216
L64.916 18.1763
L69.7806 18.2863
L69.7806 18.4367
L70.7533 18.4367
L70.7533 18.5556
L73.671 18.4685
L73.671 18.3778
L75.6158 18.4051
L75.6158 18.8513
L76.5881 18.8513
L76.5881 20.5945
L77.5603 20.5945
L77.5603 24.5944
L78.5325 24.5944
L78.5325 29.9685
L79.5045 29.9685
L79.5045 33.4917
L80.4766 33.4917
L80.4766 32.5038
L81.4485 32.5038
L81.4485 27.7897
L82.4203 27.7897
L82.4203 22.6984
L83.3921 22.6984
L83.3921 19.6551
L84.3639 19.6551
L84.3639 18.6829
L85.3355 18.6829
L85.3355 19.2191
L86.3071 19.2191
L86.3071 21.7402
L87.2786 21.7402
L87.2786 26.8629
L88.25 26.8629
L88.25 33.6025
L89.2214 33.6025
L89.2214 39.6473
L90.1927 39.6473
L90.1927 42.6666
L91.1639 42.6666
L91.1639 41.287
L92.1351 41.287
L92.1351 35.9569
L93.1062 35.9569
L93.1062 28.8889
L94.0772 28.8889
L94.0772 22.9968
L95.0481 22.9968
L95.0481 19.8667
L96.019 19.8667
L96.019 18.8737
L98.9312 18.8977
L98.9312 19.0255
L100.872 18.9871
L100.872 18.7657
L101.843 18.7657
L101.843 18.5241
L106.694 18.4353
L106.694 18.3631
L109.604 18.3421
L109.604 18.7789
L110.574 18.7789
L110.574 20.6003
L111.543 20.6003
L111.543 25.3166
L112.513 25.3166
L112.513 32.9947
L113.483 32.9947
L113.483 40.3079
L114.452 40.3079
L114.452 42.4266
L115.422 42.4266
L115.422 37.78
L116.391 37.78
L116.391 29.7673
L117.36 29.7673
L117.36 23.1327
L118.33 23.1327
L118.33 19.7749
L119.299 19.7749
L119.299 18.678
L120.268 18.678
L120.268 18.4783
L121.237 18.4783
L121.237 18.7262
L122.206 18.7262
L122.206 19.4498
L123.175 19.4498
L123.175 20.4993
L124.144 20.4993
L124.144 21.4535
L125.112 21.4535
L125.112 21.8922
L126.081 21.8922
L126.081 21.6255
L127.05 21.6255
L127.05 20.8559
L128.018 20.8559
L128.018 20.1515
L128.987 20.1515
L128.987 20.64
L129.955 20.64
L129.955 23.9744
L130.923 23.9744
L130.923 30.8183
L131.892 30.8183
L131.892 39.159
L132.86 39.159
L132.86 44.9874
L134.796 45.0246
L134.796 39.3751
L135.764 39.3751
L135.764 31.3056
L136.732 31.3056
L136.732 24.3968
L137.7 24.3968
L137.7 20.3937
L138.667 20.3937
L138.667 18.862
L139.635 18.862
L139.635 18.4725
L141.57 18.3784
L141.57 18.3566
L142.538 18.3566
L142.538 18.5203
L143.505 18.5203
L143.505 19.3556
L144.473 19.3556
L144.473 21.5265
L145.44 21.5265
L145.44 24.7107
L146.407 24.7107
L146.407 27.0104
L147.374 27.0104
L147.374 26.6568
L148.341 26.6568
L148.341 23.9428
L149.308 23.9428
L149.308 20.9072
L150.275 20.9072
L150.275 19.173
L151.242 19.173
L151.242 18.7756
L152.209 18.7756
L152.209 19.0773
L153.175 19.0773
L153.175 19.5621
L154.142 19.5621
L154.142 19.8418
L155.109 19.8418
L155.109 19.7209
L156.075 19.7209
L156.075 19.3071
L157.041 19.3071
L157.041 18.9102
L158.974 18.9015
L158.974 20.0279
L159.94 20.0279
L159.94 23.6429
L160.906 23.6429
L160.906 30.2606
L161.872 30.2606
L161.872 37.498
L162.838 37.498
L162.838 41.3417
L163.804 41.3417
L163.804 40.4566
L164.77 40.4566
L164.77 37.4053
L165.736 37.4053
L165.736 34.6876
L166.702 34.6876
L166.702 31.9209
L167.667 31.9209
L167.667 27.9795
L168.633 27.9795
L168.633 23.8661
L169.598 23.8661
L169.598 21.5615
L170.564 21.5615
L170.564 21.1694
L172.494 21.21
L172.494 20.6966
L173.46 20.6966
L173.46 19.7751
L174.425 19.7751
L174.425 19.0367
L175.39 19.0367
L175.39 18.7536
L177.32 18.8318
L177.32 19.1163
L178.285 19.1163
L178.285 19.4859
L179.249 19.4859
L179.249 20.0632
L180.214 20.0632
L180.214 21.7839
L181.179 21.7839
L181.179 26.458
L182.143 26.458
L182.143 34.9294
L183.108 34.9294
L183.108 44.7981
L184.072 44.7981
L184.072 51.0975
L185.037 51.0975
L185.037 50.1727
L186.001 50.1727
L186.001 42.9362
L186.965 42.9362
L186.965 33.6485
L187.929 33.6485
L187.929 26.1509
L188.893 26.1509
L188.893 21.7237
L189.857 21.7237
L189.857 19.6801
L190.821 19.6801
L190.821 18.9249
L191.785 18.9249
L191.785 18.7193
L195.64 18.8149
L195.64 18.8475
L196.603 18.8475
L196.603 19.0645
L197.567 19.0645
L197.567 19.7042
L198.53 19.7042
L198.53 20.6274
L199.494 20.6274
L199.494 21.214
L200.457 21.214
L200.457 20.9755
L201.42 20.9755
L201.42 20.0833
L202.383 20.0833
L202.383 19.1776
L203.346 19.1776
L203.346 18.7
L205.272 18.646
L205.272 18.9381
L206.235 18.9381
L206.235 19.5451
L207.197 19.5451
L207.197 20.2252
L208.16 20.2252
L208.16 20.5717
L209.123 20.5717
L209.123 20.3737
L210.085 20.3737
L210.085 19.8032
L211.048 19.8032
L211.048 19.2218
L212.01 19.2218
L212.01 18.8338
L212.972 18.8338
L212.972 18.639
L217.783 18.6667
L217.783 18.761
L218.745 18.761
L218.745 18.9545
L219.706 18.9545
L219.706 19.5506
L220.668 19.5506
L220.668 21.1641
L221.63 21.1641
L221.63 24.1994
L222.591 24.1994
L222.591 27.8282
L223.553 27.8282
L223.553 30.0311
L224.514 30.0311
L224.514 29.4408
L225.476 29.4408
L225.476 26.9513
L226.437 26.9513
L226.437 24.9779
L227.398 24.9779
L227.398 24.802
L228.359 24.802
L228.359 25.2917
L229.321 25.2917
L229.321 24.7357
L230.282 24.7357
L230.282 22.8774
L231.243 22.8774
L231.243 20.8496
L232.203 20.8496
L232.203 19.6793
L233.164 19.6793
L233.164 19.3822
L235.086 19.488
L235.086 19.6624
L236.046 19.6624
L236.046 19.7794
L237.967 19.8507
L237.967 19.9638
L238.447 19.9638
L238.447 19.9638" style="fill:none;stroke:#ff0000;stroke-linecap:square;"/>
   </g>
   <g id="matplotlib.axis_1">
    <g id="xtick_1">
     <g id="line2d_3">
      <defs>
       <path d="
M0 0
L0 -4" id="mc7db9fdffb" style="stroke:#000000;stroke-width:0.5;"/>
      </defs>
      <g>
       <use style="stroke:#000000;stroke-width:0.5;" x="45.36" xlink:href="#mc7db9fdffb" y="56.376"/>
      </g>
     </g>
     <g id="line2d_4">
      <defs>
       <path d="
M0 0
L0 4" id="m5a7d422ac3" style="stroke:#000000;stroke-width:0.5;"/>
      </defs>
      <g>
       <use style="stroke:#000000;stroke-width:0.5;" x="45.36" xlink:href="#m5a7d422ac3" y="11.664"/>
      </g>
     </g>
    </g>
    <g id="xtick_2">
     <g id="line2d_5">
      <g>
       <use style="stroke:#000000;stroke-width:0.5;" x="88.48" xlink:href="#mc7db9fdffb" y="56.376"/>
      </g>
     </g>
     <g id="line2d_6">
      <g>
       <use style="stroke:#000000;stroke-width:0.5;" x="88.48" xlink:href="#m5a7d422ac3" y="11.664"/>
      </g>
     </g>
    </g>
    <g id="xtick_3">
     <g id="line2d_7">
      <g>
       <use style="stroke:#000000;stroke-width:0.5;" x="131.6" xlink:href="#mc7db9fdffb" y="56.376"/>
      </g>
     </g>
     <g id="line2d_8">
      <g>
       <use style="stroke:#000000;stroke-width:0.5;" x="131.6" xlink:href="#m5a7d422ac3" y="11.664"/>
      </g>
     </g>
    </g>
    <g id="xtick_4">
     <g id="line2d_9">
      <g>
       <use style="stroke:#000000;stroke-width:0.5;" x="174.72" xlink:href="#mc7db9fdffb" y="56.376"/>
      </g>
     </g>
     <g id="line2d_10">
      <g>
       <use style="stroke:#000000;stroke-width:0.5;" x="174.72" xlink:href="#m5a7d422ac3" y="11.664"/>
      </g>
     </g>
    </g>
    <g id="xtick_5">
     <g id="line2d_11">
      <g>
       <use style="stroke:#000000;stroke-width:0.5;" x="217.84" xlink:href="#mc7db9fdffb" y="56.376"/>
      </g>
     </g>
     <g id="line2d_12">
      <g>
       <use style="stroke:#000000;stroke-width:0.5;" x="217.84" xlink:href="#m5a7d422ac3" y="11.664"/>
      </g>
     </g>
    </g>
   </g>
   <g id="matplotlib.axis_2">
    <g id="ytick_1">
     <g id="line2d_13">
      <defs>
       <path d="
M0 0
L4 0" id="md7965d1ba0" style="stroke:#000000;stroke-width:0.5;"/>
      </defs>
      <g>
       <use style="stroke:#000000;stroke-width:0.5;" x="45.36" xlink:href="#md7965d1ba0" y="43.6011428571"/>
      </g>
     </g>
     <g id="line2d_14">
      <defs>
       <path d="
M0 0
L-4 0" id="md9a1c1a7cd" style="stroke:#000000;stroke-width:0.5;"/>
      </defs>
      <g>
       <use style="stroke:#000000;stroke-width:0.5;" x="239.4" xlink:href="#md9a1c1a7cd" y="43.6011428571"/>
      </g>
     </g>
     <g id="text_1">
      <!-- $1.2$ -->
      <defs>
       <path d="
M26.5938 63.3125
C26.5938 65.4062 26.5 65.5 25.0938 65.5
C21.2031 61.1875 15.2969 59.7969 9.70312 59.7969
C9.40625 59.7969 8.90625 59.7969 8.79688 59.6094
C8.70312 59.3906 8.70312 59.1719 8.70312 57
C11.7969 57 17 57.5938 21 59.9844
L21 7.20312
C21 3.6875 20.7969 2.5 12.2031 2.5
L9.20312 2.5
L9.20312 0
C14 0 19 0 23.7969 0
C28.5938 0 33.5938 0 38.4062 0
L38.4062 2.5
L35.4062 2.5
C26.7969 2.5 26.5938 3.59375 26.5938 7.15625
z
" id="CMR17-49"/>
       <path d="
M18.4062 4.79688
C18.4062 7.6875 16 9.67188 13.5938 9.67188
C10.7031 9.67188 8.70312 7.28125 8.70312 4.89062
C8.70312 2 11.0938 0 13.5 0
C16.4062 0 18.4062 2.39062 18.4062 4.79688" id="CMMI12-58"/>
       <path d="
M41.7031 15.4531
L39.9062 15.4531
C38.9062 8.375 38.0938 7.17188 37.7031 6.5625
C37.2031 5.76562 30 5.76562 28.5938 5.76562
L9.40625 5.76562
C13 9.67188 20 16.75 28.5 24.9531
C34.5938 30.7344 41.7031 37.5312 41.7031 47.4219
C41.7031 59.2188 32.2969 66 21.7969 66
C10.7969 66 4.09375 56.3125 4.09375 47.3438
C4.09375 43.4375 7 42.9375 8.20312 42.9375
C9.20312 42.9375 12.2031 43.5469 12.2031 47.0312
C12.2031 50.1094 9.59375 51 8.20312 51
C7.59375 51 7 50.9062 6.59375 50.7031
C8.5 59.2188 14.2969 63.4062 20.4062 63.4062
C29.0938 63.4062 34.7969 56.5156 34.7969 47.4219
C34.7969 38.7344 29.7031 31.25 24 24.75
L4.09375 2.28125
L4.09375 0
L39.2969 0
z
" id="CMR17-50"/>
      </defs>
      <g transform="translate(28.6299210237 46.091802882)scale(0.1 -0.1)">
       <use transform="scale(0.9962640099626402)" xlink:href="#CMR17-49"/>
       <use transform="translate(45.69047711706103 0.0)scale(0.9962640099626402)" xlink:href="#CMMI12-58"/>
       <use transform="translate(72.78765420688046 0.0)scale(0.9962640099626402)" xlink:href="#CMR17-50"/>
      </g>
     </g>
    </g>
    <g id="ytick_2">
     <g id="line2d_15">
      <g>
       <use style="stroke:#000000;stroke-width:0.5;" x="45.36" xlink:href="#md7965d1ba0" y="30.8262857143"/>
      </g>
     </g>
     <g id="line2d_16">
      <g>
       <use style="stroke:#000000;stroke-width:0.5;" x="239.4" xlink:href="#md9a1c1a7cd" y="30.8262857143"/>
      </g>
     </g>
     <g id="text_2">
      <!-- $1.6$ -->
      <defs>
       <path d="
M10.5938 34
C10.5938 57.6562 21.7969 63 28.2969 63
C30.4062 63 35.5 62.6406 37.5 59
C35.9062 59 32.9062 59 32.9062 55.5156
C32.9062 52.8281 35.0938 51.9219 36.5 51.9219
C37.4062 51.9219 40.0938 52.3125 40.0938 55.625
C40.0938 61.7812 35.0938 65.2969 28.2031 65.2969
C16.2969 65.2969 3.79688 52.9688 3.79688 31
C3.79688 3.95312 15.0938 -2 23.0938 -2
C32.7969 -2 42 6.67188 42 20.0469
C42 32.5156 33.9062 41.5938 23.7031 41.5938
C17.5938 41.5938 13.0938 37.6094 10.5938 30.625
z

M23.0938 0.390625
C10.7969 0.390625 10.7969 18.75 10.7969 22.4375
C10.7969 29.625 14.2031 40 23.5 40
C25.2031 40 30.0938 40 33.4062 33.125
C35.2031 29.2188 35.2031 25.1406 35.2031 20.1406
C35.2031 14.75 35.2031 10.7812 33.0938 6.78125
C30.9062 2.67188 27.7031 0.390625 23.0938 0.390625" id="CMR17-54"/>
      </defs>
      <g transform="translate(28.6299210237 33.3169457392)scale(0.1 -0.1)">
       <use transform="scale(0.9962640099626402)" xlink:href="#CMR17-49"/>
       <use transform="translate(45.69047711706103 0.0)scale(0.9962640099626402)" xlink:href="#CMMI12-58"/>
       <use transform="translate(72.78765420688046 0.0)scale(0.9962640099626402)" xlink:href="#CMR17-54"/>
      </g>
     </g>
    </g>
    <g id="ytick_3">
     <g id="line2d_17">
      <g>
       <use style="stroke:#000000;stroke-width:0.5;" x="45.36" xlink:href="#md7965d1ba0" y="18.0514285714"/>
      </g>
     </g>
     <g id="line2d_18">
      <g>
       <use style="stroke:#000000;stroke-width:0.5;" x="239.4" xlink:href="#md9a1c1a7cd" y="18.0514285714"/>
      </g>
     </g>
     <g id="text_3">
      <!-- $2.0$ -->
      <defs>
       <path d="
M42 31.6406
C42 37.75 41.9062 48.125 37.7031 56.1094
C34 63.1094 28.0938 65.5938 22.9062 65.5938
C18.0938 65.5938 12 63.4062 8.20312 56.2031
C4.20312 48.7188 3.79688 39.4375 3.79688 31.6406
C3.79688 25.9531 3.90625 17.2812 7 9.67188
C11.2969 -0.609375 19 -2 22.9062 -2
C27.5 -2 34.5 -0.109375 38.5938 9.375
C41.5938 16.2812 42 24.3594 42 31.6406
M22.9062 -0.40625
C16.5 -0.40625 12.7031 5.07812 11.2969 12.6875
C10.2031 18.5625 10.2031 27.1562 10.2031 32.75
C10.2031 40.4375 10.2031 46.8281 11.5 52.9219
C13.4062 61.3906 19 64 22.9062 64
C27 64 32.2969 61.2969 34.2031 53.125
C35.5 47.4375 35.5938 40.7344 35.5938 32.75
C35.5938 26.25 35.5938 18.2656 34.4062 12.375
C32.2969 1.48438 26.4062 -0.40625 22.9062 -0.40625" id="CMR17-48"/>
      </defs>
      <g transform="translate(28.6299210237 20.5420885963)scale(0.1 -0.1)">
       <use transform="scale(0.9962640099626402)" xlink:href="#CMR17-50"/>
       <use transform="translate(45.69047711706103 0.0)scale(0.9962640099626402)" xlink:href="#CMMI12-58"/>
       <use transform="translate(72.78765420688046 0.0)scale(0.9962640099626402)" xlink:href="#CMR17-48"/>
      </g>
     </g>
    </g>
    <g id="text_4">
     <!-- $\times10^{-13}$ -->
     <defs>
      <path d="
M38.9062 27.8906
L18.9062 47.7969
C17.7031 49 17.5 49.1875 16.7031 49.1875
C15.7031 49.1875 14.7031 48.2969 14.7031 47.1875
C14.7031 46.5 14.9062 46.2969 16 45.1875
L36 25.0938
L16 5
C14.9062 3.89062 14.7031 3.6875 14.7031 3
C14.7031 1.89062 15.7031 1 16.7031 1
C17.5 1 17.7031 1.1875 18.9062 2.39062
L38.7969 22.2969
L59.5 1.59375
C59.7031 1.5 60.4062 1 61 1
C62.2031 1 63 1.89062 63 3
C63 3.1875 63 3.59375 62.7031 4.09375
C62.5938 4.29688 46.7031 20 41.7031 25.0938
L60 43.3906
C60.5 44 62 45.2969 62.5 45.8906
C62.5938 46.0938 63 46.5 63 47.1875
C63 48.2969 62.2031 49.1875 61 49.1875
C60.2031 49.1875 59.7969 48.7969 58.7031 47.6875
z
" id="CMSY10-2"/>
      <path d="
M22.0938 33.7031
C31 33.7031 34.9062 25.9688 34.9062 17.0312
C34.9062 5 28.5 0.390625 22.7031 0.390625
C17.4062 0.390625 8.79688 3.03125 6.09375 10.8281
C6.59375 10.625 7.09375 10.625 7.59375 10.625
C10 10.625 11.7969 12.2188 11.7969 14.8125
C11.7969 17.7031 9.59375 19 7.59375 19
C5.90625 19 3.29688 18.2031 3.29688 14.4688
C3.29688 5.23438 12.2969 -2 22.9062 -2
C34 -2 42.5 6.71875 42.5 16.9531
C42.5 26.6719 34.5 33.6875 25 34.7969
C32.5938 36.375 39.9062 43.0625 39.9062 52.0156
C39.9062 59.6875 32 65.2969 23 65.2969
C13.9062 65.2969 5.90625 59.8281 5.90625 52.0156
C5.90625 48.5938 8.5 48 9.79688 48
C11.9062 48 13.7031 49.2969 13.7031 51.8906
C13.7031 54.4688 11.9062 55.7656 9.79688 55.7656
C9.40625 55.7656 8.90625 55.7656 8.5 55.5625
C11.4062 61.8594 19.2969 63 22.7969 63
C26.2969 63 32.9062 61.3281 32.9062 51.875
C32.9062 49.1094 32.5 44.1875 29.0938 39.8438
C26.0938 36 22.7031 36 19.4062 35.5938
C18.9062 35.5938 16.5938 35.5938 16.2031 35.5938
C15.5 35.4844 15.0938 35.3906 15.0938 34.5938
C15.0938 33.8125 15.2031 33.7031 17.2031 33.7031
z
" id="CMR17-51"/>
      <path d="
M65.9062 23
C67.5938 23 69.4062 23 69.4062 25
C69.4062 27 67.5938 27 65.9062 27
L11.7969 27
C10.0938 27 8.29688 27 8.29688 25
C8.29688 23 10.0938 23 11.7969 23
z
" id="CMSY10-0"/>
     </defs>
     <g transform="translate(45.36 8.664)scale(0.1 -0.1)">
      <use transform="scale(0.9962640099626402)" xlink:href="#CMSY10-2"/>
      <use transform="translate(77.4874676506071 0.0)scale(0.9962640099626402)" xlink:href="#CMR17-49"/>
      <use transform="translate(123.17794476766814 0.0)scale(0.9962640099626402)" xlink:href="#CMR17-48"/>
      <use transform="translate(168.86842188472914 36.15363894185866)scale(0.6973817666173724)" xlink:href="#CMSY10-0"/>
      <use transform="translate(223.1094151327055 36.15363894185866)scale(0.6973817666173724)" xlink:href="#CMR17-49"/>
      <use transform="translate(255.09259709682442 36.15363894185866)scale(0.6973817666173724)" xlink:href="#CMR17-51"/>
     </g>
    </g>
   </g>
   <g id="patch_3">
    <path d="
M45.36 56.376
L239.4 56.376" style="fill:none;stroke:#000000;"/>
   </g>
   <g id="patch_4">
    <path d="
M45.36 11.664
L239.4 11.664" style="fill:none;stroke:#000000;"/>
   </g>
   <g id="patch_5">
    <path d="
M45.36 56.376
L45.36 11.664" style="fill:none;stroke:#000000;"/>
   </g>
   <g id="patch_6">
    <path d="
M239.4 56.376
L239.4 11.664" style="fill:none;stroke:#000000;"/>
   </g>
  </g>
  <g id="axes_2">
   <g id="patch_7">
    <path d="
M45.36 101.088
L239.4 101.088
L239.4 56.376
L45.36 56.376
z
" style="fill:#ffffff;"/>
   </g>
   <g id="line2d_19">
    <path clip-path="url(#p93a8de2613)" d="
M45.36 78.732
L239.4 78.732" style="fill:none;stroke:#808080;stroke-dasharray:1.000000,3.000000;stroke-dashoffset:0.0;"/>
   </g>
   <g id="line2d_20">
    <path clip-path="url(#p93a8de2613)" d="
M45.9272 80.9014
L46.4145 80.9014
L46.4145 79.1062
L47.3889 79.1062
L47.3889 79.4565
L48.3632 79.4565
L48.3632 81.3698
L49.3375 81.3698
L49.3375 84.7798
L50.3116 84.7798
L50.3116 85.427
L51.2858 85.427
L51.2858 83.332
L52.2598 83.332
L52.2598 82.7861
L53.2338 82.7861
L53.2338 77.6878
L54.2077 77.6878
L54.2077 74.2483
L55.1815 74.2483
L55.1815 73.3761
L56.1553 73.3761
L56.1553 67.7385
L57.129 67.7385
L57.129 66.4451
L58.1026 66.4451
L58.1026 65.7692
L59.0762 65.7692
L59.0762 70.0126
L60.0497 70.0126
L60.0497 75.4344
L61.0231 75.4344
L61.0231 74.8032
L61.9964 74.8032
L61.9964 74.9348
L62.9697 74.9348
L62.9697 77.0731
L63.9429 77.0731
L63.9429 75.2501
L64.916 75.2501
L64.916 76.1816
L65.8891 76.1816
L65.8891 74.8175
L66.8621 74.8175
L66.8621 77.8535
L67.835 77.8535
L67.835 78.3876
L68.8079 78.3876
L68.8079 79.6154
L69.7806 79.6154
L69.7806 76.3748
L70.7533 76.3748
L70.7533 75.4164
L71.726 75.4164
L71.726 75.7498
L72.6986 75.7498
L72.6986 75.5776
L73.671 75.5776
L73.671 78.518
L74.6435 78.518
L74.6435 76.1379
L75.6158 76.1379
L75.6158 79.4579
L76.5881 79.4579
L76.5881 81.8544
L77.5603 81.8544
L77.5603 88.6069
L78.5325 88.6069
L78.5325 96.1837
L79.5045 96.1837
L79.5045 94.675
L80.4766 94.675
L80.4766 92.2624
L81.4485 92.2624
L81.4485 87.5711
L82.4203 87.5711
L82.4203 82.83
L83.3921 82.83
L83.3921 80.8499
L84.3639 80.8499
L84.3639 78.783
L85.3355 78.783
L85.3355 74.1489
L86.3071 74.1489
L86.3071 77.6171
L87.2786 77.6171
L87.2786 75.599
L88.25 75.599
L88.25 75.343
L89.2214 75.343
L89.2214 82.0151
L90.1927 82.0151
L90.1927 86.0467
L91.1639 86.0467
L91.1639 86.4574
L92.1351 86.4574
L92.1351 83.9111
L93.1062 83.9111
L93.1062 83.7509
L94.0772 83.7509
L94.0772 77.3189
L95.0481 77.3189
L95.0481 79.736
L96.019 79.736
L96.019 78.5496
L96.9898 78.5496
L96.9898 78.3039
L97.9605 78.3039
L97.9605 77.9698
L98.9312 77.9698
L98.9312 75.9047
L99.9018 75.9047
L99.9018 80.1148
L100.872 80.1148
L100.872 74.8804
L101.843 74.8804
L101.843 77.8417
L102.813 77.8417
L102.813 80.3181
L103.783 80.3181
L103.783 79.7044
L104.754 79.7044
L104.754 76.9762
L105.724 76.9762
L105.724 79.3032
L106.694 79.3032
L106.694 78.2739
L107.664 78.2739
L107.664 82.6988
L108.634 82.6988
L108.634 76.634
L109.604 76.634
L109.604 78.1503
L110.574 78.1503
L110.574 76.9257
L111.543 76.9257
L111.543 77.9094
L112.513 77.9094
L112.513 77.4459
L113.483 77.4459
L113.483 79.63
L114.452 79.63
L114.452 81.4979
L115.422 81.4979
L115.422 80.0612
L116.391 80.0612
L116.391 78.9286
L117.36 78.9286
L117.36 78.3822
L118.33 78.3822
L118.33 82.9197
L119.299 82.9197
L119.299 82.1584
L120.268 82.1584
L120.268 79.0942
L121.237 79.0942
L121.237 81.3783
L122.206 81.3783
L122.206 79.954
L123.175 79.954
L123.175 77.3947
L124.144 77.3947
L124.144 78.4304
L125.112 78.4304
L125.112 81.9679
L126.081 81.9679
L126.081 84.4582
L127.05 84.4582
L127.05 83.9218
L128.018 83.9218
L128.018 82.6592
L128.987 82.6592
L128.987 78.9528
L129.955 78.9528
L129.955 81.8185
L130.923 81.8185
L130.923 78.6113
L131.892 78.6113
L131.892 81.844
L132.86 81.844
L132.86 85.6993
L133.828 85.6993
L133.828 85.0002
L134.796 85.0002
L134.796 87.2692
L135.764 87.2692
L135.764 85.1581
L136.732 85.1581
L136.732 82.8741
L138.667 82.9183
L138.667 81.913
L139.635 81.913
L139.635 80.2656
L140.603 80.2656
L140.603 76.5998
L141.57 76.5998
L141.57 79.3395
L142.538 79.3395
L142.538 78.1182
L143.505 78.1182
L143.505 80.5725
L144.473 80.5725
L144.473 87.1344
L145.44 87.1344
L145.44 91.9582
L146.407 91.9582
L146.407 97.6152
L147.374 97.6152
L147.374 95.1563
L148.341 95.1563
L148.341 87.2037
L149.308 87.2037
L149.308 81.8852
L150.275 81.8852
L150.275 82.0941
L151.242 82.0941
L151.242 77.4642
L152.209 77.4642
L152.209 81.0525
L153.175 81.0525
L153.175 82.172
L154.142 82.172
L154.142 82.9625
L155.109 82.9625
L155.109 80.3161
L156.075 80.3161
L156.075 83.1438
L157.041 83.1438
L157.041 82.1012
L158.008 82.1012
L158.008 81.421
L158.974 81.421
L158.974 82.295
L159.94 82.295
L159.94 85.5611
L160.906 85.5611
L160.906 91.7072
L161.872 91.7072
L161.872 96.0271
L162.838 96.0271
L162.838 93.4463
L163.804 93.4463
L163.804 90.4011
L164.77 90.4011
L164.77 86.1774
L165.736 86.1774
L165.736 81.8533
L166.702 81.8533
L166.702 81.1144
L167.667 81.1144
L167.667 76.1661
L168.633 76.1661
L168.633 77.9602
L169.598 77.9602
L169.598 82.378
L170.564 82.378
L170.564 86.4101
L171.529 86.4101
L171.529 89.7025
L172.494 89.7025
L172.494 88.6579
L173.46 88.6579
L173.46 86.7964
L174.425 86.7964
L174.425 88.4805
L175.39 88.4805
L175.39 83.9653
L176.355 83.9653
L176.355 83.5731
L177.32 83.5731
L177.32 78.7908
L178.285 78.7908
L178.285 82.851
L179.249 82.851
L179.249 80.5634
L180.214 80.5634
L180.214 81.6506
L181.179 81.6506
L181.179 84.8305
L182.143 84.8305
L182.143 82.3318
L183.108 82.3318
L183.108 81.9815
L184.072 81.9815
L184.072 81.7559
L185.037 81.7559
L185.037 80.4569
L186.001 80.4569
L186.001 79.2899
L186.965 79.2899
L186.965 76.0208
L187.929 76.0208
L187.929 77.2366
L188.893 77.2366
L188.893 78.0028
L189.857 78.0028
L189.857 78.2249
L190.821 78.2249
L190.821 80.2274
L191.785 80.2274
L191.785 77.3541
L192.749 77.3541
L192.749 77.623
L193.713 77.623
L193.713 81.4703
L194.676 81.4703
L194.676 83.3065
L195.64 83.3065
L195.64 78.6686
L196.603 78.6686
L196.603 82.6269
L197.567 82.6269
L197.567 79.9521
L198.53 79.9521
L198.53 78.786
L199.494 78.786
L199.494 80.1617
L200.457 80.1617
L200.457 77.7723
L201.42 77.7723
L201.42 76.4338
L202.383 76.4338
L202.383 80.1979
L203.346 80.1979
L203.346 77.0332
L204.309 77.0332
L204.309 75.1472
L205.272 75.1472
L205.272 75.4724
L206.235 75.4724
L206.235 73.746
L207.197 73.746
L207.197 74.1799
L209.123 74.0817
L209.123 74.6762
L210.085 74.6762
L210.085 76.7682
L211.048 76.7682
L211.048 74.6171
L212.01 74.6171
L212.01 78.736
L212.972 78.736
L212.972 77.9978
L213.935 77.9978
L213.935 74.8241
L214.897 74.8241
L214.897 79.8597
L215.859 79.8597
L215.859 78.3385
L216.821 78.3385
L216.821 81.2239
L217.783 81.2239
L217.783 77.7777
L218.745 77.7777
L218.745 78.3267
L219.706 78.3267
L219.706 81.0182
L220.668 81.0182
L220.668 75.814
L221.63 75.814
L221.63 74.7903
L222.591 74.7903
L222.591 66.406
L223.553 66.406
L223.553 63.2138
L224.514 63.2138
L224.514 63.0031
L225.476 63.0031
L225.476 67.9547
L226.437 67.9547
L226.437 74.1295
L227.398 74.1295
L227.398 79.7221
L228.359 79.7221
L228.359 83.334
L229.321 83.334
L229.321 82.0295
L230.282 82.0295
L230.282 80.9923
L231.243 80.9923
L231.243 77.7088
L232.203 77.7088
L232.203 78.3384
L233.164 78.3384
L233.164 78.5187
L234.125 78.5187
L234.125 78.9509
L235.086 78.9509
L235.086 76.8469
L236.046 76.8469
L236.046 76.5847
L237.007 76.5847
L237.007 77.2615
L237.967 77.2615
L237.967 78.8295
L238.447 78.8295
L238.447 78.8295" style="fill:none;stroke:#000000;stroke-linecap:square;"/>
   </g>
   <g id="matplotlib.axis_3">
    <g id="xtick_6">
     <g id="line2d_21">
      <g>
       <use style="stroke:#000000;stroke-width:0.5;" x="45.36" xlink:href="#mc7db9fdffb" y="101.088"/>
      </g>
     </g>
     <g id="line2d_22">
      <g>
       <use style="stroke:#000000;stroke-width:0.5;" x="45.36" xlink:href="#m5a7d422ac3" y="56.376"/>
      </g>
     </g>
     <g id="text_5">
      <!-- 5260 -->
      <defs>
       <path d="
M11.4062 57.6875
C12.4062 57.2812 16.5 56 20.7031 56
C30 56 35.0938 61.0156 38 63.9219
C38 64.7344 38 65.25 37.4062 65.25
C37.2969 65.25 37.0938 65.25 36.2969 64.8281
C32.7969 63.3125 28.7031 62.0781 23.7031 62.0781
C20.7031 62.0781 16.2031 62.5 11.2969 64.7344
C10.2031 65.25 10 65.25 9.90625 65.25
C9.40625 65.25 9.29688 65.1406 9.29688 63.1562
L9.29688 34.2812
C9.29688 32.5 9.29688 32 10.2969 32
C10.7969 32 11 32.2031 11.5 32.9062
C14.7031 37.4844 19.0938 39.4062 24.0938 39.4062
C27.5938 39.4062 35.0938 37.2188 35.0938 20.1406
C35.0938 16.9531 35.0938 11.1719 32.0938 6.57812
C29.5938 2.48438 25.7031 0.390625 21.4062 0.390625
C14.7969 0.390625 8.09375 5 6.29688 12.7188
C6.70312 12.6094 7.5 12.4219 7.90625 12.4219
C9.20312 12.4219 11.7031 13.125 11.7031 16.2188
C11.7031 18.9062 9.79688 20 7.90625 20
C5.59375 20 4.09375 18.5938 4.09375 15.7969
C4.09375 7.09375 11 -2 21.5938 -2
C31.9062 -2 41.7031 6.875 41.7031 19.75
C41.7031 31.7188 33.9062 41 24.2031 41
C19.0938 41 14.7969 39.0938 11.4062 35.4531
z
" id="CMR17-53"/>
      </defs>
      <g transform="translate(35.3973294968 112.00649838)scale(0.1 -0.1)">
       <use transform="scale(0.9962640099626402)" xlink:href="#CMR17-53"/>
       <use transform="translate(45.69047711706103 0.0)scale(0.9962640099626402)" xlink:href="#CMR17-50"/>
       <use transform="translate(91.38095423412206 0.0)scale(0.9962640099626402)" xlink:href="#CMR17-54"/>
       <use transform="translate(137.07143135118307 0.0)scale(0.9962640099626402)" xlink:href="#CMR17-48"/>
      </g>
     </g>
    </g>
    <g id="xtick_7">
     <g id="line2d_23">
      <g>
       <use style="stroke:#000000;stroke-width:0.5;" x="88.48" xlink:href="#mc7db9fdffb" y="101.088"/>
      </g>
     </g>
     <g id="line2d_24">
      <g>
       <use style="stroke:#000000;stroke-width:0.5;" x="88.48" xlink:href="#m5a7d422ac3" y="56.376"/>
      </g>
     </g>
     <g id="text_6">
      <!-- 5262 -->
      <g transform="translate(78.5173294968 112.00649838)scale(0.1 -0.1)">
       <use transform="scale(0.9962640099626402)" xlink:href="#CMR17-53"/>
       <use transform="translate(45.69047711706103 0.0)scale(0.9962640099626402)" xlink:href="#CMR17-50"/>
       <use transform="translate(91.38095423412206 0.0)scale(0.9962640099626402)" xlink:href="#CMR17-54"/>
       <use transform="translate(137.07143135118307 0.0)scale(0.9962640099626402)" xlink:href="#CMR17-50"/>
      </g>
     </g>
    </g>
    <g id="xtick_8">
     <g id="line2d_25">
      <g>
       <use style="stroke:#000000;stroke-width:0.5;" x="131.6" xlink:href="#mc7db9fdffb" y="101.088"/>
      </g>
     </g>
     <g id="line2d_26">
      <g>
       <use style="stroke:#000000;stroke-width:0.5;" x="131.6" xlink:href="#m5a7d422ac3" y="56.376"/>
      </g>
     </g>
     <g id="text_7">
      <!-- 5264 -->
      <defs>
       <path d="
M33.5938 64.3281
C33.5938 66.4062 33.5 66.5 31.7031 66.5
L2 19.5938
L2 17
L27.7969 17
L27.7969 7.14062
C27.7969 3.5 27.5938 2.5 20.5938 2.5
L18.7031 2.5
L18.7031 0
C21.9062 0 27.2969 0 30.7031 0
C34.0938 0 39.5 0 42.7031 0
L42.7031 2.5
L40.7969 2.5
C33.7969 2.5 33.5938 3.5 33.5938 7.14062
L33.5938 17
L43.7969 17
L43.7969 19.5938
L33.5938 19.5938
z

M28.0938 57.7656
L28.0938 19.5938
L4 19.5938
z
" id="CMR17-52"/>
      </defs>
      <g transform="translate(121.637329497 112.00649838)scale(0.1 -0.1)">
       <use transform="scale(0.9962640099626402)" xlink:href="#CMR17-53"/>
       <use transform="translate(45.69047711706103 0.0)scale(0.9962640099626402)" xlink:href="#CMR17-50"/>
       <use transform="translate(91.38095423412206 0.0)scale(0.9962640099626402)" xlink:href="#CMR17-54"/>
       <use transform="translate(137.07143135118307 0.0)scale(0.9962640099626402)" xlink:href="#CMR17-52"/>
      </g>
     </g>
    </g>
    <g id="xtick_9">
     <g id="line2d_27">
      <g>
       <use style="stroke:#000000;stroke-width:0.5;" x="174.72" xlink:href="#mc7db9fdffb" y="101.088"/>
      </g>
     </g>
     <g id="line2d_28">
      <g>
       <use style="stroke:#000000;stroke-width:0.5;" x="174.72" xlink:href="#m5a7d422ac3" y="56.376"/>
      </g>
     </g>
     <g id="text_8">
      <!-- 5266 -->
      <g transform="translate(164.757329497 112.00649838)scale(0.1 -0.1)">
       <use transform="scale(0.9962640099626402)" xlink:href="#CMR17-53"/>
       <use transform="translate(45.69047711706103 0.0)scale(0.9962640099626402)" xlink:href="#CMR17-50"/>
       <use transform="translate(91.38095423412206 0.0)scale(0.9962640099626402)" xlink:href="#CMR17-54"/>
       <use transform="translate(137.07143135118307 0.0)scale(0.9962640099626402)" xlink:href="#CMR17-54"/>
      </g>
     </g>
    </g>
    <g id="xtick_10">
     <g id="line2d_29">
      <g>
       <use style="stroke:#000000;stroke-width:0.5;" x="217.84" xlink:href="#mc7db9fdffb" y="101.088"/>
      </g>
     </g>
     <g id="line2d_30">
      <g>
       <use style="stroke:#000000;stroke-width:0.5;" x="217.84" xlink:href="#m5a7d422ac3" y="56.376"/>
      </g>
     </g>
     <g id="text_9">
      <!-- 5268 -->
      <defs>
       <path d="
M27.2031 35.375
C33.5 38.5625 39.9062 43.3281 39.9062 50.9844
C39.9062 60.0312 31.0938 65.2969 23 65.2969
C13.9062 65.2969 5.90625 58.7344 5.90625 49.6875
C5.90625 47.2031 6.5 42.9219 10.4062 39.1406
C11.4062 38.1562 15.5938 35.1719 18.2969 33.2812
C13.7969 30.9844 3.29688 25.5312 3.29688 14.5938
C3.29688 4.35938 13.0938 -2 22.7969 -2
C33.5 -2 42.5 5.65625 42.5 15.7969
C42.5 24.8438 36.4062 29.0312 32.4062 31.7031
z

M14.0938 44.125
C13.2969 44.625 9.29688 47.7031 9.29688 52.375
C9.29688 58.4375 15.5938 63 22.7969 63
C30.7031 63 36.5 57.4531 36.5 50.9844
C36.5 41.7344 26.0938 36.4688 25.5938 36.4688
C25.5 36.4688 25.4062 36.4688 24.5938 37.0781
z

M32.5 23.7344
C34 22.6406 38.7969 19.375 38.7969 13.2969
C38.7969 5.95312 31.4062 0.390625 23 0.390625
C13.9062 0.390625 7 6.84375 7 14.6875
C7 22.5469 13.0938 29.0938 20 32.1875
z
" id="CMR17-56"/>
      </defs>
      <g transform="translate(207.877329497 112.00649838)scale(0.1 -0.1)">
       <use transform="scale(0.9962640099626402)" xlink:href="#CMR17-53"/>
       <use transform="translate(45.69047711706103 0.0)scale(0.9962640099626402)" xlink:href="#CMR17-50"/>
       <use transform="translate(91.38095423412206 0.0)scale(0.9962640099626402)" xlink:href="#CMR17-54"/>
       <use transform="translate(137.07143135118307 0.0)scale(0.9962640099626402)" xlink:href="#CMR17-56"/>
      </g>
     </g>
    </g>
    <g id="text_10">
     <!-- $\lambda$ [\AA] -->
     <defs>
      <path d="
M30.9062 61.9531
C28.4062 69 20.5 69 19.2031 69
C18.5938 69 17.5 69 17.5 68
C17.5 67.2188 18.0938 67.1094 18.5938 67.0156
C20.0938 66.8125 21.2969 66.6094 22.9062 63.75
C23.9062 61.8594 34.2031 32.1719 34.2031 31.9688
C34.2031 31.875 34.0938 31.7656 33.2969 30.9688
L7.29688 4.85938
C6.09375 3.65625 5.29688 2.85938 5.29688 1.59375
C5.29688 0.1875 6.5 -1 8.09375 -1
C8.5 -1 9.59375 -0.796875 10.2031 -0.203125
C11.7969 1.28125 26.0938 18.6562 35.2031 29.3906
C37.7969 21.6094 41 12.4531 44.0938 4.07812
C44.5938 2.59375 45.0938 1.1875 46.5 -0.09375
C47.5 -1 47.7031 -1 50.5 -1
L52.4062 -1
C52.7969 -1 53.5 -1 53.5 -0.171875
C53.5 0.265625 53.4062 0.359375 53 0.78125
C52.0938 1.875 51.4062 3.65625 51 4.84375
z
" id="CMMI12-21"/>
      <path d="
M23.5 -25
L23.5 -21.5156
L14.0938 -21.5156
L14.0938 71
L23.5 71
L23.5 74.4844
L10.5938 74.4844
L10.5938 -25
z
" id="CMR17-91"/>
      <path d="
M14.2969 74.4844
L1.40625 74.4844
L1.40625 71
L10.7969 71
L10.7969 -21.5156
L1.40625 -21.5156
L1.40625 -25
L14.2969 -25
z
" id="CMR17-93"/>
      <path d="
M43.2969 61.8125
C43.2969 66.7969 39.2969 70.5938 34.5938 70.5938
C29.9062 70.5938 25.9062 66.7969 25.9062 61.8125
C25.9062 56.7969 29.9062 53 34.5938 53
C39.2969 53 43.2969 56.7969 43.2969 61.8125
M34.5938 54.5938
C30.4062 54.5938 27.7031 57.1875 27.7031 61.8125
C27.7031 66.5 30.5 69 34.5938 69
C38.7969 69 41.5 66.4062 41.5 61.8125
C41.5 57.0938 38.7031 54.5938 34.5938 54.5938" id="CMR17-23"/>
      <path d="
M36.2969 68.4062
C35.7969 69.7031 35.5938 70 34.5938 70
C33.5938 70 33.4062 69.7031 32.9062 68.4062
L11.7031 8.84375
C9.79688 3.48438 5.79688 2.39062 2.29688 2.39062
L2.29688 -0.203125
C4.09375 0 8.09375 0 10 0
C12.5 0 16.5 0 18.9062 -0.203125
L18.9062 2.39062
C14.2031 2.39062 13.5 5.64062 13.5 6.85938
C13.5 7.76562 13.7031 8.28125 13.9062 8.89062
L19.2031 24
L45.4062 24
L51.4062 6.90625
C51.9062 5.70312 51.9062 5.5 51.9062 5.10938
C51.9062 2.39062 47.5938 2.39062 45.7031 2.39062
L45.7031 0
C48.5938 0 53.7969 0 56.9062 0
C59.5 0 64.5 0 66.9062 -0.203125
L66.9062 2.39062
C61.5938 2.39062 59.7969 2.39062 58.5 6.04688
z

M32.2969 60.5312
L44.5 26.5938
L20.0938 26.5938
z
" id="CMR17-65"/>
     </defs>
     <g transform="translate(131.310373708 127.623620816)scale(0.1 -0.1)">
      <use transform="scale(0.9962640099626402)" xlink:href="#CMMI12-21"/>
      <use transform="translate(86.98003823552305 0.0)scale(0.9962640099626402)" xlink:href="#CMR17-91"/>
      <use transform="translate(111.85109671738793 17.61874416251557)scale(0.9962640099626402)" xlink:href="#CMR17-23"/>
      <use transform="translate(111.85109671738793 0.0)scale(0.9962640099626402)" xlink:href="#CMR17-65"/>
      <use transform="translate(180.92352652163763 0.0)scale(0.9962640099626402)" xlink:href="#CMR17-93"/>
     </g>
    </g>
   </g>
   <g id="matplotlib.axis_4">
    <g id="ytick_4">
     <g id="line2d_31">
      <g>
       <use style="stroke:#000000;stroke-width:0.5;" x="45.36" xlink:href="#md7965d1ba0" y="93.636"/>
      </g>
     </g>
     <g id="line2d_32">
      <g>
       <use style="stroke:#000000;stroke-width:0.5;" x="239.4" xlink:href="#md9a1c1a7cd" y="93.636"/>
      </g>
     </g>
     <g id="text_11">
      <!-- $-2$ -->
      <g transform="translate(28.6299210237 96.1266600249)scale(0.1 -0.1)">
       <use transform="scale(0.9962640099626402)" xlink:href="#CMSY10-0"/>
       <use transform="translate(77.4874676506071 0.0)scale(0.9962640099626402)" xlink:href="#CMR17-50"/>
      </g>
     </g>
    </g>
    <g id="ytick_5">
     <g id="line2d_33">
      <g>
       <use style="stroke:#000000;stroke-width:0.5;" x="45.36" xlink:href="#md7965d1ba0" y="78.732"/>
      </g>
     </g>
     <g id="line2d_34">
      <g>
       <use style="stroke:#000000;stroke-width:0.5;" x="239.4" xlink:href="#md9a1c1a7cd" y="78.732"/>
      </g>
     </g>
     <g id="text_12">
      <!-- $0$ -->
      <g transform="translate(36.3786647484 81.2226600249)scale(0.1 -0.1)">
       <use transform="scale(0.9962640099626402)" xlink:href="#CMR17-48"/>
      </g>
     </g>
    </g>
    <g id="ytick_6">
     <g id="line2d_35">
      <g>
       <use style="stroke:#000000;stroke-width:0.5;" x="45.36" xlink:href="#md7965d1ba0" y="63.828"/>
      </g>
     </g>
     <g id="line2d_36">
      <g>
       <use style="stroke:#000000;stroke-width:0.5;" x="239.4" xlink:href="#md9a1c1a7cd" y="63.828"/>
      </g>
     </g>
     <g id="text_13">
      <!-- $2$ -->
      <g transform="translate(36.3786647484 66.3186600249)scale(0.1 -0.1)">
       <use transform="scale(0.9962640099626402)" xlink:href="#CMR17-50"/>
      </g>
     </g>
    </g>
    <g id="text_14">
     <!-- $\times10^{-14}$ -->
     <g transform="translate(45.36 53.376)scale(0.1 -0.1)">
      <use transform="scale(0.9962640099626402)" xlink:href="#CMSY10-2"/>
      <use transform="translate(77.4874676506071 0.0)scale(0.9962640099626402)" xlink:href="#CMR17-49"/>
      <use transform="translate(123.17794476766814 0.0)scale(0.9962640099626402)" xlink:href="#CMR17-48"/>
      <use transform="translate(168.86842188472914 36.15363894185866)scale(0.6973817666173724)" xlink:href="#CMSY10-0"/>
      <use transform="translate(223.1094151327055 36.15363894185866)scale(0.6973817666173724)" xlink:href="#CMR17-49"/>
      <use transform="translate(255.09259709682442 36.15363894185866)scale(0.6973817666173724)" xlink:href="#CMR17-52"/>
     </g>
    </g>
   </g>
   <g id="patch_8">
    <path d="
M45.36 101.088
L239.4 101.088" style="fill:none;stroke:#000000;"/>
   </g>
   <g id="patch_9">
    <path d="
M45.36 56.376
L239.4 56.376" style="fill:none;stroke:#000000;"/>
   </g>
   <g id="patch_10">
    <path d="
M45.36 101.088
L45.36 56.376" style="fill:none;stroke:#000000;"/>
   </g>
   <g id="patch_11">
    <path d="
M239.4 101.088
L239.4 56.376" style="fill:none;stroke:#000000;"/>
   </g>
  </g>
  <g id="text_15">
   <!-- $f_\lambda \quad [\textrm{erg}\;\textrm{cm}^{-2}\;\textrm{s}^{-1}\;\textrm{\AA}^{-1}]$ -->
   <defs>
    <path d="
M67.5938 30.2031
C67.5938 35.1875 66.7031 43.5938 54.7969 43.5938
C48 43.5938 43.2969 39 41.5 33.5938
L41.4062 33.5938
C40.2031 41.7969 34.2969 43.5938 28.7031 43.5938
C20.7969 43.5938 16.7031 37.5625 15.2031 33.5938
L15.0938 33.5938
L15.0938 43.5938
L3.29688 42.5
L3.29688 39.9062
C9.20312 39.9062 10.0938 39.2969 10.0938 34.5
L10.0938 6.6875
C10.0938 2.875 9.70312 2.39062 3.29688 2.39062
L3.29688 -0.203125
C5.70312 0 10.0938 0 12.7031 0
C15.2969 0 19.7969 0 22.2031 -0.203125
L22.2031 2.39062
C15.7969 2.39062 15.4062 2.78125 15.4062 6.6875
L15.4062 25.9062
C15.4062 35.1094 21 42 28 42
C35.4062 42 36.2031 35.4062 36.2031 30.5938
L36.2031 6.6875
C36.2031 2.875 35.7969 2.39062 29.4062 2.39062
L29.4062 -0.203125
C31.7969 0 36.2031 0 38.7969 0
C41.4062 0 45.9062 0 48.2969 -0.203125
L48.2969 2.39062
C41.9062 2.39062 41.5 2.78125 41.5 6.6875
L41.5 25.9062
C41.5 35.1094 47.0938 42 54.0938 42
C61.5 42 62.2969 35.4062 62.2969 30.5938
L62.2969 6.6875
C62.2969 2.875 61.9062 2.39062 55.5 2.39062
L55.5 -0.203125
C57.9062 0 62.2969 0 64.9062 0
C67.5 0 72 0 74.4062 -0.203125
L74.4062 2.39062
C68 2.39062 67.5938 2.78125 67.5938 6.6875
z
" id="CMR17-109"/>
    <path d="
M11.0938 18.1875
C13 16.6875 16.2969 15 20.2969 15
C28.2031 15 35 21.2031 35 29.5
C35 32.0938 34.2031 36.0938 31.2031 39.2031
C34 42.0625 38.0938 43 40.4062 43
C40.7969 43 41.4062 43 41.9062 42.7656
C41.5 42.6719 40.5938 42.2812 40.5938 40.7344
C40.5938 39.4844 41.5 38.6094 42.7969 38.6094
C44.2969 38.6094 45.0938 39.5781 45.0938 40.8438
C45.0938 42.6719 43.5938 44.5938 40.4062 44.5938
C36.4062 44.5938 32.9062 42.7812 30.0938 40.3125
C27.0938 43.0156 23.5 44 20.2969 44
C12.4062 44 5.59375 37.7969 5.59375 29.5
C5.59375 23.7812 8.90625 20.1875 9.90625 19.1875
C6.90625 15.6875 6.90625 11.6094 6.90625 11.1094
C6.90625 8.51562 7.90625 4.71875 11.2969 2.625
C6.09375 1.32812 2 -2.64062 2 -7.59375
C2 -14.7344 11.5 -20 22.9062 -20
C33.9062 -20 43.7969 -14.9375 43.7969 -7.48438
C43.7969 6 29 6 21.2969 6
C19 6 14.9062 6 14.4062 6.10938
C11.2969 6.60938 9.20312 9.40625 9.20312 12.8906
C9.20312 13.7812 9.20312 16 11.0938 18.1875
M20.2969 16.6875
C11.5 16.6875 11.5 27.5 11.5 29.5156
C11.5 31.5 11.5 42.3125 20.2969 42.3125
C29.0938 42.3125 29.0938 31.5 29.0938 29.5156
C29.0938 27.5 29.0938 16.6875 20.2969 16.6875
M22.9062 -18.2969
C12.9062 -18.2969 6 -13.0469 6 -7.59375
C6 -4.51562 7.70312 -1.64062 9.90625 -0.0625
C12.4062 1.625 13.4062 1.625 20.2031 1.625
C28.4062 1.625 39.7969 1.625 39.7969 -7.59375
C39.7969 -13.0469 32.9062 -18.2969 22.9062 -18.2969" id="CMR17-103"/>
    <path d="
M44.5938 40.0938
C46.5938 40.0938 47.4062 40.0938 47.4062 42
C47.4062 43 46.5938 43 44.7969 43
L36.7031 43
C38.5938 53.5781 40 60.8906 40.7969 64.1719
C41.4062 66.6406 43.5 69 46.0938 69
C48.2031 69 50.2969 68.0938 51.2969 67.1562
C47.4062 66.75 46.2031 63.7812 46.2031 62.0156
C46.2031 59.9531 47.7031 58.7344 49.5938 58.7344
C51.5938 58.7344 54.5938 60.4688 54.5938 64.3594
C54.5938 68.6406 50.4062 71 46 71
C41.7031 71 37.5 67.7188 35.5 63.7188
C33.7031 60.125 32.7031 56.4375 30.4062 43
L23.7031 43
C21.7969 43 20.7969 43 20.7969 41.2031
C20.7969 40.0938 21.4062 40.0938 23.4062 40.0938
L29.7969 40.0938
C28 30.875 23.9062 8.46875 21.5938 -2.14062
C19.9062 -10.7656 18.4062 -18 13.4062 -18
C13.0938 -18 10.2031 -18 8.40625 -16.1094
C13.5 -15.7031 13.5 -11.3438 13.5 -11.25
C13.5 -9.26562 12 -8.07812 10.0938 -8.07812
C8.09375 -8.07812 5.09375 -9.76562 5.09375 -13.5469
C5.09375 -17.8125 9.5 -20 13.4062 -20
C23.5938 -20 27.7969 -1.84375 28.9062 3.10938
C30.7031 10.75 35.5938 37.125 36.0938 40.0938
z
" id="CMMI12-102"/>
    <path d="
M15 23.3906
C15 33 19.0938 42 26.5938 42
C27.2969 42 28 41.9062 28.7031 41.5938
C28.7031 41.5938 26.5 40.8906 26.5 38.3125
C26.5 35.9062 28.4062 34.9062 29.9062 34.9062
C31.0938 34.9062 33.2969 35.6094 33.2969 38.4062
C33.2969 41.6094 30.0938 43.5938 26.7031 43.5938
C19.0938 43.5938 15.7969 36.2031 14.7969 32.7031
L14.7031 32.7031
L14.7031 43.5938
L3.09375 42.5
L3.09375 39.9062
C9 39.9062 9.90625 39.2969 9.90625 34.5
L9.90625 6.6875
C9.90625 2.875 9.5 2.39062 3.09375 2.39062
L3.09375 -0.203125
C5.5 0 10.0938 0 12.7031 0
C15.5938 0 20.7031 0 23.4062 -0.203125
L23.4062 2.39062
C16.2031 2.39062 15 2.39062 15 6.875
z
" id="CMR17-114"/>
    <path d="
M38.0938 23
C38.5 23.4062 38.5 23.6094 38.5 24.625
C38.5 34.9688 33.0938 44 21.7031 44
C11.0938 44 2.70312 33.8906 2.70312 21.6094
C2.70312 8.60938 12.2031 -1 22.7969 -1
C34 -1 38.4062 9.46875 38.4062 11.5469
C38.4062 12.25 37.7969 12.25 37.5938 12.25
C36.9062 12.25 36.7969 12.0469 36.4062 10.875
C34.2031 4.14062 28.7031 0.796875 23.5 0.796875
C19.2031 0.796875 14.9062 3.17188 12.2031 7.5
C9.09375 12.5469 9.09375 18.375 9.09375 23
z

M9.20312 24.5
C9.90625 39.1406 17.5938 42.4062 21.5938 42.4062
C28.4062 42.4062 33 35.8906 33.0938 24.5
z
" id="CMR17-101"/>
    <path d="
M30.9062 42.1094
C30.9062 43.9062 30.7969 44 30.2031 44
C29.7969 44 29.7031 43.9062 28.5 42.4219
C28.2031 42.0156 27.2969 41.0156 27 40.625
C23.7969 44 19.2969 44 17.5938 44
C6.5 44 2.5 38.1719 2.5 32.375
C2.5 23.3438 12.7031 21.25 15.5938 20.6406
C21.9062 19.3438 24.0938 18.9375 26.2031 17.125
C27.5 15.9375 29.7031 13.7344 29.7031 10.125
C29.7031 5.90625 27.2969 0.5 18.0938 0.5
C9.40625 0.5 6.29688 7.0625 4.5 15.8281
C4.20312 17.2188 4.20312 17.3281 3.40625 17.3281
C2.59375 17.3281 2.5 17.2188 2.5 15.2344
L2.5 0.890625
C2.5 -0.890625 2.59375 -1 3.20312 -1
C3.70312 -1 3.79688 -0.890625 4.29688 -0.09375
C4.90625 0.796875 6.40625 3.1875 7 4.1875
C9 1.54688 12.5 -1 18.0938 -1
C28 -1 33.2969 4.40625 33.2969 12.2344
C33.2969 17.3438 30.5938 20.0625 29.2969 21.25
C26.2969 24.375 22.7969 25.0625 18.5938 25.8594
C13.0938 27.0781 6.09375 28.4688 6.09375 34.5938
C6.09375 37.1875 7.5 42.7188 17.5938 42.7188
C28.2969 42.7188 28.9062 32.75 29.0938 29.5625
C29.2031 29.0781 29.7031 28.9688 30 28.9688
C30.9062 28.9688 30.9062 29.2812 30.9062 30.9688
z
" id="CMR17-115"/>
    <path d="
M34.9062 35
C33 35 30.2031 35 30.2031 31.5156
C30.2031 28.7188 32.5 27.9219 33.7969 27.9219
C34.5 27.9219 37.4062 28.2344 37.4062 31.625
C37.4062 38.5469 30.5938 43.7969 22.9062 43.7969
C12.2969 43.7969 3.29688 34.0312 3.29688 21.2969
C3.29688 8.0625 12.7031 -1 22.9062 -1
C35.2969 -1 38.4062 10.5938 38.4062 11.6875
C38.4062 12.0938 38.2969 12.3906 37.5938 12.3906
C36.9062 12.3906 36.7969 12.2969 36.4062 10.9844
C33.7969 2.8125 28.0938 0.796875 23.7969 0.796875
C17.4062 0.796875 9.70312 6.67188 9.70312 21.3906
C9.70312 36.5312 17.0938 42 23 42
C26.9062 42 32.7031 40.2031 34.9062 35" id="CMR17-99"/>
   </defs>
   <g transform="translate(18.8247183657 118.086886383)rotate(-90.0)scale(0.1 -0.1)">
    <use transform="translate(0.0 14.943914544092468)scale(0.9962640099626402)" xlink:href="#CMMI12-102"/>
    <use transform="translate(48.083237663449566 0.0)scale(0.6973817666173724)" xlink:href="#CMMI12-21"/>
    <use transform="translate(179.79508301389322 14.943914544092468)scale(0.9962640099626402)" xlink:href="#CMR17-91"/>
    <use transform="translate(204.66614149575813 14.943914544092468)scale(0.9962640099626402)" xlink:href="#CMR17-101"/>
    <use transform="translate(245.15180195847606 14.943914544092468)scale(0.9962640099626402)" xlink:href="#CMR17-114"/>
    <use transform="translate(280.432569757939 14.943914544092468)scale(0.9962640099626402)" xlink:href="#CMR17-103"/>
    <use transform="translate(353.7970555971747 14.943914544092468)scale(0.9962640099626402)" xlink:href="#CMR17-99"/>
    <use transform="translate(394.2827160598926 14.943914544092468)scale(0.9962640099626402)" xlink:href="#CMR17-109"/>
    <use transform="translate(471.2023059279655 51.097553485951124)scale(0.6973817666173724)" xlink:href="#CMSY10-0"/>
    <use transform="translate(525.4432991759419 51.097553485951124)scale(0.6973817666173724)" xlink:href="#CMR17-50"/>
    <use transform="translate(585.5986218672167 14.943914544092468)scale(0.9962640099626402)" xlink:href="#CMR17-115"/>
    <use transform="translate(621.3999595024518 51.097553485951124)scale(0.6973817666173724)" xlink:href="#CMSY10-0"/>
    <use transform="translate(675.6409527504281 51.097553485951124)scale(0.6973817666173724)" xlink:href="#CMR17-49"/>
    <use transform="translate(735.7962754417031 32.56265870660803)scale(0.9962640099626402)" xlink:href="#CMR17-23"/>
    <use transform="translate(735.7962754417031 14.943914544092468)scale(0.9962640099626402)" xlink:href="#CMR17-65"/>
    <use transform="translate(804.8687052459528 74.82118143388077)scale(0.6973817666173724)" xlink:href="#CMSY10-0"/>
    <use transform="translate(859.109698493929 74.82118143388077)scale(0.6973817666173724)" xlink:href="#CMR17-49"/>
    <use transform="translate(891.5910124630293 14.943914544092468)scale(0.9962640099626402)" xlink:href="#CMR17-93"/>
   </g>
  </g>
 </g>
 <defs>
  <clipPath id="p4f47096078">
   <rect height="44.712" width="194.04" x="45.36" y="11.664"/>
  </clipPath>
  <clipPath id="p93a8de2613">
   <rect height="44.712" width="194.04" x="45.36" y="56.376"/>
  </clipPath>
 </defs>
</svg>
