<?xml version="1.0" encoding="utf-8" standalone="no"?>
<!DOCTYPE svg PUBLIC "-//W3C//DTD SVG 1.1//EN"
  "http://www.w3.org/Graphics/SVG/1.1/DTD/svg11.dtd">
<!-- Created with matplotlib (http://matplotlib.org/) -->
<svg height="432pt" version="1.1" viewBox="0 0 252 432" width="252pt" xmlns="http://www.w3.org/2000/svg" xmlns:xlink="http://www.w3.org/1999/xlink">
 <defs>
  <style type="text/css">
*{stroke-linecap:butt;stroke-linejoin:round;}
  </style>
 </defs>
 <g id="figure_1">
  <g id="patch_1">
   <path d="
M0 432
L252 432
L252 0
L0 0
z
" style="fill:#ffffff;"/>
  </g>
  <g id="axes_1">
   <g id="patch_2">
    <path d="
M45.36 102.233
L206.64 102.233
L206.64 12.96
L45.36 12.96
z
" style="fill:#ffffff;"/>
   </g>
   <g id="line2d_1">
    <path clip-path="url(#p67aaec8300)" d="
M44.6913 64.8748
L69.074 68.3101
L93.4041 71.9643
L116.749 75.6892
L140.044 79.626
L163.291 83.7794
L186.49 88.1541
L205.013 91.8163
L205.013 91.8163" style="fill:none;stroke:#008000;stroke-linecap:square;stroke-width:0.75;"/>
   </g>
   <g id="line2d_2">
    <path clip-path="url(#p67aaec8300)" d="
M44.658 43.4466
L82.8041 41.7916
L121.946 40.3156
L162.077 39.0297
L202.107 37.9697
L207.509 37.8434
L207.509 37.8434" style="fill:none;stroke:#bf00bf;stroke-linecap:square;stroke-width:0.75;"/>
   </g>
   <g id="matplotlib.axis_1">
    <g id="xtick_1">
     <g id="line2d_3">
      <defs>
       <path d="
M0 0
L0 -4" id="mc7db9fdffb" style="stroke:#000000;stroke-width:0.5;"/>
      </defs>
      <g>
       <use style="stroke:#000000;stroke-width:0.5;" x="68.4" xlink:href="#mc7db9fdffb" y="102.233159145"/>
      </g>
     </g>
     <g id="line2d_4">
      <defs>
       <path d="
M0 0
L0 4" id="m5a7d422ac3" style="stroke:#000000;stroke-width:0.5;"/>
      </defs>
      <g>
       <use style="stroke:#000000;stroke-width:0.5;" x="68.4" xlink:href="#m5a7d422ac3" y="12.96"/>
      </g>
     </g>
    </g>
    <g id="xtick_2">
     <g id="line2d_5">
      <g>
       <use style="stroke:#000000;stroke-width:0.5;" x="114.48" xlink:href="#mc7db9fdffb" y="102.233159145"/>
      </g>
     </g>
     <g id="line2d_6">
      <g>
       <use style="stroke:#000000;stroke-width:0.5;" x="114.48" xlink:href="#m5a7d422ac3" y="12.96"/>
      </g>
     </g>
    </g>
    <g id="xtick_3">
     <g id="line2d_7">
      <g>
       <use style="stroke:#000000;stroke-width:0.5;" x="160.56" xlink:href="#mc7db9fdffb" y="102.233159145"/>
      </g>
     </g>
     <g id="line2d_8">
      <g>
       <use style="stroke:#000000;stroke-width:0.5;" x="160.56" xlink:href="#m5a7d422ac3" y="12.96"/>
      </g>
     </g>
    </g>
    <g id="xtick_4">
     <g id="line2d_9">
      <g>
       <use style="stroke:#000000;stroke-width:0.5;" x="206.64" xlink:href="#mc7db9fdffb" y="102.233159145"/>
      </g>
     </g>
     <g id="line2d_10">
      <g>
       <use style="stroke:#000000;stroke-width:0.5;" x="206.64" xlink:href="#m5a7d422ac3" y="12.96"/>
      </g>
     </g>
    </g>
   </g>
   <g id="matplotlib.axis_2">
    <g id="ytick_1">
     <g id="line2d_11">
      <defs>
       <path d="
M0 0
L4 0" id="md7965d1ba0" style="stroke:#000000;stroke-width:0.5;"/>
      </defs>
      <g>
       <use style="stroke:#000000;stroke-width:0.5;" x="45.36" xlink:href="#md7965d1ba0" y="95.8565049203"/>
      </g>
     </g>
     <g id="line2d_12">
      <defs>
       <path d="
M0 0
L-4 0" id="md9a1c1a7cd" style="stroke:#000000;stroke-width:0.5;"/>
      </defs>
      <g>
       <use style="stroke:#000000;stroke-width:0.5;" x="206.64" xlink:href="#md9a1c1a7cd" y="95.8565049203"/>
      </g>
     </g>
     <g id="text_1">
      <!-- 0.97 -->
      <defs>
       <path d="
M16.5938 4.07812
C16.5938 6.5625 14.5938 8.15625 12.5 8.15625
C10.5 8.15625 8.40625 6.5625 8.40625 4.07812
C8.40625 1.59375 10.4062 0 12.5 0
C14.5 0 16.5938 1.59375 16.5938 4.07812" id="CMR17-46"/>
       <path d="
M35.2031 29.125
C35.2031 7.25 26.0938 0.484375 18.5938 0.484375
C16.2969 0.484375 10.7031 0.484375 8.40625 4.59375
C11 4.1875 12.9062 5.57812 12.9062 8.09375
C12.9062 10.8125 10.7031 11.7031 9.29688 11.7031
C8.40625 11.7031 5.70312 11.2969 5.70312 7.90625
C5.70312 1.10938 11.5938 -2 18.7969 -2
C30.2969 -2 42 10.5312 42 32.3906
C42 59.6406 30.7969 65.2969 23.2031 65.2969
C13.2969 65.2969 3.79688 56.6875 3.79688 43.4062
C3.79688 31.1094 11.9062 22 22.0938 22
C30.5 22 34.2031 29.7344 35.2031 33
z

M22.2969 23.5938
C19.5938 23.5938 15.7969 24.0938 12.7031 30.0312
C10.5938 33.8906 10.5938 38.4531 10.5938 43.2969
C10.5938 49.1562 10.5938 53.2031 13.4062 57.5625
C14.7969 59.6406 17.4062 63 23.2031 63
C35 63 35 45.0781 35 41.125
C35 34.0938 31.7969 23.5938 22.2969 23.5938" id="CMR17-57"/>
       <path d="
M42 31.6406
C42 37.75 41.9062 48.125 37.7031 56.1094
C34 63.1094 28.0938 65.5938 22.9062 65.5938
C18.0938 65.5938 12 63.4062 8.20312 56.2031
C4.20312 48.7188 3.79688 39.4375 3.79688 31.6406
C3.79688 25.9531 3.90625 17.2812 7 9.67188
C11.2969 -0.609375 19 -2 22.9062 -2
C27.5 -2 34.5 -0.109375 38.5938 9.375
C41.5938 16.2812 42 24.3594 42 31.6406
M22.9062 -0.40625
C16.5 -0.40625 12.7031 5.07812 11.2969 12.6875
C10.2031 18.5625 10.2031 27.1562 10.2031 32.75
C10.2031 40.4375 10.2031 46.8281 11.5 52.9219
C13.4062 61.3906 19 64 22.9062 64
C27 64 32.2969 61.2969 34.2031 53.125
C35.5 47.4375 35.5938 40.7344 35.5938 32.75
C35.5938 26.25 35.5938 18.2656 34.4062 12.375
C32.2969 1.48438 26.4062 -0.40625 22.9062 -0.40625" id="CMR17-48"/>
       <path d="
M45.0938 61.5781
L45.0938 63.7656
L21.5938 63.7656
C9.90625 63.7656 9.70312 65.0781 9.29688 67
L7.5 67
L4.59375 48.3438
L6.40625 48.3438
C6.70312 50.2344 7.40625 55.3125 8.59375 57.2031
C9.20312 58 16.5938 58 18.2969 58
L40.2969 58
L29.2031 41.5781
C21.7969 30.5312 16.7031 15.6094 16.7031 2.57812
C16.7031 1.39062 16.7031 -2 20.2969 -2
C23.9062 -2 23.9062 1.39062 23.9062 2.67188
L23.9062 7.26562
C23.9062 23.5625 26.7031 34.3125 31.2969 41.1875
z
" id="CMR17-55"/>
      </defs>
      <g transform="translate(23.6485857721 98.3471649452)scale(0.1 -0.1)">
       <use transform="scale(0.9962640099626402)" xlink:href="#CMR17-48"/>
       <use transform="translate(45.69047711706103 0.0)scale(0.9962640099626402)" xlink:href="#CMR17-46"/>
       <use transform="translate(70.56153559892591 0.0)scale(0.9962640099626402)" xlink:href="#CMR17-57"/>
       <use transform="translate(116.25201271598694 0.0)scale(0.9962640099626402)" xlink:href="#CMR17-55"/>
      </g>
     </g>
    </g>
    <g id="ytick_2">
     <g id="line2d_13">
      <g>
       <use style="stroke:#000000;stroke-width:0.5;" x="45.36" xlink:href="#md7965d1ba0" y="76.7265422464"/>
      </g>
     </g>
     <g id="line2d_14">
      <g>
       <use style="stroke:#000000;stroke-width:0.5;" x="206.64" xlink:href="#md9a1c1a7cd" y="76.7265422464"/>
      </g>
     </g>
     <g id="text_2">
      <!-- 0.99 -->
      <g transform="translate(23.6485857721 79.2172022713)scale(0.1 -0.1)">
       <use transform="scale(0.9962640099626402)" xlink:href="#CMR17-48"/>
       <use transform="translate(45.69047711706103 0.0)scale(0.9962640099626402)" xlink:href="#CMR17-46"/>
       <use transform="translate(70.56153559892591 0.0)scale(0.9962640099626402)" xlink:href="#CMR17-57"/>
       <use transform="translate(116.25201271598694 0.0)scale(0.9962640099626402)" xlink:href="#CMR17-57"/>
      </g>
     </g>
    </g>
    <g id="ytick_3">
     <g id="line2d_15">
      <g>
       <use style="stroke:#000000;stroke-width:0.5;" x="45.36" xlink:href="#md7965d1ba0" y="57.5965795724"/>
      </g>
     </g>
     <g id="line2d_16">
      <g>
       <use style="stroke:#000000;stroke-width:0.5;" x="206.64" xlink:href="#md9a1c1a7cd" y="57.5965795724"/>
      </g>
     </g>
     <g id="text_3">
      <!-- 1.00 -->
      <defs>
       <path d="
M26.5938 63.3125
C26.5938 65.4062 26.5 65.5 25.0938 65.5
C21.2031 61.1875 15.2969 59.7969 9.70312 59.7969
C9.40625 59.7969 8.90625 59.7969 8.79688 59.6094
C8.70312 59.3906 8.70312 59.1719 8.70312 57
C11.7969 57 17 57.5938 21 59.9844
L21 7.20312
C21 3.6875 20.7969 2.5 12.2031 2.5
L9.20312 2.5
L9.20312 0
C14 0 19 0 23.7969 0
C28.5938 0 33.5938 0 38.4062 0
L38.4062 2.5
L35.4062 2.5
C26.7969 2.5 26.5938 3.59375 26.5938 7.15625
z
" id="CMR17-49"/>
      </defs>
      <g transform="translate(23.6485857721 60.0872395974)scale(0.1 -0.1)">
       <use transform="scale(0.9962640099626402)" xlink:href="#CMR17-49"/>
       <use transform="translate(45.69047711706103 0.0)scale(0.9962640099626402)" xlink:href="#CMR17-46"/>
       <use transform="translate(70.56153559892591 0.0)scale(0.9962640099626402)" xlink:href="#CMR17-48"/>
       <use transform="translate(116.25201271598694 0.0)scale(0.9962640099626402)" xlink:href="#CMR17-48"/>
      </g>
     </g>
    </g>
    <g id="ytick_4">
     <g id="line2d_17">
      <g>
       <use style="stroke:#000000;stroke-width:0.5;" x="45.36" xlink:href="#md7965d1ba0" y="38.4666168985"/>
      </g>
     </g>
     <g id="line2d_18">
      <g>
       <use style="stroke:#000000;stroke-width:0.5;" x="206.64" xlink:href="#md9a1c1a7cd" y="38.4666168985"/>
      </g>
     </g>
     <g id="text_4">
      <!-- 1.02 -->
      <defs>
       <path d="
M41.7031 15.4531
L39.9062 15.4531
C38.9062 8.375 38.0938 7.17188 37.7031 6.5625
C37.2031 5.76562 30 5.76562 28.5938 5.76562
L9.40625 5.76562
C13 9.67188 20 16.75 28.5 24.9531
C34.5938 30.7344 41.7031 37.5312 41.7031 47.4219
C41.7031 59.2188 32.2969 66 21.7969 66
C10.7969 66 4.09375 56.3125 4.09375 47.3438
C4.09375 43.4375 7 42.9375 8.20312 42.9375
C9.20312 42.9375 12.2031 43.5469 12.2031 47.0312
C12.2031 50.1094 9.59375 51 8.20312 51
C7.59375 51 7 50.9062 6.59375 50.7031
C8.5 59.2188 14.2969 63.4062 20.4062 63.4062
C29.0938 63.4062 34.7969 56.5156 34.7969 47.4219
C34.7969 38.7344 29.7031 31.25 24 24.75
L4.09375 2.28125
L4.09375 0
L39.2969 0
z
" id="CMR17-50"/>
      </defs>
      <g transform="translate(23.6485857721 40.9572769234)scale(0.1 -0.1)">
       <use transform="scale(0.9962640099626402)" xlink:href="#CMR17-49"/>
       <use transform="translate(45.69047711706103 0.0)scale(0.9962640099626402)" xlink:href="#CMR17-46"/>
       <use transform="translate(70.56153559892591 0.0)scale(0.9962640099626402)" xlink:href="#CMR17-48"/>
       <use transform="translate(116.25201271598694 0.0)scale(0.9962640099626402)" xlink:href="#CMR17-50"/>
      </g>
     </g>
    </g>
    <g id="ytick_5">
     <g id="line2d_19">
      <g>
       <use style="stroke:#000000;stroke-width:0.5;" x="45.36" xlink:href="#md7965d1ba0" y="19.3366542246"/>
      </g>
     </g>
     <g id="line2d_20">
      <g>
       <use style="stroke:#000000;stroke-width:0.5;" x="206.64" xlink:href="#md9a1c1a7cd" y="19.3366542246"/>
      </g>
     </g>
     <g id="text_5">
      <!-- 1.03 -->
      <defs>
       <path d="
M22.0938 33.7031
C31 33.7031 34.9062 25.9688 34.9062 17.0312
C34.9062 5 28.5 0.390625 22.7031 0.390625
C17.4062 0.390625 8.79688 3.03125 6.09375 10.8281
C6.59375 10.625 7.09375 10.625 7.59375 10.625
C10 10.625 11.7969 12.2188 11.7969 14.8125
C11.7969 17.7031 9.59375 19 7.59375 19
C5.90625 19 3.29688 18.2031 3.29688 14.4688
C3.29688 5.23438 12.2969 -2 22.9062 -2
C34 -2 42.5 6.71875 42.5 16.9531
C42.5 26.6719 34.5 33.6875 25 34.7969
C32.5938 36.375 39.9062 43.0625 39.9062 52.0156
C39.9062 59.6875 32 65.2969 23 65.2969
C13.9062 65.2969 5.90625 59.8281 5.90625 52.0156
C5.90625 48.5938 8.5 48 9.79688 48
C11.9062 48 13.7031 49.2969 13.7031 51.8906
C13.7031 54.4688 11.9062 55.7656 9.79688 55.7656
C9.40625 55.7656 8.90625 55.7656 8.5 55.5625
C11.4062 61.8594 19.2969 63 22.7969 63
C26.2969 63 32.9062 61.3281 32.9062 51.875
C32.9062 49.1094 32.5 44.1875 29.0938 39.8438
C26.0938 36 22.7031 36 19.4062 35.5938
C18.9062 35.5938 16.5938 35.5938 16.2031 35.5938
C15.5 35.4844 15.0938 35.3906 15.0938 34.5938
C15.0938 33.8125 15.2031 33.7031 17.2031 33.7031
z
" id="CMR17-51"/>
      </defs>
      <g transform="translate(23.6485857721 21.8273142495)scale(0.1 -0.1)">
       <use transform="scale(0.9962640099626402)" xlink:href="#CMR17-49"/>
       <use transform="translate(45.69047711706103 0.0)scale(0.9962640099626402)" xlink:href="#CMR17-46"/>
       <use transform="translate(70.56153559892591 0.0)scale(0.9962640099626402)" xlink:href="#CMR17-48"/>
       <use transform="translate(116.25201271598694 0.0)scale(0.9962640099626402)" xlink:href="#CMR17-51"/>
      </g>
     </g>
    </g>
    <g id="text_6">
     <!-- $\mathsf{P}$ -->
     <defs>
      <path d="
M32.9062 29
C44.9062 29 54.7031 38.3281 54.7031 49.3438
C54.7031 60.1562 45.2969 69.5781 32.2969 69.5781
L8.90625 69.5781
L8.90625 0
L17.2969 0
L17.2969 29
z

M30.0938 64
C41.7031 64 46.7969 56.6719 46.7969 49.3281
C46.7969 42.5 42.0938 34.7812 30.0938 34.7812
L17.0938 34.7812
L17.0938 64
z
" id="CMSS17-80"/>
     </defs>
     <g transform="translate(16.7114074418 60.7790955161)rotate(-90.0)scale(0.1 -0.1)">
      <use transform="scale(0.9962640099626402)" xlink:href="#CMSS17-80"/>
     </g>
    </g>
   </g>
   <g id="patch_3">
    <path d="
M45.36 102.233
L45.36 12.96" style="fill:none;stroke:#000000;"/>
   </g>
   <g id="patch_4">
    <path d="
M45.36 12.96
L206.64 12.96" style="fill:none;stroke:#000000;"/>
   </g>
   <g id="patch_5">
    <path d="
M45.36 102.233
L206.64 102.233" style="fill:none;stroke:#000000;"/>
   </g>
   <g id="patch_6">
    <path d="
M206.64 102.233
L206.64 12.96" style="fill:none;stroke:#000000;"/>
   </g>
   <g id="text_7">
    <!-- polynomials -->
    <defs>
     <path d="
M67.5938 30.2031
C67.5938 35.1875 66.7031 43.5938 54.7969 43.5938
C48 43.5938 43.2969 39 41.5 33.5938
L41.4062 33.5938
C40.2031 41.7969 34.2969 43.5938 28.7031 43.5938
C20.7969 43.5938 16.7031 37.5625 15.2031 33.5938
L15.0938 33.5938
L15.0938 43.5938
L3.29688 42.5
L3.29688 39.9062
C9.20312 39.9062 10.0938 39.2969 10.0938 34.5
L10.0938 6.6875
C10.0938 2.875 9.70312 2.39062 3.29688 2.39062
L3.29688 -0.203125
C5.70312 0 10.0938 0 12.7031 0
C15.2969 0 19.7969 0 22.2031 -0.203125
L22.2031 2.39062
C15.7969 2.39062 15.4062 2.78125 15.4062 6.6875
L15.4062 25.9062
C15.4062 35.1094 21 42 28 42
C35.4062 42 36.2031 35.4062 36.2031 30.5938
L36.2031 6.6875
C36.2031 2.875 35.7969 2.39062 29.4062 2.39062
L29.4062 -0.203125
C31.7969 0 36.2031 0 38.7969 0
C41.4062 0 45.9062 0 48.2969 -0.203125
L48.2969 2.39062
C41.9062 2.39062 41.5 2.78125 41.5 6.6875
L41.5 25.9062
C41.5 35.1094 47.0938 42 54.0938 42
C61.5 42 62.2969 35.4062 62.2969 30.5938
L62.2969 6.6875
C62.2969 2.875 61.9062 2.39062 55.5 2.39062
L55.5 -0.203125
C57.9062 0 62.2969 0 64.9062 0
C67.5 0 72 0 74.4062 -0.203125
L74.4062 2.39062
C68 2.39062 67.5938 2.78125 67.5938 6.6875
z
" id="CMR17-109"/>
     <path d="
M15.5 61.0781
C15.5 63.2656 13.7031 65.1562 11.4062 65.1562
C9.20312 65.1562 7.29688 63.375 7.29688 61.0781
C7.29688 58.8906 9.09375 57 11.4062 57
C13.5938 57 15.5 58.7969 15.5 61.0781
M3.79688 42.2812
L3.79688 39.7031
C9.40625 39.7031 10.2031 39.0938 10.2031 34.3281
L10.2031 6.67188
C10.2031 2.875 9.79688 2.39062 3.40625 2.39062
L3.40625 -0.203125
C5.79688 0 10.0938 0 12.5938 0
C15 0 19.0938 0 21.4062 -0.203125
L21.4062 2.39062
C15.5 2.39062 15.2969 2.98438 15.2969 6.5625
L15.2969 43.375
z
" id="CMR17-105"/>
     <path d="
M22 -16.6094
C15.5938 -16.6094 15.2031 -16.2031 15.2031 -12.3281
L15.2031 6.28125
C18.0938 2.09375 22.2969 -0.59375 27.5938 -0.59375
C37.5938 -0.59375 47.7031 8.17188 47.7031 21.6875
C47.7031 34.2344 39 43.7812 28.7031 43.7812
C22.7031 43.7812 17.7969 40.5 15 36.5312
L15 43.7812
L3.09375 42.6875
L3.09375 40.1094
C9 40.1094 9.90625 39.5 9.90625 34.7344
L9.90625 -12.3281
C9.90625 -16.1094 9.5 -16.6094 3.09375 -16.6094
L3.09375 -19.1875
C5.5 -19 9.90625 -19 12.5 -19
C15.0938 -19 19.5938 -19 22 -19.1875
z

M15.2031 31.4375
C15.2031 32.8438 15.2031 34.9219 19.0938 38.6094
C19.5938 39.0156 23 42 28 42
C35.2969 42 41.2969 32.9375 41.2969 21.5938
C41.2969 10.25 34.9062 1 27 1
C23.4062 1 19.5 2.6875 16.5 7.375
C15.2031 9.5625 15.2031 10.1562 15.2031 11.75
z
" id="CMR17-112"/>
     <path d="
M39 34.3281
C41.5 40.4062 46 40.4062 47.4062 40.4062
L47.4062 43
C45.5 43 43 43 41.0938 43
C39 43 35.7031 43 33.7031 43.0938
L33.7031 40.5
C37.5 40.2031 37.5938 37.4062 37.5938 36.6094
C37.5938 35.625 37.4062 35.125 36.9062 33.9219
L26 7.01562
L14.0938 36.0312
C13.5938 37.2188 13.5938 37.9062 13.5938 38.0156
C13.5938 40.2031 15.9062 40.4062 18.2969 40.4062
L18.2969 43.0938
C15.9062 43 11.5938 43 9.09375 43
C6.40625 43 3.20312 43 1 43.0938
L1 40.4062
C6.40625 40.4062 7 39.9062 8.29688 36.7188
L23.2031 0.234375
C18.7031 -11.5312 16.0938 -18.4062 9.79688 -18.4062
C8.70312 -18.4062 6.20312 -18.1094 4.40625 -16.3125
C6.70312 -16.1094 7.70312 -14.7188 7.70312 -13.0156
C7.70312 -11.3281 6.5 -9.82812 4.5 -9.82812
C2.29688 -9.82812 1.20312 -11.3281 1.20312 -13.125
C1.20312 -17.1094 5.29688 -20 9.79688 -20
C15.5938 -20 19.2031 -14.4062 21.2031 -9.4375
z
" id="CMR17-121"/>
     <path d="
M30.9062 42.1094
C30.9062 43.9062 30.7969 44 30.2031 44
C29.7969 44 29.7031 43.9062 28.5 42.4219
C28.2031 42.0156 27.2969 41.0156 27 40.625
C23.7969 44 19.2969 44 17.5938 44
C6.5 44 2.5 38.1719 2.5 32.375
C2.5 23.3438 12.7031 21.25 15.5938 20.6406
C21.9062 19.3438 24.0938 18.9375 26.2031 17.125
C27.5 15.9375 29.7031 13.7344 29.7031 10.125
C29.7031 5.90625 27.2969 0.5 18.0938 0.5
C9.40625 0.5 6.29688 7.0625 4.5 15.8281
C4.20312 17.2188 4.20312 17.3281 3.40625 17.3281
C2.59375 17.3281 2.5 17.2188 2.5 15.2344
L2.5 0.890625
C2.5 -0.890625 2.59375 -1 3.20312 -1
C3.70312 -1 3.79688 -0.890625 4.29688 -0.09375
C4.90625 0.796875 6.40625 3.1875 7 4.1875
C9 1.54688 12.5 -1 18.0938 -1
C28 -1 33.2969 4.40625 33.2969 12.2344
C33.2969 17.3438 30.5938 20.0625 29.2969 21.25
C26.2969 24.375 22.7969 25.0625 18.5938 25.8594
C13.0938 27.0781 6.09375 28.4688 6.09375 34.5938
C6.09375 37.1875 7.5 42.7188 17.5938 42.7188
C28.2969 42.7188 28.9062 32.75 29.0938 29.5625
C29.2031 29.0781 29.7031 28.9688 30 28.9688
C30.9062 28.9688 30.9062 29.2812 30.9062 30.9688
z
" id="CMR17-115"/>
     <path d="
M43.0938 21.1875
C43.0938 34 33.7969 44 22.9062 44
C12 44 2.70312 34 2.70312 21.1875
C2.70312 8.60938 12 -1 22.9062 -1
C33.7969 -1 43.0938 8.60938 43.0938 21.1875
M22.9062 0.796875
C18.2031 0.796875 14.2031 3.59375 11.9062 7.5
C9.40625 11.9844 9.09375 17.5938 9.09375 22
C9.09375 26.2031 9.29688 31.4062 11.9062 35.9062
C13.9062 39.2031 17.7969 42.4062 22.9062 42.4062
C27.4062 42.4062 31.2031 39.9062 33.5938 36.4062
C36.7031 31.7031 36.7031 25.1094 36.7031 22
C36.7031 18.0938 36.5 12.1094 33.7969 7.29688
C31 2.70312 26.7031 0.796875 22.9062 0.796875" id="CMR17-111"/>
     <path d="
M36 25.8281
C36 32.375 36 35.8438 31.7969 39.7344
C28.0938 43 23.7969 44 20.4062 44
C12.5 44 6.79688 37.6094 6.79688 30.7969
C6.79688 27 9.79688 27 10.4062 27
C11.7031 27 14 27.7812 14 30.5312
C14 33 12.0938 34.0781 10.4062 34.0781
C10 34.0781 9.5 33.9688 9.20312 33.875
C11.2969 40.5 16.7031 42.4062 20.2031 42.4062
C25.2031 42.4062 30.7031 37.9531 30.7031 29.4531
L30.7031 25
C24.7969 25 17.7031 24.2031 12.0938 21.2031
C5.79688 17.7031 4 12.7031 4 8.90625
C4 1.20312 13 -1 18.2969 -1
C23.7969 -1 28.9062 2.17188 31.0938 7.98438
C31.2969 3.64062 34.0938 -0.28125 38.5 -0.28125
C40.5938 -0.28125 45.9062 1.09375 45.9062 8.85938
L45.9062 14.375
L44.0938 14.375
L44.0938 8.78125
C44.0938 2.78125 41.4062 2 40.0938 2
C36 2 36 7.15625 36 11.5312
z

M30.7031 13.5938
C30.7031 4.95312 24.5 0.59375 19 0.59375
C14 0.59375 10.0938 4.29688 10.0938 8.90625
C10.0938 11.8906 11.4062 17.1875 17.2031 20.3906
C22 23.0938 27.5 23.5 30.7031 23.5
z
" id="CMR17-97"/>
     <path d="
M41.5 30.2031
C41.5 35.2969 40.5 43.5938 28.7031 43.5938
C20.7969 43.5938 16.7031 37.5 15.2031 33.5
L15.0938 33.5
L15.0938 43.5938
L3.29688 42.5
L3.29688 39.9062
C9.20312 39.9062 10.0938 39.2969 10.0938 34.5
L10.0938 6.6875
C10.0938 2.875 9.70312 2.39062 3.29688 2.39062
L3.29688 -0.203125
C5.70312 0 10.0938 0 12.7031 0
C15.2969 0 19.7969 0 22.2031 -0.203125
L22.2031 2.39062
C15.7969 2.39062 15.4062 2.78125 15.4062 6.6875
L15.4062 25.9062
C15.4062 35.1094 21 42 28 42
C35.4062 42 36.2031 35.4062 36.2031 30.5938
L36.2031 6.6875
C36.2031 2.875 35.7969 2.39062 29.4062 2.39062
L29.4062 -0.203125
C31.7969 0 36.2031 0 38.7969 0
C41.4062 0 45.9062 0 48.2969 -0.203125
L48.2969 2.39062
C41.9062 2.39062 41.5 2.78125 41.5 6.6875
z
" id="CMR17-110"/>
     <path d="
M15.2969 68.6875
L3.40625 67.5938
L3.40625 65
C9.29688 65 10.2031 64.4062 10.2031 59.6406
L10.2031 6.65625
C10.2031 2.875 9.79688 2.39062 3.40625 2.39062
L3.40625 -0.203125
C5.79688 0 10.2031 0 12.7031 0
C15.2969 0 19.7031 0 22.0938 -0.203125
L22.0938 2.39062
C15.7031 2.39062 15.2969 2.78125 15.2969 6.65625
z
" id="CMR17-108"/>
    </defs>
    <g style="fill:#333333;" transform="translate(153.625631464 26.3509738717)scale(0.09 -0.09)">
     <use transform="scale(0.9962640099626402)" xlink:href="#CMR17-112"/>
     <use transform="translate(53.49780851105231 0.0)scale(0.9962640099626402)" xlink:href="#CMR17-111"/>
     <use transform="translate(99.18828562811333 0.0)scale(0.9962640099626402)" xlink:href="#CMR17-108"/>
     <use transform="translate(124.05934410997821 0.0)scale(0.9962640099626402)" xlink:href="#CMR17-121"/>
     <use transform="translate(172.35225995777554 0.0)scale(0.9962640099626402)" xlink:href="#CMR17-110"/>
     <use transform="translate(223.24762973809155 0.0)scale(0.9962640099626402)" xlink:href="#CMR17-111"/>
     <use transform="translate(268.93810685515257 0.0)scale(0.9962640099626402)" xlink:href="#CMR17-109"/>
     <use transform="translate(345.85769672322544 0.0)scale(0.9962640099626402)" xlink:href="#CMR17-105"/>
     <use transform="translate(370.7287552050903 0.0)scale(0.9962640099626402)" xlink:href="#CMR17-97"/>
     <use transform="translate(416.41923232215134 0.0)scale(0.9962640099626402)" xlink:href="#CMR17-108"/>
     <use transform="translate(441.29029080401625 0.0)scale(0.9962640099626402)" xlink:href="#CMR17-115"/>
    </g>
   </g>
  </g>
  <g id="axes_2">
   <g id="patch_7">
    <path d="
M45.36 197.755
L206.64 197.755
L206.64 108.482
L45.36 108.482
z
" style="fill:#ffffff;"/>
   </g>
   <g id="line2d_21">
    <path clip-path="url(#pa31f7220d0)" d="
M44.6913 129.206
L45.63 131.424
L46.5687 127.064
L47.5074 131.938
L48.4459 127.14
L49.3843 129.361
L50.3227 127.422
L51.261 130.065
L52.1993 125.015
L53.1374 126.617
L54.0755 131.21
L55.0135 125.547
L55.9514 128.583
L56.8892 126.679
L57.827 130.095
L58.7647 132.303
L59.7023 138.394
L60.6398 146.026
L61.5772 156.426
L62.5146 168.696
L63.4519 165.913
L64.3891 160.859
L66.2633 135.773
L67.2003 135.068
L68.1372 131.007
L69.074 133.04
L70.0107 133.287
L70.9474 134.45
L71.884 131.782
L72.8205 133.583
L73.757 130.896
L74.6933 131.17
L75.6296 128.276
L76.5658 130.899
L77.5019 130.141
L78.438 130.921
L79.3739 130.974
L80.3098 130.821
L81.2456 131.582
L82.1814 130.595
L83.117 128.908
L84.0526 130.983
L84.9881 130.425
L85.9235 132.455
L86.8589 127.222
L87.7941 129.755
L89.6644 126.623
L90.5994 129.795
L91.5344 131.258
L92.4693 131.175
L93.4041 129.685
L94.3388 133.014
L95.2734 128.085
L96.208 129.373
L97.1425 128.491
L98.0769 131.012
L99.0112 125.815
L99.9455 129.867
L100.88 130.263
L101.814 127.726
L102.748 130.054
L103.682 130.195
L104.616 129.713
L105.549 128.548
L106.483 129.036
L107.417 130.274
L108.35 129.455
L109.284 130.834
L110.217 127.944
L111.15 126.082
L112.084 127.565
L113.017 128.71
L113.95 130.406
L114.883 128.993
L115.816 128.031
L116.749 130.435
L117.681 129.869
L118.614 129.955
L119.547 131.007
L120.479 131.634
L121.412 134.359
L122.344 134.23
L123.276 137.182
L124.209 139.696
L125.141 138.107
L126.073 134.95
L127.005 138.603
L127.937 134.343
L128.869 139.353
L129.8 138.893
L130.732 146.361
L131.664 155.782
L132.595 172.092
L133.527 184.428
L134.458 184.935
L135.389 176.376
L137.252 152.605
L138.183 142.558
L139.114 136.258
L140.044 137.483
L140.975 133.537
L141.906 131.932
L142.837 133.438
L143.767 133.729
L144.698 133.492
L145.628 129.175
L146.559 128.444
L147.489 133.774
L148.419 134.478
L149.349 127.239
L150.279 129.504
L151.209 129.384
L152.139 129.989
L153.069 130.807
L153.999 127.779
L154.928 131.7
L155.858 129.327
L156.787 132.068
L157.717 132.596
L158.646 130.407
L159.575 132.718
L160.504 128.153
L161.434 131.924
L162.363 128.733
L163.291 132.222
L164.22 129.445
L165.149 128.125
L167.006 132.601
L167.935 130.348
L168.863 134.668
L169.792 140.046
L170.72 147.04
L171.648 163.886
L172.577 174.655
L173.505 174.018
L174.433 167.4
L175.361 150.934
L176.288 138.13
L177.216 133.121
L178.144 129.634
L179.072 135.346
L179.999 132.97
L180.927 128.718
L181.854 129.493
L182.781 128.566
L183.708 135.089
L184.636 135.658
L185.563 134.652
L186.49 131.984
L188.343 141.378
L189.27 143.531
L190.197 154.542
L191.123 152.581
L192.05 144.056
L192.976 146.618
L193.903 137.431
L194.829 134.938
L195.755 130.809
L197.607 130.053
L199.459 127.731
L200.385 132.317
L201.311 129.049
L202.236 128.404
L203.162 131.023
L204.087 127.249
L205.013 127.923
L205.013 127.923" style="fill:none;stroke:#008000;stroke-linecap:square;stroke-width:0.75;"/>
   </g>
   <g id="line2d_22">
    <path clip-path="url(#pa31f7220d0)" d="
M44.658 126.22
L45.7492 130.013
L46.8402 125.429
L47.9312 126.493
L49.0221 126.029
L50.113 128.354
L51.2037 128.408
L52.2944 128.95
L53.385 127.72
L54.4756 127.191
L55.5661 127.722
L56.6565 127.145
L57.7468 127.875
L59.9272 133.374
L61.0173 148.183
L62.1074 159.794
L63.1973 165.233
L64.2872 157.655
L65.377 144.328
L66.4668 136.429
L67.5564 131.154
L68.646 127.54
L69.7355 127.19
L70.825 128.401
L71.9144 128.425
L73.0037 127.422
L74.0929 127.531
L75.182 128.92
L76.2711 127.046
L77.3601 126.034
L78.4491 128.484
L79.5379 127.543
L80.6267 129.091
L81.7154 130.011
L82.8041 129.115
L83.8926 128.954
L84.9811 125.445
L87.1579 126.914
L88.2462 126.723
L89.3344 128.569
L90.4225 126.616
L91.5106 126.342
L92.5986 128.426
L93.6865 123.122
L94.7743 125.379
L95.8621 126.136
L96.9498 126.41
L98.0374 126.063
L99.1249 129.788
L100.212 125.398
L101.3 125.96
L102.387 128.975
L103.474 126.148
L104.562 126.335
L105.649 123.585
L106.736 126.294
L107.823 128.207
L108.91 126.876
L109.996 128.239
L111.083 126.704
L113.256 127.121
L114.343 125.512
L115.429 128.579
L116.516 126.644
L117.602 125.719
L118.688 126.294
L119.774 129.395
L120.86 129.313
L121.946 133.244
L123.032 135.044
L124.118 135.116
L126.29 133.027
L127.375 133.883
L128.461 130.618
L129.546 135.294
L130.632 143.231
L131.717 156.486
L132.802 172.562
L133.888 184.161
L134.973 179.982
L136.058 167.825
L137.143 151.888
L138.228 139.087
L139.313 133.23
L140.397 131.412
L141.482 125.604
L142.567 126.514
L143.651 132.028
L144.736 127.805
L145.82 129.47
L146.904 129.011
L147.989 125.758
L149.073 125.581
L150.157 130.258
L151.241 126.679
L152.325 126.857
L153.409 126.545
L154.492 125.882
L155.576 127.353
L156.66 130.422
L157.743 126.026
L158.827 125.714
L159.91 127.684
L160.994 124.12
L162.077 127.276
L163.16 128.586
L164.243 127.025
L165.326 128.464
L166.409 128.506
L167.492 126.096
L168.575 130.121
L169.658 132.927
L170.741 148.113
L171.823 161.729
L172.906 170.217
L173.988 164.216
L175.071 149.661
L176.153 139.081
L177.235 132.143
L178.318 128.656
L179.4 127.135
L180.482 129.289
L181.564 126.731
L182.646 126.088
L183.727 126.586
L184.809 130.044
L185.891 130.699
L186.972 129.907
L188.054 135.501
L189.135 144.508
L190.217 149.689
L191.298 149.819
L192.379 141.494
L193.46 138.278
L194.542 134.351
L195.623 127.028
L196.703 127.461
L198.865 126.953
L201.026 125.567
L202.107 125.676
L203.188 126.305
L204.268 128.59
L205.348 127.652
L207.509 130.309
L207.509 130.309" style="fill:none;stroke:#bf00bf;stroke-linecap:square;stroke-width:0.75;"/>
   </g>
   <g id="matplotlib.axis_3">
    <g id="xtick_5">
     <g id="line2d_23">
      <g>
       <use style="stroke:#000000;stroke-width:0.5;" x="68.4" xlink:href="#mc7db9fdffb" y="197.75543943"/>
      </g>
     </g>
     <g id="line2d_24">
      <g>
       <use style="stroke:#000000;stroke-width:0.5;" x="68.4" xlink:href="#m5a7d422ac3" y="108.482280285"/>
      </g>
     </g>
    </g>
    <g id="xtick_6">
     <g id="line2d_25">
      <g>
       <use style="stroke:#000000;stroke-width:0.5;" x="114.48" xlink:href="#mc7db9fdffb" y="197.75543943"/>
      </g>
     </g>
     <g id="line2d_26">
      <g>
       <use style="stroke:#000000;stroke-width:0.5;" x="114.48" xlink:href="#m5a7d422ac3" y="108.482280285"/>
      </g>
     </g>
    </g>
    <g id="xtick_7">
     <g id="line2d_27">
      <g>
       <use style="stroke:#000000;stroke-width:0.5;" x="160.56" xlink:href="#mc7db9fdffb" y="197.75543943"/>
      </g>
     </g>
     <g id="line2d_28">
      <g>
       <use style="stroke:#000000;stroke-width:0.5;" x="160.56" xlink:href="#m5a7d422ac3" y="108.482280285"/>
      </g>
     </g>
    </g>
    <g id="xtick_8">
     <g id="line2d_29">
      <g>
       <use style="stroke:#000000;stroke-width:0.5;" x="206.64" xlink:href="#mc7db9fdffb" y="197.75543943"/>
      </g>
     </g>
     <g id="line2d_30">
      <g>
       <use style="stroke:#000000;stroke-width:0.5;" x="206.64" xlink:href="#m5a7d422ac3" y="108.482280285"/>
      </g>
     </g>
    </g>
   </g>
   <g id="matplotlib.axis_4">
    <g id="ytick_6">
     <g id="line2d_31">
      <g>
       <use style="stroke:#000000;stroke-width:0.5;" x="45.36" xlink:href="#md7965d1ba0" y="183.65967746"/>
      </g>
     </g>
     <g id="line2d_32">
      <g>
       <use style="stroke:#000000;stroke-width:0.5;" x="206.64" xlink:href="#md9a1c1a7cd" y="183.65967746"/>
      </g>
     </g>
     <g id="text_8">
      <!-- $0.8$ -->
      <defs>
       <path d="
M18.4062 4.79688
C18.4062 7.6875 16 9.67188 13.5938 9.67188
C10.7031 9.67188 8.70312 7.28125 8.70312 4.89062
C8.70312 2 11.0938 0 13.5 0
C16.4062 0 18.4062 2.39062 18.4062 4.79688" id="CMMI12-58"/>
       <path d="
M27.2031 35.375
C33.5 38.5625 39.9062 43.3281 39.9062 50.9844
C39.9062 60.0312 31.0938 65.2969 23 65.2969
C13.9062 65.2969 5.90625 58.7344 5.90625 49.6875
C5.90625 47.2031 6.5 42.9219 10.4062 39.1406
C11.4062 38.1562 15.5938 35.1719 18.2969 33.2812
C13.7969 30.9844 3.29688 25.5312 3.29688 14.5938
C3.29688 4.35938 13.0938 -2 22.7969 -2
C33.5 -2 42.5 5.65625 42.5 15.7969
C42.5 24.8438 36.4062 29.0312 32.4062 31.7031
z

M14.0938 44.125
C13.2969 44.625 9.29688 47.7031 9.29688 52.375
C9.29688 58.4375 15.5938 63 22.7969 63
C30.7031 63 36.5 57.4531 36.5 50.9844
C36.5 41.7344 26.0938 36.4688 25.5938 36.4688
C25.5 36.4688 25.4062 36.4688 24.5938 37.0781
z

M32.5 23.7344
C34 22.6406 38.7969 19.375 38.7969 13.2969
C38.7969 5.95312 31.4062 0.390625 23 0.390625
C13.9062 0.390625 7 6.84375 7 14.6875
C7 22.5469 13.0938 29.0938 20 32.1875
z
" id="CMR17-56"/>
      </defs>
      <g transform="translate(28.6299210237 186.150337485)scale(0.1 -0.1)">
       <use transform="scale(0.9962640099626402)" xlink:href="#CMR17-48"/>
       <use transform="translate(45.69047711706103 0.0)scale(0.9962640099626402)" xlink:href="#CMMI12-58"/>
       <use transform="translate(72.78765420688046 0.0)scale(0.9962640099626402)" xlink:href="#CMR17-56"/>
      </g>
     </g>
    </g>
    <g id="ytick_7">
     <g id="line2d_33">
      <g>
       <use style="stroke:#000000;stroke-width:0.5;" x="45.36" xlink:href="#md7965d1ba0" y="164.865328166"/>
      </g>
     </g>
     <g id="line2d_34">
      <g>
       <use style="stroke:#000000;stroke-width:0.5;" x="206.64" xlink:href="#md9a1c1a7cd" y="164.865328166"/>
      </g>
     </g>
     <g id="text_9">
      <!-- $1.2$ -->
      <g transform="translate(28.6299210237 167.355988191)scale(0.1 -0.1)">
       <use transform="scale(0.9962640099626402)" xlink:href="#CMR17-49"/>
       <use transform="translate(45.69047711706103 0.0)scale(0.9962640099626402)" xlink:href="#CMMI12-58"/>
       <use transform="translate(72.78765420688046 0.0)scale(0.9962640099626402)" xlink:href="#CMR17-50"/>
      </g>
     </g>
    </g>
    <g id="ytick_8">
     <g id="line2d_35">
      <g>
       <use style="stroke:#000000;stroke-width:0.5;" x="45.36" xlink:href="#md7965d1ba0" y="146.070978872"/>
      </g>
     </g>
     <g id="line2d_36">
      <g>
       <use style="stroke:#000000;stroke-width:0.5;" x="206.64" xlink:href="#md9a1c1a7cd" y="146.070978872"/>
      </g>
     </g>
     <g id="text_10">
      <!-- $1.6$ -->
      <defs>
       <path d="
M10.5938 34
C10.5938 57.6562 21.7969 63 28.2969 63
C30.4062 63 35.5 62.6406 37.5 59
C35.9062 59 32.9062 59 32.9062 55.5156
C32.9062 52.8281 35.0938 51.9219 36.5 51.9219
C37.4062 51.9219 40.0938 52.3125 40.0938 55.625
C40.0938 61.7812 35.0938 65.2969 28.2031 65.2969
C16.2969 65.2969 3.79688 52.9688 3.79688 31
C3.79688 3.95312 15.0938 -2 23.0938 -2
C32.7969 -2 42 6.67188 42 20.0469
C42 32.5156 33.9062 41.5938 23.7031 41.5938
C17.5938 41.5938 13.0938 37.6094 10.5938 30.625
z

M23.0938 0.390625
C10.7969 0.390625 10.7969 18.75 10.7969 22.4375
C10.7969 29.625 14.2031 40 23.5 40
C25.2031 40 30.0938 40 33.4062 33.125
C35.2031 29.2188 35.2031 25.1406 35.2031 20.1406
C35.2031 14.75 35.2031 10.7812 33.0938 6.78125
C30.9062 2.67188 27.7031 0.390625 23.0938 0.390625" id="CMR17-54"/>
      </defs>
      <g transform="translate(28.6299210237 148.561638897)scale(0.1 -0.1)">
       <use transform="scale(0.9962640099626402)" xlink:href="#CMR17-49"/>
       <use transform="translate(45.69047711706103 0.0)scale(0.9962640099626402)" xlink:href="#CMMI12-58"/>
       <use transform="translate(72.78765420688046 0.0)scale(0.9962640099626402)" xlink:href="#CMR17-54"/>
      </g>
     </g>
    </g>
    <g id="ytick_9">
     <g id="line2d_37">
      <g>
       <use style="stroke:#000000;stroke-width:0.5;" x="45.36" xlink:href="#md7965d1ba0" y="127.276629579"/>
      </g>
     </g>
     <g id="line2d_38">
      <g>
       <use style="stroke:#000000;stroke-width:0.5;" x="206.64" xlink:href="#md9a1c1a7cd" y="127.276629579"/>
      </g>
     </g>
     <g id="text_11">
      <!-- $2.0$ -->
      <g transform="translate(28.6299210237 129.767289604)scale(0.1 -0.1)">
       <use transform="scale(0.9962640099626402)" xlink:href="#CMR17-50"/>
       <use transform="translate(45.69047711706103 0.0)scale(0.9962640099626402)" xlink:href="#CMMI12-58"/>
       <use transform="translate(72.78765420688046 0.0)scale(0.9962640099626402)" xlink:href="#CMR17-48"/>
      </g>
     </g>
    </g>
   </g>
   <g id="patch_8">
    <path d="
M45.36 197.755
L45.36 108.482" style="fill:none;stroke:#000000;"/>
   </g>
   <g id="patch_9">
    <path d="
M45.36 108.482
L206.64 108.482" style="fill:none;stroke:#000000;"/>
   </g>
   <g id="patch_10">
    <path d="
M45.36 197.755
L206.64 197.755" style="fill:none;stroke:#000000;"/>
   </g>
   <g id="patch_11">
    <path d="
M206.64 197.755
L206.64 108.482" style="fill:none;stroke:#000000;"/>
   </g>
   <g id="text_12">
    <!-- raw data -->
    <defs>
     <path d="
M15 23.3906
C15 33 19.0938 42 26.5938 42
C27.2969 42 28 41.9062 28.7031 41.5938
C28.7031 41.5938 26.5 40.8906 26.5 38.3125
C26.5 35.9062 28.4062 34.9062 29.9062 34.9062
C31.0938 34.9062 33.2969 35.6094 33.2969 38.4062
C33.2969 41.6094 30.0938 43.5938 26.7031 43.5938
C19.0938 43.5938 15.7969 36.2031 14.7969 32.7031
L14.7031 32.7031
L14.7031 43.5938
L3.09375 42.5
L3.09375 39.9062
C9 39.9062 9.90625 39.2969 9.90625 34.5
L9.90625 6.6875
C9.90625 2.875 9.5 2.39062 3.09375 2.39062
L3.09375 -0.203125
C5.5 0 10.0938 0 12.7031 0
C15.5938 0 20.7031 0 23.4062 -0.203125
L23.4062 2.39062
C16.2031 2.39062 15 2.39062 15 6.875
z
" id="CMR17-114"/>
     <path d="
M15.0938 40
L29.0938 40
L29.0938 42.5781
L15.0938 42.5781
L15.0938 61
L13.2969 61
C13.0938 50.7031 9.59375 41.6875 1.09375 41.6875
L1.09375 40
L9.79688 40
L9.79688 12.0469
C9.79688 10.1562 9.79688 -1 21.4062 -1
C27.2969 -1 30.7031 4.78125 30.7031 12.1406
L30.7031 17.8125
L28.9062 17.8125
L28.9062 12.2344
C28.9062 5.375 26.2031 0.796875 22 0.796875
C19.0938 0.796875 15.0938 2.78125 15.0938 11.8438
z
" id="CMR17-116"/>
     <path d="
M58.2031 34.0781
C60.2031 40 64.2031 40 65.7031 40
L65.7031 42.6875
C63.7031 42.6875 61.7031 42.6875 59.7031 42.6875
C57.7969 42.6875 53.5 42.6875 51.7969 42.7812
L51.7969 40
C54.9062 40 56.5938 38.1875 56.5938 35.7031
C56.5938 35 56.4062 34.0938 56.2031 33.4062
L46.7969 6.20312
L36.5938 35.5156
C36.4062 36.2188 36.0938 37.0156 36.0938 37.4062
C36.0938 40 39.5 40 41.0938 40
L41.0938 42.7812
C38.7969 42.6875 34.5938 42.6875 32.2031 42.6875
C29.7031 42.6875 27.0938 42.6875 24.7969 42.7812
L24.7969 40
C30.2969 40 30.2969 39.7969 32.4062 33.7031
L23.2031 6.90625
L13.2969 35.625
C12.7969 36.9062 12.7969 37.1094 12.7969 37.4062
C12.7969 40 16.2031 40 17.7969 40
L17.7969 42.7812
C15.4062 42.6875 11.2031 42.6875 8.70312 42.6875
C6.5 42.6875 3.09375 42.6875 1 42.7812
L1 40
C5.40625 40 6.5 39.7031 7.59375 36.4062
L19.9062 0.59375
C20.2969 -0.703125 20.5938 -1 21.4062 -1
C22.0938 -1 22.5 -0.796875 23 0.703125
L33.2969 30.9062
L43.7031 0.703125
C44.2031 -0.796875 44.5938 -1 45.2969 -1
C46.0938 -1 46.4062 -0.703125 46.7969 0.609375
z
" id="CMR17-119"/>
     <path d="
M29.2031 67.5938
L29.2031 65
C35.0938 65 36 64.4062 36 59.6875
L36 36.6406
C35.5938 37.1406 31.5 43.5938 23.4062 43.5938
C13.2031 43.5938 3.29688 34.5 3.29688 21.3125
C3.29688 8.20312 12.5938 -1 22.4062 -1
C30.9062 -1 35.2969 5.26562 35.7969 5.9375
L35.7969 -0.984375
L47.9062 -0.984375
L47.9062 2
C42 2 41.0938 2.59375 41.0938 7.39062
L41.0938 68.6875
z

M35.7969 11.7969
C35.7969 8.79688 34 6.09375 31.7031 4.09375
C28.2969 1.09375 24.9062 0.59375 23 0.59375
C20.0938 0.59375 9.70312 2.09375 9.70312 21.1875
C9.70312 40.8125 21.2969 42 23.9062 42
C28.5 42 32.2031 39.4062 34.5 35.7969
C35.7969 33.7031 35.7969 33.4062 35.7969 31.6094
z
" id="CMR17-100"/>
    </defs>
    <g style="fill:#333333;" transform="translate(166.199238494 121.873254157)scale(0.09 -0.09)">
     <use transform="scale(0.9962640099626402)" xlink:href="#CMR17-114"/>
     <use transform="translate(35.28076779946296 0.0)scale(0.9962640099626402)" xlink:href="#CMR17-97"/>
     <use transform="translate(78.3687909840053 0.0)scale(0.9962640099626402)" xlink:href="#CMR17-119"/>
     <use transform="translate(174.95463788138233 0.0)scale(0.9962640099626402)" xlink:href="#CMR17-100"/>
     <use transform="translate(225.85000766169833 0.0)scale(0.9962640099626402)" xlink:href="#CMR17-97"/>
     <use transform="translate(271.5404847787594 0.0)scale(0.9962640099626402)" xlink:href="#CMR17-116"/>
     <use transform="translate(306.8212525782223 0.0)scale(0.9962640099626402)" xlink:href="#CMR17-97"/>
    </g>
   </g>
  </g>
  <g id="axes_3">
   <g id="patch_12">
    <path d="
M45.36 293.278
L206.64 293.278
L206.64 204.005
L45.36 204.005
z
" style="fill:#ffffff;"/>
   </g>
   <g id="line2d_39">
    <path clip-path="url(#pbd9f2e0360)" d="
M44.6913 224.664
L45.63 226.873
L46.5687 222.501
L47.5074 227.37
L48.4459 222.558
L49.3843 224.772
L50.3227 222.82
L51.261 225.458
L52.1993 220.391
L53.1374 221.986
L54.0755 226.576
L55.0135 220.894
L55.9514 223.926
L56.8892 222.009
L57.827 225.423
L58.7647 227.626
L59.7023 233.722
L60.6398 241.363
L61.5772 251.782
L62.5146 264.079
L63.4519 261.282
L64.3891 256.208
L66.2633 231.031
L67.2003 230.315
L68.1372 226.231
L69.074 228.262
L70.0107 228.5
L70.9474 229.658
L71.884 226.97
L72.8205 228.769
L73.757 226.061
L74.6933 226.326
L75.6296 223.41
L76.5658 226.034
L77.5019 225.263
L78.438 226.036
L79.3739 226.08
L80.3098 225.916
L81.2456 226.671
L82.1814 225.669
L83.117 223.963
L84.0526 226.039
L84.9881 225.467
L85.9235 227.498
L86.8589 222.226
L87.7941 224.763
L89.6644 221.592
L90.5994 224.772
L91.5344 226.234
L92.4693 226.139
L93.4041 224.63
L94.3388 227.969
L95.2734 222.999
L96.208 224.284
L97.1425 223.386
L98.0769 225.913
L99.0112 220.669
L99.9455 224.739
L100.88 225.127
L101.814 222.561
L102.748 224.895
L103.682 225.026
L104.616 224.53
L105.549 223.345
L106.483 223.825
L107.417 225.063
L108.35 224.227
L109.284 225.606
L110.217 222.68
L111.15 220.791
L112.084 222.276
L113.017 223.419
L113.95 225.119
L114.883 223.682
L115.816 222.7
L116.749 225.115
L117.681 224.533
L118.614 224.609
L119.547 225.66
L120.479 226.281
L121.412 229.022
L122.344 228.881
L123.276 231.852
L124.209 234.381
L125.141 232.766
L126.073 229.565
L127.005 233.246
L127.937 228.93
L128.869 233.984
L129.8 233.508
L130.732 241.049
L131.664 250.566
L132.595 267.054
L133.527 279.526
L134.458 280.035
L135.389 271.37
L137.252 247.301
L138.183 237.123
L139.114 230.735
L140.044 231.965
L140.975 227.958
L141.906 226.321
L142.837 227.835
L143.767 228.118
L144.698 227.867
L145.628 223.481
L146.559 222.728
L147.489 228.118
L148.419 228.82
L149.349 221.469
L150.279 223.753
L151.209 223.62
L152.139 224.221
L153.069 225.038
L153.999 221.955
L154.928 225.92
L155.858 223.5
L156.787 226.268
L157.717 226.793
L158.646 224.558
L159.575 226.893
L160.504 222.245
L161.434 226.062
L162.363 222.808
L163.291 226.34
L164.22 223.507
L165.149 222.152
L167.006 226.676
L167.935 224.373
L168.863 228.752
L169.792 234.208
L170.72 241.309
L171.648 258.432
L172.577 269.377
L173.505 268.723
L174.433 261.983
L175.361 245.219
L176.288 232.178
L177.216 227.068
L178.144 223.505
L179.072 229.307
L179.999 226.876
L180.927 222.532
L181.854 223.309
L182.781 222.351
L183.708 228.984
L184.636 229.551
L185.563 228.513
L186.49 225.782
L188.343 235.334
L189.27 237.517
L190.197 248.735
L191.123 246.726
L192.05 238.018
L192.976 240.621
L193.903 231.234
L194.829 228.677
L195.755 224.45
L197.607 223.65
L199.459 221.251
L200.385 225.922
L201.311 222.569
L202.236 221.897
L203.162 224.559
L204.087 220.688
L205.013 221.363
L205.013 221.363" style="fill:none;stroke:#008000;stroke-linecap:square;stroke-width:0.75;"/>
   </g>
   <g id="line2d_40">
    <path clip-path="url(#pbd9f2e0360)" d="
M44.658 223.247
L45.7492 226.984
L46.8402 222.477
L47.9312 223.527
L49.0221 223.074
L50.113 225.365
L51.2037 225.422
L52.2944 225.959
L53.385 224.752
L54.4756 224.235
L55.5661 224.76
L56.6565 224.196
L57.7468 224.919
L59.9272 230.334
L61.0173 244.903
L62.1074 256.326
L63.1973 261.678
L64.2872 254.227
L65.377 241.123
L66.4668 233.357
L67.5564 228.173
L68.646 224.622
L69.7355 224.282
L70.825 225.476
L71.9144 225.502
L73.0037 224.519
L74.0929 224.63
L75.182 225.998
L76.2711 224.159
L77.3601 223.168
L78.4491 225.579
L79.5379 224.658
L80.6267 226.183
L81.7154 227.09
L82.8041 226.212
L83.8926 226.057
L84.9811 222.611
L87.1579 224.061
L88.2462 223.877
L89.3344 225.694
L90.4225 223.778
L91.5106 223.511
L92.5986 225.563
L93.6865 220.354
L94.7743 222.575
L95.8621 223.322
L96.9498 223.594
L98.0374 223.256
L99.1249 226.918
L100.212 222.608
L101.3 223.164
L102.387 226.129
L103.474 223.354
L104.562 223.541
L105.649 220.843
L106.736 223.506
L107.823 225.388
L108.91 224.084
L109.996 225.425
L111.083 223.921
L113.256 224.335
L114.343 222.758
L115.429 225.773
L116.516 223.875
L117.602 222.97
L118.688 223.537
L119.774 226.585
L120.86 226.507
L121.946 230.369
L123.032 232.139
L124.118 232.212
L126.29 230.166
L127.375 231.009
L128.461 227.806
L129.546 232.399
L130.632 240.191
L131.717 253.204
L132.802 268.985
L133.888 280.37
L134.973 276.27
L136.058 264.339
L137.143 248.7
L138.228 236.14
L139.313 230.394
L140.397 228.612
L141.482 222.916
L142.567 223.811
L143.651 229.224
L144.736 225.083
L145.82 226.719
L146.904 226.271
L147.989 223.082
L149.073 222.91
L150.157 227.501
L151.241 223.992
L152.325 224.17
L153.409 223.865
L154.492 223.218
L155.576 224.663
L156.66 227.676
L157.743 223.366
L158.827 223.062
L159.91 224.997
L160.994 221.503
L162.077 224.601
L163.16 225.888
L164.243 224.359
L165.326 225.773
L166.409 225.816
L167.492 223.455
L168.575 227.404
L169.658 230.158
L170.741 245.052
L171.823 258.406
L172.906 266.73
L173.988 260.847
L175.071 246.576
L176.153 236.204
L177.235 229.403
L178.318 225.986
L179.4 224.498
L180.482 226.611
L181.564 224.105
L182.646 223.477
L183.727 223.967
L184.809 227.359
L185.891 228.003
L186.972 227.229
L188.054 232.714
L189.135 241.545
L190.217 246.625
L191.298 246.754
L192.379 238.596
L193.46 235.445
L194.542 231.598
L195.623 224.422
L196.703 224.848
L198.865 224.354
L201.026 222.999
L202.107 223.108
L203.188 223.727
L204.268 225.967
L205.348 225.05
L207.509 227.657
L207.509 227.657" style="fill:none;stroke:#bf00bf;stroke-linecap:square;stroke-width:0.75;"/>
   </g>
   <g id="matplotlib.axis_5">
    <g id="xtick_9">
     <g id="line2d_41">
      <g>
       <use style="stroke:#000000;stroke-width:0.5;" x="68.4" xlink:href="#mc7db9fdffb" y="293.277719715"/>
      </g>
     </g>
     <g id="line2d_42">
      <g>
       <use style="stroke:#000000;stroke-width:0.5;" x="68.4" xlink:href="#m5a7d422ac3" y="204.00456057"/>
      </g>
     </g>
    </g>
    <g id="xtick_10">
     <g id="line2d_43">
      <g>
       <use style="stroke:#000000;stroke-width:0.5;" x="114.48" xlink:href="#mc7db9fdffb" y="293.277719715"/>
      </g>
     </g>
     <g id="line2d_44">
      <g>
       <use style="stroke:#000000;stroke-width:0.5;" x="114.48" xlink:href="#m5a7d422ac3" y="204.00456057"/>
      </g>
     </g>
    </g>
    <g id="xtick_11">
     <g id="line2d_45">
      <g>
       <use style="stroke:#000000;stroke-width:0.5;" x="160.56" xlink:href="#mc7db9fdffb" y="293.277719715"/>
      </g>
     </g>
     <g id="line2d_46">
      <g>
       <use style="stroke:#000000;stroke-width:0.5;" x="160.56" xlink:href="#m5a7d422ac3" y="204.00456057"/>
      </g>
     </g>
    </g>
    <g id="xtick_12">
     <g id="line2d_47">
      <g>
       <use style="stroke:#000000;stroke-width:0.5;" x="206.64" xlink:href="#mc7db9fdffb" y="293.277719715"/>
      </g>
     </g>
     <g id="line2d_48">
      <g>
       <use style="stroke:#000000;stroke-width:0.5;" x="206.64" xlink:href="#m5a7d422ac3" y="204.00456057"/>
      </g>
     </g>
    </g>
   </g>
   <g id="matplotlib.axis_6">
    <g id="ytick_10">
     <g id="line2d_49">
      <g>
       <use style="stroke:#000000;stroke-width:0.5;" x="45.36" xlink:href="#md7965d1ba0" y="279.181957745"/>
      </g>
     </g>
     <g id="line2d_50">
      <g>
       <use style="stroke:#000000;stroke-width:0.5;" x="206.64" xlink:href="#md9a1c1a7cd" y="279.181957745"/>
      </g>
     </g>
     <g id="text_13">
      <!-- $0.8$ -->
      <g transform="translate(28.6299210237 281.67261777)scale(0.1 -0.1)">
       <use transform="scale(0.9962640099626402)" xlink:href="#CMR17-48"/>
       <use transform="translate(45.69047711706103 0.0)scale(0.9962640099626402)" xlink:href="#CMMI12-58"/>
       <use transform="translate(72.78765420688046 0.0)scale(0.9962640099626402)" xlink:href="#CMR17-56"/>
      </g>
     </g>
    </g>
    <g id="ytick_11">
     <g id="line2d_51">
      <g>
       <use style="stroke:#000000;stroke-width:0.5;" x="45.36" xlink:href="#md7965d1ba0" y="260.387608451"/>
      </g>
     </g>
     <g id="line2d_52">
      <g>
       <use style="stroke:#000000;stroke-width:0.5;" x="206.64" xlink:href="#md9a1c1a7cd" y="260.387608451"/>
      </g>
     </g>
     <g id="text_14">
      <!-- $1.2$ -->
      <g transform="translate(28.6299210237 262.878268476)scale(0.1 -0.1)">
       <use transform="scale(0.9962640099626402)" xlink:href="#CMR17-49"/>
       <use transform="translate(45.69047711706103 0.0)scale(0.9962640099626402)" xlink:href="#CMMI12-58"/>
       <use transform="translate(72.78765420688046 0.0)scale(0.9962640099626402)" xlink:href="#CMR17-50"/>
      </g>
     </g>
    </g>
    <g id="ytick_12">
     <g id="line2d_53">
      <g>
       <use style="stroke:#000000;stroke-width:0.5;" x="45.36" xlink:href="#md7965d1ba0" y="241.593259157"/>
      </g>
     </g>
     <g id="line2d_54">
      <g>
       <use style="stroke:#000000;stroke-width:0.5;" x="206.64" xlink:href="#md9a1c1a7cd" y="241.593259157"/>
      </g>
     </g>
     <g id="text_15">
      <!-- $1.6$ -->
      <g transform="translate(28.6299210237 244.083919182)scale(0.1 -0.1)">
       <use transform="scale(0.9962640099626402)" xlink:href="#CMR17-49"/>
       <use transform="translate(45.69047711706103 0.0)scale(0.9962640099626402)" xlink:href="#CMMI12-58"/>
       <use transform="translate(72.78765420688046 0.0)scale(0.9962640099626402)" xlink:href="#CMR17-54"/>
      </g>
     </g>
    </g>
    <g id="ytick_13">
     <g id="line2d_55">
      <g>
       <use style="stroke:#000000;stroke-width:0.5;" x="45.36" xlink:href="#md7965d1ba0" y="222.798909864"/>
      </g>
     </g>
     <g id="line2d_56">
      <g>
       <use style="stroke:#000000;stroke-width:0.5;" x="206.64" xlink:href="#md9a1c1a7cd" y="222.798909864"/>
      </g>
     </g>
     <g id="text_16">
      <!-- $2.0$ -->
      <g transform="translate(28.6299210237 225.289569889)scale(0.1 -0.1)">
       <use transform="scale(0.9962640099626402)" xlink:href="#CMR17-50"/>
       <use transform="translate(45.69047711706103 0.0)scale(0.9962640099626402)" xlink:href="#CMMI12-58"/>
       <use transform="translate(72.78765420688046 0.0)scale(0.9962640099626402)" xlink:href="#CMR17-48"/>
      </g>
     </g>
    </g>
   </g>
   <g id="patch_13">
    <path d="
M45.36 293.278
L45.36 204.005" style="fill:none;stroke:#000000;"/>
   </g>
   <g id="patch_14">
    <path d="
M45.36 204.005
L206.64 204.005" style="fill:none;stroke:#000000;"/>
   </g>
   <g id="patch_15">
    <path d="
M45.36 293.278
L206.64 293.278" style="fill:none;stroke:#000000;"/>
   </g>
   <g id="patch_16">
    <path d="
M206.64 293.278
L206.64 204.005" style="fill:none;stroke:#000000;"/>
   </g>
   <g id="text_17">
    <!-- corrected data -->
    <defs>
     <path d="
M34.9062 35
C33 35 30.2031 35 30.2031 31.5156
C30.2031 28.7188 32.5 27.9219 33.7969 27.9219
C34.5 27.9219 37.4062 28.2344 37.4062 31.625
C37.4062 38.5469 30.5938 43.7969 22.9062 43.7969
C12.2969 43.7969 3.29688 34.0312 3.29688 21.2969
C3.29688 8.0625 12.7031 -1 22.9062 -1
C35.2969 -1 38.4062 10.5938 38.4062 11.6875
C38.4062 12.0938 38.2969 12.3906 37.5938 12.3906
C36.9062 12.3906 36.7969 12.2969 36.4062 10.9844
C33.7969 2.8125 28.0938 0.796875 23.7969 0.796875
C17.4062 0.796875 9.70312 6.67188 9.70312 21.3906
C9.70312 36.5312 17.0938 42 23 42
C26.9062 42 32.7031 40.2031 34.9062 35" id="CMR17-99"/>
     <path d="
M38.0938 23
C38.5 23.4062 38.5 23.6094 38.5 24.625
C38.5 34.9688 33.0938 44 21.7031 44
C11.0938 44 2.70312 33.8906 2.70312 21.6094
C2.70312 8.60938 12.2031 -1 22.7969 -1
C34 -1 38.4062 9.46875 38.4062 11.5469
C38.4062 12.25 37.7969 12.25 37.5938 12.25
C36.9062 12.25 36.7969 12.0469 36.4062 10.875
C34.2031 4.14062 28.7031 0.796875 23.5 0.796875
C19.2031 0.796875 14.9062 3.17188 12.2031 7.5
C9.09375 12.5469 9.09375 18.375 9.09375 23
z

M9.20312 24.5
C9.90625 39.1406 17.5938 42.4062 21.5938 42.4062
C28.4062 42.4062 33 35.8906 33.0938 24.5
z
" id="CMR17-101"/>
    </defs>
    <g style="fill:#333333;" transform="translate(143.90108168 217.395534442)scale(0.09 -0.09)">
     <use transform="scale(0.9962640099626402)" xlink:href="#CMR17-99"/>
     <use transform="translate(40.48566046271794 0.0)scale(0.9962640099626402)" xlink:href="#CMR17-111"/>
     <use transform="translate(86.17613757977897 0.0)scale(0.9962640099626402)" xlink:href="#CMR17-114"/>
     <use transform="translate(121.45690537924192 0.0)scale(0.9962640099626402)" xlink:href="#CMR17-114"/>
     <use transform="translate(156.73767317870488 0.0)scale(0.9962640099626402)" xlink:href="#CMR17-101"/>
     <use transform="translate(197.2233336414228 0.0)scale(0.9962640099626402)" xlink:href="#CMR17-99"/>
     <use transform="translate(237.70899410414074 0.0)scale(0.9962640099626402)" xlink:href="#CMR17-116"/>
     <use transform="translate(272.9897619036037 0.0)scale(0.9962640099626402)" xlink:href="#CMR17-101"/>
     <use transform="translate(313.47542236632165 0.0)scale(0.9962640099626402)" xlink:href="#CMR17-100"/>
     <use transform="translate(394.4467584935399 0.0)scale(0.9962640099626402)" xlink:href="#CMR17-100"/>
     <use transform="translate(445.3421282738559 0.0)scale(0.9962640099626402)" xlink:href="#CMR17-97"/>
     <use transform="translate(491.0326053909169 0.0)scale(0.9962640099626402)" xlink:href="#CMR17-116"/>
     <use transform="translate(526.3133731903798 0.0)scale(0.9962640099626402)" xlink:href="#CMR17-97"/>
    </g>
   </g>
  </g>
  <g id="axes_4">
   <g id="patch_17">
    <path d="
M45.36 388.8
L206.64 388.8
L206.64 299.527
L45.36 299.527
z
" style="fill:#ffffff;"/>
   </g>
   <g id="line2d_57">
    <path clip-path="url(#p708a9dad1d)" d="
M44.6913 317.751
L46.5687 318.517
L47.5074 318.722
L48.4459 318.609
L50.3227 317.979
L52.1993 317.73
L55.9514 317.676
L56.8892 317.815
L57.827 318.309
L58.7647 320.022
L59.7023 324.684
L60.6398 333.62
L61.5772 345.165
L62.5146 354.087
L63.4519 355.112
L64.3891 347.604
L65.3262 336.171
L66.2633 326.45
L67.2003 321.006
L68.1372 319.123
L69.074 319.144
L70.9474 320.432
L71.884 320.436
L74.6933 318.843
L76.5658 318.245
L77.5019 318.019
L78.438 317.941
L80.3098 318.231
L81.2456 318.43
L82.1814 318.513
L83.117 318.423
L84.9881 318.002
L85.9235 317.948
L86.8589 318.098
L87.7941 318.453
L88.7293 319.161
L89.6644 320.528
L90.5994 322.432
L91.5344 323.939
L92.4693 324.022
L93.4041 322.581
L94.3388 320.591
L95.2734 319.194
L96.208 318.742
L99.0112 319.191
L99.9455 319.054
L102.748 318.301
L104.616 318.097
L105.549 318.174
L108.35 318.789
L109.284 318.763
L112.084 318.262
L113.95 318.276
L118.614 318.537
L119.547 318.707
L120.479 319.215
L121.412 320.39
L123.276 323.847
L124.209 324.407
L125.141 323.657
L126.073 322.358
L127.005 321.586
L127.937 321.933
L128.869 323.673
L129.8 327.599
L130.732 335.082
L131.664 346.595
L132.595 359.863
L133.527 369.932
L134.458 371.964
L135.389 364.902
L137.252 339.719
L138.183 330.517
L139.114 325.254
L140.044 322.61
L140.975 321.256
L141.906 320.493
L142.837 320.035
L143.767 319.767
L144.698 319.648
L146.559 319.813
L147.489 319.949
L148.419 319.942
L150.279 319.445
L152.139 319.031
L155.858 318.918
L157.717 319.093
L158.646 319.335
L159.575 319.697
L160.504 320.263
L162.363 321.708
L163.291 321.866
L164.22 321.355
L166.078 319.708
L167.006 319.362
L167.935 319.634
L168.863 321.346
L169.792 326.255
L170.72 335.513
L171.648 346.951
L172.577 354.956
L173.505 354.598
L174.433 346.126
L175.361 334.74
L176.288 325.9
L177.216 321.446
L178.144 320.005
L179.072 319.698
L180.927 319.476
L181.854 319.515
L182.781 319.962
L183.708 320.967
L186.49 325.039
L187.416 328.646
L188.343 335.932
L189.27 345.492
L190.197 352.671
L191.123 353.263
L192.05 347.119
L193.903 329.706
L194.829 324.29
L195.755 321.366
L196.681 320.072
L197.607 319.637
L199.459 319.528
L203.162 319.491
L204.087 319.616
L205.013 320.211
L205.013 320.211" style="fill:none;stroke:#008000;stroke-linecap:square;stroke-width:0.75;"/>
   </g>
   <g id="line2d_58">
    <path clip-path="url(#p708a9dad1d)" d="
M44.658 316.152
L46.8402 317.001
L47.9312 317.091
L51.2037 316.132
L54.4756 315.921
L56.6565 316.008
L57.7468 316.477
L58.837 318.513
L59.9272 324.799
L62.1074 349.745
L63.1973 354.66
L64.2872 347.469
L65.377 334.035
L66.4668 323.143
L67.5564 318.1
L68.646 317.09
L70.825 318.483
L71.9144 318.511
L74.0929 317.137
L76.2711 316.312
L77.3601 316.003
L78.4491 315.881
L79.5379 315.989
L81.7154 316.397
L82.8041 316.361
L84.9811 315.85
L86.0696 315.788
L87.1579 316.007
L88.2462 316.548
L89.3344 317.79
L90.4225 319.929
L91.5106 321.808
L92.5986 321.777
L93.6865 319.793
L94.7743 317.57
L95.8621 316.521
L96.9498 316.514
L98.0374 316.786
L99.1249 316.854
L100.212 316.634
L102.387 315.979
L103.474 315.754
L104.562 315.657
L105.649 315.737
L107.823 316.245
L108.91 316.311
L113.256 315.682
L118.688 315.905
L119.774 316.137
L120.86 316.958
L121.946 318.772
L123.032 320.924
L124.118 321.862
L125.204 320.98
L126.29 319.447
L127.375 318.893
L128.461 320.043
L129.546 323.658
L130.632 331.718
L131.717 345.381
L132.802 361.066
L133.888 370.605
L134.973 367.705
L136.058 354.394
L137.143 338.836
L138.228 327.601
L139.313 321.752
L140.397 319.129
L141.482 317.87
L142.567 317.186
L143.651 316.804
L144.736 316.638
L145.82 316.673
L147.989 316.919
L149.073 316.75
L151.241 316.046
L152.325 315.864
L155.576 315.713
L156.66 315.723
L157.743 315.864
L158.827 316.153
L159.91 316.63
L162.077 318.32
L163.16 318.663
L164.243 318.076
L165.326 316.987
L166.409 316.17
L167.492 316.018
L168.575 317.209
L169.658 322.08
L170.741 332.927
L171.823 346.558
L172.906 353.802
L173.988 348.633
L175.071 335.432
L176.153 323.674
L177.235 317.927
L178.318 316.363
L179.4 316.087
L181.564 315.86
L182.646 316.248
L183.727 317.404
L185.891 320.441
L186.972 323.097
L188.054 330.097
L189.135 341.376
L190.217 350.352
L191.298 350.115
L192.379 341.159
L193.46 330.072
L194.542 322.092
L195.623 317.906
L196.703 316.21
L197.784 315.722
L199.946 315.604
L203.188 315.513
L204.268 315.686
L205.348 316.738
L206.429 320.367
L207.509 327.448
L207.509 327.448" style="fill:none;stroke:#bf00bf;stroke-linecap:square;stroke-width:0.75;"/>
   </g>
   <g id="matplotlib.axis_7">
    <g id="xtick_13">
     <g id="line2d_59">
      <g>
       <use style="stroke:#000000;stroke-width:0.5;" x="68.4" xlink:href="#mc7db9fdffb" y="388.8"/>
      </g>
     </g>
     <g id="line2d_60">
      <g>
       <use style="stroke:#000000;stroke-width:0.5;" x="68.4" xlink:href="#m5a7d422ac3" y="299.526840855"/>
      </g>
     </g>
     <g id="text_18">
      <!-- 5230 -->
      <defs>
       <path d="
M11.4062 57.6875
C12.4062 57.2812 16.5 56 20.7031 56
C30 56 35.0938 61.0156 38 63.9219
C38 64.7344 38 65.25 37.4062 65.25
C37.2969 65.25 37.0938 65.25 36.2969 64.8281
C32.7969 63.3125 28.7031 62.0781 23.7031 62.0781
C20.7031 62.0781 16.2031 62.5 11.2969 64.7344
C10.2031 65.25 10 65.25 9.90625 65.25
C9.40625 65.25 9.29688 65.1406 9.29688 63.1562
L9.29688 34.2812
C9.29688 32.5 9.29688 32 10.2969 32
C10.7969 32 11 32.2031 11.5 32.9062
C14.7031 37.4844 19.0938 39.4062 24.0938 39.4062
C27.5938 39.4062 35.0938 37.2188 35.0938 20.1406
C35.0938 16.9531 35.0938 11.1719 32.0938 6.57812
C29.5938 2.48438 25.7031 0.390625 21.4062 0.390625
C14.7969 0.390625 8.09375 5 6.29688 12.7188
C6.70312 12.6094 7.5 12.4219 7.90625 12.4219
C9.20312 12.4219 11.7031 13.125 11.7031 16.2188
C11.7031 18.9062 9.79688 20 7.90625 20
C5.59375 20 4.09375 18.5938 4.09375 15.7969
C4.09375 7.09375 11 -2 21.5938 -2
C31.9062 -2 41.7031 6.875 41.7031 19.75
C41.7031 31.7188 33.9062 41 24.2031 41
C19.0938 41 14.7969 39.0938 11.4062 35.4531
z
" id="CMR17-53"/>
      </defs>
      <g transform="translate(58.4373294968 399.71849838)scale(0.1 -0.1)">
       <use transform="scale(0.9962640099626402)" xlink:href="#CMR17-53"/>
       <use transform="translate(45.69047711706103 0.0)scale(0.9962640099626402)" xlink:href="#CMR17-50"/>
       <use transform="translate(91.38095423412206 0.0)scale(0.9962640099626402)" xlink:href="#CMR17-51"/>
       <use transform="translate(137.07143135118307 0.0)scale(0.9962640099626402)" xlink:href="#CMR17-48"/>
      </g>
     </g>
    </g>
    <g id="xtick_14">
     <g id="line2d_61">
      <g>
       <use style="stroke:#000000;stroke-width:0.5;" x="114.48" xlink:href="#mc7db9fdffb" y="388.8"/>
      </g>
     </g>
     <g id="line2d_62">
      <g>
       <use style="stroke:#000000;stroke-width:0.5;" x="114.48" xlink:href="#m5a7d422ac3" y="299.526840855"/>
      </g>
     </g>
     <g id="text_19">
      <!-- 5232 -->
      <g transform="translate(104.517329497 399.71849838)scale(0.1 -0.1)">
       <use transform="scale(0.9962640099626402)" xlink:href="#CMR17-53"/>
       <use transform="translate(45.69047711706103 0.0)scale(0.9962640099626402)" xlink:href="#CMR17-50"/>
       <use transform="translate(91.38095423412206 0.0)scale(0.9962640099626402)" xlink:href="#CMR17-51"/>
       <use transform="translate(137.07143135118307 0.0)scale(0.9962640099626402)" xlink:href="#CMR17-50"/>
      </g>
     </g>
    </g>
    <g id="xtick_15">
     <g id="line2d_63">
      <g>
       <use style="stroke:#000000;stroke-width:0.5;" x="160.56" xlink:href="#mc7db9fdffb" y="388.8"/>
      </g>
     </g>
     <g id="line2d_64">
      <g>
       <use style="stroke:#000000;stroke-width:0.5;" x="160.56" xlink:href="#m5a7d422ac3" y="299.526840855"/>
      </g>
     </g>
     <g id="text_20">
      <!-- 5234 -->
      <defs>
       <path d="
M33.5938 64.3281
C33.5938 66.4062 33.5 66.5 31.7031 66.5
L2 19.5938
L2 17
L27.7969 17
L27.7969 7.14062
C27.7969 3.5 27.5938 2.5 20.5938 2.5
L18.7031 2.5
L18.7031 0
C21.9062 0 27.2969 0 30.7031 0
C34.0938 0 39.5 0 42.7031 0
L42.7031 2.5
L40.7969 2.5
C33.7969 2.5 33.5938 3.5 33.5938 7.14062
L33.5938 17
L43.7969 17
L43.7969 19.5938
L33.5938 19.5938
z

M28.0938 57.7656
L28.0938 19.5938
L4 19.5938
z
" id="CMR17-52"/>
      </defs>
      <g transform="translate(150.597329497 399.71849838)scale(0.1 -0.1)">
       <use transform="scale(0.9962640099626402)" xlink:href="#CMR17-53"/>
       <use transform="translate(45.69047711706103 0.0)scale(0.9962640099626402)" xlink:href="#CMR17-50"/>
       <use transform="translate(91.38095423412206 0.0)scale(0.9962640099626402)" xlink:href="#CMR17-51"/>
       <use transform="translate(137.07143135118307 0.0)scale(0.9962640099626402)" xlink:href="#CMR17-52"/>
      </g>
     </g>
    </g>
    <g id="xtick_16">
     <g id="line2d_65">
      <g>
       <use style="stroke:#000000;stroke-width:0.5;" x="206.64" xlink:href="#mc7db9fdffb" y="388.8"/>
      </g>
     </g>
     <g id="line2d_66">
      <g>
       <use style="stroke:#000000;stroke-width:0.5;" x="206.64" xlink:href="#m5a7d422ac3" y="299.526840855"/>
      </g>
     </g>
     <g id="text_21">
      <!-- 5236 -->
      <g transform="translate(196.677329497 399.71849838)scale(0.1 -0.1)">
       <use transform="scale(0.9962640099626402)" xlink:href="#CMR17-53"/>
       <use transform="translate(45.69047711706103 0.0)scale(0.9962640099626402)" xlink:href="#CMR17-50"/>
       <use transform="translate(91.38095423412206 0.0)scale(0.9962640099626402)" xlink:href="#CMR17-51"/>
       <use transform="translate(137.07143135118307 0.0)scale(0.9962640099626402)" xlink:href="#CMR17-54"/>
      </g>
     </g>
    </g>
    <g id="text_22">
     <!-- $\lambda$  [\AA] -->
     <defs>
      <path d="
M23.5 -25
L23.5 -21.5156
L14.0938 -21.5156
L14.0938 71
L23.5 71
L23.5 74.4844
L10.5938 74.4844
L10.5938 -25
z
" id="CMR17-91"/>
      <path d="
M30.9062 61.9531
C28.4062 69 20.5 69 19.2031 69
C18.5938 69 17.5 69 17.5 68
C17.5 67.2188 18.0938 67.1094 18.5938 67.0156
C20.0938 66.8125 21.2969 66.6094 22.9062 63.75
C23.9062 61.8594 34.2031 32.1719 34.2031 31.9688
C34.2031 31.875 34.0938 31.7656 33.2969 30.9688
L7.29688 4.85938
C6.09375 3.65625 5.29688 2.85938 5.29688 1.59375
C5.29688 0.1875 6.5 -1 8.09375 -1
C8.5 -1 9.59375 -0.796875 10.2031 -0.203125
C11.7969 1.28125 26.0938 18.6562 35.2031 29.3906
C37.7969 21.6094 41 12.4531 44.0938 4.07812
C44.5938 2.59375 45.0938 1.1875 46.5 -0.09375
C47.5 -1 47.7031 -1 50.5 -1
L52.4062 -1
C52.7969 -1 53.5 -1 53.5 -0.171875
C53.5 0.265625 53.4062 0.359375 53 0.78125
C52.0938 1.875 51.4062 3.65625 51 4.84375
z
" id="CMMI12-21"/>
      <path d="
M36.2969 68.4062
C35.7969 69.7031 35.5938 70 34.5938 70
C33.5938 70 33.4062 69.7031 32.9062 68.4062
L11.7031 8.84375
C9.79688 3.48438 5.79688 2.39062 2.29688 2.39062
L2.29688 -0.203125
C4.09375 0 8.09375 0 10 0
C12.5 0 16.5 0 18.9062 -0.203125
L18.9062 2.39062
C14.2031 2.39062 13.5 5.64062 13.5 6.85938
C13.5 7.76562 13.7031 8.28125 13.9062 8.89062
L19.2031 24
L45.4062 24
L51.4062 6.90625
C51.9062 5.70312 51.9062 5.5 51.9062 5.10938
C51.9062 2.39062 47.5938 2.39062 45.7031 2.39062
L45.7031 0
C48.5938 0 53.7969 0 56.9062 0
C59.5 0 64.5 0 66.9062 -0.203125
L66.9062 2.39062
C61.5938 2.39062 59.7969 2.39062 58.5 6.04688
z

M32.2969 60.5312
L44.5 26.5938
L20.0938 26.5938
z
" id="CMR17-65"/>
      <path d="
M14.2969 74.4844
L1.40625 74.4844
L1.40625 71
L10.7969 71
L10.7969 -21.5156
L1.40625 -21.5156
L1.40625 -25
L14.2969 -25
z
" id="CMR17-93"/>
      <path d="
M43.2969 61.8125
C43.2969 66.7969 39.2969 70.5938 34.5938 70.5938
C29.9062 70.5938 25.9062 66.7969 25.9062 61.8125
C25.9062 56.7969 29.9062 53 34.5938 53
C39.2969 53 43.2969 56.7969 43.2969 61.8125
M34.5938 54.5938
C30.4062 54.5938 27.7031 57.1875 27.7031 61.8125
C27.7031 66.5 30.5 69 34.5938 69
C38.7969 69 41.5 66.4062 41.5 61.8125
C41.5 57.0938 38.7031 54.5938 34.5938 54.5938" id="CMR17-23"/>
     </defs>
     <g transform="translate(114.930373708 415.335620816)scale(0.1 -0.1)">
      <use transform="scale(0.9962640099626402)" xlink:href="#CMMI12-21"/>
      <use transform="translate(86.98003823552305 0.0)scale(0.9962640099626402)" xlink:href="#CMR17-91"/>
      <use transform="translate(111.85109671738793 17.61874416251557)scale(0.9962640099626402)" xlink:href="#CMR17-23"/>
      <use transform="translate(111.85109671738793 0.0)scale(0.9962640099626402)" xlink:href="#CMR17-65"/>
      <use transform="translate(180.92352652163763 0.0)scale(0.9962640099626402)" xlink:href="#CMR17-93"/>
     </g>
    </g>
   </g>
   <g id="matplotlib.axis_8">
    <g id="ytick_14">
     <g id="line2d_67">
      <g>
       <use style="stroke:#000000;stroke-width:0.5;" x="45.36" xlink:href="#md7965d1ba0" y="374.70423803"/>
      </g>
     </g>
     <g id="line2d_68">
      <g>
       <use style="stroke:#000000;stroke-width:0.5;" x="206.64" xlink:href="#md9a1c1a7cd" y="374.70423803"/>
      </g>
     </g>
     <g id="text_23">
      <!-- $0.8$ -->
      <g transform="translate(28.6299210237 377.194898055)scale(0.1 -0.1)">
       <use transform="scale(0.9962640099626402)" xlink:href="#CMR17-48"/>
       <use transform="translate(45.69047711706103 0.0)scale(0.9962640099626402)" xlink:href="#CMMI12-58"/>
       <use transform="translate(72.78765420688046 0.0)scale(0.9962640099626402)" xlink:href="#CMR17-56"/>
      </g>
     </g>
    </g>
    <g id="ytick_15">
     <g id="line2d_69">
      <g>
       <use style="stroke:#000000;stroke-width:0.5;" x="45.36" xlink:href="#md7965d1ba0" y="355.909888736"/>
      </g>
     </g>
     <g id="line2d_70">
      <g>
       <use style="stroke:#000000;stroke-width:0.5;" x="206.64" xlink:href="#md9a1c1a7cd" y="355.909888736"/>
      </g>
     </g>
     <g id="text_24">
      <!-- $1.2$ -->
      <g transform="translate(28.6299210237 358.400548761)scale(0.1 -0.1)">
       <use transform="scale(0.9962640099626402)" xlink:href="#CMR17-49"/>
       <use transform="translate(45.69047711706103 0.0)scale(0.9962640099626402)" xlink:href="#CMMI12-58"/>
       <use transform="translate(72.78765420688046 0.0)scale(0.9962640099626402)" xlink:href="#CMR17-50"/>
      </g>
     </g>
    </g>
    <g id="ytick_16">
     <g id="line2d_71">
      <g>
       <use style="stroke:#000000;stroke-width:0.5;" x="45.36" xlink:href="#md7965d1ba0" y="337.115539442"/>
      </g>
     </g>
     <g id="line2d_72">
      <g>
       <use style="stroke:#000000;stroke-width:0.5;" x="206.64" xlink:href="#md9a1c1a7cd" y="337.115539442"/>
      </g>
     </g>
     <g id="text_25">
      <!-- $1.6$ -->
      <g transform="translate(28.6299210237 339.606199467)scale(0.1 -0.1)">
       <use transform="scale(0.9962640099626402)" xlink:href="#CMR17-49"/>
       <use transform="translate(45.69047711706103 0.0)scale(0.9962640099626402)" xlink:href="#CMMI12-58"/>
       <use transform="translate(72.78765420688046 0.0)scale(0.9962640099626402)" xlink:href="#CMR17-54"/>
      </g>
     </g>
    </g>
    <g id="ytick_17">
     <g id="line2d_73">
      <g>
       <use style="stroke:#000000;stroke-width:0.5;" x="45.36" xlink:href="#md7965d1ba0" y="318.321190149"/>
      </g>
     </g>
     <g id="line2d_74">
      <g>
       <use style="stroke:#000000;stroke-width:0.5;" x="206.64" xlink:href="#md9a1c1a7cd" y="318.321190149"/>
      </g>
     </g>
     <g id="text_26">
      <!-- $2.0$ -->
      <g transform="translate(28.6299210237 320.811850174)scale(0.1 -0.1)">
       <use transform="scale(0.9962640099626402)" xlink:href="#CMR17-50"/>
       <use transform="translate(45.69047711706103 0.0)scale(0.9962640099626402)" xlink:href="#CMMI12-58"/>
       <use transform="translate(72.78765420688046 0.0)scale(0.9962640099626402)" xlink:href="#CMR17-48"/>
      </g>
     </g>
    </g>
   </g>
   <g id="patch_18">
    <path d="
M45.36 388.8
L45.36 299.527" style="fill:none;stroke:#000000;"/>
   </g>
   <g id="patch_19">
    <path d="
M45.36 299.527
L206.64 299.527" style="fill:none;stroke:#000000;"/>
   </g>
   <g id="patch_20">
    <path d="
M45.36 388.8
L206.64 388.8" style="fill:none;stroke:#000000;"/>
   </g>
   <g id="patch_21">
    <path d="
M206.64 388.8
L206.64 299.527" style="fill:none;stroke:#000000;"/>
   </g>
   <g id="text_27">
    <!-- distorted model -->
    <g style="fill:#333333;" transform="translate(138.494993427 312.917814727)scale(0.09 -0.09)">
     <use transform="scale(0.9962640099626402)" xlink:href="#CMR17-100"/>
     <use transform="translate(50.89536978031601 0.0)scale(0.9962640099626402)" xlink:href="#CMR17-105"/>
     <use transform="translate(75.7664282621809 0.0)scale(0.9962640099626402)" xlink:href="#CMR17-115"/>
     <use transform="translate(111.56776589741595 0.0)scale(0.9962640099626402)" xlink:href="#CMR17-116"/>
     <use transform="translate(146.84853369687892 0.0)scale(0.9962640099626402)" xlink:href="#CMR17-111"/>
     <use transform="translate(192.53901081393994 0.0)scale(0.9962640099626402)" xlink:href="#CMR17-114"/>
     <use transform="translate(227.8197786134029 0.0)scale(0.9962640099626402)" xlink:href="#CMR17-116"/>
     <use transform="translate(263.10054641286587 0.0)scale(0.9962640099626402)" xlink:href="#CMR17-101"/>
     <use transform="translate(303.5862068755838 0.0)scale(0.9962640099626402)" xlink:href="#CMR17-100"/>
     <use transform="translate(384.55754300280205 0.0)scale(0.9962640099626402)" xlink:href="#CMR17-109"/>
     <use transform="translate(461.47713287087487 0.0)scale(0.9962640099626402)" xlink:href="#CMR17-111"/>
     <use transform="translate(509.77004871867223 0.0)scale(0.9962640099626402)" xlink:href="#CMR17-100"/>
     <use transform="translate(560.6654184989882 0.0)scale(0.9962640099626402)" xlink:href="#CMR17-101"/>
     <use transform="translate(601.1510789617062 0.0)scale(0.9962640099626402)" xlink:href="#CMR17-108"/>
    </g>
   </g>
  </g>
  <g id="text_28">
   <!-- $f_\lambda\, \times 10^{-13}\,[\textrm{erg}\;\textrm{cm}^{-2}\;\textrm{s}^{-1}\;\textrm{\AA}^{-1}]$ -->
   <defs>
    <path d="
M44.5938 40.0938
C46.5938 40.0938 47.4062 40.0938 47.4062 42
C47.4062 43 46.5938 43 44.7969 43
L36.7031 43
C38.5938 53.5781 40 60.8906 40.7969 64.1719
C41.4062 66.6406 43.5 69 46.0938 69
C48.2031 69 50.2969 68.0938 51.2969 67.1562
C47.4062 66.75 46.2031 63.7812 46.2031 62.0156
C46.2031 59.9531 47.7031 58.7344 49.5938 58.7344
C51.5938 58.7344 54.5938 60.4688 54.5938 64.3594
C54.5938 68.6406 50.4062 71 46 71
C41.7031 71 37.5 67.7188 35.5 63.7188
C33.7031 60.125 32.7031 56.4375 30.4062 43
L23.7031 43
C21.7969 43 20.7969 43 20.7969 41.2031
C20.7969 40.0938 21.4062 40.0938 23.4062 40.0938
L29.7969 40.0938
C28 30.875 23.9062 8.46875 21.5938 -2.14062
C19.9062 -10.7656 18.4062 -18 13.4062 -18
C13.0938 -18 10.2031 -18 8.40625 -16.1094
C13.5 -15.7031 13.5 -11.3438 13.5 -11.25
C13.5 -9.26562 12 -8.07812 10.0938 -8.07812
C8.09375 -8.07812 5.09375 -9.76562 5.09375 -13.5469
C5.09375 -17.8125 9.5 -20 13.4062 -20
C23.5938 -20 27.7969 -1.84375 28.9062 3.10938
C30.7031 10.75 35.5938 37.125 36.0938 40.0938
z
" id="CMMI12-102"/>
    <path d="
M38.9062 27.8906
L18.9062 47.7969
C17.7031 49 17.5 49.1875 16.7031 49.1875
C15.7031 49.1875 14.7031 48.2969 14.7031 47.1875
C14.7031 46.5 14.9062 46.2969 16 45.1875
L36 25.0938
L16 5
C14.9062 3.89062 14.7031 3.6875 14.7031 3
C14.7031 1.89062 15.7031 1 16.7031 1
C17.5 1 17.7031 1.1875 18.9062 2.39062
L38.7969 22.2969
L59.5 1.59375
C59.7031 1.5 60.4062 1 61 1
C62.2031 1 63 1.89062 63 3
C63 3.1875 63 3.59375 62.7031 4.09375
C62.5938 4.29688 46.7031 20 41.7031 25.0938
L60 43.3906
C60.5 44 62 45.2969 62.5 45.8906
C62.5938 46.0938 63 46.5 63 47.1875
C63 48.2969 62.2031 49.1875 61 49.1875
C60.2031 49.1875 59.7969 48.7969 58.7031 47.6875
z
" id="CMSY10-2"/>
    <path d="
M65.9062 23
C67.5938 23 69.4062 23 69.4062 25
C69.4062 27 67.5938 27 65.9062 27
L11.7969 27
C10.0938 27 8.29688 27 8.29688 25
C8.29688 23 10.0938 23 11.7969 23
z
" id="CMSY10-0"/>
    <path d="
M11.0938 18.1875
C13 16.6875 16.2969 15 20.2969 15
C28.2031 15 35 21.2031 35 29.5
C35 32.0938 34.2031 36.0938 31.2031 39.2031
C34 42.0625 38.0938 43 40.4062 43
C40.7969 43 41.4062 43 41.9062 42.7656
C41.5 42.6719 40.5938 42.2812 40.5938 40.7344
C40.5938 39.4844 41.5 38.6094 42.7969 38.6094
C44.2969 38.6094 45.0938 39.5781 45.0938 40.8438
C45.0938 42.6719 43.5938 44.5938 40.4062 44.5938
C36.4062 44.5938 32.9062 42.7812 30.0938 40.3125
C27.0938 43.0156 23.5 44 20.2969 44
C12.4062 44 5.59375 37.7969 5.59375 29.5
C5.59375 23.7812 8.90625 20.1875 9.90625 19.1875
C6.90625 15.6875 6.90625 11.6094 6.90625 11.1094
C6.90625 8.51562 7.90625 4.71875 11.2969 2.625
C6.09375 1.32812 2 -2.64062 2 -7.59375
C2 -14.7344 11.5 -20 22.9062 -20
C33.9062 -20 43.7969 -14.9375 43.7969 -7.48438
C43.7969 6 29 6 21.2969 6
C19 6 14.9062 6 14.4062 6.10938
C11.2969 6.60938 9.20312 9.40625 9.20312 12.8906
C9.20312 13.7812 9.20312 16 11.0938 18.1875
M20.2969 16.6875
C11.5 16.6875 11.5 27.5 11.5 29.5156
C11.5 31.5 11.5 42.3125 20.2969 42.3125
C29.0938 42.3125 29.0938 31.5 29.0938 29.5156
C29.0938 27.5 29.0938 16.6875 20.2969 16.6875
M22.9062 -18.2969
C12.9062 -18.2969 6 -13.0469 6 -7.59375
C6 -4.51562 7.70312 -1.64062 9.90625 -0.0625
C12.4062 1.625 13.4062 1.625 20.2031 1.625
C28.4062 1.625 39.7969 1.625 39.7969 -7.59375
C39.7969 -13.0469 32.9062 -18.2969 22.9062 -18.2969" id="CMR17-103"/>
   </defs>
   <g transform="translate(18.8247183657 316.731448718)rotate(-90.0)scale(0.1 -0.1)">
    <use transform="translate(0.0 14.943914544092468)scale(0.9962640099626402)" xlink:href="#CMMI12-102"/>
    <use transform="translate(48.083237663449566 0.0)scale(0.6973817666173724)" xlink:href="#CMMI12-21"/>
    <use transform="translate(127.15764978012143 14.943914544092468)scale(0.9962640099626402)" xlink:href="#CMSY10-2"/>
    <use transform="translate(226.78432440846828 14.943914544092468)scale(0.9962640099626402)" xlink:href="#CMR17-49"/>
    <use transform="translate(272.4748015255293 14.943914544092468)scale(0.9962640099626402)" xlink:href="#CMR17-48"/>
    <use transform="translate(318.1652786425903 51.097553485951124)scale(0.6973817666173724)" xlink:href="#CMSY10-0"/>
    <use transform="translate(372.40627189056664 51.097553485951124)scale(0.6973817666173724)" xlink:href="#CMR17-49"/>
    <use transform="translate(404.3894538546856 51.097553485951124)scale(0.6973817666173724)" xlink:href="#CMR17-51"/>
    <use transform="translate(453.4751730570906 14.943914544092468)scale(0.9962640099626402)" xlink:href="#CMR17-91"/>
    <use transform="translate(478.3462315389555 14.943914544092468)scale(0.9962640099626402)" xlink:href="#CMR17-101"/>
    <use transform="translate(518.8318920016735 14.943914544092468)scale(0.9962640099626402)" xlink:href="#CMR17-114"/>
    <use transform="translate(554.1126598011364 14.943914544092468)scale(0.9962640099626402)" xlink:href="#CMR17-103"/>
    <use transform="translate(627.4771456403721 14.943914544092468)scale(0.9962640099626402)" xlink:href="#CMR17-99"/>
    <use transform="translate(667.9628061030901 14.943914544092468)scale(0.9962640099626402)" xlink:href="#CMR17-109"/>
    <use transform="translate(744.8823959711629 51.097553485951124)scale(0.6973817666173724)" xlink:href="#CMSY10-0"/>
    <use transform="translate(799.1233892191392 51.097553485951124)scale(0.6973817666173724)" xlink:href="#CMR17-50"/>
    <use transform="translate(859.2787119104141 14.943914544092468)scale(0.9962640099626402)" xlink:href="#CMR17-115"/>
    <use transform="translate(895.0800495456492 51.097553485951124)scale(0.6973817666173724)" xlink:href="#CMSY10-0"/>
    <use transform="translate(949.3210427936256 51.097553485951124)scale(0.6973817666173724)" xlink:href="#CMR17-49"/>
    <use transform="translate(1009.4763654849005 32.56265870660803)scale(0.9962640099626402)" xlink:href="#CMR17-23"/>
    <use transform="translate(1009.4763654849005 14.943914544092468)scale(0.9962640099626402)" xlink:href="#CMR17-65"/>
    <use transform="translate(1078.5487952891501 74.82118143388077)scale(0.6973817666173724)" xlink:href="#CMSY10-0"/>
    <use transform="translate(1132.7897885371265 74.82118143388077)scale(0.6973817666173724)" xlink:href="#CMR17-49"/>
    <use transform="translate(1165.2711025062267 14.943914544092468)scale(0.9962640099626402)" xlink:href="#CMR17-93"/>
   </g>
  </g>
 </g>
 <defs>
  <clipPath id="p67aaec8300">
   <rect height="89.2731591449" width="161.28" x="45.36" y="12.96"/>
  </clipPath>
  <clipPath id="pa31f7220d0">
   <rect height="89.2731591449" width="161.28" x="45.36" y="108.482280285"/>
  </clipPath>
  <clipPath id="pbd9f2e0360">
   <rect height="89.2731591449" width="161.28" x="45.36" y="204.00456057"/>
  </clipPath>
  <clipPath id="p708a9dad1d">
   <rect height="89.2731591449" width="161.28" x="45.36" y="299.526840855"/>
  </clipPath>
 </defs>
</svg>
