<?xml version="1.0" encoding="utf-8" standalone="no"?>
<!DOCTYPE svg PUBLIC "-//W3C//DTD SVG 1.1//EN"
  "http://www.w3.org/Graphics/SVG/1.1/DTD/svg11.dtd">
<!-- Created with matplotlib (http://matplotlib.org/) -->
<svg height="432pt" version="1.1" viewBox="0 0 252 432" width="252pt" xmlns="http://www.w3.org/2000/svg" xmlns:xlink="http://www.w3.org/1999/xlink">
 <defs>
  <style type="text/css">
*{stroke-linecap:butt;stroke-linejoin:round;}
  </style>
 </defs>
 <g id="figure_1">
  <g id="patch_1">
   <path d="
M0 432
L252 432
L252 0
L0 0
z
" style="fill:#ffffff;"/>
  </g>
  <g id="axes_1">
   <g id="patch_2">
    <path d="
M50.4 116.64
L226.8 116.64
L226.8 25.92
L50.4 25.92
z
" style="fill:#ffffff;"/>
   </g>
   <g id="line2d_1">
    <path clip-path="url(#p25804d97c3)" d="
M49.6686 45.5545
L50.6954 47.2667
L51.7221 43.8997
L52.7487 47.6642
L53.7752 43.9587
L54.8016 45.6736
L55.828 44.1759
L56.8543 46.2173
L57.8804 42.3176
L58.9065 43.5549
L59.9325 47.1015
L60.9585 42.7281
L61.9843 45.0728
L63.0101 43.6025
L64.0358 46.2411
L65.0613 47.9462
L66.0868 52.6504
L67.1123 58.5444
L68.1376 66.5765
L69.1628 76.0533
L70.188 73.9033
L71.2131 70.0004
L73.263 50.626
L74.2878 50.0816
L75.3125 46.9451
L76.3372 48.5155
L77.3618 48.7063
L78.3862 49.6043
L79.4106 47.5439
L80.4349 48.9349
L81.4592 46.8594
L82.4833 47.0706
L83.5074 44.8355
L84.5313 46.8616
L85.5552 46.2761
L86.579 46.8784
L87.6027 46.9199
L88.6264 46.8011
L89.6499 47.3893
L90.6734 46.6267
L91.6967 45.3237
L92.72 46.9269
L93.7432 46.4954
L94.7663 48.063
L95.7894 44.0214
L96.8123 45.9782
L98.858 43.5592
L99.8806 46.0093
L100.903 47.1392
L101.926 47.0745
L102.948 45.9239
L103.971 48.4948
L104.993 44.6884
L106.015 45.6833
L107.037 45.0019
L108.059 46.9485
L109.081 42.9349
L110.103 46.0648
L111.125 46.3707
L112.146 44.411
L113.168 46.2091
L114.189 46.3176
L115.211 45.9455
L116.232 45.0461
L117.253 45.4225
L118.274 46.3789
L119.296 45.7467
L120.317 46.8118
L121.337 44.5791
L122.358 43.1414
L123.379 44.287
L124.4 45.171
L125.42 46.4809
L126.441 45.3894
L127.461 44.6464
L128.481 46.5032
L129.502 46.0663
L130.522 46.1328
L131.542 46.9452
L132.562 47.4292
L133.582 49.5341
L134.601 49.4344
L135.621 51.7139
L136.641 53.6554
L137.66 52.4285
L138.68 49.99
L139.699 52.8112
L140.718 49.5218
L141.738 53.391
L142.757 53.0356
L143.776 58.8029
L144.795 66.079
L145.813 78.6753
L146.832 88.2032
L147.851 88.5948
L148.869 81.9844
L150.906 63.6253
L151.925 55.8659
L152.943 51.0002
L153.961 51.9468
L154.979 48.8989
L155.997 47.6594
L157.015 48.8226
L158.033 49.0474
L159.051 48.8645
L160.068 45.53
L161.086 44.9658
L162.103 49.0821
L163.121 49.6259
L164.138 44.0346
L165.155 45.7842
L166.172 45.6918
L167.19 46.1587
L168.207 46.7907
L169.223 44.4522
L170.24 47.4803
L171.257 45.6478
L172.274 47.7641
L173.29 48.1724
L174.307 46.4816
L175.323 48.2668
L176.339 44.7411
L177.355 47.6536
L178.372 45.1885
L179.388 47.8831
L180.403 45.7389
L181.419 44.7191
L183.451 48.1762
L184.466 46.4361
L185.482 49.7724
L186.497 53.9259
L187.513 59.3275
L188.528 72.3382
L189.543 80.6549
L190.558 80.1632
L191.573 75.0522
L192.588 62.3353
L193.603 52.4462
L194.618 48.5779
L195.632 45.8846
L196.647 50.2958
L197.661 48.4614
L198.676 45.1768
L199.69 45.7758
L200.704 45.0596
L201.719 50.0977
L202.733 50.5369
L203.747 49.7601
L204.76 47.6999
L206.788 54.955
L207.802 56.6178
L208.815 65.1212
L209.829 63.6073
L210.842 57.0228
L211.855 59.0014
L212.869 51.9061
L213.882 49.9807
L214.895 46.7921
L216.92 46.2081
L218.946 44.4149
L219.959 47.9567
L220.971 45.4325
L221.984 44.9347
L222.996 46.9577
L224.008 44.0428
L225.02 44.5636
L225.02 44.5636" style="fill:none;stroke:#008000;stroke-linecap:square;stroke-width:0.75;"/>
   </g>
   <g id="line2d_2">
    <path clip-path="url(#p25804d97c3)" d="
M49.6322 43.2478
L50.8257 46.1771
L52.019 42.6372
L53.2123 43.4589
L54.4055 43.1007
L55.5986 44.8959
L56.7916 44.9381
L57.9845 45.3564
L59.1774 44.406
L60.3702 43.9975
L61.5629 44.4076
L62.7555 43.9621
L63.948 44.5263
L66.3329 48.7729
L67.5252 60.2103
L68.7174 69.1775
L69.9096 73.3784
L71.1016 67.5257
L72.2936 57.2333
L73.4855 51.1323
L74.6773 47.0582
L75.8691 44.2674
L77.0607 43.997
L78.2523 44.9327
L79.4438 44.9509
L80.6353 44.1762
L81.8266 44.2604
L83.0179 45.333
L84.209 43.8855
L85.4001 43.1044
L86.5912 44.9963
L87.7821 44.2695
L88.973 45.4655
L90.1638 46.1761
L91.3545 45.4837
L92.5451 45.3591
L93.7356 42.6492
L96.1165 43.7838
L97.3068 43.6368
L98.497 45.0621
L99.6871 43.5535
L100.877 43.3419
L102.067 44.9517
L103.257 40.8554
L104.447 42.5987
L105.637 43.1833
L106.826 43.3946
L108.016 43.1267
L109.205 46.0036
L110.395 42.613
L111.584 43.0471
L112.773 45.376
L113.963 43.1921
L115.152 43.337
L116.341 41.2131
L117.53 43.3049
L118.719 44.7828
L119.907 43.7545
L121.096 44.8075
L122.285 43.622
L124.662 43.9437
L125.85 42.7012
L127.038 45.0699
L128.227 43.5752
L129.415 42.8608
L130.603 43.305
L131.791 45.6998
L132.979 45.6368
L134.166 48.6729
L135.354 50.0632
L136.542 50.1184
L138.917 48.5051
L140.104 49.1664
L141.292 46.6448
L142.479 50.2559
L143.666 56.3857
L144.853 66.6228
L146.04 79.0388
L147.227 87.9971
L148.414 84.7695
L149.601 75.38
L150.787 63.0718
L151.974 53.1854
L153.161 48.6616
L154.347 47.2576
L155.533 42.7725
L156.72 43.4754
L157.906 47.7337
L159.092 44.4724
L160.278 45.7579
L161.464 45.4035
L162.65 42.8912
L163.836 42.7542
L165.021 46.3665
L166.207 43.6025
L167.393 43.7402
L168.578 43.4987
L169.764 42.9869
L170.949 44.1229
L172.134 46.4934
L173.319 43.0984
L174.504 42.8574
L175.689 44.3789
L176.874 41.6258
L178.059 44.0636
L179.244 45.075
L180.429 43.8693
L181.613 44.9814
L182.798 45.0137
L183.982 43.1523
L185.167 46.2609
L186.351 48.428
L187.535 60.156
L188.719 70.6722
L189.903 77.2277
L191.087 72.593
L192.271 61.3517
L193.455 53.1803
L194.639 47.8223
L195.822 45.1292
L197.006 43.9549
L198.189 45.6183
L199.373 43.6426
L200.556 43.1461
L201.739 43.5308
L202.922 46.201
L204.106 46.7069
L205.289 46.0958
L206.471 50.4155
L207.654 57.3718
L208.837 61.3734
L210.02 61.4737
L211.202 55.0446
L212.385 52.5605
L213.567 49.5276
L214.75 43.8724
L215.932 44.2063
L218.296 43.8143
L220.66 42.7435
L221.842 42.8278
L223.024 43.3139
L224.206 45.0784
L225.387 44.3538
L227.75 46.4056
L227.75 46.4056" style="fill:none;stroke:#bf00bf;stroke-linecap:square;stroke-width:0.75;"/>
   </g>
   <g id="matplotlib.axis_1">
    <g id="xtick_1">
     <g id="line2d_3">
      <defs>
       <path d="
M0 0
L0 -4" id="mc7db9fdffb" style="stroke:#000000;stroke-width:0.5;"/>
      </defs>
      <g>
       <use style="stroke:#000000;stroke-width:0.5;" x="75.6" xlink:href="#mc7db9fdffb" y="116.64"/>
      </g>
     </g>
     <g id="line2d_4">
      <defs>
       <path d="
M0 0
L0 4" id="m5a7d422ac3" style="stroke:#000000;stroke-width:0.5;"/>
      </defs>
      <g>
       <use style="stroke:#000000;stroke-width:0.5;" x="75.6" xlink:href="#m5a7d422ac3" y="25.92"/>
      </g>
     </g>
    </g>
    <g id="xtick_2">
     <g id="line2d_5">
      <g>
       <use style="stroke:#000000;stroke-width:0.5;" x="126.0" xlink:href="#mc7db9fdffb" y="116.64"/>
      </g>
     </g>
     <g id="line2d_6">
      <g>
       <use style="stroke:#000000;stroke-width:0.5;" x="126.0" xlink:href="#m5a7d422ac3" y="25.92"/>
      </g>
     </g>
    </g>
    <g id="xtick_3">
     <g id="line2d_7">
      <g>
       <use style="stroke:#000000;stroke-width:0.5;" x="176.4" xlink:href="#mc7db9fdffb" y="116.64"/>
      </g>
     </g>
     <g id="line2d_8">
      <g>
       <use style="stroke:#000000;stroke-width:0.5;" x="176.4" xlink:href="#m5a7d422ac3" y="25.92"/>
      </g>
     </g>
    </g>
    <g id="xtick_4">
     <g id="line2d_9">
      <g>
       <use style="stroke:#000000;stroke-width:0.5;" x="226.8" xlink:href="#mc7db9fdffb" y="116.64"/>
      </g>
     </g>
     <g id="line2d_10">
      <g>
       <use style="stroke:#000000;stroke-width:0.5;" x="226.8" xlink:href="#m5a7d422ac3" y="25.92"/>
      </g>
     </g>
    </g>
   </g>
   <g id="matplotlib.axis_2">
    <g id="ytick_1">
     <g id="line2d_11">
      <defs>
       <path d="
M0 0
L4 0" id="md7965d1ba0" style="stroke:#000000;stroke-width:0.5;"/>
      </defs>
      <g>
       <use style="stroke:#000000;stroke-width:0.5;" x="50.4" xlink:href="#md7965d1ba0" y="102.1248"/>
      </g>
     </g>
     <g id="line2d_12">
      <defs>
       <path d="
M0 0
L-4 0" id="md9a1c1a7cd" style="stroke:#000000;stroke-width:0.5;"/>
      </defs>
      <g>
       <use style="stroke:#000000;stroke-width:0.5;" x="226.8" xlink:href="#md9a1c1a7cd" y="102.1248"/>
      </g>
     </g>
     <g id="text_1">
      <!-- $0.4$ -->
      <defs>
       <path d="
M42 31.6406
C42 37.75 41.9062 48.125 37.7031 56.1094
C34 63.1094 28.0938 65.5938 22.9062 65.5938
C18.0938 65.5938 12 63.4062 8.20312 56.2031
C4.20312 48.7188 3.79688 39.4375 3.79688 31.6406
C3.79688 25.9531 3.90625 17.2812 7 9.67188
C11.2969 -0.609375 19 -2 22.9062 -2
C27.5 -2 34.5 -0.109375 38.5938 9.375
C41.5938 16.2812 42 24.3594 42 31.6406
M22.9062 -0.40625
C16.5 -0.40625 12.7031 5.07812 11.2969 12.6875
C10.2031 18.5625 10.2031 27.1562 10.2031 32.75
C10.2031 40.4375 10.2031 46.8281 11.5 52.9219
C13.4062 61.3906 19 64 22.9062 64
C27 64 32.2969 61.2969 34.2031 53.125
C35.5 47.4375 35.5938 40.7344 35.5938 32.75
C35.5938 26.25 35.5938 18.2656 34.4062 12.375
C32.2969 1.48438 26.4062 -0.40625 22.9062 -0.40625" id="CMR17-48"/>
       <path d="
M33.5938 64.3281
C33.5938 66.4062 33.5 66.5 31.7031 66.5
L2 19.5938
L2 17
L27.7969 17
L27.7969 7.14062
C27.7969 3.5 27.5938 2.5 20.5938 2.5
L18.7031 2.5
L18.7031 0
C21.9062 0 27.2969 0 30.7031 0
C34.0938 0 39.5 0 42.7031 0
L42.7031 2.5
L40.7969 2.5
C33.7969 2.5 33.5938 3.5 33.5938 7.14062
L33.5938 17
L43.7969 17
L43.7969 19.5938
L33.5938 19.5938
z

M28.0938 57.7656
L28.0938 19.5938
L4 19.5938
z
" id="CMR17-52"/>
       <path d="
M18.4062 4.79688
C18.4062 7.6875 16 9.67188 13.5938 9.67188
C10.7031 9.67188 8.70312 7.28125 8.70312 4.89062
C8.70312 2 11.0938 0 13.5 0
C16.4062 0 18.4062 2.39062 18.4062 4.79688" id="CMMI12-58"/>
      </defs>
      <g transform="translate(33.6699210237 104.615460025)scale(0.1 -0.1)">
       <use transform="scale(0.9962640099626402)" xlink:href="#CMR17-48"/>
       <use transform="translate(45.69047711706103 0.0)scale(0.9962640099626402)" xlink:href="#CMMI12-58"/>
       <use transform="translate(72.78765420688046 0.0)scale(0.9962640099626402)" xlink:href="#CMR17-52"/>
      </g>
     </g>
    </g>
    <g id="ytick_2">
     <g id="line2d_13">
      <g>
       <use style="stroke:#000000;stroke-width:0.5;" x="50.4" xlink:href="#md7965d1ba0" y="87.6096"/>
      </g>
     </g>
     <g id="line2d_14">
      <g>
       <use style="stroke:#000000;stroke-width:0.5;" x="226.8" xlink:href="#md9a1c1a7cd" y="87.6096"/>
      </g>
     </g>
     <g id="text_2">
      <!-- $0.8$ -->
      <defs>
       <path d="
M27.2031 35.375
C33.5 38.5625 39.9062 43.3281 39.9062 50.9844
C39.9062 60.0312 31.0938 65.2969 23 65.2969
C13.9062 65.2969 5.90625 58.7344 5.90625 49.6875
C5.90625 47.2031 6.5 42.9219 10.4062 39.1406
C11.4062 38.1562 15.5938 35.1719 18.2969 33.2812
C13.7969 30.9844 3.29688 25.5312 3.29688 14.5938
C3.29688 4.35938 13.0938 -2 22.7969 -2
C33.5 -2 42.5 5.65625 42.5 15.7969
C42.5 24.8438 36.4062 29.0312 32.4062 31.7031
z

M14.0938 44.125
C13.2969 44.625 9.29688 47.7031 9.29688 52.375
C9.29688 58.4375 15.5938 63 22.7969 63
C30.7031 63 36.5 57.4531 36.5 50.9844
C36.5 41.7344 26.0938 36.4688 25.5938 36.4688
C25.5 36.4688 25.4062 36.4688 24.5938 37.0781
z

M32.5 23.7344
C34 22.6406 38.7969 19.375 38.7969 13.2969
C38.7969 5.95312 31.4062 0.390625 23 0.390625
C13.9062 0.390625 7 6.84375 7 14.6875
C7 22.5469 13.0938 29.0938 20 32.1875
z
" id="CMR17-56"/>
      </defs>
      <g transform="translate(33.6699210237 90.1002600249)scale(0.1 -0.1)">
       <use transform="scale(0.9962640099626402)" xlink:href="#CMR17-48"/>
       <use transform="translate(45.69047711706103 0.0)scale(0.9962640099626402)" xlink:href="#CMMI12-58"/>
       <use transform="translate(72.78765420688046 0.0)scale(0.9962640099626402)" xlink:href="#CMR17-56"/>
      </g>
     </g>
    </g>
    <g id="ytick_3">
     <g id="line2d_15">
      <g>
       <use style="stroke:#000000;stroke-width:0.5;" x="50.4" xlink:href="#md7965d1ba0" y="73.0944"/>
      </g>
     </g>
     <g id="line2d_16">
      <g>
       <use style="stroke:#000000;stroke-width:0.5;" x="226.8" xlink:href="#md9a1c1a7cd" y="73.0944"/>
      </g>
     </g>
     <g id="text_3">
      <!-- $1.2$ -->
      <defs>
       <path d="
M41.7031 15.4531
L39.9062 15.4531
C38.9062 8.375 38.0938 7.17188 37.7031 6.5625
C37.2031 5.76562 30 5.76562 28.5938 5.76562
L9.40625 5.76562
C13 9.67188 20 16.75 28.5 24.9531
C34.5938 30.7344 41.7031 37.5312 41.7031 47.4219
C41.7031 59.2188 32.2969 66 21.7969 66
C10.7969 66 4.09375 56.3125 4.09375 47.3438
C4.09375 43.4375 7 42.9375 8.20312 42.9375
C9.20312 42.9375 12.2031 43.5469 12.2031 47.0312
C12.2031 50.1094 9.59375 51 8.20312 51
C7.59375 51 7 50.9062 6.59375 50.7031
C8.5 59.2188 14.2969 63.4062 20.4062 63.4062
C29.0938 63.4062 34.7969 56.5156 34.7969 47.4219
C34.7969 38.7344 29.7031 31.25 24 24.75
L4.09375 2.28125
L4.09375 0
L39.2969 0
z
" id="CMR17-50"/>
       <path d="
M26.5938 63.3125
C26.5938 65.4062 26.5 65.5 25.0938 65.5
C21.2031 61.1875 15.2969 59.7969 9.70312 59.7969
C9.40625 59.7969 8.90625 59.7969 8.79688 59.6094
C8.70312 59.3906 8.70312 59.1719 8.70312 57
C11.7969 57 17 57.5938 21 59.9844
L21 7.20312
C21 3.6875 20.7969 2.5 12.2031 2.5
L9.20312 2.5
L9.20312 0
C14 0 19 0 23.7969 0
C28.5938 0 33.5938 0 38.4062 0
L38.4062 2.5
L35.4062 2.5
C26.7969 2.5 26.5938 3.59375 26.5938 7.15625
z
" id="CMR17-49"/>
      </defs>
      <g transform="translate(33.6699210237 75.5850600249)scale(0.1 -0.1)">
       <use transform="scale(0.9962640099626402)" xlink:href="#CMR17-49"/>
       <use transform="translate(45.69047711706103 0.0)scale(0.9962640099626402)" xlink:href="#CMMI12-58"/>
       <use transform="translate(72.78765420688046 0.0)scale(0.9962640099626402)" xlink:href="#CMR17-50"/>
      </g>
     </g>
    </g>
    <g id="ytick_4">
     <g id="line2d_17">
      <g>
       <use style="stroke:#000000;stroke-width:0.5;" x="50.4" xlink:href="#md7965d1ba0" y="58.5792"/>
      </g>
     </g>
     <g id="line2d_18">
      <g>
       <use style="stroke:#000000;stroke-width:0.5;" x="226.8" xlink:href="#md9a1c1a7cd" y="58.5792"/>
      </g>
     </g>
     <g id="text_4">
      <!-- $1.6$ -->
      <defs>
       <path d="
M10.5938 34
C10.5938 57.6562 21.7969 63 28.2969 63
C30.4062 63 35.5 62.6406 37.5 59
C35.9062 59 32.9062 59 32.9062 55.5156
C32.9062 52.8281 35.0938 51.9219 36.5 51.9219
C37.4062 51.9219 40.0938 52.3125 40.0938 55.625
C40.0938 61.7812 35.0938 65.2969 28.2031 65.2969
C16.2969 65.2969 3.79688 52.9688 3.79688 31
C3.79688 3.95312 15.0938 -2 23.0938 -2
C32.7969 -2 42 6.67188 42 20.0469
C42 32.5156 33.9062 41.5938 23.7031 41.5938
C17.5938 41.5938 13.0938 37.6094 10.5938 30.625
z

M23.0938 0.390625
C10.7969 0.390625 10.7969 18.75 10.7969 22.4375
C10.7969 29.625 14.2031 40 23.5 40
C25.2031 40 30.0938 40 33.4062 33.125
C35.2031 29.2188 35.2031 25.1406 35.2031 20.1406
C35.2031 14.75 35.2031 10.7812 33.0938 6.78125
C30.9062 2.67188 27.7031 0.390625 23.0938 0.390625" id="CMR17-54"/>
      </defs>
      <g transform="translate(33.6699210237 61.0698600249)scale(0.1 -0.1)">
       <use transform="scale(0.9962640099626402)" xlink:href="#CMR17-49"/>
       <use transform="translate(45.69047711706103 0.0)scale(0.9962640099626402)" xlink:href="#CMMI12-58"/>
       <use transform="translate(72.78765420688046 0.0)scale(0.9962640099626402)" xlink:href="#CMR17-54"/>
      </g>
     </g>
    </g>
    <g id="ytick_5">
     <g id="line2d_19">
      <g>
       <use style="stroke:#000000;stroke-width:0.5;" x="50.4" xlink:href="#md7965d1ba0" y="44.064"/>
      </g>
     </g>
     <g id="line2d_20">
      <g>
       <use style="stroke:#000000;stroke-width:0.5;" x="226.8" xlink:href="#md9a1c1a7cd" y="44.064"/>
      </g>
     </g>
     <g id="text_5">
      <!-- $2.0$ -->
      <g transform="translate(33.6699210237 46.5546600249)scale(0.1 -0.1)">
       <use transform="scale(0.9962640099626402)" xlink:href="#CMR17-50"/>
       <use transform="translate(45.69047711706103 0.0)scale(0.9962640099626402)" xlink:href="#CMMI12-58"/>
       <use transform="translate(72.78765420688046 0.0)scale(0.9962640099626402)" xlink:href="#CMR17-48"/>
      </g>
     </g>
    </g>
    <g id="ytick_6">
     <g id="line2d_21">
      <g>
       <use style="stroke:#000000;stroke-width:0.5;" x="50.4" xlink:href="#md7965d1ba0" y="29.5488"/>
      </g>
     </g>
     <g id="line2d_22">
      <g>
       <use style="stroke:#000000;stroke-width:0.5;" x="226.8" xlink:href="#md9a1c1a7cd" y="29.5488"/>
      </g>
     </g>
     <g id="text_6">
      <!-- $2.4$ -->
      <g transform="translate(33.6699210237 32.0394600249)scale(0.1 -0.1)">
       <use transform="scale(0.9962640099626402)" xlink:href="#CMR17-50"/>
       <use transform="translate(45.69047711706103 0.0)scale(0.9962640099626402)" xlink:href="#CMMI12-58"/>
       <use transform="translate(72.78765420688046 0.0)scale(0.9962640099626402)" xlink:href="#CMR17-52"/>
      </g>
     </g>
    </g>
    <g id="text_7">
     <!-- $f_\lambda \quad [\textrm{erg}\;\textrm{cm}^{-2}\;\textrm{s}^{-1}\;\textrm{\AA}^{-1}]$ -->
     <defs>
      <path d="
M34.9062 35
C33 35 30.2031 35 30.2031 31.5156
C30.2031 28.7188 32.5 27.9219 33.7969 27.9219
C34.5 27.9219 37.4062 28.2344 37.4062 31.625
C37.4062 38.5469 30.5938 43.7969 22.9062 43.7969
C12.2969 43.7969 3.29688 34.0312 3.29688 21.2969
C3.29688 8.0625 12.7031 -1 22.9062 -1
C35.2969 -1 38.4062 10.5938 38.4062 11.6875
C38.4062 12.0938 38.2969 12.3906 37.5938 12.3906
C36.9062 12.3906 36.7969 12.2969 36.4062 10.9844
C33.7969 2.8125 28.0938 0.796875 23.7969 0.796875
C17.4062 0.796875 9.70312 6.67188 9.70312 21.3906
C9.70312 36.5312 17.0938 42 23 42
C26.9062 42 32.7031 40.2031 34.9062 35" id="CMR17-99"/>
      <path d="
M15 23.3906
C15 33 19.0938 42 26.5938 42
C27.2969 42 28 41.9062 28.7031 41.5938
C28.7031 41.5938 26.5 40.8906 26.5 38.3125
C26.5 35.9062 28.4062 34.9062 29.9062 34.9062
C31.0938 34.9062 33.2969 35.6094 33.2969 38.4062
C33.2969 41.6094 30.0938 43.5938 26.7031 43.5938
C19.0938 43.5938 15.7969 36.2031 14.7969 32.7031
L14.7031 32.7031
L14.7031 43.5938
L3.09375 42.5
L3.09375 39.9062
C9 39.9062 9.90625 39.2969 9.90625 34.5
L9.90625 6.6875
C9.90625 2.875 9.5 2.39062 3.09375 2.39062
L3.09375 -0.203125
C5.5 0 10.0938 0 12.7031 0
C15.5938 0 20.7031 0 23.4062 -0.203125
L23.4062 2.39062
C16.2031 2.39062 15 2.39062 15 6.875
z
" id="CMR17-114"/>
      <path d="
M14.2969 74.4844
L1.40625 74.4844
L1.40625 71
L10.7969 71
L10.7969 -21.5156
L1.40625 -21.5156
L1.40625 -25
L14.2969 -25
z
" id="CMR17-93"/>
      <path d="
M67.5938 30.2031
C67.5938 35.1875 66.7031 43.5938 54.7969 43.5938
C48 43.5938 43.2969 39 41.5 33.5938
L41.4062 33.5938
C40.2031 41.7969 34.2969 43.5938 28.7031 43.5938
C20.7969 43.5938 16.7031 37.5625 15.2031 33.5938
L15.0938 33.5938
L15.0938 43.5938
L3.29688 42.5
L3.29688 39.9062
C9.20312 39.9062 10.0938 39.2969 10.0938 34.5
L10.0938 6.6875
C10.0938 2.875 9.70312 2.39062 3.29688 2.39062
L3.29688 -0.203125
C5.70312 0 10.0938 0 12.7031 0
C15.2969 0 19.7969 0 22.2031 -0.203125
L22.2031 2.39062
C15.7969 2.39062 15.4062 2.78125 15.4062 6.6875
L15.4062 25.9062
C15.4062 35.1094 21 42 28 42
C35.4062 42 36.2031 35.4062 36.2031 30.5938
L36.2031 6.6875
C36.2031 2.875 35.7969 2.39062 29.4062 2.39062
L29.4062 -0.203125
C31.7969 0 36.2031 0 38.7969 0
C41.4062 0 45.9062 0 48.2969 -0.203125
L48.2969 2.39062
C41.9062 2.39062 41.5 2.78125 41.5 6.6875
L41.5 25.9062
C41.5 35.1094 47.0938 42 54.0938 42
C61.5 42 62.2969 35.4062 62.2969 30.5938
L62.2969 6.6875
C62.2969 2.875 61.9062 2.39062 55.5 2.39062
L55.5 -0.203125
C57.9062 0 62.2969 0 64.9062 0
C67.5 0 72 0 74.4062 -0.203125
L74.4062 2.39062
C68 2.39062 67.5938 2.78125 67.5938 6.6875
z
" id="CMR17-109"/>
      <path d="
M23.5 -25
L23.5 -21.5156
L14.0938 -21.5156
L14.0938 71
L23.5 71
L23.5 74.4844
L10.5938 74.4844
L10.5938 -25
z
" id="CMR17-91"/>
      <path d="
M44.5938 40.0938
C46.5938 40.0938 47.4062 40.0938 47.4062 42
C47.4062 43 46.5938 43 44.7969 43
L36.7031 43
C38.5938 53.5781 40 60.8906 40.7969 64.1719
C41.4062 66.6406 43.5 69 46.0938 69
C48.2031 69 50.2969 68.0938 51.2969 67.1562
C47.4062 66.75 46.2031 63.7812 46.2031 62.0156
C46.2031 59.9531 47.7031 58.7344 49.5938 58.7344
C51.5938 58.7344 54.5938 60.4688 54.5938 64.3594
C54.5938 68.6406 50.4062 71 46 71
C41.7031 71 37.5 67.7188 35.5 63.7188
C33.7031 60.125 32.7031 56.4375 30.4062 43
L23.7031 43
C21.7969 43 20.7969 43 20.7969 41.2031
C20.7969 40.0938 21.4062 40.0938 23.4062 40.0938
L29.7969 40.0938
C28 30.875 23.9062 8.46875 21.5938 -2.14062
C19.9062 -10.7656 18.4062 -18 13.4062 -18
C13.0938 -18 10.2031 -18 8.40625 -16.1094
C13.5 -15.7031 13.5 -11.3438 13.5 -11.25
C13.5 -9.26562 12 -8.07812 10.0938 -8.07812
C8.09375 -8.07812 5.09375 -9.76562 5.09375 -13.5469
C5.09375 -17.8125 9.5 -20 13.4062 -20
C23.5938 -20 27.7969 -1.84375 28.9062 3.10938
C30.7031 10.75 35.5938 37.125 36.0938 40.0938
z
" id="CMMI12-102"/>
      <path d="
M36.2969 68.4062
C35.7969 69.7031 35.5938 70 34.5938 70
C33.5938 70 33.4062 69.7031 32.9062 68.4062
L11.7031 8.84375
C9.79688 3.48438 5.79688 2.39062 2.29688 2.39062
L2.29688 -0.203125
C4.09375 0 8.09375 0 10 0
C12.5 0 16.5 0 18.9062 -0.203125
L18.9062 2.39062
C14.2031 2.39062 13.5 5.64062 13.5 6.85938
C13.5 7.76562 13.7031 8.28125 13.9062 8.89062
L19.2031 24
L45.4062 24
L51.4062 6.90625
C51.9062 5.70312 51.9062 5.5 51.9062 5.10938
C51.9062 2.39062 47.5938 2.39062 45.7031 2.39062
L45.7031 0
C48.5938 0 53.7969 0 56.9062 0
C59.5 0 64.5 0 66.9062 -0.203125
L66.9062 2.39062
C61.5938 2.39062 59.7969 2.39062 58.5 6.04688
z

M32.2969 60.5312
L44.5 26.5938
L20.0938 26.5938
z
" id="CMR17-65"/>
      <path d="
M38.0938 23
C38.5 23.4062 38.5 23.6094 38.5 24.625
C38.5 34.9688 33.0938 44 21.7031 44
C11.0938 44 2.70312 33.8906 2.70312 21.6094
C2.70312 8.60938 12.2031 -1 22.7969 -1
C34 -1 38.4062 9.46875 38.4062 11.5469
C38.4062 12.25 37.7969 12.25 37.5938 12.25
C36.9062 12.25 36.7969 12.0469 36.4062 10.875
C34.2031 4.14062 28.7031 0.796875 23.5 0.796875
C19.2031 0.796875 14.9062 3.17188 12.2031 7.5
C9.09375 12.5469 9.09375 18.375 9.09375 23
z

M9.20312 24.5
C9.90625 39.1406 17.5938 42.4062 21.5938 42.4062
C28.4062 42.4062 33 35.8906 33.0938 24.5
z
" id="CMR17-101"/>
      <path d="
M65.9062 23
C67.5938 23 69.4062 23 69.4062 25
C69.4062 27 67.5938 27 65.9062 27
L11.7969 27
C10.0938 27 8.29688 27 8.29688 25
C8.29688 23 10.0938 23 11.7969 23
z
" id="CMSY10-0"/>
      <path d="
M30.9062 61.9531
C28.4062 69 20.5 69 19.2031 69
C18.5938 69 17.5 69 17.5 68
C17.5 67.2188 18.0938 67.1094 18.5938 67.0156
C20.0938 66.8125 21.2969 66.6094 22.9062 63.75
C23.9062 61.8594 34.2031 32.1719 34.2031 31.9688
C34.2031 31.875 34.0938 31.7656 33.2969 30.9688
L7.29688 4.85938
C6.09375 3.65625 5.29688 2.85938 5.29688 1.59375
C5.29688 0.1875 6.5 -1 8.09375 -1
C8.5 -1 9.59375 -0.796875 10.2031 -0.203125
C11.7969 1.28125 26.0938 18.6562 35.2031 29.3906
C37.7969 21.6094 41 12.4531 44.0938 4.07812
C44.5938 2.59375 45.0938 1.1875 46.5 -0.09375
C47.5 -1 47.7031 -1 50.5 -1
L52.4062 -1
C52.7969 -1 53.5 -1 53.5 -0.171875
C53.5 0.265625 53.4062 0.359375 53 0.78125
C52.0938 1.875 51.4062 3.65625 51 4.84375
z
" id="CMMI12-21"/>
      <path d="
M11.0938 18.1875
C13 16.6875 16.2969 15 20.2969 15
C28.2031 15 35 21.2031 35 29.5
C35 32.0938 34.2031 36.0938 31.2031 39.2031
C34 42.0625 38.0938 43 40.4062 43
C40.7969 43 41.4062 43 41.9062 42.7656
C41.5 42.6719 40.5938 42.2812 40.5938 40.7344
C40.5938 39.4844 41.5 38.6094 42.7969 38.6094
C44.2969 38.6094 45.0938 39.5781 45.0938 40.8438
C45.0938 42.6719 43.5938 44.5938 40.4062 44.5938
C36.4062 44.5938 32.9062 42.7812 30.0938 40.3125
C27.0938 43.0156 23.5 44 20.2969 44
C12.4062 44 5.59375 37.7969 5.59375 29.5
C5.59375 23.7812 8.90625 20.1875 9.90625 19.1875
C6.90625 15.6875 6.90625 11.6094 6.90625 11.1094
C6.90625 8.51562 7.90625 4.71875 11.2969 2.625
C6.09375 1.32812 2 -2.64062 2 -7.59375
C2 -14.7344 11.5 -20 22.9062 -20
C33.9062 -20 43.7969 -14.9375 43.7969 -7.48438
C43.7969 6 29 6 21.2969 6
C19 6 14.9062 6 14.4062 6.10938
C11.2969 6.60938 9.20312 9.40625 9.20312 12.8906
C9.20312 13.7812 9.20312 16 11.0938 18.1875
M20.2969 16.6875
C11.5 16.6875 11.5 27.5 11.5 29.5156
C11.5 31.5 11.5 42.3125 20.2969 42.3125
C29.0938 42.3125 29.0938 31.5 29.0938 29.5156
C29.0938 27.5 29.0938 16.6875 20.2969 16.6875
M22.9062 -18.2969
C12.9062 -18.2969 6 -13.0469 6 -7.59375
C6 -4.51562 7.70312 -1.64062 9.90625 -0.0625
C12.4062 1.625 13.4062 1.625 20.2031 1.625
C28.4062 1.625 39.7969 1.625 39.7969 -7.59375
C39.7969 -13.0469 32.9062 -18.2969 22.9062 -18.2969" id="CMR17-103"/>
      <path d="
M30.9062 42.1094
C30.9062 43.9062 30.7969 44 30.2031 44
C29.7969 44 29.7031 43.9062 28.5 42.4219
C28.2031 42.0156 27.2969 41.0156 27 40.625
C23.7969 44 19.2969 44 17.5938 44
C6.5 44 2.5 38.1719 2.5 32.375
C2.5 23.3438 12.7031 21.25 15.5938 20.6406
C21.9062 19.3438 24.0938 18.9375 26.2031 17.125
C27.5 15.9375 29.7031 13.7344 29.7031 10.125
C29.7031 5.90625 27.2969 0.5 18.0938 0.5
C9.40625 0.5 6.29688 7.0625 4.5 15.8281
C4.20312 17.2188 4.20312 17.3281 3.40625 17.3281
C2.59375 17.3281 2.5 17.2188 2.5 15.2344
L2.5 0.890625
C2.5 -0.890625 2.59375 -1 3.20312 -1
C3.70312 -1 3.79688 -0.890625 4.29688 -0.09375
C4.90625 0.796875 6.40625 3.1875 7 4.1875
C9 1.54688 12.5 -1 18.0938 -1
C28 -1 33.2969 4.40625 33.2969 12.2344
C33.2969 17.3438 30.5938 20.0625 29.2969 21.25
C26.2969 24.375 22.7969 25.0625 18.5938 25.8594
C13.0938 27.0781 6.09375 28.4688 6.09375 34.5938
C6.09375 37.1875 7.5 42.7188 17.5938 42.7188
C28.2969 42.7188 28.9062 32.75 29.0938 29.5625
C29.2031 29.0781 29.7031 28.9688 30 28.9688
C30.9062 28.9688 30.9062 29.2812 30.9062 30.9688
z
" id="CMR17-115"/>
      <path d="
M43.2969 61.8125
C43.2969 66.7969 39.2969 70.5938 34.5938 70.5938
C29.9062 70.5938 25.9062 66.7969 25.9062 61.8125
C25.9062 56.7969 29.9062 53 34.5938 53
C39.2969 53 43.2969 56.7969 43.2969 61.8125
M34.5938 54.5938
C30.4062 54.5938 27.7031 57.1875 27.7031 61.8125
C27.7031 66.5 30.5 69 34.5938 69
C38.7969 69 41.5 66.4062 41.5 61.8125
C41.5 57.0938 38.7031 54.5938 34.5938 54.5938" id="CMR17-23"/>
     </defs>
     <g transform="translate(26.7327426934 122.995802374)rotate(-90.0)scale(0.1 -0.1)">
      <use transform="translate(0.0 14.943914544092468)scale(0.9962640099626402)" xlink:href="#CMMI12-102"/>
      <use transform="translate(48.083237663449566 0.0)scale(0.6973817666173724)" xlink:href="#CMMI12-21"/>
      <use transform="translate(179.79508301389322 14.943914544092468)scale(0.9962640099626402)" xlink:href="#CMR17-91"/>
      <use transform="translate(204.66614149575813 14.943914544092468)scale(0.9962640099626402)" xlink:href="#CMR17-101"/>
      <use transform="translate(245.15180195847606 14.943914544092468)scale(0.9962640099626402)" xlink:href="#CMR17-114"/>
      <use transform="translate(280.432569757939 14.943914544092468)scale(0.9962640099626402)" xlink:href="#CMR17-103"/>
      <use transform="translate(353.7970555971747 14.943914544092468)scale(0.9962640099626402)" xlink:href="#CMR17-99"/>
      <use transform="translate(394.2827160598926 14.943914544092468)scale(0.9962640099626402)" xlink:href="#CMR17-109"/>
      <use transform="translate(471.2023059279655 51.097553485951124)scale(0.6973817666173724)" xlink:href="#CMSY10-0"/>
      <use transform="translate(525.4432991759419 51.097553485951124)scale(0.6973817666173724)" xlink:href="#CMR17-50"/>
      <use transform="translate(585.5986218672167 14.943914544092468)scale(0.9962640099626402)" xlink:href="#CMR17-115"/>
      <use transform="translate(621.3999595024518 51.097553485951124)scale(0.6973817666173724)" xlink:href="#CMSY10-0"/>
      <use transform="translate(675.6409527504281 51.097553485951124)scale(0.6973817666173724)" xlink:href="#CMR17-49"/>
      <use transform="translate(735.7962754417031 32.56265870660803)scale(0.9962640099626402)" xlink:href="#CMR17-23"/>
      <use transform="translate(735.7962754417031 14.943914544092468)scale(0.9962640099626402)" xlink:href="#CMR17-65"/>
      <use transform="translate(804.8687052459528 74.82118143388077)scale(0.6973817666173724)" xlink:href="#CMSY10-0"/>
      <use transform="translate(859.109698493929 74.82118143388077)scale(0.6973817666173724)" xlink:href="#CMR17-49"/>
      <use transform="translate(891.5910124630293 14.943914544092468)scale(0.9962640099626402)" xlink:href="#CMR17-93"/>
     </g>
    </g>
    <g id="text_8">
     <!-- $\times10^{-13}$ -->
     <defs>
      <path d="
M22.0938 33.7031
C31 33.7031 34.9062 25.9688 34.9062 17.0312
C34.9062 5 28.5 0.390625 22.7031 0.390625
C17.4062 0.390625 8.79688 3.03125 6.09375 10.8281
C6.59375 10.625 7.09375 10.625 7.59375 10.625
C10 10.625 11.7969 12.2188 11.7969 14.8125
C11.7969 17.7031 9.59375 19 7.59375 19
C5.90625 19 3.29688 18.2031 3.29688 14.4688
C3.29688 5.23438 12.2969 -2 22.9062 -2
C34 -2 42.5 6.71875 42.5 16.9531
C42.5 26.6719 34.5 33.6875 25 34.7969
C32.5938 36.375 39.9062 43.0625 39.9062 52.0156
C39.9062 59.6875 32 65.2969 23 65.2969
C13.9062 65.2969 5.90625 59.8281 5.90625 52.0156
C5.90625 48.5938 8.5 48 9.79688 48
C11.9062 48 13.7031 49.2969 13.7031 51.8906
C13.7031 54.4688 11.9062 55.7656 9.79688 55.7656
C9.40625 55.7656 8.90625 55.7656 8.5 55.5625
C11.4062 61.8594 19.2969 63 22.7969 63
C26.2969 63 32.9062 61.3281 32.9062 51.875
C32.9062 49.1094 32.5 44.1875 29.0938 39.8438
C26.0938 36 22.7031 36 19.4062 35.5938
C18.9062 35.5938 16.5938 35.5938 16.2031 35.5938
C15.5 35.4844 15.0938 35.3906 15.0938 34.5938
C15.0938 33.8125 15.2031 33.7031 17.2031 33.7031
z
" id="CMR17-51"/>
      <path d="
M38.9062 27.8906
L18.9062 47.7969
C17.7031 49 17.5 49.1875 16.7031 49.1875
C15.7031 49.1875 14.7031 48.2969 14.7031 47.1875
C14.7031 46.5 14.9062 46.2969 16 45.1875
L36 25.0938
L16 5
C14.9062 3.89062 14.7031 3.6875 14.7031 3
C14.7031 1.89062 15.7031 1 16.7031 1
C17.5 1 17.7031 1.1875 18.9062 2.39062
L38.7969 22.2969
L59.5 1.59375
C59.7031 1.5 60.4062 1 61 1
C62.2031 1 63 1.89062 63 3
C63 3.1875 63 3.59375 62.7031 4.09375
C62.5938 4.29688 46.7031 20 41.7031 25.0938
L60 43.3906
C60.5 44 62 45.2969 62.5 45.8906
C62.5938 46.0938 63 46.5 63 47.1875
C63 48.2969 62.2031 49.1875 61 49.1875
C60.2031 49.1875 59.7969 48.7969 58.7031 47.6875
z
" id="CMSY10-2"/>
     </defs>
     <g transform="translate(50.4 22.92)scale(0.1 -0.1)">
      <use transform="scale(0.9962640099626402)" xlink:href="#CMSY10-2"/>
      <use transform="translate(77.4874676506071 0.0)scale(0.9962640099626402)" xlink:href="#CMR17-49"/>
      <use transform="translate(123.17794476766814 0.0)scale(0.9962640099626402)" xlink:href="#CMR17-48"/>
      <use transform="translate(168.86842188472914 36.15363894185866)scale(0.6973817666173724)" xlink:href="#CMSY10-0"/>
      <use transform="translate(223.1094151327055 36.15363894185866)scale(0.6973817666173724)" xlink:href="#CMR17-49"/>
      <use transform="translate(255.09259709682442 36.15363894185866)scale(0.6973817666173724)" xlink:href="#CMR17-51"/>
     </g>
    </g>
   </g>
   <g id="patch_3">
    <path d="
M50.4 116.64
L226.8 116.64" style="fill:none;stroke:#000000;"/>
   </g>
   <g id="patch_4">
    <path d="
M50.4 116.64
L50.4 25.92" style="fill:none;stroke:#000000;"/>
   </g>
   <g id="patch_5">
    <path d="
M226.8 116.64
L226.8 25.92" style="fill:none;stroke:#000000;"/>
   </g>
   <g id="patch_6">
    <path d="
M50.4 25.92
L226.8 25.92" style="fill:none;stroke:#000000;"/>
   </g>
   <g id="text_9">
    <!-- raw -->
    <defs>
     <path d="
M58.2031 34.0781
C60.2031 40 64.2031 40 65.7031 40
L65.7031 42.6875
C63.7031 42.6875 61.7031 42.6875 59.7031 42.6875
C57.7969 42.6875 53.5 42.6875 51.7969 42.7812
L51.7969 40
C54.9062 40 56.5938 38.1875 56.5938 35.7031
C56.5938 35 56.4062 34.0938 56.2031 33.4062
L46.7969 6.20312
L36.5938 35.5156
C36.4062 36.2188 36.0938 37.0156 36.0938 37.4062
C36.0938 40 39.5 40 41.0938 40
L41.0938 42.7812
C38.7969 42.6875 34.5938 42.6875 32.2031 42.6875
C29.7031 42.6875 27.0938 42.6875 24.7969 42.7812
L24.7969 40
C30.2969 40 30.2969 39.7969 32.4062 33.7031
L23.2031 6.90625
L13.2969 35.625
C12.7969 36.9062 12.7969 37.1094 12.7969 37.4062
C12.7969 40 16.2031 40 17.7969 40
L17.7969 42.7812
C15.4062 42.6875 11.2031 42.6875 8.70312 42.6875
C6.5 42.6875 3.09375 42.6875 1 42.7812
L1 40
C5.40625 40 6.5 39.7031 7.59375 36.4062
L19.9062 0.59375
C20.2969 -0.703125 20.5938 -1 21.4062 -1
C22.0938 -1 22.5 -0.796875 23 0.703125
L33.2969 30.9062
L43.7031 0.703125
C44.2031 -0.796875 44.5938 -1 45.2969 -1
C46.0938 -1 46.4062 -0.703125 46.7969 0.609375
z
" id="CMR17-119"/>
     <path d="
M36 25.8281
C36 32.375 36 35.8438 31.7969 39.7344
C28.0938 43 23.7969 44 20.4062 44
C12.5 44 6.79688 37.6094 6.79688 30.7969
C6.79688 27 9.79688 27 10.4062 27
C11.7031 27 14 27.7812 14 30.5312
C14 33 12.0938 34.0781 10.4062 34.0781
C10 34.0781 9.5 33.9688 9.20312 33.875
C11.2969 40.5 16.7031 42.4062 20.2031 42.4062
C25.2031 42.4062 30.7031 37.9531 30.7031 29.4531
L30.7031 25
C24.7969 25 17.7031 24.2031 12.0938 21.2031
C5.79688 17.7031 4 12.7031 4 8.90625
C4 1.20312 13 -1 18.2969 -1
C23.7969 -1 28.9062 2.17188 31.0938 7.98438
C31.2969 3.64062 34.0938 -0.28125 38.5 -0.28125
C40.5938 -0.28125 45.9062 1.09375 45.9062 8.85938
L45.9062 14.375
L44.0938 14.375
L44.0938 8.78125
C44.0938 2.78125 41.4062 2 40.0938 2
C36 2 36 7.15625 36 11.5312
z

M30.7031 13.5938
C30.7031 4.95312 24.5 0.59375 19 0.59375
C14 0.59375 10.0938 4.29688 10.0938 8.90625
C10.0938 11.8906 11.4062 17.1875 17.2031 20.3906
C22 23.0938 27.5 23.5 30.7031 23.5
z
" id="CMR17-97"/>
    </defs>
    <g transform="translate(59.22 39.528)scale(0.1 -0.1)">
     <use transform="scale(0.9962640099626402)" xlink:href="#CMR17-114"/>
     <use transform="translate(35.28076779946296 0.0)scale(0.9962640099626402)" xlink:href="#CMR17-97"/>
     <use transform="translate(78.3687909840053 0.0)scale(0.9962640099626402)" xlink:href="#CMR17-119"/>
    </g>
   </g>
   <g id="legend_1">
    <g id="line2d_23">
     <path d="
M64.5684 102.203
L84.5684 102.203" style="fill:none;stroke:#008000;stroke-linecap:square;stroke-width:0.75;"/>
    </g>
    <g id="line2d_24"/>
    <g id="text_10">
     <!-- order 23 -->
     <defs>
      <path d="
M29.2031 67.5938
L29.2031 65
C35.0938 65 36 64.4062 36 59.6875
L36 36.6406
C35.5938 37.1406 31.5 43.5938 23.4062 43.5938
C13.2031 43.5938 3.29688 34.5 3.29688 21.3125
C3.29688 8.20312 12.5938 -1 22.4062 -1
C30.9062 -1 35.2969 5.26562 35.7969 5.9375
L35.7969 -0.984375
L47.9062 -0.984375
L47.9062 2
C42 2 41.0938 2.59375 41.0938 7.39062
L41.0938 68.6875
z

M35.7969 11.7969
C35.7969 8.79688 34 6.09375 31.7031 4.09375
C28.2969 1.09375 24.9062 0.59375 23 0.59375
C20.0938 0.59375 9.70312 2.09375 9.70312 21.1875
C9.70312 40.8125 21.2969 42 23.9062 42
C28.5 42 32.2031 39.4062 34.5 35.7969
C35.7969 33.7031 35.7969 33.4062 35.7969 31.6094
z
" id="CMR17-100"/>
      <path d="
M43.0938 21.1875
C43.0938 34 33.7969 44 22.9062 44
C12 44 2.70312 34 2.70312 21.1875
C2.70312 8.60938 12 -1 22.9062 -1
C33.7969 -1 43.0938 8.60938 43.0938 21.1875
M22.9062 0.796875
C18.2031 0.796875 14.2031 3.59375 11.9062 7.5
C9.40625 11.9844 9.09375 17.5938 9.09375 22
C9.09375 26.2031 9.29688 31.4062 11.9062 35.9062
C13.9062 39.2031 17.7969 42.4062 22.9062 42.4062
C27.4062 42.4062 31.2031 39.9062 33.5938 36.4062
C36.7031 31.7031 36.7031 25.1094 36.7031 22
C36.7031 18.0938 36.5 12.1094 33.7969 7.29688
C31 2.70312 26.7031 0.796875 22.9062 0.796875" id="CMR17-111"/>
     </defs>
     <g transform="translate(92.5683857653 105.70282167)scale(0.1 -0.1)">
      <use transform="scale(0.9962640099626402)" xlink:href="#CMR17-111"/>
      <use transform="translate(45.69047711706103 0.0)scale(0.9962640099626402)" xlink:href="#CMR17-114"/>
      <use transform="translate(80.97124491652399 0.0)scale(0.9962640099626402)" xlink:href="#CMR17-100"/>
      <use transform="translate(131.86661469683997 0.0)scale(0.9962640099626402)" xlink:href="#CMR17-101"/>
      <use transform="translate(172.35227515955793 0.0)scale(0.9962640099626402)" xlink:href="#CMR17-114"/>
      <use transform="translate(237.70900930592313 0.0)scale(0.9962640099626402)" xlink:href="#CMR17-50"/>
      <use transform="translate(283.3994864229841 0.0)scale(0.9962640099626402)" xlink:href="#CMR17-51"/>
     </g>
    </g>
    <g id="line2d_25">
     <path d="
M148.6 102.203
L168.6 102.203" style="fill:none;stroke:#bf00bf;stroke-linecap:square;stroke-width:0.75;"/>
    </g>
    <g id="line2d_26"/>
    <g id="text_11">
     <!-- order 24 -->
     <g transform="translate(176.6 105.70282167)scale(0.1 -0.1)">
      <use transform="scale(0.9962640099626402)" xlink:href="#CMR17-111"/>
      <use transform="translate(45.69047711706103 0.0)scale(0.9962640099626402)" xlink:href="#CMR17-114"/>
      <use transform="translate(80.97124491652399 0.0)scale(0.9962640099626402)" xlink:href="#CMR17-100"/>
      <use transform="translate(131.86661469683997 0.0)scale(0.9962640099626402)" xlink:href="#CMR17-101"/>
      <use transform="translate(172.35227515955793 0.0)scale(0.9962640099626402)" xlink:href="#CMR17-114"/>
      <use transform="translate(237.70900930592313 0.0)scale(0.9962640099626402)" xlink:href="#CMR17-50"/>
      <use transform="translate(283.3994864229841 0.0)scale(0.9962640099626402)" xlink:href="#CMR17-52"/>
     </g>
    </g>
   </g>
  </g>
  <g id="axes_2">
   <g id="patch_7">
    <path d="
M50.4 207.36
L226.8 207.36
L226.8 116.64
L50.4 116.64
z
" style="fill:#ffffff;"/>
   </g>
   <g id="line2d_27">
    <path clip-path="url(#p501ab32ebe)" d="
M49.6686 169.396
L76.3372 172.887
L102.948 176.601
L128.481 180.386
L153.961 184.386
L179.388 188.607
L203.747 192.871
L225.02 196.774
L225.02 196.774" style="fill:none;stroke:#008000;stroke-linecap:square;stroke-width:0.75;"/>
   </g>
   <g id="line2d_28">
    <path clip-path="url(#p501ab32ebe)" d="
M49.6322 147.621
L91.3545 145.939
L134.166 144.439
L176.874 143.164
L220.66 142.081
L227.75 141.927
L227.75 141.927" style="fill:none;stroke:#bf00bf;stroke-linecap:square;stroke-width:0.75;"/>
   </g>
   <g id="matplotlib.axis_3">
    <g id="xtick_5">
     <g id="line2d_29">
      <g>
       <use style="stroke:#000000;stroke-width:0.5;" x="75.6" xlink:href="#mc7db9fdffb" y="207.36"/>
      </g>
     </g>
     <g id="line2d_30">
      <g>
       <use style="stroke:#000000;stroke-width:0.5;" x="75.6" xlink:href="#m5a7d422ac3" y="116.64"/>
      </g>
     </g>
    </g>
    <g id="xtick_6">
     <g id="line2d_31">
      <g>
       <use style="stroke:#000000;stroke-width:0.5;" x="126.0" xlink:href="#mc7db9fdffb" y="207.36"/>
      </g>
     </g>
     <g id="line2d_32">
      <g>
       <use style="stroke:#000000;stroke-width:0.5;" x="126.0" xlink:href="#m5a7d422ac3" y="116.64"/>
      </g>
     </g>
    </g>
    <g id="xtick_7">
     <g id="line2d_33">
      <g>
       <use style="stroke:#000000;stroke-width:0.5;" x="176.4" xlink:href="#mc7db9fdffb" y="207.36"/>
      </g>
     </g>
     <g id="line2d_34">
      <g>
       <use style="stroke:#000000;stroke-width:0.5;" x="176.4" xlink:href="#m5a7d422ac3" y="116.64"/>
      </g>
     </g>
    </g>
    <g id="xtick_8">
     <g id="line2d_35">
      <g>
       <use style="stroke:#000000;stroke-width:0.5;" x="226.8" xlink:href="#mc7db9fdffb" y="207.36"/>
      </g>
     </g>
     <g id="line2d_36">
      <g>
       <use style="stroke:#000000;stroke-width:0.5;" x="226.8" xlink:href="#m5a7d422ac3" y="116.64"/>
      </g>
     </g>
    </g>
   </g>
   <g id="matplotlib.axis_4">
    <g id="ytick_7">
     <g id="line2d_37">
      <g>
       <use style="stroke:#000000;stroke-width:0.5;" x="50.4" xlink:href="#md7965d1ba0" y="200.88"/>
      </g>
     </g>
     <g id="line2d_38">
      <g>
       <use style="stroke:#000000;stroke-width:0.5;" x="226.8" xlink:href="#md9a1c1a7cd" y="200.88"/>
      </g>
     </g>
     <g id="text_12">
      <!-- 0.97 -->
      <defs>
       <path d="
M16.5938 4.07812
C16.5938 6.5625 14.5938 8.15625 12.5 8.15625
C10.5 8.15625 8.40625 6.5625 8.40625 4.07812
C8.40625 1.59375 10.4062 0 12.5 0
C14.5 0 16.5938 1.59375 16.5938 4.07812" id="CMR17-46"/>
       <path d="
M45.0938 61.5781
L45.0938 63.7656
L21.5938 63.7656
C9.90625 63.7656 9.70312 65.0781 9.29688 67
L7.5 67
L4.59375 48.3438
L6.40625 48.3438
C6.70312 50.2344 7.40625 55.3125 8.59375 57.2031
C9.20312 58 16.5938 58 18.2969 58
L40.2969 58
L29.2031 41.5781
C21.7969 30.5312 16.7031 15.6094 16.7031 2.57812
C16.7031 1.39062 16.7031 -2 20.2969 -2
C23.9062 -2 23.9062 1.39062 23.9062 2.67188
L23.9062 7.26562
C23.9062 23.5625 26.7031 34.3125 31.2969 41.1875
z
" id="CMR17-55"/>
       <path d="
M35.2031 29.125
C35.2031 7.25 26.0938 0.484375 18.5938 0.484375
C16.2969 0.484375 10.7031 0.484375 8.40625 4.59375
C11 4.1875 12.9062 5.57812 12.9062 8.09375
C12.9062 10.8125 10.7031 11.7031 9.29688 11.7031
C8.40625 11.7031 5.70312 11.2969 5.70312 7.90625
C5.70312 1.10938 11.5938 -2 18.7969 -2
C30.2969 -2 42 10.5312 42 32.3906
C42 59.6406 30.7969 65.2969 23.2031 65.2969
C13.2969 65.2969 3.79688 56.6875 3.79688 43.4062
C3.79688 31.1094 11.9062 22 22.0938 22
C30.5 22 34.2031 29.7344 35.2031 33
z

M22.2969 23.5938
C19.5938 23.5938 15.7969 24.0938 12.7031 30.0312
C10.5938 33.8906 10.5938 38.4531 10.5938 43.2969
C10.5938 49.1562 10.5938 53.2031 13.4062 57.5625
C14.7969 59.6406 17.4062 63 23.2031 63
C35 63 35 45.0781 35 41.125
C35 34.0938 31.7969 23.5938 22.2969 23.5938" id="CMR17-57"/>
      </defs>
      <g transform="translate(28.6885857721 203.370660025)scale(0.1 -0.1)">
       <use transform="scale(0.9962640099626402)" xlink:href="#CMR17-48"/>
       <use transform="translate(45.69047711706103 0.0)scale(0.9962640099626402)" xlink:href="#CMR17-46"/>
       <use transform="translate(70.56153559892591 0.0)scale(0.9962640099626402)" xlink:href="#CMR17-57"/>
       <use transform="translate(116.25201271598694 0.0)scale(0.9962640099626402)" xlink:href="#CMR17-55"/>
      </g>
     </g>
    </g>
    <g id="ytick_8">
     <g id="line2d_39">
      <g>
       <use style="stroke:#000000;stroke-width:0.5;" x="50.4" xlink:href="#md7965d1ba0" y="181.44"/>
      </g>
     </g>
     <g id="line2d_40">
      <g>
       <use style="stroke:#000000;stroke-width:0.5;" x="226.8" xlink:href="#md9a1c1a7cd" y="181.44"/>
      </g>
     </g>
     <g id="text_13">
      <!-- 0.99 -->
      <g transform="translate(28.6885857721 183.930660025)scale(0.1 -0.1)">
       <use transform="scale(0.9962640099626402)" xlink:href="#CMR17-48"/>
       <use transform="translate(45.69047711706103 0.0)scale(0.9962640099626402)" xlink:href="#CMR17-46"/>
       <use transform="translate(70.56153559892591 0.0)scale(0.9962640099626402)" xlink:href="#CMR17-57"/>
       <use transform="translate(116.25201271598694 0.0)scale(0.9962640099626402)" xlink:href="#CMR17-57"/>
      </g>
     </g>
    </g>
    <g id="ytick_9">
     <g id="line2d_41">
      <g>
       <use style="stroke:#000000;stroke-width:0.5;" x="50.4" xlink:href="#md7965d1ba0" y="162.0"/>
      </g>
     </g>
     <g id="line2d_42">
      <g>
       <use style="stroke:#000000;stroke-width:0.5;" x="226.8" xlink:href="#md9a1c1a7cd" y="162.0"/>
      </g>
     </g>
     <g id="text_14">
      <!-- 1.00 -->
      <g transform="translate(28.6885857721 164.490660025)scale(0.1 -0.1)">
       <use transform="scale(0.9962640099626402)" xlink:href="#CMR17-49"/>
       <use transform="translate(45.69047711706103 0.0)scale(0.9962640099626402)" xlink:href="#CMR17-46"/>
       <use transform="translate(70.56153559892591 0.0)scale(0.9962640099626402)" xlink:href="#CMR17-48"/>
       <use transform="translate(116.25201271598694 0.0)scale(0.9962640099626402)" xlink:href="#CMR17-48"/>
      </g>
     </g>
    </g>
    <g id="ytick_10">
     <g id="line2d_43">
      <g>
       <use style="stroke:#000000;stroke-width:0.5;" x="50.4" xlink:href="#md7965d1ba0" y="142.56"/>
      </g>
     </g>
     <g id="line2d_44">
      <g>
       <use style="stroke:#000000;stroke-width:0.5;" x="226.8" xlink:href="#md9a1c1a7cd" y="142.56"/>
      </g>
     </g>
     <g id="text_15">
      <!-- 1.02 -->
      <g transform="translate(28.6885857721 145.050660025)scale(0.1 -0.1)">
       <use transform="scale(0.9962640099626402)" xlink:href="#CMR17-49"/>
       <use transform="translate(45.69047711706103 0.0)scale(0.9962640099626402)" xlink:href="#CMR17-46"/>
       <use transform="translate(70.56153559892591 0.0)scale(0.9962640099626402)" xlink:href="#CMR17-48"/>
       <use transform="translate(116.25201271598694 0.0)scale(0.9962640099626402)" xlink:href="#CMR17-50"/>
      </g>
     </g>
    </g>
    <g id="ytick_11">
     <g id="line2d_45">
      <g>
       <use style="stroke:#000000;stroke-width:0.5;" x="50.4" xlink:href="#md7965d1ba0" y="123.12"/>
      </g>
     </g>
     <g id="line2d_46">
      <g>
       <use style="stroke:#000000;stroke-width:0.5;" x="226.8" xlink:href="#md9a1c1a7cd" y="123.12"/>
      </g>
     </g>
     <g id="text_16">
      <!-- 1.03 -->
      <g transform="translate(28.6885857721 125.610660025)scale(0.1 -0.1)">
       <use transform="scale(0.9962640099626402)" xlink:href="#CMR17-49"/>
       <use transform="translate(45.69047711706103 0.0)scale(0.9962640099626402)" xlink:href="#CMR17-46"/>
       <use transform="translate(70.56153559892591 0.0)scale(0.9962640099626402)" xlink:href="#CMR17-48"/>
       <use transform="translate(116.25201271598694 0.0)scale(0.9962640099626402)" xlink:href="#CMR17-51"/>
      </g>
     </g>
    </g>
   </g>
   <g id="patch_8">
    <path d="
M50.4 207.36
L226.8 207.36" style="fill:none;stroke:#000000;"/>
   </g>
   <g id="patch_9">
    <path d="
M50.4 207.36
L50.4 116.64" style="fill:none;stroke:#000000;"/>
   </g>
   <g id="patch_10">
    <path d="
M226.8 207.36
L226.8 116.64" style="fill:none;stroke:#000000;"/>
   </g>
   <g id="patch_11">
    <path d="
M50.4 116.64
L226.8 116.64" style="fill:none;stroke:#000000;"/>
   </g>
   <g id="text_17">
    <!-- Chebyshev -->
    <defs>
     <path d="
M39.0938 33.7969
C40 36 41.5938 40 47.4062 40
L47.4062 42.5938
C45.5 42.5938 43 42.5938 41.0938 42.5938
C39 42.5938 35.7031 42.5938 33.7031 42.6875
L33.7031 40.0938
C36.2031 39.8906 37.5938 38.7031 37.5938 36.1094
C37.5938 35.2031 37.5938 35 37 33.6094
L26 5.89062
L14.0938 35.7188
C13.5 37.0156 13.5 37.2031 13.5 37.6094
C13.5 40 16.7969 40 18.2969 40
L18.2969 42.6875
C15.9062 42.5938 11.5 42.5938 9 42.5938
C6.29688 42.5938 3.20312 42.5938 1 42.6875
L1 40
C4.79688 40 6.90625 40 8.09375 36.9062
L22.5938 0.6875
C23.2031 -0.796875 23.2969 -1 24.2031 -1
C25.0938 -1 25.2031 -0.796875 25.7969 0.6875
z
" id="CMR17-118"/>
     <path d="
M39 34.3281
C41.5 40.4062 46 40.4062 47.4062 40.4062
L47.4062 43
C45.5 43 43 43 41.0938 43
C39 43 35.7031 43 33.7031 43.0938
L33.7031 40.5
C37.5 40.2031 37.5938 37.4062 37.5938 36.6094
C37.5938 35.625 37.4062 35.125 36.9062 33.9219
L26 7.01562
L14.0938 36.0312
C13.5938 37.2188 13.5938 37.9062 13.5938 38.0156
C13.5938 40.2031 15.9062 40.4062 18.2969 40.4062
L18.2969 43.0938
C15.9062 43 11.5938 43 9.09375 43
C6.40625 43 3.20312 43 1 43.0938
L1 40.4062
C6.40625 40.4062 7 39.9062 8.29688 36.7188
L23.2031 0.234375
C18.7031 -11.5312 16.0938 -18.4062 9.79688 -18.4062
C8.70312 -18.4062 6.20312 -18.1094 4.40625 -16.3125
C6.70312 -16.1094 7.70312 -14.7188 7.70312 -13.0156
C7.70312 -11.3281 6.5 -9.82812 4.5 -9.82812
C2.29688 -9.82812 1.20312 -11.3281 1.20312 -13.125
C1.20312 -17.1094 5.29688 -20 9.79688 -20
C15.5938 -20 19.2031 -14.4062 21.2031 -9.4375
z
" id="CMR17-121"/>
     <path d="
M41.5 30.2031
C41.5 35.2969 40.5 43.5938 28.7031 43.5938
C20.5 43.5938 16.5 37 15.2969 33.7031
L15.2031 33.7031
L15.2031 68.6875
L3.29688 67.5938
L3.29688 65
C9.20312 65 10.0938 64.4062 10.0938 59.6406
L10.0938 6.65625
C10.0938 2.875 9.70312 2.39062 3.29688 2.39062
L3.29688 -0.203125
C5.70312 0 10.0938 0 12.7031 0
C15.2969 0 19.7969 0 22.2031 -0.203125
L22.2031 2.39062
C15.7969 2.39062 15.4062 2.78125 15.4062 6.6875
L15.4062 25.9062
C15.4062 35.1094 21 42 28 42
C35.4062 42 36.2031 35.4062 36.2031 30.5938
L36.2031 6.6875
C36.2031 2.875 35.7969 2.39062 29.4062 2.39062
L29.4062 -0.203125
C31.7969 0 36.2031 0 38.7969 0
C41.4062 0 45.9062 0 48.2969 -0.203125
L48.2969 2.39062
C41.9062 2.39062 41.5 2.78125 41.5 6.6875
z
" id="CMR17-104"/>
     <path d="
M62.0938 67.1094
C62.0938 68.8906 62 69 61.4062 69
C61 69 60.9062 68.8906 60.2031 67.7031
L55.7969 59.3281
C50.9062 65.4531 44.9062 69 37.2031 69
C20.0938 69 4.59375 54 4.59375 33.5469
C4.59375 12.9062 20.0938 -2 37.2969 -2
C52.5938 -2 62.0938 11.4062 62.0938 22.8438
C62.0938 23.8281 62.0938 24.2344 61.2031 24.2344
C60.4062 24.2344 60.4062 23.9375 60.2969 23.0469
C59.5 9.14062 49.5 0.59375 38.7031 0.59375
C28.5 0.59375 12.2031 7.73438 12.2031 33.5938
C12.2031 59.5469 28.7969 66.5 38.5 66.5
C49.7969 66.5 58 56.75 59.9062 42.9219
C60.0938 41.7188 60.0938 41.5156 61 41.5156
C62.0938 41.5156 62.0938 41.7188 62.0938 43.5156
z
" id="CMR17-67"/>
     <path d="
M15 68.6875
L3.09375 67.5938
L3.09375 65
C9 65 9.90625 64.4062 9.90625 59.6406
L9.90625 -0.203125
L11.7031 -0.203125
L14.5938 6.89062
C17.5 2.20312 21.7969 -1 27.5938 -1
C37.5938 -1 47.7031 7.8125 47.7031 21.4062
C47.7031 34.1875 38.7031 43.5938 28.5938 43.5938
C22.4062 43.5938 18 40.2969 15 36.4062
z

M15.2031 31.3125
C15.2031 33.0938 15.2031 33.4062 16.5938 35.5
C20.5 41.5156 26.0938 42 28 42
C31 42 41.2969 40.3906 41.2969 21.5
C41.2969 1.6875 29.5 0.59375 27.0938 0.59375
C24 0.59375 19.5 1.78125 16.2969 7.59375
C15.2031 9.5 15.2031 9.70312 15.2031 11.4844
z
" id="CMR17-98"/>
    </defs>
    <g transform="translate(59.22 130.248)scale(0.1 -0.1)">
     <use transform="scale(0.9962640099626402)" xlink:href="#CMR17-67"/>
     <use transform="translate(66.50988055047479 0.0)scale(0.9962640099626402)" xlink:href="#CMR17-104"/>
     <use transform="translate(117.40525033079079 0.0)scale(0.9962640099626402)" xlink:href="#CMR17-101"/>
     <use transform="translate(157.89091079350874 0.0)scale(0.9962640099626402)" xlink:href="#CMR17-98"/>
     <use transform="translate(206.18382664130607 0.0)scale(0.9962640099626402)" xlink:href="#CMR17-121"/>
     <use transform="translate(254.4767424891034 0.0)scale(0.9962640099626402)" xlink:href="#CMR17-115"/>
     <use transform="translate(290.27808012433843 0.0)scale(0.9962640099626402)" xlink:href="#CMR17-104"/>
     <use transform="translate(341.17344990465443 0.0)scale(0.9962640099626402)" xlink:href="#CMR17-101"/>
     <use transform="translate(381.65911036737236 0.0)scale(0.9962640099626402)" xlink:href="#CMR17-118"/>
    </g>
   </g>
  </g>
  <g id="axes_3">
   <g id="patch_12">
    <path d="
M50.4 298.08
L226.8 298.08
L226.8 207.36
L50.4 207.36
z
" style="fill:#ffffff;"/>
   </g>
   <g id="line2d_47">
    <path clip-path="url(#p92d66ec8eb)" d="
M49.6686 226.944
L50.6954 228.651
L51.7221 225.274
L52.7487 229.035
L53.7752 225.318
L54.8016 227.028
L55.828 225.521
L56.8543 227.558
L57.8804 223.645
L58.9065 224.876
L59.9325 228.421
L60.9585 224.033
L61.9843 226.374
L63.0101 224.894
L64.0358 227.53
L65.0613 229.232
L66.0868 233.94
L67.1123 239.842
L68.1376 247.888
L69.1628 257.385
L70.188 255.225
L71.2131 251.306
L73.263 231.862
L74.2878 231.309
L75.3125 228.155
L76.3372 229.723
L77.3618 229.907
L78.3862 230.801
L79.4106 228.726
L80.4349 230.115
L81.4592 228.024
L82.4833 228.228
L83.5074 225.976
L84.5313 228.003
L85.5552 227.407
L86.579 228.004
L87.6027 228.038
L88.6264 227.911
L89.6499 228.495
L90.6734 227.72
L91.6967 226.403
L92.72 228.006
L93.7432 227.565
L94.7663 229.133
L95.7894 225.061
L96.8123 227.021
L98.858 224.572
L99.8806 227.028
L100.903 228.157
L101.926 228.084
L102.948 226.918
L103.971 229.497
L104.993 225.658
L106.015 226.651
L107.037 225.957
L108.059 227.909
L109.081 223.859
L110.103 227.003
L111.125 227.302
L112.146 225.32
L113.168 227.123
L114.189 227.224
L115.211 226.841
L116.232 225.926
L117.253 226.297
L118.274 227.252
L119.296 226.607
L120.317 227.672
L121.337 225.412
L122.358 223.954
L123.379 225.1
L124.4 225.983
L125.42 227.296
L126.441 226.186
L127.461 225.428
L128.481 227.293
L129.502 226.843
L130.522 226.902
L131.542 227.713
L132.562 228.193
L133.582 230.311
L134.601 230.202
L135.621 232.496
L136.641 234.449
L137.66 233.202
L138.68 230.73
L139.699 233.572
L140.718 230.239
L141.738 234.142
L142.757 233.775
L143.776 239.599
L144.795 246.949
L145.813 259.683
L146.832 269.316
L147.851 269.708
L148.869 263.016
L150.906 244.427
L151.925 236.566
L152.943 231.633
L153.961 232.583
L154.979 229.488
L155.997 228.224
L157.015 229.393
L158.033 229.612
L159.051 229.418
L160.068 226.031
L161.086 225.449
L162.103 229.612
L163.121 230.154
L164.138 224.477
L165.155 226.241
L166.172 226.138
L167.19 226.602
L168.207 227.233
L169.223 224.852
L170.24 227.914
L171.257 226.045
L172.274 228.184
L173.29 228.589
L174.307 226.863
L175.323 228.666
L176.339 225.076
L177.355 228.024
L178.372 225.511
L179.388 228.238
L180.403 226.051
L181.419 225.005
L183.451 228.498
L184.466 226.72
L185.482 230.102
L186.497 234.316
L187.513 239.799
L188.528 253.024
L189.543 261.477
L190.558 260.972
L191.573 255.766
L192.588 242.82
L193.603 232.748
L194.618 228.801
L195.632 226.049
L196.647 230.53
L197.661 228.653
L198.676 225.298
L199.69 225.898
L200.704 225.158
L201.719 230.281
L202.733 230.719
L203.747 229.917
L204.76 227.808
L206.788 235.185
L207.802 236.871
L208.815 245.535
L209.829 243.983
L210.842 237.258
L211.855 239.268
L212.869 232.019
L213.882 230.044
L214.895 226.779
L216.92 226.162
L218.946 224.309
L219.959 227.916
L220.971 225.327
L221.984 224.807
L222.996 226.864
L224.008 223.874
L225.02 224.395
L225.02 224.395" style="fill:none;stroke:#008000;stroke-linecap:square;stroke-width:0.75;"/>
   </g>
   <g id="line2d_48">
    <path clip-path="url(#p92d66ec8eb)" d="
M49.6322 225.85
L50.8257 228.736
L52.019 225.255
L53.2123 226.066
L54.4055 225.717
L55.5986 227.486
L56.7916 227.53
L57.9845 227.944
L59.1774 227.012
L60.3702 226.613
L61.5629 227.019
L62.7555 226.583
L63.948 227.141
L66.3329 231.323
L67.5252 242.576
L68.7174 251.398
L69.9096 255.531
L71.1016 249.776
L72.2936 239.656
L73.4855 233.658
L74.6773 229.654
L75.8691 226.912
L77.0607 226.649
L78.2523 227.572
L79.4438 227.592
L80.6353 226.833
L81.8266 226.918
L83.0179 227.975
L84.209 226.555
L85.4001 225.789
L86.5912 227.651
L87.7821 226.939
L88.973 228.117
L90.1638 228.818
L91.3545 228.14
L92.5451 228.02
L93.7356 225.359
L96.1165 226.479
L97.3068 226.337
L98.497 227.74
L99.6871 226.26
L100.877 226.054
L102.067 227.638
L103.257 223.616
L104.447 225.331
L105.637 225.908
L106.826 226.118
L108.016 225.857
L109.205 228.685
L110.395 225.357
L111.584 225.786
L112.773 228.076
L113.963 225.933
L115.152 226.077
L116.341 223.993
L117.53 226.05
L118.719 227.504
L119.907 226.496
L121.096 227.533
L122.285 226.37
L124.662 226.691
L125.85 225.473
L127.038 227.801
L128.227 226.335
L129.415 225.636
L130.603 226.074
L131.791 228.428
L132.979 228.368
L134.166 231.351
L135.354 232.718
L136.542 232.774
L138.917 231.194
L140.104 231.845
L141.292 229.371
L142.479 232.918
L143.666 238.937
L144.853 248.986
L146.04 261.174
L147.227 269.968
L148.414 266.801
L149.601 257.586
L150.787 245.508
L151.974 235.807
L153.161 231.37
L154.347 229.994
L155.533 225.594
L156.72 226.286
L157.906 230.466
L159.092 227.268
L160.278 228.531
L161.464 228.185
L162.65 225.722
L163.836 225.59
L165.021 229.136
L166.207 226.426
L167.393 226.563
L168.578 226.327
L169.764 225.827
L170.949 226.943
L172.134 229.271
L173.319 225.942
L174.504 225.707
L175.689 227.202
L176.874 224.503
L178.059 226.896
L179.244 227.89
L180.429 226.709
L181.613 227.801
L182.798 227.834
L183.982 226.011
L185.167 229.061
L186.351 231.188
L187.535 242.69
L188.719 253.004
L189.903 259.433
L191.087 254.889
L192.271 243.868
L193.455 235.857
L194.639 230.605
L195.822 227.966
L197.006 226.816
L198.189 228.448
L199.373 226.513
L200.556 226.028
L201.739 226.406
L202.922 229.026
L204.106 229.523
L205.289 228.925
L206.471 233.161
L207.654 239.982
L208.837 243.906
L210.02 244.005
L211.202 237.704
L212.385 235.271
L213.567 232.299
L214.75 226.758
L215.932 227.087
L218.296 226.705
L220.66 225.659
L221.842 225.743
L223.024 226.22
L224.206 227.951
L225.387 227.242
L227.75 229.256
L227.75 229.256" style="fill:none;stroke:#bf00bf;stroke-linecap:square;stroke-width:0.75;"/>
   </g>
   <g id="matplotlib.axis_5">
    <g id="xtick_9">
     <g id="line2d_49">
      <g>
       <use style="stroke:#000000;stroke-width:0.5;" x="75.6" xlink:href="#mc7db9fdffb" y="298.08"/>
      </g>
     </g>
     <g id="line2d_50">
      <g>
       <use style="stroke:#000000;stroke-width:0.5;" x="75.6" xlink:href="#m5a7d422ac3" y="207.36"/>
      </g>
     </g>
    </g>
    <g id="xtick_10">
     <g id="line2d_51">
      <g>
       <use style="stroke:#000000;stroke-width:0.5;" x="126.0" xlink:href="#mc7db9fdffb" y="298.08"/>
      </g>
     </g>
     <g id="line2d_52">
      <g>
       <use style="stroke:#000000;stroke-width:0.5;" x="126.0" xlink:href="#m5a7d422ac3" y="207.36"/>
      </g>
     </g>
    </g>
    <g id="xtick_11">
     <g id="line2d_53">
      <g>
       <use style="stroke:#000000;stroke-width:0.5;" x="176.4" xlink:href="#mc7db9fdffb" y="298.08"/>
      </g>
     </g>
     <g id="line2d_54">
      <g>
       <use style="stroke:#000000;stroke-width:0.5;" x="176.4" xlink:href="#m5a7d422ac3" y="207.36"/>
      </g>
     </g>
    </g>
    <g id="xtick_12">
     <g id="line2d_55">
      <g>
       <use style="stroke:#000000;stroke-width:0.5;" x="226.8" xlink:href="#mc7db9fdffb" y="298.08"/>
      </g>
     </g>
     <g id="line2d_56">
      <g>
       <use style="stroke:#000000;stroke-width:0.5;" x="226.8" xlink:href="#m5a7d422ac3" y="207.36"/>
      </g>
     </g>
    </g>
   </g>
   <g id="matplotlib.axis_6">
    <g id="ytick_12">
     <g id="line2d_57">
      <g>
       <use style="stroke:#000000;stroke-width:0.5;" x="50.4" xlink:href="#md7965d1ba0" y="283.5648"/>
      </g>
     </g>
     <g id="line2d_58">
      <g>
       <use style="stroke:#000000;stroke-width:0.5;" x="226.8" xlink:href="#md9a1c1a7cd" y="283.5648"/>
      </g>
     </g>
     <g id="text_18">
      <!-- $0.4$ -->
      <g transform="translate(33.6699210237 286.055460025)scale(0.1 -0.1)">
       <use transform="scale(0.9962640099626402)" xlink:href="#CMR17-48"/>
       <use transform="translate(45.69047711706103 0.0)scale(0.9962640099626402)" xlink:href="#CMMI12-58"/>
       <use transform="translate(72.78765420688046 0.0)scale(0.9962640099626402)" xlink:href="#CMR17-52"/>
      </g>
     </g>
    </g>
    <g id="ytick_13">
     <g id="line2d_59">
      <g>
       <use style="stroke:#000000;stroke-width:0.5;" x="50.4" xlink:href="#md7965d1ba0" y="269.0496"/>
      </g>
     </g>
     <g id="line2d_60">
      <g>
       <use style="stroke:#000000;stroke-width:0.5;" x="226.8" xlink:href="#md9a1c1a7cd" y="269.0496"/>
      </g>
     </g>
     <g id="text_19">
      <!-- $0.8$ -->
      <g transform="translate(33.6699210237 271.540260025)scale(0.1 -0.1)">
       <use transform="scale(0.9962640099626402)" xlink:href="#CMR17-48"/>
       <use transform="translate(45.69047711706103 0.0)scale(0.9962640099626402)" xlink:href="#CMMI12-58"/>
       <use transform="translate(72.78765420688046 0.0)scale(0.9962640099626402)" xlink:href="#CMR17-56"/>
      </g>
     </g>
    </g>
    <g id="ytick_14">
     <g id="line2d_61">
      <g>
       <use style="stroke:#000000;stroke-width:0.5;" x="50.4" xlink:href="#md7965d1ba0" y="254.5344"/>
      </g>
     </g>
     <g id="line2d_62">
      <g>
       <use style="stroke:#000000;stroke-width:0.5;" x="226.8" xlink:href="#md9a1c1a7cd" y="254.5344"/>
      </g>
     </g>
     <g id="text_20">
      <!-- $1.2$ -->
      <g transform="translate(33.6699210237 257.025060025)scale(0.1 -0.1)">
       <use transform="scale(0.9962640099626402)" xlink:href="#CMR17-49"/>
       <use transform="translate(45.69047711706103 0.0)scale(0.9962640099626402)" xlink:href="#CMMI12-58"/>
       <use transform="translate(72.78765420688046 0.0)scale(0.9962640099626402)" xlink:href="#CMR17-50"/>
      </g>
     </g>
    </g>
    <g id="ytick_15">
     <g id="line2d_63">
      <g>
       <use style="stroke:#000000;stroke-width:0.5;" x="50.4" xlink:href="#md7965d1ba0" y="240.0192"/>
      </g>
     </g>
     <g id="line2d_64">
      <g>
       <use style="stroke:#000000;stroke-width:0.5;" x="226.8" xlink:href="#md9a1c1a7cd" y="240.0192"/>
      </g>
     </g>
     <g id="text_21">
      <!-- $1.6$ -->
      <g transform="translate(33.6699210237 242.509860025)scale(0.1 -0.1)">
       <use transform="scale(0.9962640099626402)" xlink:href="#CMR17-49"/>
       <use transform="translate(45.69047711706103 0.0)scale(0.9962640099626402)" xlink:href="#CMMI12-58"/>
       <use transform="translate(72.78765420688046 0.0)scale(0.9962640099626402)" xlink:href="#CMR17-54"/>
      </g>
     </g>
    </g>
    <g id="ytick_16">
     <g id="line2d_65">
      <g>
       <use style="stroke:#000000;stroke-width:0.5;" x="50.4" xlink:href="#md7965d1ba0" y="225.504"/>
      </g>
     </g>
     <g id="line2d_66">
      <g>
       <use style="stroke:#000000;stroke-width:0.5;" x="226.8" xlink:href="#md9a1c1a7cd" y="225.504"/>
      </g>
     </g>
     <g id="text_22">
      <!-- $2.0$ -->
      <g transform="translate(33.6699210237 227.994660025)scale(0.1 -0.1)">
       <use transform="scale(0.9962640099626402)" xlink:href="#CMR17-50"/>
       <use transform="translate(45.69047711706103 0.0)scale(0.9962640099626402)" xlink:href="#CMMI12-58"/>
       <use transform="translate(72.78765420688046 0.0)scale(0.9962640099626402)" xlink:href="#CMR17-48"/>
      </g>
     </g>
    </g>
    <g id="ytick_17">
     <g id="line2d_67">
      <g>
       <use style="stroke:#000000;stroke-width:0.5;" x="50.4" xlink:href="#md7965d1ba0" y="210.9888"/>
      </g>
     </g>
     <g id="line2d_68">
      <g>
       <use style="stroke:#000000;stroke-width:0.5;" x="226.8" xlink:href="#md9a1c1a7cd" y="210.9888"/>
      </g>
     </g>
     <g id="text_23">
      <!-- $2.4$ -->
      <g transform="translate(33.6699210237 213.479460025)scale(0.1 -0.1)">
       <use transform="scale(0.9962640099626402)" xlink:href="#CMR17-50"/>
       <use transform="translate(45.69047711706103 0.0)scale(0.9962640099626402)" xlink:href="#CMMI12-58"/>
       <use transform="translate(72.78765420688046 0.0)scale(0.9962640099626402)" xlink:href="#CMR17-52"/>
      </g>
     </g>
    </g>
    <g id="text_24">
     <!-- $\times10^{-13}$ -->
     <g transform="translate(50.4 204.36)scale(0.1 -0.1)">
      <use transform="scale(0.9962640099626402)" xlink:href="#CMSY10-2"/>
      <use transform="translate(77.4874676506071 0.0)scale(0.9962640099626402)" xlink:href="#CMR17-49"/>
      <use transform="translate(123.17794476766814 0.0)scale(0.9962640099626402)" xlink:href="#CMR17-48"/>
      <use transform="translate(168.86842188472914 36.15363894185866)scale(0.6973817666173724)" xlink:href="#CMSY10-0"/>
      <use transform="translate(223.1094151327055 36.15363894185866)scale(0.6973817666173724)" xlink:href="#CMR17-49"/>
      <use transform="translate(255.09259709682442 36.15363894185866)scale(0.6973817666173724)" xlink:href="#CMR17-51"/>
     </g>
    </g>
   </g>
   <g id="patch_13">
    <path d="
M50.4 298.08
L226.8 298.08" style="fill:none;stroke:#000000;"/>
   </g>
   <g id="patch_14">
    <path d="
M50.4 298.08
L50.4 207.36" style="fill:none;stroke:#000000;"/>
   </g>
   <g id="patch_15">
    <path d="
M226.8 298.08
L226.8 207.36" style="fill:none;stroke:#000000;"/>
   </g>
   <g id="patch_16">
    <path d="
M50.4 207.36
L226.8 207.36" style="fill:none;stroke:#000000;"/>
   </g>
   <g id="text_25">
    <!-- corrected data -->
    <defs>
     <path d="
M15.0938 40
L29.0938 40
L29.0938 42.5781
L15.0938 42.5781
L15.0938 61
L13.2969 61
C13.0938 50.7031 9.59375 41.6875 1.09375 41.6875
L1.09375 40
L9.79688 40
L9.79688 12.0469
C9.79688 10.1562 9.79688 -1 21.4062 -1
C27.2969 -1 30.7031 4.78125 30.7031 12.1406
L30.7031 17.8125
L28.9062 17.8125
L28.9062 12.2344
C28.9062 5.375 26.2031 0.796875 22 0.796875
C19.0938 0.796875 15.0938 2.78125 15.0938 11.8438
z
" id="CMR17-116"/>
    </defs>
    <g transform="translate(59.22 220.968)scale(0.1 -0.1)">
     <use transform="scale(0.9962640099626402)" xlink:href="#CMR17-99"/>
     <use transform="translate(40.48566046271794 0.0)scale(0.9962640099626402)" xlink:href="#CMR17-111"/>
     <use transform="translate(86.17613757977897 0.0)scale(0.9962640099626402)" xlink:href="#CMR17-114"/>
     <use transform="translate(121.45690537924192 0.0)scale(0.9962640099626402)" xlink:href="#CMR17-114"/>
     <use transform="translate(156.73767317870488 0.0)scale(0.9962640099626402)" xlink:href="#CMR17-101"/>
     <use transform="translate(197.2233336414228 0.0)scale(0.9962640099626402)" xlink:href="#CMR17-99"/>
     <use transform="translate(237.70899410414074 0.0)scale(0.9962640099626402)" xlink:href="#CMR17-116"/>
     <use transform="translate(272.9897619036037 0.0)scale(0.9962640099626402)" xlink:href="#CMR17-101"/>
     <use transform="translate(313.47542236632165 0.0)scale(0.9962640099626402)" xlink:href="#CMR17-100"/>
     <use transform="translate(394.4467584935399 0.0)scale(0.9962640099626402)" xlink:href="#CMR17-100"/>
     <use transform="translate(445.3421282738559 0.0)scale(0.9962640099626402)" xlink:href="#CMR17-97"/>
     <use transform="translate(491.0326053909169 0.0)scale(0.9962640099626402)" xlink:href="#CMR17-116"/>
     <use transform="translate(526.3133731903798 0.0)scale(0.9962640099626402)" xlink:href="#CMR17-97"/>
    </g>
   </g>
  </g>
  <g id="axes_4">
   <g id="patch_17">
    <path d="
M50.4 388.8
L226.8 388.8
L226.8 298.08
L50.4 298.08
z
" style="fill:#ffffff;"/>
   </g>
   <g id="line2d_69">
    <path clip-path="url(#pec31a4c604)" d="
M49.6686 318.778
L51.7221 319.649
L52.7487 319.881
L53.7752 319.753
L55.828 319.037
L56.8543 318.838
L59.9325 318.672
L61.9843 318.693
L63.0101 318.851
L64.0358 319.412
L65.0613 321.357
L66.0868 326.653
L67.1123 336.802
L68.1376 349.914
L69.1628 360.047
L70.188 361.211
L71.2131 352.684
L72.2381 339.698
L73.263 328.659
L74.2878 322.475
L75.3125 320.337
L76.3372 320.361
L77.3618 321.165
L78.3862 321.823
L79.4106 321.828
L80.4349 321.246
L81.4592 320.533
L82.4833 320.019
L84.5313 319.339
L85.5552 319.083
L86.579 318.994
L87.6027 319.098
L89.6499 319.55
L90.6734 319.644
L91.6967 319.541
L93.7432 319.063
L94.7663 319.002
L95.7894 319.173
L96.8123 319.575
L97.8352 320.38
L98.858 321.932
L99.8806 324.094
L100.903 325.806
L101.926 325.9
L102.948 324.264
L103.971 322.004
L104.993 320.417
L106.015 319.903
L107.037 320.05
L108.059 320.323
L109.081 320.414
L110.103 320.259
L113.168 319.403
L114.189 319.23
L115.211 319.171
L116.232 319.259
L119.296 319.958
L120.317 319.928
L123.379 319.359
L125.42 319.375
L130.522 319.671
L131.542 319.864
L132.562 320.441
L133.582 321.776
L135.621 325.702
L136.641 326.338
L137.66 325.486
L138.68 324.011
L139.699 323.134
L140.718 323.528
L141.738 325.504
L142.757 329.963
L143.776 338.462
L144.795 351.539
L145.813 366.607
L146.832 378.044
L147.851 380.351
L148.869 372.331
L150.906 343.729
L151.925 333.278
L152.943 327.3
L153.961 324.297
L154.979 322.759
L155.997 321.893
L157.015 321.373
L158.033 321.068
L159.051 320.933
L160.068 320.964
L162.103 321.274
L163.121 321.267
L164.138 321.045
L166.172 320.402
L168.207 320.169
L172.274 320.147
L173.29 320.302
L174.307 320.577
L175.323 320.988
L176.339 321.631
L178.372 323.273
L179.388 323.452
L180.403 322.872
L182.435 321.001
L183.451 320.608
L184.466 320.917
L185.482 322.861
L186.497 328.437
L187.513 338.951
L188.528 351.942
L189.543 361.035
L190.558 360.628
L191.573 351.006
L192.588 338.074
L193.603 328.033
L194.618 322.975
L195.632 321.338
L196.647 320.99
L198.676 320.738
L199.69 320.782
L200.704 321.29
L201.719 322.431
L204.76 327.055
L205.774 331.153
L206.788 339.427
L207.802 350.285
L208.815 358.439
L209.829 359.111
L210.842 352.134
L211.855 341.668
L212.869 332.357
L213.882 326.205
L214.895 322.884
L215.908 321.414
L216.92 320.921
L218.946 320.796
L222.996 320.754
L224.008 320.897
L225.02 321.572
L225.02 321.572" style="fill:none;stroke:#008000;stroke-linecap:square;stroke-width:0.75;"/>
   </g>
   <g id="line2d_70">
    <path clip-path="url(#pec31a4c604)" d="
M49.6322 316.962
L52.019 317.927
L53.2123 318.029
L56.7916 316.94
L60.3702 316.7
L61.5629 316.69
L62.7555 316.799
L63.948 317.331
L65.1405 319.643
L66.3329 326.783
L68.7174 355.115
L69.9096 360.698
L71.1016 352.531
L72.2936 337.273
L73.4855 324.902
L74.6773 319.175
L75.8691 318.028
L77.0607 318.75
L78.2523 319.61
L79.4438 319.642
L81.8266 318.081
L84.209 317.144
L85.4001 316.793
L86.5912 316.654
L87.7821 316.777
L90.1638 317.241
L91.3545 317.199
L93.7356 316.619
L94.9261 316.549
L96.1165 316.797
L97.3068 317.412
L98.497 318.823
L99.6871 321.251
L100.877 323.386
L102.067 323.351
L103.257 321.098
L104.447 318.572
L105.637 317.381
L106.826 317.373
L108.016 317.682
L109.205 317.76
L110.395 317.509
L112.773 316.765
L113.963 316.51
L115.152 316.4
L116.341 316.491
L118.719 317.068
L119.907 317.143
L123.473 316.457
L125.85 316.467
L130.603 316.682
L131.791 316.945
L132.979 317.878
L134.166 319.938
L135.354 322.382
L136.542 323.448
L137.729 322.446
L138.917 320.705
L140.104 320.075
L141.292 321.381
L142.479 325.488
L143.666 334.641
L144.853 350.159
L146.04 367.973
L147.227 378.808
L148.414 375.515
L149.601 360.396
L150.787 342.726
L151.974 329.966
L153.161 323.323
L154.347 320.344
L155.533 318.913
L156.72 318.137
L157.906 317.703
L159.092 317.514
L160.278 317.554
L162.65 317.834
L163.836 317.641
L166.207 316.841
L167.393 316.635
L170.949 316.464
L172.134 316.476
L173.319 316.635
L174.504 316.963
L175.689 317.506
L178.059 319.424
L179.244 319.814
L180.429 319.148
L181.613 317.911
L182.798 316.983
L183.982 316.81
L185.167 318.163
L186.351 323.695
L187.535 336.015
L188.719 351.497
L189.903 359.724
L191.087 353.853
L192.271 338.86
L193.455 325.505
L194.639 318.978
L195.822 317.202
L197.006 316.889
L199.373 316.631
L200.556 317.071
L201.739 318.384
L204.106 321.833
L205.289 324.85
L206.471 332.8
L207.654 345.61
L208.837 355.806
L210.02 355.536
L211.202 345.364
L212.385 332.772
L213.567 323.709
L214.75 318.954
L215.932 317.028
L217.114 316.474
L219.478 316.34
L223.024 316.236
L224.206 316.433
L225.387 317.628
L226.569 321.75
L227.75 329.792
L227.75 329.792" style="fill:none;stroke:#bf00bf;stroke-linecap:square;stroke-width:0.75;"/>
   </g>
   <g id="matplotlib.axis_7">
    <g id="xtick_13">
     <g id="line2d_71">
      <g>
       <use style="stroke:#000000;stroke-width:0.5;" x="75.6" xlink:href="#mc7db9fdffb" y="388.8"/>
      </g>
     </g>
     <g id="line2d_72">
      <g>
       <use style="stroke:#000000;stroke-width:0.5;" x="75.6" xlink:href="#m5a7d422ac3" y="298.08"/>
      </g>
     </g>
     <g id="text_26">
      <!-- 5230 -->
      <defs>
       <path d="
M11.4062 57.6875
C12.4062 57.2812 16.5 56 20.7031 56
C30 56 35.0938 61.0156 38 63.9219
C38 64.7344 38 65.25 37.4062 65.25
C37.2969 65.25 37.0938 65.25 36.2969 64.8281
C32.7969 63.3125 28.7031 62.0781 23.7031 62.0781
C20.7031 62.0781 16.2031 62.5 11.2969 64.7344
C10.2031 65.25 10 65.25 9.90625 65.25
C9.40625 65.25 9.29688 65.1406 9.29688 63.1562
L9.29688 34.2812
C9.29688 32.5 9.29688 32 10.2969 32
C10.7969 32 11 32.2031 11.5 32.9062
C14.7031 37.4844 19.0938 39.4062 24.0938 39.4062
C27.5938 39.4062 35.0938 37.2188 35.0938 20.1406
C35.0938 16.9531 35.0938 11.1719 32.0938 6.57812
C29.5938 2.48438 25.7031 0.390625 21.4062 0.390625
C14.7969 0.390625 8.09375 5 6.29688 12.7188
C6.70312 12.6094 7.5 12.4219 7.90625 12.4219
C9.20312 12.4219 11.7031 13.125 11.7031 16.2188
C11.7031 18.9062 9.79688 20 7.90625 20
C5.59375 20 4.09375 18.5938 4.09375 15.7969
C4.09375 7.09375 11 -2 21.5938 -2
C31.9062 -2 41.7031 6.875 41.7031 19.75
C41.7031 31.7188 33.9062 41 24.2031 41
C19.0938 41 14.7969 39.0938 11.4062 35.4531
z
" id="CMR17-53"/>
      </defs>
      <g transform="translate(65.6373294968 399.71849838)scale(0.1 -0.1)">
       <use transform="scale(0.9962640099626402)" xlink:href="#CMR17-53"/>
       <use transform="translate(45.69047711706103 0.0)scale(0.9962640099626402)" xlink:href="#CMR17-50"/>
       <use transform="translate(91.38095423412206 0.0)scale(0.9962640099626402)" xlink:href="#CMR17-51"/>
       <use transform="translate(137.07143135118307 0.0)scale(0.9962640099626402)" xlink:href="#CMR17-48"/>
      </g>
     </g>
    </g>
    <g id="xtick_14">
     <g id="line2d_73">
      <g>
       <use style="stroke:#000000;stroke-width:0.5;" x="126.0" xlink:href="#mc7db9fdffb" y="388.8"/>
      </g>
     </g>
     <g id="line2d_74">
      <g>
       <use style="stroke:#000000;stroke-width:0.5;" x="126.0" xlink:href="#m5a7d422ac3" y="298.08"/>
      </g>
     </g>
     <g id="text_27">
      <!-- 5232 -->
      <g transform="translate(116.037329497 399.71849838)scale(0.1 -0.1)">
       <use transform="scale(0.9962640099626402)" xlink:href="#CMR17-53"/>
       <use transform="translate(45.69047711706103 0.0)scale(0.9962640099626402)" xlink:href="#CMR17-50"/>
       <use transform="translate(91.38095423412206 0.0)scale(0.9962640099626402)" xlink:href="#CMR17-51"/>
       <use transform="translate(137.07143135118307 0.0)scale(0.9962640099626402)" xlink:href="#CMR17-50"/>
      </g>
     </g>
    </g>
    <g id="xtick_15">
     <g id="line2d_75">
      <g>
       <use style="stroke:#000000;stroke-width:0.5;" x="176.4" xlink:href="#mc7db9fdffb" y="388.8"/>
      </g>
     </g>
     <g id="line2d_76">
      <g>
       <use style="stroke:#000000;stroke-width:0.5;" x="176.4" xlink:href="#m5a7d422ac3" y="298.08"/>
      </g>
     </g>
     <g id="text_28">
      <!-- 5234 -->
      <g transform="translate(166.437329497 399.71849838)scale(0.1 -0.1)">
       <use transform="scale(0.9962640099626402)" xlink:href="#CMR17-53"/>
       <use transform="translate(45.69047711706103 0.0)scale(0.9962640099626402)" xlink:href="#CMR17-50"/>
       <use transform="translate(91.38095423412206 0.0)scale(0.9962640099626402)" xlink:href="#CMR17-51"/>
       <use transform="translate(137.07143135118307 0.0)scale(0.9962640099626402)" xlink:href="#CMR17-52"/>
      </g>
     </g>
    </g>
    <g id="xtick_16">
     <g id="line2d_77">
      <g>
       <use style="stroke:#000000;stroke-width:0.5;" x="226.8" xlink:href="#mc7db9fdffb" y="388.8"/>
      </g>
     </g>
     <g id="line2d_78">
      <g>
       <use style="stroke:#000000;stroke-width:0.5;" x="226.8" xlink:href="#m5a7d422ac3" y="298.08"/>
      </g>
     </g>
     <g id="text_29">
      <!-- 5236 -->
      <g transform="translate(216.837329497 399.71849838)scale(0.1 -0.1)">
       <use transform="scale(0.9962640099626402)" xlink:href="#CMR17-53"/>
       <use transform="translate(45.69047711706103 0.0)scale(0.9962640099626402)" xlink:href="#CMR17-50"/>
       <use transform="translate(91.38095423412206 0.0)scale(0.9962640099626402)" xlink:href="#CMR17-51"/>
       <use transform="translate(137.07143135118307 0.0)scale(0.9962640099626402)" xlink:href="#CMR17-54"/>
      </g>
     </g>
    </g>
    <g id="text_30">
     <!-- $\lambda$  [\AA] -->
     <g transform="translate(127.530373708 415.335620816)scale(0.1 -0.1)">
      <use transform="scale(0.9962640099626402)" xlink:href="#CMMI12-21"/>
      <use transform="translate(86.98003823552305 0.0)scale(0.9962640099626402)" xlink:href="#CMR17-91"/>
      <use transform="translate(111.85109671738793 17.61874416251557)scale(0.9962640099626402)" xlink:href="#CMR17-23"/>
      <use transform="translate(111.85109671738793 0.0)scale(0.9962640099626402)" xlink:href="#CMR17-65"/>
      <use transform="translate(180.92352652163763 0.0)scale(0.9962640099626402)" xlink:href="#CMR17-93"/>
     </g>
    </g>
   </g>
   <g id="matplotlib.axis_8">
    <g id="ytick_18">
     <g id="line2d_79">
      <g>
       <use style="stroke:#000000;stroke-width:0.5;" x="50.4" xlink:href="#md7965d1ba0" y="378.127058824"/>
      </g>
     </g>
     <g id="line2d_80">
      <g>
       <use style="stroke:#000000;stroke-width:0.5;" x="226.8" xlink:href="#md9a1c1a7cd" y="378.127058824"/>
      </g>
     </g>
     <g id="text_31">
      <!-- $0.9$ -->
      <g transform="translate(33.6699210237 380.617718848)scale(0.1 -0.1)">
       <use transform="scale(0.9962640099626402)" xlink:href="#CMR17-48"/>
       <use transform="translate(45.69047711706103 0.0)scale(0.9962640099626402)" xlink:href="#CMMI12-58"/>
       <use transform="translate(72.78765420688046 0.0)scale(0.9962640099626402)" xlink:href="#CMR17-57"/>
      </g>
     </g>
    </g>
    <g id="ytick_19">
     <g id="line2d_81">
      <g>
       <use style="stroke:#000000;stroke-width:0.5;" x="50.4" xlink:href="#md7965d1ba0" y="362.117647059"/>
      </g>
     </g>
     <g id="line2d_82">
      <g>
       <use style="stroke:#000000;stroke-width:0.5;" x="226.8" xlink:href="#md9a1c1a7cd" y="362.117647059"/>
      </g>
     </g>
     <g id="text_32">
      <!-- $1.2$ -->
      <g transform="translate(33.6699210237 364.608307084)scale(0.1 -0.1)">
       <use transform="scale(0.9962640099626402)" xlink:href="#CMR17-49"/>
       <use transform="translate(45.69047711706103 0.0)scale(0.9962640099626402)" xlink:href="#CMMI12-58"/>
       <use transform="translate(72.78765420688046 0.0)scale(0.9962640099626402)" xlink:href="#CMR17-50"/>
      </g>
     </g>
    </g>
    <g id="ytick_20">
     <g id="line2d_83">
      <g>
       <use style="stroke:#000000;stroke-width:0.5;" x="50.4" xlink:href="#md7965d1ba0" y="346.108235294"/>
      </g>
     </g>
     <g id="line2d_84">
      <g>
       <use style="stroke:#000000;stroke-width:0.5;" x="226.8" xlink:href="#md9a1c1a7cd" y="346.108235294"/>
      </g>
     </g>
     <g id="text_33">
      <!-- $1.5$ -->
      <g transform="translate(33.6699210237 348.598895319)scale(0.1 -0.1)">
       <use transform="scale(0.9962640099626402)" xlink:href="#CMR17-49"/>
       <use transform="translate(45.69047711706103 0.0)scale(0.9962640099626402)" xlink:href="#CMMI12-58"/>
       <use transform="translate(72.78765420688046 0.0)scale(0.9962640099626402)" xlink:href="#CMR17-53"/>
      </g>
     </g>
    </g>
    <g id="ytick_21">
     <g id="line2d_85">
      <g>
       <use style="stroke:#000000;stroke-width:0.5;" x="50.4" xlink:href="#md7965d1ba0" y="330.098823529"/>
      </g>
     </g>
     <g id="line2d_86">
      <g>
       <use style="stroke:#000000;stroke-width:0.5;" x="226.8" xlink:href="#md9a1c1a7cd" y="330.098823529"/>
      </g>
     </g>
     <g id="text_34">
      <!-- $1.8$ -->
      <g transform="translate(33.6699210237 332.589483554)scale(0.1 -0.1)">
       <use transform="scale(0.9962640099626402)" xlink:href="#CMR17-49"/>
       <use transform="translate(45.69047711706103 0.0)scale(0.9962640099626402)" xlink:href="#CMMI12-58"/>
       <use transform="translate(72.78765420688046 0.0)scale(0.9962640099626402)" xlink:href="#CMR17-56"/>
      </g>
     </g>
    </g>
    <g id="ytick_22">
     <g id="line2d_87">
      <g>
       <use style="stroke:#000000;stroke-width:0.5;" x="50.4" xlink:href="#md7965d1ba0" y="314.089411765"/>
      </g>
     </g>
     <g id="line2d_88">
      <g>
       <use style="stroke:#000000;stroke-width:0.5;" x="226.8" xlink:href="#md9a1c1a7cd" y="314.089411765"/>
      </g>
     </g>
     <g id="text_35">
      <!-- $2.1$ -->
      <g transform="translate(33.6699210237 316.58007179)scale(0.1 -0.1)">
       <use transform="scale(0.9962640099626402)" xlink:href="#CMR17-50"/>
       <use transform="translate(45.69047711706103 0.0)scale(0.9962640099626402)" xlink:href="#CMMI12-58"/>
       <use transform="translate(72.78765420688046 0.0)scale(0.9962640099626402)" xlink:href="#CMR17-49"/>
      </g>
     </g>
    </g>
    <g id="ytick_23">
     <g id="line2d_89">
      <g>
       <use style="stroke:#000000;stroke-width:0.5;" x="50.4" xlink:href="#md7965d1ba0" y="298.08"/>
      </g>
     </g>
     <g id="line2d_90">
      <g>
       <use style="stroke:#000000;stroke-width:0.5;" x="226.8" xlink:href="#md9a1c1a7cd" y="298.08"/>
      </g>
     </g>
     <g id="text_36">
      <!-- $2.4$ -->
      <g transform="translate(33.6699210237 300.570660025)scale(0.1 -0.1)">
       <use transform="scale(0.9962640099626402)" xlink:href="#CMR17-50"/>
       <use transform="translate(45.69047711706103 0.0)scale(0.9962640099626402)" xlink:href="#CMMI12-58"/>
       <use transform="translate(72.78765420688046 0.0)scale(0.9962640099626402)" xlink:href="#CMR17-52"/>
      </g>
     </g>
    </g>
    <g id="text_37">
     <!-- $\times10^{-13}$ -->
     <g transform="translate(50.4 295.08)scale(0.1 -0.1)">
      <use transform="scale(0.9962640099626402)" xlink:href="#CMSY10-2"/>
      <use transform="translate(77.4874676506071 0.0)scale(0.9962640099626402)" xlink:href="#CMR17-49"/>
      <use transform="translate(123.17794476766814 0.0)scale(0.9962640099626402)" xlink:href="#CMR17-48"/>
      <use transform="translate(168.86842188472914 36.15363894185866)scale(0.6973817666173724)" xlink:href="#CMSY10-0"/>
      <use transform="translate(223.1094151327055 36.15363894185866)scale(0.6973817666173724)" xlink:href="#CMR17-49"/>
      <use transform="translate(255.09259709682442 36.15363894185866)scale(0.6973817666173724)" xlink:href="#CMR17-51"/>
     </g>
    </g>
   </g>
   <g id="patch_18">
    <path d="
M50.4 388.8
L226.8 388.8" style="fill:none;stroke:#000000;"/>
   </g>
   <g id="patch_19">
    <path d="
M50.4 388.8
L50.4 298.08" style="fill:none;stroke:#000000;"/>
   </g>
   <g id="patch_20">
    <path d="
M226.8 388.8
L226.8 298.08" style="fill:none;stroke:#000000;"/>
   </g>
   <g id="patch_21">
    <path d="
M50.4 298.08
L226.8 298.08" style="fill:none;stroke:#000000;"/>
   </g>
   <g id="text_38">
    <!-- distorted model -->
    <defs>
     <path d="
M15.2969 68.6875
L3.40625 67.5938
L3.40625 65
C9.29688 65 10.2031 64.4062 10.2031 59.6406
L10.2031 6.65625
C10.2031 2.875 9.79688 2.39062 3.40625 2.39062
L3.40625 -0.203125
C5.79688 0 10.2031 0 12.7031 0
C15.2969 0 19.7031 0 22.0938 -0.203125
L22.0938 2.39062
C15.7031 2.39062 15.2969 2.78125 15.2969 6.65625
z
" id="CMR17-108"/>
     <path d="
M15.5 61.0781
C15.5 63.2656 13.7031 65.1562 11.4062 65.1562
C9.20312 65.1562 7.29688 63.375 7.29688 61.0781
C7.29688 58.8906 9.09375 57 11.4062 57
C13.5938 57 15.5 58.7969 15.5 61.0781
M3.79688 42.2812
L3.79688 39.7031
C9.40625 39.7031 10.2031 39.0938 10.2031 34.3281
L10.2031 6.67188
C10.2031 2.875 9.79688 2.39062 3.40625 2.39062
L3.40625 -0.203125
C5.79688 0 10.0938 0 12.5938 0
C15 0 19.0938 0 21.4062 -0.203125
L21.4062 2.39062
C15.5 2.39062 15.2969 2.98438 15.2969 6.5625
L15.2969 43.375
z
" id="CMR17-105"/>
    </defs>
    <g transform="translate(59.22 311.688)scale(0.1 -0.1)">
     <use transform="scale(0.9962640099626402)" xlink:href="#CMR17-100"/>
     <use transform="translate(50.89536978031601 0.0)scale(0.9962640099626402)" xlink:href="#CMR17-105"/>
     <use transform="translate(75.7664282621809 0.0)scale(0.9962640099626402)" xlink:href="#CMR17-115"/>
     <use transform="translate(111.56776589741595 0.0)scale(0.9962640099626402)" xlink:href="#CMR17-116"/>
     <use transform="translate(146.84853369687892 0.0)scale(0.9962640099626402)" xlink:href="#CMR17-111"/>
     <use transform="translate(192.53901081393994 0.0)scale(0.9962640099626402)" xlink:href="#CMR17-114"/>
     <use transform="translate(227.8197786134029 0.0)scale(0.9962640099626402)" xlink:href="#CMR17-116"/>
     <use transform="translate(263.10054641286587 0.0)scale(0.9962640099626402)" xlink:href="#CMR17-101"/>
     <use transform="translate(303.5862068755838 0.0)scale(0.9962640099626402)" xlink:href="#CMR17-100"/>
     <use transform="translate(384.55754300280205 0.0)scale(0.9962640099626402)" xlink:href="#CMR17-109"/>
     <use transform="translate(461.47713287087487 0.0)scale(0.9962640099626402)" xlink:href="#CMR17-111"/>
     <use transform="translate(509.77004871867223 0.0)scale(0.9962640099626402)" xlink:href="#CMR17-100"/>
     <use transform="translate(560.6654184989882 0.0)scale(0.9962640099626402)" xlink:href="#CMR17-101"/>
     <use transform="translate(601.1510789617062 0.0)scale(0.9962640099626402)" xlink:href="#CMR17-108"/>
    </g>
   </g>
  </g>
  <g id="text_39">
   <!-- $f_\lambda \quad [\textrm{erg}\;\textrm{cm}^{-2}\;\textrm{s}^{-1}\;\textrm{\AA}^{-1}]$ -->
   <g transform="translate(26.3847183657 351.366886383)rotate(-90.0)scale(0.1 -0.1)">
    <use transform="translate(0.0 14.943914544092468)scale(0.9962640099626402)" xlink:href="#CMMI12-102"/>
    <use transform="translate(48.083237663449566 0.0)scale(0.6973817666173724)" xlink:href="#CMMI12-21"/>
    <use transform="translate(179.79508301389322 14.943914544092468)scale(0.9962640099626402)" xlink:href="#CMR17-91"/>
    <use transform="translate(204.66614149575813 14.943914544092468)scale(0.9962640099626402)" xlink:href="#CMR17-101"/>
    <use transform="translate(245.15180195847606 14.943914544092468)scale(0.9962640099626402)" xlink:href="#CMR17-114"/>
    <use transform="translate(280.432569757939 14.943914544092468)scale(0.9962640099626402)" xlink:href="#CMR17-103"/>
    <use transform="translate(353.7970555971747 14.943914544092468)scale(0.9962640099626402)" xlink:href="#CMR17-99"/>
    <use transform="translate(394.2827160598926 14.943914544092468)scale(0.9962640099626402)" xlink:href="#CMR17-109"/>
    <use transform="translate(471.2023059279655 51.097553485951124)scale(0.6973817666173724)" xlink:href="#CMSY10-0"/>
    <use transform="translate(525.4432991759419 51.097553485951124)scale(0.6973817666173724)" xlink:href="#CMR17-50"/>
    <use transform="translate(585.5986218672167 14.943914544092468)scale(0.9962640099626402)" xlink:href="#CMR17-115"/>
    <use transform="translate(621.3999595024518 51.097553485951124)scale(0.6973817666173724)" xlink:href="#CMSY10-0"/>
    <use transform="translate(675.6409527504281 51.097553485951124)scale(0.6973817666173724)" xlink:href="#CMR17-49"/>
    <use transform="translate(735.7962754417031 32.56265870660803)scale(0.9962640099626402)" xlink:href="#CMR17-23"/>
    <use transform="translate(735.7962754417031 14.943914544092468)scale(0.9962640099626402)" xlink:href="#CMR17-65"/>
    <use transform="translate(804.8687052459528 74.82118143388077)scale(0.6973817666173724)" xlink:href="#CMSY10-0"/>
    <use transform="translate(859.109698493929 74.82118143388077)scale(0.6973817666173724)" xlink:href="#CMR17-49"/>
    <use transform="translate(891.5910124630293 14.943914544092468)scale(0.9962640099626402)" xlink:href="#CMR17-93"/>
   </g>
  </g>
 </g>
 <defs>
  <clipPath id="p25804d97c3">
   <rect height="90.72" width="176.4" x="50.4" y="25.92"/>
  </clipPath>
  <clipPath id="p501ab32ebe">
   <rect height="90.72" width="176.4" x="50.4" y="116.64"/>
  </clipPath>
  <clipPath id="p92d66ec8eb">
   <rect height="90.72" width="176.4" x="50.4" y="207.36"/>
  </clipPath>
  <clipPath id="pec31a4c604">
   <rect height="90.72" width="176.4" x="50.4" y="298.08"/>
  </clipPath>
 </defs>
</svg>
