<?xml version="1.0" encoding="utf-8" standalone="no"?>
<!DOCTYPE svg PUBLIC "-//W3C//DTD SVG 1.1//EN"
  "http://www.w3.org/Graphics/SVG/1.1/DTD/svg11.dtd">
<!-- Created with matplotlib (http://matplotlib.org/) -->
<svg height="432pt" version="1.1" viewBox="0 0 252 432" width="252pt" xmlns="http://www.w3.org/2000/svg" xmlns:xlink="http://www.w3.org/1999/xlink">
 <defs>
  <style type="text/css">
*{stroke-linecap:butt;stroke-linejoin:round;}
  </style>
 </defs>
 <g id="figure_1">
  <g id="patch_1">
   <path d="
M0 432
L252 432
L252 0
L0 0
z
" style="fill:#ffffff;"/>
  </g>
  <g id="axes_1">
   <g id="patch_2">
    <path d="
M50.4 116.64
L226.8 116.64
L226.8 25.92
L50.4 25.92
z
" style="fill:#ffffff;"/>
   </g>
   <g id="line2d_1">
    <path clip-path="url(#p25804d97c3)" d="
M49.6686 46.239
L50.6954 48.516
L51.7221 44.0385
L52.7487 49.0446
L53.7752 44.117
L54.8016 46.3975
L55.828 44.4058
L56.8543 47.1205
L57.8804 41.9347
L58.9065 43.58
L59.9325 48.2962
L60.9585 42.4805
L61.9843 45.5985
L63.0101 43.6434
L64.0358 47.152
L65.0613 49.4196
L66.0868 55.675
L67.1123 63.5128
L68.1376 74.1938
L69.1628 86.7959
L70.188 83.9369
L71.2131 78.7469
L73.263 52.9831
L74.2878 52.2591
L75.3125 48.0883
L76.3372 50.1765
L77.3618 50.4303
L78.3862 51.6245
L79.4106 48.8846
L80.4349 50.7343
L81.4592 47.9743
L82.4833 48.2552
L83.5074 45.2829
L84.5313 47.9772
L85.5552 47.1986
L86.579 47.9996
L87.6027 48.0548
L88.6264 47.8967
L89.6499 48.679
L90.6734 47.6649
L91.6967 45.9322
L92.72 48.064
L93.7432 47.4903
L94.7663 49.5749
L95.7894 44.2004
L96.8123 46.8025
L98.858 43.5857
L99.8806 46.8438
L100.903 48.3464
L101.926 48.2603
L102.948 46.7303
L103.971 50.149
L104.993 45.0874
L106.015 46.4103
L107.037 45.5042
L108.059 48.0928
L109.081 42.7556
L110.103 46.9177
L111.125 47.3245
L112.146 44.7185
L113.168 47.1095
L114.189 47.2538
L115.211 46.759
L116.232 45.5631
L117.253 46.0636
L118.274 47.3354
L119.296 46.4946
L120.317 47.911
L121.337 44.9421
L122.358 43.0302
L123.379 44.5536
L124.4 45.7291
L125.42 47.471
L126.441 46.0195
L127.461 45.0315
L128.481 47.5006
L129.502 46.9196
L130.522 47.0081
L131.542 48.0884
L132.562 48.7321
L133.582 51.531
L134.601 51.3985
L135.621 54.4298
L136.641 57.0115
L137.66 55.38
L138.68 52.1374
L139.699 55.8889
L140.718 51.5147
L141.738 56.6599
L142.757 56.1873
L143.776 63.8566
L144.795 73.5323
L145.813 90.2828
L146.832 102.953
L147.851 103.474
L148.869 94.6831
L150.906 70.2694
L151.925 59.951
L152.943 53.4807
L153.961 54.7395
L154.979 50.6864
L155.997 49.0382
L157.015 50.5849
L158.033 50.8839
L159.051 50.6407
L160.068 46.2065
L161.086 45.4563
L162.103 50.9301
L163.121 51.6532
L164.138 44.218
L165.155 46.5445
L166.172 46.4217
L167.19 47.0426
L168.207 47.8829
L169.223 44.7733
L170.24 48.7999
L171.257 46.3631
L172.274 49.1774
L173.29 49.7203
L174.307 47.4719
L175.323 49.8459
L176.339 45.1574
L177.355 49.0304
L178.372 45.7523
L179.388 49.3357
L180.403 46.4843
L181.419 45.1282
L183.451 49.7254
L184.466 47.4115
L185.482 51.8479
L186.497 57.3713
L187.513 64.5542
L188.528 81.8557
L189.543 92.9151
L190.558 92.2613
L191.573 85.4648
L192.588 68.554
L193.603 55.4036
L194.618 50.2596
L195.632 46.678
L196.647 52.544
L197.661 50.1046
L198.676 45.7369
L199.69 46.5333
L200.704 45.581
L201.719 52.2806
L202.733 52.8646
L203.747 51.8316
L204.76 49.0921
L206.788 58.7397
L207.802 60.9509
L208.815 72.2586
L209.829 70.2455
L210.842 61.4895
L211.855 64.1206
L212.869 54.6854
L213.882 52.125
L214.895 47.8848
L216.92 47.1083
L218.946 44.7237
L219.959 49.4335
L220.971 46.0768
L221.984 45.4148
L222.996 48.105
L224.008 44.2288
L225.02 44.9214
L225.02 44.9214" style="fill:none;stroke:#008000;stroke-linecap:square;stroke-width:0.75;"/>
   </g>
   <g id="line2d_2">
    <path clip-path="url(#p25804d97c3)" d="
M49.6322 43.1717
L50.8257 47.067
L52.019 42.3597
L53.2123 43.4523
L54.4055 42.976
L55.5986 45.3633
L56.7916 45.4194
L57.9845 45.9757
L59.1774 44.7119
L60.3702 44.1686
L61.5629 44.714
L62.7555 44.1216
L63.948 44.8718
L66.3329 50.5188
L67.5252 65.7282
L68.7174 77.6526
L69.9096 83.2389
L71.1016 75.4561
L72.2936 61.7694
L73.4855 53.6563
L74.6773 48.2387
L75.8691 44.5274
L77.0607 44.168
L78.2523 45.4122
L79.4438 45.4364
L80.6353 44.4062
L81.8266 44.5181
L83.0179 45.9445
L84.209 44.0197
L85.4001 42.9809
L86.5912 45.4968
L87.7821 44.5303
L88.973 46.1207
L90.1638 47.0657
L91.3545 46.1449
L92.5451 45.9792
L93.7356 42.3756
L94.9261 43.1984
L96.1165 43.8844
L97.3068 43.6889
L98.497 45.5843
L99.6871 43.5782
L100.877 43.2968
L102.067 45.4375
L103.257 39.9903
L104.447 42.3085
L105.637 43.0858
L106.826 43.3669
L108.016 43.0106
L109.205 46.8362
L110.395 42.3275
L111.584 42.9048
L112.773 46.0017
L113.963 43.0976
L115.152 43.2903
L116.341 40.4659
L117.53 43.2476
L118.719 45.2128
L119.907 43.8455
L121.096 45.2457
L122.285 43.6693
L124.662 44.097
L125.85 42.4448
L127.038 45.5947
L128.227 43.607
L129.415 42.6571
L130.603 43.2477
L131.791 46.4323
L132.979 46.3486
L134.166 50.3858
L135.354 52.2346
L136.542 52.3081
L138.917 50.1628
L140.104 51.0421
L141.292 47.6889
L142.479 52.4909
L143.666 60.6422
L144.853 74.2554
L146.04 90.7661
L147.227 102.679
L148.414 98.3866
L149.601 85.9006
L150.787 69.5334
L151.974 56.3865
L153.161 50.3708
L154.347 48.5038
L155.533 42.5396
L156.72 43.4743
L157.906 49.137
L159.092 44.8001
L160.278 46.5096
L161.464 46.0383
L162.65 42.6975
L163.836 42.5153
L165.021 47.3189
L166.207 43.6433
L167.393 43.8264
L168.578 43.5053
L169.764 42.8248
L170.949 44.3353
L172.134 47.4877
L173.319 42.973
L174.504 42.6525
L175.689 44.6757
L176.874 41.0148
L178.059 44.2565
L179.244 45.6015
L180.429 43.9982
L181.613 45.477
L182.798 45.5199
L183.982 43.0446
L185.167 47.1784
L186.351 50.0602
L187.535 65.6559
L188.719 79.6402
L189.903 88.3577
L191.087 82.1945
L192.271 67.246
L193.455 56.3798
L194.639 49.2548
L195.822 45.6735
L197.006 44.112
L198.189 46.3238
L199.373 43.6967
L200.556 43.0365
L201.739 43.548
L202.922 47.0987
L204.106 47.7715
L205.289 46.9589
L206.471 52.7031
L207.654 61.9535
L208.837 67.2748
L210.02 67.4082
L211.202 58.8588
L212.385 55.5556
L213.567 51.5225
L214.75 44.0022
L215.932 44.4462
L218.296 43.9249
L220.66 42.501
L221.842 42.6131
L223.024 43.2595
L224.206 45.606
L225.387 44.6423
L227.75 47.3708
L227.75 47.3708" style="fill:none;stroke:#bf00bf;stroke-linecap:square;stroke-width:0.75;"/>
   </g>
   <g id="matplotlib.axis_1">
    <g id="xtick_1">
     <g id="line2d_3">
      <defs>
       <path d="
M0 0
L0 -4" id="mc7db9fdffb" style="stroke:#000000;stroke-width:0.5;"/>
      </defs>
      <g>
       <use style="stroke:#000000;stroke-width:0.5;" x="75.6" xlink:href="#mc7db9fdffb" y="116.64"/>
      </g>
     </g>
     <g id="line2d_4">
      <defs>
       <path d="
M0 0
L0 4" id="m5a7d422ac3" style="stroke:#000000;stroke-width:0.5;"/>
      </defs>
      <g>
       <use style="stroke:#000000;stroke-width:0.5;" x="75.6" xlink:href="#m5a7d422ac3" y="25.92"/>
      </g>
     </g>
    </g>
    <g id="xtick_2">
     <g id="line2d_5">
      <g>
       <use style="stroke:#000000;stroke-width:0.5;" x="126.0" xlink:href="#mc7db9fdffb" y="116.64"/>
      </g>
     </g>
     <g id="line2d_6">
      <g>
       <use style="stroke:#000000;stroke-width:0.5;" x="126.0" xlink:href="#m5a7d422ac3" y="25.92"/>
      </g>
     </g>
    </g>
    <g id="xtick_3">
     <g id="line2d_7">
      <g>
       <use style="stroke:#000000;stroke-width:0.5;" x="176.4" xlink:href="#mc7db9fdffb" y="116.64"/>
      </g>
     </g>
     <g id="line2d_8">
      <g>
       <use style="stroke:#000000;stroke-width:0.5;" x="176.4" xlink:href="#m5a7d422ac3" y="25.92"/>
      </g>
     </g>
    </g>
    <g id="xtick_4">
     <g id="line2d_9">
      <g>
       <use style="stroke:#000000;stroke-width:0.5;" x="226.8" xlink:href="#mc7db9fdffb" y="116.64"/>
      </g>
     </g>
     <g id="line2d_10">
      <g>
       <use style="stroke:#000000;stroke-width:0.5;" x="226.8" xlink:href="#m5a7d422ac3" y="25.92"/>
      </g>
     </g>
    </g>
   </g>
   <g id="matplotlib.axis_2">
    <g id="ytick_1">
     <g id="line2d_11">
      <defs>
       <path d="
M0 0
L4 0" id="md7965d1ba0" style="stroke:#000000;stroke-width:0.5;"/>
      </defs>
      <g>
       <use style="stroke:#000000;stroke-width:0.5;" x="50.4" xlink:href="#md7965d1ba0" y="102.163404255"/>
      </g>
     </g>
     <g id="line2d_12">
      <defs>
       <path d="
M0 0
L-4 0" id="md9a1c1a7cd" style="stroke:#000000;stroke-width:0.5;"/>
      </defs>
      <g>
       <use style="stroke:#000000;stroke-width:0.5;" x="226.8" xlink:href="#md9a1c1a7cd" y="102.163404255"/>
      </g>
     </g>
     <g id="text_1">
      <!-- $0.8$ -->
      <defs>
       <path d="
M42 31.6406
C42 37.75 41.9062 48.125 37.7031 56.1094
C34 63.1094 28.0938 65.5938 22.9062 65.5938
C18.0938 65.5938 12 63.4062 8.20312 56.2031
C4.20312 48.7188 3.79688 39.4375 3.79688 31.6406
C3.79688 25.9531 3.90625 17.2812 7 9.67188
C11.2969 -0.609375 19 -2 22.9062 -2
C27.5 -2 34.5 -0.109375 38.5938 9.375
C41.5938 16.2812 42 24.3594 42 31.6406
M22.9062 -0.40625
C16.5 -0.40625 12.7031 5.07812 11.2969 12.6875
C10.2031 18.5625 10.2031 27.1562 10.2031 32.75
C10.2031 40.4375 10.2031 46.8281 11.5 52.9219
C13.4062 61.3906 19 64 22.9062 64
C27 64 32.2969 61.2969 34.2031 53.125
C35.5 47.4375 35.5938 40.7344 35.5938 32.75
C35.5938 26.25 35.5938 18.2656 34.4062 12.375
C32.2969 1.48438 26.4062 -0.40625 22.9062 -0.40625" id="CMR17-48"/>
       <path d="
M27.2031 35.375
C33.5 38.5625 39.9062 43.3281 39.9062 50.9844
C39.9062 60.0312 31.0938 65.2969 23 65.2969
C13.9062 65.2969 5.90625 58.7344 5.90625 49.6875
C5.90625 47.2031 6.5 42.9219 10.4062 39.1406
C11.4062 38.1562 15.5938 35.1719 18.2969 33.2812
C13.7969 30.9844 3.29688 25.5312 3.29688 14.5938
C3.29688 4.35938 13.0938 -2 22.7969 -2
C33.5 -2 42.5 5.65625 42.5 15.7969
C42.5 24.8438 36.4062 29.0312 32.4062 31.7031
z

M14.0938 44.125
C13.2969 44.625 9.29688 47.7031 9.29688 52.375
C9.29688 58.4375 15.5938 63 22.7969 63
C30.7031 63 36.5 57.4531 36.5 50.9844
C36.5 41.7344 26.0938 36.4688 25.5938 36.4688
C25.5 36.4688 25.4062 36.4688 24.5938 37.0781
z

M32.5 23.7344
C34 22.6406 38.7969 19.375 38.7969 13.2969
C38.7969 5.95312 31.4062 0.390625 23 0.390625
C13.9062 0.390625 7 6.84375 7 14.6875
C7 22.5469 13.0938 29.0938 20 32.1875
z
" id="CMR17-56"/>
       <path d="
M18.4062 4.79688
C18.4062 7.6875 16 9.67188 13.5938 9.67188
C10.7031 9.67188 8.70312 7.28125 8.70312 4.89062
C8.70312 2 11.0938 0 13.5 0
C16.4062 0 18.4062 2.39062 18.4062 4.79688" id="CMMI12-58"/>
      </defs>
      <g transform="translate(33.6699210237 104.65406428)scale(0.1 -0.1)">
       <use transform="scale(0.9962640099626402)" xlink:href="#CMR17-48"/>
       <use transform="translate(45.69047711706103 0.0)scale(0.9962640099626402)" xlink:href="#CMMI12-58"/>
       <use transform="translate(72.78765420688046 0.0)scale(0.9962640099626402)" xlink:href="#CMR17-56"/>
      </g>
     </g>
    </g>
    <g id="ytick_2">
     <g id="line2d_13">
      <g>
       <use style="stroke:#000000;stroke-width:0.5;" x="50.4" xlink:href="#md7965d1ba0" y="82.8612765957"/>
      </g>
     </g>
     <g id="line2d_14">
      <g>
       <use style="stroke:#000000;stroke-width:0.5;" x="226.8" xlink:href="#md9a1c1a7cd" y="82.8612765957"/>
      </g>
     </g>
     <g id="text_2">
      <!-- $1.2$ -->
      <defs>
       <path d="
M26.5938 63.3125
C26.5938 65.4062 26.5 65.5 25.0938 65.5
C21.2031 61.1875 15.2969 59.7969 9.70312 59.7969
C9.40625 59.7969 8.90625 59.7969 8.79688 59.6094
C8.70312 59.3906 8.70312 59.1719 8.70312 57
C11.7969 57 17 57.5938 21 59.9844
L21 7.20312
C21 3.6875 20.7969 2.5 12.2031 2.5
L9.20312 2.5
L9.20312 0
C14 0 19 0 23.7969 0
C28.5938 0 33.5938 0 38.4062 0
L38.4062 2.5
L35.4062 2.5
C26.7969 2.5 26.5938 3.59375 26.5938 7.15625
z
" id="CMR17-49"/>
       <path d="
M41.7031 15.4531
L39.9062 15.4531
C38.9062 8.375 38.0938 7.17188 37.7031 6.5625
C37.2031 5.76562 30 5.76562 28.5938 5.76562
L9.40625 5.76562
C13 9.67188 20 16.75 28.5 24.9531
C34.5938 30.7344 41.7031 37.5312 41.7031 47.4219
C41.7031 59.2188 32.2969 66 21.7969 66
C10.7969 66 4.09375 56.3125 4.09375 47.3438
C4.09375 43.4375 7 42.9375 8.20312 42.9375
C9.20312 42.9375 12.2031 43.5469 12.2031 47.0312
C12.2031 50.1094 9.59375 51 8.20312 51
C7.59375 51 7 50.9062 6.59375 50.7031
C8.5 59.2188 14.2969 63.4062 20.4062 63.4062
C29.0938 63.4062 34.7969 56.5156 34.7969 47.4219
C34.7969 38.7344 29.7031 31.25 24 24.75
L4.09375 2.28125
L4.09375 0
L39.2969 0
z
" id="CMR17-50"/>
      </defs>
      <g transform="translate(33.6699210237 85.3519366207)scale(0.1 -0.1)">
       <use transform="scale(0.9962640099626402)" xlink:href="#CMR17-49"/>
       <use transform="translate(45.69047711706103 0.0)scale(0.9962640099626402)" xlink:href="#CMMI12-58"/>
       <use transform="translate(72.78765420688046 0.0)scale(0.9962640099626402)" xlink:href="#CMR17-50"/>
      </g>
     </g>
    </g>
    <g id="ytick_3">
     <g id="line2d_15">
      <g>
       <use style="stroke:#000000;stroke-width:0.5;" x="50.4" xlink:href="#md7965d1ba0" y="63.5591489362"/>
      </g>
     </g>
     <g id="line2d_16">
      <g>
       <use style="stroke:#000000;stroke-width:0.5;" x="226.8" xlink:href="#md9a1c1a7cd" y="63.5591489362"/>
      </g>
     </g>
     <g id="text_3">
      <!-- $1.6$ -->
      <defs>
       <path d="
M10.5938 34
C10.5938 57.6562 21.7969 63 28.2969 63
C30.4062 63 35.5 62.6406 37.5 59
C35.9062 59 32.9062 59 32.9062 55.5156
C32.9062 52.8281 35.0938 51.9219 36.5 51.9219
C37.4062 51.9219 40.0938 52.3125 40.0938 55.625
C40.0938 61.7812 35.0938 65.2969 28.2031 65.2969
C16.2969 65.2969 3.79688 52.9688 3.79688 31
C3.79688 3.95312 15.0938 -2 23.0938 -2
C32.7969 -2 42 6.67188 42 20.0469
C42 32.5156 33.9062 41.5938 23.7031 41.5938
C17.5938 41.5938 13.0938 37.6094 10.5938 30.625
z

M23.0938 0.390625
C10.7969 0.390625 10.7969 18.75 10.7969 22.4375
C10.7969 29.625 14.2031 40 23.5 40
C25.2031 40 30.0938 40 33.4062 33.125
C35.2031 29.2188 35.2031 25.1406 35.2031 20.1406
C35.2031 14.75 35.2031 10.7812 33.0938 6.78125
C30.9062 2.67188 27.7031 0.390625 23.0938 0.390625" id="CMR17-54"/>
      </defs>
      <g transform="translate(33.6699210237 66.0498089611)scale(0.1 -0.1)">
       <use transform="scale(0.9962640099626402)" xlink:href="#CMR17-49"/>
       <use transform="translate(45.69047711706103 0.0)scale(0.9962640099626402)" xlink:href="#CMMI12-58"/>
       <use transform="translate(72.78765420688046 0.0)scale(0.9962640099626402)" xlink:href="#CMR17-54"/>
      </g>
     </g>
    </g>
    <g id="ytick_4">
     <g id="line2d_17">
      <g>
       <use style="stroke:#000000;stroke-width:0.5;" x="50.4" xlink:href="#md7965d1ba0" y="44.2570212766"/>
      </g>
     </g>
     <g id="line2d_18">
      <g>
       <use style="stroke:#000000;stroke-width:0.5;" x="226.8" xlink:href="#md9a1c1a7cd" y="44.2570212766"/>
      </g>
     </g>
     <g id="text_4">
      <!-- $2.0$ -->
      <g transform="translate(33.6699210237 46.7476813015)scale(0.1 -0.1)">
       <use transform="scale(0.9962640099626402)" xlink:href="#CMR17-50"/>
       <use transform="translate(45.69047711706103 0.0)scale(0.9962640099626402)" xlink:href="#CMMI12-58"/>
       <use transform="translate(72.78765420688046 0.0)scale(0.9962640099626402)" xlink:href="#CMR17-48"/>
      </g>
     </g>
    </g>
    <g id="text_5">
     <!-- $f_\lambda \quad [\textrm{erg}\;\textrm{cm}^{-2}\;\textrm{s}^{-1}\;\textrm{\AA}^{-1}]$ -->
     <defs>
      <path d="
M14.2969 74.4844
L1.40625 74.4844
L1.40625 71
L10.7969 71
L10.7969 -21.5156
L1.40625 -21.5156
L1.40625 -25
L14.2969 -25
z
" id="CMR17-93"/>
      <path d="
M38.0938 23
C38.5 23.4062 38.5 23.6094 38.5 24.625
C38.5 34.9688 33.0938 44 21.7031 44
C11.0938 44 2.70312 33.8906 2.70312 21.6094
C2.70312 8.60938 12.2031 -1 22.7969 -1
C34 -1 38.4062 9.46875 38.4062 11.5469
C38.4062 12.25 37.7969 12.25 37.5938 12.25
C36.9062 12.25 36.7969 12.0469 36.4062 10.875
C34.2031 4.14062 28.7031 0.796875 23.5 0.796875
C19.2031 0.796875 14.9062 3.17188 12.2031 7.5
C9.09375 12.5469 9.09375 18.375 9.09375 23
z

M9.20312 24.5
C9.90625 39.1406 17.5938 42.4062 21.5938 42.4062
C28.4062 42.4062 33 35.8906 33.0938 24.5
z
" id="CMR17-101"/>
      <path d="
M36.2969 68.4062
C35.7969 69.7031 35.5938 70 34.5938 70
C33.5938 70 33.4062 69.7031 32.9062 68.4062
L11.7031 8.84375
C9.79688 3.48438 5.79688 2.39062 2.29688 2.39062
L2.29688 -0.203125
C4.09375 0 8.09375 0 10 0
C12.5 0 16.5 0 18.9062 -0.203125
L18.9062 2.39062
C14.2031 2.39062 13.5 5.64062 13.5 6.85938
C13.5 7.76562 13.7031 8.28125 13.9062 8.89062
L19.2031 24
L45.4062 24
L51.4062 6.90625
C51.9062 5.70312 51.9062 5.5 51.9062 5.10938
C51.9062 2.39062 47.5938 2.39062 45.7031 2.39062
L45.7031 0
C48.5938 0 53.7969 0 56.9062 0
C59.5 0 64.5 0 66.9062 -0.203125
L66.9062 2.39062
C61.5938 2.39062 59.7969 2.39062 58.5 6.04688
z

M32.2969 60.5312
L44.5 26.5938
L20.0938 26.5938
z
" id="CMR17-65"/>
      <path d="
M30.9062 42.1094
C30.9062 43.9062 30.7969 44 30.2031 44
C29.7969 44 29.7031 43.9062 28.5 42.4219
C28.2031 42.0156 27.2969 41.0156 27 40.625
C23.7969 44 19.2969 44 17.5938 44
C6.5 44 2.5 38.1719 2.5 32.375
C2.5 23.3438 12.7031 21.25 15.5938 20.6406
C21.9062 19.3438 24.0938 18.9375 26.2031 17.125
C27.5 15.9375 29.7031 13.7344 29.7031 10.125
C29.7031 5.90625 27.2969 0.5 18.0938 0.5
C9.40625 0.5 6.29688 7.0625 4.5 15.8281
C4.20312 17.2188 4.20312 17.3281 3.40625 17.3281
C2.59375 17.3281 2.5 17.2188 2.5 15.2344
L2.5 0.890625
C2.5 -0.890625 2.59375 -1 3.20312 -1
C3.70312 -1 3.79688 -0.890625 4.29688 -0.09375
C4.90625 0.796875 6.40625 3.1875 7 4.1875
C9 1.54688 12.5 -1 18.0938 -1
C28 -1 33.2969 4.40625 33.2969 12.2344
C33.2969 17.3438 30.5938 20.0625 29.2969 21.25
C26.2969 24.375 22.7969 25.0625 18.5938 25.8594
C13.0938 27.0781 6.09375 28.4688 6.09375 34.5938
C6.09375 37.1875 7.5 42.7188 17.5938 42.7188
C28.2969 42.7188 28.9062 32.75 29.0938 29.5625
C29.2031 29.0781 29.7031 28.9688 30 28.9688
C30.9062 28.9688 30.9062 29.2812 30.9062 30.9688
z
" id="CMR17-115"/>
      <path d="
M23.5 -25
L23.5 -21.5156
L14.0938 -21.5156
L14.0938 71
L23.5 71
L23.5 74.4844
L10.5938 74.4844
L10.5938 -25
z
" id="CMR17-91"/>
      <path d="
M67.5938 30.2031
C67.5938 35.1875 66.7031 43.5938 54.7969 43.5938
C48 43.5938 43.2969 39 41.5 33.5938
L41.4062 33.5938
C40.2031 41.7969 34.2969 43.5938 28.7031 43.5938
C20.7969 43.5938 16.7031 37.5625 15.2031 33.5938
L15.0938 33.5938
L15.0938 43.5938
L3.29688 42.5
L3.29688 39.9062
C9.20312 39.9062 10.0938 39.2969 10.0938 34.5
L10.0938 6.6875
C10.0938 2.875 9.70312 2.39062 3.29688 2.39062
L3.29688 -0.203125
C5.70312 0 10.0938 0 12.7031 0
C15.2969 0 19.7969 0 22.2031 -0.203125
L22.2031 2.39062
C15.7969 2.39062 15.4062 2.78125 15.4062 6.6875
L15.4062 25.9062
C15.4062 35.1094 21 42 28 42
C35.4062 42 36.2031 35.4062 36.2031 30.5938
L36.2031 6.6875
C36.2031 2.875 35.7969 2.39062 29.4062 2.39062
L29.4062 -0.203125
C31.7969 0 36.2031 0 38.7969 0
C41.4062 0 45.9062 0 48.2969 -0.203125
L48.2969 2.39062
C41.9062 2.39062 41.5 2.78125 41.5 6.6875
L41.5 25.9062
C41.5 35.1094 47.0938 42 54.0938 42
C61.5 42 62.2969 35.4062 62.2969 30.5938
L62.2969 6.6875
C62.2969 2.875 61.9062 2.39062 55.5 2.39062
L55.5 -0.203125
C57.9062 0 62.2969 0 64.9062 0
C67.5 0 72 0 74.4062 -0.203125
L74.4062 2.39062
C68 2.39062 67.5938 2.78125 67.5938 6.6875
z
" id="CMR17-109"/>
      <path d="
M43.2969 61.8125
C43.2969 66.7969 39.2969 70.5938 34.5938 70.5938
C29.9062 70.5938 25.9062 66.7969 25.9062 61.8125
C25.9062 56.7969 29.9062 53 34.5938 53
C39.2969 53 43.2969 56.7969 43.2969 61.8125
M34.5938 54.5938
C30.4062 54.5938 27.7031 57.1875 27.7031 61.8125
C27.7031 66.5 30.5 69 34.5938 69
C38.7969 69 41.5 66.4062 41.5 61.8125
C41.5 57.0938 38.7031 54.5938 34.5938 54.5938" id="CMR17-23"/>
      <path d="
M65.9062 23
C67.5938 23 69.4062 23 69.4062 25
C69.4062 27 67.5938 27 65.9062 27
L11.7969 27
C10.0938 27 8.29688 27 8.29688 25
C8.29688 23 10.0938 23 11.7969 23
z
" id="CMSY10-0"/>
      <path d="
M30.9062 61.9531
C28.4062 69 20.5 69 19.2031 69
C18.5938 69 17.5 69 17.5 68
C17.5 67.2188 18.0938 67.1094 18.5938 67.0156
C20.0938 66.8125 21.2969 66.6094 22.9062 63.75
C23.9062 61.8594 34.2031 32.1719 34.2031 31.9688
C34.2031 31.875 34.0938 31.7656 33.2969 30.9688
L7.29688 4.85938
C6.09375 3.65625 5.29688 2.85938 5.29688 1.59375
C5.29688 0.1875 6.5 -1 8.09375 -1
C8.5 -1 9.59375 -0.796875 10.2031 -0.203125
C11.7969 1.28125 26.0938 18.6562 35.2031 29.3906
C37.7969 21.6094 41 12.4531 44.0938 4.07812
C44.5938 2.59375 45.0938 1.1875 46.5 -0.09375
C47.5 -1 47.7031 -1 50.5 -1
L52.4062 -1
C52.7969 -1 53.5 -1 53.5 -0.171875
C53.5 0.265625 53.4062 0.359375 53 0.78125
C52.0938 1.875 51.4062 3.65625 51 4.84375
z
" id="CMMI12-21"/>
      <path d="
M44.5938 40.0938
C46.5938 40.0938 47.4062 40.0938 47.4062 42
C47.4062 43 46.5938 43 44.7969 43
L36.7031 43
C38.5938 53.5781 40 60.8906 40.7969 64.1719
C41.4062 66.6406 43.5 69 46.0938 69
C48.2031 69 50.2969 68.0938 51.2969 67.1562
C47.4062 66.75 46.2031 63.7812 46.2031 62.0156
C46.2031 59.9531 47.7031 58.7344 49.5938 58.7344
C51.5938 58.7344 54.5938 60.4688 54.5938 64.3594
C54.5938 68.6406 50.4062 71 46 71
C41.7031 71 37.5 67.7188 35.5 63.7188
C33.7031 60.125 32.7031 56.4375 30.4062 43
L23.7031 43
C21.7969 43 20.7969 43 20.7969 41.2031
C20.7969 40.0938 21.4062 40.0938 23.4062 40.0938
L29.7969 40.0938
C28 30.875 23.9062 8.46875 21.5938 -2.14062
C19.9062 -10.7656 18.4062 -18 13.4062 -18
C13.0938 -18 10.2031 -18 8.40625 -16.1094
C13.5 -15.7031 13.5 -11.3438 13.5 -11.25
C13.5 -9.26562 12 -8.07812 10.0938 -8.07812
C8.09375 -8.07812 5.09375 -9.76562 5.09375 -13.5469
C5.09375 -17.8125 9.5 -20 13.4062 -20
C23.5938 -20 27.7969 -1.84375 28.9062 3.10938
C30.7031 10.75 35.5938 37.125 36.0938 40.0938
z
" id="CMMI12-102"/>
      <path d="
M34.9062 35
C33 35 30.2031 35 30.2031 31.5156
C30.2031 28.7188 32.5 27.9219 33.7969 27.9219
C34.5 27.9219 37.4062 28.2344 37.4062 31.625
C37.4062 38.5469 30.5938 43.7969 22.9062 43.7969
C12.2969 43.7969 3.29688 34.0312 3.29688 21.2969
C3.29688 8.0625 12.7031 -1 22.9062 -1
C35.2969 -1 38.4062 10.5938 38.4062 11.6875
C38.4062 12.0938 38.2969 12.3906 37.5938 12.3906
C36.9062 12.3906 36.7969 12.2969 36.4062 10.9844
C33.7969 2.8125 28.0938 0.796875 23.7969 0.796875
C17.4062 0.796875 9.70312 6.67188 9.70312 21.3906
C9.70312 36.5312 17.0938 42 23 42
C26.9062 42 32.7031 40.2031 34.9062 35" id="CMR17-99"/>
      <path d="
M11.0938 18.1875
C13 16.6875 16.2969 15 20.2969 15
C28.2031 15 35 21.2031 35 29.5
C35 32.0938 34.2031 36.0938 31.2031 39.2031
C34 42.0625 38.0938 43 40.4062 43
C40.7969 43 41.4062 43 41.9062 42.7656
C41.5 42.6719 40.5938 42.2812 40.5938 40.7344
C40.5938 39.4844 41.5 38.6094 42.7969 38.6094
C44.2969 38.6094 45.0938 39.5781 45.0938 40.8438
C45.0938 42.6719 43.5938 44.5938 40.4062 44.5938
C36.4062 44.5938 32.9062 42.7812 30.0938 40.3125
C27.0938 43.0156 23.5 44 20.2969 44
C12.4062 44 5.59375 37.7969 5.59375 29.5
C5.59375 23.7812 8.90625 20.1875 9.90625 19.1875
C6.90625 15.6875 6.90625 11.6094 6.90625 11.1094
C6.90625 8.51562 7.90625 4.71875 11.2969 2.625
C6.09375 1.32812 2 -2.64062 2 -7.59375
C2 -14.7344 11.5 -20 22.9062 -20
C33.9062 -20 43.7969 -14.9375 43.7969 -7.48438
C43.7969 6 29 6 21.2969 6
C19 6 14.9062 6 14.4062 6.10938
C11.2969 6.60938 9.20312 9.40625 9.20312 12.8906
C9.20312 13.7812 9.20312 16 11.0938 18.1875
M20.2969 16.6875
C11.5 16.6875 11.5 27.5 11.5 29.5156
C11.5 31.5 11.5 42.3125 20.2969 42.3125
C29.0938 42.3125 29.0938 31.5 29.0938 29.5156
C29.0938 27.5 29.0938 16.6875 20.2969 16.6875
M22.9062 -18.2969
C12.9062 -18.2969 6 -13.0469 6 -7.59375
C6 -4.51562 7.70312 -1.64062 9.90625 -0.0625
C12.4062 1.625 13.4062 1.625 20.2031 1.625
C28.4062 1.625 39.7969 1.625 39.7969 -7.59375
C39.7969 -13.0469 32.9062 -18.2969 22.9062 -18.2969" id="CMR17-103"/>
      <path d="
M15 23.3906
C15 33 19.0938 42 26.5938 42
C27.2969 42 28 41.9062 28.7031 41.5938
C28.7031 41.5938 26.5 40.8906 26.5 38.3125
C26.5 35.9062 28.4062 34.9062 29.9062 34.9062
C31.0938 34.9062 33.2969 35.6094 33.2969 38.4062
C33.2969 41.6094 30.0938 43.5938 26.7031 43.5938
C19.0938 43.5938 15.7969 36.2031 14.7969 32.7031
L14.7031 32.7031
L14.7031 43.5938
L3.09375 42.5
L3.09375 39.9062
C9 39.9062 9.90625 39.2969 9.90625 34.5
L9.90625 6.6875
C9.90625 2.875 9.5 2.39062 3.09375 2.39062
L3.09375 -0.203125
C5.5 0 10.0938 0 12.7031 0
C15.5938 0 20.7031 0 23.4062 -0.203125
L23.4062 2.39062
C16.2031 2.39062 15 2.39062 15 6.875
z
" id="CMR17-114"/>
     </defs>
     <g transform="translate(22.7327426934 122.995802374)rotate(-90.0)scale(0.1 -0.1)">
      <use transform="translate(0.0 14.943914544092468)scale(0.9962640099626402)" xlink:href="#CMMI12-102"/>
      <use transform="translate(48.083237663449566 0.0)scale(0.6973817666173724)" xlink:href="#CMMI12-21"/>
      <use transform="translate(179.79508301389322 14.943914544092468)scale(0.9962640099626402)" xlink:href="#CMR17-91"/>
      <use transform="translate(204.66614149575813 14.943914544092468)scale(0.9962640099626402)" xlink:href="#CMR17-101"/>
      <use transform="translate(245.15180195847606 14.943914544092468)scale(0.9962640099626402)" xlink:href="#CMR17-114"/>
      <use transform="translate(280.432569757939 14.943914544092468)scale(0.9962640099626402)" xlink:href="#CMR17-103"/>
      <use transform="translate(353.7970555971747 14.943914544092468)scale(0.9962640099626402)" xlink:href="#CMR17-99"/>
      <use transform="translate(394.2827160598926 14.943914544092468)scale(0.9962640099626402)" xlink:href="#CMR17-109"/>
      <use transform="translate(471.2023059279655 51.097553485951124)scale(0.6973817666173724)" xlink:href="#CMSY10-0"/>
      <use transform="translate(525.4432991759419 51.097553485951124)scale(0.6973817666173724)" xlink:href="#CMR17-50"/>
      <use transform="translate(585.5986218672167 14.943914544092468)scale(0.9962640099626402)" xlink:href="#CMR17-115"/>
      <use transform="translate(621.3999595024518 51.097553485951124)scale(0.6973817666173724)" xlink:href="#CMSY10-0"/>
      <use transform="translate(675.6409527504281 51.097553485951124)scale(0.6973817666173724)" xlink:href="#CMR17-49"/>
      <use transform="translate(735.7962754417031 32.56265870660803)scale(0.9962640099626402)" xlink:href="#CMR17-23"/>
      <use transform="translate(735.7962754417031 14.943914544092468)scale(0.9962640099626402)" xlink:href="#CMR17-65"/>
      <use transform="translate(804.8687052459528 74.82118143388077)scale(0.6973817666173724)" xlink:href="#CMSY10-0"/>
      <use transform="translate(859.109698493929 74.82118143388077)scale(0.6973817666173724)" xlink:href="#CMR17-49"/>
      <use transform="translate(891.5910124630293 14.943914544092468)scale(0.9962640099626402)" xlink:href="#CMR17-93"/>
     </g>
    </g>
    <g id="text_6">
     <!-- $\times10^{-13}$ -->
     <defs>
      <path d="
M38.9062 27.8906
L18.9062 47.7969
C17.7031 49 17.5 49.1875 16.7031 49.1875
C15.7031 49.1875 14.7031 48.2969 14.7031 47.1875
C14.7031 46.5 14.9062 46.2969 16 45.1875
L36 25.0938
L16 5
C14.9062 3.89062 14.7031 3.6875 14.7031 3
C14.7031 1.89062 15.7031 1 16.7031 1
C17.5 1 17.7031 1.1875 18.9062 2.39062
L38.7969 22.2969
L59.5 1.59375
C59.7031 1.5 60.4062 1 61 1
C62.2031 1 63 1.89062 63 3
C63 3.1875 63 3.59375 62.7031 4.09375
C62.5938 4.29688 46.7031 20 41.7031 25.0938
L60 43.3906
C60.5 44 62 45.2969 62.5 45.8906
C62.5938 46.0938 63 46.5 63 47.1875
C63 48.2969 62.2031 49.1875 61 49.1875
C60.2031 49.1875 59.7969 48.7969 58.7031 47.6875
z
" id="CMSY10-2"/>
      <path d="
M22.0938 33.7031
C31 33.7031 34.9062 25.9688 34.9062 17.0312
C34.9062 5 28.5 0.390625 22.7031 0.390625
C17.4062 0.390625 8.79688 3.03125 6.09375 10.8281
C6.59375 10.625 7.09375 10.625 7.59375 10.625
C10 10.625 11.7969 12.2188 11.7969 14.8125
C11.7969 17.7031 9.59375 19 7.59375 19
C5.90625 19 3.29688 18.2031 3.29688 14.4688
C3.29688 5.23438 12.2969 -2 22.9062 -2
C34 -2 42.5 6.71875 42.5 16.9531
C42.5 26.6719 34.5 33.6875 25 34.7969
C32.5938 36.375 39.9062 43.0625 39.9062 52.0156
C39.9062 59.6875 32 65.2969 23 65.2969
C13.9062 65.2969 5.90625 59.8281 5.90625 52.0156
C5.90625 48.5938 8.5 48 9.79688 48
C11.9062 48 13.7031 49.2969 13.7031 51.8906
C13.7031 54.4688 11.9062 55.7656 9.79688 55.7656
C9.40625 55.7656 8.90625 55.7656 8.5 55.5625
C11.4062 61.8594 19.2969 63 22.7969 63
C26.2969 63 32.9062 61.3281 32.9062 51.875
C32.9062 49.1094 32.5 44.1875 29.0938 39.8438
C26.0938 36 22.7031 36 19.4062 35.5938
C18.9062 35.5938 16.5938 35.5938 16.2031 35.5938
C15.5 35.4844 15.0938 35.3906 15.0938 34.5938
C15.0938 33.8125 15.2031 33.7031 17.2031 33.7031
z
" id="CMR17-51"/>
     </defs>
     <g transform="translate(50.4 22.92)scale(0.1 -0.1)">
      <use transform="scale(0.9962640099626402)" xlink:href="#CMSY10-2"/>
      <use transform="translate(77.4874676506071 0.0)scale(0.9962640099626402)" xlink:href="#CMR17-49"/>
      <use transform="translate(123.17794476766814 0.0)scale(0.9962640099626402)" xlink:href="#CMR17-48"/>
      <use transform="translate(168.86842188472914 36.15363894185866)scale(0.6973817666173724)" xlink:href="#CMSY10-0"/>
      <use transform="translate(223.1094151327055 36.15363894185866)scale(0.6973817666173724)" xlink:href="#CMR17-49"/>
      <use transform="translate(255.09259709682442 36.15363894185866)scale(0.6973817666173724)" xlink:href="#CMR17-51"/>
     </g>
    </g>
   </g>
   <g id="patch_3">
    <path d="
M50.4 116.64
L226.8 116.64" style="fill:none;stroke:#000000;"/>
   </g>
   <g id="patch_4">
    <path d="
M50.4 116.64
L50.4 25.92" style="fill:none;stroke:#000000;"/>
   </g>
   <g id="patch_5">
    <path d="
M50.4 25.92
L226.8 25.92" style="fill:none;stroke:#000000;"/>
   </g>
   <g id="patch_6">
    <path d="
M226.8 116.64
L226.8 25.92" style="fill:none;stroke:#000000;"/>
   </g>
   <g id="text_7">
    <!-- raw -->
    <defs>
     <path d="
M58.2031 34.0781
C60.2031 40 64.2031 40 65.7031 40
L65.7031 42.6875
C63.7031 42.6875 61.7031 42.6875 59.7031 42.6875
C57.7969 42.6875 53.5 42.6875 51.7969 42.7812
L51.7969 40
C54.9062 40 56.5938 38.1875 56.5938 35.7031
C56.5938 35 56.4062 34.0938 56.2031 33.4062
L46.7969 6.20312
L36.5938 35.5156
C36.4062 36.2188 36.0938 37.0156 36.0938 37.4062
C36.0938 40 39.5 40 41.0938 40
L41.0938 42.7812
C38.7969 42.6875 34.5938 42.6875 32.2031 42.6875
C29.7031 42.6875 27.0938 42.6875 24.7969 42.7812
L24.7969 40
C30.2969 40 30.2969 39.7969 32.4062 33.7031
L23.2031 6.90625
L13.2969 35.625
C12.7969 36.9062 12.7969 37.1094 12.7969 37.4062
C12.7969 40 16.2031 40 17.7969 40
L17.7969 42.7812
C15.4062 42.6875 11.2031 42.6875 8.70312 42.6875
C6.5 42.6875 3.09375 42.6875 1 42.7812
L1 40
C5.40625 40 6.5 39.7031 7.59375 36.4062
L19.9062 0.59375
C20.2969 -0.703125 20.5938 -1 21.4062 -1
C22.0938 -1 22.5 -0.796875 23 0.703125
L33.2969 30.9062
L43.7031 0.703125
C44.2031 -0.796875 44.5938 -1 45.2969 -1
C46.0938 -1 46.4062 -0.703125 46.7969 0.609375
z
" id="CMR17-119"/>
     <path d="
M36 25.8281
C36 32.375 36 35.8438 31.7969 39.7344
C28.0938 43 23.7969 44 20.4062 44
C12.5 44 6.79688 37.6094 6.79688 30.7969
C6.79688 27 9.79688 27 10.4062 27
C11.7031 27 14 27.7812 14 30.5312
C14 33 12.0938 34.0781 10.4062 34.0781
C10 34.0781 9.5 33.9688 9.20312 33.875
C11.2969 40.5 16.7031 42.4062 20.2031 42.4062
C25.2031 42.4062 30.7031 37.9531 30.7031 29.4531
L30.7031 25
C24.7969 25 17.7031 24.2031 12.0938 21.2031
C5.79688 17.7031 4 12.7031 4 8.90625
C4 1.20312 13 -1 18.2969 -1
C23.7969 -1 28.9062 2.17188 31.0938 7.98438
C31.2969 3.64062 34.0938 -0.28125 38.5 -0.28125
C40.5938 -0.28125 45.9062 1.09375 45.9062 8.85938
L45.9062 14.375
L44.0938 14.375
L44.0938 8.78125
C44.0938 2.78125 41.4062 2 40.0938 2
C36 2 36 7.15625 36 11.5312
z

M30.7031 13.5938
C30.7031 4.95312 24.5 0.59375 19 0.59375
C14 0.59375 10.0938 4.29688 10.0938 8.90625
C10.0938 11.8906 11.4062 17.1875 17.2031 20.3906
C22 23.0938 27.5 23.5 30.7031 23.5
z
" id="CMR17-97"/>
    </defs>
    <g transform="translate(59.22 39.528)scale(0.1 -0.1)">
     <use transform="scale(0.9962640099626402)" xlink:href="#CMR17-114"/>
     <use transform="translate(35.28076779946296 0.0)scale(0.9962640099626402)" xlink:href="#CMR17-97"/>
     <use transform="translate(78.3687909840053 0.0)scale(0.9962640099626402)" xlink:href="#CMR17-119"/>
    </g>
   </g>
   <g id="legend_1">
    <g id="line2d_19">
     <path d="
M69.7368 102.203
L89.7368 102.203" style="fill:none;stroke:#008000;stroke-linecap:square;stroke-width:0.75;"/>
    </g>
    <g id="line2d_20"/>
    <g id="text_8">
     <!-- order 23 -->
     <defs>
      <path d="
M43.0938 21.1875
C43.0938 34 33.7969 44 22.9062 44
C12 44 2.70312 34 2.70312 21.1875
C2.70312 8.60938 12 -1 22.9062 -1
C33.7969 -1 43.0938 8.60938 43.0938 21.1875
M22.9062 0.796875
C18.2031 0.796875 14.2031 3.59375 11.9062 7.5
C9.40625 11.9844 9.09375 17.5938 9.09375 22
C9.09375 26.2031 9.29688 31.4062 11.9062 35.9062
C13.9062 39.2031 17.7969 42.4062 22.9062 42.4062
C27.4062 42.4062 31.2031 39.9062 33.5938 36.4062
C36.7031 31.7031 36.7031 25.1094 36.7031 22
C36.7031 18.0938 36.5 12.1094 33.7969 7.29688
C31 2.70312 26.7031 0.796875 22.9062 0.796875" id="CMR17-111"/>
      <path d="
M29.2031 67.5938
L29.2031 65
C35.0938 65 36 64.4062 36 59.6875
L36 36.6406
C35.5938 37.1406 31.5 43.5938 23.4062 43.5938
C13.2031 43.5938 3.29688 34.5 3.29688 21.3125
C3.29688 8.20312 12.5938 -1 22.4062 -1
C30.9062 -1 35.2969 5.26562 35.7969 5.9375
L35.7969 -0.984375
L47.9062 -0.984375
L47.9062 2
C42 2 41.0938 2.59375 41.0938 7.39062
L41.0938 68.6875
z

M35.7969 11.7969
C35.7969 8.79688 34 6.09375 31.7031 4.09375
C28.2969 1.09375 24.9062 0.59375 23 0.59375
C20.0938 0.59375 9.70312 2.09375 9.70312 21.1875
C9.70312 40.8125 21.2969 42 23.9062 42
C28.5 42 32.2031 39.4062 34.5 35.7969
C35.7969 33.7031 35.7969 33.4062 35.7969 31.6094
z
" id="CMR17-100"/>
     </defs>
     <g transform="translate(97.7367715306 105.70282167)scale(0.1 -0.1)">
      <use transform="scale(0.9962640099626402)" xlink:href="#CMR17-111"/>
      <use transform="translate(45.69047711706103 0.0)scale(0.9962640099626402)" xlink:href="#CMR17-114"/>
      <use transform="translate(80.97124491652399 0.0)scale(0.9962640099626402)" xlink:href="#CMR17-100"/>
      <use transform="translate(131.86661469683997 0.0)scale(0.9962640099626402)" xlink:href="#CMR17-101"/>
      <use transform="translate(172.35227515955793 0.0)scale(0.9962640099626402)" xlink:href="#CMR17-114"/>
      <use transform="translate(237.70900930592313 0.0)scale(0.9962640099626402)" xlink:href="#CMR17-50"/>
      <use transform="translate(283.3994864229841 0.0)scale(0.9962640099626402)" xlink:href="#CMR17-51"/>
     </g>
    </g>
    <g id="line2d_21">
     <path d="
M153.768 102.203
L173.768 102.203" style="fill:none;stroke:#bf00bf;stroke-linecap:square;stroke-width:0.75;"/>
    </g>
    <g id="line2d_22"/>
    <g id="text_9">
     <!-- order 24 -->
     <defs>
      <path d="
M33.5938 64.3281
C33.5938 66.4062 33.5 66.5 31.7031 66.5
L2 19.5938
L2 17
L27.7969 17
L27.7969 7.14062
C27.7969 3.5 27.5938 2.5 20.5938 2.5
L18.7031 2.5
L18.7031 0
C21.9062 0 27.2969 0 30.7031 0
C34.0938 0 39.5 0 42.7031 0
L42.7031 2.5
L40.7969 2.5
C33.7969 2.5 33.5938 3.5 33.5938 7.14062
L33.5938 17
L43.7969 17
L43.7969 19.5938
L33.5938 19.5938
z

M28.0938 57.7656
L28.0938 19.5938
L4 19.5938
z
" id="CMR17-52"/>
     </defs>
     <g transform="translate(181.768385765 105.70282167)scale(0.1 -0.1)">
      <use transform="scale(0.9962640099626402)" xlink:href="#CMR17-111"/>
      <use transform="translate(45.69047711706103 0.0)scale(0.9962640099626402)" xlink:href="#CMR17-114"/>
      <use transform="translate(80.97124491652399 0.0)scale(0.9962640099626402)" xlink:href="#CMR17-100"/>
      <use transform="translate(131.86661469683997 0.0)scale(0.9962640099626402)" xlink:href="#CMR17-101"/>
      <use transform="translate(172.35227515955793 0.0)scale(0.9962640099626402)" xlink:href="#CMR17-114"/>
      <use transform="translate(237.70900930592313 0.0)scale(0.9962640099626402)" xlink:href="#CMR17-50"/>
      <use transform="translate(283.3994864229841 0.0)scale(0.9962640099626402)" xlink:href="#CMR17-52"/>
     </g>
    </g>
   </g>
  </g>
  <g id="axes_2">
   <g id="patch_7">
    <path d="
M50.4 207.36
L226.8 207.36
L226.8 116.64
L50.4 116.64
z
" style="fill:#ffffff;"/>
   </g>
   <g id="line2d_23">
    <path clip-path="url(#p501ab32ebe)" d="
M49.6686 169.396
L76.3372 172.887
L102.948 176.601
L128.481 180.386
L153.961 184.386
L179.388 188.607
L203.747 192.871
L225.02 196.774
L225.02 196.774" style="fill:none;stroke:#008000;stroke-linecap:square;stroke-width:0.75;"/>
   </g>
   <g id="line2d_24">
    <path clip-path="url(#p501ab32ebe)" d="
M49.6322 147.621
L91.3545 145.939
L134.166 144.439
L176.874 143.164
L220.66 142.081
L227.75 141.927
L227.75 141.927" style="fill:none;stroke:#bf00bf;stroke-linecap:square;stroke-width:0.75;"/>
   </g>
   <g id="matplotlib.axis_3">
    <g id="xtick_5">
     <g id="line2d_25">
      <g>
       <use style="stroke:#000000;stroke-width:0.5;" x="75.6" xlink:href="#mc7db9fdffb" y="207.36"/>
      </g>
     </g>
     <g id="line2d_26">
      <g>
       <use style="stroke:#000000;stroke-width:0.5;" x="75.6" xlink:href="#m5a7d422ac3" y="116.64"/>
      </g>
     </g>
    </g>
    <g id="xtick_6">
     <g id="line2d_27">
      <g>
       <use style="stroke:#000000;stroke-width:0.5;" x="126.0" xlink:href="#mc7db9fdffb" y="207.36"/>
      </g>
     </g>
     <g id="line2d_28">
      <g>
       <use style="stroke:#000000;stroke-width:0.5;" x="126.0" xlink:href="#m5a7d422ac3" y="116.64"/>
      </g>
     </g>
    </g>
    <g id="xtick_7">
     <g id="line2d_29">
      <g>
       <use style="stroke:#000000;stroke-width:0.5;" x="176.4" xlink:href="#mc7db9fdffb" y="207.36"/>
      </g>
     </g>
     <g id="line2d_30">
      <g>
       <use style="stroke:#000000;stroke-width:0.5;" x="176.4" xlink:href="#m5a7d422ac3" y="116.64"/>
      </g>
     </g>
    </g>
    <g id="xtick_8">
     <g id="line2d_31">
      <g>
       <use style="stroke:#000000;stroke-width:0.5;" x="226.8" xlink:href="#mc7db9fdffb" y="207.36"/>
      </g>
     </g>
     <g id="line2d_32">
      <g>
       <use style="stroke:#000000;stroke-width:0.5;" x="226.8" xlink:href="#m5a7d422ac3" y="116.64"/>
      </g>
     </g>
    </g>
   </g>
   <g id="matplotlib.axis_4">
    <g id="ytick_5">
     <g id="line2d_33">
      <g>
       <use style="stroke:#000000;stroke-width:0.5;" x="50.4" xlink:href="#md7965d1ba0" y="200.88"/>
      </g>
     </g>
     <g id="line2d_34">
      <g>
       <use style="stroke:#000000;stroke-width:0.5;" x="226.8" xlink:href="#md9a1c1a7cd" y="200.88"/>
      </g>
     </g>
     <g id="text_10">
      <!-- 0.97 -->
      <defs>
       <path d="
M16.5938 4.07812
C16.5938 6.5625 14.5938 8.15625 12.5 8.15625
C10.5 8.15625 8.40625 6.5625 8.40625 4.07812
C8.40625 1.59375 10.4062 0 12.5 0
C14.5 0 16.5938 1.59375 16.5938 4.07812" id="CMR17-46"/>
       <path d="
M35.2031 29.125
C35.2031 7.25 26.0938 0.484375 18.5938 0.484375
C16.2969 0.484375 10.7031 0.484375 8.40625 4.59375
C11 4.1875 12.9062 5.57812 12.9062 8.09375
C12.9062 10.8125 10.7031 11.7031 9.29688 11.7031
C8.40625 11.7031 5.70312 11.2969 5.70312 7.90625
C5.70312 1.10938 11.5938 -2 18.7969 -2
C30.2969 -2 42 10.5312 42 32.3906
C42 59.6406 30.7969 65.2969 23.2031 65.2969
C13.2969 65.2969 3.79688 56.6875 3.79688 43.4062
C3.79688 31.1094 11.9062 22 22.0938 22
C30.5 22 34.2031 29.7344 35.2031 33
z

M22.2969 23.5938
C19.5938 23.5938 15.7969 24.0938 12.7031 30.0312
C10.5938 33.8906 10.5938 38.4531 10.5938 43.2969
C10.5938 49.1562 10.5938 53.2031 13.4062 57.5625
C14.7969 59.6406 17.4062 63 23.2031 63
C35 63 35 45.0781 35 41.125
C35 34.0938 31.7969 23.5938 22.2969 23.5938" id="CMR17-57"/>
       <path d="
M45.0938 61.5781
L45.0938 63.7656
L21.5938 63.7656
C9.90625 63.7656 9.70312 65.0781 9.29688 67
L7.5 67
L4.59375 48.3438
L6.40625 48.3438
C6.70312 50.2344 7.40625 55.3125 8.59375 57.2031
C9.20312 58 16.5938 58 18.2969 58
L40.2969 58
L29.2031 41.5781
C21.7969 30.5312 16.7031 15.6094 16.7031 2.57812
C16.7031 1.39062 16.7031 -2 20.2969 -2
C23.9062 -2 23.9062 1.39062 23.9062 2.67188
L23.9062 7.26562
C23.9062 23.5625 26.7031 34.3125 31.2969 41.1875
z
" id="CMR17-55"/>
      </defs>
      <g transform="translate(28.6885857721 203.370660025)scale(0.1 -0.1)">
       <use transform="scale(0.9962640099626402)" xlink:href="#CMR17-48"/>
       <use transform="translate(45.69047711706103 0.0)scale(0.9962640099626402)" xlink:href="#CMR17-46"/>
       <use transform="translate(70.56153559892591 0.0)scale(0.9962640099626402)" xlink:href="#CMR17-57"/>
       <use transform="translate(116.25201271598694 0.0)scale(0.9962640099626402)" xlink:href="#CMR17-55"/>
      </g>
     </g>
    </g>
    <g id="ytick_6">
     <g id="line2d_35">
      <g>
       <use style="stroke:#000000;stroke-width:0.5;" x="50.4" xlink:href="#md7965d1ba0" y="181.44"/>
      </g>
     </g>
     <g id="line2d_36">
      <g>
       <use style="stroke:#000000;stroke-width:0.5;" x="226.8" xlink:href="#md9a1c1a7cd" y="181.44"/>
      </g>
     </g>
     <g id="text_11">
      <!-- 0.99 -->
      <g transform="translate(28.6885857721 183.930660025)scale(0.1 -0.1)">
       <use transform="scale(0.9962640099626402)" xlink:href="#CMR17-48"/>
       <use transform="translate(45.69047711706103 0.0)scale(0.9962640099626402)" xlink:href="#CMR17-46"/>
       <use transform="translate(70.56153559892591 0.0)scale(0.9962640099626402)" xlink:href="#CMR17-57"/>
       <use transform="translate(116.25201271598694 0.0)scale(0.9962640099626402)" xlink:href="#CMR17-57"/>
      </g>
     </g>
    </g>
    <g id="ytick_7">
     <g id="line2d_37">
      <g>
       <use style="stroke:#000000;stroke-width:0.5;" x="50.4" xlink:href="#md7965d1ba0" y="162.0"/>
      </g>
     </g>
     <g id="line2d_38">
      <g>
       <use style="stroke:#000000;stroke-width:0.5;" x="226.8" xlink:href="#md9a1c1a7cd" y="162.0"/>
      </g>
     </g>
     <g id="text_12">
      <!-- 1.00 -->
      <g transform="translate(28.6885857721 164.490660025)scale(0.1 -0.1)">
       <use transform="scale(0.9962640099626402)" xlink:href="#CMR17-49"/>
       <use transform="translate(45.69047711706103 0.0)scale(0.9962640099626402)" xlink:href="#CMR17-46"/>
       <use transform="translate(70.56153559892591 0.0)scale(0.9962640099626402)" xlink:href="#CMR17-48"/>
       <use transform="translate(116.25201271598694 0.0)scale(0.9962640099626402)" xlink:href="#CMR17-48"/>
      </g>
     </g>
    </g>
    <g id="ytick_8">
     <g id="line2d_39">
      <g>
       <use style="stroke:#000000;stroke-width:0.5;" x="50.4" xlink:href="#md7965d1ba0" y="142.56"/>
      </g>
     </g>
     <g id="line2d_40">
      <g>
       <use style="stroke:#000000;stroke-width:0.5;" x="226.8" xlink:href="#md9a1c1a7cd" y="142.56"/>
      </g>
     </g>
     <g id="text_13">
      <!-- 1.02 -->
      <g transform="translate(28.6885857721 145.050660025)scale(0.1 -0.1)">
       <use transform="scale(0.9962640099626402)" xlink:href="#CMR17-49"/>
       <use transform="translate(45.69047711706103 0.0)scale(0.9962640099626402)" xlink:href="#CMR17-46"/>
       <use transform="translate(70.56153559892591 0.0)scale(0.9962640099626402)" xlink:href="#CMR17-48"/>
       <use transform="translate(116.25201271598694 0.0)scale(0.9962640099626402)" xlink:href="#CMR17-50"/>
      </g>
     </g>
    </g>
    <g id="ytick_9">
     <g id="line2d_41">
      <g>
       <use style="stroke:#000000;stroke-width:0.5;" x="50.4" xlink:href="#md7965d1ba0" y="123.12"/>
      </g>
     </g>
     <g id="line2d_42">
      <g>
       <use style="stroke:#000000;stroke-width:0.5;" x="226.8" xlink:href="#md9a1c1a7cd" y="123.12"/>
      </g>
     </g>
     <g id="text_14">
      <!-- 1.03 -->
      <g transform="translate(28.6885857721 125.610660025)scale(0.1 -0.1)">
       <use transform="scale(0.9962640099626402)" xlink:href="#CMR17-49"/>
       <use transform="translate(45.69047711706103 0.0)scale(0.9962640099626402)" xlink:href="#CMR17-46"/>
       <use transform="translate(70.56153559892591 0.0)scale(0.9962640099626402)" xlink:href="#CMR17-48"/>
       <use transform="translate(116.25201271598694 0.0)scale(0.9962640099626402)" xlink:href="#CMR17-51"/>
      </g>
     </g>
    </g>
   </g>
   <g id="patch_8">
    <path d="
M50.4 207.36
L226.8 207.36" style="fill:none;stroke:#000000;"/>
   </g>
   <g id="patch_9">
    <path d="
M50.4 207.36
L50.4 116.64" style="fill:none;stroke:#000000;"/>
   </g>
   <g id="patch_10">
    <path d="
M50.4 116.64
L226.8 116.64" style="fill:none;stroke:#000000;"/>
   </g>
   <g id="patch_11">
    <path d="
M226.8 207.36
L226.8 116.64" style="fill:none;stroke:#000000;"/>
   </g>
   <g id="text_15">
    <!-- Chebyshev -->
    <defs>
     <path d="
M15 68.6875
L3.09375 67.5938
L3.09375 65
C9 65 9.90625 64.4062 9.90625 59.6406
L9.90625 -0.203125
L11.7031 -0.203125
L14.5938 6.89062
C17.5 2.20312 21.7969 -1 27.5938 -1
C37.5938 -1 47.7031 7.8125 47.7031 21.4062
C47.7031 34.1875 38.7031 43.5938 28.5938 43.5938
C22.4062 43.5938 18 40.2969 15 36.4062
z

M15.2031 31.3125
C15.2031 33.0938 15.2031 33.4062 16.5938 35.5
C20.5 41.5156 26.0938 42 28 42
C31 42 41.2969 40.3906 41.2969 21.5
C41.2969 1.6875 29.5 0.59375 27.0938 0.59375
C24 0.59375 19.5 1.78125 16.2969 7.59375
C15.2031 9.5 15.2031 9.70312 15.2031 11.4844
z
" id="CMR17-98"/>
     <path d="
M62.0938 67.1094
C62.0938 68.8906 62 69 61.4062 69
C61 69 60.9062 68.8906 60.2031 67.7031
L55.7969 59.3281
C50.9062 65.4531 44.9062 69 37.2031 69
C20.0938 69 4.59375 54 4.59375 33.5469
C4.59375 12.9062 20.0938 -2 37.2969 -2
C52.5938 -2 62.0938 11.4062 62.0938 22.8438
C62.0938 23.8281 62.0938 24.2344 61.2031 24.2344
C60.4062 24.2344 60.4062 23.9375 60.2969 23.0469
C59.5 9.14062 49.5 0.59375 38.7031 0.59375
C28.5 0.59375 12.2031 7.73438 12.2031 33.5938
C12.2031 59.5469 28.7969 66.5 38.5 66.5
C49.7969 66.5 58 56.75 59.9062 42.9219
C60.0938 41.7188 60.0938 41.5156 61 41.5156
C62.0938 41.5156 62.0938 41.7188 62.0938 43.5156
z
" id="CMR17-67"/>
     <path d="
M41.5 30.2031
C41.5 35.2969 40.5 43.5938 28.7031 43.5938
C20.5 43.5938 16.5 37 15.2969 33.7031
L15.2031 33.7031
L15.2031 68.6875
L3.29688 67.5938
L3.29688 65
C9.20312 65 10.0938 64.4062 10.0938 59.6406
L10.0938 6.65625
C10.0938 2.875 9.70312 2.39062 3.29688 2.39062
L3.29688 -0.203125
C5.70312 0 10.0938 0 12.7031 0
C15.2969 0 19.7969 0 22.2031 -0.203125
L22.2031 2.39062
C15.7969 2.39062 15.4062 2.78125 15.4062 6.6875
L15.4062 25.9062
C15.4062 35.1094 21 42 28 42
C35.4062 42 36.2031 35.4062 36.2031 30.5938
L36.2031 6.6875
C36.2031 2.875 35.7969 2.39062 29.4062 2.39062
L29.4062 -0.203125
C31.7969 0 36.2031 0 38.7969 0
C41.4062 0 45.9062 0 48.2969 -0.203125
L48.2969 2.39062
C41.9062 2.39062 41.5 2.78125 41.5 6.6875
z
" id="CMR17-104"/>
     <path d="
M39.0938 33.7969
C40 36 41.5938 40 47.4062 40
L47.4062 42.5938
C45.5 42.5938 43 42.5938 41.0938 42.5938
C39 42.5938 35.7031 42.5938 33.7031 42.6875
L33.7031 40.0938
C36.2031 39.8906 37.5938 38.7031 37.5938 36.1094
C37.5938 35.2031 37.5938 35 37 33.6094
L26 5.89062
L14.0938 35.7188
C13.5 37.0156 13.5 37.2031 13.5 37.6094
C13.5 40 16.7969 40 18.2969 40
L18.2969 42.6875
C15.9062 42.5938 11.5 42.5938 9 42.5938
C6.29688 42.5938 3.20312 42.5938 1 42.6875
L1 40
C4.79688 40 6.90625 40 8.09375 36.9062
L22.5938 0.6875
C23.2031 -0.796875 23.2969 -1 24.2031 -1
C25.0938 -1 25.2031 -0.796875 25.7969 0.6875
z
" id="CMR17-118"/>
     <path d="
M39 34.3281
C41.5 40.4062 46 40.4062 47.4062 40.4062
L47.4062 43
C45.5 43 43 43 41.0938 43
C39 43 35.7031 43 33.7031 43.0938
L33.7031 40.5
C37.5 40.2031 37.5938 37.4062 37.5938 36.6094
C37.5938 35.625 37.4062 35.125 36.9062 33.9219
L26 7.01562
L14.0938 36.0312
C13.5938 37.2188 13.5938 37.9062 13.5938 38.0156
C13.5938 40.2031 15.9062 40.4062 18.2969 40.4062
L18.2969 43.0938
C15.9062 43 11.5938 43 9.09375 43
C6.40625 43 3.20312 43 1 43.0938
L1 40.4062
C6.40625 40.4062 7 39.9062 8.29688 36.7188
L23.2031 0.234375
C18.7031 -11.5312 16.0938 -18.4062 9.79688 -18.4062
C8.70312 -18.4062 6.20312 -18.1094 4.40625 -16.3125
C6.70312 -16.1094 7.70312 -14.7188 7.70312 -13.0156
C7.70312 -11.3281 6.5 -9.82812 4.5 -9.82812
C2.29688 -9.82812 1.20312 -11.3281 1.20312 -13.125
C1.20312 -17.1094 5.29688 -20 9.79688 -20
C15.5938 -20 19.2031 -14.4062 21.2031 -9.4375
z
" id="CMR17-121"/>
    </defs>
    <g transform="translate(59.22 130.248)scale(0.1 -0.1)">
     <use transform="scale(0.9962640099626402)" xlink:href="#CMR17-67"/>
     <use transform="translate(66.50988055047479 0.0)scale(0.9962640099626402)" xlink:href="#CMR17-104"/>
     <use transform="translate(117.40525033079079 0.0)scale(0.9962640099626402)" xlink:href="#CMR17-101"/>
     <use transform="translate(157.89091079350874 0.0)scale(0.9962640099626402)" xlink:href="#CMR17-98"/>
     <use transform="translate(206.18382664130607 0.0)scale(0.9962640099626402)" xlink:href="#CMR17-121"/>
     <use transform="translate(254.4767424891034 0.0)scale(0.9962640099626402)" xlink:href="#CMR17-115"/>
     <use transform="translate(290.27808012433843 0.0)scale(0.9962640099626402)" xlink:href="#CMR17-104"/>
     <use transform="translate(341.17344990465443 0.0)scale(0.9962640099626402)" xlink:href="#CMR17-101"/>
     <use transform="translate(381.65911036737236 0.0)scale(0.9962640099626402)" xlink:href="#CMR17-118"/>
    </g>
   </g>
  </g>
  <g id="axes_3">
   <g id="patch_12">
    <path d="
M50.4 298.08
L226.8 298.08
L226.8 207.36
L50.4 207.36
z
" style="fill:#ffffff;"/>
   </g>
   <g id="line2d_43">
    <path clip-path="url(#p92d66ec8eb)" d="
M49.6686 227.612
L50.6954 229.881
L51.7221 225.391
L52.7487 230.392
L53.7752 225.45
L54.8016 227.723
L55.828 225.719
L56.8543 228.428
L57.8804 223.225
L58.9065 224.862
L59.9325 229.577
L60.9585 223.741
L61.9843 226.855
L63.0101 224.886
L64.0358 228.392
L65.0613 230.654
L66.0868 236.915
L67.1123 244.763
L68.1376 255.463
L69.1628 268.092
L70.188 265.219
L71.2131 260.008
L73.263 234.152
L74.2878 233.416
L75.3125 229.222
L76.3372 231.307
L77.3618 231.552
L78.3862 232.741
L79.4106 229.981
L80.4349 231.828
L81.4592 229.047
L82.4833 229.319
L83.5074 226.325
L84.5313 229.02
L85.5552 228.228
L86.579 229.022
L87.6027 229.067
L88.6264 228.898
L89.6499 229.674
L90.6734 228.644
L91.6967 226.892
L92.72 229.025
L93.7432 228.438
L94.7663 230.523
L95.7894 225.109
L96.8123 227.714
L98.858 224.457
L99.8806 227.724
L100.903 229.225
L101.926 229.128
L102.948 227.577
L103.971 231.007
L104.993 225.902
L106.015 227.223
L107.037 226.299
L108.059 228.895
L109.081 223.509
L110.103 227.69
L111.125 228.088
L112.146 225.452
L113.168 227.85
L114.189 227.984
L115.211 227.475
L116.232 226.258
L117.253 226.751
L118.274 228.022
L119.296 227.163
L120.317 228.58
L121.337 225.575
L122.358 223.635
L123.379 225.16
L124.4 226.334
L125.42 228.08
L126.441 226.604
L127.461 225.596
L128.481 228.076
L129.502 227.478
L130.522 227.556
L131.542 228.635
L132.562 229.273
L133.582 232.089
L134.601 231.944
L135.621 234.995
L136.641 237.592
L137.66 235.933
L138.68 232.646
L139.699 236.426
L140.718 231.994
L141.738 237.184
L142.757 236.696
L143.776 244.44
L144.795 254.215
L145.813 271.147
L146.832 283.957
L147.851 284.479
L148.869 275.58
L150.906 250.861
L151.925 240.408
L152.943 233.847
L153.961 235.111
L154.979 230.995
L155.997 229.314
L157.015 230.869
L158.033 231.16
L159.051 230.902
L160.068 226.397
L161.086 225.624
L162.103 231.159
L163.121 231.88
L164.138 224.331
L165.155 226.677
L166.172 226.54
L167.19 227.157
L168.207 227.997
L169.223 224.83
L170.24 228.902
L171.257 226.417
L172.274 229.26
L173.29 229.799
L174.307 227.504
L175.323 229.902
L176.339 225.129
L177.355 229.049
L178.372 225.707
L179.388 229.333
L180.403 226.424
L181.419 225.033
L183.451 229.679
L184.466 227.314
L185.482 231.811
L186.497 237.414
L187.513 244.707
L188.528 262.292
L189.543 273.533
L190.558 272.861
L191.573 265.94
L192.588 248.723
L193.603 235.329
L194.618 230.081
L195.632 226.422
L196.647 232.381
L197.661 229.884
L198.676 225.423
L199.69 226.221
L200.704 225.237
L201.719 232.049
L202.733 232.631
L203.747 231.566
L204.76 228.76
L206.788 238.57
L207.802 240.813
L208.815 252.334
L209.829 250.271
L210.842 241.327
L211.855 244
L212.869 234.36
L213.882 231.734
L214.895 227.392
L216.92 226.572
L218.946 224.108
L219.959 228.904
L220.971 225.461
L221.984 224.77
L222.996 227.505
L224.008 223.529
L225.02 224.222
L225.02 224.222" style="fill:none;stroke:#008000;stroke-linecap:square;stroke-width:0.75;"/>
   </g>
   <g id="line2d_44">
    <path clip-path="url(#p92d66ec8eb)" d="
M49.6322 226.158
L50.8257 229.995
L52.019 225.366
L53.2123 226.445
L54.4055 225.98
L55.5986 228.333
L56.7916 228.391
L57.9845 228.942
L59.1774 227.702
L60.3702 227.171
L61.5629 227.712
L62.7555 227.132
L63.948 227.874
L66.3329 233.436
L67.5252 248.399
L68.7174 260.13
L69.9096 265.626
L71.1016 257.974
L72.2936 244.516
L73.4855 236.541
L74.6773 231.216
L75.8691 227.57
L77.0607 227.22
L78.2523 228.446
L79.4438 228.474
L80.6353 227.464
L81.8266 227.577
L83.0179 228.983
L84.209 227.094
L85.4001 226.076
L86.5912 228.553
L87.7821 227.606
L88.973 229.172
L90.1638 230.104
L91.3545 229.202
L92.5451 229.043
L93.7356 225.504
L96.1165 226.994
L97.3068 226.805
L98.497 228.67
L99.6871 226.702
L100.877 226.429
L102.067 228.535
L103.257 223.186
L104.447 225.467
L105.637 226.234
L106.826 226.513
L108.016 226.166
L109.205 229.928
L110.395 225.501
L111.584 226.072
L112.773 229.117
L113.963 226.267
L115.152 226.459
L116.341 223.688
L117.53 226.423
L118.719 228.356
L119.907 227.016
L121.096 228.395
L122.285 226.849
L124.662 227.275
L125.85 225.656
L127.038 228.751
L128.227 226.802
L129.415 225.873
L130.603 226.455
L131.791 229.585
L132.979 229.505
L134.166 233.472
L135.354 235.29
L136.542 235.364
L138.917 233.263
L140.104 234.129
L141.292 230.84
L142.479 235.556
L143.666 243.56
L144.853 256.924
L146.04 273.131
L147.227 284.824
L148.414 280.613
L149.601 268.36
L150.787 252.298
L151.974 239.398
L153.161 233.497
L154.347 231.667
L155.533 225.817
L156.72 226.737
L157.906 232.296
L159.092 228.043
L160.278 229.723
L161.464 229.263
L162.65 225.987
L163.836 225.811
L165.021 230.526
L166.207 226.923
L167.393 227.105
L168.578 226.792
L169.764 226.127
L170.949 227.611
L172.134 230.706
L173.319 226.28
L174.504 225.968
L175.689 227.954
L176.874 224.366
L178.059 227.548
L179.244 228.869
L180.429 227.299
L181.613 228.752
L182.798 228.796
L183.982 226.371
L185.167 230.427
L186.351 233.255
L187.535 248.551
L188.719 262.266
L189.903 270.815
L191.087 264.773
L192.271 250.117
L193.455 239.464
L194.639 232.48
L195.822 228.97
L197.006 227.442
L198.189 229.612
L199.373 227.039
L200.556 226.393
L201.739 226.897
L202.922 230.38
L204.106 231.042
L205.289 230.247
L206.471 235.88
L207.654 244.949
L208.837 250.167
L210.02 250.299
L211.202 241.921
L212.385 238.685
L213.567 234.733
L214.75 227.364
L215.932 227.801
L218.296 227.294
L220.66 225.903
L221.842 226.014
L223.024 226.65
L224.206 228.951
L225.387 228.009
L227.75 230.686
L227.75 230.686" style="fill:none;stroke:#bf00bf;stroke-linecap:square;stroke-width:0.75;"/>
   </g>
   <g id="matplotlib.axis_5">
    <g id="xtick_9">
     <g id="line2d_45">
      <g>
       <use style="stroke:#000000;stroke-width:0.5;" x="75.6" xlink:href="#mc7db9fdffb" y="298.08"/>
      </g>
     </g>
     <g id="line2d_46">
      <g>
       <use style="stroke:#000000;stroke-width:0.5;" x="75.6" xlink:href="#m5a7d422ac3" y="207.36"/>
      </g>
     </g>
    </g>
    <g id="xtick_10">
     <g id="line2d_47">
      <g>
       <use style="stroke:#000000;stroke-width:0.5;" x="126.0" xlink:href="#mc7db9fdffb" y="298.08"/>
      </g>
     </g>
     <g id="line2d_48">
      <g>
       <use style="stroke:#000000;stroke-width:0.5;" x="126.0" xlink:href="#m5a7d422ac3" y="207.36"/>
      </g>
     </g>
    </g>
    <g id="xtick_11">
     <g id="line2d_49">
      <g>
       <use style="stroke:#000000;stroke-width:0.5;" x="176.4" xlink:href="#mc7db9fdffb" y="298.08"/>
      </g>
     </g>
     <g id="line2d_50">
      <g>
       <use style="stroke:#000000;stroke-width:0.5;" x="176.4" xlink:href="#m5a7d422ac3" y="207.36"/>
      </g>
     </g>
    </g>
    <g id="xtick_12">
     <g id="line2d_51">
      <g>
       <use style="stroke:#000000;stroke-width:0.5;" x="226.8" xlink:href="#mc7db9fdffb" y="298.08"/>
      </g>
     </g>
     <g id="line2d_52">
      <g>
       <use style="stroke:#000000;stroke-width:0.5;" x="226.8" xlink:href="#m5a7d422ac3" y="207.36"/>
      </g>
     </g>
    </g>
   </g>
   <g id="matplotlib.axis_6">
    <g id="ytick_10">
     <g id="line2d_53">
      <g>
       <use style="stroke:#000000;stroke-width:0.5;" x="50.4" xlink:href="#md7965d1ba0" y="283.603404255"/>
      </g>
     </g>
     <g id="line2d_54">
      <g>
       <use style="stroke:#000000;stroke-width:0.5;" x="226.8" xlink:href="#md9a1c1a7cd" y="283.603404255"/>
      </g>
     </g>
     <g id="text_16">
      <!-- $0.8$ -->
      <g transform="translate(33.6699210237 286.09406428)scale(0.1 -0.1)">
       <use transform="scale(0.9962640099626402)" xlink:href="#CMR17-48"/>
       <use transform="translate(45.69047711706103 0.0)scale(0.9962640099626402)" xlink:href="#CMMI12-58"/>
       <use transform="translate(72.78765420688046 0.0)scale(0.9962640099626402)" xlink:href="#CMR17-56"/>
      </g>
     </g>
    </g>
    <g id="ytick_11">
     <g id="line2d_55">
      <g>
       <use style="stroke:#000000;stroke-width:0.5;" x="50.4" xlink:href="#md7965d1ba0" y="264.301276596"/>
      </g>
     </g>
     <g id="line2d_56">
      <g>
       <use style="stroke:#000000;stroke-width:0.5;" x="226.8" xlink:href="#md9a1c1a7cd" y="264.301276596"/>
      </g>
     </g>
     <g id="text_17">
      <!-- $1.2$ -->
      <g transform="translate(33.6699210237 266.791936621)scale(0.1 -0.1)">
       <use transform="scale(0.9962640099626402)" xlink:href="#CMR17-49"/>
       <use transform="translate(45.69047711706103 0.0)scale(0.9962640099626402)" xlink:href="#CMMI12-58"/>
       <use transform="translate(72.78765420688046 0.0)scale(0.9962640099626402)" xlink:href="#CMR17-50"/>
      </g>
     </g>
    </g>
    <g id="ytick_12">
     <g id="line2d_57">
      <g>
       <use style="stroke:#000000;stroke-width:0.5;" x="50.4" xlink:href="#md7965d1ba0" y="244.999148936"/>
      </g>
     </g>
     <g id="line2d_58">
      <g>
       <use style="stroke:#000000;stroke-width:0.5;" x="226.8" xlink:href="#md9a1c1a7cd" y="244.999148936"/>
      </g>
     </g>
     <g id="text_18">
      <!-- $1.6$ -->
      <g transform="translate(33.6699210237 247.489808961)scale(0.1 -0.1)">
       <use transform="scale(0.9962640099626402)" xlink:href="#CMR17-49"/>
       <use transform="translate(45.69047711706103 0.0)scale(0.9962640099626402)" xlink:href="#CMMI12-58"/>
       <use transform="translate(72.78765420688046 0.0)scale(0.9962640099626402)" xlink:href="#CMR17-54"/>
      </g>
     </g>
    </g>
    <g id="ytick_13">
     <g id="line2d_59">
      <g>
       <use style="stroke:#000000;stroke-width:0.5;" x="50.4" xlink:href="#md7965d1ba0" y="225.697021277"/>
      </g>
     </g>
     <g id="line2d_60">
      <g>
       <use style="stroke:#000000;stroke-width:0.5;" x="226.8" xlink:href="#md9a1c1a7cd" y="225.697021277"/>
      </g>
     </g>
     <g id="text_19">
      <!-- $2.0$ -->
      <g transform="translate(33.6699210237 228.187681302)scale(0.1 -0.1)">
       <use transform="scale(0.9962640099626402)" xlink:href="#CMR17-50"/>
       <use transform="translate(45.69047711706103 0.0)scale(0.9962640099626402)" xlink:href="#CMMI12-58"/>
       <use transform="translate(72.78765420688046 0.0)scale(0.9962640099626402)" xlink:href="#CMR17-48"/>
      </g>
     </g>
    </g>
    <g id="text_20">
     <!-- $\times10^{-13}$ -->
     <g transform="translate(50.4 204.36)scale(0.1 -0.1)">
      <use transform="scale(0.9962640099626402)" xlink:href="#CMSY10-2"/>
      <use transform="translate(77.4874676506071 0.0)scale(0.9962640099626402)" xlink:href="#CMR17-49"/>
      <use transform="translate(123.17794476766814 0.0)scale(0.9962640099626402)" xlink:href="#CMR17-48"/>
      <use transform="translate(168.86842188472914 36.15363894185866)scale(0.6973817666173724)" xlink:href="#CMSY10-0"/>
      <use transform="translate(223.1094151327055 36.15363894185866)scale(0.6973817666173724)" xlink:href="#CMR17-49"/>
      <use transform="translate(255.09259709682442 36.15363894185866)scale(0.6973817666173724)" xlink:href="#CMR17-51"/>
     </g>
    </g>
   </g>
   <g id="patch_13">
    <path d="
M50.4 298.08
L226.8 298.08" style="fill:none;stroke:#000000;"/>
   </g>
   <g id="patch_14">
    <path d="
M50.4 298.08
L50.4 207.36" style="fill:none;stroke:#000000;"/>
   </g>
   <g id="patch_15">
    <path d="
M50.4 207.36
L226.8 207.36" style="fill:none;stroke:#000000;"/>
   </g>
   <g id="patch_16">
    <path d="
M226.8 298.08
L226.8 207.36" style="fill:none;stroke:#000000;"/>
   </g>
   <g id="text_21">
    <!-- corrected data -->
    <defs>
     <path d="
M15.0938 40
L29.0938 40
L29.0938 42.5781
L15.0938 42.5781
L15.0938 61
L13.2969 61
C13.0938 50.7031 9.59375 41.6875 1.09375 41.6875
L1.09375 40
L9.79688 40
L9.79688 12.0469
C9.79688 10.1562 9.79688 -1 21.4062 -1
C27.2969 -1 30.7031 4.78125 30.7031 12.1406
L30.7031 17.8125
L28.9062 17.8125
L28.9062 12.2344
C28.9062 5.375 26.2031 0.796875 22 0.796875
C19.0938 0.796875 15.0938 2.78125 15.0938 11.8438
z
" id="CMR17-116"/>
    </defs>
    <g transform="translate(59.22 220.968)scale(0.1 -0.1)">
     <use transform="scale(0.9962640099626402)" xlink:href="#CMR17-99"/>
     <use transform="translate(40.48566046271794 0.0)scale(0.9962640099626402)" xlink:href="#CMR17-111"/>
     <use transform="translate(86.17613757977897 0.0)scale(0.9962640099626402)" xlink:href="#CMR17-114"/>
     <use transform="translate(121.45690537924192 0.0)scale(0.9962640099626402)" xlink:href="#CMR17-114"/>
     <use transform="translate(156.73767317870488 0.0)scale(0.9962640099626402)" xlink:href="#CMR17-101"/>
     <use transform="translate(197.2233336414228 0.0)scale(0.9962640099626402)" xlink:href="#CMR17-99"/>
     <use transform="translate(237.70899410414074 0.0)scale(0.9962640099626402)" xlink:href="#CMR17-116"/>
     <use transform="translate(272.9897619036037 0.0)scale(0.9962640099626402)" xlink:href="#CMR17-101"/>
     <use transform="translate(313.47542236632165 0.0)scale(0.9962640099626402)" xlink:href="#CMR17-100"/>
     <use transform="translate(394.4467584935399 0.0)scale(0.9962640099626402)" xlink:href="#CMR17-100"/>
     <use transform="translate(445.3421282738559 0.0)scale(0.9962640099626402)" xlink:href="#CMR17-97"/>
     <use transform="translate(491.0326053909169 0.0)scale(0.9962640099626402)" xlink:href="#CMR17-116"/>
     <use transform="translate(526.3133731903798 0.0)scale(0.9962640099626402)" xlink:href="#CMR17-97"/>
    </g>
   </g>
  </g>
  <g id="axes_4">
   <g id="patch_17">
    <path d="
M50.4 388.8
L226.8 388.8
L226.8 298.08
L50.4 298.08
z
" style="fill:#ffffff;"/>
   </g>
   <g id="line2d_61">
    <path clip-path="url(#pec31a4c604)" d="
M49.6686 315.832
L51.7221 316.618
L52.7487 316.829
L53.7752 316.713
L55.828 316.065
L57.8804 315.81
L61.9843 315.754
L63.0101 315.897
L64.0358 316.405
L65.0613 318.164
L66.0868 322.952
L67.1123 332.129
L68.1376 343.986
L69.1628 353.149
L70.188 354.202
L71.2131 346.491
L72.2381 334.749
L73.263 324.766
L74.2878 319.175
L75.3125 317.241
L76.3372 317.263
L78.3862 318.585
L79.4106 318.589
L82.4833 316.953
L84.5313 316.339
L85.5552 316.107
L86.579 316.027
L88.6264 316.325
L89.6499 316.529
L90.6734 316.614
L91.6967 316.521
L93.7432 316.089
L94.7663 316.034
L95.7894 316.188
L96.8123 316.552
L97.8352 317.28
L98.858 318.684
L99.8806 320.638
L100.903 322.186
L101.926 322.272
L102.948 320.792
L103.971 318.748
L104.993 317.313
L106.015 316.849
L107.037 316.982
L108.059 317.228
L109.081 317.31
L110.103 317.17
L113.168 316.396
L115.211 316.187
L116.232 316.266
L119.296 316.898
L120.317 316.871
L123.379 316.357
L125.42 316.371
L130.522 316.639
L131.542 316.814
L132.562 317.335
L133.582 318.542
L135.621 322.092
L136.641 322.667
L137.66 321.897
L138.68 320.563
L139.699 319.77
L140.718 320.126
L141.738 321.913
L142.757 325.945
L143.776 333.631
L144.795 345.455
L145.813 359.081
L146.832 369.422
L147.851 371.509
L148.869 364.257
L150.906 338.393
L151.925 328.942
L152.943 323.537
L153.961 320.822
L154.979 319.431
L155.997 318.648
L157.015 318.177
L158.033 317.902
L159.051 317.78
L160.068 317.808
L162.103 318.088
L163.121 318.082
L165.155 317.571
L166.172 317.299
L168.207 317.089
L172.274 317.069
L174.307 317.458
L175.323 317.83
L176.339 318.411
L178.372 319.896
L179.388 320.058
L180.403 319.533
L182.435 317.841
L183.451 317.486
L184.466 317.766
L185.482 319.523
L186.497 324.565
L187.513 334.073
L188.528 345.82
L189.543 354.042
L190.558 353.674
L191.573 344.973
L192.588 333.279
L193.603 324.2
L194.618 319.626
L195.632 318.146
L196.647 317.831
L198.676 317.603
L199.69 317.643
L200.704 318.103
L201.719 319.134
L204.76 323.316
L205.774 327.021
L206.788 334.503
L207.802 344.322
L208.815 351.695
L209.829 352.303
L210.842 345.993
L212.869 328.11
L213.882 322.547
L214.895 319.544
L215.908 318.215
L216.92 317.769
L218.946 317.656
L222.996 317.618
L224.008 317.747
L225.02 318.358
L225.02 318.358" style="fill:none;stroke:#008000;stroke-linecap:square;stroke-width:0.75;"/>
   </g>
   <g id="line2d_62">
    <path clip-path="url(#pec31a4c604)" d="
M49.6322 314.189
L52.019 315.062
L53.2123 315.154
L56.7916 314.169
L60.3702 313.952
L62.7555 314.042
L63.948 314.523
L65.1405 316.614
L66.3329 323.069
L68.7174 348.689
L69.9096 353.737
L71.1016 346.353
L72.2936 332.555
L73.4855 321.369
L74.6773 316.19
L75.8691 315.153
L78.2523 316.584
L79.4438 316.612
L81.8266 315.201
L84.209 314.353
L85.4001 314.037
L86.5912 313.911
L87.7821 314.022
L90.1638 314.441
L91.3545 314.403
L93.7356 313.879
L94.9261 313.815
L96.1165 314.04
L97.3068 314.596
L98.497 315.871
L99.6871 318.068
L100.877 319.998
L102.067 319.967
L103.257 317.929
L104.447 315.645
L105.637 314.568
L106.826 314.561
L108.016 314.84
L109.205 314.91
L110.395 314.684
L112.773 314.011
L113.963 313.781
L115.152 313.681
L116.341 313.763
L118.719 314.285
L119.907 314.353
L123.473 313.733
L125.85 313.742
L130.603 313.935
L131.791 314.174
L132.979 315.017
L134.166 316.88
L135.354 319.09
L136.542 320.054
L137.729 319.148
L138.917 317.573
L140.104 317.004
L141.292 318.185
L142.479 321.898
L143.666 330.176
L144.853 344.208
L146.04 360.316
L147.227 370.114
L148.414 367.135
L149.601 353.465
L150.787 337.487
L151.974 325.948
L153.161 319.941
L154.347 317.247
L155.533 315.953
L156.72 315.251
L157.906 314.859
L159.092 314.688
L160.278 314.724
L162.65 314.977
L163.836 314.803
L166.207 314.08
L167.393 313.894
L170.949 313.739
L172.134 313.749
L173.319 313.893
L174.504 314.19
L175.689 314.681
L178.059 316.416
L179.244 316.768
L180.429 316.165
L181.613 315.047
L182.798 314.208
L183.982 314.051
L185.167 315.275
L186.351 320.277
L187.535 331.418
L188.719 345.417
L189.903 352.857
L191.087 347.548
L192.271 333.99
L193.455 321.914
L194.639 316.012
L195.822 314.406
L197.006 314.123
L199.373 313.89
L200.556 314.288
L201.739 315.475
L204.106 318.594
L205.289 321.322
L206.471 328.511
L207.654 340.094
L208.837 349.314
L210.02 349.07
L211.202 339.872
L212.385 328.486
L213.567 320.29
L214.75 315.99
L215.932 314.249
L217.114 313.748
L219.478 313.627
L223.024 313.533
L224.206 313.711
L225.387 314.792
L226.569 318.518
L227.75 325.791
L227.75 325.791" style="fill:none;stroke:#bf00bf;stroke-linecap:square;stroke-width:0.75;"/>
   </g>
   <g id="matplotlib.axis_7">
    <g id="xtick_13">
     <g id="line2d_63">
      <g>
       <use style="stroke:#000000;stroke-width:0.5;" x="75.6" xlink:href="#mc7db9fdffb" y="388.8"/>
      </g>
     </g>
     <g id="line2d_64">
      <g>
       <use style="stroke:#000000;stroke-width:0.5;" x="75.6" xlink:href="#m5a7d422ac3" y="298.08"/>
      </g>
     </g>
     <g id="text_22">
      <!-- 5230 -->
      <defs>
       <path d="
M11.4062 57.6875
C12.4062 57.2812 16.5 56 20.7031 56
C30 56 35.0938 61.0156 38 63.9219
C38 64.7344 38 65.25 37.4062 65.25
C37.2969 65.25 37.0938 65.25 36.2969 64.8281
C32.7969 63.3125 28.7031 62.0781 23.7031 62.0781
C20.7031 62.0781 16.2031 62.5 11.2969 64.7344
C10.2031 65.25 10 65.25 9.90625 65.25
C9.40625 65.25 9.29688 65.1406 9.29688 63.1562
L9.29688 34.2812
C9.29688 32.5 9.29688 32 10.2969 32
C10.7969 32 11 32.2031 11.5 32.9062
C14.7031 37.4844 19.0938 39.4062 24.0938 39.4062
C27.5938 39.4062 35.0938 37.2188 35.0938 20.1406
C35.0938 16.9531 35.0938 11.1719 32.0938 6.57812
C29.5938 2.48438 25.7031 0.390625 21.4062 0.390625
C14.7969 0.390625 8.09375 5 6.29688 12.7188
C6.70312 12.6094 7.5 12.4219 7.90625 12.4219
C9.20312 12.4219 11.7031 13.125 11.7031 16.2188
C11.7031 18.9062 9.79688 20 7.90625 20
C5.59375 20 4.09375 18.5938 4.09375 15.7969
C4.09375 7.09375 11 -2 21.5938 -2
C31.9062 -2 41.7031 6.875 41.7031 19.75
C41.7031 31.7188 33.9062 41 24.2031 41
C19.0938 41 14.7969 39.0938 11.4062 35.4531
z
" id="CMR17-53"/>
      </defs>
      <g transform="translate(65.6373294968 399.71849838)scale(0.1 -0.1)">
       <use transform="scale(0.9962640099626402)" xlink:href="#CMR17-53"/>
       <use transform="translate(45.69047711706103 0.0)scale(0.9962640099626402)" xlink:href="#CMR17-50"/>
       <use transform="translate(91.38095423412206 0.0)scale(0.9962640099626402)" xlink:href="#CMR17-51"/>
       <use transform="translate(137.07143135118307 0.0)scale(0.9962640099626402)" xlink:href="#CMR17-48"/>
      </g>
     </g>
    </g>
    <g id="xtick_14">
     <g id="line2d_65">
      <g>
       <use style="stroke:#000000;stroke-width:0.5;" x="126.0" xlink:href="#mc7db9fdffb" y="388.8"/>
      </g>
     </g>
     <g id="line2d_66">
      <g>
       <use style="stroke:#000000;stroke-width:0.5;" x="126.0" xlink:href="#m5a7d422ac3" y="298.08"/>
      </g>
     </g>
     <g id="text_23">
      <!-- 5232 -->
      <g transform="translate(116.037329497 399.71849838)scale(0.1 -0.1)">
       <use transform="scale(0.9962640099626402)" xlink:href="#CMR17-53"/>
       <use transform="translate(45.69047711706103 0.0)scale(0.9962640099626402)" xlink:href="#CMR17-50"/>
       <use transform="translate(91.38095423412206 0.0)scale(0.9962640099626402)" xlink:href="#CMR17-51"/>
       <use transform="translate(137.07143135118307 0.0)scale(0.9962640099626402)" xlink:href="#CMR17-50"/>
      </g>
     </g>
    </g>
    <g id="xtick_15">
     <g id="line2d_67">
      <g>
       <use style="stroke:#000000;stroke-width:0.5;" x="176.4" xlink:href="#mc7db9fdffb" y="388.8"/>
      </g>
     </g>
     <g id="line2d_68">
      <g>
       <use style="stroke:#000000;stroke-width:0.5;" x="176.4" xlink:href="#m5a7d422ac3" y="298.08"/>
      </g>
     </g>
     <g id="text_24">
      <!-- 5234 -->
      <g transform="translate(166.437329497 399.71849838)scale(0.1 -0.1)">
       <use transform="scale(0.9962640099626402)" xlink:href="#CMR17-53"/>
       <use transform="translate(45.69047711706103 0.0)scale(0.9962640099626402)" xlink:href="#CMR17-50"/>
       <use transform="translate(91.38095423412206 0.0)scale(0.9962640099626402)" xlink:href="#CMR17-51"/>
       <use transform="translate(137.07143135118307 0.0)scale(0.9962640099626402)" xlink:href="#CMR17-52"/>
      </g>
     </g>
    </g>
    <g id="xtick_16">
     <g id="line2d_69">
      <g>
       <use style="stroke:#000000;stroke-width:0.5;" x="226.8" xlink:href="#mc7db9fdffb" y="388.8"/>
      </g>
     </g>
     <g id="line2d_70">
      <g>
       <use style="stroke:#000000;stroke-width:0.5;" x="226.8" xlink:href="#m5a7d422ac3" y="298.08"/>
      </g>
     </g>
     <g id="text_25">
      <!-- 5236 -->
      <g transform="translate(216.837329497 399.71849838)scale(0.1 -0.1)">
       <use transform="scale(0.9962640099626402)" xlink:href="#CMR17-53"/>
       <use transform="translate(45.69047711706103 0.0)scale(0.9962640099626402)" xlink:href="#CMR17-50"/>
       <use transform="translate(91.38095423412206 0.0)scale(0.9962640099626402)" xlink:href="#CMR17-51"/>
       <use transform="translate(137.07143135118307 0.0)scale(0.9962640099626402)" xlink:href="#CMR17-54"/>
      </g>
     </g>
    </g>
    <g id="text_26">
     <!-- $\lambda$  [\AA] -->
     <g transform="translate(127.530373708 415.335620816)scale(0.1 -0.1)">
      <use transform="scale(0.9962640099626402)" xlink:href="#CMMI12-21"/>
      <use transform="translate(86.98003823552305 0.0)scale(0.9962640099626402)" xlink:href="#CMR17-91"/>
      <use transform="translate(111.85109671738793 17.61874416251557)scale(0.9962640099626402)" xlink:href="#CMR17-23"/>
      <use transform="translate(111.85109671738793 0.0)scale(0.9962640099626402)" xlink:href="#CMR17-65"/>
      <use transform="translate(180.92352652163763 0.0)scale(0.9962640099626402)" xlink:href="#CMR17-93"/>
     </g>
    </g>
   </g>
   <g id="matplotlib.axis_8">
    <g id="ytick_14">
     <g id="line2d_71">
      <g>
       <use style="stroke:#000000;stroke-width:0.5;" x="50.4" xlink:href="#md7965d1ba0" y="374.323404255"/>
      </g>
     </g>
     <g id="line2d_72">
      <g>
       <use style="stroke:#000000;stroke-width:0.5;" x="226.8" xlink:href="#md9a1c1a7cd" y="374.323404255"/>
      </g>
     </g>
     <g id="text_27">
      <!-- $0.8$ -->
      <g transform="translate(33.6699210237 376.81406428)scale(0.1 -0.1)">
       <use transform="scale(0.9962640099626402)" xlink:href="#CMR17-48"/>
       <use transform="translate(45.69047711706103 0.0)scale(0.9962640099626402)" xlink:href="#CMMI12-58"/>
       <use transform="translate(72.78765420688046 0.0)scale(0.9962640099626402)" xlink:href="#CMR17-56"/>
      </g>
     </g>
    </g>
    <g id="ytick_15">
     <g id="line2d_73">
      <g>
       <use style="stroke:#000000;stroke-width:0.5;" x="50.4" xlink:href="#md7965d1ba0" y="355.021276596"/>
      </g>
     </g>
     <g id="line2d_74">
      <g>
       <use style="stroke:#000000;stroke-width:0.5;" x="226.8" xlink:href="#md9a1c1a7cd" y="355.021276596"/>
      </g>
     </g>
     <g id="text_28">
      <!-- $1.2$ -->
      <g transform="translate(33.6699210237 357.511936621)scale(0.1 -0.1)">
       <use transform="scale(0.9962640099626402)" xlink:href="#CMR17-49"/>
       <use transform="translate(45.69047711706103 0.0)scale(0.9962640099626402)" xlink:href="#CMMI12-58"/>
       <use transform="translate(72.78765420688046 0.0)scale(0.9962640099626402)" xlink:href="#CMR17-50"/>
      </g>
     </g>
    </g>
    <g id="ytick_16">
     <g id="line2d_75">
      <g>
       <use style="stroke:#000000;stroke-width:0.5;" x="50.4" xlink:href="#md7965d1ba0" y="335.719148936"/>
      </g>
     </g>
     <g id="line2d_76">
      <g>
       <use style="stroke:#000000;stroke-width:0.5;" x="226.8" xlink:href="#md9a1c1a7cd" y="335.719148936"/>
      </g>
     </g>
     <g id="text_29">
      <!-- $1.6$ -->
      <g transform="translate(33.6699210237 338.209808961)scale(0.1 -0.1)">
       <use transform="scale(0.9962640099626402)" xlink:href="#CMR17-49"/>
       <use transform="translate(45.69047711706103 0.0)scale(0.9962640099626402)" xlink:href="#CMMI12-58"/>
       <use transform="translate(72.78765420688046 0.0)scale(0.9962640099626402)" xlink:href="#CMR17-54"/>
      </g>
     </g>
    </g>
    <g id="ytick_17">
     <g id="line2d_77">
      <g>
       <use style="stroke:#000000;stroke-width:0.5;" x="50.4" xlink:href="#md7965d1ba0" y="316.417021277"/>
      </g>
     </g>
     <g id="line2d_78">
      <g>
       <use style="stroke:#000000;stroke-width:0.5;" x="226.8" xlink:href="#md9a1c1a7cd" y="316.417021277"/>
      </g>
     </g>
     <g id="text_30">
      <!-- $2.0$ -->
      <g transform="translate(33.6699210237 318.907681302)scale(0.1 -0.1)">
       <use transform="scale(0.9962640099626402)" xlink:href="#CMR17-50"/>
       <use transform="translate(45.69047711706103 0.0)scale(0.9962640099626402)" xlink:href="#CMMI12-58"/>
       <use transform="translate(72.78765420688046 0.0)scale(0.9962640099626402)" xlink:href="#CMR17-48"/>
      </g>
     </g>
    </g>
    <g id="text_31">
     <!-- $\times10^{-13}$ -->
     <g transform="translate(50.4 295.08)scale(0.1 -0.1)">
      <use transform="scale(0.9962640099626402)" xlink:href="#CMSY10-2"/>
      <use transform="translate(77.4874676506071 0.0)scale(0.9962640099626402)" xlink:href="#CMR17-49"/>
      <use transform="translate(123.17794476766814 0.0)scale(0.9962640099626402)" xlink:href="#CMR17-48"/>
      <use transform="translate(168.86842188472914 36.15363894185866)scale(0.6973817666173724)" xlink:href="#CMSY10-0"/>
      <use transform="translate(223.1094151327055 36.15363894185866)scale(0.6973817666173724)" xlink:href="#CMR17-49"/>
      <use transform="translate(255.09259709682442 36.15363894185866)scale(0.6973817666173724)" xlink:href="#CMR17-51"/>
     </g>
    </g>
   </g>
   <g id="patch_18">
    <path d="
M50.4 388.8
L226.8 388.8" style="fill:none;stroke:#000000;"/>
   </g>
   <g id="patch_19">
    <path d="
M50.4 388.8
L50.4 298.08" style="fill:none;stroke:#000000;"/>
   </g>
   <g id="patch_20">
    <path d="
M50.4 298.08
L226.8 298.08" style="fill:none;stroke:#000000;"/>
   </g>
   <g id="patch_21">
    <path d="
M226.8 388.8
L226.8 298.08" style="fill:none;stroke:#000000;"/>
   </g>
   <g id="text_32">
    <!-- distorted model -->
    <defs>
     <path d="
M15.5 61.0781
C15.5 63.2656 13.7031 65.1562 11.4062 65.1562
C9.20312 65.1562 7.29688 63.375 7.29688 61.0781
C7.29688 58.8906 9.09375 57 11.4062 57
C13.5938 57 15.5 58.7969 15.5 61.0781
M3.79688 42.2812
L3.79688 39.7031
C9.40625 39.7031 10.2031 39.0938 10.2031 34.3281
L10.2031 6.67188
C10.2031 2.875 9.79688 2.39062 3.40625 2.39062
L3.40625 -0.203125
C5.79688 0 10.0938 0 12.5938 0
C15 0 19.0938 0 21.4062 -0.203125
L21.4062 2.39062
C15.5 2.39062 15.2969 2.98438 15.2969 6.5625
L15.2969 43.375
z
" id="CMR17-105"/>
     <path d="
M15.2969 68.6875
L3.40625 67.5938
L3.40625 65
C9.29688 65 10.2031 64.4062 10.2031 59.6406
L10.2031 6.65625
C10.2031 2.875 9.79688 2.39062 3.40625 2.39062
L3.40625 -0.203125
C5.79688 0 10.2031 0 12.7031 0
C15.2969 0 19.7031 0 22.0938 -0.203125
L22.0938 2.39062
C15.7031 2.39062 15.2969 2.78125 15.2969 6.65625
z
" id="CMR17-108"/>
    </defs>
    <g transform="translate(59.22 311.688)scale(0.1 -0.1)">
     <use transform="scale(0.9962640099626402)" xlink:href="#CMR17-100"/>
     <use transform="translate(50.89536978031601 0.0)scale(0.9962640099626402)" xlink:href="#CMR17-105"/>
     <use transform="translate(75.7664282621809 0.0)scale(0.9962640099626402)" xlink:href="#CMR17-115"/>
     <use transform="translate(111.56776589741595 0.0)scale(0.9962640099626402)" xlink:href="#CMR17-116"/>
     <use transform="translate(146.84853369687892 0.0)scale(0.9962640099626402)" xlink:href="#CMR17-111"/>
     <use transform="translate(192.53901081393994 0.0)scale(0.9962640099626402)" xlink:href="#CMR17-114"/>
     <use transform="translate(227.8197786134029 0.0)scale(0.9962640099626402)" xlink:href="#CMR17-116"/>
     <use transform="translate(263.10054641286587 0.0)scale(0.9962640099626402)" xlink:href="#CMR17-101"/>
     <use transform="translate(303.5862068755838 0.0)scale(0.9962640099626402)" xlink:href="#CMR17-100"/>
     <use transform="translate(384.55754300280205 0.0)scale(0.9962640099626402)" xlink:href="#CMR17-109"/>
     <use transform="translate(461.47713287087487 0.0)scale(0.9962640099626402)" xlink:href="#CMR17-111"/>
     <use transform="translate(509.77004871867223 0.0)scale(0.9962640099626402)" xlink:href="#CMR17-100"/>
     <use transform="translate(560.6654184989882 0.0)scale(0.9962640099626402)" xlink:href="#CMR17-101"/>
     <use transform="translate(601.1510789617062 0.0)scale(0.9962640099626402)" xlink:href="#CMR17-108"/>
    </g>
   </g>
  </g>
  <g id="text_33">
   <!-- $f_\lambda \quad [\textrm{erg}\;\textrm{cm}^{-2}\;\textrm{s}^{-1}\;\textrm{\AA}^{-1}]$ -->
   <g transform="translate(26.3847183657 351.366886383)rotate(-90.0)scale(0.1 -0.1)">
    <use transform="translate(0.0 14.943914544092468)scale(0.9962640099626402)" xlink:href="#CMMI12-102"/>
    <use transform="translate(48.083237663449566 0.0)scale(0.6973817666173724)" xlink:href="#CMMI12-21"/>
    <use transform="translate(179.79508301389322 14.943914544092468)scale(0.9962640099626402)" xlink:href="#CMR17-91"/>
    <use transform="translate(204.66614149575813 14.943914544092468)scale(0.9962640099626402)" xlink:href="#CMR17-101"/>
    <use transform="translate(245.15180195847606 14.943914544092468)scale(0.9962640099626402)" xlink:href="#CMR17-114"/>
    <use transform="translate(280.432569757939 14.943914544092468)scale(0.9962640099626402)" xlink:href="#CMR17-103"/>
    <use transform="translate(353.7970555971747 14.943914544092468)scale(0.9962640099626402)" xlink:href="#CMR17-99"/>
    <use transform="translate(394.2827160598926 14.943914544092468)scale(0.9962640099626402)" xlink:href="#CMR17-109"/>
    <use transform="translate(471.2023059279655 51.097553485951124)scale(0.6973817666173724)" xlink:href="#CMSY10-0"/>
    <use transform="translate(525.4432991759419 51.097553485951124)scale(0.6973817666173724)" xlink:href="#CMR17-50"/>
    <use transform="translate(585.5986218672167 14.943914544092468)scale(0.9962640099626402)" xlink:href="#CMR17-115"/>
    <use transform="translate(621.3999595024518 51.097553485951124)scale(0.6973817666173724)" xlink:href="#CMSY10-0"/>
    <use transform="translate(675.6409527504281 51.097553485951124)scale(0.6973817666173724)" xlink:href="#CMR17-49"/>
    <use transform="translate(735.7962754417031 32.56265870660803)scale(0.9962640099626402)" xlink:href="#CMR17-23"/>
    <use transform="translate(735.7962754417031 14.943914544092468)scale(0.9962640099626402)" xlink:href="#CMR17-65"/>
    <use transform="translate(804.8687052459528 74.82118143388077)scale(0.6973817666173724)" xlink:href="#CMSY10-0"/>
    <use transform="translate(859.109698493929 74.82118143388077)scale(0.6973817666173724)" xlink:href="#CMR17-49"/>
    <use transform="translate(891.5910124630293 14.943914544092468)scale(0.9962640099626402)" xlink:href="#CMR17-93"/>
   </g>
  </g>
 </g>
 <defs>
  <clipPath id="p25804d97c3">
   <rect height="90.72" width="176.4" x="50.4" y="25.92"/>
  </clipPath>
  <clipPath id="p501ab32ebe">
   <rect height="90.72" width="176.4" x="50.4" y="116.64"/>
  </clipPath>
  <clipPath id="p92d66ec8eb">
   <rect height="90.72" width="176.4" x="50.4" y="207.36"/>
  </clipPath>
  <clipPath id="pec31a4c604">
   <rect height="90.72" width="176.4" x="50.4" y="298.08"/>
  </clipPath>
 </defs>
</svg>
