<?xml version="1.0" encoding="utf-8" standalone="no"?>
<!DOCTYPE svg PUBLIC "-//W3C//DTD SVG 1.1//EN"
  "http://www.w3.org/Graphics/SVG/1.1/DTD/svg11.dtd">
<!-- Created with matplotlib (http://matplotlib.org/) -->
<svg height="194pt" version="1.1" viewBox="0 0 252 194" width="252pt" xmlns="http://www.w3.org/2000/svg" xmlns:xlink="http://www.w3.org/1999/xlink">
 <defs>
  <style type="text/css">
*{stroke-linecap:butt;stroke-linejoin:round;}
  </style>
 </defs>
 <g id="figure_1">
  <g id="patch_1">
   <path d="
M0 194.4
L252 194.4
L252 0
L0 0
z
" style="fill:#ffffff;"/>
  </g>
  <g id="axes_1">
   <g id="patch_2">
    <path d="
M50.4 88.452
L239.4 88.452
L239.4 13.608
L50.4 13.608
z
" style="fill:#ffffff;"/>
   </g>
   <g id="line2d_1">
    <path clip-path="url(#p3e5e2ca0f1)" d="
M50.9043 21.7425
L51.6448 21.7425
L51.6448 24.1187
L53.1259 24.1187
L53.1259 22.9648
L54.6068 22.9648
L54.6068 30.3326
L56.0876 30.3326
L56.0876 23.9563
L57.5684 23.9563
L57.5684 25.2959
L59.049 25.2959
L59.049 23.1944
L60.5295 23.1944
L60.5295 21.27
L62.01 21.27
L62.01 29.5417
L63.4903 29.5417
L63.4903 21.4653
L64.9706 21.4653
L64.9706 24.4292
L66.4507 24.4292
L66.4507 30.5375
L69.4107 30.4267
L69.4107 29.7836
L70.8906 29.7836
L70.8906 31.7055
L72.3704 31.7055
L72.3704 23.9681
L73.85 23.9681
L73.85 20.1598
L75.3296 20.1598
L75.3296 27.7958
L76.8091 27.7958
L76.8091 26.5832
L78.2884 26.5832
L78.2884 32.4223
L79.7677 32.4223
L79.7677 44.4096
L81.2469 44.4096
L81.2469 38.955
L82.7259 38.955
L82.7259 39.6383
L84.2049 39.6383
L84.2049 31.3514
L85.6838 31.3514
L85.6838 27.7124
L87.1626 27.7124
L87.1626 24.1274
L90.1198 24.0477
L90.1198 29.7091
L91.5983 29.7091
L91.5983 31.577
L93.0767 31.577
L93.0767 31.3129
L94.555 31.3129
L94.555 32.5821
L96.0332 32.5821
L96.0332 26.4237
L97.5113 26.4237
L97.5113 29.335
L98.9893 29.335
L98.9893 23.8425
L100.467 23.8425
L100.467 22.1474
L101.945 22.1474
L101.945 23.0899
L103.423 23.0899
L103.423 22.955
L104.9 22.955
L104.9 22.0358
L106.378 22.0358
L106.378 22.6349
L107.855 22.6349
L107.855 23.4998
L109.333 23.4998
L109.333 25.3017
L110.81 25.3017
L110.81 36.0075
L112.287 36.0075
L112.287 40.6587
L113.764 40.6587
L113.764 43.8053
L115.241 43.8053
L115.241 37.4359
L116.718 37.4359
L116.718 38.0632
L118.194 38.0632
L118.194 25.7215
L119.671 25.7215
L119.671 30.7242
L121.147 30.7242
L121.147 44.1704
L122.624 44.1704
L122.624 56.905
L124.1 56.905
L124.1 70.817
L125.576 70.817
L125.576 71.6278
L127.053 71.6278
L127.053 61.5736
L128.529 61.5736
L128.529 43.4479
L130.005 43.4479
L130.005 32.7974
L131.48 32.7974
L131.48 29.5677
L132.956 29.5677
L132.956 28.143
L134.432 28.143
L134.432 23.0446
L135.907 23.0446
L135.907 26.6466
L137.383 26.6466
L137.383 29.8385
L138.858 29.8385
L138.858 26.8931
L140.333 26.8931
L140.333 32.8076
L141.809 32.8076
L141.809 26.2815
L143.284 26.2815
L143.284 34.0035
L144.759 34.0035
L144.759 30.9872
L146.233 30.9872
L146.233 33.6312
L147.708 33.6312
L147.708 24.761
L149.183 24.761
L149.183 20.3948
L150.657 20.3948
L150.657 29.964
L152.132 29.964
L152.132 24.9371
L153.606 24.9371
L153.606 26.7832
L155.08 26.7832
L155.08 29.5037
L156.555 29.5037
L156.555 30.0947
L158.029 30.0947
L158.029 25.6677
L159.503 25.6677
L159.503 29.6135
L160.977 29.6135
L160.977 25.3484
L162.45 25.3484
L162.45 23.064
L163.924 23.064
L163.924 24.6617
L165.398 24.6617
L165.398 25.0234
L168.344 24.9153
L168.344 27.864
L169.818 27.864
L169.818 32.6432
L171.291 32.6432
L171.291 43.6821
L172.764 43.6821
L172.764 59.4509
L174.237 59.4509
L174.237 70.1286
L175.71 70.1286
L175.71 74.2933
L177.183 74.2933
L177.183 68.6649
L178.655 68.6649
L178.655 75.2282
L180.128 75.2282
L180.128 85.6708
L181.601 85.6708
L181.601 71.0008
L183.073 71.0008
L183.073 52.5013
L184.545 52.5013
L184.545 32.6664
L186.017 32.6664
L186.017 30.3475
L187.49 30.3475
L187.49 27.6901
L188.962 27.6901
L188.962 25.2665
L190.433 25.2665
L190.433 21.7194
L191.905 21.7194
L191.905 21.358
L193.377 21.358
L193.377 26.4033
L194.849 26.4033
L194.849 26.8755
L196.32 26.8755
L196.32 27.0239
L197.792 27.0239
L197.792 30.8814
L199.263 30.8814
L199.263 26.5138
L200.734 26.5138
L200.734 23.4701
L202.205 23.4701
L202.205 29.2774
L203.676 29.2774
L203.676 23.8464
L205.147 23.8464
L205.147 27.2286
L206.618 27.2286
L206.618 23.4515
L208.089 23.4515
L208.089 22.7727
L209.559 22.7727
L209.559 21.5364
L211.03 21.5364
L211.03 16.7241
L212.5 16.7241
L212.5 20.6694
L213.971 20.6694
L213.971 23.5339
L215.441 23.5339
L215.441 22.3696
L216.911 22.3696
L216.911 29.1445
L218.381 29.1445
L218.381 24.5653
L219.851 24.5653
L219.851 27.0005
L221.321 27.0005
L221.321 23.849
L222.791 23.849
L222.791 25.4317
L224.26 25.4317
L224.26 21.044
L225.73 21.044
L225.73 20.0056
L227.199 20.0056
L227.199 24.2066
L228.669 24.2066
L228.669 21.8962
L230.138 21.8962
L230.138 22.9864
L231.607 22.9864
L231.607 25.2224
L233.076 25.2224
L233.076 24.9905
L234.545 24.9905
L234.545 22.4238
L236.014 22.4238
L236.014 18.4262
L237.483 18.4262
L237.483 25.8663
L238.217 25.8663
L238.217 25.8663" style="fill:none;stroke:#0000ff;stroke-linecap:square;"/>
   </g>
   <g id="line2d_2">
    <path clip-path="url(#p3e5e2ca0f1)" d="
M50.9043 25.5719
L51.6448 25.5719
L51.6448 25.5719
L51.6448 25.5719
L51.6448 25.518
L54.6068 25.4413
L54.6068 25.3948
L59.049 25.503
L59.049 25.5476
L62.01 25.5574
L62.01 25.6864
L63.4903 25.6864
L63.4903 26.2131
L64.9706 26.2131
L64.9706 27.3728
L66.4507 27.3728
L66.4507 28.852
L67.9308 28.852
L67.9308 29.8214
L70.8906 29.9241
L70.8906 29.3884
L72.3704 29.3884
L72.3704 28.3916
L73.85 28.3916
L73.85 27.1327
L75.3296 27.1327
L75.3296 26.2556
L76.8091 26.2556
L76.8091 26.3912
L78.2884 26.3912
L78.2884 27.6611
L79.7677 27.6611
L79.7677 29.4535
L81.2469 29.4535
L81.2469 30.3926
L82.7259 30.3926
L82.7259 29.6912
L84.2049 29.6912
L84.2049 28.1606
L85.6838 28.1606
L85.6838 27.0468
L87.1626 27.0468
L87.1626 26.6657
L88.6413 26.6657
L88.6413 27.259
L90.1198 27.259
L90.1198 29.7979
L91.5983 29.7979
L91.5983 33.7734
L93.0767 33.7734
L93.0767 35.9003
L94.555 35.9003
L94.555 33.9317
L96.0332 33.9317
L96.0332 29.8061
L97.5113 29.8061
L97.5113 26.8515
L98.9893 26.8515
L98.9893 25.8375
L100.467 25.8375
L100.467 25.7075
L104.9 25.6177
L104.9 25.5269
L107.855 25.5281
L107.855 25.8068
L109.333 25.8068
L109.333 27.1346
L110.81 27.1346
L110.81 31.2004
L112.287 31.2004
L112.287 37.9711
L113.764 37.9711
L113.764 42.8118
L115.241 42.8118
L115.241 41.2124
L116.718 41.2124
L116.718 35.2385
L118.194 35.2385
L118.194 30.78
L119.671 30.78
L119.671 31.0413
L121.147 31.0413
L121.147 38.1633
L122.624 38.1633
L122.624 54.1132
L124.1 54.1132
L124.1 71.7828
L125.576 71.7828
L125.576 76.1633
L127.053 76.1633
L127.053 62.6203
L128.529 62.6203
L128.529 43.4947
L130.005 43.4947
L130.005 31.759
L131.48 31.759
L131.48 28.4649
L135.907 28.4987
L135.907 27.6581
L137.383 27.6581
L137.383 26.6653
L138.858 26.6653
L138.858 26.1132
L140.333 26.1132
L140.333 25.957
L146.233 25.9601
L146.233 25.7382
L147.708 25.7382
L147.708 25.4845
L149.183 25.4845
L149.183 25.3378
L152.132 25.4279
L152.132 26.2492
L153.606 26.2492
L153.606 28.6417
L155.08 28.6417
L155.08 32.1397
L156.555 32.1397
L156.555 34.1646
L158.029 34.1646
L158.029 33.0764
L159.503 33.0764
L159.503 30.7101
L160.977 30.7101
L160.977 29.7761
L162.45 29.7761
L162.45 30.0197
L163.924 30.0197
L163.924 29.5746
L165.398 29.5746
L165.398 28.1177
L166.871 28.1177
L166.871 26.7929
L169.818 26.6899
L169.818 29.4796
L171.291 29.4796
L171.291 37.9835
L172.764 37.9835
L172.764 50.9137
L174.237 50.9137
L174.237 59.8278
L175.71 59.8278
L175.71 60.4775
L177.183 60.4775
L177.183 61.7945
L178.655 61.7945
L178.655 71.1237
L180.128 71.1237
L180.128 78.1689
L181.601 78.1689
L181.601 69.8836
L183.073 69.8836
L183.073 50.7928
L184.545 50.7928
L184.545 34.9869
L186.017 34.9869
L186.017 27.9573
L187.49 27.9573
L187.49 26.1353
L188.962 26.1353
L188.962 25.9511
L190.433 25.9511
L190.433 26.4145
L191.905 26.4145
L191.905 27.3006
L193.377 27.3006
L193.377 27.965
L196.32 27.8953
L196.32 27.5803
L197.792 27.5803
L197.792 27.7542
L199.263 27.7542
L199.263 28.0754
L200.734 28.0754
L200.734 27.7328
L202.205 27.7328
L202.205 26.8742
L203.676 26.8742
L203.676 26.3662
L205.147 26.3662
L205.147 26.6184
L206.618 26.6184
L206.618 27.2749
L208.089 27.2749
L208.089 27.686
L209.559 27.686
L209.559 27.4553
L211.03 27.4553
L211.03 26.7488
L212.5 26.7488
L212.5 26.0566
L213.971 26.0566
L213.971 25.7013
L216.911 25.7673
L216.911 26.2254
L218.381 26.2254
L218.381 26.7668
L219.851 26.7668
L219.851 26.8989
L221.321 26.8989
L221.321 26.4819
L222.791 26.4819
L222.791 25.8917
L224.26 25.8917
L224.26 25.5469
L227.199 25.5859
L227.199 25.9499
L228.669 25.9499
L228.669 26.3638
L230.138 26.3638
L230.138 26.5088
L233.076 26.4717
L233.076 26.6418
L234.545 26.6418
L234.545 27.0729
L236.014 27.0729
L236.014 27.4376
L237.483 27.4376
L237.483 27.754
L238.217 27.754
L238.217 27.754" style="fill:none;stroke:#ff0000;stroke-linecap:square;"/>
   </g>
   <g id="matplotlib.axis_1">
    <g id="xtick_1">
     <g id="line2d_3">
      <defs>
       <path d="
M0 0
L0 -4" id="mc7db9fdffb" style="stroke:#000000;stroke-width:0.5;"/>
      </defs>
      <g>
       <use style="stroke:#000000;stroke-width:0.5;" x="50.4" xlink:href="#mc7db9fdffb" y="88.452"/>
      </g>
     </g>
     <g id="line2d_4">
      <defs>
       <path d="
M0 0
L0 4" id="m5a7d422ac3" style="stroke:#000000;stroke-width:0.5;"/>
      </defs>
      <g>
       <use style="stroke:#000000;stroke-width:0.5;" x="50.4" xlink:href="#m5a7d422ac3" y="13.608"/>
      </g>
     </g>
    </g>
    <g id="xtick_2">
     <g id="line2d_5">
      <g>
       <use style="stroke:#000000;stroke-width:0.5;" x="81.9" xlink:href="#mc7db9fdffb" y="88.452"/>
      </g>
     </g>
     <g id="line2d_6">
      <g>
       <use style="stroke:#000000;stroke-width:0.5;" x="81.9" xlink:href="#m5a7d422ac3" y="13.608"/>
      </g>
     </g>
    </g>
    <g id="xtick_3">
     <g id="line2d_7">
      <g>
       <use style="stroke:#000000;stroke-width:0.5;" x="113.4" xlink:href="#mc7db9fdffb" y="88.452"/>
      </g>
     </g>
     <g id="line2d_8">
      <g>
       <use style="stroke:#000000;stroke-width:0.5;" x="113.4" xlink:href="#m5a7d422ac3" y="13.608"/>
      </g>
     </g>
    </g>
    <g id="xtick_4">
     <g id="line2d_9">
      <g>
       <use style="stroke:#000000;stroke-width:0.5;" x="144.9" xlink:href="#mc7db9fdffb" y="88.452"/>
      </g>
     </g>
     <g id="line2d_10">
      <g>
       <use style="stroke:#000000;stroke-width:0.5;" x="144.9" xlink:href="#m5a7d422ac3" y="13.608"/>
      </g>
     </g>
    </g>
    <g id="xtick_5">
     <g id="line2d_11">
      <g>
       <use style="stroke:#000000;stroke-width:0.5;" x="176.4" xlink:href="#mc7db9fdffb" y="88.452"/>
      </g>
     </g>
     <g id="line2d_12">
      <g>
       <use style="stroke:#000000;stroke-width:0.5;" x="176.4" xlink:href="#m5a7d422ac3" y="13.608"/>
      </g>
     </g>
    </g>
    <g id="xtick_6">
     <g id="line2d_13">
      <g>
       <use style="stroke:#000000;stroke-width:0.5;" x="207.9" xlink:href="#mc7db9fdffb" y="88.452"/>
      </g>
     </g>
     <g id="line2d_14">
      <g>
       <use style="stroke:#000000;stroke-width:0.5;" x="207.9" xlink:href="#m5a7d422ac3" y="13.608"/>
      </g>
     </g>
    </g>
    <g id="xtick_7">
     <g id="line2d_15">
      <g>
       <use style="stroke:#000000;stroke-width:0.5;" x="239.4" xlink:href="#mc7db9fdffb" y="88.452"/>
      </g>
     </g>
     <g id="line2d_16">
      <g>
       <use style="stroke:#000000;stroke-width:0.5;" x="239.4" xlink:href="#m5a7d422ac3" y="13.608"/>
      </g>
     </g>
    </g>
   </g>
   <g id="matplotlib.axis_2">
    <g id="ytick_1">
     <g id="line2d_17">
      <defs>
       <path d="
M0 0
L4 0" id="md7965d1ba0" style="stroke:#000000;stroke-width:0.5;"/>
      </defs>
      <g>
       <use style="stroke:#000000;stroke-width:0.5;" x="50.4" xlink:href="#md7965d1ba0" y="80.136"/>
      </g>
     </g>
     <g id="line2d_18">
      <defs>
       <path d="
M0 0
L-4 0" id="md9a1c1a7cd" style="stroke:#000000;stroke-width:0.5;"/>
      </defs>
      <g>
       <use style="stroke:#000000;stroke-width:0.5;" x="239.4" xlink:href="#md9a1c1a7cd" y="80.136"/>
      </g>
     </g>
     <g id="text_1">
      <!-- $1.4$ -->
      <defs>
       <path d="
M26.5938 63.3125
C26.5938 65.4062 26.5 65.5 25.0938 65.5
C21.2031 61.1875 15.2969 59.7969 9.70312 59.7969
C9.40625 59.7969 8.90625 59.7969 8.79688 59.6094
C8.70312 59.3906 8.70312 59.1719 8.70312 57
C11.7969 57 17 57.5938 21 59.9844
L21 7.20312
C21 3.6875 20.7969 2.5 12.2031 2.5
L9.20312 2.5
L9.20312 0
C14 0 19 0 23.7969 0
C28.5938 0 33.5938 0 38.4062 0
L38.4062 2.5
L35.4062 2.5
C26.7969 2.5 26.5938 3.59375 26.5938 7.15625
z
" id="CMR17-49"/>
       <path d="
M33.5938 64.3281
C33.5938 66.4062 33.5 66.5 31.7031 66.5
L2 19.5938
L2 17
L27.7969 17
L27.7969 7.14062
C27.7969 3.5 27.5938 2.5 20.5938 2.5
L18.7031 2.5
L18.7031 0
C21.9062 0 27.2969 0 30.7031 0
C34.0938 0 39.5 0 42.7031 0
L42.7031 2.5
L40.7969 2.5
C33.7969 2.5 33.5938 3.5 33.5938 7.14062
L33.5938 17
L43.7969 17
L43.7969 19.5938
L33.5938 19.5938
z

M28.0938 57.7656
L28.0938 19.5938
L4 19.5938
z
" id="CMR17-52"/>
       <path d="
M18.4062 4.79688
C18.4062 7.6875 16 9.67188 13.5938 9.67188
C10.7031 9.67188 8.70312 7.28125 8.70312 4.89062
C8.70312 2 11.0938 0 13.5 0
C16.4062 0 18.4062 2.39062 18.4062 4.79688" id="CMMI12-58"/>
      </defs>
      <g transform="translate(33.6699210237 82.6266600249)scale(0.1 -0.1)">
       <use transform="scale(0.9962640099626402)" xlink:href="#CMR17-49"/>
       <use transform="translate(45.69047711706103 0.0)scale(0.9962640099626402)" xlink:href="#CMMI12-58"/>
       <use transform="translate(72.78765420688046 0.0)scale(0.9962640099626402)" xlink:href="#CMR17-52"/>
      </g>
     </g>
    </g>
    <g id="ytick_2">
     <g id="line2d_19">
      <g>
       <use style="stroke:#000000;stroke-width:0.5;" x="50.4" xlink:href="#md7965d1ba0" y="63.504"/>
      </g>
     </g>
     <g id="line2d_20">
      <g>
       <use style="stroke:#000000;stroke-width:0.5;" x="239.4" xlink:href="#md9a1c1a7cd" y="63.504"/>
      </g>
     </g>
     <g id="text_2">
      <!-- $1.6$ -->
      <defs>
       <path d="
M10.5938 34
C10.5938 57.6562 21.7969 63 28.2969 63
C30.4062 63 35.5 62.6406 37.5 59
C35.9062 59 32.9062 59 32.9062 55.5156
C32.9062 52.8281 35.0938 51.9219 36.5 51.9219
C37.4062 51.9219 40.0938 52.3125 40.0938 55.625
C40.0938 61.7812 35.0938 65.2969 28.2031 65.2969
C16.2969 65.2969 3.79688 52.9688 3.79688 31
C3.79688 3.95312 15.0938 -2 23.0938 -2
C32.7969 -2 42 6.67188 42 20.0469
C42 32.5156 33.9062 41.5938 23.7031 41.5938
C17.5938 41.5938 13.0938 37.6094 10.5938 30.625
z

M23.0938 0.390625
C10.7969 0.390625 10.7969 18.75 10.7969 22.4375
C10.7969 29.625 14.2031 40 23.5 40
C25.2031 40 30.0938 40 33.4062 33.125
C35.2031 29.2188 35.2031 25.1406 35.2031 20.1406
C35.2031 14.75 35.2031 10.7812 33.0938 6.78125
C30.9062 2.67188 27.7031 0.390625 23.0938 0.390625" id="CMR17-54"/>
      </defs>
      <g transform="translate(33.6699210237 65.9946600249)scale(0.1 -0.1)">
       <use transform="scale(0.9962640099626402)" xlink:href="#CMR17-49"/>
       <use transform="translate(45.69047711706103 0.0)scale(0.9962640099626402)" xlink:href="#CMMI12-58"/>
       <use transform="translate(72.78765420688046 0.0)scale(0.9962640099626402)" xlink:href="#CMR17-54"/>
      </g>
     </g>
    </g>
    <g id="ytick_3">
     <g id="line2d_21">
      <g>
       <use style="stroke:#000000;stroke-width:0.5;" x="50.4" xlink:href="#md7965d1ba0" y="46.872"/>
      </g>
     </g>
     <g id="line2d_22">
      <g>
       <use style="stroke:#000000;stroke-width:0.5;" x="239.4" xlink:href="#md9a1c1a7cd" y="46.872"/>
      </g>
     </g>
     <g id="text_3">
      <!-- $1.8$ -->
      <defs>
       <path d="
M27.2031 35.375
C33.5 38.5625 39.9062 43.3281 39.9062 50.9844
C39.9062 60.0312 31.0938 65.2969 23 65.2969
C13.9062 65.2969 5.90625 58.7344 5.90625 49.6875
C5.90625 47.2031 6.5 42.9219 10.4062 39.1406
C11.4062 38.1562 15.5938 35.1719 18.2969 33.2812
C13.7969 30.9844 3.29688 25.5312 3.29688 14.5938
C3.29688 4.35938 13.0938 -2 22.7969 -2
C33.5 -2 42.5 5.65625 42.5 15.7969
C42.5 24.8438 36.4062 29.0312 32.4062 31.7031
z

M14.0938 44.125
C13.2969 44.625 9.29688 47.7031 9.29688 52.375
C9.29688 58.4375 15.5938 63 22.7969 63
C30.7031 63 36.5 57.4531 36.5 50.9844
C36.5 41.7344 26.0938 36.4688 25.5938 36.4688
C25.5 36.4688 25.4062 36.4688 24.5938 37.0781
z

M32.5 23.7344
C34 22.6406 38.7969 19.375 38.7969 13.2969
C38.7969 5.95312 31.4062 0.390625 23 0.390625
C13.9062 0.390625 7 6.84375 7 14.6875
C7 22.5469 13.0938 29.0938 20 32.1875
z
" id="CMR17-56"/>
      </defs>
      <g transform="translate(33.6699210237 49.3626600249)scale(0.1 -0.1)">
       <use transform="scale(0.9962640099626402)" xlink:href="#CMR17-49"/>
       <use transform="translate(45.69047711706103 0.0)scale(0.9962640099626402)" xlink:href="#CMMI12-58"/>
       <use transform="translate(72.78765420688046 0.0)scale(0.9962640099626402)" xlink:href="#CMR17-56"/>
      </g>
     </g>
    </g>
    <g id="ytick_4">
     <g id="line2d_23">
      <g>
       <use style="stroke:#000000;stroke-width:0.5;" x="50.4" xlink:href="#md7965d1ba0" y="30.24"/>
      </g>
     </g>
     <g id="line2d_24">
      <g>
       <use style="stroke:#000000;stroke-width:0.5;" x="239.4" xlink:href="#md9a1c1a7cd" y="30.24"/>
      </g>
     </g>
     <g id="text_4">
      <!-- $2.0$ -->
      <defs>
       <path d="
M41.7031 15.4531
L39.9062 15.4531
C38.9062 8.375 38.0938 7.17188 37.7031 6.5625
C37.2031 5.76562 30 5.76562 28.5938 5.76562
L9.40625 5.76562
C13 9.67188 20 16.75 28.5 24.9531
C34.5938 30.7344 41.7031 37.5312 41.7031 47.4219
C41.7031 59.2188 32.2969 66 21.7969 66
C10.7969 66 4.09375 56.3125 4.09375 47.3438
C4.09375 43.4375 7 42.9375 8.20312 42.9375
C9.20312 42.9375 12.2031 43.5469 12.2031 47.0312
C12.2031 50.1094 9.59375 51 8.20312 51
C7.59375 51 7 50.9062 6.59375 50.7031
C8.5 59.2188 14.2969 63.4062 20.4062 63.4062
C29.0938 63.4062 34.7969 56.5156 34.7969 47.4219
C34.7969 38.7344 29.7031 31.25 24 24.75
L4.09375 2.28125
L4.09375 0
L39.2969 0
z
" id="CMR17-50"/>
       <path d="
M42 31.6406
C42 37.75 41.9062 48.125 37.7031 56.1094
C34 63.1094 28.0938 65.5938 22.9062 65.5938
C18.0938 65.5938 12 63.4062 8.20312 56.2031
C4.20312 48.7188 3.79688 39.4375 3.79688 31.6406
C3.79688 25.9531 3.90625 17.2812 7 9.67188
C11.2969 -0.609375 19 -2 22.9062 -2
C27.5 -2 34.5 -0.109375 38.5938 9.375
C41.5938 16.2812 42 24.3594 42 31.6406
M22.9062 -0.40625
C16.5 -0.40625 12.7031 5.07812 11.2969 12.6875
C10.2031 18.5625 10.2031 27.1562 10.2031 32.75
C10.2031 40.4375 10.2031 46.8281 11.5 52.9219
C13.4062 61.3906 19 64 22.9062 64
C27 64 32.2969 61.2969 34.2031 53.125
C35.5 47.4375 35.5938 40.7344 35.5938 32.75
C35.5938 26.25 35.5938 18.2656 34.4062 12.375
C32.2969 1.48438 26.4062 -0.40625 22.9062 -0.40625" id="CMR17-48"/>
      </defs>
      <g transform="translate(33.6699210237 32.7306600249)scale(0.1 -0.1)">
       <use transform="scale(0.9962640099626402)" xlink:href="#CMR17-50"/>
       <use transform="translate(45.69047711706103 0.0)scale(0.9962640099626402)" xlink:href="#CMMI12-58"/>
       <use transform="translate(72.78765420688046 0.0)scale(0.9962640099626402)" xlink:href="#CMR17-48"/>
      </g>
     </g>
    </g>
    <g id="ytick_5">
     <g id="line2d_25">
      <g>
       <use style="stroke:#000000;stroke-width:0.5;" x="50.4" xlink:href="#md7965d1ba0" y="13.608"/>
      </g>
     </g>
     <g id="line2d_26">
      <g>
       <use style="stroke:#000000;stroke-width:0.5;" x="239.4" xlink:href="#md9a1c1a7cd" y="13.608"/>
      </g>
     </g>
     <g id="text_5">
      <!-- $2.2$ -->
      <g transform="translate(33.6699210237 16.0986600249)scale(0.1 -0.1)">
       <use transform="scale(0.9962640099626402)" xlink:href="#CMR17-50"/>
       <use transform="translate(45.69047711706103 0.0)scale(0.9962640099626402)" xlink:href="#CMMI12-58"/>
       <use transform="translate(72.78765420688046 0.0)scale(0.9962640099626402)" xlink:href="#CMR17-50"/>
      </g>
     </g>
    </g>
    <g id="text_6">
     <!-- $\times10^{-13}$ -->
     <defs>
      <path d="
M38.9062 27.8906
L18.9062 47.7969
C17.7031 49 17.5 49.1875 16.7031 49.1875
C15.7031 49.1875 14.7031 48.2969 14.7031 47.1875
C14.7031 46.5 14.9062 46.2969 16 45.1875
L36 25.0938
L16 5
C14.9062 3.89062 14.7031 3.6875 14.7031 3
C14.7031 1.89062 15.7031 1 16.7031 1
C17.5 1 17.7031 1.1875 18.9062 2.39062
L38.7969 22.2969
L59.5 1.59375
C59.7031 1.5 60.4062 1 61 1
C62.2031 1 63 1.89062 63 3
C63 3.1875 63 3.59375 62.7031 4.09375
C62.5938 4.29688 46.7031 20 41.7031 25.0938
L60 43.3906
C60.5 44 62 45.2969 62.5 45.8906
C62.5938 46.0938 63 46.5 63 47.1875
C63 48.2969 62.2031 49.1875 61 49.1875
C60.2031 49.1875 59.7969 48.7969 58.7031 47.6875
z
" id="CMSY10-2"/>
      <path d="
M65.9062 23
C67.5938 23 69.4062 23 69.4062 25
C69.4062 27 67.5938 27 65.9062 27
L11.7969 27
C10.0938 27 8.29688 27 8.29688 25
C8.29688 23 10.0938 23 11.7969 23
z
" id="CMSY10-0"/>
      <path d="
M22.0938 33.7031
C31 33.7031 34.9062 25.9688 34.9062 17.0312
C34.9062 5 28.5 0.390625 22.7031 0.390625
C17.4062 0.390625 8.79688 3.03125 6.09375 10.8281
C6.59375 10.625 7.09375 10.625 7.59375 10.625
C10 10.625 11.7969 12.2188 11.7969 14.8125
C11.7969 17.7031 9.59375 19 7.59375 19
C5.90625 19 3.29688 18.2031 3.29688 14.4688
C3.29688 5.23438 12.2969 -2 22.9062 -2
C34 -2 42.5 6.71875 42.5 16.9531
C42.5 26.6719 34.5 33.6875 25 34.7969
C32.5938 36.375 39.9062 43.0625 39.9062 52.0156
C39.9062 59.6875 32 65.2969 23 65.2969
C13.9062 65.2969 5.90625 59.8281 5.90625 52.0156
C5.90625 48.5938 8.5 48 9.79688 48
C11.9062 48 13.7031 49.2969 13.7031 51.8906
C13.7031 54.4688 11.9062 55.7656 9.79688 55.7656
C9.40625 55.7656 8.90625 55.7656 8.5 55.5625
C11.4062 61.8594 19.2969 63 22.7969 63
C26.2969 63 32.9062 61.3281 32.9062 51.875
C32.9062 49.1094 32.5 44.1875 29.0938 39.8438
C26.0938 36 22.7031 36 19.4062 35.5938
C18.9062 35.5938 16.5938 35.5938 16.2031 35.5938
C15.5 35.4844 15.0938 35.3906 15.0938 34.5938
C15.0938 33.8125 15.2031 33.7031 17.2031 33.7031
z
" id="CMR17-51"/>
     </defs>
     <g transform="translate(50.4 10.608)scale(0.1 -0.1)">
      <use transform="scale(0.9962640099626402)" xlink:href="#CMSY10-2"/>
      <use transform="translate(77.4874676506071 0.0)scale(0.9962640099626402)" xlink:href="#CMR17-49"/>
      <use transform="translate(123.17794476766814 0.0)scale(0.9962640099626402)" xlink:href="#CMR17-48"/>
      <use transform="translate(168.86842188472914 36.15363894185866)scale(0.6973817666173724)" xlink:href="#CMSY10-0"/>
      <use transform="translate(223.1094151327055 36.15363894185866)scale(0.6973817666173724)" xlink:href="#CMR17-49"/>
      <use transform="translate(255.09259709682442 36.15363894185866)scale(0.6973817666173724)" xlink:href="#CMR17-51"/>
     </g>
    </g>
   </g>
   <g id="patch_3">
    <path d="
M239.4 88.452
L239.4 13.608" style="fill:none;stroke:#000000;"/>
   </g>
   <g id="patch_4">
    <path d="
M50.4 13.608
L239.4 13.608" style="fill:none;stroke:#000000;"/>
   </g>
   <g id="patch_5">
    <path d="
M50.4 88.452
L50.4 13.608" style="fill:none;stroke:#000000;"/>
   </g>
   <g id="patch_6">
    <path d="
M50.4 88.452
L239.4 88.452" style="fill:none;stroke:#000000;"/>
   </g>
  </g>
  <g id="axes_2">
   <g id="patch_7">
    <path d="
M50.4 163.296
L239.4 163.296
L239.4 88.452
L50.4 88.452
z
" style="fill:#ffffff;"/>
   </g>
   <g id="line2d_27">
    <path clip-path="url(#p1cda4a3be3)" d="
M50.9043 110.681
L51.6448 110.681
L51.6448 116.93
L53.1259 116.93
L53.1259 114.16
L54.6068 114.16
L54.6068 133.225
L56.0876 133.225
L56.0876 116.75
L57.5684 116.75
L57.5684 119.995
L59.049 119.995
L59.049 114.477
L60.5295 114.477
L60.5295 109.503
L62.01 109.503
L62.01 130.442
L63.4903 130.442
L63.4903 108.319
L64.9706 108.319
L64.9706 112.959
L66.4507 112.959
L66.4507 124.862
L67.9308 124.862
L67.9308 122.085
L69.4107 122.085
L69.4107 120.167
L70.8906 120.167
L70.8906 126.486
L72.3704 126.486
L72.3704 109.153
L73.85 109.153
L73.85 102.598
L75.3296 102.598
L75.3296 124.488
L76.8091 124.488
L76.8091 121.022
L78.2884 121.022
L78.2884 132.771
L79.7677 132.771
L79.7677 158.986
L81.2469 158.986
L81.2469 142.546
L82.7259 142.546
L82.7259 146.106
L84.2049 146.106
L84.2049 128.733
L85.6838 128.733
L85.6838 122.24
L87.1626 122.24
L87.1626 114.001
L88.6413 114.001
L88.6413 112.271
L90.1198 112.271
L90.1198 120.3
L91.5983 120.3
L91.5983 114.88
L93.0767 114.88
L93.0767 108.732
L94.555 108.732
L94.555 117.058
L96.0332 117.058
L96.0332 111.83
L97.5113 111.83
L97.5113 126.914
L98.9893 126.914
L98.9893 115.398
L100.467 115.398
L100.467 111.373
L101.945 111.373
L101.945 113.828
L103.423 113.828
L103.423 113.681
L104.9 113.681
L104.9 111.551
L106.378 111.551
L106.378 113.088
L107.855 113.088
L107.855 114.596
L109.333 114.596
L109.333 115.815
L110.81 115.815
L110.81 132.889
L112.287 132.889
L112.287 127.439
L113.764 127.439
L113.764 123.083
L115.241 123.083
L115.241 110.817
L116.718 110.817
L116.718 127.791
L118.194 127.791
L118.194 107.52
L119.671 107.52
L119.671 119.712
L121.147 119.712
L121.147 135.975
L122.624 135.975
L122.624 127.707
L124.1 127.707
L124.1 118.045
L125.576 118.045
L125.576 108.865
L127.053 108.865
L127.053 117.837
L128.529 117.837
L128.529 120.408
L130.005 120.408
L130.005 123.198
L131.48 123.198
L131.48 123.364
L132.956 123.364
L132.956 119.546
L134.432 119.546
L134.432 106.503
L135.907 106.503
L135.907 117.927
L137.383 117.927
L137.383 128.688
L138.858 128.688
L138.858 122.534
L140.333 122.534
L140.333 138.144
L141.809 138.144
L141.809 121.306
L143.284 121.306
L143.284 141.038
L144.759 141.038
L144.759 133.455
L146.233 133.455
L146.233 140.824
L147.708 140.824
L147.708 118.668
L149.183 118.668
L149.183 107.817
L150.657 107.817
L150.657 132.192
L152.132 132.192
L152.132 117.154
L153.606 117.154
L153.606 115.749
L155.08 115.749
L155.08 113.75
L156.555 113.75
L156.555 110.063
L158.029 110.063
L158.029 101.477
L159.503 101.477
L159.503 117.708
L160.977 117.708
L160.977 109.142
L162.45 109.142
L162.45 102.642
L163.924 102.642
L163.924 107.895
L165.398 107.895
L165.398 112.571
L166.871 112.571
L166.871 115.7
L168.344 115.7
L168.344 123.547
L169.818 123.547
L169.818 128.663
L171.291 128.663
L171.291 135.181
L172.764 135.181
L172.764 142.481
L174.237 142.481
L174.237 147.016
L175.71 147.016
L175.71 156.055
L177.183 156.055
L177.183 138.195
L178.655 138.195
L178.655 131.083
L180.128 131.083
L180.128 139.819
L181.601 139.819
L181.601 123.401
L183.073 123.401
L183.073 124.921
L184.545 124.921
L184.545 114.561
L186.017 114.561
L186.017 126.674
L187.49 126.674
L187.49 124.526
L188.962 124.526
L188.962 118.768
L190.433 118.768
L190.433 108.455
L191.905 108.455
L191.905 105.247
L193.377 105.247
L193.377 116.512
L194.849 116.512
L194.849 117.906
L196.32 117.906
L196.32 119.097
L197.792 119.097
L197.792 128.569
L199.263 128.569
L199.263 116.512
L200.734 116.512
L200.734 109.567
L202.205 109.567
L202.205 126.708
L203.676 126.708
L203.676 114.049
L205.147 114.049
L205.147 122.097
L206.618 122.097
L206.618 110.696
L208.089 110.696
L208.089 107.894
L209.559 107.894
L209.559 105.308
L211.03 105.308
L211.03 94.7502
L212.5 94.7502
L212.5 106.675
L213.971 106.675
L213.971 114.955
L215.441 114.955
L215.441 111.791
L216.911 111.791
L216.911 128.034
L218.381 128.034
L218.381 114.867
L219.851 114.867
L219.851 120.789
L221.321 120.789
L221.321 113.758
L222.791 113.758
L222.791 119.345
L224.26 119.345
L224.26 108.949
L225.73 108.949
L225.73 106.179
L227.199 106.179
L227.199 116.045
L228.669 116.045
L228.669 109.04
L230.138 109.04
L230.138 111.471
L231.607 111.471
L231.607 117.315
L233.076 117.315
L233.076 116.282
L234.545 116.282
L234.545 108.573
L236.014 108.573
L236.014 97.3558
L237.483 97.3558
L237.483 115.674
L238.217 115.674
L238.217 115.674" style="fill:none;stroke:#000000;stroke-linecap:square;"/>
   </g>
   <g id="matplotlib.axis_3">
    <g id="xtick_8">
     <g id="line2d_28">
      <g>
       <use style="stroke:#000000;stroke-width:0.5;" x="50.4" xlink:href="#mc7db9fdffb" y="163.296"/>
      </g>
     </g>
     <g id="line2d_29">
      <g>
       <use style="stroke:#000000;stroke-width:0.5;" x="50.4" xlink:href="#m5a7d422ac3" y="88.452"/>
      </g>
     </g>
     <g id="text_7">
      <!-- 5144 -->
      <defs>
       <path d="
M11.4062 57.6875
C12.4062 57.2812 16.5 56 20.7031 56
C30 56 35.0938 61.0156 38 63.9219
C38 64.7344 38 65.25 37.4062 65.25
C37.2969 65.25 37.0938 65.25 36.2969 64.8281
C32.7969 63.3125 28.7031 62.0781 23.7031 62.0781
C20.7031 62.0781 16.2031 62.5 11.2969 64.7344
C10.2031 65.25 10 65.25 9.90625 65.25
C9.40625 65.25 9.29688 65.1406 9.29688 63.1562
L9.29688 34.2812
C9.29688 32.5 9.29688 32 10.2969 32
C10.7969 32 11 32.2031 11.5 32.9062
C14.7031 37.4844 19.0938 39.4062 24.0938 39.4062
C27.5938 39.4062 35.0938 37.2188 35.0938 20.1406
C35.0938 16.9531 35.0938 11.1719 32.0938 6.57812
C29.5938 2.48438 25.7031 0.390625 21.4062 0.390625
C14.7969 0.390625 8.09375 5 6.29688 12.7188
C6.70312 12.6094 7.5 12.4219 7.90625 12.4219
C9.20312 12.4219 11.7031 13.125 11.7031 16.2188
C11.7031 18.9062 9.79688 20 7.90625 20
C5.59375 20 4.09375 18.5938 4.09375 15.7969
C4.09375 7.09375 11 -2 21.5938 -2
C31.9062 -2 41.7031 6.875 41.7031 19.75
C41.7031 31.7188 33.9062 41 24.2031 41
C19.0938 41 14.7969 39.0938 11.4062 35.4531
z
" id="CMR17-53"/>
      </defs>
      <g transform="translate(40.4373294968 174.21449838)scale(0.1 -0.1)">
       <use transform="scale(0.9962640099626402)" xlink:href="#CMR17-53"/>
       <use transform="translate(45.69047711706103 0.0)scale(0.9962640099626402)" xlink:href="#CMR17-49"/>
       <use transform="translate(91.38095423412206 0.0)scale(0.9962640099626402)" xlink:href="#CMR17-52"/>
       <use transform="translate(137.07143135118307 0.0)scale(0.9962640099626402)" xlink:href="#CMR17-52"/>
      </g>
     </g>
    </g>
    <g id="xtick_9">
     <g id="line2d_30">
      <g>
       <use style="stroke:#000000;stroke-width:0.5;" x="81.9" xlink:href="#mc7db9fdffb" y="163.296"/>
      </g>
     </g>
     <g id="line2d_31">
      <g>
       <use style="stroke:#000000;stroke-width:0.5;" x="81.9" xlink:href="#m5a7d422ac3" y="88.452"/>
      </g>
     </g>
     <g id="text_8">
      <!-- 5145 -->
      <g transform="translate(71.9373294968 174.21449838)scale(0.1 -0.1)">
       <use transform="scale(0.9962640099626402)" xlink:href="#CMR17-53"/>
       <use transform="translate(45.69047711706103 0.0)scale(0.9962640099626402)" xlink:href="#CMR17-49"/>
       <use transform="translate(91.38095423412206 0.0)scale(0.9962640099626402)" xlink:href="#CMR17-52"/>
       <use transform="translate(137.07143135118307 0.0)scale(0.9962640099626402)" xlink:href="#CMR17-53"/>
      </g>
     </g>
    </g>
    <g id="xtick_10">
     <g id="line2d_32">
      <g>
       <use style="stroke:#000000;stroke-width:0.5;" x="113.4" xlink:href="#mc7db9fdffb" y="163.296"/>
      </g>
     </g>
     <g id="line2d_33">
      <g>
       <use style="stroke:#000000;stroke-width:0.5;" x="113.4" xlink:href="#m5a7d422ac3" y="88.452"/>
      </g>
     </g>
     <g id="text_9">
      <!-- 5146 -->
      <g transform="translate(103.437329497 174.21449838)scale(0.1 -0.1)">
       <use transform="scale(0.9962640099626402)" xlink:href="#CMR17-53"/>
       <use transform="translate(45.69047711706103 0.0)scale(0.9962640099626402)" xlink:href="#CMR17-49"/>
       <use transform="translate(91.38095423412206 0.0)scale(0.9962640099626402)" xlink:href="#CMR17-52"/>
       <use transform="translate(137.07143135118307 0.0)scale(0.9962640099626402)" xlink:href="#CMR17-54"/>
      </g>
     </g>
    </g>
    <g id="xtick_11">
     <g id="line2d_34">
      <g>
       <use style="stroke:#000000;stroke-width:0.5;" x="144.9" xlink:href="#mc7db9fdffb" y="163.296"/>
      </g>
     </g>
     <g id="line2d_35">
      <g>
       <use style="stroke:#000000;stroke-width:0.5;" x="144.9" xlink:href="#m5a7d422ac3" y="88.452"/>
      </g>
     </g>
     <g id="text_10">
      <!-- 5147 -->
      <defs>
       <path d="
M45.0938 61.5781
L45.0938 63.7656
L21.5938 63.7656
C9.90625 63.7656 9.70312 65.0781 9.29688 67
L7.5 67
L4.59375 48.3438
L6.40625 48.3438
C6.70312 50.2344 7.40625 55.3125 8.59375 57.2031
C9.20312 58 16.5938 58 18.2969 58
L40.2969 58
L29.2031 41.5781
C21.7969 30.5312 16.7031 15.6094 16.7031 2.57812
C16.7031 1.39062 16.7031 -2 20.2969 -2
C23.9062 -2 23.9062 1.39062 23.9062 2.67188
L23.9062 7.26562
C23.9062 23.5625 26.7031 34.3125 31.2969 41.1875
z
" id="CMR17-55"/>
      </defs>
      <g transform="translate(134.937329497 174.21449838)scale(0.1 -0.1)">
       <use transform="scale(0.9962640099626402)" xlink:href="#CMR17-53"/>
       <use transform="translate(45.69047711706103 0.0)scale(0.9962640099626402)" xlink:href="#CMR17-49"/>
       <use transform="translate(91.38095423412206 0.0)scale(0.9962640099626402)" xlink:href="#CMR17-52"/>
       <use transform="translate(137.07143135118307 0.0)scale(0.9962640099626402)" xlink:href="#CMR17-55"/>
      </g>
     </g>
    </g>
    <g id="xtick_12">
     <g id="line2d_36">
      <g>
       <use style="stroke:#000000;stroke-width:0.5;" x="176.4" xlink:href="#mc7db9fdffb" y="163.296"/>
      </g>
     </g>
     <g id="line2d_37">
      <g>
       <use style="stroke:#000000;stroke-width:0.5;" x="176.4" xlink:href="#m5a7d422ac3" y="88.452"/>
      </g>
     </g>
     <g id="text_11">
      <!-- 5148 -->
      <g transform="translate(166.437329497 174.21449838)scale(0.1 -0.1)">
       <use transform="scale(0.9962640099626402)" xlink:href="#CMR17-53"/>
       <use transform="translate(45.69047711706103 0.0)scale(0.9962640099626402)" xlink:href="#CMR17-49"/>
       <use transform="translate(91.38095423412206 0.0)scale(0.9962640099626402)" xlink:href="#CMR17-52"/>
       <use transform="translate(137.07143135118307 0.0)scale(0.9962640099626402)" xlink:href="#CMR17-56"/>
      </g>
     </g>
    </g>
    <g id="xtick_13">
     <g id="line2d_38">
      <g>
       <use style="stroke:#000000;stroke-width:0.5;" x="207.9" xlink:href="#mc7db9fdffb" y="163.296"/>
      </g>
     </g>
     <g id="line2d_39">
      <g>
       <use style="stroke:#000000;stroke-width:0.5;" x="207.9" xlink:href="#m5a7d422ac3" y="88.452"/>
      </g>
     </g>
     <g id="text_12">
      <!-- 5149 -->
      <defs>
       <path d="
M35.2031 29.125
C35.2031 7.25 26.0938 0.484375 18.5938 0.484375
C16.2969 0.484375 10.7031 0.484375 8.40625 4.59375
C11 4.1875 12.9062 5.57812 12.9062 8.09375
C12.9062 10.8125 10.7031 11.7031 9.29688 11.7031
C8.40625 11.7031 5.70312 11.2969 5.70312 7.90625
C5.70312 1.10938 11.5938 -2 18.7969 -2
C30.2969 -2 42 10.5312 42 32.3906
C42 59.6406 30.7969 65.2969 23.2031 65.2969
C13.2969 65.2969 3.79688 56.6875 3.79688 43.4062
C3.79688 31.1094 11.9062 22 22.0938 22
C30.5 22 34.2031 29.7344 35.2031 33
z

M22.2969 23.5938
C19.5938 23.5938 15.7969 24.0938 12.7031 30.0312
C10.5938 33.8906 10.5938 38.4531 10.5938 43.2969
C10.5938 49.1562 10.5938 53.2031 13.4062 57.5625
C14.7969 59.6406 17.4062 63 23.2031 63
C35 63 35 45.0781 35 41.125
C35 34.0938 31.7969 23.5938 22.2969 23.5938" id="CMR17-57"/>
      </defs>
      <g transform="translate(197.937329497 174.21449838)scale(0.1 -0.1)">
       <use transform="scale(0.9962640099626402)" xlink:href="#CMR17-53"/>
       <use transform="translate(45.69047711706103 0.0)scale(0.9962640099626402)" xlink:href="#CMR17-49"/>
       <use transform="translate(91.38095423412206 0.0)scale(0.9962640099626402)" xlink:href="#CMR17-52"/>
       <use transform="translate(137.07143135118307 0.0)scale(0.9962640099626402)" xlink:href="#CMR17-57"/>
      </g>
     </g>
    </g>
    <g id="xtick_14">
     <g id="line2d_40">
      <g>
       <use style="stroke:#000000;stroke-width:0.5;" x="239.4" xlink:href="#mc7db9fdffb" y="163.296"/>
      </g>
     </g>
     <g id="line2d_41">
      <g>
       <use style="stroke:#000000;stroke-width:0.5;" x="239.4" xlink:href="#m5a7d422ac3" y="88.452"/>
      </g>
     </g>
     <g id="text_13">
      <!-- 5150 -->
      <g transform="translate(229.437329497 174.21449838)scale(0.1 -0.1)">
       <use transform="scale(0.9962640099626402)" xlink:href="#CMR17-53"/>
       <use transform="translate(45.69047711706103 0.0)scale(0.9962640099626402)" xlink:href="#CMR17-49"/>
       <use transform="translate(91.38095423412206 0.0)scale(0.9962640099626402)" xlink:href="#CMR17-53"/>
       <use transform="translate(137.07143135118307 0.0)scale(0.9962640099626402)" xlink:href="#CMR17-48"/>
      </g>
     </g>
    </g>
    <g id="text_14">
     <!-- $\lambda$ [\AA] -->
     <defs>
      <path d="
M30.9062 61.9531
C28.4062 69 20.5 69 19.2031 69
C18.5938 69 17.5 69 17.5 68
C17.5 67.2188 18.0938 67.1094 18.5938 67.0156
C20.0938 66.8125 21.2969 66.6094 22.9062 63.75
C23.9062 61.8594 34.2031 32.1719 34.2031 31.9688
C34.2031 31.875 34.0938 31.7656 33.2969 30.9688
L7.29688 4.85938
C6.09375 3.65625 5.29688 2.85938 5.29688 1.59375
C5.29688 0.1875 6.5 -1 8.09375 -1
C8.5 -1 9.59375 -0.796875 10.2031 -0.203125
C11.7969 1.28125 26.0938 18.6562 35.2031 29.3906
C37.7969 21.6094 41 12.4531 44.0938 4.07812
C44.5938 2.59375 45.0938 1.1875 46.5 -0.09375
C47.5 -1 47.7031 -1 50.5 -1
L52.4062 -1
C52.7969 -1 53.5 -1 53.5 -0.171875
C53.5 0.265625 53.4062 0.359375 53 0.78125
C52.0938 1.875 51.4062 3.65625 51 4.84375
z
" id="CMMI12-21"/>
      <path d="
M43.2969 61.8125
C43.2969 66.7969 39.2969 70.5938 34.5938 70.5938
C29.9062 70.5938 25.9062 66.7969 25.9062 61.8125
C25.9062 56.7969 29.9062 53 34.5938 53
C39.2969 53 43.2969 56.7969 43.2969 61.8125
M34.5938 54.5938
C30.4062 54.5938 27.7031 57.1875 27.7031 61.8125
C27.7031 66.5 30.5 69 34.5938 69
C38.7969 69 41.5 66.4062 41.5 61.8125
C41.5 57.0938 38.7031 54.5938 34.5938 54.5938" id="CMR17-23"/>
      <path d="
M14.2969 74.4844
L1.40625 74.4844
L1.40625 71
L10.7969 71
L10.7969 -21.5156
L1.40625 -21.5156
L1.40625 -25
L14.2969 -25
z
" id="CMR17-93"/>
      <path d="
M36.2969 68.4062
C35.7969 69.7031 35.5938 70 34.5938 70
C33.5938 70 33.4062 69.7031 32.9062 68.4062
L11.7031 8.84375
C9.79688 3.48438 5.79688 2.39062 2.29688 2.39062
L2.29688 -0.203125
C4.09375 0 8.09375 0 10 0
C12.5 0 16.5 0 18.9062 -0.203125
L18.9062 2.39062
C14.2031 2.39062 13.5 5.64062 13.5 6.85938
C13.5 7.76562 13.7031 8.28125 13.9062 8.89062
L19.2031 24
L45.4062 24
L51.4062 6.90625
C51.9062 5.70312 51.9062 5.5 51.9062 5.10938
C51.9062 2.39062 47.5938 2.39062 45.7031 2.39062
L45.7031 0
C48.5938 0 53.7969 0 56.9062 0
C59.5 0 64.5 0 66.9062 -0.203125
L66.9062 2.39062
C61.5938 2.39062 59.7969 2.39062 58.5 6.04688
z

M32.2969 60.5312
L44.5 26.5938
L20.0938 26.5938
z
" id="CMR17-65"/>
      <path d="
M23.5 -25
L23.5 -21.5156
L14.0938 -21.5156
L14.0938 71
L23.5 71
L23.5 74.4844
L10.5938 74.4844
L10.5938 -25
z
" id="CMR17-91"/>
     </defs>
     <g transform="translate(133.830373708 189.831620816)scale(0.1 -0.1)">
      <use transform="scale(0.9962640099626402)" xlink:href="#CMMI12-21"/>
      <use transform="translate(86.98003823552305 0.0)scale(0.9962640099626402)" xlink:href="#CMR17-91"/>
      <use transform="translate(111.85109671738793 17.61874416251557)scale(0.9962640099626402)" xlink:href="#CMR17-23"/>
      <use transform="translate(111.85109671738793 0.0)scale(0.9962640099626402)" xlink:href="#CMR17-65"/>
      <use transform="translate(180.92352652163763 0.0)scale(0.9962640099626402)" xlink:href="#CMR17-93"/>
     </g>
    </g>
   </g>
   <g id="matplotlib.axis_4">
    <g id="ytick_6">
     <g id="line2d_42">
      <g>
       <use style="stroke:#000000;stroke-width:0.5;" x="50.4" xlink:href="#md7965d1ba0" y="154.7424"/>
      </g>
     </g>
     <g id="line2d_43">
      <g>
       <use style="stroke:#000000;stroke-width:0.5;" x="239.4" xlink:href="#md9a1c1a7cd" y="154.7424"/>
      </g>
     </g>
     <g id="text_15">
      <!-- $-1.6$ -->
      <g transform="translate(25.921177299 157.233060025)scale(0.1 -0.1)">
       <use transform="scale(0.9962640099626402)" xlink:href="#CMSY10-0"/>
       <use transform="translate(77.4874676506071 0.0)scale(0.9962640099626402)" xlink:href="#CMR17-49"/>
       <use transform="translate(123.17794476766814 0.0)scale(0.9962640099626402)" xlink:href="#CMMI12-58"/>
       <use transform="translate(150.27512185748756 0.0)scale(0.9962640099626402)" xlink:href="#CMR17-54"/>
      </g>
     </g>
    </g>
    <g id="ytick_7">
     <g id="line2d_44">
      <g>
       <use style="stroke:#000000;stroke-width:0.5;" x="50.4" xlink:href="#md7965d1ba0" y="137.6352"/>
      </g>
     </g>
     <g id="line2d_45">
      <g>
       <use style="stroke:#000000;stroke-width:0.5;" x="239.4" xlink:href="#md9a1c1a7cd" y="137.6352"/>
      </g>
     </g>
     <g id="text_16">
      <!-- $-0.8$ -->
      <g transform="translate(25.921177299 140.125860025)scale(0.1 -0.1)">
       <use transform="scale(0.9962640099626402)" xlink:href="#CMSY10-0"/>
       <use transform="translate(77.4874676506071 0.0)scale(0.9962640099626402)" xlink:href="#CMR17-48"/>
       <use transform="translate(123.17794476766814 0.0)scale(0.9962640099626402)" xlink:href="#CMMI12-58"/>
       <use transform="translate(150.27512185748756 0.0)scale(0.9962640099626402)" xlink:href="#CMR17-56"/>
      </g>
     </g>
    </g>
    <g id="ytick_8">
     <g id="line2d_46">
      <g>
       <use style="stroke:#000000;stroke-width:0.5;" x="50.4" xlink:href="#md7965d1ba0" y="120.528"/>
      </g>
     </g>
     <g id="line2d_47">
      <g>
       <use style="stroke:#000000;stroke-width:0.5;" x="239.4" xlink:href="#md9a1c1a7cd" y="120.528"/>
      </g>
     </g>
     <g id="text_17">
      <!-- $0.0$ -->
      <g transform="translate(33.6699210237 123.018660025)scale(0.1 -0.1)">
       <use transform="scale(0.9962640099626402)" xlink:href="#CMR17-48"/>
       <use transform="translate(45.69047711706103 0.0)scale(0.9962640099626402)" xlink:href="#CMMI12-58"/>
       <use transform="translate(72.78765420688046 0.0)scale(0.9962640099626402)" xlink:href="#CMR17-48"/>
      </g>
     </g>
    </g>
    <g id="ytick_9">
     <g id="line2d_48">
      <g>
       <use style="stroke:#000000;stroke-width:0.5;" x="50.4" xlink:href="#md7965d1ba0" y="103.4208"/>
      </g>
     </g>
     <g id="line2d_49">
      <g>
       <use style="stroke:#000000;stroke-width:0.5;" x="239.4" xlink:href="#md9a1c1a7cd" y="103.4208"/>
      </g>
     </g>
     <g id="text_18">
      <!-- $0.8$ -->
      <g transform="translate(33.6699210237 105.911460025)scale(0.1 -0.1)">
       <use transform="scale(0.9962640099626402)" xlink:href="#CMR17-48"/>
       <use transform="translate(45.69047711706103 0.0)scale(0.9962640099626402)" xlink:href="#CMMI12-58"/>
       <use transform="translate(72.78765420688046 0.0)scale(0.9962640099626402)" xlink:href="#CMR17-56"/>
      </g>
     </g>
    </g>
    <g id="text_19">
     <!-- $\times10^{-14}$ -->
     <g transform="translate(50.4 85.452)scale(0.1 -0.1)">
      <use transform="scale(0.9962640099626402)" xlink:href="#CMSY10-2"/>
      <use transform="translate(77.4874676506071 0.0)scale(0.9962640099626402)" xlink:href="#CMR17-49"/>
      <use transform="translate(123.17794476766814 0.0)scale(0.9962640099626402)" xlink:href="#CMR17-48"/>
      <use transform="translate(168.86842188472914 36.15363894185866)scale(0.6973817666173724)" xlink:href="#CMSY10-0"/>
      <use transform="translate(223.1094151327055 36.15363894185866)scale(0.6973817666173724)" xlink:href="#CMR17-49"/>
      <use transform="translate(255.09259709682442 36.15363894185866)scale(0.6973817666173724)" xlink:href="#CMR17-52"/>
     </g>
    </g>
   </g>
   <g id="patch_8">
    <path d="
M239.4 163.296
L239.4 88.452" style="fill:none;stroke:#000000;"/>
   </g>
   <g id="patch_9">
    <path d="
M50.4 88.452
L239.4 88.452" style="fill:none;stroke:#000000;"/>
   </g>
   <g id="patch_10">
    <path d="
M50.4 163.296
L50.4 88.452" style="fill:none;stroke:#000000;"/>
   </g>
   <g id="patch_11">
    <path d="
M50.4 163.296
L239.4 163.296" style="fill:none;stroke:#000000;"/>
   </g>
  </g>
  <g id="text_20">
   <!-- $f_\lambda \quad [\textrm{erg}\;\textrm{cm}^{-2}\;\textrm{s}^{-1}\;\textrm{\AA}^{-1}]$ -->
   <defs>
    <path d="
M11.0938 18.1875
C13 16.6875 16.2969 15 20.2969 15
C28.2031 15 35 21.2031 35 29.5
C35 32.0938 34.2031 36.0938 31.2031 39.2031
C34 42.0625 38.0938 43 40.4062 43
C40.7969 43 41.4062 43 41.9062 42.7656
C41.5 42.6719 40.5938 42.2812 40.5938 40.7344
C40.5938 39.4844 41.5 38.6094 42.7969 38.6094
C44.2969 38.6094 45.0938 39.5781 45.0938 40.8438
C45.0938 42.6719 43.5938 44.5938 40.4062 44.5938
C36.4062 44.5938 32.9062 42.7812 30.0938 40.3125
C27.0938 43.0156 23.5 44 20.2969 44
C12.4062 44 5.59375 37.7969 5.59375 29.5
C5.59375 23.7812 8.90625 20.1875 9.90625 19.1875
C6.90625 15.6875 6.90625 11.6094 6.90625 11.1094
C6.90625 8.51562 7.90625 4.71875 11.2969 2.625
C6.09375 1.32812 2 -2.64062 2 -7.59375
C2 -14.7344 11.5 -20 22.9062 -20
C33.9062 -20 43.7969 -14.9375 43.7969 -7.48438
C43.7969 6 29 6 21.2969 6
C19 6 14.9062 6 14.4062 6.10938
C11.2969 6.60938 9.20312 9.40625 9.20312 12.8906
C9.20312 13.7812 9.20312 16 11.0938 18.1875
M20.2969 16.6875
C11.5 16.6875 11.5 27.5 11.5 29.5156
C11.5 31.5 11.5 42.3125 20.2969 42.3125
C29.0938 42.3125 29.0938 31.5 29.0938 29.5156
C29.0938 27.5 29.0938 16.6875 20.2969 16.6875
M22.9062 -18.2969
C12.9062 -18.2969 6 -13.0469 6 -7.59375
C6 -4.51562 7.70312 -1.64062 9.90625 -0.0625
C12.4062 1.625 13.4062 1.625 20.2031 1.625
C28.4062 1.625 39.7969 1.625 39.7969 -7.59375
C39.7969 -13.0469 32.9062 -18.2969 22.9062 -18.2969" id="CMR17-103"/>
    <path d="
M30.9062 42.1094
C30.9062 43.9062 30.7969 44 30.2031 44
C29.7969 44 29.7031 43.9062 28.5 42.4219
C28.2031 42.0156 27.2969 41.0156 27 40.625
C23.7969 44 19.2969 44 17.5938 44
C6.5 44 2.5 38.1719 2.5 32.375
C2.5 23.3438 12.7031 21.25 15.5938 20.6406
C21.9062 19.3438 24.0938 18.9375 26.2031 17.125
C27.5 15.9375 29.7031 13.7344 29.7031 10.125
C29.7031 5.90625 27.2969 0.5 18.0938 0.5
C9.40625 0.5 6.29688 7.0625 4.5 15.8281
C4.20312 17.2188 4.20312 17.3281 3.40625 17.3281
C2.59375 17.3281 2.5 17.2188 2.5 15.2344
L2.5 0.890625
C2.5 -0.890625 2.59375 -1 3.20312 -1
C3.70312 -1 3.79688 -0.890625 4.29688 -0.09375
C4.90625 0.796875 6.40625 3.1875 7 4.1875
C9 1.54688 12.5 -1 18.0938 -1
C28 -1 33.2969 4.40625 33.2969 12.2344
C33.2969 17.3438 30.5938 20.0625 29.2969 21.25
C26.2969 24.375 22.7969 25.0625 18.5938 25.8594
C13.0938 27.0781 6.09375 28.4688 6.09375 34.5938
C6.09375 37.1875 7.5 42.7188 17.5938 42.7188
C28.2969 42.7188 28.9062 32.75 29.0938 29.5625
C29.2031 29.0781 29.7031 28.9688 30 28.9688
C30.9062 28.9688 30.9062 29.2812 30.9062 30.9688
z
" id="CMR17-115"/>
    <path d="
M34.9062 35
C33 35 30.2031 35 30.2031 31.5156
C30.2031 28.7188 32.5 27.9219 33.7969 27.9219
C34.5 27.9219 37.4062 28.2344 37.4062 31.625
C37.4062 38.5469 30.5938 43.7969 22.9062 43.7969
C12.2969 43.7969 3.29688 34.0312 3.29688 21.2969
C3.29688 8.0625 12.7031 -1 22.9062 -1
C35.2969 -1 38.4062 10.5938 38.4062 11.6875
C38.4062 12.0938 38.2969 12.3906 37.5938 12.3906
C36.9062 12.3906 36.7969 12.2969 36.4062 10.9844
C33.7969 2.8125 28.0938 0.796875 23.7969 0.796875
C17.4062 0.796875 9.70312 6.67188 9.70312 21.3906
C9.70312 36.5312 17.0938 42 23 42
C26.9062 42 32.7031 40.2031 34.9062 35" id="CMR17-99"/>
    <path d="
M44.5938 40.0938
C46.5938 40.0938 47.4062 40.0938 47.4062 42
C47.4062 43 46.5938 43 44.7969 43
L36.7031 43
C38.5938 53.5781 40 60.8906 40.7969 64.1719
C41.4062 66.6406 43.5 69 46.0938 69
C48.2031 69 50.2969 68.0938 51.2969 67.1562
C47.4062 66.75 46.2031 63.7812 46.2031 62.0156
C46.2031 59.9531 47.7031 58.7344 49.5938 58.7344
C51.5938 58.7344 54.5938 60.4688 54.5938 64.3594
C54.5938 68.6406 50.4062 71 46 71
C41.7031 71 37.5 67.7188 35.5 63.7188
C33.7031 60.125 32.7031 56.4375 30.4062 43
L23.7031 43
C21.7969 43 20.7969 43 20.7969 41.2031
C20.7969 40.0938 21.4062 40.0938 23.4062 40.0938
L29.7969 40.0938
C28 30.875 23.9062 8.46875 21.5938 -2.14062
C19.9062 -10.7656 18.4062 -18 13.4062 -18
C13.0938 -18 10.2031 -18 8.40625 -16.1094
C13.5 -15.7031 13.5 -11.3438 13.5 -11.25
C13.5 -9.26562 12 -8.07812 10.0938 -8.07812
C8.09375 -8.07812 5.09375 -9.76562 5.09375 -13.5469
C5.09375 -17.8125 9.5 -20 13.4062 -20
C23.5938 -20 27.7969 -1.84375 28.9062 3.10938
C30.7031 10.75 35.5938 37.125 36.0938 40.0938
z
" id="CMMI12-102"/>
    <path d="
M67.5938 30.2031
C67.5938 35.1875 66.7031 43.5938 54.7969 43.5938
C48 43.5938 43.2969 39 41.5 33.5938
L41.4062 33.5938
C40.2031 41.7969 34.2969 43.5938 28.7031 43.5938
C20.7969 43.5938 16.7031 37.5625 15.2031 33.5938
L15.0938 33.5938
L15.0938 43.5938
L3.29688 42.5
L3.29688 39.9062
C9.20312 39.9062 10.0938 39.2969 10.0938 34.5
L10.0938 6.6875
C10.0938 2.875 9.70312 2.39062 3.29688 2.39062
L3.29688 -0.203125
C5.70312 0 10.0938 0 12.7031 0
C15.2969 0 19.7969 0 22.2031 -0.203125
L22.2031 2.39062
C15.7969 2.39062 15.4062 2.78125 15.4062 6.6875
L15.4062 25.9062
C15.4062 35.1094 21 42 28 42
C35.4062 42 36.2031 35.4062 36.2031 30.5938
L36.2031 6.6875
C36.2031 2.875 35.7969 2.39062 29.4062 2.39062
L29.4062 -0.203125
C31.7969 0 36.2031 0 38.7969 0
C41.4062 0 45.9062 0 48.2969 -0.203125
L48.2969 2.39062
C41.9062 2.39062 41.5 2.78125 41.5 6.6875
L41.5 25.9062
C41.5 35.1094 47.0938 42 54.0938 42
C61.5 42 62.2969 35.4062 62.2969 30.5938
L62.2969 6.6875
C62.2969 2.875 61.9062 2.39062 55.5 2.39062
L55.5 -0.203125
C57.9062 0 62.2969 0 64.9062 0
C67.5 0 72 0 74.4062 -0.203125
L74.4062 2.39062
C68 2.39062 67.5938 2.78125 67.5938 6.6875
z
" id="CMR17-109"/>
    <path d="
M15 23.3906
C15 33 19.0938 42 26.5938 42
C27.2969 42 28 41.9062 28.7031 41.5938
C28.7031 41.5938 26.5 40.8906 26.5 38.3125
C26.5 35.9062 28.4062 34.9062 29.9062 34.9062
C31.0938 34.9062 33.2969 35.6094 33.2969 38.4062
C33.2969 41.6094 30.0938 43.5938 26.7031 43.5938
C19.0938 43.5938 15.7969 36.2031 14.7969 32.7031
L14.7031 32.7031
L14.7031 43.5938
L3.09375 42.5
L3.09375 39.9062
C9 39.9062 9.90625 39.2969 9.90625 34.5
L9.90625 6.6875
C9.90625 2.875 9.5 2.39062 3.09375 2.39062
L3.09375 -0.203125
C5.5 0 10.0938 0 12.7031 0
C15.5938 0 20.7031 0 23.4062 -0.203125
L23.4062 2.39062
C16.2031 2.39062 15 2.39062 15 6.875
z
" id="CMR17-114"/>
    <path d="
M38.0938 23
C38.5 23.4062 38.5 23.6094 38.5 24.625
C38.5 34.9688 33.0938 44 21.7031 44
C11.0938 44 2.70312 33.8906 2.70312 21.6094
C2.70312 8.60938 12.2031 -1 22.7969 -1
C34 -1 38.4062 9.46875 38.4062 11.5469
C38.4062 12.25 37.7969 12.25 37.5938 12.25
C36.9062 12.25 36.7969 12.0469 36.4062 10.875
C34.2031 4.14062 28.7031 0.796875 23.5 0.796875
C19.2031 0.796875 14.9062 3.17188 12.2031 7.5
C9.09375 12.5469 9.09375 18.375 9.09375 23
z

M9.20312 24.5
C9.90625 39.1406 17.5938 42.4062 21.5938 42.4062
C28.4062 42.4062 33 35.8906 33.0938 24.5
z
" id="CMR17-101"/>
   </defs>
   <g transform="translate(18.8247183657 146.598886383)rotate(-90.0)scale(0.1 -0.1)">
    <use transform="translate(0.0 14.943914544092468)scale(0.9962640099626402)" xlink:href="#CMMI12-102"/>
    <use transform="translate(48.083237663449566 0.0)scale(0.6973817666173724)" xlink:href="#CMMI12-21"/>
    <use transform="translate(179.79508301389322 14.943914544092468)scale(0.9962640099626402)" xlink:href="#CMR17-91"/>
    <use transform="translate(204.66614149575813 14.943914544092468)scale(0.9962640099626402)" xlink:href="#CMR17-101"/>
    <use transform="translate(245.15180195847606 14.943914544092468)scale(0.9962640099626402)" xlink:href="#CMR17-114"/>
    <use transform="translate(280.432569757939 14.943914544092468)scale(0.9962640099626402)" xlink:href="#CMR17-103"/>
    <use transform="translate(353.7970555971747 14.943914544092468)scale(0.9962640099626402)" xlink:href="#CMR17-99"/>
    <use transform="translate(394.2827160598926 14.943914544092468)scale(0.9962640099626402)" xlink:href="#CMR17-109"/>
    <use transform="translate(471.2023059279655 51.097553485951124)scale(0.6973817666173724)" xlink:href="#CMSY10-0"/>
    <use transform="translate(525.4432991759419 51.097553485951124)scale(0.6973817666173724)" xlink:href="#CMR17-50"/>
    <use transform="translate(585.5986218672167 14.943914544092468)scale(0.9962640099626402)" xlink:href="#CMR17-115"/>
    <use transform="translate(621.3999595024518 51.097553485951124)scale(0.6973817666173724)" xlink:href="#CMSY10-0"/>
    <use transform="translate(675.6409527504281 51.097553485951124)scale(0.6973817666173724)" xlink:href="#CMR17-49"/>
    <use transform="translate(735.7962754417031 32.56265870660803)scale(0.9962640099626402)" xlink:href="#CMR17-23"/>
    <use transform="translate(735.7962754417031 14.943914544092468)scale(0.9962640099626402)" xlink:href="#CMR17-65"/>
    <use transform="translate(804.8687052459528 74.82118143388077)scale(0.6973817666173724)" xlink:href="#CMSY10-0"/>
    <use transform="translate(859.109698493929 74.82118143388077)scale(0.6973817666173724)" xlink:href="#CMR17-49"/>
    <use transform="translate(891.5910124630293 14.943914544092468)scale(0.9962640099626402)" xlink:href="#CMR17-93"/>
   </g>
  </g>
 </g>
 <defs>
  <clipPath id="p3e5e2ca0f1">
   <rect height="74.844" width="189.0" x="50.4" y="13.608"/>
  </clipPath>
  <clipPath id="p1cda4a3be3">
   <rect height="74.844" width="189.0" x="50.4" y="88.452"/>
  </clipPath>
 </defs>
</svg>
