<?xml version="1.0" encoding="utf-8" standalone="no"?>
<!DOCTYPE svg PUBLIC "-//W3C//DTD SVG 1.1//EN"
  "http://www.w3.org/Graphics/SVG/1.1/DTD/svg11.dtd">
<!-- Created with matplotlib (http://matplotlib.org/) -->
<svg height="252pt" version="1.1" viewBox="0 0 252 252" width="252pt" xmlns="http://www.w3.org/2000/svg" xmlns:xlink="http://www.w3.org/1999/xlink">
 <defs>
  <style type="text/css">
*{stroke-linecap:butt;stroke-linejoin:round;}
  </style>
 </defs>
 <g id="figure_1">
  <g id="patch_1">
   <path d="
M0 252
L252 252
L252 0
L0 0
z
" style="fill:#ffffff;"/>
  </g>
  <g id="axes_1">
   <g id="patch_2">
    <path d="
M47.88 122.22
L231.84 122.22
L231.84 25.2
L47.88 25.2
z
" style="fill:#ffffff;"/>
   </g>
   <g id="line2d_1">
    <path clip-path="url(#p26eec363fc)" d="
M48.3708 35.7447
L49.0916 35.7447
L49.0916 38.8249
L50.5332 38.8249
L50.5332 37.3292
L51.9746 37.3292
L51.9746 46.88
L53.416 46.88
L53.416 38.6145
L54.8572 38.6145
L54.8572 40.351
L56.2984 40.351
L56.2984 37.6268
L57.7394 37.6268
L57.7394 35.1322
L59.1804 35.1322
L59.1804 45.8548
L60.6213 45.8548
L60.6213 35.3854
L62.062 35.3854
L62.062 39.2275
L63.5027 39.2275
L63.5027 47.1456
L64.9433 47.1456
L64.9433 47.002
L66.3838 47.002
L66.3838 46.1684
L67.8242 46.1684
L67.8242 48.6598
L69.2645 48.6598
L69.2645 38.6297
L70.7047 38.6297
L70.7047 33.6931
L72.1448 33.6931
L72.1448 43.5915
L73.5848 43.5915
L73.5848 42.0197
L75.0247 42.0197
L75.0247 49.5889
L76.4646 49.5889
L76.4646 65.1279
L77.9043 65.1279
L77.9043 58.0572
L79.3439 58.0572
L79.3439 58.943
L80.7834 58.943
L80.7834 48.2006
L82.2229 48.2006
L82.2229 43.4835
L83.6622 43.4835
L83.6622 38.8363
L86.5406 38.733
L86.5406 46.0718
L87.9797 46.0718
L87.9797 48.4931
L89.4187 48.4931
L89.4187 48.1508
L90.8575 48.1508
L90.8575 49.7961
L92.2963 49.7961
L92.2963 41.813
L93.735 41.813
L93.735 45.5868
L95.1736 45.5868
L95.1736 38.467
L96.6121 38.467
L96.6121 36.2695
L98.0505 36.2695
L98.0505 37.4914
L99.4887 37.4914
L99.4887 37.3165
L100.927 37.3165
L100.927 36.125
L102.365 36.125
L102.365 36.9015
L103.803 36.9015
L103.803 38.0227
L105.241 38.0227
L105.241 40.3585
L106.679 40.3585
L106.679 54.2364
L108.117 54.2364
L108.117 60.2657
L109.554 60.2657
L109.554 64.3447
L110.992 64.3447
L110.992 56.088
L112.429 56.088
L112.429 56.9012
L113.866 56.9012
L113.866 40.9027
L115.304 40.9027
L115.304 47.3876
L116.741 47.3876
L116.741 64.8179
L118.178 64.8179
L118.178 81.3257
L119.615 81.3257
L119.615 99.3598
L121.052 99.3598
L121.052 100.411
L122.489 100.411
L122.489 87.3776
L123.925 87.3776
L123.925 63.8813
L125.362 63.8813
L125.362 50.0752
L126.798 50.0752
L126.798 45.8884
L128.235 45.8884
L128.235 44.0416
L129.671 44.0416
L129.671 37.4326
L131.107 37.4326
L131.107 42.1019
L132.543 42.1019
L132.543 46.2395
L133.979 46.2395
L133.979 42.4215
L135.415 42.4215
L135.415 50.0884
L136.851 50.0884
L136.851 41.6286
L138.287 41.6286
L138.287 51.6386
L139.722 51.6386
L139.722 47.7286
L141.158 47.7286
L141.158 51.156
L142.593 51.156
L142.593 39.6576
L144.029 39.6576
L144.029 33.9978
L145.464 33.9978
L145.464 46.4022
L146.899 46.4022
L146.899 39.8859
L148.334 39.8859
L148.334 42.279
L149.769 42.279
L149.769 45.8055
L151.204 45.8055
L151.204 46.5717
L152.639 46.5717
L152.639 40.8329
L154.073 40.8329
L154.073 45.9478
L155.508 45.9478
L155.508 40.4191
L156.942 40.4191
L156.942 37.4577
L158.377 37.4577
L158.377 39.5289
L159.811 39.5289
L159.811 39.9977
L161.245 39.9977
L161.245 39.8576
L162.679 39.8576
L162.679 43.6799
L164.113 43.6799
L164.113 49.8752
L165.547 49.8752
L165.547 64.1849
L166.981 64.1849
L166.981 84.626
L168.415 84.626
L168.415 98.4675
L169.848 98.4675
L169.848 103.866
L171.282 103.866
L171.282 96.5701
L172.715 96.5701
L172.715 105.078
L174.149 105.078
L174.149 118.615
L175.582 118.615
L175.582 99.5981
L177.015 99.5981
L177.015 75.6173
L178.448 75.6173
L178.448 49.9054
L179.881 49.9054
L179.881 46.8994
L181.314 46.8994
L181.314 43.4546
L182.747 43.4546
L182.747 40.3129
L184.179 40.3129
L184.179 35.7148
L185.612 35.7148
L185.612 35.2463
L187.044 35.2463
L187.044 41.7865
L188.477 41.7865
L188.477 42.3986
L189.909 42.3986
L189.909 42.591
L191.341 42.591
L191.341 47.5915
L192.773 47.5915
L192.773 41.9297
L194.205 41.9297
L194.205 37.9842
L195.637 37.9842
L195.637 45.5122
L197.069 45.5122
L197.069 38.472
L198.501 38.472
L198.501 42.8563
L199.932 42.8563
L199.932 37.9601
L201.364 37.9601
L201.364 37.0801
L202.795 37.0801
L202.795 35.4775
L204.226 35.4775
L204.226 29.2394
L205.658 29.2394
L205.658 34.3537
L207.089 34.3537
L207.089 38.0669
L208.52 38.0669
L208.52 36.5577
L209.951 36.5577
L209.951 45.3398
L211.382 45.3398
L211.382 39.4039
L212.812 39.4039
L212.812 42.5607
L214.243 42.5607
L214.243 38.4754
L215.674 38.4754
L215.674 40.527
L217.104 40.527
L217.104 34.8393
L218.534 34.8393
L218.534 33.4932
L219.965 33.4932
L219.965 38.9389
L221.395 38.9389
L221.395 35.944
L222.825 35.944
L222.825 37.3572
L224.255 37.3572
L224.255 40.2557
L225.685 40.2557
L225.685 39.9551
L227.115 39.9551
L227.115 36.6279
L228.544 36.6279
L228.544 31.4458
L229.974 31.4458
L229.974 41.0904
L230.689 41.0904
L230.689 41.0904" style="fill:none;stroke:#0000ff;stroke-linecap:square;"/>
   </g>
   <g id="line2d_2">
    <path clip-path="url(#p26eec363fc)" d="
M48.3708 40.7088
L49.0916 40.7088
L49.0916 40.7088
L49.0916 40.7088
L49.0916 40.6389
L51.9746 40.5395
L51.9746 40.4792
L54.8572 40.519
L54.8572 40.6194
L59.1804 40.6899
L59.1804 40.8572
L60.6213 40.8572
L60.6213 41.5399
L62.062 41.5399
L62.062 43.0432
L63.5027 43.0432
L63.5027 44.9608
L64.9433 44.9608
L64.9433 46.2173
L66.3838 46.2173
L66.3838 46.3505
L67.8242 46.3505
L67.8242 45.6561
L69.2645 45.6561
L69.2645 44.3639
L70.7047 44.3639
L70.7047 42.7321
L72.1448 42.7321
L72.1448 41.5951
L73.5848 41.5951
L73.5848 41.7709
L75.0247 41.7709
L75.0247 43.4169
L76.4646 43.4169
L76.4646 45.7404
L77.9043 45.7404
L77.9043 46.9578
L79.3439 46.9578
L79.3439 46.0486
L80.7834 46.0486
L80.7834 44.0645
L82.2229 44.0645
L82.2229 42.6207
L83.6622 42.6207
L83.6622 42.1266
L85.1015 42.1266
L85.1015 42.8957
L86.5406 42.8957
L86.5406 46.1869
L87.9797 46.1869
L87.9797 51.3403
L89.4187 51.3403
L89.4187 54.0974
L90.8575 54.0974
L90.8575 51.5456
L92.2963 51.5456
L92.2963 46.1975
L93.735 46.1975
L93.735 42.3674
L95.1736 42.3674
L95.1736 41.0531
L96.6121 41.0531
L96.6121 40.8845
L99.4887 40.8687
L99.4887 40.7681
L100.927 40.7681
L100.927 40.6504
L103.803 40.6519
L103.803 41.0133
L105.241 41.0133
L105.241 42.7345
L106.679 42.7345
L106.679 48.0049
L108.117 48.0049
L108.117 56.7818
L109.554 56.7818
L109.554 63.0568
L110.992 63.0568
L110.992 60.9834
L112.429 60.9834
L112.429 53.2396
L113.866 53.2396
L113.866 47.46
L115.304 47.46
L115.304 47.7988
L116.741 47.7988
L116.741 57.031
L118.178 57.031
L118.178 77.7068
L119.615 77.7068
L119.615 100.612
L121.052 100.612
L121.052 106.29
L122.489 106.29
L122.489 88.7344
L123.925 88.7344
L123.925 63.942
L125.362 63.942
L125.362 48.729
L126.798 48.729
L126.798 44.459
L131.107 44.5027
L131.107 43.4131
L132.543 43.4131
L132.543 42.1261
L133.979 42.1261
L133.979 41.4105
L135.415 41.4105
L135.415 41.208
L141.158 41.212
L141.158 40.9243
L142.593 40.9243
L142.593 40.5955
L144.029 40.5955
L144.029 40.4053
L145.464 40.4053
L145.464 40.5221
L146.899 40.5221
L146.899 41.5867
L148.334 41.5867
L148.334 44.6881
L149.769 44.6881
L149.769 49.2226
L151.204 49.2226
L151.204 51.8475
L152.639 51.8475
L152.639 50.4368
L154.073 50.4368
L154.073 47.3693
L155.508 47.3693
L155.508 46.1587
L156.942 46.1587
L156.942 46.4744
L158.377 46.4744
L158.377 45.8974
L159.811 45.8974
L159.811 44.0088
L161.245 44.0088
L161.245 42.2916
L162.679 42.2916
L162.679 42.1581
L164.113 42.1581
L164.113 45.7743
L165.547 45.7743
L165.547 56.7979
L166.981 56.7979
L166.981 73.5592
L168.415 73.5592
L168.415 85.1146
L169.848 85.1146
L169.848 85.9567
L171.282 85.9567
L171.282 87.664
L172.715 87.664
L172.715 99.7574
L174.149 99.7574
L174.149 108.89
L175.582 108.89
L175.582 98.1498
L177.015 98.1498
L177.015 73.4026
L178.448 73.4026
L178.448 52.9133
L179.881 52.9133
L179.881 43.8009
L181.314 43.8009
L181.314 41.4392
L182.747 41.4392
L182.747 41.2004
L184.179 41.2004
L184.179 41.801
L185.612 41.801
L185.612 42.9497
L187.044 42.9497
L187.044 43.8109
L189.909 43.7206
L189.909 43.3122
L191.341 43.3122
L191.341 43.5377
L192.773 43.5377
L192.773 43.9541
L194.205 43.9541
L194.205 43.5099
L195.637 43.5099
L195.637 42.3969
L197.069 42.3969
L197.069 41.7384
L198.501 41.7384
L198.501 42.0653
L199.932 42.0653
L199.932 42.9163
L201.364 42.9163
L201.364 43.4492
L202.795 43.4492
L202.795 43.1501
L204.226 43.1501
L204.226 42.2343
L205.658 42.2343
L205.658 41.3371
L207.089 41.3371
L207.089 40.8765
L209.951 40.962
L209.951 41.5559
L211.382 41.5559
L211.382 42.2577
L212.812 42.2577
L212.812 42.4289
L214.243 42.4289
L214.243 41.8883
L215.674 41.8883
L215.674 41.1234
L217.104 41.1234
L217.104 40.6763
L219.965 40.7269
L219.965 41.1988
L221.395 41.1988
L221.395 41.7353
L222.825 41.7353
L222.825 41.9233
L225.685 41.8752
L225.685 42.0957
L227.115 42.0957
L227.115 42.6544
L228.544 42.6544
L228.544 43.1273
L229.974 43.1273
L229.974 43.5374
L230.689 43.5374
L230.689 43.5374" style="fill:none;stroke:#ff0000;stroke-linecap:square;"/>
   </g>
   <g id="matplotlib.axis_1">
    <g id="xtick_1">
     <g id="line2d_3">
      <defs>
       <path d="
M0 0
L0 -4" id="mc7db9fdffb" style="stroke:#000000;stroke-width:0.5;"/>
      </defs>
      <g>
       <use style="stroke:#000000;stroke-width:0.5;" x="47.88" xlink:href="#mc7db9fdffb" y="122.22"/>
      </g>
     </g>
     <g id="line2d_4">
      <defs>
       <path d="
M0 0
L0 4" id="m5a7d422ac3" style="stroke:#000000;stroke-width:0.5;"/>
      </defs>
      <g>
       <use style="stroke:#000000;stroke-width:0.5;" x="47.88" xlink:href="#m5a7d422ac3" y="25.2"/>
      </g>
     </g>
    </g>
    <g id="xtick_2">
     <g id="line2d_5">
      <g>
       <use style="stroke:#000000;stroke-width:0.5;" x="78.54" xlink:href="#mc7db9fdffb" y="122.22"/>
      </g>
     </g>
     <g id="line2d_6">
      <g>
       <use style="stroke:#000000;stroke-width:0.5;" x="78.54" xlink:href="#m5a7d422ac3" y="25.2"/>
      </g>
     </g>
    </g>
    <g id="xtick_3">
     <g id="line2d_7">
      <g>
       <use style="stroke:#000000;stroke-width:0.5;" x="109.2" xlink:href="#mc7db9fdffb" y="122.22"/>
      </g>
     </g>
     <g id="line2d_8">
      <g>
       <use style="stroke:#000000;stroke-width:0.5;" x="109.2" xlink:href="#m5a7d422ac3" y="25.2"/>
      </g>
     </g>
    </g>
    <g id="xtick_4">
     <g id="line2d_9">
      <g>
       <use style="stroke:#000000;stroke-width:0.5;" x="139.86" xlink:href="#mc7db9fdffb" y="122.22"/>
      </g>
     </g>
     <g id="line2d_10">
      <g>
       <use style="stroke:#000000;stroke-width:0.5;" x="139.86" xlink:href="#m5a7d422ac3" y="25.2"/>
      </g>
     </g>
    </g>
    <g id="xtick_5">
     <g id="line2d_11">
      <g>
       <use style="stroke:#000000;stroke-width:0.5;" x="170.52" xlink:href="#mc7db9fdffb" y="122.22"/>
      </g>
     </g>
     <g id="line2d_12">
      <g>
       <use style="stroke:#000000;stroke-width:0.5;" x="170.52" xlink:href="#m5a7d422ac3" y="25.2"/>
      </g>
     </g>
    </g>
    <g id="xtick_6">
     <g id="line2d_13">
      <g>
       <use style="stroke:#000000;stroke-width:0.5;" x="201.18" xlink:href="#mc7db9fdffb" y="122.22"/>
      </g>
     </g>
     <g id="line2d_14">
      <g>
       <use style="stroke:#000000;stroke-width:0.5;" x="201.18" xlink:href="#m5a7d422ac3" y="25.2"/>
      </g>
     </g>
    </g>
    <g id="xtick_7">
     <g id="line2d_15">
      <g>
       <use style="stroke:#000000;stroke-width:0.5;" x="231.84" xlink:href="#mc7db9fdffb" y="122.22"/>
      </g>
     </g>
     <g id="line2d_16">
      <g>
       <use style="stroke:#000000;stroke-width:0.5;" x="231.84" xlink:href="#m5a7d422ac3" y="25.2"/>
      </g>
     </g>
    </g>
   </g>
   <g id="matplotlib.axis_2">
    <g id="ytick_1">
     <g id="line2d_17">
      <defs>
       <path d="
M0 0
L4 0" id="md7965d1ba0" style="stroke:#000000;stroke-width:0.5;"/>
      </defs>
      <g>
       <use style="stroke:#000000;stroke-width:0.5;" x="47.88" xlink:href="#md7965d1ba0" y="111.44"/>
      </g>
     </g>
     <g id="line2d_18">
      <defs>
       <path d="
M0 0
L-4 0" id="md9a1c1a7cd" style="stroke:#000000;stroke-width:0.5;"/>
      </defs>
      <g>
       <use style="stroke:#000000;stroke-width:0.5;" x="231.84" xlink:href="#md9a1c1a7cd" y="111.44"/>
      </g>
     </g>
     <g id="text_1">
      <!-- $1.4$ -->
      <defs>
       <path d="
M33.5938 64.3281
C33.5938 66.4062 33.5 66.5 31.7031 66.5
L2 19.5938
L2 17
L27.7969 17
L27.7969 7.14062
C27.7969 3.5 27.5938 2.5 20.5938 2.5
L18.7031 2.5
L18.7031 0
C21.9062 0 27.2969 0 30.7031 0
C34.0938 0 39.5 0 42.7031 0
L42.7031 2.5
L40.7969 2.5
C33.7969 2.5 33.5938 3.5 33.5938 7.14062
L33.5938 17
L43.7969 17
L43.7969 19.5938
L33.5938 19.5938
z

M28.0938 57.7656
L28.0938 19.5938
L4 19.5938
z
" id="CMR17-52"/>
       <path d="
M18.4062 4.79688
C18.4062 7.6875 16 9.67188 13.5938 9.67188
C10.7031 9.67188 8.70312 7.28125 8.70312 4.89062
C8.70312 2 11.0938 0 13.5 0
C16.4062 0 18.4062 2.39062 18.4062 4.79688" id="CMMI12-58"/>
       <path d="
M26.5938 63.3125
C26.5938 65.4062 26.5 65.5 25.0938 65.5
C21.2031 61.1875 15.2969 59.7969 9.70312 59.7969
C9.40625 59.7969 8.90625 59.7969 8.79688 59.6094
C8.70312 59.3906 8.70312 59.1719 8.70312 57
C11.7969 57 17 57.5938 21 59.9844
L21 7.20312
C21 3.6875 20.7969 2.5 12.2031 2.5
L9.20312 2.5
L9.20312 0
C14 0 19 0 23.7969 0
C28.5938 0 33.5938 0 38.4062 0
L38.4062 2.5
L35.4062 2.5
C26.7969 2.5 26.5938 3.59375 26.5938 7.15625
z
" id="CMR17-49"/>
      </defs>
      <g transform="translate(31.1499210237 113.930660025)scale(0.1 -0.1)">
       <use transform="scale(0.9962640099626402)" xlink:href="#CMR17-49"/>
       <use transform="translate(45.69047711706103 0.0)scale(0.9962640099626402)" xlink:href="#CMMI12-58"/>
       <use transform="translate(72.78765420688046 0.0)scale(0.9962640099626402)" xlink:href="#CMR17-52"/>
      </g>
     </g>
    </g>
    <g id="ytick_2">
     <g id="line2d_19">
      <g>
       <use style="stroke:#000000;stroke-width:0.5;" x="47.88" xlink:href="#md7965d1ba0" y="89.88"/>
      </g>
     </g>
     <g id="line2d_20">
      <g>
       <use style="stroke:#000000;stroke-width:0.5;" x="231.84" xlink:href="#md9a1c1a7cd" y="89.88"/>
      </g>
     </g>
     <g id="text_2">
      <!-- $1.6$ -->
      <defs>
       <path d="
M10.5938 34
C10.5938 57.6562 21.7969 63 28.2969 63
C30.4062 63 35.5 62.6406 37.5 59
C35.9062 59 32.9062 59 32.9062 55.5156
C32.9062 52.8281 35.0938 51.9219 36.5 51.9219
C37.4062 51.9219 40.0938 52.3125 40.0938 55.625
C40.0938 61.7812 35.0938 65.2969 28.2031 65.2969
C16.2969 65.2969 3.79688 52.9688 3.79688 31
C3.79688 3.95312 15.0938 -2 23.0938 -2
C32.7969 -2 42 6.67188 42 20.0469
C42 32.5156 33.9062 41.5938 23.7031 41.5938
C17.5938 41.5938 13.0938 37.6094 10.5938 30.625
z

M23.0938 0.390625
C10.7969 0.390625 10.7969 18.75 10.7969 22.4375
C10.7969 29.625 14.2031 40 23.5 40
C25.2031 40 30.0938 40 33.4062 33.125
C35.2031 29.2188 35.2031 25.1406 35.2031 20.1406
C35.2031 14.75 35.2031 10.7812 33.0938 6.78125
C30.9062 2.67188 27.7031 0.390625 23.0938 0.390625" id="CMR17-54"/>
      </defs>
      <g transform="translate(31.1499210237 92.3706600249)scale(0.1 -0.1)">
       <use transform="scale(0.9962640099626402)" xlink:href="#CMR17-49"/>
       <use transform="translate(45.69047711706103 0.0)scale(0.9962640099626402)" xlink:href="#CMMI12-58"/>
       <use transform="translate(72.78765420688046 0.0)scale(0.9962640099626402)" xlink:href="#CMR17-54"/>
      </g>
     </g>
    </g>
    <g id="ytick_3">
     <g id="line2d_21">
      <g>
       <use style="stroke:#000000;stroke-width:0.5;" x="47.88" xlink:href="#md7965d1ba0" y="68.32"/>
      </g>
     </g>
     <g id="line2d_22">
      <g>
       <use style="stroke:#000000;stroke-width:0.5;" x="231.84" xlink:href="#md9a1c1a7cd" y="68.32"/>
      </g>
     </g>
     <g id="text_3">
      <!-- $1.8$ -->
      <defs>
       <path d="
M27.2031 35.375
C33.5 38.5625 39.9062 43.3281 39.9062 50.9844
C39.9062 60.0312 31.0938 65.2969 23 65.2969
C13.9062 65.2969 5.90625 58.7344 5.90625 49.6875
C5.90625 47.2031 6.5 42.9219 10.4062 39.1406
C11.4062 38.1562 15.5938 35.1719 18.2969 33.2812
C13.7969 30.9844 3.29688 25.5312 3.29688 14.5938
C3.29688 4.35938 13.0938 -2 22.7969 -2
C33.5 -2 42.5 5.65625 42.5 15.7969
C42.5 24.8438 36.4062 29.0312 32.4062 31.7031
z

M14.0938 44.125
C13.2969 44.625 9.29688 47.7031 9.29688 52.375
C9.29688 58.4375 15.5938 63 22.7969 63
C30.7031 63 36.5 57.4531 36.5 50.9844
C36.5 41.7344 26.0938 36.4688 25.5938 36.4688
C25.5 36.4688 25.4062 36.4688 24.5938 37.0781
z

M32.5 23.7344
C34 22.6406 38.7969 19.375 38.7969 13.2969
C38.7969 5.95312 31.4062 0.390625 23 0.390625
C13.9062 0.390625 7 6.84375 7 14.6875
C7 22.5469 13.0938 29.0938 20 32.1875
z
" id="CMR17-56"/>
      </defs>
      <g transform="translate(31.1499210237 70.8106600249)scale(0.1 -0.1)">
       <use transform="scale(0.9962640099626402)" xlink:href="#CMR17-49"/>
       <use transform="translate(45.69047711706103 0.0)scale(0.9962640099626402)" xlink:href="#CMMI12-58"/>
       <use transform="translate(72.78765420688046 0.0)scale(0.9962640099626402)" xlink:href="#CMR17-56"/>
      </g>
     </g>
    </g>
    <g id="ytick_4">
     <g id="line2d_23">
      <g>
       <use style="stroke:#000000;stroke-width:0.5;" x="47.88" xlink:href="#md7965d1ba0" y="46.76"/>
      </g>
     </g>
     <g id="line2d_24">
      <g>
       <use style="stroke:#000000;stroke-width:0.5;" x="231.84" xlink:href="#md9a1c1a7cd" y="46.76"/>
      </g>
     </g>
     <g id="text_4">
      <!-- $2.0$ -->
      <defs>
       <path d="
M42 31.6406
C42 37.75 41.9062 48.125 37.7031 56.1094
C34 63.1094 28.0938 65.5938 22.9062 65.5938
C18.0938 65.5938 12 63.4062 8.20312 56.2031
C4.20312 48.7188 3.79688 39.4375 3.79688 31.6406
C3.79688 25.9531 3.90625 17.2812 7 9.67188
C11.2969 -0.609375 19 -2 22.9062 -2
C27.5 -2 34.5 -0.109375 38.5938 9.375
C41.5938 16.2812 42 24.3594 42 31.6406
M22.9062 -0.40625
C16.5 -0.40625 12.7031 5.07812 11.2969 12.6875
C10.2031 18.5625 10.2031 27.1562 10.2031 32.75
C10.2031 40.4375 10.2031 46.8281 11.5 52.9219
C13.4062 61.3906 19 64 22.9062 64
C27 64 32.2969 61.2969 34.2031 53.125
C35.5 47.4375 35.5938 40.7344 35.5938 32.75
C35.5938 26.25 35.5938 18.2656 34.4062 12.375
C32.2969 1.48438 26.4062 -0.40625 22.9062 -0.40625" id="CMR17-48"/>
       <path d="
M41.7031 15.4531
L39.9062 15.4531
C38.9062 8.375 38.0938 7.17188 37.7031 6.5625
C37.2031 5.76562 30 5.76562 28.5938 5.76562
L9.40625 5.76562
C13 9.67188 20 16.75 28.5 24.9531
C34.5938 30.7344 41.7031 37.5312 41.7031 47.4219
C41.7031 59.2188 32.2969 66 21.7969 66
C10.7969 66 4.09375 56.3125 4.09375 47.3438
C4.09375 43.4375 7 42.9375 8.20312 42.9375
C9.20312 42.9375 12.2031 43.5469 12.2031 47.0312
C12.2031 50.1094 9.59375 51 8.20312 51
C7.59375 51 7 50.9062 6.59375 50.7031
C8.5 59.2188 14.2969 63.4062 20.4062 63.4062
C29.0938 63.4062 34.7969 56.5156 34.7969 47.4219
C34.7969 38.7344 29.7031 31.25 24 24.75
L4.09375 2.28125
L4.09375 0
L39.2969 0
z
" id="CMR17-50"/>
      </defs>
      <g transform="translate(31.1499210237 49.2506600249)scale(0.1 -0.1)">
       <use transform="scale(0.9962640099626402)" xlink:href="#CMR17-50"/>
       <use transform="translate(45.69047711706103 0.0)scale(0.9962640099626402)" xlink:href="#CMMI12-58"/>
       <use transform="translate(72.78765420688046 0.0)scale(0.9962640099626402)" xlink:href="#CMR17-48"/>
      </g>
     </g>
    </g>
    <g id="ytick_5">
     <g id="line2d_25">
      <g>
       <use style="stroke:#000000;stroke-width:0.5;" x="47.88" xlink:href="#md7965d1ba0" y="25.2"/>
      </g>
     </g>
     <g id="line2d_26">
      <g>
       <use style="stroke:#000000;stroke-width:0.5;" x="231.84" xlink:href="#md9a1c1a7cd" y="25.2"/>
      </g>
     </g>
     <g id="text_5">
      <!-- $2.2$ -->
      <g transform="translate(31.1499210237 27.6906600249)scale(0.1 -0.1)">
       <use transform="scale(0.9962640099626402)" xlink:href="#CMR17-50"/>
       <use transform="translate(45.69047711706103 0.0)scale(0.9962640099626402)" xlink:href="#CMMI12-58"/>
       <use transform="translate(72.78765420688046 0.0)scale(0.9962640099626402)" xlink:href="#CMR17-50"/>
      </g>
     </g>
    </g>
    <g id="text_6">
     <!-- $\times10^{-13}$ -->
     <defs>
      <path d="
M22.0938 33.7031
C31 33.7031 34.9062 25.9688 34.9062 17.0312
C34.9062 5 28.5 0.390625 22.7031 0.390625
C17.4062 0.390625 8.79688 3.03125 6.09375 10.8281
C6.59375 10.625 7.09375 10.625 7.59375 10.625
C10 10.625 11.7969 12.2188 11.7969 14.8125
C11.7969 17.7031 9.59375 19 7.59375 19
C5.90625 19 3.29688 18.2031 3.29688 14.4688
C3.29688 5.23438 12.2969 -2 22.9062 -2
C34 -2 42.5 6.71875 42.5 16.9531
C42.5 26.6719 34.5 33.6875 25 34.7969
C32.5938 36.375 39.9062 43.0625 39.9062 52.0156
C39.9062 59.6875 32 65.2969 23 65.2969
C13.9062 65.2969 5.90625 59.8281 5.90625 52.0156
C5.90625 48.5938 8.5 48 9.79688 48
C11.9062 48 13.7031 49.2969 13.7031 51.8906
C13.7031 54.4688 11.9062 55.7656 9.79688 55.7656
C9.40625 55.7656 8.90625 55.7656 8.5 55.5625
C11.4062 61.8594 19.2969 63 22.7969 63
C26.2969 63 32.9062 61.3281 32.9062 51.875
C32.9062 49.1094 32.5 44.1875 29.0938 39.8438
C26.0938 36 22.7031 36 19.4062 35.5938
C18.9062 35.5938 16.5938 35.5938 16.2031 35.5938
C15.5 35.4844 15.0938 35.3906 15.0938 34.5938
C15.0938 33.8125 15.2031 33.7031 17.2031 33.7031
z
" id="CMR17-51"/>
      <path d="
M65.9062 23
C67.5938 23 69.4062 23 69.4062 25
C69.4062 27 67.5938 27 65.9062 27
L11.7969 27
C10.0938 27 8.29688 27 8.29688 25
C8.29688 23 10.0938 23 11.7969 23
z
" id="CMSY10-0"/>
      <path d="
M38.9062 27.8906
L18.9062 47.7969
C17.7031 49 17.5 49.1875 16.7031 49.1875
C15.7031 49.1875 14.7031 48.2969 14.7031 47.1875
C14.7031 46.5 14.9062 46.2969 16 45.1875
L36 25.0938
L16 5
C14.9062 3.89062 14.7031 3.6875 14.7031 3
C14.7031 1.89062 15.7031 1 16.7031 1
C17.5 1 17.7031 1.1875 18.9062 2.39062
L38.7969 22.2969
L59.5 1.59375
C59.7031 1.5 60.4062 1 61 1
C62.2031 1 63 1.89062 63 3
C63 3.1875 63 3.59375 62.7031 4.09375
C62.5938 4.29688 46.7031 20 41.7031 25.0938
L60 43.3906
C60.5 44 62 45.2969 62.5 45.8906
C62.5938 46.0938 63 46.5 63 47.1875
C63 48.2969 62.2031 49.1875 61 49.1875
C60.2031 49.1875 59.7969 48.7969 58.7031 47.6875
z
" id="CMSY10-2"/>
     </defs>
     <g transform="translate(47.88 22.2)scale(0.1 -0.1)">
      <use transform="scale(0.9962640099626402)" xlink:href="#CMSY10-2"/>
      <use transform="translate(77.4874676506071 0.0)scale(0.9962640099626402)" xlink:href="#CMR17-49"/>
      <use transform="translate(123.17794476766814 0.0)scale(0.9962640099626402)" xlink:href="#CMR17-48"/>
      <use transform="translate(168.86842188472914 36.15363894185866)scale(0.6973817666173724)" xlink:href="#CMSY10-0"/>
      <use transform="translate(223.1094151327055 36.15363894185866)scale(0.6973817666173724)" xlink:href="#CMR17-49"/>
      <use transform="translate(255.09259709682442 36.15363894185866)scale(0.6973817666173724)" xlink:href="#CMR17-51"/>
     </g>
    </g>
   </g>
   <g id="patch_3">
    <path d="
M47.88 25.2
L231.84 25.2" style="fill:none;stroke:#000000;"/>
   </g>
   <g id="patch_4">
    <path d="
M231.84 122.22
L231.84 25.2" style="fill:none;stroke:#000000;"/>
   </g>
   <g id="patch_5">
    <path d="
M47.88 122.22
L47.88 25.2" style="fill:none;stroke:#000000;"/>
   </g>
   <g id="patch_6">
    <path d="
M47.88 122.22
L231.84 122.22" style="fill:none;stroke:#000000;"/>
   </g>
   <g id="legend_1">
    <g id="line2d_27">
     <path d="
M56.88 93.8456
L76.88 93.8456" style="fill:none;stroke:#0000ff;stroke-linecap:square;"/>
    </g>
    <g id="line2d_28"/>
    <g id="text_7">
     <!-- data -->
     <defs>
      <path d="
M36 25.8281
C36 32.375 36 35.8438 31.7969 39.7344
C28.0938 43 23.7969 44 20.4062 44
C12.5 44 6.79688 37.6094 6.79688 30.7969
C6.79688 27 9.79688 27 10.4062 27
C11.7031 27 14 27.7812 14 30.5312
C14 33 12.0938 34.0781 10.4062 34.0781
C10 34.0781 9.5 33.9688 9.20312 33.875
C11.2969 40.5 16.7031 42.4062 20.2031 42.4062
C25.2031 42.4062 30.7031 37.9531 30.7031 29.4531
L30.7031 25
C24.7969 25 17.7031 24.2031 12.0938 21.2031
C5.79688 17.7031 4 12.7031 4 8.90625
C4 1.20312 13 -1 18.2969 -1
C23.7969 -1 28.9062 2.17188 31.0938 7.98438
C31.2969 3.64062 34.0938 -0.28125 38.5 -0.28125
C40.5938 -0.28125 45.9062 1.09375 45.9062 8.85938
L45.9062 14.375
L44.0938 14.375
L44.0938 8.78125
C44.0938 2.78125 41.4062 2 40.0938 2
C36 2 36 7.15625 36 11.5312
z

M30.7031 13.5938
C30.7031 4.95312 24.5 0.59375 19 0.59375
C14 0.59375 10.0938 4.29688 10.0938 8.90625
C10.0938 11.8906 11.4062 17.1875 17.2031 20.3906
C22 23.0938 27.5 23.5 30.7031 23.5
z
" id="CMR17-97"/>
      <path d="
M15.0938 40
L29.0938 40
L29.0938 42.5781
L15.0938 42.5781
L15.0938 61
L13.2969 61
C13.0938 50.7031 9.59375 41.6875 1.09375 41.6875
L1.09375 40
L9.79688 40
L9.79688 12.0469
C9.79688 10.1562 9.79688 -1 21.4062 -1
C27.2969 -1 30.7031 4.78125 30.7031 12.1406
L30.7031 17.8125
L28.9062 17.8125
L28.9062 12.2344
C28.9062 5.375 26.2031 0.796875 22 0.796875
C19.0938 0.796875 15.0938 2.78125 15.0938 11.8438
z
" id="CMR17-116"/>
      <path d="
M29.2031 67.5938
L29.2031 65
C35.0938 65 36 64.4062 36 59.6875
L36 36.6406
C35.5938 37.1406 31.5 43.5938 23.4062 43.5938
C13.2031 43.5938 3.29688 34.5 3.29688 21.3125
C3.29688 8.20312 12.5938 -1 22.4062 -1
C30.9062 -1 35.2969 5.26562 35.7969 5.9375
L35.7969 -0.984375
L47.9062 -0.984375
L47.9062 2
C42 2 41.0938 2.59375 41.0938 7.39062
L41.0938 68.6875
z

M35.7969 11.7969
C35.7969 8.79688 34 6.09375 31.7031 4.09375
C28.2969 1.09375 24.9062 0.59375 23 0.59375
C20.0938 0.59375 9.70312 2.09375 9.70312 21.1875
C9.70312 40.8125 21.2969 42 23.9062 42
C28.5 42 32.2031 39.4062 34.5 35.7969
C35.7969 33.7031 35.7969 33.4062 35.7969 31.6094
z
" id="CMR17-100"/>
     </defs>
     <g transform="translate(84.88 97.3456433394)scale(0.1 -0.1)">
      <use transform="scale(0.9962640099626402)" xlink:href="#CMR17-100"/>
      <use transform="translate(50.89536978031601 0.0)scale(0.9962640099626402)" xlink:href="#CMR17-97"/>
      <use transform="translate(96.58584689737704 0.0)scale(0.9962640099626402)" xlink:href="#CMR17-116"/>
      <use transform="translate(131.86661469683997 0.0)scale(0.9962640099626402)" xlink:href="#CMR17-97"/>
     </g>
    </g>
    <g id="line2d_29">
     <path d="
M56.88 107.783
L76.88 107.783" style="fill:none;stroke:#ff0000;stroke-linecap:square;"/>
    </g>
    <g id="line2d_30"/>
    <g id="text_8">
     <!-- model -->
     <defs>
      <path d="
M67.5938 30.2031
C67.5938 35.1875 66.7031 43.5938 54.7969 43.5938
C48 43.5938 43.2969 39 41.5 33.5938
L41.4062 33.5938
C40.2031 41.7969 34.2969 43.5938 28.7031 43.5938
C20.7969 43.5938 16.7031 37.5625 15.2031 33.5938
L15.0938 33.5938
L15.0938 43.5938
L3.29688 42.5
L3.29688 39.9062
C9.20312 39.9062 10.0938 39.2969 10.0938 34.5
L10.0938 6.6875
C10.0938 2.875 9.70312 2.39062 3.29688 2.39062
L3.29688 -0.203125
C5.70312 0 10.0938 0 12.7031 0
C15.2969 0 19.7969 0 22.2031 -0.203125
L22.2031 2.39062
C15.7969 2.39062 15.4062 2.78125 15.4062 6.6875
L15.4062 25.9062
C15.4062 35.1094 21 42 28 42
C35.4062 42 36.2031 35.4062 36.2031 30.5938
L36.2031 6.6875
C36.2031 2.875 35.7969 2.39062 29.4062 2.39062
L29.4062 -0.203125
C31.7969 0 36.2031 0 38.7969 0
C41.4062 0 45.9062 0 48.2969 -0.203125
L48.2969 2.39062
C41.9062 2.39062 41.5 2.78125 41.5 6.6875
L41.5 25.9062
C41.5 35.1094 47.0938 42 54.0938 42
C61.5 42 62.2969 35.4062 62.2969 30.5938
L62.2969 6.6875
C62.2969 2.875 61.9062 2.39062 55.5 2.39062
L55.5 -0.203125
C57.9062 0 62.2969 0 64.9062 0
C67.5 0 72 0 74.4062 -0.203125
L74.4062 2.39062
C68 2.39062 67.5938 2.78125 67.5938 6.6875
z
" id="CMR17-109"/>
      <path d="
M38.0938 23
C38.5 23.4062 38.5 23.6094 38.5 24.625
C38.5 34.9688 33.0938 44 21.7031 44
C11.0938 44 2.70312 33.8906 2.70312 21.6094
C2.70312 8.60938 12.2031 -1 22.7969 -1
C34 -1 38.4062 9.46875 38.4062 11.5469
C38.4062 12.25 37.7969 12.25 37.5938 12.25
C36.9062 12.25 36.7969 12.0469 36.4062 10.875
C34.2031 4.14062 28.7031 0.796875 23.5 0.796875
C19.2031 0.796875 14.9062 3.17188 12.2031 7.5
C9.09375 12.5469 9.09375 18.375 9.09375 23
z

M9.20312 24.5
C9.90625 39.1406 17.5938 42.4062 21.5938 42.4062
C28.4062 42.4062 33 35.8906 33.0938 24.5
z
" id="CMR17-101"/>
      <path d="
M15.2969 68.6875
L3.40625 67.5938
L3.40625 65
C9.29688 65 10.2031 64.4062 10.2031 59.6406
L10.2031 6.65625
C10.2031 2.875 9.79688 2.39062 3.40625 2.39062
L3.40625 -0.203125
C5.79688 0 10.2031 0 12.7031 0
C15.2969 0 19.7031 0 22.0938 -0.203125
L22.0938 2.39062
C15.7031 2.39062 15.2969 2.78125 15.2969 6.65625
z
" id="CMR17-108"/>
      <path d="
M43.0938 21.1875
C43.0938 34 33.7969 44 22.9062 44
C12 44 2.70312 34 2.70312 21.1875
C2.70312 8.60938 12 -1 22.9062 -1
C33.7969 -1 43.0938 8.60938 43.0938 21.1875
M22.9062 0.796875
C18.2031 0.796875 14.2031 3.59375 11.9062 7.5
C9.40625 11.9844 9.09375 17.5938 9.09375 22
C9.09375 26.2031 9.29688 31.4062 11.9062 35.9062
C13.9062 39.2031 17.7969 42.4062 22.9062 42.4062
C27.4062 42.4062 31.2031 39.9062 33.5938 36.4062
C36.7031 31.7031 36.7031 25.1094 36.7031 22
C36.7031 18.0938 36.5 12.1094 33.7969 7.29688
C31 2.70312 26.7031 0.796875 22.9062 0.796875" id="CMR17-111"/>
     </defs>
     <g transform="translate(84.88 111.28282167)scale(0.1 -0.1)">
      <use transform="scale(0.9962640099626402)" xlink:href="#CMR17-109"/>
      <use transform="translate(76.91958986807286 0.0)scale(0.9962640099626402)" xlink:href="#CMR17-111"/>
      <use transform="translate(125.2125057158702 0.0)scale(0.9962640099626402)" xlink:href="#CMR17-100"/>
      <use transform="translate(176.10787549618618 0.0)scale(0.9962640099626402)" xlink:href="#CMR17-101"/>
      <use transform="translate(216.59353595890414 0.0)scale(0.9962640099626402)" xlink:href="#CMR17-108"/>
     </g>
    </g>
   </g>
  </g>
  <g id="axes_2">
   <g id="patch_7">
    <path d="
M47.88 219.24
L231.84 219.24
L231.84 122.22
L47.88 122.22
z
" style="fill:#ffffff;"/>
   </g>
   <g id="line2d_31">
    <path clip-path="url(#paefd87ad59)" d="
M48.3708 151.035
L49.0916 151.035
L49.0916 159.136
L50.5332 159.136
L50.5332 155.545
L51.9746 155.545
L51.9746 180.259
L53.416 180.259
L53.416 158.903
L54.8572 158.903
L54.8572 163.11
L56.2984 163.11
L56.2984 155.956
L57.7394 155.956
L57.7394 149.509
L59.1804 149.509
L59.1804 176.651
L60.6213 176.651
L60.6213 147.974
L62.062 147.974
L62.062 153.988
L63.5027 153.988
L63.5027 169.418
L64.9433 169.418
L64.9433 165.818
L66.3838 165.818
L66.3838 163.332
L67.8242 163.332
L67.8242 171.524
L69.2645 171.524
L69.2645 149.055
L70.7047 149.055
L70.7047 140.557
L72.1448 140.557
L72.1448 168.934
L73.5848 168.934
L73.5848 164.44
L75.0247 164.44
L75.0247 179.671
L76.4646 179.671
L76.4646 213.654
L77.9043 213.654
L77.9043 192.341
L79.3439 192.341
L79.3439 196.957
L80.7834 196.957
L80.7834 174.436
L82.2229 174.436
L82.2229 166.019
L83.6622 166.019
L83.6622 155.339
L85.1015 155.339
L85.1015 153.096
L86.5406 153.096
L86.5406 163.504
L87.9797 163.504
L87.9797 156.479
L89.4187 156.479
L89.4187 148.509
L90.8575 148.509
L90.8575 159.301
L92.2963 159.301
L92.2963 152.525
L93.735 152.525
L93.735 172.078
L95.1736 172.078
L95.1736 157.15
L96.6121 157.15
L96.6121 151.933
L98.0505 151.933
L98.0505 155.115
L99.4887 155.115
L99.4887 154.924
L100.927 154.924
L100.927 152.163
L102.365 152.163
L102.365 154.156
L103.803 154.156
L103.803 156.11
L105.241 156.11
L105.241 157.69
L106.679 157.69
L106.679 179.824
L108.117 179.824
L108.117 172.759
L109.554 172.759
L109.554 167.112
L110.992 167.112
L110.992 151.212
L112.429 151.212
L112.429 173.215
L113.866 173.215
L113.866 146.938
L115.304 146.938
L115.304 162.743
L116.741 162.743
L116.741 183.824
L118.178 183.824
L118.178 173.106
L119.615 173.106
L119.615 160.581
L121.052 160.581
L121.052 148.682
L122.489 148.682
L122.489 160.311
L123.925 160.311
L123.925 163.644
L125.362 163.644
L125.362 167.262
L126.798 167.262
L126.798 167.476
L128.235 167.476
L128.235 162.528
L129.671 162.528
L129.671 145.62
L131.107 145.62
L131.107 160.428
L132.543 160.428
L132.543 174.377
L133.979 174.377
L133.979 166.4
L135.415 166.4
L135.415 186.635
L136.851 186.635
L136.851 164.808
L138.287 164.808
L138.287 190.387
L139.722 190.387
L139.722 180.557
L141.158 180.557
L141.158 190.11
L142.593 190.11
L142.593 161.388
L144.029 161.388
L144.029 147.323
L145.464 147.323
L145.464 178.92
L146.899 178.92
L146.899 159.426
L148.334 159.426
L148.334 157.605
L149.769 157.605
L149.769 155.013
L151.204 155.013
L151.204 150.234
L152.639 150.234
L152.639 139.104
L154.073 139.104
L154.073 160.145
L155.508 160.145
L155.508 149.041
L156.942 149.041
L156.942 140.614
L158.377 140.614
L158.377 147.424
L159.811 147.424
L159.811 153.486
L161.245 153.486
L161.245 157.541
L162.679 157.541
L162.679 167.713
L164.113 167.713
L164.113 174.345
L165.547 174.345
L165.547 182.795
L166.981 182.795
L166.981 192.258
L168.415 192.258
L168.415 198.136
L169.848 198.136
L169.848 209.853
L171.282 209.853
L171.282 186.701
L172.715 186.701
L172.715 177.482
L174.149 177.482
L174.149 188.806
L175.582 188.806
L175.582 167.524
L177.015 167.524
L177.015 169.495
L178.448 169.495
L178.448 156.065
L179.881 156.065
L179.881 171.768
L181.314 171.768
L181.314 168.983
L182.747 168.983
L182.747 161.518
L184.179 161.518
L184.179 148.15
L185.612 148.15
L185.612 143.991
L187.044 143.991
L187.044 158.595
L188.477 158.595
L188.477 160.401
L189.909 160.401
L189.909 161.946
L191.341 161.946
L191.341 174.224
L192.773 174.224
L192.773 158.594
L194.205 158.594
L194.205 149.591
L195.637 149.591
L195.637 171.811
L197.069 171.811
L197.069 155.401
L198.501 155.401
L198.501 165.834
L199.932 165.834
L199.932 151.055
L201.364 151.055
L201.364 147.422
L202.795 147.422
L202.795 144.07
L204.226 144.07
L204.226 130.384
L205.658 130.384
L205.658 145.843
L207.089 145.843
L207.089 156.575
L208.52 156.575
L208.52 152.475
L209.951 152.475
L209.951 173.53
L211.382 173.53
L211.382 156.462
L212.812 156.462
L212.812 164.139
L214.243 164.139
L214.243 155.024
L215.674 155.024
L215.674 162.267
L217.104 162.267
L217.104 148.79
L218.534 148.79
L218.534 145.199
L219.965 145.199
L219.965 157.989
L221.395 157.989
L221.395 148.908
L222.825 148.908
L222.825 152.059
L224.255 152.059
L224.255 159.635
L225.685 159.635
L225.685 158.296
L227.115 158.296
L227.115 148.303
L228.544 148.303
L228.544 133.762
L229.974 133.762
L229.974 157.508
L230.689 157.508
L230.689 157.508" style="fill:none;stroke:#000000;stroke-linecap:square;"/>
   </g>
   <g id="matplotlib.axis_3">
    <g id="xtick_8">
     <g id="line2d_32">
      <g>
       <use style="stroke:#000000;stroke-width:0.5;" x="47.88" xlink:href="#mc7db9fdffb" y="219.24"/>
      </g>
     </g>
     <g id="line2d_33">
      <g>
       <use style="stroke:#000000;stroke-width:0.5;" x="47.88" xlink:href="#m5a7d422ac3" y="122.22"/>
      </g>
     </g>
     <g id="text_9">
      <!-- 5144 -->
      <defs>
       <path d="
M11.4062 57.6875
C12.4062 57.2812 16.5 56 20.7031 56
C30 56 35.0938 61.0156 38 63.9219
C38 64.7344 38 65.25 37.4062 65.25
C37.2969 65.25 37.0938 65.25 36.2969 64.8281
C32.7969 63.3125 28.7031 62.0781 23.7031 62.0781
C20.7031 62.0781 16.2031 62.5 11.2969 64.7344
C10.2031 65.25 10 65.25 9.90625 65.25
C9.40625 65.25 9.29688 65.1406 9.29688 63.1562
L9.29688 34.2812
C9.29688 32.5 9.29688 32 10.2969 32
C10.7969 32 11 32.2031 11.5 32.9062
C14.7031 37.4844 19.0938 39.4062 24.0938 39.4062
C27.5938 39.4062 35.0938 37.2188 35.0938 20.1406
C35.0938 16.9531 35.0938 11.1719 32.0938 6.57812
C29.5938 2.48438 25.7031 0.390625 21.4062 0.390625
C14.7969 0.390625 8.09375 5 6.29688 12.7188
C6.70312 12.6094 7.5 12.4219 7.90625 12.4219
C9.20312 12.4219 11.7031 13.125 11.7031 16.2188
C11.7031 18.9062 9.79688 20 7.90625 20
C5.59375 20 4.09375 18.5938 4.09375 15.7969
C4.09375 7.09375 11 -2 21.5938 -2
C31.9062 -2 41.7031 6.875 41.7031 19.75
C41.7031 31.7188 33.9062 41 24.2031 41
C19.0938 41 14.7969 39.0938 11.4062 35.4531
z
" id="CMR17-53"/>
      </defs>
      <g transform="translate(37.9173294968 230.15849838)scale(0.1 -0.1)">
       <use transform="scale(0.9962640099626402)" xlink:href="#CMR17-53"/>
       <use transform="translate(45.69047711706103 0.0)scale(0.9962640099626402)" xlink:href="#CMR17-49"/>
       <use transform="translate(91.38095423412206 0.0)scale(0.9962640099626402)" xlink:href="#CMR17-52"/>
       <use transform="translate(137.07143135118307 0.0)scale(0.9962640099626402)" xlink:href="#CMR17-52"/>
      </g>
     </g>
    </g>
    <g id="xtick_9">
     <g id="line2d_34">
      <g>
       <use style="stroke:#000000;stroke-width:0.5;" x="78.54" xlink:href="#mc7db9fdffb" y="219.24"/>
      </g>
     </g>
     <g id="line2d_35">
      <g>
       <use style="stroke:#000000;stroke-width:0.5;" x="78.54" xlink:href="#m5a7d422ac3" y="122.22"/>
      </g>
     </g>
     <g id="text_10">
      <!-- 5145 -->
      <g transform="translate(68.5773294968 230.15849838)scale(0.1 -0.1)">
       <use transform="scale(0.9962640099626402)" xlink:href="#CMR17-53"/>
       <use transform="translate(45.69047711706103 0.0)scale(0.9962640099626402)" xlink:href="#CMR17-49"/>
       <use transform="translate(91.38095423412206 0.0)scale(0.9962640099626402)" xlink:href="#CMR17-52"/>
       <use transform="translate(137.07143135118307 0.0)scale(0.9962640099626402)" xlink:href="#CMR17-53"/>
      </g>
     </g>
    </g>
    <g id="xtick_10">
     <g id="line2d_36">
      <g>
       <use style="stroke:#000000;stroke-width:0.5;" x="109.2" xlink:href="#mc7db9fdffb" y="219.24"/>
      </g>
     </g>
     <g id="line2d_37">
      <g>
       <use style="stroke:#000000;stroke-width:0.5;" x="109.2" xlink:href="#m5a7d422ac3" y="122.22"/>
      </g>
     </g>
     <g id="text_11">
      <!-- 5146 -->
      <g transform="translate(99.2373294968 230.15849838)scale(0.1 -0.1)">
       <use transform="scale(0.9962640099626402)" xlink:href="#CMR17-53"/>
       <use transform="translate(45.69047711706103 0.0)scale(0.9962640099626402)" xlink:href="#CMR17-49"/>
       <use transform="translate(91.38095423412206 0.0)scale(0.9962640099626402)" xlink:href="#CMR17-52"/>
       <use transform="translate(137.07143135118307 0.0)scale(0.9962640099626402)" xlink:href="#CMR17-54"/>
      </g>
     </g>
    </g>
    <g id="xtick_11">
     <g id="line2d_38">
      <g>
       <use style="stroke:#000000;stroke-width:0.5;" x="139.86" xlink:href="#mc7db9fdffb" y="219.24"/>
      </g>
     </g>
     <g id="line2d_39">
      <g>
       <use style="stroke:#000000;stroke-width:0.5;" x="139.86" xlink:href="#m5a7d422ac3" y="122.22"/>
      </g>
     </g>
     <g id="text_12">
      <!-- 5147 -->
      <defs>
       <path d="
M45.0938 61.5781
L45.0938 63.7656
L21.5938 63.7656
C9.90625 63.7656 9.70312 65.0781 9.29688 67
L7.5 67
L4.59375 48.3438
L6.40625 48.3438
C6.70312 50.2344 7.40625 55.3125 8.59375 57.2031
C9.20312 58 16.5938 58 18.2969 58
L40.2969 58
L29.2031 41.5781
C21.7969 30.5312 16.7031 15.6094 16.7031 2.57812
C16.7031 1.39062 16.7031 -2 20.2969 -2
C23.9062 -2 23.9062 1.39062 23.9062 2.67188
L23.9062 7.26562
C23.9062 23.5625 26.7031 34.3125 31.2969 41.1875
z
" id="CMR17-55"/>
      </defs>
      <g transform="translate(129.897329497 230.15849838)scale(0.1 -0.1)">
       <use transform="scale(0.9962640099626402)" xlink:href="#CMR17-53"/>
       <use transform="translate(45.69047711706103 0.0)scale(0.9962640099626402)" xlink:href="#CMR17-49"/>
       <use transform="translate(91.38095423412206 0.0)scale(0.9962640099626402)" xlink:href="#CMR17-52"/>
       <use transform="translate(137.07143135118307 0.0)scale(0.9962640099626402)" xlink:href="#CMR17-55"/>
      </g>
     </g>
    </g>
    <g id="xtick_12">
     <g id="line2d_40">
      <g>
       <use style="stroke:#000000;stroke-width:0.5;" x="170.52" xlink:href="#mc7db9fdffb" y="219.24"/>
      </g>
     </g>
     <g id="line2d_41">
      <g>
       <use style="stroke:#000000;stroke-width:0.5;" x="170.52" xlink:href="#m5a7d422ac3" y="122.22"/>
      </g>
     </g>
     <g id="text_13">
      <!-- 5148 -->
      <g transform="translate(160.557329497 230.15849838)scale(0.1 -0.1)">
       <use transform="scale(0.9962640099626402)" xlink:href="#CMR17-53"/>
       <use transform="translate(45.69047711706103 0.0)scale(0.9962640099626402)" xlink:href="#CMR17-49"/>
       <use transform="translate(91.38095423412206 0.0)scale(0.9962640099626402)" xlink:href="#CMR17-52"/>
       <use transform="translate(137.07143135118307 0.0)scale(0.9962640099626402)" xlink:href="#CMR17-56"/>
      </g>
     </g>
    </g>
    <g id="xtick_13">
     <g id="line2d_42">
      <g>
       <use style="stroke:#000000;stroke-width:0.5;" x="201.18" xlink:href="#mc7db9fdffb" y="219.24"/>
      </g>
     </g>
     <g id="line2d_43">
      <g>
       <use style="stroke:#000000;stroke-width:0.5;" x="201.18" xlink:href="#m5a7d422ac3" y="122.22"/>
      </g>
     </g>
     <g id="text_14">
      <!-- 5149 -->
      <defs>
       <path d="
M35.2031 29.125
C35.2031 7.25 26.0938 0.484375 18.5938 0.484375
C16.2969 0.484375 10.7031 0.484375 8.40625 4.59375
C11 4.1875 12.9062 5.57812 12.9062 8.09375
C12.9062 10.8125 10.7031 11.7031 9.29688 11.7031
C8.40625 11.7031 5.70312 11.2969 5.70312 7.90625
C5.70312 1.10938 11.5938 -2 18.7969 -2
C30.2969 -2 42 10.5312 42 32.3906
C42 59.6406 30.7969 65.2969 23.2031 65.2969
C13.2969 65.2969 3.79688 56.6875 3.79688 43.4062
C3.79688 31.1094 11.9062 22 22.0938 22
C30.5 22 34.2031 29.7344 35.2031 33
z

M22.2969 23.5938
C19.5938 23.5938 15.7969 24.0938 12.7031 30.0312
C10.5938 33.8906 10.5938 38.4531 10.5938 43.2969
C10.5938 49.1562 10.5938 53.2031 13.4062 57.5625
C14.7969 59.6406 17.4062 63 23.2031 63
C35 63 35 45.0781 35 41.125
C35 34.0938 31.7969 23.5938 22.2969 23.5938" id="CMR17-57"/>
      </defs>
      <g transform="translate(191.217329497 230.15849838)scale(0.1 -0.1)">
       <use transform="scale(0.9962640099626402)" xlink:href="#CMR17-53"/>
       <use transform="translate(45.69047711706103 0.0)scale(0.9962640099626402)" xlink:href="#CMR17-49"/>
       <use transform="translate(91.38095423412206 0.0)scale(0.9962640099626402)" xlink:href="#CMR17-52"/>
       <use transform="translate(137.07143135118307 0.0)scale(0.9962640099626402)" xlink:href="#CMR17-57"/>
      </g>
     </g>
    </g>
    <g id="xtick_14">
     <g id="line2d_44">
      <g>
       <use style="stroke:#000000;stroke-width:0.5;" x="231.84" xlink:href="#mc7db9fdffb" y="219.24"/>
      </g>
     </g>
     <g id="line2d_45">
      <g>
       <use style="stroke:#000000;stroke-width:0.5;" x="231.84" xlink:href="#m5a7d422ac3" y="122.22"/>
      </g>
     </g>
     <g id="text_15">
      <!-- 5150 -->
      <g transform="translate(221.877329497 230.15849838)scale(0.1 -0.1)">
       <use transform="scale(0.9962640099626402)" xlink:href="#CMR17-53"/>
       <use transform="translate(45.69047711706103 0.0)scale(0.9962640099626402)" xlink:href="#CMR17-49"/>
       <use transform="translate(91.38095423412206 0.0)scale(0.9962640099626402)" xlink:href="#CMR17-53"/>
       <use transform="translate(137.07143135118307 0.0)scale(0.9962640099626402)" xlink:href="#CMR17-48"/>
      </g>
     </g>
    </g>
    <g id="text_16">
     <!-- $\lambda$ [\AA] -->
     <defs>
      <path d="
M43.2969 61.8125
C43.2969 66.7969 39.2969 70.5938 34.5938 70.5938
C29.9062 70.5938 25.9062 66.7969 25.9062 61.8125
C25.9062 56.7969 29.9062 53 34.5938 53
C39.2969 53 43.2969 56.7969 43.2969 61.8125
M34.5938 54.5938
C30.4062 54.5938 27.7031 57.1875 27.7031 61.8125
C27.7031 66.5 30.5 69 34.5938 69
C38.7969 69 41.5 66.4062 41.5 61.8125
C41.5 57.0938 38.7031 54.5938 34.5938 54.5938" id="CMR17-23"/>
      <path d="
M36.2969 68.4062
C35.7969 69.7031 35.5938 70 34.5938 70
C33.5938 70 33.4062 69.7031 32.9062 68.4062
L11.7031 8.84375
C9.79688 3.48438 5.79688 2.39062 2.29688 2.39062
L2.29688 -0.203125
C4.09375 0 8.09375 0 10 0
C12.5 0 16.5 0 18.9062 -0.203125
L18.9062 2.39062
C14.2031 2.39062 13.5 5.64062 13.5 6.85938
C13.5 7.76562 13.7031 8.28125 13.9062 8.89062
L19.2031 24
L45.4062 24
L51.4062 6.90625
C51.9062 5.70312 51.9062 5.5 51.9062 5.10938
C51.9062 2.39062 47.5938 2.39062 45.7031 2.39062
L45.7031 0
C48.5938 0 53.7969 0 56.9062 0
C59.5 0 64.5 0 66.9062 -0.203125
L66.9062 2.39062
C61.5938 2.39062 59.7969 2.39062 58.5 6.04688
z

M32.2969 60.5312
L44.5 26.5938
L20.0938 26.5938
z
" id="CMR17-65"/>
      <path d="
M23.5 -25
L23.5 -21.5156
L14.0938 -21.5156
L14.0938 71
L23.5 71
L23.5 74.4844
L10.5938 74.4844
L10.5938 -25
z
" id="CMR17-91"/>
      <path d="
M30.9062 61.9531
C28.4062 69 20.5 69 19.2031 69
C18.5938 69 17.5 69 17.5 68
C17.5 67.2188 18.0938 67.1094 18.5938 67.0156
C20.0938 66.8125 21.2969 66.6094 22.9062 63.75
C23.9062 61.8594 34.2031 32.1719 34.2031 31.9688
C34.2031 31.875 34.0938 31.7656 33.2969 30.9688
L7.29688 4.85938
C6.09375 3.65625 5.29688 2.85938 5.29688 1.59375
C5.29688 0.1875 6.5 -1 8.09375 -1
C8.5 -1 9.59375 -0.796875 10.2031 -0.203125
C11.7969 1.28125 26.0938 18.6562 35.2031 29.3906
C37.7969 21.6094 41 12.4531 44.0938 4.07812
C44.5938 2.59375 45.0938 1.1875 46.5 -0.09375
C47.5 -1 47.7031 -1 50.5 -1
L52.4062 -1
C52.7969 -1 53.5 -1 53.5 -0.171875
C53.5 0.265625 53.4062 0.359375 53 0.78125
C52.0938 1.875 51.4062 3.65625 51 4.84375
z
" id="CMMI12-21"/>
      <path d="
M14.2969 74.4844
L1.40625 74.4844
L1.40625 71
L10.7969 71
L10.7969 -21.5156
L1.40625 -21.5156
L1.40625 -25
L14.2969 -25
z
" id="CMR17-93"/>
     </defs>
     <g transform="translate(128.790373708 245.775620816)scale(0.1 -0.1)">
      <use transform="scale(0.9962640099626402)" xlink:href="#CMMI12-21"/>
      <use transform="translate(86.98003823552305 0.0)scale(0.9962640099626402)" xlink:href="#CMR17-91"/>
      <use transform="translate(111.85109671738793 17.61874416251557)scale(0.9962640099626402)" xlink:href="#CMR17-23"/>
      <use transform="translate(111.85109671738793 0.0)scale(0.9962640099626402)" xlink:href="#CMR17-65"/>
      <use transform="translate(180.92352652163763 0.0)scale(0.9962640099626402)" xlink:href="#CMR17-93"/>
     </g>
    </g>
   </g>
   <g id="matplotlib.axis_4">
    <g id="ytick_6">
     <g id="line2d_46">
      <g>
       <use style="stroke:#000000;stroke-width:0.5;" x="47.88" xlink:href="#md7965d1ba0" y="219.24"/>
      </g>
     </g>
     <g id="line2d_47">
      <g>
       <use style="stroke:#000000;stroke-width:0.5;" x="231.84" xlink:href="#md9a1c1a7cd" y="219.24"/>
      </g>
     </g>
     <g id="text_17">
      <!-- $-2.0$ -->
      <g transform="translate(23.401177299 221.730660025)scale(0.1 -0.1)">
       <use transform="scale(0.9962640099626402)" xlink:href="#CMSY10-0"/>
       <use transform="translate(77.4874676506071 0.0)scale(0.9962640099626402)" xlink:href="#CMR17-50"/>
       <use transform="translate(123.17794476766814 0.0)scale(0.9962640099626402)" xlink:href="#CMMI12-58"/>
       <use transform="translate(150.27512185748756 0.0)scale(0.9962640099626402)" xlink:href="#CMR17-48"/>
      </g>
     </g>
    </g>
    <g id="ytick_7">
     <g id="line2d_48">
      <g>
       <use style="stroke:#000000;stroke-width:0.5;" x="47.88" xlink:href="#md7965d1ba0" y="205.38"/>
      </g>
     </g>
     <g id="line2d_49">
      <g>
       <use style="stroke:#000000;stroke-width:0.5;" x="231.84" xlink:href="#md9a1c1a7cd" y="205.38"/>
      </g>
     </g>
     <g id="text_18">
      <!-- $-1.5$ -->
      <g transform="translate(23.401177299 207.870660025)scale(0.1 -0.1)">
       <use transform="scale(0.9962640099626402)" xlink:href="#CMSY10-0"/>
       <use transform="translate(77.4874676506071 0.0)scale(0.9962640099626402)" xlink:href="#CMR17-49"/>
       <use transform="translate(123.17794476766814 0.0)scale(0.9962640099626402)" xlink:href="#CMMI12-58"/>
       <use transform="translate(150.27512185748756 0.0)scale(0.9962640099626402)" xlink:href="#CMR17-53"/>
      </g>
     </g>
    </g>
    <g id="ytick_8">
     <g id="line2d_50">
      <g>
       <use style="stroke:#000000;stroke-width:0.5;" x="47.88" xlink:href="#md7965d1ba0" y="191.52"/>
      </g>
     </g>
     <g id="line2d_51">
      <g>
       <use style="stroke:#000000;stroke-width:0.5;" x="231.84" xlink:href="#md9a1c1a7cd" y="191.52"/>
      </g>
     </g>
     <g id="text_19">
      <!-- $-1.0$ -->
      <g transform="translate(23.401177299 194.010660025)scale(0.1 -0.1)">
       <use transform="scale(0.9962640099626402)" xlink:href="#CMSY10-0"/>
       <use transform="translate(77.4874676506071 0.0)scale(0.9962640099626402)" xlink:href="#CMR17-49"/>
       <use transform="translate(123.17794476766814 0.0)scale(0.9962640099626402)" xlink:href="#CMMI12-58"/>
       <use transform="translate(150.27512185748756 0.0)scale(0.9962640099626402)" xlink:href="#CMR17-48"/>
      </g>
     </g>
    </g>
    <g id="ytick_9">
     <g id="line2d_52">
      <g>
       <use style="stroke:#000000;stroke-width:0.5;" x="47.88" xlink:href="#md7965d1ba0" y="177.66"/>
      </g>
     </g>
     <g id="line2d_53">
      <g>
       <use style="stroke:#000000;stroke-width:0.5;" x="231.84" xlink:href="#md9a1c1a7cd" y="177.66"/>
      </g>
     </g>
     <g id="text_20">
      <!-- $-0.5$ -->
      <g transform="translate(23.401177299 180.150660025)scale(0.1 -0.1)">
       <use transform="scale(0.9962640099626402)" xlink:href="#CMSY10-0"/>
       <use transform="translate(77.4874676506071 0.0)scale(0.9962640099626402)" xlink:href="#CMR17-48"/>
       <use transform="translate(123.17794476766814 0.0)scale(0.9962640099626402)" xlink:href="#CMMI12-58"/>
       <use transform="translate(150.27512185748756 0.0)scale(0.9962640099626402)" xlink:href="#CMR17-53"/>
      </g>
     </g>
    </g>
    <g id="ytick_10">
     <g id="line2d_54">
      <g>
       <use style="stroke:#000000;stroke-width:0.5;" x="47.88" xlink:href="#md7965d1ba0" y="163.8"/>
      </g>
     </g>
     <g id="line2d_55">
      <g>
       <use style="stroke:#000000;stroke-width:0.5;" x="231.84" xlink:href="#md9a1c1a7cd" y="163.8"/>
      </g>
     </g>
     <g id="text_21">
      <!-- $0.0$ -->
      <g transform="translate(31.1499210237 166.290660025)scale(0.1 -0.1)">
       <use transform="scale(0.9962640099626402)" xlink:href="#CMR17-48"/>
       <use transform="translate(45.69047711706103 0.0)scale(0.9962640099626402)" xlink:href="#CMMI12-58"/>
       <use transform="translate(72.78765420688046 0.0)scale(0.9962640099626402)" xlink:href="#CMR17-48"/>
      </g>
     </g>
    </g>
    <g id="ytick_11">
     <g id="line2d_56">
      <g>
       <use style="stroke:#000000;stroke-width:0.5;" x="47.88" xlink:href="#md7965d1ba0" y="149.94"/>
      </g>
     </g>
     <g id="line2d_57">
      <g>
       <use style="stroke:#000000;stroke-width:0.5;" x="231.84" xlink:href="#md9a1c1a7cd" y="149.94"/>
      </g>
     </g>
     <g id="text_22">
      <!-- $0.5$ -->
      <g transform="translate(31.1499210237 152.430660025)scale(0.1 -0.1)">
       <use transform="scale(0.9962640099626402)" xlink:href="#CMR17-48"/>
       <use transform="translate(45.69047711706103 0.0)scale(0.9962640099626402)" xlink:href="#CMMI12-58"/>
       <use transform="translate(72.78765420688046 0.0)scale(0.9962640099626402)" xlink:href="#CMR17-53"/>
      </g>
     </g>
    </g>
    <g id="ytick_12">
     <g id="line2d_58">
      <g>
       <use style="stroke:#000000;stroke-width:0.5;" x="47.88" xlink:href="#md7965d1ba0" y="136.08"/>
      </g>
     </g>
     <g id="line2d_59">
      <g>
       <use style="stroke:#000000;stroke-width:0.5;" x="231.84" xlink:href="#md9a1c1a7cd" y="136.08"/>
      </g>
     </g>
     <g id="text_23">
      <!-- $1.0$ -->
      <g transform="translate(31.1499210237 138.570660025)scale(0.1 -0.1)">
       <use transform="scale(0.9962640099626402)" xlink:href="#CMR17-49"/>
       <use transform="translate(45.69047711706103 0.0)scale(0.9962640099626402)" xlink:href="#CMMI12-58"/>
       <use transform="translate(72.78765420688046 0.0)scale(0.9962640099626402)" xlink:href="#CMR17-48"/>
      </g>
     </g>
    </g>
    <g id="ytick_13">
     <g id="line2d_60">
      <g>
       <use style="stroke:#000000;stroke-width:0.5;" x="47.88" xlink:href="#md7965d1ba0" y="122.22"/>
      </g>
     </g>
     <g id="line2d_61">
      <g>
       <use style="stroke:#000000;stroke-width:0.5;" x="231.84" xlink:href="#md9a1c1a7cd" y="122.22"/>
      </g>
     </g>
     <g id="text_24">
      <!-- $1.5$ -->
      <g transform="translate(31.1499210237 124.710660025)scale(0.1 -0.1)">
       <use transform="scale(0.9962640099626402)" xlink:href="#CMR17-49"/>
       <use transform="translate(45.69047711706103 0.0)scale(0.9962640099626402)" xlink:href="#CMMI12-58"/>
       <use transform="translate(72.78765420688046 0.0)scale(0.9962640099626402)" xlink:href="#CMR17-53"/>
      </g>
     </g>
    </g>
    <g id="text_25">
     <!-- $\times10^{-14}$ -->
     <g transform="translate(47.88 119.22)scale(0.1 -0.1)">
      <use transform="scale(0.9962640099626402)" xlink:href="#CMSY10-2"/>
      <use transform="translate(77.4874676506071 0.0)scale(0.9962640099626402)" xlink:href="#CMR17-49"/>
      <use transform="translate(123.17794476766814 0.0)scale(0.9962640099626402)" xlink:href="#CMR17-48"/>
      <use transform="translate(168.86842188472914 36.15363894185866)scale(0.6973817666173724)" xlink:href="#CMSY10-0"/>
      <use transform="translate(223.1094151327055 36.15363894185866)scale(0.6973817666173724)" xlink:href="#CMR17-49"/>
      <use transform="translate(255.09259709682442 36.15363894185866)scale(0.6973817666173724)" xlink:href="#CMR17-52"/>
     </g>
    </g>
   </g>
   <g id="patch_8">
    <path d="
M47.88 122.22
L231.84 122.22" style="fill:none;stroke:#000000;"/>
   </g>
   <g id="patch_9">
    <path d="
M231.84 219.24
L231.84 122.22" style="fill:none;stroke:#000000;"/>
   </g>
   <g id="patch_10">
    <path d="
M47.88 219.24
L47.88 122.22" style="fill:none;stroke:#000000;"/>
   </g>
   <g id="patch_11">
    <path d="
M47.88 219.24
L231.84 219.24" style="fill:none;stroke:#000000;"/>
   </g>
   <g id="legend_2">
    <g id="line2d_62">
     <path d="
M56.88 134.72
L76.88 134.72" style="fill:none;stroke:#000000;stroke-linecap:square;"/>
    </g>
    <g id="line2d_63"/>
    <g id="text_26">
     <!-- residuals -->
     <defs>
      <path d="
M30.9062 42.1094
C30.9062 43.9062 30.7969 44 30.2031 44
C29.7969 44 29.7031 43.9062 28.5 42.4219
C28.2031 42.0156 27.2969 41.0156 27 40.625
C23.7969 44 19.2969 44 17.5938 44
C6.5 44 2.5 38.1719 2.5 32.375
C2.5 23.3438 12.7031 21.25 15.5938 20.6406
C21.9062 19.3438 24.0938 18.9375 26.2031 17.125
C27.5 15.9375 29.7031 13.7344 29.7031 10.125
C29.7031 5.90625 27.2969 0.5 18.0938 0.5
C9.40625 0.5 6.29688 7.0625 4.5 15.8281
C4.20312 17.2188 4.20312 17.3281 3.40625 17.3281
C2.59375 17.3281 2.5 17.2188 2.5 15.2344
L2.5 0.890625
C2.5 -0.890625 2.59375 -1 3.20312 -1
C3.70312 -1 3.79688 -0.890625 4.29688 -0.09375
C4.90625 0.796875 6.40625 3.1875 7 4.1875
C9 1.54688 12.5 -1 18.0938 -1
C28 -1 33.2969 4.40625 33.2969 12.2344
C33.2969 17.3438 30.5938 20.0625 29.2969 21.25
C26.2969 24.375 22.7969 25.0625 18.5938 25.8594
C13.0938 27.0781 6.09375 28.4688 6.09375 34.5938
C6.09375 37.1875 7.5 42.7188 17.5938 42.7188
C28.2969 42.7188 28.9062 32.75 29.0938 29.5625
C29.2031 29.0781 29.7031 28.9688 30 28.9688
C30.9062 28.9688 30.9062 29.2812 30.9062 30.9688
z
" id="CMR17-115"/>
      <path d="
M15 23.3906
C15 33 19.0938 42 26.5938 42
C27.2969 42 28 41.9062 28.7031 41.5938
C28.7031 41.5938 26.5 40.8906 26.5 38.3125
C26.5 35.9062 28.4062 34.9062 29.9062 34.9062
C31.0938 34.9062 33.2969 35.6094 33.2969 38.4062
C33.2969 41.6094 30.0938 43.5938 26.7031 43.5938
C19.0938 43.5938 15.7969 36.2031 14.7969 32.7031
L14.7031 32.7031
L14.7031 43.5938
L3.09375 42.5
L3.09375 39.9062
C9 39.9062 9.90625 39.2969 9.90625 34.5
L9.90625 6.6875
C9.90625 2.875 9.5 2.39062 3.09375 2.39062
L3.09375 -0.203125
C5.5 0 10.0938 0 12.7031 0
C15.5938 0 20.7031 0 23.4062 -0.203125
L23.4062 2.39062
C16.2031 2.39062 15 2.39062 15 6.875
z
" id="CMR17-114"/>
      <path d="
M29.4062 42.0781
L29.4062 39.5
C35.2969 39.5 36.2031 38.8906 36.2031 34.1562
L36.2031 16.125
C36.2031 7.8125 31.7031 0.59375 24.2969 0.59375
C16.0938 0.59375 15.4062 5.4375 15.4062 10.5938
L15.4062 43.1719
L3.29688 42.0781
L3.29688 39.5
C7.29688 39.5 10 39.5 10.0938 35.5312
L10.0938 16.5312
C10.0938 9.89062 10.0938 5.64062 12.7031 2.85938
C14 1.57812 16.5 -1 23.7031 -1
C32.2031 -1 35.5 6.35938 36.2969 8.5
L36.4062 8.5
L36.4062 -0.984375
L48.2969 -0.984375
L48.2969 2
C42.4062 2 41.5 2.59375 41.5 7.39062
L41.5 43.1719
z
" id="CMR17-117"/>
      <path d="
M15.5 61.0781
C15.5 63.2656 13.7031 65.1562 11.4062 65.1562
C9.20312 65.1562 7.29688 63.375 7.29688 61.0781
C7.29688 58.8906 9.09375 57 11.4062 57
C13.5938 57 15.5 58.7969 15.5 61.0781
M3.79688 42.2812
L3.79688 39.7031
C9.40625 39.7031 10.2031 39.0938 10.2031 34.3281
L10.2031 6.67188
C10.2031 2.875 9.79688 2.39062 3.40625 2.39062
L3.40625 -0.203125
C5.79688 0 10.0938 0 12.5938 0
C15 0 19.0938 0 21.4062 -0.203125
L21.4062 2.39062
C15.5 2.39062 15.2969 2.98438 15.2969 6.5625
L15.2969 43.375
z
" id="CMR17-105"/>
     </defs>
     <g transform="translate(84.88 138.22)scale(0.1 -0.1)">
      <use transform="scale(0.9962640099626402)" xlink:href="#CMR17-114"/>
      <use transform="translate(35.28076779946296 0.0)scale(0.9962640099626402)" xlink:href="#CMR17-101"/>
      <use transform="translate(75.7664282621809 0.0)scale(0.9962640099626402)" xlink:href="#CMR17-115"/>
      <use transform="translate(111.56776589741595 0.0)scale(0.9962640099626402)" xlink:href="#CMR17-105"/>
      <use transform="translate(136.43882437928085 0.0)scale(0.9962640099626402)" xlink:href="#CMR17-100"/>
      <use transform="translate(187.33419415959685 0.0)scale(0.9962640099626402)" xlink:href="#CMR17-117"/>
      <use transform="translate(238.22956393991285 0.0)scale(0.9962640099626402)" xlink:href="#CMR17-97"/>
      <use transform="translate(283.9200410569739 0.0)scale(0.9962640099626402)" xlink:href="#CMR17-108"/>
      <use transform="translate(308.79109953883875 0.0)scale(0.9962640099626402)" xlink:href="#CMR17-115"/>
     </g>
    </g>
   </g>
  </g>
  <g id="text_27">
   <!-- $f_\lambda \quad [\frac{\textrm{erg}}{\textrm{cm}^2 \, \textrm{s} \, \textrm{\AA}}]$ -->
   <defs>
    <path d="
M34.9062 35
C33 35 30.2031 35 30.2031 31.5156
C30.2031 28.7188 32.5 27.9219 33.7969 27.9219
C34.5 27.9219 37.4062 28.2344 37.4062 31.625
C37.4062 38.5469 30.5938 43.7969 22.9062 43.7969
C12.2969 43.7969 3.29688 34.0312 3.29688 21.2969
C3.29688 8.0625 12.7031 -1 22.9062 -1
C35.2969 -1 38.4062 10.5938 38.4062 11.6875
C38.4062 12.0938 38.2969 12.3906 37.5938 12.3906
C36.9062 12.3906 36.7969 12.2969 36.4062 10.9844
C33.7969 2.8125 28.0938 0.796875 23.7969 0.796875
C17.4062 0.796875 9.70312 6.67188 9.70312 21.3906
C9.70312 36.5312 17.0938 42 23 42
C26.9062 42 32.7031 40.2031 34.9062 35" id="CMR17-99"/>
    <path d="
M11.0938 18.1875
C13 16.6875 16.2969 15 20.2969 15
C28.2031 15 35 21.2031 35 29.5
C35 32.0938 34.2031 36.0938 31.2031 39.2031
C34 42.0625 38.0938 43 40.4062 43
C40.7969 43 41.4062 43 41.9062 42.7656
C41.5 42.6719 40.5938 42.2812 40.5938 40.7344
C40.5938 39.4844 41.5 38.6094 42.7969 38.6094
C44.2969 38.6094 45.0938 39.5781 45.0938 40.8438
C45.0938 42.6719 43.5938 44.5938 40.4062 44.5938
C36.4062 44.5938 32.9062 42.7812 30.0938 40.3125
C27.0938 43.0156 23.5 44 20.2969 44
C12.4062 44 5.59375 37.7969 5.59375 29.5
C5.59375 23.7812 8.90625 20.1875 9.90625 19.1875
C6.90625 15.6875 6.90625 11.6094 6.90625 11.1094
C6.90625 8.51562 7.90625 4.71875 11.2969 2.625
C6.09375 1.32812 2 -2.64062 2 -7.59375
C2 -14.7344 11.5 -20 22.9062 -20
C33.9062 -20 43.7969 -14.9375 43.7969 -7.48438
C43.7969 6 29 6 21.2969 6
C19 6 14.9062 6 14.4062 6.10938
C11.2969 6.60938 9.20312 9.40625 9.20312 12.8906
C9.20312 13.7812 9.20312 16 11.0938 18.1875
M20.2969 16.6875
C11.5 16.6875 11.5 27.5 11.5 29.5156
C11.5 31.5 11.5 42.3125 20.2969 42.3125
C29.0938 42.3125 29.0938 31.5 29.0938 29.5156
C29.0938 27.5 29.0938 16.6875 20.2969 16.6875
M22.9062 -18.2969
C12.9062 -18.2969 6 -13.0469 6 -7.59375
C6 -4.51562 7.70312 -1.64062 9.90625 -0.0625
C12.4062 1.625 13.4062 1.625 20.2031 1.625
C28.4062 1.625 39.7969 1.625 39.7969 -7.59375
C39.7969 -13.0469 32.9062 -18.2969 22.9062 -18.2969" id="CMR17-103"/>
    <path d="
M44.5938 40.0938
C46.5938 40.0938 47.4062 40.0938 47.4062 42
C47.4062 43 46.5938 43 44.7969 43
L36.7031 43
C38.5938 53.5781 40 60.8906 40.7969 64.1719
C41.4062 66.6406 43.5 69 46.0938 69
C48.2031 69 50.2969 68.0938 51.2969 67.1562
C47.4062 66.75 46.2031 63.7812 46.2031 62.0156
C46.2031 59.9531 47.7031 58.7344 49.5938 58.7344
C51.5938 58.7344 54.5938 60.4688 54.5938 64.3594
C54.5938 68.6406 50.4062 71 46 71
C41.7031 71 37.5 67.7188 35.5 63.7188
C33.7031 60.125 32.7031 56.4375 30.4062 43
L23.7031 43
C21.7969 43 20.7969 43 20.7969 41.2031
C20.7969 40.0938 21.4062 40.0938 23.4062 40.0938
L29.7969 40.0938
C28 30.875 23.9062 8.46875 21.5938 -2.14062
C19.9062 -10.7656 18.4062 -18 13.4062 -18
C13.0938 -18 10.2031 -18 8.40625 -16.1094
C13.5 -15.7031 13.5 -11.3438 13.5 -11.25
C13.5 -9.26562 12 -8.07812 10.0938 -8.07812
C8.09375 -8.07812 5.09375 -9.76562 5.09375 -13.5469
C5.09375 -17.8125 9.5 -20 13.4062 -20
C23.5938 -20 27.7969 -1.84375 28.9062 3.10938
C30.7031 10.75 35.5938 37.125 36.0938 40.0938
z
" id="CMMI12-102"/>
   </defs>
   <g transform="translate(21.7248536008 145.365986073)rotate(-90.0)scale(0.1 -0.1)">
    <use transform="translate(0.0 67.8745749581647)scale(0.9962640099626402)" xlink:href="#CMMI12-102"/>
    <use transform="translate(48.083237663449566 52.930660414072236)scale(0.6973817666173724)" xlink:href="#CMMI12-21"/>
    <use transform="translate(179.79508301389322 67.8745749581647)scale(0.9962640099626402)" xlink:href="#CMR17-91"/>
    <use transform="translate(279.56742112099164 118.13679050241284)scale(0.9962640099626402)" xlink:href="#CMR17-101"/>
    <use transform="translate(320.05308158370957 118.13679050241284)scale(0.9962640099626402)" xlink:href="#CMR17-114"/>
    <use transform="translate(355.3338493831725 118.13679050241284)scale(0.9962640099626402)" xlink:href="#CMR17-103"/>
    <use transform="translate(205.8616552673568 0.0)scale(0.9962640099626402)" xlink:href="#CMR17-99"/>
    <use transform="translate(246.34731573007474 0.0)scale(0.9962640099626402)" xlink:href="#CMR17-109"/>
    <use transform="translate(323.2669055981476 23.65500710227273)scale(0.4981320049813201)" xlink:href="#CMR17-50"/>
    <use transform="translate(358.2333005380215 0.0)scale(0.9962640099626402)" xlink:href="#CMR17-115"/>
    <use transform="translate(405.65766254961864 17.61874416251557)scale(0.9962640099626402)" xlink:href="#CMR17-23"/>
    <use transform="translate(405.65766254961864 0.0)scale(0.9962640099626402)" xlink:href="#CMR17-65"/>
    <use transform="translate(475.925606125467 67.8745749581647)scale(0.9962640099626402)" xlink:href="#CMR17-93"/>
    <path d="
M205.862 90.7887
L474.73 90.7887
L474.73 94.7737
L205.862 94.7737
L205.862 90.7887
z
"/>
   </g>
  </g>
 </g>
 <defs>
  <clipPath id="paefd87ad59">
   <rect height="97.02" width="183.96" x="47.88" y="122.22"/>
  </clipPath>
  <clipPath id="p26eec363fc">
   <rect height="97.02" width="183.96" x="47.88" y="25.2"/>
  </clipPath>
 </defs>
</svg>
