<?xml version="1.0" encoding="utf-8" standalone="no"?>
<!DOCTYPE svg PUBLIC "-//W3C//DTD SVG 1.1//EN"
  "http://www.w3.org/Graphics/SVG/1.1/DTD/svg11.dtd">
<!-- Created with matplotlib (http://matplotlib.org/) -->
<svg height="194pt" version="1.1" viewBox="0 0 468 194" width="468pt" xmlns="http://www.w3.org/2000/svg" xmlns:xlink="http://www.w3.org/1999/xlink">
 <defs>
  <style type="text/css">
*{stroke-linecap:butt;stroke-linejoin:round;}
  </style>
 </defs>
 <g id="figure_1">
  <g id="patch_1">
   <path d="
M0 194.4
L468 194.4
L468 0
L0 0
z
" style="fill:#ffffff;"/>
  </g>
  <g id="axes_1">
   <g id="patch_2">
    <path d="
M56.16 87.48
L444.6 87.48
L444.6 13.608
L56.16 13.608
z
" style="fill:#ffffff;"/>
   </g>
   <g id="line2d_1">
    <path clip-path="url(#p365837b872)" d="
M78.0858 22.9031
L78.6827 23.9328
L79.2796 29.7277
L79.8766 32.2434
L80.4735 30.2588
L81.0704 30.2095
L81.6673 33.6162
L82.2643 33.1553
L82.8612 29.3341
L83.4581 30.9343
L84.055 28.7641
L84.652 28.5379
L85.2489 31.1739
L85.8458 28.9639
L86.4416 30.1504
L87.0397 29.7187
L87.6355 30.4126
L88.2324 29.4203
L88.8293 29.8635
L89.4262 28.783
L90.0232 30.2957
L90.6201 33.1274
L91.217 30.4217
L91.8139 30.6782
L92.4098 30.6256
L93.0067 30.228
L93.6036 30.0724
L94.2005 31.6718
L94.7975 32.5332
L95.3944 30.9503
L95.9902 28.7074
L96.5871 32.2791
L97.781 30.6047
L98.3768 30.7619
L98.9737 31.7657
L99.5706 34.7892
L100.168 32.259
L100.764 25.7123
L101.36 25.1907
L101.957 29.213
L102.554 27.9802
L103.15 24.7134
L103.747 27.9133
L104.344 32.6748
L104.941 34.0472
L106.133 32.2361
L106.73 32.9493
L107.327 34.1994
L107.923 32.5677
L108.52 32.106
L109.117 29.7585
L109.713 30.7972
L110.906 34.0352
L112.099 27.6125
L112.696 28.714
L113.292 34.2585
L113.889 32.1474
L114.485 30.4578
L115.082 30.0224
L115.679 28.9295
L116.275 31.2585
L116.871 35.4216
L118.064 28.4279
L118.66 28.7444
L119.854 33.0117
L120.45 36.7948
L121.047 34.2778
L121.642 32.6875
L122.239 31.6791
L122.835 29.0571
L123.432 29.2676
L124.028 35.1417
L124.625 36.7246
L125.818 30.8538
L127.01 28.2724
L128.203 30.6261
L128.799 30.3946
L129.396 33.3597
L129.992 37.7871
L130.589 36.8182
L131.184 33.5145
L131.781 31.9796
L132.377 33.482
L132.974 31.8491
L133.57 32.3563
L134.166 32.5213
L134.763 32.2192
L135.358 30.9671
L135.955 30.2095
L136.551 30.562
L137.148 32.5545
L137.744 31.3225
L138.34 28.7981
L138.937 29.0723
L139.532 32.6875
L140.725 33.1233
L141.321 33.8161
L141.917 36.4899
L142.514 35.7782
L143.11 35.5188
L144.302 32.4216
L144.898 32.0822
L145.495 32.2159
L146.091 30.1295
L147.283 33.764
L147.879 31.4748
L148.475 31.0258
L149.071 33.9963
L149.668 32.5673
L150.264 29.9797
L150.86 30.8912
L151.455 32.5168
L152.052 32.3387
L153.244 33.9548
L153.84 35.7359
L155.033 30.8846
L155.628 34.4132
L156.225 35.5082
L156.821 33.8834
L157.417 33.3138
L158.013 34.4846
L158.609 34.3439
L159.801 28.3114
L160.397 28.9619
L160.993 30.1094
L161.589 32.1179
L162.186 32.2443
L162.781 30.3687
L163.377 30.1196
L163.973 31.2872
L164.57 33.3683
L165.166 34.4924
L165.762 34.9053
L166.357 36.4517
L166.953 36.755
L167.55 32.779
L168.146 31.7358
L168.742 33.519
L169.338 34.2618
L169.933 35.4585
L170.529 34.7099
L171.125 32.9124
L171.721 32.0304
L172.318 30.8251
L172.914 32.4129
L173.509 33.5317
L174.105 32.8508
L174.701 31.547
L175.297 32.6378
L175.893 31.8174
L176.489 32.0875
L177.085 33.3437
L178.277 34.7604
L178.873 31.0426
L179.469 31.3422
L180.065 34.925
L180.66 35.2209
L181.256 35.8402
L181.852 34.5191
L182.448 32.2943
L183.044 31.2265
L183.639 30.7246
L184.235 29.9949
L184.831 30.539
L185.428 30.7685
L186.023 31.217
L186.62 30.5698
L187.215 30.6429
L187.811 31.6377
L188.407 31.904
L189.003 34.0036
L189.599 34.9779
L190.195 33.601
L190.79 34.1403
L191.386 33.8641
L191.982 34.8634
L192.578 32.8541
L193.174 33.8301
L193.769 33.2559
L194.365 33.1098
L194.961 34.1009
L195.557 35.9383
L196.153 36.7357
L196.749 34.861
L197.344 34.5322
L197.94 36.8994
L198.536 40.5602
L199.132 39.0795
L199.728 35.6896
L200.323 34.7764
L200.919 34.611
L201.515 33.2555
L202.11 34.0927
L202.706 35.3732
L203.301 35.756
L203.897 36.4718
L204.493 34.7473
L205.089 35.3584
L205.685 34.0931
L206.28 33.5153
L206.876 34.6632
L207.472 34.7621
L208.068 34.1674
L208.664 34.3677
L209.855 34.2142
L210.451 35.9399
L211.046 39.8716
L211.642 38.454
L212.238 34.7785
L212.833 34.4518
L213.429 35.2418
L214.025 36.521
L214.621 36.6651
L215.215 34.9878
L215.811 34.2987
L216.407 34.2142
L217.003 34.3837
L217.599 34.3032
L218.195 33.4077
L218.79 35.4314
L219.386 34.1727
L219.982 34.2101
L220.577 35.5004
L221.173 35.2939
L221.768 34.7046
L222.364 35.3707
L222.96 36.6827
L223.556 34.9201
L224.152 36.5982
L225.342 38.3884
L225.938 38.7109
L226.534 38.4093
L227.13 39.8625
L227.725 45.6578
L228.32 57.0927
L228.916 65.5893
L229.512 58.3691
L230.108 47.1163
L230.703 44.814
L231.894 59.2297
L232.49 52.5997
L233.086 43.2504
L233.681 39.6926
L234.277 38.2217
L234.873 37.2093
L235.469 34.3098
L236.659 36.4303
L237.255 36.1131
L237.851 34.8088
L238.447 34.513
L239.041 35.184
L240.829 38.1528
L241.424 37.0361
L242.019 35.4232
L242.615 34.7247
L243.211 37.4818
L243.807 37.4317
L244.402 37.8643
L244.997 37.4231
L245.593 39.1131
L246.189 40.3525
L246.785 37.1305
L247.38 35.2131
L247.975 38.3416
L248.571 39.0475
L249.167 35.2964
L249.762 32.9551
L250.953 35.4203
L251.549 37.6583
L252.145 38.667
L252.74 40.5229
L253.335 39.6832
L253.931 39.0536
L254.527 38.1388
L255.123 37.9964
L255.718 36.5707
L256.313 36.2453
L257.504 37.3529
L258.1 37.5397
L258.696 38.7684
L259.291 37.9525
L259.886 38.0481
L260.482 38.944
L261.674 38.4245
L262.268 38.6338
L262.864 37.3919
L263.46 34.886
L264.65 38.5566
L265.246 37.9948
L266.438 35.6576
L267.033 36.4459
L267.628 35.8911
L268.224 37.3496
L268.82 37.499
L270.011 38.4618
L270.606 38.2468
L271.202 39.5198
L271.797 39.2875
L272.393 36.4632
L272.989 36.7111
L273.584 38.104
L274.179 38.1503
L275.371 38.8681
L275.965 37.3468
L276.561 36.977
L277.157 38.333
L277.753 39.0811
L278.943 36.7197
L280.134 38.6354
L280.73 38.5796
L281.326 37.1892
L281.921 37.98
L282.516 39.4657
L283.112 39.748
L283.708 39.4595
L284.302 38.2661
L284.898 36.4903
L285.494 38.1598
L286.09 40.7219
L286.685 39.9606
L287.28 38.7023
L288.471 39.6901
L289.067 41.3999
L290.258 48.7666
L290.853 46.6349
L291.449 49.0157
L292.045 52.1975
L292.639 48.5248
L293.235 43.9107
L293.831 44.5148
L294.427 49.0875
L295.021 52.0087
L296.808 41.1376
L297.404 39.3343
L297.999 40.1272
L298.595 41.2386
L299.19 40.639
L300.382 42.7148
L300.977 41.301
L301.572 41.2242
L302.168 43.0263
L302.764 41.9318
L303.358 41.1729
L303.954 42.6389
L304.55 42.1086
L305.146 39.931
L305.741 39.8637
L306.336 41.7417
L306.932 41.5673
L307.528 39.8387
L308.123 41.0367
L308.719 41.7249
L309.314 43.3173
L309.909 43.1736
L310.505 41.035
L311.101 42.3783
L311.697 44.658
L312.291 42.5502
L312.887 41.6002
L313.483 41.6338
L314.079 44.6047
L314.673 43.797
L315.269 43.7683
L315.865 44.8279
L316.461 42.1513
L317.056 43.1363
L317.651 41.768
L318.247 40.9214
L318.843 41.713
L320.034 41.466
L320.629 42.9327
L321.225 42.6951
L321.82 43.1026
L322.416 42.7608
L323.012 40.7605
L323.606 43.6583
L324.202 45.2983
L324.798 45.4678
L325.394 53.416
L325.988 66.0456
L326.584 66.3399
L327.18 61.2025
L327.776 59.8486
L328.371 57.8286
L328.966 58.3248
L329.562 58.5025
L330.158 55.1639
L330.754 53.8855
L331.349 54.6012
L331.944 53.9011
L332.54 52.3264
L333.136 51.8733
L333.731 54.7777
L334.326 54.1194
L334.922 51.1666
L335.518 50.2292
L336.113 50.8374
L336.709 52.2956
L337.304 51.256
L337.9 49.7298
L338.496 52.0292
L339.091 52.7901
L340.282 52.6596
L340.878 50.9745
L341.474 52.1893
L342.069 50.3667
L342.665 50.8255
L343.26 53.0515
L343.856 52.8862
L344.451 51.8495
L345.047 53.2149
L345.643 54.2425
L346.238 52.7421
L346.834 53.1377
L347.429 51.3127
L348.025 53.7061
L349.216 55.9732
L349.812 55.3116
L350.407 51.4559
L351.003 54.5762
L351.598 53.3286
L352.194 55.2447
L352.79 55.8427
L353.385 53.2477
L354.576 51.4814
L355.172 52.6399
L355.768 55.9818
L356.363 55.9042
L356.959 54.1457
L357.554 60.092
L358.15 71.094
L358.746 74.712
L359.342 69.4823
L359.937 66.1174
L360.532 64.9909
L361.128 65.9237
L361.724 65.5343
L362.916 61.3408
L363.511 59.7156
L364.107 60.8959
L364.702 64.1582
L365.894 59.1525
L366.489 63.4654
L367.085 64.4426
L367.681 61.807
L368.277 60.5409
L368.872 58.7393
L369.467 59.0536
L370.063 59.7234
L370.659 61.7467
L371.255 65.0689
L371.851 69.644
L372.446 72.2763
L373.042 65.9447
L373.638 64.4479
L374.233 64.386
L374.829 66.6867
L375.424 73.2834
L376.02 75.6416
L376.616 67.4184
L377.212 63.1224
L377.808 64.5341
L378.404 61.3088
L378.999 63.1478
L379.595 59.4411
L380.191 59.0475
L380.787 60.1593
L381.383 62.8482
L381.977 63.9403
L382.574 65.7403
L383.17 66.5623
L383.765 59.7173
L384.361 58.0194
L384.956 60.7412
L385.552 58.7955
L386.148 59.5424
L386.744 58.1848
L387.34 58.7118
L387.935 62.6902
L388.531 60.7621
L389.723 67.1898
L390.319 63.7363
L390.915 69.1807
L391.51 80.3649
L392.106 77.8122
L392.702 76.5502
L393.298 74.8766
L394.489 68.0361
L395.085 69.6658
L395.681 69.992
L396.277 66.6062
L396.873 67.6585
L397.469 67.6852
L398.064 71.1247
L398.66 71.38
L399.256 66.7507
L399.852 66.5656
L401.043 68.5712
L401.639 68.2589
L402.236 68.3192
L402.831 69.3555
L404.024 65.1973
L404.619 66.9194
L405.215 66.8845
L405.811 65.4013
L406.407 66.0469
L407.003 65.7001
L408.194 73.0565
L408.79 67.8616
L409.386 68.6135
L409.982 66.7294
L410.579 65.6057
L411.174 67.3031
L411.77 66.9112
L412.366 66.2656
L412.962 63.7888
L413.558 66.7306
L414.154 67.757
L414.749 67.3708
L415.346 67.924
L415.942 66.7527
L416.538 69.8377
L417.134 67.1361
L417.73 67.8719
L418.325 71.1933
L418.922 64.7832
L419.518 67.2912
L420.114 72.8139
L420.576 70.1045
L421.136 68.8889
L421.136 68.8889" style="fill:none;stroke:#0000ff;stroke-linecap:square;"/>
   </g>
   <g id="line2d_2">
    <path clip-path="url(#p365837b872)" d="
M78.0858 21.7741
L78.6827 21.8475
L79.2796 28.4299
L79.8766 32.6591
L80.4735 31.3157
L81.0704 31.3005
L81.6673 33.681
L82.2643 32.2296
L82.8612 29.8913
L83.4581 31.092
L84.055 28.3764
L84.652 29.2412
L85.2489 31.1716
L85.8458 28.315
L87.0397 28.5549
L87.6355 29.5664
L88.2324 29.597
L88.8293 28.8725
L89.4262 28.6121
L90.6201 32.7213
L91.217 29.7564
L91.8139 29.5737
L92.4098 30.6149
L93.0067 31.9796
L93.6036 31.2212
L94.2005 30.8981
L94.7975 32.9088
L95.3944 31.5966
L95.9902 29.2401
L96.5871 32.5667
L97.1841 32.0506
L97.781 30.438
L98.3768 31.6819
L99.5706 35.3076
L100.168 32.9079
L100.764 26.7589
L101.36 25.7793
L101.957 29.3386
L102.554 27.561
L103.15 25.1879
L103.747 30.3196
L104.344 34.1675
L104.941 33.1886
L105.537 31.4165
L106.133 31.4012
L106.73 33.6133
L107.327 34.2077
L108.52 33.3399
L109.117 30.7837
L109.713 30.0089
L110.31 33.1654
L110.906 34.4475
L111.502 32.1026
L112.099 29.0388
L112.696 29.6416
L113.292 32.8451
L113.889 32.2249
L115.082 29.7858
L115.679 29.1526
L116.871 34.5263
L118.064 29.3047
L118.66 28.7763
L120.45 35.9651
L121.047 34.5754
L121.642 31.7218
L122.835 28.3662
L123.432 30.314
L124.028 35.4847
L124.625 36.1602
L126.413 29.6155
L127.01 29.0713
L127.607 29.7864
L128.203 30.9592
L128.799 30.8657
L129.396 33.8559
L129.992 37.873
L130.589 36.5116
L131.184 32.5874
L131.781 30.8578
L132.377 32.1732
L133.57 31.821
L134.763 31.7042
L135.358 31.559
L135.955 31.196
L136.551 31.2997
L137.148 32.6727
L137.744 31.604
L138.34 29.0194
L138.937 28.9811
L139.532 32.7978
L140.129 34.6649
L140.725 34.3989
L141.321 34.4013
L141.917 35.9895
L142.514 36.1166
L143.11 35.5268
L143.706 33.7761
L144.898 32.223
L145.495 31.6086
L146.091 30.2159
L146.687 31.5949
L147.283 32.5158
L147.879 30.5863
L148.475 31.3727
L149.071 33.741
L149.668 32.8163
L150.264 30.7764
L150.86 30.8565
L151.455 32.0203
L152.052 32.796
L153.244 34.0263
L153.84 34.7994
L154.437 33.3883
L155.033 32.7271
L155.628 35.6387
L156.225 36.2001
L156.821 33.9278
L157.417 32.8768
L158.013 34.4539
L158.609 34.1859
L159.205 31.0303
L159.801 28.5715
L160.397 29.1526
L160.993 30.2273
L161.589 31.6847
L162.186 32.0992
L162.781 30.9279
L163.377 30.3978
L163.973 31.2438
L164.57 33.2597
L165.166 34.3645
L165.762 34.8939
L166.357 36.2043
L166.953 36.4672
L167.55 33.3772
L168.146 31.8575
L168.742 33.312
L169.933 35.1984
L171.721 31.7751
L172.318 31.3481
L172.914 32.6935
L173.509 33.6362
L174.105 32.5593
L174.701 31.8892
L175.297 32.6473
L175.893 32.6298
L176.489 32.1505
L177.681 34.0239
L178.277 33.497
L178.873 30.8573
L179.469 31.0763
L180.065 33.3206
L180.66 34.2613
L181.256 34.6477
L181.852 33.1044
L182.448 32.0758
L183.044 31.5177
L183.639 32.3289
L184.235 33.5829
L184.831 33.3339
L186.023 32.2933
L187.215 30.8719
L187.811 30.5569
L188.407 31.3698
L189.003 33.4482
L189.599 34.8687
L190.195 34.2832
L190.79 33.9557
L191.386 34.2864
L191.982 34.2624
L192.578 33.5293
L193.174 33.3466
L193.769 32.9764
L194.365 33.1799
L194.961 34.678
L195.557 35.6693
L196.153 35.1628
L196.749 34.0228
L197.344 33.9998
L197.94 35.436
L198.536 37.5289
L199.132 36.7138
L199.728 34.6871
L200.919 34.2483
L201.515 33.2595
L202.11 34.0709
L202.706 35.6259
L203.301 35.5256
L203.897 35.3115
L204.493 34.8755
L205.685 33.2749
L206.28 33.5502
L206.876 34.3022
L207.472 33.7162
L208.068 33.9663
L208.664 34.432
L209.855 34.3579
L210.451 35.4975
L211.046 37.0634
L211.642 36.2871
L212.238 34.1905
L212.833 33.9516
L213.429 34.3378
L214.025 35.4435
L214.621 35.8024
L215.215 35.0213
L215.811 34.9685
L217.003 34.2545
L217.599 34.1228
L218.195 34.1368
L218.79 35.2986
L219.386 35.0785
L219.982 33.7626
L220.577 34.2629
L221.173 35.1136
L221.768 34.5877
L222.364 34.501
L224.746 36.8686
L225.938 38.5521
L226.534 38.589
L227.13 39.779
L227.725 43.8313
L228.916 59.4461
L229.512 54.8992
L230.108 46.1836
L230.703 43.6633
L231.299 48.7217
L231.894 55.3032
L232.49 51.2328
L233.086 43.2032
L233.681 39.7983
L234.277 38.5933
L235.469 35.3125
L236.063 35.6127
L236.659 36.2407
L237.851 35.0007
L239.041 35.5689
L239.637 36.1349
L241.424 36.3712
L242.019 35.208
L242.615 34.965
L243.211 36.642
L243.807 37.4778
L244.402 37.5885
L244.997 37.9371
L245.593 38.9981
L246.189 38.6952
L246.785 36.4484
L247.38 35.876
L247.975 37.2808
L248.571 37.2667
L249.167 35.0796
L249.762 34.0649
L250.358 34.3512
L250.953 35.6031
L251.549 37.2245
L252.145 38.1966
L252.74 39.5061
L253.335 40.4264
L253.931 40.4503
L255.123 38.3295
L255.718 37.714
L256.313 36.481
L258.1 36.686
L258.696 38.0571
L259.291 38.6564
L259.886 38.3981
L260.482 38.6977
L261.078 38.7922
L262.268 38.5131
L262.864 37.3193
L263.46 36.4175
L264.056 36.9051
L264.65 37.6888
L265.246 37.7556
L265.842 36.7081
L266.438 36.5156
L267.033 36.4914
L267.628 36.6114
L268.224 37.9475
L268.82 38.628
L270.011 38.8156
L270.606 38.4137
L271.797 38.4405
L272.393 37.2063
L272.989 37.0958
L273.584 38.1272
L274.775 38.1942
L275.371 38.4072
L276.561 37.1003
L277.753 39.6276
L278.348 38.7708
L278.943 37.717
L280.134 38.7165
L281.326 38.3743
L281.921 38.9633
L282.516 40.7411
L283.112 41.6665
L284.302 38.6265
L284.898 37.9318
L285.494 38.8847
L286.09 40.6935
L286.685 40.5217
L287.28 39.7164
L287.876 39.6474
L288.471 39.7861
L289.067 40.4294
L290.258 42.1831
L290.853 42.3407
L291.449 43.1871
L292.045 44.4413
L293.235 42.4305
L293.831 42.7066
L295.021 43.6588
L295.617 42.8252
L296.213 41.4461
L296.808 40.3623
L297.404 39.782
L297.999 40.0403
L298.595 40.5146
L299.19 40.7231
L299.786 41.9861
L300.382 42.5704
L300.977 41.7624
L301.572 41.6277
L302.168 41.9453
L303.358 40.8897
L303.954 41.4411
L304.55 42.2146
L305.741 40.0175
L306.336 40.4787
L306.932 40.5469
L307.528 40.3559
L308.123 40.7422
L308.719 41.3687
L309.314 42.6149
L309.909 43.1057
L310.505 42.8244
L311.101 43.8468
L311.697 44.2945
L312.291 42.4834
L312.887 41.9564
L313.483 43.739
L314.079 45.0281
L314.673 44.4474
L315.269 44.4143
L315.865 44.5969
L316.461 43.0909
L317.056 42.2332
L318.247 41.5505
L318.843 41.729
L320.034 41.9362
L320.629 42.9793
L321.225 43.2277
L321.82 42.07
L322.416 41.6386
L323.012 42.5327
L323.606 44.4513
L324.202 44.9499
L324.798 45.8129
L325.394 53.3253
L325.988 64.3358
L326.584 66.5125
L327.776 60.0727
L328.371 58.532
L328.966 58.5914
L329.562 57.7921
L330.158 55.6991
L330.754 54.655
L331.349 54.3055
L331.944 53.6305
L332.54 52.2612
L333.136 51.9362
L333.731 53.1096
L334.326 53.66
L334.922 52.0807
L335.518 50.8185
L336.113 51.9578
L336.709 52.8273
L337.304 52.2224
L337.9 51.8533
L338.496 52.9666
L339.091 53.3602
L340.282 52.0003
L340.878 51.8355
L341.474 52.0114
L342.069 51.1075
L342.665 51.1137
L343.26 52.3646
L343.856 53.0637
L344.451 53.1949
L345.047 53.788
L345.643 54.0019
L346.238 52.5796
L346.834 52.3891
L347.429 51.7364
L348.025 52.8858
L348.62 54.8768
L349.216 56.1705
L349.812 55.267
L350.407 52.7302
L351.003 53.7563
L351.598 53.5464
L352.194 53.7681
L352.79 54.2412
L353.385 51.9095
L353.981 51.5505
L355.172 52.567
L355.768 55.4731
L356.363 55.7272
L356.959 54.7705
L357.554 60.0009
L358.15 69.5332
L358.746 73.5879
L359.937 66.9157
L361.128 65.8497
L362.32 63.1729
L362.916 61.0011
L363.511 59.8824
L364.702 62.7071
L365.298 61.3439
L365.894 60.8253
L366.489 63.4329
L367.085 64.056
L367.681 62.1059
L368.277 61.0009
L368.872 59.1551
L369.467 58.3872
L370.063 59.7305
L370.659 61.9645
L371.255 64.7172
L371.851 68.5989
L372.446 70.5386
L373.042 67.3491
L373.638 65.4427
L374.233 65.3292
L374.829 67.2126
L375.424 72.1113
L376.02 73.4689
L377.212 64.5744
L377.808 63.4338
L378.404 62.7994
L378.999 62.8065
L379.595 59.7088
L380.191 57.938
L380.787 59.5585
L381.977 64.5196
L382.574 65.7095
L383.17 64.7772
L383.765 60.5215
L384.361 58.3708
L384.956 59.9915
L385.552 60.2417
L386.148 59.7082
L386.744 58.9932
L387.34 59.4865
L387.935 62.2206
L388.531 62.2398
L389.127 62.7905
L389.723 66.0342
L390.319 67.4754
L390.915 71.3205
L391.51 77.6155
L392.106 77.2969
L392.702 75.7341
L393.298 74.7741
L393.894 71.4254
L394.489 69.5123
L395.085 70.5239
L395.681 69.9284
L396.277 68.2131
L396.873 68.2139
L397.469 69.1515
L398.064 70.8781
L398.66 70.7174
L399.256 68.1917
L399.852 67.0567
L400.448 68.6931
L401.043 69.8408
L401.639 68.6493
L402.236 68.0231
L402.831 69.1766
L403.428 68.6613
L404.024 66.3073
L404.619 65.4356
L405.215 65.6093
L405.811 65.5749
L406.407 65.9816
L407.003 67.356
L407.598 69.3953
L408.194 70.602
L408.79 68.8166
L409.386 68.0126
L409.982 66.9387
L410.579 66.6424
L411.174 66.8176
L411.77 66.1028
L412.366 64.9072
L412.962 64.4943
L413.558 65.7001
L414.154 65.946
L415.346 67.3576
L415.942 67.2839
L416.538 68.144
L417.134 68.5983
L417.73 69.4557
L418.325 69.5395
L418.922 66.8463
L419.518 67.5462
L420.114 70.2961
L420.576 71.077
L421.136 70.4087
L421.136 70.4087" style="fill:none;stroke:#ff0000;stroke-linecap:square;"/>
   </g>
   <g id="matplotlib.axis_1">
    <g id="xtick_1">
     <g id="line2d_3">
      <defs>
       <path d="
M0 0
L0 -4" id="mc7db9fdffb" style="stroke:#000000;stroke-width:0.5;"/>
      </defs>
      <g>
       <use style="stroke:#000000;stroke-width:0.5;" x="56.16" xlink:href="#mc7db9fdffb" y="87.48"/>
      </g>
     </g>
     <g id="line2d_4">
      <defs>
       <path d="
M0 0
L0 4" id="m5a7d422ac3" style="stroke:#000000;stroke-width:0.5;"/>
      </defs>
      <g>
       <use style="stroke:#000000;stroke-width:0.5;" x="56.16" xlink:href="#m5a7d422ac3" y="13.608"/>
      </g>
     </g>
    </g>
    <g id="xtick_2">
     <g id="line2d_5">
      <g>
       <use style="stroke:#000000;stroke-width:0.5;" x="111.651428571" xlink:href="#mc7db9fdffb" y="87.48"/>
      </g>
     </g>
     <g id="line2d_6">
      <g>
       <use style="stroke:#000000;stroke-width:0.5;" x="111.651428571" xlink:href="#m5a7d422ac3" y="13.608"/>
      </g>
     </g>
    </g>
    <g id="xtick_3">
     <g id="line2d_7">
      <g>
       <use style="stroke:#000000;stroke-width:0.5;" x="167.142857143" xlink:href="#mc7db9fdffb" y="87.48"/>
      </g>
     </g>
     <g id="line2d_8">
      <g>
       <use style="stroke:#000000;stroke-width:0.5;" x="167.142857143" xlink:href="#m5a7d422ac3" y="13.608"/>
      </g>
     </g>
    </g>
    <g id="xtick_4">
     <g id="line2d_9">
      <g>
       <use style="stroke:#000000;stroke-width:0.5;" x="222.634285714" xlink:href="#mc7db9fdffb" y="87.48"/>
      </g>
     </g>
     <g id="line2d_10">
      <g>
       <use style="stroke:#000000;stroke-width:0.5;" x="222.634285714" xlink:href="#m5a7d422ac3" y="13.608"/>
      </g>
     </g>
    </g>
    <g id="xtick_5">
     <g id="line2d_11">
      <g>
       <use style="stroke:#000000;stroke-width:0.5;" x="278.125714286" xlink:href="#mc7db9fdffb" y="87.48"/>
      </g>
     </g>
     <g id="line2d_12">
      <g>
       <use style="stroke:#000000;stroke-width:0.5;" x="278.125714286" xlink:href="#m5a7d422ac3" y="13.608"/>
      </g>
     </g>
    </g>
    <g id="xtick_6">
     <g id="line2d_13">
      <g>
       <use style="stroke:#000000;stroke-width:0.5;" x="333.617142857" xlink:href="#mc7db9fdffb" y="87.48"/>
      </g>
     </g>
     <g id="line2d_14">
      <g>
       <use style="stroke:#000000;stroke-width:0.5;" x="333.617142857" xlink:href="#m5a7d422ac3" y="13.608"/>
      </g>
     </g>
    </g>
    <g id="xtick_7">
     <g id="line2d_15">
      <g>
       <use style="stroke:#000000;stroke-width:0.5;" x="389.108571429" xlink:href="#mc7db9fdffb" y="87.48"/>
      </g>
     </g>
     <g id="line2d_16">
      <g>
       <use style="stroke:#000000;stroke-width:0.5;" x="389.108571429" xlink:href="#m5a7d422ac3" y="13.608"/>
      </g>
     </g>
    </g>
    <g id="xtick_8">
     <g id="line2d_17">
      <g>
       <use style="stroke:#000000;stroke-width:0.5;" x="444.6" xlink:href="#mc7db9fdffb" y="87.48"/>
      </g>
     </g>
     <g id="line2d_18">
      <g>
       <use style="stroke:#000000;stroke-width:0.5;" x="444.6" xlink:href="#m5a7d422ac3" y="13.608"/>
      </g>
     </g>
    </g>
   </g>
   <g id="matplotlib.axis_2">
    <g id="ytick_1">
     <g id="line2d_19">
      <defs>
       <path d="
M0 0
L4 0" id="md7965d1ba0" style="stroke:#000000;stroke-width:0.5;"/>
      </defs>
      <g>
       <use style="stroke:#000000;stroke-width:0.5;" x="56.16" xlink:href="#md7965d1ba0" y="79.272"/>
      </g>
     </g>
     <g id="line2d_20">
      <defs>
       <path d="
M0 0
L-4 0" id="md9a1c1a7cd" style="stroke:#000000;stroke-width:0.5;"/>
      </defs>
      <g>
       <use style="stroke:#000000;stroke-width:0.5;" x="444.6" xlink:href="#md9a1c1a7cd" y="79.272"/>
      </g>
     </g>
     <g id="text_1">
      <!-- $2.4$ -->
      <defs>
       <path d="
M33.5938 64.3281
C33.5938 66.4062 33.5 66.5 31.7031 66.5
L2 19.5938
L2 17
L27.7969 17
L27.7969 7.14062
C27.7969 3.5 27.5938 2.5 20.5938 2.5
L18.7031 2.5
L18.7031 0
C21.9062 0 27.2969 0 30.7031 0
C34.0938 0 39.5 0 42.7031 0
L42.7031 2.5
L40.7969 2.5
C33.7969 2.5 33.5938 3.5 33.5938 7.14062
L33.5938 17
L43.7969 17
L43.7969 19.5938
L33.5938 19.5938
z

M28.0938 57.7656
L28.0938 19.5938
L4 19.5938
z
" id="CMR17-52"/>
       <path d="
M18.4062 4.79688
C18.4062 7.6875 16 9.67188 13.5938 9.67188
C10.7031 9.67188 8.70312 7.28125 8.70312 4.89062
C8.70312 2 11.0938 0 13.5 0
C16.4062 0 18.4062 2.39062 18.4062 4.79688" id="CMMI12-58"/>
       <path d="
M41.7031 15.4531
L39.9062 15.4531
C38.9062 8.375 38.0938 7.17188 37.7031 6.5625
C37.2031 5.76562 30 5.76562 28.5938 5.76562
L9.40625 5.76562
C13 9.67188 20 16.75 28.5 24.9531
C34.5938 30.7344 41.7031 37.5312 41.7031 47.4219
C41.7031 59.2188 32.2969 66 21.7969 66
C10.7969 66 4.09375 56.3125 4.09375 47.3438
C4.09375 43.4375 7 42.9375 8.20312 42.9375
C9.20312 42.9375 12.2031 43.5469 12.2031 47.0312
C12.2031 50.1094 9.59375 51 8.20312 51
C7.59375 51 7 50.9062 6.59375 50.7031
C8.5 59.2188 14.2969 63.4062 20.4062 63.4062
C29.0938 63.4062 34.7969 56.5156 34.7969 47.4219
C34.7969 38.7344 29.7031 31.25 24 24.75
L4.09375 2.28125
L4.09375 0
L39.2969 0
z
" id="CMR17-50"/>
      </defs>
      <g transform="translate(39.4299210237 81.7626600249)scale(0.1 -0.1)">
       <use transform="scale(0.9962640099626402)" xlink:href="#CMR17-50"/>
       <use transform="translate(45.69047711706103 0.0)scale(0.9962640099626402)" xlink:href="#CMMI12-58"/>
       <use transform="translate(72.78765420688046 0.0)scale(0.9962640099626402)" xlink:href="#CMR17-52"/>
      </g>
     </g>
    </g>
    <g id="ytick_2">
     <g id="line2d_21">
      <g>
       <use style="stroke:#000000;stroke-width:0.5;" x="56.16" xlink:href="#md7965d1ba0" y="66.96"/>
      </g>
     </g>
     <g id="line2d_22">
      <g>
       <use style="stroke:#000000;stroke-width:0.5;" x="444.6" xlink:href="#md9a1c1a7cd" y="66.96"/>
      </g>
     </g>
     <g id="text_2">
      <!-- $2.7$ -->
      <defs>
       <path d="
M45.0938 61.5781
L45.0938 63.7656
L21.5938 63.7656
C9.90625 63.7656 9.70312 65.0781 9.29688 67
L7.5 67
L4.59375 48.3438
L6.40625 48.3438
C6.70312 50.2344 7.40625 55.3125 8.59375 57.2031
C9.20312 58 16.5938 58 18.2969 58
L40.2969 58
L29.2031 41.5781
C21.7969 30.5312 16.7031 15.6094 16.7031 2.57812
C16.7031 1.39062 16.7031 -2 20.2969 -2
C23.9062 -2 23.9062 1.39062 23.9062 2.67188
L23.9062 7.26562
C23.9062 23.5625 26.7031 34.3125 31.2969 41.1875
z
" id="CMR17-55"/>
      </defs>
      <g transform="translate(39.4299210237 69.4506600249)scale(0.1 -0.1)">
       <use transform="scale(0.9962640099626402)" xlink:href="#CMR17-50"/>
       <use transform="translate(45.69047711706103 0.0)scale(0.9962640099626402)" xlink:href="#CMMI12-58"/>
       <use transform="translate(72.78765420688046 0.0)scale(0.9962640099626402)" xlink:href="#CMR17-55"/>
      </g>
     </g>
    </g>
    <g id="ytick_3">
     <g id="line2d_23">
      <g>
       <use style="stroke:#000000;stroke-width:0.5;" x="56.16" xlink:href="#md7965d1ba0" y="54.648"/>
      </g>
     </g>
     <g id="line2d_24">
      <g>
       <use style="stroke:#000000;stroke-width:0.5;" x="444.6" xlink:href="#md9a1c1a7cd" y="54.648"/>
      </g>
     </g>
     <g id="text_3">
      <!-- $3.0$ -->
      <defs>
       <path d="
M42 31.6406
C42 37.75 41.9062 48.125 37.7031 56.1094
C34 63.1094 28.0938 65.5938 22.9062 65.5938
C18.0938 65.5938 12 63.4062 8.20312 56.2031
C4.20312 48.7188 3.79688 39.4375 3.79688 31.6406
C3.79688 25.9531 3.90625 17.2812 7 9.67188
C11.2969 -0.609375 19 -2 22.9062 -2
C27.5 -2 34.5 -0.109375 38.5938 9.375
C41.5938 16.2812 42 24.3594 42 31.6406
M22.9062 -0.40625
C16.5 -0.40625 12.7031 5.07812 11.2969 12.6875
C10.2031 18.5625 10.2031 27.1562 10.2031 32.75
C10.2031 40.4375 10.2031 46.8281 11.5 52.9219
C13.4062 61.3906 19 64 22.9062 64
C27 64 32.2969 61.2969 34.2031 53.125
C35.5 47.4375 35.5938 40.7344 35.5938 32.75
C35.5938 26.25 35.5938 18.2656 34.4062 12.375
C32.2969 1.48438 26.4062 -0.40625 22.9062 -0.40625" id="CMR17-48"/>
       <path d="
M22.0938 33.7031
C31 33.7031 34.9062 25.9688 34.9062 17.0312
C34.9062 5 28.5 0.390625 22.7031 0.390625
C17.4062 0.390625 8.79688 3.03125 6.09375 10.8281
C6.59375 10.625 7.09375 10.625 7.59375 10.625
C10 10.625 11.7969 12.2188 11.7969 14.8125
C11.7969 17.7031 9.59375 19 7.59375 19
C5.90625 19 3.29688 18.2031 3.29688 14.4688
C3.29688 5.23438 12.2969 -2 22.9062 -2
C34 -2 42.5 6.71875 42.5 16.9531
C42.5 26.6719 34.5 33.6875 25 34.7969
C32.5938 36.375 39.9062 43.0625 39.9062 52.0156
C39.9062 59.6875 32 65.2969 23 65.2969
C13.9062 65.2969 5.90625 59.8281 5.90625 52.0156
C5.90625 48.5938 8.5 48 9.79688 48
C11.9062 48 13.7031 49.2969 13.7031 51.8906
C13.7031 54.4688 11.9062 55.7656 9.79688 55.7656
C9.40625 55.7656 8.90625 55.7656 8.5 55.5625
C11.4062 61.8594 19.2969 63 22.7969 63
C26.2969 63 32.9062 61.3281 32.9062 51.875
C32.9062 49.1094 32.5 44.1875 29.0938 39.8438
C26.0938 36 22.7031 36 19.4062 35.5938
C18.9062 35.5938 16.5938 35.5938 16.2031 35.5938
C15.5 35.4844 15.0938 35.3906 15.0938 34.5938
C15.0938 33.8125 15.2031 33.7031 17.2031 33.7031
z
" id="CMR17-51"/>
      </defs>
      <g transform="translate(39.4299210237 57.1386600249)scale(0.1 -0.1)">
       <use transform="scale(0.9962640099626402)" xlink:href="#CMR17-51"/>
       <use transform="translate(45.69047711706103 0.0)scale(0.9962640099626402)" xlink:href="#CMMI12-58"/>
       <use transform="translate(72.78765420688046 0.0)scale(0.9962640099626402)" xlink:href="#CMR17-48"/>
      </g>
     </g>
    </g>
    <g id="ytick_4">
     <g id="line2d_25">
      <g>
       <use style="stroke:#000000;stroke-width:0.5;" x="56.16" xlink:href="#md7965d1ba0" y="42.336"/>
      </g>
     </g>
     <g id="line2d_26">
      <g>
       <use style="stroke:#000000;stroke-width:0.5;" x="444.6" xlink:href="#md9a1c1a7cd" y="42.336"/>
      </g>
     </g>
     <g id="text_4">
      <!-- $3.3$ -->
      <g transform="translate(39.4299210237 44.8266600249)scale(0.1 -0.1)">
       <use transform="scale(0.9962640099626402)" xlink:href="#CMR17-51"/>
       <use transform="translate(45.69047711706103 0.0)scale(0.9962640099626402)" xlink:href="#CMMI12-58"/>
       <use transform="translate(72.78765420688046 0.0)scale(0.9962640099626402)" xlink:href="#CMR17-51"/>
      </g>
     </g>
    </g>
    <g id="ytick_5">
     <g id="line2d_27">
      <g>
       <use style="stroke:#000000;stroke-width:0.5;" x="56.16" xlink:href="#md7965d1ba0" y="30.024"/>
      </g>
     </g>
     <g id="line2d_28">
      <g>
       <use style="stroke:#000000;stroke-width:0.5;" x="444.6" xlink:href="#md9a1c1a7cd" y="30.024"/>
      </g>
     </g>
     <g id="text_5">
      <!-- $3.6$ -->
      <defs>
       <path d="
M10.5938 34
C10.5938 57.6562 21.7969 63 28.2969 63
C30.4062 63 35.5 62.6406 37.5 59
C35.9062 59 32.9062 59 32.9062 55.5156
C32.9062 52.8281 35.0938 51.9219 36.5 51.9219
C37.4062 51.9219 40.0938 52.3125 40.0938 55.625
C40.0938 61.7812 35.0938 65.2969 28.2031 65.2969
C16.2969 65.2969 3.79688 52.9688 3.79688 31
C3.79688 3.95312 15.0938 -2 23.0938 -2
C32.7969 -2 42 6.67188 42 20.0469
C42 32.5156 33.9062 41.5938 23.7031 41.5938
C17.5938 41.5938 13.0938 37.6094 10.5938 30.625
z

M23.0938 0.390625
C10.7969 0.390625 10.7969 18.75 10.7969 22.4375
C10.7969 29.625 14.2031 40 23.5 40
C25.2031 40 30.0938 40 33.4062 33.125
C35.2031 29.2188 35.2031 25.1406 35.2031 20.1406
C35.2031 14.75 35.2031 10.7812 33.0938 6.78125
C30.9062 2.67188 27.7031 0.390625 23.0938 0.390625" id="CMR17-54"/>
      </defs>
      <g transform="translate(39.4299210237 32.5146600249)scale(0.1 -0.1)">
       <use transform="scale(0.9962640099626402)" xlink:href="#CMR17-51"/>
       <use transform="translate(45.69047711706103 0.0)scale(0.9962640099626402)" xlink:href="#CMMI12-58"/>
       <use transform="translate(72.78765420688046 0.0)scale(0.9962640099626402)" xlink:href="#CMR17-54"/>
      </g>
     </g>
    </g>
    <g id="ytick_6">
     <g id="line2d_29">
      <g>
       <use style="stroke:#000000;stroke-width:0.5;" x="56.16" xlink:href="#md7965d1ba0" y="17.712"/>
      </g>
     </g>
     <g id="line2d_30">
      <g>
       <use style="stroke:#000000;stroke-width:0.5;" x="444.6" xlink:href="#md9a1c1a7cd" y="17.712"/>
      </g>
     </g>
     <g id="text_6">
      <!-- $3.9$ -->
      <defs>
       <path d="
M35.2031 29.125
C35.2031 7.25 26.0938 0.484375 18.5938 0.484375
C16.2969 0.484375 10.7031 0.484375 8.40625 4.59375
C11 4.1875 12.9062 5.57812 12.9062 8.09375
C12.9062 10.8125 10.7031 11.7031 9.29688 11.7031
C8.40625 11.7031 5.70312 11.2969 5.70312 7.90625
C5.70312 1.10938 11.5938 -2 18.7969 -2
C30.2969 -2 42 10.5312 42 32.3906
C42 59.6406 30.7969 65.2969 23.2031 65.2969
C13.2969 65.2969 3.79688 56.6875 3.79688 43.4062
C3.79688 31.1094 11.9062 22 22.0938 22
C30.5 22 34.2031 29.7344 35.2031 33
z

M22.2969 23.5938
C19.5938 23.5938 15.7969 24.0938 12.7031 30.0312
C10.5938 33.8906 10.5938 38.4531 10.5938 43.2969
C10.5938 49.1562 10.5938 53.2031 13.4062 57.5625
C14.7969 59.6406 17.4062 63 23.2031 63
C35 63 35 45.0781 35 41.125
C35 34.0938 31.7969 23.5938 22.2969 23.5938" id="CMR17-57"/>
      </defs>
      <g transform="translate(39.4299210237 20.2026600249)scale(0.1 -0.1)">
       <use transform="scale(0.9962640099626402)" xlink:href="#CMR17-51"/>
       <use transform="translate(45.69047711706103 0.0)scale(0.9962640099626402)" xlink:href="#CMMI12-58"/>
       <use transform="translate(72.78765420688046 0.0)scale(0.9962640099626402)" xlink:href="#CMR17-57"/>
      </g>
     </g>
    </g>
    <g id="text_7">
     <!-- $\times10^{-14}$ -->
     <defs>
      <path d="
M38.9062 27.8906
L18.9062 47.7969
C17.7031 49 17.5 49.1875 16.7031 49.1875
C15.7031 49.1875 14.7031 48.2969 14.7031 47.1875
C14.7031 46.5 14.9062 46.2969 16 45.1875
L36 25.0938
L16 5
C14.9062 3.89062 14.7031 3.6875 14.7031 3
C14.7031 1.89062 15.7031 1 16.7031 1
C17.5 1 17.7031 1.1875 18.9062 2.39062
L38.7969 22.2969
L59.5 1.59375
C59.7031 1.5 60.4062 1 61 1
C62.2031 1 63 1.89062 63 3
C63 3.1875 63 3.59375 62.7031 4.09375
C62.5938 4.29688 46.7031 20 41.7031 25.0938
L60 43.3906
C60.5 44 62 45.2969 62.5 45.8906
C62.5938 46.0938 63 46.5 63 47.1875
C63 48.2969 62.2031 49.1875 61 49.1875
C60.2031 49.1875 59.7969 48.7969 58.7031 47.6875
z
" id="CMSY10-2"/>
      <path d="
M65.9062 23
C67.5938 23 69.4062 23 69.4062 25
C69.4062 27 67.5938 27 65.9062 27
L11.7969 27
C10.0938 27 8.29688 27 8.29688 25
C8.29688 23 10.0938 23 11.7969 23
z
" id="CMSY10-0"/>
      <path d="
M26.5938 63.3125
C26.5938 65.4062 26.5 65.5 25.0938 65.5
C21.2031 61.1875 15.2969 59.7969 9.70312 59.7969
C9.40625 59.7969 8.90625 59.7969 8.79688 59.6094
C8.70312 59.3906 8.70312 59.1719 8.70312 57
C11.7969 57 17 57.5938 21 59.9844
L21 7.20312
C21 3.6875 20.7969 2.5 12.2031 2.5
L9.20312 2.5
L9.20312 0
C14 0 19 0 23.7969 0
C28.5938 0 33.5938 0 38.4062 0
L38.4062 2.5
L35.4062 2.5
C26.7969 2.5 26.5938 3.59375 26.5938 7.15625
z
" id="CMR17-49"/>
     </defs>
     <g transform="translate(56.16 10.608)scale(0.1 -0.1)">
      <use transform="scale(0.9962640099626402)" xlink:href="#CMSY10-2"/>
      <use transform="translate(77.4874676506071 0.0)scale(0.9962640099626402)" xlink:href="#CMR17-49"/>
      <use transform="translate(123.17794476766814 0.0)scale(0.9962640099626402)" xlink:href="#CMR17-48"/>
      <use transform="translate(168.86842188472914 36.15363894185866)scale(0.6973817666173724)" xlink:href="#CMSY10-0"/>
      <use transform="translate(223.1094151327055 36.15363894185866)scale(0.6973817666173724)" xlink:href="#CMR17-49"/>
      <use transform="translate(255.09259709682442 36.15363894185866)scale(0.6973817666173724)" xlink:href="#CMR17-52"/>
     </g>
    </g>
   </g>
   <g id="patch_3">
    <path d="
M56.16 13.608
L444.6 13.608" style="fill:none;stroke:#000000;"/>
   </g>
   <g id="patch_4">
    <path d="
M56.16 87.48
L444.6 87.48" style="fill:none;stroke:#000000;"/>
   </g>
   <g id="patch_5">
    <path d="
M56.16 87.48
L56.16 13.608" style="fill:none;stroke:#000000;"/>
   </g>
   <g id="patch_6">
    <path d="
M444.6 87.48
L444.6 13.608" style="fill:none;stroke:#000000;"/>
   </g>
   <g id="legend_1">
    <g id="line2d_31">
     <path d="
M313.938 26.108
L333.938 26.108" style="fill:none;stroke:#0000ff;stroke-linecap:square;"/>
    </g>
    <g id="line2d_32"/>
    <g id="text_8">
     <!-- data -->
     <defs>
      <path d="
M29.2031 67.5938
L29.2031 65
C35.0938 65 36 64.4062 36 59.6875
L36 36.6406
C35.5938 37.1406 31.5 43.5938 23.4062 43.5938
C13.2031 43.5938 3.29688 34.5 3.29688 21.3125
C3.29688 8.20312 12.5938 -1 22.4062 -1
C30.9062 -1 35.2969 5.26562 35.7969 5.9375
L35.7969 -0.984375
L47.9062 -0.984375
L47.9062 2
C42 2 41.0938 2.59375 41.0938 7.39062
L41.0938 68.6875
z

M35.7969 11.7969
C35.7969 8.79688 34 6.09375 31.7031 4.09375
C28.2969 1.09375 24.9062 0.59375 23 0.59375
C20.0938 0.59375 9.70312 2.09375 9.70312 21.1875
C9.70312 40.8125 21.2969 42 23.9062 42
C28.5 42 32.2031 39.4062 34.5 35.7969
C35.7969 33.7031 35.7969 33.4062 35.7969 31.6094
z
" id="CMR17-100"/>
      <path d="
M15.0938 40
L29.0938 40
L29.0938 42.5781
L15.0938 42.5781
L15.0938 61
L13.2969 61
C13.0938 50.7031 9.59375 41.6875 1.09375 41.6875
L1.09375 40
L9.79688 40
L9.79688 12.0469
C9.79688 10.1562 9.79688 -1 21.4062 -1
C27.2969 -1 30.7031 4.78125 30.7031 12.1406
L30.7031 17.8125
L28.9062 17.8125
L28.9062 12.2344
C28.9062 5.375 26.2031 0.796875 22 0.796875
C19.0938 0.796875 15.0938 2.78125 15.0938 11.8438
z
" id="CMR17-116"/>
      <path d="
M36 25.8281
C36 32.375 36 35.8438 31.7969 39.7344
C28.0938 43 23.7969 44 20.4062 44
C12.5 44 6.79688 37.6094 6.79688 30.7969
C6.79688 27 9.79688 27 10.4062 27
C11.7031 27 14 27.7812 14 30.5312
C14 33 12.0938 34.0781 10.4062 34.0781
C10 34.0781 9.5 33.9688 9.20312 33.875
C11.2969 40.5 16.7031 42.4062 20.2031 42.4062
C25.2031 42.4062 30.7031 37.9531 30.7031 29.4531
L30.7031 25
C24.7969 25 17.7031 24.2031 12.0938 21.2031
C5.79688 17.7031 4 12.7031 4 8.90625
C4 1.20312 13 -1 18.2969 -1
C23.7969 -1 28.9062 2.17188 31.0938 7.98438
C31.2969 3.64062 34.0938 -0.28125 38.5 -0.28125
C40.5938 -0.28125 45.9062 1.09375 45.9062 8.85938
L45.9062 14.375
L44.0938 14.375
L44.0938 8.78125
C44.0938 2.78125 41.4062 2 40.0938 2
C36 2 36 7.15625 36 11.5312
z

M30.7031 13.5938
C30.7031 4.95312 24.5 0.59375 19 0.59375
C14 0.59375 10.0938 4.29688 10.0938 8.90625
C10.0938 11.8906 11.4062 17.1875 17.2031 20.3906
C22 23.0938 27.5 23.5 30.7031 23.5
z
" id="CMR17-97"/>
     </defs>
     <g transform="translate(341.937767795 29.608)scale(0.1 -0.1)">
      <use transform="scale(0.9962640099626402)" xlink:href="#CMR17-100"/>
      <use transform="translate(50.89536978031601 0.0)scale(0.9962640099626402)" xlink:href="#CMR17-97"/>
      <use transform="translate(96.58584689737704 0.0)scale(0.9962640099626402)" xlink:href="#CMR17-116"/>
      <use transform="translate(131.86661469683997 0.0)scale(0.9962640099626402)" xlink:href="#CMR17-97"/>
     </g>
    </g>
    <g id="line2d_33">
     <path d="
M381.31 26.108
L401.31 26.108" style="fill:none;stroke:#ff0000;stroke-linecap:square;"/>
    </g>
    <g id="line2d_34"/>
    <g id="text_9">
     <!-- model -->
     <defs>
      <path d="
M43.0938 21.1875
C43.0938 34 33.7969 44 22.9062 44
C12 44 2.70312 34 2.70312 21.1875
C2.70312 8.60938 12 -1 22.9062 -1
C33.7969 -1 43.0938 8.60938 43.0938 21.1875
M22.9062 0.796875
C18.2031 0.796875 14.2031 3.59375 11.9062 7.5
C9.40625 11.9844 9.09375 17.5938 9.09375 22
C9.09375 26.2031 9.29688 31.4062 11.9062 35.9062
C13.9062 39.2031 17.7969 42.4062 22.9062 42.4062
C27.4062 42.4062 31.2031 39.9062 33.5938 36.4062
C36.7031 31.7031 36.7031 25.1094 36.7031 22
C36.7031 18.0938 36.5 12.1094 33.7969 7.29688
C31 2.70312 26.7031 0.796875 22.9062 0.796875" id="CMR17-111"/>
      <path d="
M15.2969 68.6875
L3.40625 67.5938
L3.40625 65
C9.29688 65 10.2031 64.4062 10.2031 59.6406
L10.2031 6.65625
C10.2031 2.875 9.79688 2.39062 3.40625 2.39062
L3.40625 -0.203125
C5.79688 0 10.2031 0 12.7031 0
C15.2969 0 19.7031 0 22.0938 -0.203125
L22.0938 2.39062
C15.7031 2.39062 15.2969 2.78125 15.2969 6.65625
z
" id="CMR17-108"/>
      <path d="
M38.0938 23
C38.5 23.4062 38.5 23.6094 38.5 24.625
C38.5 34.9688 33.0938 44 21.7031 44
C11.0938 44 2.70312 33.8906 2.70312 21.6094
C2.70312 8.60938 12.2031 -1 22.7969 -1
C34 -1 38.4062 9.46875 38.4062 11.5469
C38.4062 12.25 37.7969 12.25 37.5938 12.25
C36.9062 12.25 36.7969 12.0469 36.4062 10.875
C34.2031 4.14062 28.7031 0.796875 23.5 0.796875
C19.2031 0.796875 14.9062 3.17188 12.2031 7.5
C9.09375 12.5469 9.09375 18.375 9.09375 23
z

M9.20312 24.5
C9.90625 39.1406 17.5938 42.4062 21.5938 42.4062
C28.4062 42.4062 33 35.8906 33.0938 24.5
z
" id="CMR17-101"/>
      <path d="
M67.5938 30.2031
C67.5938 35.1875 66.7031 43.5938 54.7969 43.5938
C48 43.5938 43.2969 39 41.5 33.5938
L41.4062 33.5938
C40.2031 41.7969 34.2969 43.5938 28.7031 43.5938
C20.7969 43.5938 16.7031 37.5625 15.2031 33.5938
L15.0938 33.5938
L15.0938 43.5938
L3.29688 42.5
L3.29688 39.9062
C9.20312 39.9062 10.0938 39.2969 10.0938 34.5
L10.0938 6.6875
C10.0938 2.875 9.70312 2.39062 3.29688 2.39062
L3.29688 -0.203125
C5.70312 0 10.0938 0 12.7031 0
C15.2969 0 19.7969 0 22.2031 -0.203125
L22.2031 2.39062
C15.7969 2.39062 15.4062 2.78125 15.4062 6.6875
L15.4062 25.9062
C15.4062 35.1094 21 42 28 42
C35.4062 42 36.2031 35.4062 36.2031 30.5938
L36.2031 6.6875
C36.2031 2.875 35.7969 2.39062 29.4062 2.39062
L29.4062 -0.203125
C31.7969 0 36.2031 0 38.7969 0
C41.4062 0 45.9062 0 48.2969 -0.203125
L48.2969 2.39062
C41.9062 2.39062 41.5 2.78125 41.5 6.6875
L41.5 25.9062
C41.5 35.1094 47.0938 42 54.0938 42
C61.5 42 62.2969 35.4062 62.2969 30.5938
L62.2969 6.6875
C62.2969 2.875 61.9062 2.39062 55.5 2.39062
L55.5 -0.203125
C57.9062 0 62.2969 0 64.9062 0
C67.5 0 72 0 74.4062 -0.203125
L74.4062 2.39062
C68 2.39062 67.5938 2.78125 67.5938 6.6875
z
" id="CMR17-109"/>
     </defs>
     <g transform="translate(409.309627106 29.608)scale(0.1 -0.1)">
      <use transform="scale(0.9962640099626402)" xlink:href="#CMR17-109"/>
      <use transform="translate(76.91958986807286 0.0)scale(0.9962640099626402)" xlink:href="#CMR17-111"/>
      <use transform="translate(125.2125057158702 0.0)scale(0.9962640099626402)" xlink:href="#CMR17-100"/>
      <use transform="translate(176.10787549618618 0.0)scale(0.9962640099626402)" xlink:href="#CMR17-101"/>
      <use transform="translate(216.59353595890414 0.0)scale(0.9962640099626402)" xlink:href="#CMR17-108"/>
     </g>
    </g>
   </g>
  </g>
  <g id="axes_2">
   <g id="patch_7">
    <path d="
M56.16 161.352
L444.6 161.352
L444.6 87.48
L56.16 87.48
z
" style="fill:#ffffff;"/>
   </g>
   <g id="line2d_35">
    <path clip-path="url(#pc949900f65)" d="
M78.0858 128.956
L78.6827 132.802
L79.2796 129.635
L79.8766 122.744
L80.4735 120.166
L81.0704 120.029
L82.2643 128.139
L82.8612 122.175
L83.4581 123.782
L84.055 125.975
L84.652 121.588
L85.8458 127.026
L86.4416 131.128
L87.0397 129.096
L87.6355 127.819
L88.2324 123.706
L88.8293 128.401
L89.4262 125.103
L90.0232 122.97
L90.6201 126.049
L91.217 127.091
L91.8139 128.858
L92.4098 124.459
L93.0067 117.372
L93.6036 119.796
L94.2005 127.527
L94.7975 122.905
L95.3944 121.817
L95.9902 122.274
L96.5871 123.26
L97.1841 121.719
L97.781 125.087
L98.3768 120.716
L98.9737 117.874
L99.5706 122.331
L100.168 121.807
L100.764 120.207
L101.957 123.911
L102.554 126.102
L103.15 122.508
L103.747 114.739
L104.344 118.413
L104.941 127.869
L105.537 131.125
L106.133 127.773
L106.73 121.746
L107.327 124.383
L107.923 119.339
L108.52 119.454
L109.117 120.293
L109.713 127.586
L110.31 121.202
L110.906 122.758
L111.502 119.648
L112.099 118.68
L112.696 120.686
L113.292 130.1
L113.889 124.105
L114.485 122.255
L115.082 125.367
L115.679 123.519
L116.275 122.757
L116.871 128.016
L117.467 124.947
L118.064 120.89
L118.66 124.287
L119.257 124.128
L119.854 122.885
L120.45 127.753
L121.047 123.219
L121.642 128.299
L122.239 130.846
L122.835 127.194
L123.432 120.208
L124.028 123.037
L124.625 126.685
L125.221 124.167
L125.818 122.25
L126.413 124.072
L127.01 121.203
L127.607 123.289
L128.203 123.076
L128.799 122.521
L129.396 122.421
L130.589 125.649
L131.184 128.144
L132.377 129.679
L132.974 124.015
L133.57 126.569
L134.166 127.272
L134.763 126.487
L135.358 122.036
L135.955 120.449
L136.551 121.45
L137.148 123.941
L137.744 123.284
L138.34 123.526
L138.937 124.783
L139.532 123.972
L140.129 117.144
L140.725 119.286
L141.321 122.063
L141.917 126.428
L142.514 123.055
L143.11 124.384
L143.706 125.092
L144.302 122.292
L144.898 123.85
L145.495 126.859
L146.091 124.069
L147.283 129.435
L147.879 127.989
L148.475 123.021
L149.071 125.442
L150.264 121.212
L150.86 124.555
L151.455 126.413
L152.052 122.577
L153.244 124.128
L153.84 128.182
L154.437 124.814
L155.033 117.007
L156.821 124.237
L157.417 126.173
L158.013 124.539
L159.205 125.447
L159.801 123.37
L160.993 123.942
L161.589 126.158
L162.186 125
L162.781 122.167
L163.973 124.591
L164.57 124.853
L165.166 124.93
L165.762 124.462
L166.357 125.411
L166.953 125.573
L167.55 122.01
L168.146 123.927
L168.742 125.248
L169.338 124.155
L170.529 126.842
L171.125 124.757
L171.721 125.443
L172.318 122.313
L172.914 123.288
L173.509 123.996
L174.105 125.588
L174.701 123.04
L175.297 124.378
L175.893 121.149
L176.489 124.163
L177.085 125.064
L177.681 124.846
L178.277 129.497
L178.873 125.161
L179.469 125.485
L180.065 130.868
L180.66 128.275
L181.852 130.105
L182.448 125.295
L183.044 123.245
L183.639 117.964
L184.235 109.987
L186.023 120.088
L186.62 120.191
L187.215 123.495
L187.811 128.762
L188.407 126.564
L189.003 126.649
L189.599 124.855
L190.195 121.673
L190.79 125.158
L191.386 122.718
L191.982 126.833
L192.578 121.701
L193.174 126.36
L193.769 125.54
L194.365 124.134
L194.961 122.095
L195.557 125.498
L196.153 130.741
L196.749 127.787
L197.344 126.557
L197.94 130.301
L198.536 136.606
L199.132 133.929
L199.728 128.447
L200.323 125.805
L200.919 125.875
L201.515 124.4
L202.11 124.504
L202.706 123.4
L203.301 125.343
L203.897 129.082
L204.493 123.901
L205.089 129.789
L205.685 127.707
L206.28 124.275
L206.876 125.868
L207.472 128.622
L208.068 125.225
L208.664 124.157
L209.26 123.925
L209.855 123.838
L210.451 126.195
L211.046 135.709
L211.642 133.13
L212.238 126.781
L212.833 126.427
L213.429 128.052
L214.025 128.749
L214.621 127.885
L215.215 124.281
L215.811 121.722
L216.407 122.779
L217.003 124.935
L217.599 125.142
L218.195 121.484
L218.79 124.95
L219.386 120.774
L219.982 126.216
L220.577 129.392
L221.173 125.141
L221.768 124.886
L222.96 130.903
L223.556 122.108
L224.152 125.42
L224.746 127.248
L225.342 127.161
L225.938 125.055
L226.534 123.693
L227.13 124.752
L227.725 131.761
L228.32 144.958
L228.916 149.12
L230.108 128.167
L230.703 129.044
L231.299 135.264
L231.894 140.206
L232.49 129.913
L233.086 124.606
L233.681 123.991
L234.277 122.922
L234.873 125.497
L235.469 120.384
L236.063 123.418
L236.659 125.179
L237.255 126.4
L237.851 123.644
L238.447 121.546
L239.041 122.868
L239.637 124.464
L240.829 131.399
L241.424 127.09
L242.615 123.45
L243.211 127.793
L243.807 124.231
L244.402 125.525
L244.997 122.349
L245.593 124.878
L246.189 131.081
L246.785 127.159
L247.38 121.75
L247.975 128.682
L248.571 131.577
L249.762 119.953
L250.358 123.882
L250.953 123.681
L251.549 126.16
L252.145 126.308
L252.74 128.505
L253.335 121.427
L253.931 118.799
L254.527 119.52
L255.123 123.077
L255.718 119.818
L256.313 123.468
L257.504 127.458
L258.1 127.849
L258.696 127.277
L259.291 121.585
L259.886 123.009
L260.482 125.407
L261.078 123.931
L261.674 123.497
L262.268 124.901
L262.864 124.708
L263.46 118.257
L264.65 127.906
L265.246 125.378
L265.842 124.429
L266.438 120.966
L267.033 124.233
L267.628 121.519
L268.224 122.012
L268.82 119.876
L269.415 121.73
L270.011 122.993
L270.606 123.745
L271.202 128.638
L271.797 127.822
L272.393 121.427
L273.584 124.322
L274.179 124.285
L274.775 125.842
L275.371 126.27
L275.965 122.93
L276.561 123.92
L277.157 124.11
L277.753 122.218
L278.348 121.148
L278.943 120.406
L279.539 122.629
L280.134 124.09
L280.73 124.347
L281.326 119.65
L281.921 120.462
L282.516 119.287
L283.112 116.701
L283.708 121.959
L284.302 122.966
L284.898 118.619
L286.09 124.53
L286.685 122.16
L287.28 120.338
L287.876 122.863
L288.471 124.03
L289.067 128.319
L290.258 150.891
L290.853 141.685
L291.449 147.855
L292.045 155.607
L292.639 144.704
L293.235 130.368
L293.831 131.687
L294.427 148.328
L295.021 157.994
L296.213 133.299
L297.404 122.616
L298.595 127.328
L299.19 124.078
L299.786 123.154
L300.382 124.997
L300.977 122.561
L301.572 122.793
L302.168 128.763
L302.764 126.579
L303.358 125.555
L303.954 129.233
L305.146 119.264
L305.741 123.798
L306.336 129.495
L306.932 128.519
L307.528 122.336
L308.123 125.6
L308.719 125.849
L309.314 127.241
L309.909 124.689
L310.505 117.22
L311.101 118.51
L311.697 125.878
L312.291 124.685
L312.887 122.983
L313.483 115.95
L314.079 122.713
L314.673 121.801
L315.269 121.818
L315.865 125.345
L316.461 120.637
L317.056 128.048
L317.651 124.038
L318.247 121.886
L318.843 124.352
L319.438 123.799
L320.034 122.525
L320.629 124.229
L321.225 122.274
L321.82 128.569
L322.416 128.929
L323.012 117.289
L324.202 125.817
L324.798 123.028
L325.394 124.781
L325.988 131.292
L327.18 117.316
L327.776 123.515
L328.371 121.587
L328.966 123.344
L329.562 127.273
L330.158 122.264
L330.754 121.322
L331.349 125.605
L331.944 125.504
L332.54 124.678
L333.136 124.163
L333.731 131.124
L334.922 120.74
L335.518 122.046
L336.113 119.91
L336.709 122.278
L337.304 120.53
L337.9 115.877
L338.496 120.646
L339.091 122.123
L339.687 124.907
L340.282 127.068
L340.878 120.954
L341.474 125.131
L342.069 121.437
L342.665 123.257
L343.26 127.179
L343.856 123.702
L344.451 119.005
L345.643 125.384
L346.238 125.07
L346.834 127.426
L347.429 122.712
L348.025 127.715
L348.62 124.504
L349.216 123.622
L349.812 124.595
L350.407 119.292
L351.003 127.713
L351.598 123.54
L352.194 130.354
L352.79 130.856
L353.385 129.797
L353.981 127.784
L354.576 121.866
L355.172 124.709
L355.768 126.462
L356.363 125.128
L356.959 121.903
L357.554 124.782
L358.15 130.692
L358.746 128.937
L359.342 120.739
L359.937 121.206
L360.532 118.571
L361.128 124.714
L361.724 128.123
L362.32 125.56
L362.916 125.782
L363.511 123.745
L364.107 122.92
L364.702 130.251
L365.298 126.473
L365.894 117.689
L366.489 124.547
L367.085 125.971
L367.681 123.214
L368.277 122.566
L368.872 122.744
L369.467 127.096
L370.063 124.387
L370.659 123.54
L371.255 125.83
L372.446 131.404
L373.042 118.768
L373.638 120.416
L374.233 120.623
L374.829 122.301
L375.424 129.13
L376.02 133.153
L376.616 119.07
L377.212 118.577
L377.808 128.841
L378.404 118.422
L378.999 125.788
L379.595 123.339
L380.191 128.878
L380.787 126.832
L381.383 127.317
L381.977 122.086
L382.574 124.54
L383.17 131.595
L383.765 121.182
L384.361 123.003
L384.956 127.431
L385.552 118.6
L386.148 123.749
L386.744 121.165
L387.34 121.3
L387.935 126.304
L388.531 118.474
L389.127 128.32
L389.723 129.063
L390.319 109.379
L390.915 115.811
L391.51 135.472
L392.106 126.488
L392.702 127.698
L393.298 124.828
L393.894 124.045
L394.489 118.479
L395.085 120.965
L395.681 124.672
L396.277 117.954
L396.873 122.182
L397.469 118.519
L398.064 125.408
L398.66 127.081
L399.256 118.621
L399.852 122.441
L400.448 120.019
L401.043 119.311
L401.639 122.846
L402.236 125.607
L402.831 125.135
L403.428 118.078
L404.024 119.952
L404.619 130.383
L405.215 129.544
L405.811 123.718
L406.407 124.678
L407.003 117.757
L408.194 134.287
L408.79 120.576
L409.386 126.833
L410.579 120.247
L411.174 126.368
L411.77 127.667
L412.366 129.879
L412.962 121.579
L413.558 128.56
L414.154 131.699
L414.749 127.231
L415.346 126.694
L415.942 122.28
L416.538 131.227
L417.134 118.536
L417.73 118.047
L418.325 131.066
L418.922 116.12
L419.518 123.39
L420.114 134.541
L420.576 120.505
L421.136 118.304
L421.136 118.304" style="fill:none;stroke:#000000;stroke-linecap:square;"/>
   </g>
   <g id="matplotlib.axis_3">
    <g id="xtick_9">
     <g id="line2d_36">
      <g>
       <use style="stroke:#000000;stroke-width:0.5;" x="56.16" xlink:href="#mc7db9fdffb" y="161.352"/>
      </g>
     </g>
     <g id="line2d_37">
      <g>
       <use style="stroke:#000000;stroke-width:0.5;" x="56.16" xlink:href="#m5a7d422ac3" y="87.48"/>
      </g>
     </g>
     <g id="text_10">
      <!-- 2.1 -->
      <defs>
       <path d="
M16.5938 4.07812
C16.5938 6.5625 14.5938 8.15625 12.5 8.15625
C10.5 8.15625 8.40625 6.5625 8.40625 4.07812
C8.40625 1.59375 10.4062 0 12.5 0
C14.5 0 16.5938 1.59375 16.5938 4.07812" id="CMR17-46"/>
      </defs>
      <g transform="translate(49.7949605119 172.27049838)scale(0.1 -0.1)">
       <use transform="scale(0.9962640099626402)" xlink:href="#CMR17-50"/>
       <use transform="translate(45.69047711706103 0.0)scale(0.9962640099626402)" xlink:href="#CMR17-46"/>
       <use transform="translate(70.56153559892591 0.0)scale(0.9962640099626402)" xlink:href="#CMR17-49"/>
      </g>
     </g>
    </g>
    <g id="xtick_10">
     <g id="line2d_38">
      <g>
       <use style="stroke:#000000;stroke-width:0.5;" x="111.651428571" xlink:href="#mc7db9fdffb" y="161.352"/>
      </g>
     </g>
     <g id="line2d_39">
      <g>
       <use style="stroke:#000000;stroke-width:0.5;" x="111.651428571" xlink:href="#m5a7d422ac3" y="87.48"/>
      </g>
     </g>
     <g id="text_11">
      <!-- 2.1 -->
      <g transform="translate(105.286389083 172.27049838)scale(0.1 -0.1)">
       <use transform="scale(0.9962640099626402)" xlink:href="#CMR17-50"/>
       <use transform="translate(45.69047711706103 0.0)scale(0.9962640099626402)" xlink:href="#CMR17-46"/>
       <use transform="translate(70.56153559892591 0.0)scale(0.9962640099626402)" xlink:href="#CMR17-49"/>
      </g>
     </g>
    </g>
    <g id="xtick_11">
     <g id="line2d_40">
      <g>
       <use style="stroke:#000000;stroke-width:0.5;" x="167.142857143" xlink:href="#mc7db9fdffb" y="161.352"/>
      </g>
     </g>
     <g id="line2d_41">
      <g>
       <use style="stroke:#000000;stroke-width:0.5;" x="167.142857143" xlink:href="#m5a7d422ac3" y="87.48"/>
      </g>
     </g>
     <g id="text_12">
      <!-- 2.2 -->
      <g transform="translate(160.777817655 172.27049838)scale(0.1 -0.1)">
       <use transform="scale(0.9962640099626402)" xlink:href="#CMR17-50"/>
       <use transform="translate(45.69047711706103 0.0)scale(0.9962640099626402)" xlink:href="#CMR17-46"/>
       <use transform="translate(70.56153559892591 0.0)scale(0.9962640099626402)" xlink:href="#CMR17-50"/>
      </g>
     </g>
    </g>
    <g id="xtick_12">
     <g id="line2d_42">
      <g>
       <use style="stroke:#000000;stroke-width:0.5;" x="222.634285714" xlink:href="#mc7db9fdffb" y="161.352"/>
      </g>
     </g>
     <g id="line2d_43">
      <g>
       <use style="stroke:#000000;stroke-width:0.5;" x="222.634285714" xlink:href="#m5a7d422ac3" y="87.48"/>
      </g>
     </g>
     <g id="text_13">
      <!-- 2.2 -->
      <g transform="translate(216.269246226 172.27049838)scale(0.1 -0.1)">
       <use transform="scale(0.9962640099626402)" xlink:href="#CMR17-50"/>
       <use transform="translate(45.69047711706103 0.0)scale(0.9962640099626402)" xlink:href="#CMR17-46"/>
       <use transform="translate(70.56153559892591 0.0)scale(0.9962640099626402)" xlink:href="#CMR17-50"/>
      </g>
     </g>
    </g>
    <g id="xtick_13">
     <g id="line2d_44">
      <g>
       <use style="stroke:#000000;stroke-width:0.5;" x="278.125714286" xlink:href="#mc7db9fdffb" y="161.352"/>
      </g>
     </g>
     <g id="line2d_45">
      <g>
       <use style="stroke:#000000;stroke-width:0.5;" x="278.125714286" xlink:href="#m5a7d422ac3" y="87.48"/>
      </g>
     </g>
     <g id="text_14">
      <!-- 2.3 -->
      <g transform="translate(271.760674798 172.27049838)scale(0.1 -0.1)">
       <use transform="scale(0.9962640099626402)" xlink:href="#CMR17-50"/>
       <use transform="translate(45.69047711706103 0.0)scale(0.9962640099626402)" xlink:href="#CMR17-46"/>
       <use transform="translate(70.56153559892591 0.0)scale(0.9962640099626402)" xlink:href="#CMR17-51"/>
      </g>
     </g>
    </g>
    <g id="xtick_14">
     <g id="line2d_46">
      <g>
       <use style="stroke:#000000;stroke-width:0.5;" x="333.617142857" xlink:href="#mc7db9fdffb" y="161.352"/>
      </g>
     </g>
     <g id="line2d_47">
      <g>
       <use style="stroke:#000000;stroke-width:0.5;" x="333.617142857" xlink:href="#m5a7d422ac3" y="87.48"/>
      </g>
     </g>
     <g id="text_15">
      <!-- 2.3 -->
      <g transform="translate(327.252103369 172.27049838)scale(0.1 -0.1)">
       <use transform="scale(0.9962640099626402)" xlink:href="#CMR17-50"/>
       <use transform="translate(45.69047711706103 0.0)scale(0.9962640099626402)" xlink:href="#CMR17-46"/>
       <use transform="translate(70.56153559892591 0.0)scale(0.9962640099626402)" xlink:href="#CMR17-51"/>
      </g>
     </g>
    </g>
    <g id="xtick_15">
     <g id="line2d_48">
      <g>
       <use style="stroke:#000000;stroke-width:0.5;" x="389.108571429" xlink:href="#mc7db9fdffb" y="161.352"/>
      </g>
     </g>
     <g id="line2d_49">
      <g>
       <use style="stroke:#000000;stroke-width:0.5;" x="389.108571429" xlink:href="#m5a7d422ac3" y="87.48"/>
      </g>
     </g>
     <g id="text_16">
      <!-- 2.4 -->
      <g transform="translate(382.74353194 172.27049838)scale(0.1 -0.1)">
       <use transform="scale(0.9962640099626402)" xlink:href="#CMR17-50"/>
       <use transform="translate(45.69047711706103 0.0)scale(0.9962640099626402)" xlink:href="#CMR17-46"/>
       <use transform="translate(70.56153559892591 0.0)scale(0.9962640099626402)" xlink:href="#CMR17-52"/>
      </g>
     </g>
    </g>
    <g id="xtick_16">
     <g id="line2d_50">
      <g>
       <use style="stroke:#000000;stroke-width:0.5;" x="444.6" xlink:href="#mc7db9fdffb" y="161.352"/>
      </g>
     </g>
     <g id="line2d_51">
      <g>
       <use style="stroke:#000000;stroke-width:0.5;" x="444.6" xlink:href="#m5a7d422ac3" y="87.48"/>
      </g>
     </g>
     <g id="text_17">
      <!-- 2.4 -->
      <g transform="translate(438.234960512 172.27049838)scale(0.1 -0.1)">
       <use transform="scale(0.9962640099626402)" xlink:href="#CMR17-50"/>
       <use transform="translate(45.69047711706103 0.0)scale(0.9962640099626402)" xlink:href="#CMR17-46"/>
       <use transform="translate(70.56153559892591 0.0)scale(0.9962640099626402)" xlink:href="#CMR17-52"/>
      </g>
     </g>
    </g>
    <g id="text_18">
     <!-- $\lambda$ [$\mu$m] -->
     <defs>
      <path d="
M30.9062 61.9531
C28.4062 69 20.5 69 19.2031 69
C18.5938 69 17.5 69 17.5 68
C17.5 67.2188 18.0938 67.1094 18.5938 67.0156
C20.0938 66.8125 21.2969 66.6094 22.9062 63.75
C23.9062 61.8594 34.2031 32.1719 34.2031 31.9688
C34.2031 31.875 34.0938 31.7656 33.2969 30.9688
L7.29688 4.85938
C6.09375 3.65625 5.29688 2.85938 5.29688 1.59375
C5.29688 0.1875 6.5 -1 8.09375 -1
C8.5 -1 9.59375 -0.796875 10.2031 -0.203125
C11.7969 1.28125 26.0938 18.6562 35.2031 29.3906
C37.7969 21.6094 41 12.4531 44.0938 4.07812
C44.5938 2.59375 45.0938 1.1875 46.5 -0.09375
C47.5 -1 47.7031 -1 50.5 -1
L52.4062 -1
C52.7969 -1 53.5 -1 53.5 -0.171875
C53.5 0.265625 53.4062 0.359375 53 0.78125
C52.0938 1.875 51.4062 3.65625 51 4.84375
z
" id="CMMI12-21"/>
      <path d="
M14.4062 2.1875
C16.9062 -0.09375 20.5938 -1 24 -1
C30.4062 -1 34.7969 3.25 37.0938 6.32812
C38.0938 1.07812 42.2969 -1 45.7969 -1
C48.7969 -1 51.2031 0.78125 53 4.32812
C54.5938 7.70312 56 13.7344 56 14.1094
C56 14.6094 55.5938 15 55 15
C54.0938 15 54 14.5 53.5938 13.0312
C52.0938 7.20312 50.2031 1 46.0938 1
C43.2031 1 43 3.57812 43 5.59375
C43 7.875 43.9062 11.4688 44.5938 14.4688
L47.4062 25.2344
C47.7969 27.1406 48.9062 31.6094 49.4062 33.4219
C50 35.8125 51.0938 40.1094 51.0938 40.5
C51.0938 42 49.9062 43 48.4062 43
C47.5 43 45.4062 42.5938 44.5938 39.6094
L37.5938 11.875
C37.0938 9.875 37.0938 9.67188 35.7969 8.07812
C34.5938 6.39062 30.7031 1 24.4062 1
C18.7969 1 17 5.09375 17 9.76562
C17 12.6719 17.9062 16.1562 18.2969 17.8594
L22.7969 35.8281
C23.2969 37.7188 24.0938 40.9062 24.0938 41.5156
C24.0938 43.1094 22.7969 44 21.5 44
C20.5938 44 18.4062 43.7031 17.5938 40.5
L3.09375 -17.2969
C3 -17.7969 2.79688 -18.3906 2.79688 -19
C2.79688 -20.5 4 -21.5 5.5 -21.5
C8.40625 -21.5 9 -19.1875 9.70312 -16.4062
z
" id="CMMI12-22"/>
      <path d="
M14.2969 74.4844
L1.40625 74.4844
L1.40625 71
L10.7969 71
L10.7969 -21.5156
L1.40625 -21.5156
L1.40625 -25
L14.2969 -25
z
" id="CMR17-93"/>
      <path d="
M23.5 -25
L23.5 -21.5156
L14.0938 -21.5156
L14.0938 71
L23.5 71
L23.5 74.4844
L10.5938 74.4844
L10.5938 -25
z
" id="CMR17-91"/>
     </defs>
     <g transform="translate(235.893773119 186.679656785)scale(0.1 -0.1)">
      <use transform="scale(0.9962640099626402)" xlink:href="#CMMI12-21"/>
      <use transform="translate(86.98003823552305 0.0)scale(0.9962640099626402)" xlink:href="#CMR17-91"/>
      <use transform="translate(111.85109671738793 0.0)scale(0.9962640099626402)" xlink:href="#CMMI12-22"/>
      <use transform="translate(170.5425181691703 0.0)scale(0.9962640099626402)" xlink:href="#CMR17-109"/>
      <use transform="translate(247.46210803724318 0.0)scale(0.9962640099626402)" xlink:href="#CMR17-93"/>
     </g>
    </g>
   </g>
   <g id="matplotlib.axis_4">
    <g id="ytick_7">
     <g id="line2d_52">
      <g>
       <use style="stroke:#000000;stroke-width:0.5;" x="56.16" xlink:href="#md7965d1ba0" y="150.822144284"/>
      </g>
     </g>
     <g id="line2d_53">
      <g>
       <use style="stroke:#000000;stroke-width:0.5;" x="444.6" xlink:href="#md9a1c1a7cd" y="150.822144284"/>
      </g>
     </g>
     <g id="text_19">
      <!-- $-1.6$ -->
      <g transform="translate(31.681177299 153.312804309)scale(0.1 -0.1)">
       <use transform="scale(0.9962640099626402)" xlink:href="#CMSY10-0"/>
       <use transform="translate(77.4874676506071 0.0)scale(0.9962640099626402)" xlink:href="#CMR17-49"/>
       <use transform="translate(123.17794476766814 0.0)scale(0.9962640099626402)" xlink:href="#CMMI12-58"/>
       <use transform="translate(150.27512185748756 0.0)scale(0.9962640099626402)" xlink:href="#CMR17-54"/>
      </g>
     </g>
    </g>
    <g id="ytick_8">
     <g id="line2d_54">
      <g>
       <use style="stroke:#000000;stroke-width:0.5;" x="56.16" xlink:href="#md7965d1ba0" y="137.619072142"/>
      </g>
     </g>
     <g id="line2d_55">
      <g>
       <use style="stroke:#000000;stroke-width:0.5;" x="444.6" xlink:href="#md9a1c1a7cd" y="137.619072142"/>
      </g>
     </g>
     <g id="text_20">
      <!-- $-0.8$ -->
      <defs>
       <path d="
M27.2031 35.375
C33.5 38.5625 39.9062 43.3281 39.9062 50.9844
C39.9062 60.0312 31.0938 65.2969 23 65.2969
C13.9062 65.2969 5.90625 58.7344 5.90625 49.6875
C5.90625 47.2031 6.5 42.9219 10.4062 39.1406
C11.4062 38.1562 15.5938 35.1719 18.2969 33.2812
C13.7969 30.9844 3.29688 25.5312 3.29688 14.5938
C3.29688 4.35938 13.0938 -2 22.7969 -2
C33.5 -2 42.5 5.65625 42.5 15.7969
C42.5 24.8438 36.4062 29.0312 32.4062 31.7031
z

M14.0938 44.125
C13.2969 44.625 9.29688 47.7031 9.29688 52.375
C9.29688 58.4375 15.5938 63 22.7969 63
C30.7031 63 36.5 57.4531 36.5 50.9844
C36.5 41.7344 26.0938 36.4688 25.5938 36.4688
C25.5 36.4688 25.4062 36.4688 24.5938 37.0781
z

M32.5 23.7344
C34 22.6406 38.7969 19.375 38.7969 13.2969
C38.7969 5.95312 31.4062 0.390625 23 0.390625
C13.9062 0.390625 7 6.84375 7 14.6875
C7 22.5469 13.0938 29.0938 20 32.1875
z
" id="CMR17-56"/>
      </defs>
      <g transform="translate(31.681177299 140.109732167)scale(0.1 -0.1)">
       <use transform="scale(0.9962640099626402)" xlink:href="#CMSY10-0"/>
       <use transform="translate(77.4874676506071 0.0)scale(0.9962640099626402)" xlink:href="#CMR17-48"/>
       <use transform="translate(123.17794476766814 0.0)scale(0.9962640099626402)" xlink:href="#CMMI12-58"/>
       <use transform="translate(150.27512185748756 0.0)scale(0.9962640099626402)" xlink:href="#CMR17-56"/>
      </g>
     </g>
    </g>
    <g id="ytick_9">
     <g id="line2d_56">
      <g>
       <use style="stroke:#000000;stroke-width:0.5;" x="56.16" xlink:href="#md7965d1ba0" y="124.416"/>
      </g>
     </g>
     <g id="line2d_57">
      <g>
       <use style="stroke:#000000;stroke-width:0.5;" x="444.6" xlink:href="#md9a1c1a7cd" y="124.416"/>
      </g>
     </g>
     <g id="text_21">
      <!-- $0.0$ -->
      <g transform="translate(39.4299210237 126.906660025)scale(0.1 -0.1)">
       <use transform="scale(0.9962640099626402)" xlink:href="#CMR17-48"/>
       <use transform="translate(45.69047711706103 0.0)scale(0.9962640099626402)" xlink:href="#CMMI12-58"/>
       <use transform="translate(72.78765420688046 0.0)scale(0.9962640099626402)" xlink:href="#CMR17-48"/>
      </g>
     </g>
    </g>
    <g id="ytick_10">
     <g id="line2d_58">
      <g>
       <use style="stroke:#000000;stroke-width:0.5;" x="56.16" xlink:href="#md7965d1ba0" y="111.212927858"/>
      </g>
     </g>
     <g id="line2d_59">
      <g>
       <use style="stroke:#000000;stroke-width:0.5;" x="444.6" xlink:href="#md9a1c1a7cd" y="111.212927858"/>
      </g>
     </g>
     <g id="text_22">
      <!-- $0.8$ -->
      <g transform="translate(39.4299210237 113.703587883)scale(0.1 -0.1)">
       <use transform="scale(0.9962640099626402)" xlink:href="#CMR17-48"/>
       <use transform="translate(45.69047711706103 0.0)scale(0.9962640099626402)" xlink:href="#CMMI12-58"/>
       <use transform="translate(72.78765420688046 0.0)scale(0.9962640099626402)" xlink:href="#CMR17-56"/>
      </g>
     </g>
    </g>
    <g id="ytick_11">
     <g id="line2d_60">
      <g>
       <use style="stroke:#000000;stroke-width:0.5;" x="56.16" xlink:href="#md7965d1ba0" y="98.0098557158"/>
      </g>
     </g>
     <g id="line2d_61">
      <g>
       <use style="stroke:#000000;stroke-width:0.5;" x="444.6" xlink:href="#md9a1c1a7cd" y="98.0098557158"/>
      </g>
     </g>
     <g id="text_23">
      <!-- $1.6$ -->
      <g transform="translate(39.4299210237 100.500515741)scale(0.1 -0.1)">
       <use transform="scale(0.9962640099626402)" xlink:href="#CMR17-49"/>
       <use transform="translate(45.69047711706103 0.0)scale(0.9962640099626402)" xlink:href="#CMMI12-58"/>
       <use transform="translate(72.78765420688046 0.0)scale(0.9962640099626402)" xlink:href="#CMR17-54"/>
      </g>
     </g>
    </g>
    <g id="text_24">
     <!-- $\times10^{-15}$ -->
     <defs>
      <path d="
M11.4062 57.6875
C12.4062 57.2812 16.5 56 20.7031 56
C30 56 35.0938 61.0156 38 63.9219
C38 64.7344 38 65.25 37.4062 65.25
C37.2969 65.25 37.0938 65.25 36.2969 64.8281
C32.7969 63.3125 28.7031 62.0781 23.7031 62.0781
C20.7031 62.0781 16.2031 62.5 11.2969 64.7344
C10.2031 65.25 10 65.25 9.90625 65.25
C9.40625 65.25 9.29688 65.1406 9.29688 63.1562
L9.29688 34.2812
C9.29688 32.5 9.29688 32 10.2969 32
C10.7969 32 11 32.2031 11.5 32.9062
C14.7031 37.4844 19.0938 39.4062 24.0938 39.4062
C27.5938 39.4062 35.0938 37.2188 35.0938 20.1406
C35.0938 16.9531 35.0938 11.1719 32.0938 6.57812
C29.5938 2.48438 25.7031 0.390625 21.4062 0.390625
C14.7969 0.390625 8.09375 5 6.29688 12.7188
C6.70312 12.6094 7.5 12.4219 7.90625 12.4219
C9.20312 12.4219 11.7031 13.125 11.7031 16.2188
C11.7031 18.9062 9.79688 20 7.90625 20
C5.59375 20 4.09375 18.5938 4.09375 15.7969
C4.09375 7.09375 11 -2 21.5938 -2
C31.9062 -2 41.7031 6.875 41.7031 19.75
C41.7031 31.7188 33.9062 41 24.2031 41
C19.0938 41 14.7969 39.0938 11.4062 35.4531
z
" id="CMR17-53"/>
     </defs>
     <g transform="translate(56.16 84.48)scale(0.1 -0.1)">
      <use transform="scale(0.9962640099626402)" xlink:href="#CMSY10-2"/>
      <use transform="translate(77.4874676506071 0.0)scale(0.9962640099626402)" xlink:href="#CMR17-49"/>
      <use transform="translate(123.17794476766814 0.0)scale(0.9962640099626402)" xlink:href="#CMR17-48"/>
      <use transform="translate(168.86842188472914 36.15363894185866)scale(0.6973817666173724)" xlink:href="#CMSY10-0"/>
      <use transform="translate(223.1094151327055 36.15363894185866)scale(0.6973817666173724)" xlink:href="#CMR17-49"/>
      <use transform="translate(255.09259709682442 36.15363894185866)scale(0.6973817666173724)" xlink:href="#CMR17-53"/>
     </g>
    </g>
   </g>
   <g id="patch_8">
    <path d="
M56.16 87.48
L444.6 87.48" style="fill:none;stroke:#000000;"/>
   </g>
   <g id="patch_9">
    <path d="
M56.16 161.352
L444.6 161.352" style="fill:none;stroke:#000000;"/>
   </g>
   <g id="patch_10">
    <path d="
M56.16 161.352
L56.16 87.48" style="fill:none;stroke:#000000;"/>
   </g>
   <g id="patch_11">
    <path d="
M444.6 161.352
L444.6 87.48" style="fill:none;stroke:#000000;"/>
   </g>
   <g id="legend_2">
    <g id="line2d_62">
     <path d="
M369.825 99.98
L389.825 99.98" style="fill:none;stroke:#000000;stroke-linecap:square;"/>
    </g>
    <g id="line2d_63"/>
    <g id="text_25">
     <!-- residuals -->
     <defs>
      <path d="
M30.9062 42.1094
C30.9062 43.9062 30.7969 44 30.2031 44
C29.7969 44 29.7031 43.9062 28.5 42.4219
C28.2031 42.0156 27.2969 41.0156 27 40.625
C23.7969 44 19.2969 44 17.5938 44
C6.5 44 2.5 38.1719 2.5 32.375
C2.5 23.3438 12.7031 21.25 15.5938 20.6406
C21.9062 19.3438 24.0938 18.9375 26.2031 17.125
C27.5 15.9375 29.7031 13.7344 29.7031 10.125
C29.7031 5.90625 27.2969 0.5 18.0938 0.5
C9.40625 0.5 6.29688 7.0625 4.5 15.8281
C4.20312 17.2188 4.20312 17.3281 3.40625 17.3281
C2.59375 17.3281 2.5 17.2188 2.5 15.2344
L2.5 0.890625
C2.5 -0.890625 2.59375 -1 3.20312 -1
C3.70312 -1 3.79688 -0.890625 4.29688 -0.09375
C4.90625 0.796875 6.40625 3.1875 7 4.1875
C9 1.54688 12.5 -1 18.0938 -1
C28 -1 33.2969 4.40625 33.2969 12.2344
C33.2969 17.3438 30.5938 20.0625 29.2969 21.25
C26.2969 24.375 22.7969 25.0625 18.5938 25.8594
C13.0938 27.0781 6.09375 28.4688 6.09375 34.5938
C6.09375 37.1875 7.5 42.7188 17.5938 42.7188
C28.2969 42.7188 28.9062 32.75 29.0938 29.5625
C29.2031 29.0781 29.7031 28.9688 30 28.9688
C30.9062 28.9688 30.9062 29.2812 30.9062 30.9688
z
" id="CMR17-115"/>
      <path d="
M15.5 61.0781
C15.5 63.2656 13.7031 65.1562 11.4062 65.1562
C9.20312 65.1562 7.29688 63.375 7.29688 61.0781
C7.29688 58.8906 9.09375 57 11.4062 57
C13.5938 57 15.5 58.7969 15.5 61.0781
M3.79688 42.2812
L3.79688 39.7031
C9.40625 39.7031 10.2031 39.0938 10.2031 34.3281
L10.2031 6.67188
C10.2031 2.875 9.79688 2.39062 3.40625 2.39062
L3.40625 -0.203125
C5.79688 0 10.0938 0 12.5938 0
C15 0 19.0938 0 21.4062 -0.203125
L21.4062 2.39062
C15.5 2.39062 15.2969 2.98438 15.2969 6.5625
L15.2969 43.375
z
" id="CMR17-105"/>
      <path d="
M29.4062 42.0781
L29.4062 39.5
C35.2969 39.5 36.2031 38.8906 36.2031 34.1562
L36.2031 16.125
C36.2031 7.8125 31.7031 0.59375 24.2969 0.59375
C16.0938 0.59375 15.4062 5.4375 15.4062 10.5938
L15.4062 43.1719
L3.29688 42.0781
L3.29688 39.5
C7.29688 39.5 10 39.5 10.0938 35.5312
L10.0938 16.5312
C10.0938 9.89062 10.0938 5.64062 12.7031 2.85938
C14 1.57812 16.5 -1 23.7031 -1
C32.2031 -1 35.5 6.35938 36.2969 8.5
L36.4062 8.5
L36.4062 -0.984375
L48.2969 -0.984375
L48.2969 2
C42.4062 2 41.5 2.59375 41.5 7.39062
L41.5 43.1719
z
" id="CMR17-117"/>
      <path d="
M15 23.3906
C15 33 19.0938 42 26.5938 42
C27.2969 42 28 41.9062 28.7031 41.5938
C28.7031 41.5938 26.5 40.8906 26.5 38.3125
C26.5 35.9062 28.4062 34.9062 29.9062 34.9062
C31.0938 34.9062 33.2969 35.6094 33.2969 38.4062
C33.2969 41.6094 30.0938 43.5938 26.7031 43.5938
C19.0938 43.5938 15.7969 36.2031 14.7969 32.7031
L14.7031 32.7031
L14.7031 43.5938
L3.09375 42.5
L3.09375 39.9062
C9 39.9062 9.90625 39.2969 9.90625 34.5
L9.90625 6.6875
C9.90625 2.875 9.5 2.39062 3.09375 2.39062
L3.09375 -0.203125
C5.5 0 10.0938 0 12.7031 0
C15.5938 0 20.7031 0 23.4062 -0.203125
L23.4062 2.39062
C16.2031 2.39062 15 2.39062 15 6.875
z
" id="CMR17-114"/>
     </defs>
     <g transform="translate(397.824923748 103.48)scale(0.1 -0.1)">
      <use transform="scale(0.9962640099626402)" xlink:href="#CMR17-114"/>
      <use transform="translate(35.28076779946296 0.0)scale(0.9962640099626402)" xlink:href="#CMR17-101"/>
      <use transform="translate(75.7664282621809 0.0)scale(0.9962640099626402)" xlink:href="#CMR17-115"/>
      <use transform="translate(111.56776589741595 0.0)scale(0.9962640099626402)" xlink:href="#CMR17-105"/>
      <use transform="translate(136.43882437928085 0.0)scale(0.9962640099626402)" xlink:href="#CMR17-100"/>
      <use transform="translate(187.33419415959685 0.0)scale(0.9962640099626402)" xlink:href="#CMR17-117"/>
      <use transform="translate(238.22956393991285 0.0)scale(0.9962640099626402)" xlink:href="#CMR17-97"/>
      <use transform="translate(283.9200410569739 0.0)scale(0.9962640099626402)" xlink:href="#CMR17-108"/>
      <use transform="translate(308.79109953883875 0.0)scale(0.9962640099626402)" xlink:href="#CMR17-115"/>
     </g>
    </g>
   </g>
  </g>
  <g id="text_26">
   <!-- $f_\lambda \quad [\frac{\textrm{erg}}{\textrm{cm}^2 \, \textrm{s} \, \textrm{\AA}}]$ -->
   <defs>
    <path d="
M43.2969 61.8125
C43.2969 66.7969 39.2969 70.5938 34.5938 70.5938
C29.9062 70.5938 25.9062 66.7969 25.9062 61.8125
C25.9062 56.7969 29.9062 53 34.5938 53
C39.2969 53 43.2969 56.7969 43.2969 61.8125
M34.5938 54.5938
C30.4062 54.5938 27.7031 57.1875 27.7031 61.8125
C27.7031 66.5 30.5 69 34.5938 69
C38.7969 69 41.5 66.4062 41.5 61.8125
C41.5 57.0938 38.7031 54.5938 34.5938 54.5938" id="CMR17-23"/>
    <path d="
M36.2969 68.4062
C35.7969 69.7031 35.5938 70 34.5938 70
C33.5938 70 33.4062 69.7031 32.9062 68.4062
L11.7031 8.84375
C9.79688 3.48438 5.79688 2.39062 2.29688 2.39062
L2.29688 -0.203125
C4.09375 0 8.09375 0 10 0
C12.5 0 16.5 0 18.9062 -0.203125
L18.9062 2.39062
C14.2031 2.39062 13.5 5.64062 13.5 6.85938
C13.5 7.76562 13.7031 8.28125 13.9062 8.89062
L19.2031 24
L45.4062 24
L51.4062 6.90625
C51.9062 5.70312 51.9062 5.5 51.9062 5.10938
C51.9062 2.39062 47.5938 2.39062 45.7031 2.39062
L45.7031 0
C48.5938 0 53.7969 0 56.9062 0
C59.5 0 64.5 0 66.9062 -0.203125
L66.9062 2.39062
C61.5938 2.39062 59.7969 2.39062 58.5 6.04688
z

M32.2969 60.5312
L44.5 26.5938
L20.0938 26.5938
z
" id="CMR17-65"/>
    <path d="
M34.9062 35
C33 35 30.2031 35 30.2031 31.5156
C30.2031 28.7188 32.5 27.9219 33.7969 27.9219
C34.5 27.9219 37.4062 28.2344 37.4062 31.625
C37.4062 38.5469 30.5938 43.7969 22.9062 43.7969
C12.2969 43.7969 3.29688 34.0312 3.29688 21.2969
C3.29688 8.0625 12.7031 -1 22.9062 -1
C35.2969 -1 38.4062 10.5938 38.4062 11.6875
C38.4062 12.0938 38.2969 12.3906 37.5938 12.3906
C36.9062 12.3906 36.7969 12.2969 36.4062 10.9844
C33.7969 2.8125 28.0938 0.796875 23.7969 0.796875
C17.4062 0.796875 9.70312 6.67188 9.70312 21.3906
C9.70312 36.5312 17.0938 42 23 42
C26.9062 42 32.7031 40.2031 34.9062 35" id="CMR17-99"/>
    <path d="
M11.0938 18.1875
C13 16.6875 16.2969 15 20.2969 15
C28.2031 15 35 21.2031 35 29.5
C35 32.0938 34.2031 36.0938 31.2031 39.2031
C34 42.0625 38.0938 43 40.4062 43
C40.7969 43 41.4062 43 41.9062 42.7656
C41.5 42.6719 40.5938 42.2812 40.5938 40.7344
C40.5938 39.4844 41.5 38.6094 42.7969 38.6094
C44.2969 38.6094 45.0938 39.5781 45.0938 40.8438
C45.0938 42.6719 43.5938 44.5938 40.4062 44.5938
C36.4062 44.5938 32.9062 42.7812 30.0938 40.3125
C27.0938 43.0156 23.5 44 20.2969 44
C12.4062 44 5.59375 37.7969 5.59375 29.5
C5.59375 23.7812 8.90625 20.1875 9.90625 19.1875
C6.90625 15.6875 6.90625 11.6094 6.90625 11.1094
C6.90625 8.51562 7.90625 4.71875 11.2969 2.625
C6.09375 1.32812 2 -2.64062 2 -7.59375
C2 -14.7344 11.5 -20 22.9062 -20
C33.9062 -20 43.7969 -14.9375 43.7969 -7.48438
C43.7969 6 29 6 21.2969 6
C19 6 14.9062 6 14.4062 6.10938
C11.2969 6.60938 9.20312 9.40625 9.20312 12.8906
C9.20312 13.7812 9.20312 16 11.0938 18.1875
M20.2969 16.6875
C11.5 16.6875 11.5 27.5 11.5 29.5156
C11.5 31.5 11.5 42.3125 20.2969 42.3125
C29.0938 42.3125 29.0938 31.5 29.0938 29.5156
C29.0938 27.5 29.0938 16.6875 20.2969 16.6875
M22.9062 -18.2969
C12.9062 -18.2969 6 -13.0469 6 -7.59375
C6 -4.51562 7.70312 -1.64062 9.90625 -0.0625
C12.4062 1.625 13.4062 1.625 20.2031 1.625
C28.4062 1.625 39.7969 1.625 39.7969 -7.59375
C39.7969 -13.0469 32.9062 -18.2969 22.9062 -18.2969" id="CMR17-103"/>
    <path d="
M44.5938 40.0938
C46.5938 40.0938 47.4062 40.0938 47.4062 42
C47.4062 43 46.5938 43 44.7969 43
L36.7031 43
C38.5938 53.5781 40 60.8906 40.7969 64.1719
C41.4062 66.6406 43.5 69 46.0938 69
C48.2031 69 50.2969 68.0938 51.2969 67.1562
C47.4062 66.75 46.2031 63.7812 46.2031 62.0156
C46.2031 59.9531 47.7031 58.7344 49.5938 58.7344
C51.5938 58.7344 54.5938 60.4688 54.5938 64.3594
C54.5938 68.6406 50.4062 71 46 71
C41.7031 71 37.5 67.7188 35.5 63.7188
C33.7031 60.125 32.7031 56.4375 30.4062 43
L23.7031 43
C21.7969 43 20.7969 43 20.7969 41.2031
C20.7969 40.0938 21.4062 40.0938 23.4062 40.0938
L29.7969 40.0938
C28 30.875 23.9062 8.46875 21.5938 -2.14062
C19.9062 -10.7656 18.4062 -18 13.4062 -18
C13.0938 -18 10.2031 -18 8.40625 -16.1094
C13.5 -15.7031 13.5 -11.3438 13.5 -11.25
C13.5 -9.26562 12 -8.07812 10.0938 -8.07812
C8.09375 -8.07812 5.09375 -9.76562 5.09375 -13.5469
C5.09375 -17.8125 9.5 -20 13.4062 -20
C23.5938 -20 27.7969 -1.84375 28.9062 3.10938
C30.7031 10.75 35.5938 37.125 36.0938 40.0938
z
" id="CMMI12-102"/>
   </defs>
   <g transform="translate(28.2048536008 122.325986073)rotate(-90.0)scale(0.1 -0.1)">
    <use transform="translate(0.0 67.8745749581647)scale(0.9962640099626402)" xlink:href="#CMMI12-102"/>
    <use transform="translate(48.083237663449566 52.930660414072236)scale(0.6973817666173724)" xlink:href="#CMMI12-21"/>
    <use transform="translate(179.79508301389322 67.8745749581647)scale(0.9962640099626402)" xlink:href="#CMR17-91"/>
    <use transform="translate(279.56742112099164 118.13679050241284)scale(0.9962640099626402)" xlink:href="#CMR17-101"/>
    <use transform="translate(320.05308158370957 118.13679050241284)scale(0.9962640099626402)" xlink:href="#CMR17-114"/>
    <use transform="translate(355.3338493831725 118.13679050241284)scale(0.9962640099626402)" xlink:href="#CMR17-103"/>
    <use transform="translate(205.8616552673568 0.0)scale(0.9962640099626402)" xlink:href="#CMR17-99"/>
    <use transform="translate(246.34731573007474 0.0)scale(0.9962640099626402)" xlink:href="#CMR17-109"/>
    <use transform="translate(323.2669055981476 23.65500710227273)scale(0.4981320049813201)" xlink:href="#CMR17-50"/>
    <use transform="translate(358.2333005380215 0.0)scale(0.9962640099626402)" xlink:href="#CMR17-115"/>
    <use transform="translate(405.65766254961864 17.61874416251557)scale(0.9962640099626402)" xlink:href="#CMR17-23"/>
    <use transform="translate(405.65766254961864 0.0)scale(0.9962640099626402)" xlink:href="#CMR17-65"/>
    <use transform="translate(475.925606125467 67.8745749581647)scale(0.9962640099626402)" xlink:href="#CMR17-93"/>
    <path d="
M205.862 90.7887
L474.73 90.7887
L474.73 94.7737
L205.862 94.7737
L205.862 90.7887
z
"/>
   </g>
  </g>
 </g>
 <defs>
  <clipPath id="pc949900f65">
   <rect height="73.872" width="388.44" x="56.16" y="87.48"/>
  </clipPath>
  <clipPath id="p365837b872">
   <rect height="73.872" width="388.44" x="56.16" y="13.608"/>
  </clipPath>
 </defs>
</svg>
