<?xml version="1.0" encoding="utf-8" standalone="no"?>
<!DOCTYPE svg PUBLIC "-//W3C//DTD SVG 1.1//EN"
  "http://www.w3.org/Graphics/SVG/1.1/DTD/svg11.dtd">
<!-- Created with matplotlib (http://matplotlib.org/) -->
<svg height="216pt" version="1.1" viewBox="0 0 288 216" width="288pt" xmlns="http://www.w3.org/2000/svg" xmlns:xlink="http://www.w3.org/1999/xlink">
 <defs>
  <style type="text/css">
*{stroke-linecap:butt;stroke-linejoin:round;}
  </style>
 </defs>
 <g id="figure_1">
  <g id="patch_1">
   <path d="
M0 216
L288 216
L288 0
L0 0
z
" style="fill:#ffffff;"/>
  </g>
  <g id="axes_1">
   <g id="patch_2">
    <path d="
M40.32 183.6
L247.68 183.6
L247.68 21.6
L40.32 21.6
z
" style="fill:#ffffff;"/>
   </g>
   <g id="patch_3">
    <path clip-path="url(#p2574a8f0b3)" d="
M157.824 47.0571
L164.736 47.0571
L164.736 42.4286
L157.824 42.4286
L157.824 47.0571
z
" style="fill:none;stroke:#999999;stroke-linejoin:miter;"/>
   </g>
   <g id="line2d_1">
    <defs>
     <path d="
M0 3
C0.795609 3 1.55874 2.6839 2.12132 2.12132
C2.6839 1.55874 3 0.795609 3 0
C3 -0.795609 2.6839 -1.55874 2.12132 -2.12132
C1.55874 -2.6839 0.795609 -3 0 -3
C-0.795609 -3 -1.55874 -2.6839 -2.12132 -2.12132
C-2.6839 -1.55874 -3 -0.795609 -3 0
C-3 0.795609 -2.6839 1.55874 -2.12132 2.12132
C-1.55874 2.6839 -0.795609 3 0 3
z
" id="mdb00ba95ec" style="stroke:#000000;stroke-width:0.5;"/>
    </defs>
    <g clip-path="url(#p2574a8f0b3)">
     <use style="fill:#0000ff;stroke:#000000;stroke-width:0.5;" x="40.32" xlink:href="#mdb00ba95ec" y="167.699744145"/>
     <use style="fill:#0000ff;stroke:#000000;stroke-width:0.5;" x="74.88" xlink:href="#mdb00ba95ec" y="104.732776404"/>
     <use style="fill:#0000ff;stroke:#000000;stroke-width:0.5;" x="109.44" xlink:href="#mdb00ba95ec" y="66.2267031338"/>
     <use style="fill:#0000ff;stroke:#000000;stroke-width:0.5;" x="144.0" xlink:href="#mdb00ba95ec" y="48.2328235447"/>
     <use style="fill:#0000ff;stroke:#000000;stroke-width:0.5;" x="178.56" xlink:href="#mdb00ba95ec" y="43.7168343602"/>
     <use style="fill:#0000ff;stroke:#000000;stroke-width:0.5;" x="213.12" xlink:href="#mdb00ba95ec" y="42.1661193003"/>
     <use style="fill:#0000ff;stroke:#000000;stroke-width:0.5;" x="247.68" xlink:href="#mdb00ba95ec" y="28.2797108851"/>
    </g>
   </g>
   <g id="line2d_2">
    <path clip-path="url(#p2574a8f0b3)" d="
M40.32 167.7
L45.6369 157.429
L50.9538 147.079
L56.2708 136.877
L61.5877 127.014
L66.9046 117.642
L72.2215 108.87
L77.5385 100.769
L82.8554 93.3726
L88.1723 86.6808
L93.4892 80.6688
L98.8062 75.2927
L104.123 70.4981
L109.44 66.2267
L114.757 62.4228
L120.074 59.038
L125.391 56.0345
L130.708 53.3859
L136.025 51.0764
L141.342 49.0985
L146.658 47.449
L151.975 46.1245
L157.292 45.1168
L162.609 44.4089
L167.926 43.9711
L173.243 43.7597
L178.56 43.7168
L183.877 43.7716
L189.194 43.8436
L194.511 43.8473
L199.828 43.6976
L205.145 43.3156
L210.462 42.6348
L215.778 41.6059
L221.095 40.2011
L226.412 38.4171
L231.729 36.2758
L237.046 33.8237
L242.363 31.1295
L247.68 28.2797" style="fill:none;stroke:#0000ff;stroke-linecap:square;stroke-width:0.1;"/>
   </g>
   <g id="line2d_3">
    <path clip-path="url(#p2574a8f0b3)" d="
M40.32 167.7
L45.6369 158.219
L50.9538 148.152
L56.2708 137.894
L61.5877 127.782
L66.9046 118.086
L72.2215 109.003
L77.5385 100.658
L82.8554 93.1111
L88.1723 86.3651
L93.4892 80.3793
L98.8062 75.0839
L104.123 70.3949
L109.44 66.2267
L114.757 62.503
L120.074 59.1638
L125.391 56.169
L130.708 53.4982
L136.025 51.1469
L141.342 49.1209
L146.658 47.4294
L151.975 46.0779
L157.292 45.0616
L162.609 44.3613
L167.926 43.941
L173.243 43.7484
L178.56 43.7168
L183.877 43.77
L189.194 43.827
L194.511 43.8078
L199.828 43.6385
L205.145 43.2547
L210.462 42.6042
L215.778 41.6473
L221.095 40.3554
L226.412 38.7085
L231.729 36.6918
L237.046 34.2922
L242.363 31.4946
L247.68 28.2797" style="fill:none;stroke:#0000ff;stroke-linecap:square;stroke-width:0.1;"/>
   </g>
   <g id="line2d_4">
    <path clip-path="url(#p2574a8f0b3)" d="
M40.32 167.7
L45.6369 155.921
L50.9538 144.964
L56.2708 134.803
L61.5877 125.391
L66.9046 116.666
L72.2215 108.566
L77.5385 101.035
L82.8554 94.0276
L88.1723 87.5122
L93.4892 81.4731
L98.8062 75.9073
L104.123 70.8215
L109.44 66.2267
L114.757 62.1334
L120.074 58.5461
L125.391 55.4598
L130.708 52.8569
L136.025 50.7065
L141.342 48.9657
L146.658 47.5821
L151.975 46.4977
L157.292 45.6539
L162.609 44.9958
L167.926 44.4764
L173.243 44.0588
L178.56 43.7168
L183.877 43.4336
L189.194 43.1975
L194.511 42.997
L199.828 42.8139
L205.145 42.6155
L210.462 42.3488
L215.778 41.9342
L221.095 41.262
L226.412 40.1924
L231.729 38.5571
L237.046 36.1647
L242.363 32.8093
L247.68 28.2797" style="fill:none;stroke:#0000ff;stroke-linecap:square;stroke-width:0.1;"/>
   </g>
   <g id="line2d_5">
    <path clip-path="url(#p2574a8f0b3)" d="
M40.32 167.7
L45.6369 157.416
L50.9538 147.036
L56.2708 136.811
L61.5877 126.943
L66.9046 117.587
L72.2215 108.849
L77.5385 100.791
L82.8554 93.4331
L88.1723 86.7675
L93.4892 80.7622
L98.8062 75.3714
L104.123 70.5433
L109.44 66.2267
L114.757 62.3757
L120.074 58.9525
L125.391 55.9283
L130.708 53.2823
L136.025 51
L141.342 49.0697
L146.658 47.4792
L151.975 46.2132
L157.292 45.25
L162.609 44.5604
L167.926 44.1066
L173.243 43.8429
L178.56 43.7168
L183.877 43.6708
L189.194 43.6444
L194.511 43.5765
L199.828 43.4071
L205.145 43.0783
L210.462 42.5348
L215.778 41.7241
L221.095 40.5948
L226.412 39.0957
L231.729 37.1735
L237.046 34.7719
L242.363 31.8295
L247.68 28.2797" style="fill:none;stroke:#0000ff;stroke-linecap:square;stroke-width:0.1;"/>
   </g>
   <g id="line2d_6">
    <path clip-path="url(#p2574a8f0b3)" d="
M40.32 167.7
L45.6369 156.657
L50.9538 145.996
L56.2708 135.816
L61.5877 126.186
L66.9046 117.146
L72.2215 108.717
L77.5385 100.902
L82.8554 93.6968
L88.1723 87.0877
L93.4892 81.0574
L98.8062 75.5855
L104.123 70.6498
L109.44 66.2267
L114.757 62.2916
L120.074 58.8192
L125.391 55.7839
L130.708 53.16
L136.025 50.9218
L141.342 49.0442
L146.658 47.5022
L151.975 46.2702
L157.292 45.3217
L162.609 44.6276
L167.926 44.155
L173.243 43.866
L178.56 43.7168
L183.877 43.657
L189.194 43.6294
L194.511 43.5716
L199.828 43.4172
L205.145 43.0981
L210.462 42.5477
L215.778 41.7039
L221.095 40.5124
L226.412 38.9291
L231.729 36.9234
L237.046 34.4785
L242.363 31.5929
L247.68 28.2797" style="fill:none;stroke:#0000ff;stroke-linecap:square;stroke-width:0.1;"/>
   </g>
   <g id="line2d_7">
    <path clip-path="url(#p2574a8f0b3)" d="
M40.32 167.7
L45.6369 156.543
L50.9538 145.843
L56.2708 135.674
L61.5877 126.081
L66.9046 117.087
L72.2215 108.7
L77.5385 100.916
L82.8554 93.7289
L88.1723 87.1252
L93.4892 81.0906
L98.8062 75.6086
L104.123 70.6607
L109.44 66.2267
L114.757 62.2838
L120.074 58.8077
L125.391 55.7723
L130.708 53.1508
L136.025 50.9165
L141.342 49.0427
L146.658 47.5033
L151.975 46.2724
L157.292 45.3235
L162.609 44.6281
L167.926 44.1542
L173.243 43.8649
L178.56 43.7168
L183.877 43.6596
L189.194 43.6356
L194.511 43.5812
L199.828 43.4284
L205.145 43.1077
L210.462 42.5519
L215.778 41.699
L221.095 40.4964
L226.412 38.9033
L231.729 36.8923
L237.046 34.4502
L242.363 31.5764
L247.68 28.2797" style="fill:none;stroke:#0000ff;stroke-linecap:square;stroke-width:0.1;"/>
   </g>
   <g id="line2d_8">
    <path clip-path="url(#p2574a8f0b3)" d="
M40.32 167.7
L45.6369 156.182
L50.9538 145.379
L56.2708 135.255
L61.5877 125.778
L66.9046 116.918
L72.2215 108.65
L77.5385 100.957
L82.8554 93.8236
L88.1723 87.2404
L93.4892 81.1986
L98.8062 75.6896
L104.123 70.7031
L109.44 66.2267
L114.757 62.2452
L120.074 58.7404
L125.391 55.691
L130.708 53.073
L136.025 50.8595
L141.342 49.0211
L146.658 47.5262
L151.975 46.3402
L157.292 45.427
L162.609 44.748
L167.926 44.2638
L173.243 43.9337
L178.56 43.7168
L183.877 43.5723
L189.194 43.4593
L194.511 43.3363
L199.828 43.1602
L205.145 42.8844
L210.462 42.4562
L215.778 41.814
L221.095 40.8847
L226.412 39.5803
L231.729 37.7965
L237.046 35.4122
L242.363 32.2901
L247.68 28.2797" style="fill:none;stroke:#0000ff;stroke-linecap:square;stroke-width:0.1;"/>
   </g>
   <g id="line2d_9">
    <path clip-path="url(#p2574a8f0b3)" d="
M40.32 167.7
L45.6369 157.867
L50.9538 147.658
L56.2708 137.411
L61.5877 127.406
L66.9046 117.863
L72.2215 108.934
L77.5385 100.716
L82.8554 93.2508
L88.1723 86.5359
L93.4892 80.5372
L98.8062 75.1982
L104.123 70.4513
L109.44 66.2267
L114.757 62.4603
L120.074 59.0989
L125.391 56.1026
L130.708 53.4463
L136.025 51.1174
L141.342 49.1128
L146.658 47.4348
L151.975 46.0852
L157.292 45.0606
L162.609 44.3473
L167.926 43.9177
L173.243 43.7278
L178.56 43.7168
L183.877 43.8089
L189.194 43.9162
L194.511 43.9449
L199.828 43.8012
L205.145 43.3994
L210.462 42.6697
L215.778 41.565
L221.095 40.0667
L226.412 38.1889
L231.729 35.979
L237.046 33.5164
L242.363 30.9077
L247.68 28.2797" style="fill:none;stroke:#0000ff;stroke-linecap:square;stroke-width:0.1;"/>
   </g>
   <g id="line2d_10">
    <path clip-path="url(#p2574a8f0b3)" d="
M40.32 167.7
L45.6369 156.445
L50.9538 145.724
L56.2708 135.572
L61.5877 126.01
L66.9046 117.048
L72.2215 108.688
L77.5385 100.926
L82.8554 93.7519
L88.1723 87.1546
L93.4892 81.1199
L98.8062 75.632
L104.123 70.6738
L109.44 66.2267
L114.757 62.2705
L120.074 58.7833
L125.391 55.7418
L130.708 53.1209
L136.025 50.8942
L141.342 49.0342
L146.658 47.5123
L151.975 46.2991
L157.292 45.3637
L162.609 44.6738
L167.926 44.195
L173.243 43.8897
L178.56 43.7168
L183.877 43.6303
L189.194 43.579
L194.511 43.5063
L199.828 43.3509
L205.145 43.0472
L210.462 42.5278
L215.778 41.7257
L221.095 40.5781
L226.412 39.0303
L231.729 37.0399
L237.046 34.5822
L242.363 31.6543
L247.68 28.2797" style="fill:none;stroke:#0000ff;stroke-linecap:square;stroke-width:0.1;"/>
   </g>
   <g id="line2d_11">
    <path clip-path="url(#p2574a8f0b3)" d="
M40.32 167.7
L45.6369 156.978
L50.9538 146.452
L56.2708 136.268
L61.5877 126.541
L66.9046 117.36
L72.2215 108.783
L77.5385 100.844
L82.8554 93.5551
L88.1723 86.9094
L93.4892 80.8866
L98.8062 75.4564
L104.123 70.5827
L109.44 66.2267
L114.757 62.3502
L120.074 58.9176
L125.391 55.8975
L130.708 53.2634
L136.025 50.9935
L141.342 49.0698
L146.658 47.4767
L151.975 46.1989
L157.292 45.2192
L162.609 44.5152
L167.926 44.0576
L173.243 43.8079
L178.56 43.7168
L183.877 43.7245
L189.194 43.7608
L194.511 43.7482
L199.828 43.6051
L205.145 43.2508
L210.462 42.6119
L215.778 41.628
L221.095 40.2592
L226.412 38.4915
L231.729 36.3418
L237.046 33.8608
L242.363 31.1341
L247.68 28.2797" style="fill:none;stroke:#0000ff;stroke-linecap:square;stroke-width:0.1;"/>
   </g>
   <g id="line2d_12">
    <path clip-path="url(#p2574a8f0b3)" d="
M40.32 167.7
L45.6369 156.618
L50.9538 145.945
L56.2708 135.767
L61.5877 126.147
L66.9046 117.121
L72.2215 108.708
L77.5385 100.911
L82.8554 93.7214
L88.1723 87.1233
L93.4892 81.0967
L98.8062 75.6195
L104.123 70.67
L109.44 66.2267
L114.757 62.269
L120.074 58.7768
L125.391 55.7293
L130.708 53.1049
L136.025 50.8799
L141.342 49.0279
L146.658 47.5198
L151.975 46.3235
L157.292 45.4038
L162.609 44.7234
L167.926 44.2428
L173.243 43.9212
L178.56 43.7168
L183.877 43.587
L189.194 43.4884
L194.511 43.3763
L199.828 43.2038
L205.145 42.9208
L210.462 42.4718
L215.778 41.7951
L221.095 40.8199
L226.412 39.4659
L231.729 37.6417
L237.046 35.2451
L242.363 32.1642
L247.68 28.2797" style="fill:none;stroke:#0000ff;stroke-linecap:square;stroke-width:0.1;"/>
   </g>
   <g id="line2d_13">
    <path clip-path="url(#p2574a8f0b3)" d="
M40.32 167.7
L45.6369 157.341
L50.9538 146.969
L56.2708 136.783
L61.5877 126.95
L66.9046 117.609
L72.2215 108.862
L77.5385 100.775
L82.8554 93.3826
L88.1723 86.6889
L93.4892 80.6721
L98.8062 75.292
L104.123 70.4961
L109.44 66.2267
L114.757 62.4274
L120.074 59.0481
L125.391 56.0488
L130.708 53.4013
L136.025 51.0886
L141.342 49.1034
L146.658 47.4436
L151.975 46.1081
L157.292 45.0917
L162.609 44.3798
L167.926 43.9447
L173.243 43.7435
L178.56 43.7168
L183.877 43.7911
L189.194 43.8815
L194.511 43.8977
L199.828 43.7499
L205.145 43.3566
L210.462 42.6512
L215.778 41.5877
L221.095 40.1456
L226.412 38.331
L231.729 36.1761
L237.046 33.7351
L242.363 31.0776
L247.68 28.2797" style="fill:none;stroke:#0000ff;stroke-linecap:square;stroke-width:0.1;"/>
   </g>
   <g id="line2d_14">
    <path clip-path="url(#p2574a8f0b3)" d="
M40.32 167.7
L45.6369 157.891
L50.9538 147.664
L56.2708 137.389
L61.5877 127.368
L66.9046 117.827
L72.2215 108.919
L77.5385 100.733
L82.8554 93.2993
L88.1723 86.6074
L93.4892 80.6157
L98.8062 75.2651
L104.123 70.4899
L109.44 66.2267
L114.757 62.4201
L120.074 59.026
L125.391 56.0127
L130.708 53.3595
L136.025 51.0541
L141.342 49.0893
L146.658 47.4592
L151.975 46.1554
L157.292 45.1638
L162.609 44.4621
L167.926 44.0179
L173.243 43.7876
L178.56 43.7168
L183.877 43.7409
L189.194 43.7868
L194.511 43.7759
L199.828 43.6276
L205.145 43.2642
L210.462 42.6157
L215.778 41.6254
L221.095 40.256
L226.412 38.494
L231.729 36.3544
L237.046 33.8828
L242.363 31.1561
L247.68 28.2797" style="fill:none;stroke:#0000ff;stroke-linecap:square;stroke-width:0.1;"/>
   </g>
   <g id="line2d_15">
    <path clip-path="url(#p2574a8f0b3)" d="
M40.32 167.7
L45.6369 156.949
L50.9538 146.44
L56.2708 136.279
L61.5877 126.565
L66.9046 117.382
L72.2215 108.791
L77.5385 100.836
L82.8554 93.5334
L88.1723 86.8812
L93.4892 80.8598
L98.8062 75.4371
L104.123 70.5735
L109.44 66.2267
L114.757 62.3559
L120.074 58.9246
L125.391 55.9021
L130.708 53.2639
L136.025 50.9909
L141.342 49.0677
L146.658 47.4799
L151.975 46.2114
L157.292 45.2424
L162.609 44.5466
L167.926 44.0901
L173.243 43.8304
L178.56 43.7168
L183.877 43.6911
L189.194 43.689
L194.511 43.6428
L199.828 43.4839
L205.145 43.1454
L210.462 42.5648
L215.778 41.6868
L221.095 40.4651
L226.412 38.8633
L231.729 36.8557
L237.046 34.4266
L242.363 31.5683
L247.68 28.2797" style="fill:none;stroke:#0000ff;stroke-linecap:square;stroke-width:0.1;"/>
   </g>
   <g id="line2d_16">
    <path clip-path="url(#p2574a8f0b3)" d="
M40.32 167.7
L45.6369 157.294
L50.9538 146.901
L56.2708 136.711
L61.5877 126.89
L66.9046 117.569
L72.2215 108.848
L77.5385 100.788
L82.8554 93.4177
L88.1723 86.7373
L93.4892 80.7231
L98.8062 75.3342
L104.123 70.5201
L109.44 66.2267
L114.757 62.4026
L120.074 59.0032
L125.391 55.9929
L130.708 53.3466
L136.025 51.0481
L141.342 49.088
L146.658 47.4599
L151.975 46.1563
L157.292 45.1647
L162.609 44.4637
L167.926 44.0206
L173.243 43.7906
L178.56 43.7168
L183.877 43.7326
L189.194 43.7644
L194.511 43.7365
L199.828 43.5749
L205.145 43.2119
L210.462 42.5895
L215.778 41.6615
L221.095 40.3936
L226.412 38.7623
L231.729 36.7513
L237.046 34.3468
L242.363 31.5317
L247.68 28.2797" style="fill:none;stroke:#0000ff;stroke-linecap:square;stroke-width:0.1;"/>
   </g>
   <g id="line2d_17">
    <path clip-path="url(#p2574a8f0b3)" d="
M40.32 167.7
L45.6369 156.795
L50.9538 146.225
L56.2708 136.074
L61.5877 126.412
L66.9046 117.295
L72.2215 108.767
L77.5385 100.855
L82.8554 93.5752
L88.1723 86.9258
L93.4892 80.8944
L98.8062 75.4567
L104.123 70.5801
L109.44 66.2267
L114.757 62.3568
L120.074 58.9319
L125.391 55.9173
L130.708 53.284
L136.025 51.0093
L141.342 49.0759
L146.658 47.4703
L151.975 46.1803
L157.292 45.1918
L162.609 44.485
L167.926 44.0317
L173.243 43.7927
L178.56 43.7168
L183.877 43.7406
L189.194 43.7904
L194.511 43.7851
L199.828 43.6411
L205.145 43.2773
L210.462 42.6218
L215.778 41.6177
L221.095 40.2293
L226.412 38.4472
L231.729 36.2921
L237.046 33.817
L242.363 31.1074
L247.68 28.2797" style="fill:none;stroke:#0000ff;stroke-linecap:square;stroke-width:0.1;"/>
   </g>
   <g id="line2d_18">
    <path clip-path="url(#p2574a8f0b3)" d="
M40.32 167.7
L45.6369 158.08
L50.9538 148.009
L56.2708 137.804
L61.5877 127.751
L66.9046 118.091
L72.2215 109.011
L77.5385 100.644
L82.8554 93.0604
L88.1723 86.2805
L93.4892 80.2778
L98.8062 74.9914
L104.123 70.3384
L109.44 66.2267
L114.757 62.5678
L120.074 59.286
L125.391 56.3261
L130.708 53.6558
L136.025 51.2661
L141.342 49.1669
L146.658 47.3799
L151.975 45.93
L157.292 44.8357
L162.609 44.1002
L167.926 43.7041
L173.243 43.601
L178.56 43.7168
L183.877 43.9524
L189.194 44.1904
L194.511 44.3052
L199.828 44.1747
L205.145 43.6944
L210.462 42.7897
L215.778 41.4279
L221.095 39.6264
L226.412 37.4572
L231.729 35.0462
L237.046 32.5679
L242.363 30.2343
L247.68 28.2797" style="fill:none;stroke:#0000ff;stroke-linecap:square;stroke-width:0.1;"/>
   </g>
   <g id="line2d_19">
    <path clip-path="url(#p2574a8f0b3)" d="
M40.32 167.7
L45.6369 157.266
L50.9538 146.831
L56.2708 136.616
L61.5877 126.797
L66.9046 117.504
L72.2215 108.825
L77.5385 100.81
L82.8554 93.477
L88.1723 86.8172
L93.4892 80.804
L98.8062 75.3982
L104.123 70.5546
L109.44 66.2267
L114.757 62.3709
L120.074 58.9491
L125.391 55.93
L130.708 53.2893
L136.025 51.0087
L141.342 49.0742
L146.658 47.4733
L151.975 46.1926
L157.292 45.2146
L162.609 44.5153
L167.926 44.0623
L173.243 43.8134
L178.56 43.7168
L183.877 43.7116
L189.194 43.7297
L194.511 43.6985
L199.828 43.544
L205.145 43.1949
L210.462 42.5859
L215.778 41.6615
L221.095 40.3791
L226.412 38.7119
L231.729 36.6503
L237.046 34.2033
L242.363 31.398
L247.68 28.2797" style="fill:none;stroke:#0000ff;stroke-linecap:square;stroke-width:0.1;"/>
   </g>
   <g id="line2d_20">
    <path clip-path="url(#p2574a8f0b3)" d="
M40.32 167.7
L45.6369 157.181
L50.9538 146.706
L56.2708 136.486
L61.5877 126.689
L66.9046 117.435
L72.2215 108.802
L77.5385 100.831
L82.8554 93.5324
L88.1723 86.8921
L93.4892 80.8812
L98.8062 75.4611
L104.123 70.5898
L109.44 66.2267
L114.757 62.3353
L120.074 58.8848
L125.391 55.8504
L130.708 53.2117
L136.025 50.9514
L141.342 49.0525
L146.658 47.4962
L151.975 46.2601
L157.292 45.3165
L162.609 44.632
L167.926 44.1674
L173.243 43.8784
L178.56 43.7168
L183.877 43.6319
L189.194 43.5712
L194.511 43.4819
L199.828 43.3107
L205.145 43.0035
L210.462 42.5051
L215.778 41.7573
L221.095 40.6986
L226.412 39.2626
L231.729 37.3782
L237.046 34.9706
L242.363 31.9628
L247.68 28.2797" style="fill:none;stroke:#0000ff;stroke-linecap:square;stroke-width:0.1;"/>
   </g>
   <g id="line2d_21">
    <path clip-path="url(#p2574a8f0b3)" d="
M40.32 167.7
L45.6369 156.934
L50.9538 146.394
L56.2708 136.213
L61.5877 126.5
L66.9046 117.336
L72.2215 108.776
L77.5385 100.851
L82.8554 93.5713
L88.1723 86.9303
L93.4892 80.9074
L98.8062 75.4729
L104.123 70.5917
L109.44 66.2267
L114.757 62.3413
L120.074 58.9017
L125.391 55.8779
L130.708 53.2443
L136.025 50.9793
L141.342 49.0643
L146.658 47.4825
L151.975 46.2163
L157.292 45.2457
L162.609 44.5461
L167.926 44.0859
L173.243 43.8257
L178.56 43.7168
L183.877 43.7017
L189.194 43.7145
L194.511 43.6837
L199.828 43.5342
L205.145 43.1917
L210.462 42.5865
L215.778 41.6587
L221.095 40.363
L226.412 38.6728
L231.729 36.5841
L237.046 34.1186
L242.363 31.3252
L247.68 28.2797" style="fill:none;stroke:#0000ff;stroke-linecap:square;stroke-width:0.1;"/>
   </g>
   <g id="line2d_22">
    <path clip-path="url(#p2574a8f0b3)" d="
M40.32 167.7
L45.6369 157.06
L50.9538 146.541
L56.2708 136.332
L61.5877 126.574
L66.9046 117.369
L72.2215 108.783
L77.5385 100.847
L82.8554 93.5691
L88.1723 86.9353
L93.4892 80.9195
L98.8062 75.4876
L104.123 70.6023
L109.44 66.2267
L114.757 62.3269
L120.074 58.8731
L125.391 55.8396
L130.708 53.2046
L136.025 50.9484
L141.342 49.0522
L146.658 47.4958
L151.975 46.2567
L157.292 45.3084
L162.609 44.6194
L167.926 44.1532
L173.243 43.868
L178.56 43.7168
L183.877 43.6485
L189.194 43.6081
L194.511 43.5373
L199.828 43.3756
L205.145 43.0611
L210.462 42.5312
L215.778 41.7242
L221.095 40.581
L226.412 39.0474
L231.729 37.0773
L237.046 34.6357
L242.363 31.7032
L247.68 28.2797" style="fill:none;stroke:#0000ff;stroke-linecap:square;stroke-width:0.1;"/>
   </g>
   <g id="line2d_23">
    <path clip-path="url(#p2574a8f0b3)" d="
M40.32 167.7
L45.6369 156.975
L50.9538 146.474
L56.2708 136.313
L61.5877 126.594
L66.9046 117.401
L72.2215 108.799
L77.5385 100.829
L82.8554 93.5129
L88.1723 86.8515
L93.4892 80.8275
L98.8062 75.4098
L104.123 70.5578
L109.44 66.2267
L114.757 62.372
L120.074 58.9532
L125.391 55.9367
L130.708 53.2965
L136.025 51.014
L141.342 49.076
L146.658 47.4717
L151.975 46.1892
L157.292 45.2118
L162.609 44.5152
L167.926 44.0652
L173.243 43.8173
L178.56 43.7168
L183.877 43.7014
L189.194 43.7035
L194.511 43.6544
L199.828 43.4873
L205.145 43.1405
L210.462 42.5595
L215.778 41.697
L221.095 40.5123
L226.412 38.9676
L231.729 37.024
L237.046 34.6363
L242.363 31.7467
L247.68 28.2797" style="fill:none;stroke:#0000ff;stroke-linecap:square;stroke-width:0.1;"/>
   </g>
   <g id="line2d_24">
    <path clip-path="url(#p2574a8f0b3)" d="
M40.32 167.7
L45.6369 156.389
L50.9538 145.622
L56.2708 135.454
L61.5877 125.905
L66.9046 116.979
L72.2215 108.665
L77.5385 100.947
L82.8554 93.8048
L88.1723 87.2229
L93.4892 81.1863
L98.8062 75.6825
L104.123 70.7001
L109.44 66.2267
L114.757 62.2481
L120.074 58.7464
L125.391 55.7002
L130.708 53.0842
L136.025 50.8697
L141.342 49.0258
L146.658 47.5204
L151.975 46.3204
L157.292 45.3929
L162.609 44.7044
L167.926 44.2203
L173.243 43.9043
L178.56 43.7168
L183.877 43.6143
L189.194 43.5482
L194.511 43.4649
L199.828 43.306
L205.145 43.0095
L210.462 42.5112
L215.778 41.7465
L221.095 40.6524
L226.412 39.1689
L231.729 37.24
L237.046 34.814
L242.363 31.8426
L247.68 28.2797" style="fill:none;stroke:#0000ff;stroke-linecap:square;stroke-width:0.1;"/>
   </g>
   <g id="line2d_25">
    <path clip-path="url(#p2574a8f0b3)" d="
M40.32 167.7
L45.6369 157.451
L50.9538 147.113
L56.2708 136.913
L61.5877 127.043
L66.9046 117.659
L72.2215 108.875
L77.5385 100.764
L82.8554 93.3614
L88.1723 86.6673
L93.4892 80.6566
L98.8062 75.2844
L104.123 70.4944
L109.44 66.2267
L114.757 62.4247
L120.074 59.0398
L125.391 56.0346
L130.708 53.3839
L136.025 51.0735
L141.342 49.0968
L146.658 47.4513
L151.975 46.1332
L157.292 45.1327
L162.609 44.4301
L167.926 43.993
L173.243 43.775
L178.56 43.7168
L183.877 43.7486
L189.194 43.7936
L194.511 43.7731
L199.828 43.6112
L205.145 43.2395
L210.462 42.6004
L215.778 41.6493
L221.095 40.3547
L226.412 38.6971
L231.729 36.6661
L237.046 34.2562
L242.363 31.4632
L247.68 28.2797" style="fill:none;stroke:#0000ff;stroke-linecap:square;stroke-width:0.1;"/>
   </g>
   <g id="line2d_26">
    <path clip-path="url(#p2574a8f0b3)" d="
M40.32 167.7
L45.6369 157.272
L50.9538 146.868
L56.2708 136.68
L61.5877 126.868
L66.9046 117.559
L72.2215 108.846
L77.5385 100.789
L82.8554 93.4182
L88.1723 86.7345
L93.4892 80.7167
L98.8062 75.3264
L104.123 70.5144
L109.44 66.2267
L114.757 62.4106
L120.074 59.0192
L125.391 56.0145
L130.708 53.3691
L136.025 51.0657
L141.342 49.095
L146.658 47.4522
L151.975 46.133
L157.292 45.1285
L162.609 44.4211
L167.926 43.9814
L173.243 43.7659
L178.56 43.7168
L183.877 43.7641
L189.194 43.8282
L194.511 43.8253
L199.828 43.6724
L205.145 43.2935
L210.462 42.6247
L215.778 41.6188
L221.095 40.2481
L226.412 38.5053
L231.729 36.4024
L237.046 33.9686
L242.363 31.2449
L247.68 28.2797" style="fill:none;stroke:#0000ff;stroke-linecap:square;stroke-width:0.1;"/>
   </g>
   <g id="line2d_27">
    <path clip-path="url(#p2574a8f0b3)" d="
M40.32 167.7
L45.6369 157.13
L50.9538 146.647
L56.2708 136.44
L61.5877 126.661
L66.9046 117.423
L72.2215 108.8
L77.5385 100.833
L82.8554 93.5342
L88.1723 86.8923
L93.4892 80.8797
L98.8062 75.4589
L104.123 70.5882
L109.44 66.2267
L114.757 62.3372
L120.074 58.8883
L125.391 55.8545
L130.708 53.2154
L136.025 50.9537
L141.342 49.0532
L146.658 47.4957
L151.975 46.2591
L157.292 45.3161
L162.609 44.6328
L167.926 44.1693
L173.243 43.8804
L178.56 43.7168
L183.877 43.6273
L189.194 43.5597
L194.511 43.4628
L199.828 43.2863
L205.145 42.9802
L210.462 42.4938
L215.778 41.7726
L221.095 40.756
L226.412 39.3733
L231.729 37.5411
L237.046 35.1608
L242.363 32.1172
L247.68 28.2797" style="fill:none;stroke:#0000ff;stroke-linecap:square;stroke-width:0.1;"/>
   </g>
   <g id="line2d_28">
    <path clip-path="url(#p2574a8f0b3)" d="
M40.32 167.7
L45.6369 157.71
L50.9538 147.474
L56.2708 137.263
L61.5877 127.313
L66.9046 117.818
L72.2215 108.924
L77.5385 100.723
L82.8554 93.2624
L88.1723 86.5455
L93.4892 80.5426
L98.8062 75.2003
L104.123 70.4517
L109.44 66.2267
L114.757 62.46
L120.074 59.0974
L125.391 56.0992
L130.708 53.4411
L136.025 51.1118
L141.342 49.1101
L146.658 47.4385
L151.975 46.0985
L157.292 45.0842
L162.609 44.3785
L167.926 43.9495
L173.243 43.7497
L178.56 43.7168
L183.877 43.7768
L189.194 43.8475
L194.511 43.8447
L199.828 43.6868
L205.145 43.3007
L210.462 42.6261
L215.778 41.6187
L221.095 40.252
L226.412 38.5176
L231.729 36.4239
L237.046 33.9944
L242.363 31.2648
L247.68 28.2797" style="fill:none;stroke:#0000ff;stroke-linecap:square;stroke-width:0.1;"/>
   </g>
   <g id="line2d_29">
    <path clip-path="url(#p2574a8f0b3)" d="
M40.32 167.7
L45.6369 157.137
L50.9538 146.641
L56.2708 136.419
L61.5877 126.634
L66.9046 117.4
L72.2215 108.791
L77.5385 100.842
L82.8554 93.5586
L88.1723 86.9264
L93.4892 80.9152
L98.8062 75.4874
L104.123 70.6038
L109.44 66.2267
L114.757 62.3227
L120.074 58.8637
L125.391 55.826
L130.708 53.1898
L136.025 50.9365
L141.342 49.0473
L146.658 47.5012
L151.975 46.2736
L157.292 45.3351
L162.609 44.6513
L167.926 44.1832
L173.243 43.8873
L178.56 43.7168
L183.877 43.6226
L189.194 43.554
L194.511 43.4594
L199.828 43.2869
L205.145 42.9839
L210.462 42.4965
L215.778 41.7681
L221.095 40.7378
L226.412 39.3377
L231.729 37.4902
L237.046 35.105
L242.363 32.0762
L247.68 28.2797" style="fill:none;stroke:#0000ff;stroke-linecap:square;stroke-width:0.1;"/>
   </g>
   <g id="line2d_30">
    <path clip-path="url(#p2574a8f0b3)" d="
M40.32 167.7
L45.6369 157.422
L50.9538 147.055
L56.2708 136.838
L61.5877 126.97
L66.9046 117.606
L72.2215 108.856
L77.5385 100.784
L82.8554 93.4158
L88.1723 86.7445
L93.4892 80.7391
L98.8062 75.3534
L104.123 70.5338
L109.44 66.2267
L114.757 62.3841
L120.074 58.9665
L125.391 55.9442
L130.708 53.2965
L136.025 51.0096
L141.342 49.073
L146.658 47.476
L151.975 46.2046
L157.292 45.238
L162.609 44.5475
L167.926 44.0956
L173.243 43.8364
L178.56 43.7168
L183.877 43.6787
L189.194 43.6606
L194.511 43.5997
L199.828 43.4338
L205.145 43.102
L210.462 42.5459
L215.778 41.7096
L221.095 40.5408
L226.412 38.9912
L231.729 37.0186
L237.046 34.5885
L242.363 31.6781
L247.68 28.2797" style="fill:none;stroke:#0000ff;stroke-linecap:square;stroke-width:0.1;"/>
   </g>
   <g id="line2d_31">
    <path clip-path="url(#p2574a8f0b3)" d="
M40.32 167.7
L45.6369 156.911
L50.9538 146.336
L56.2708 136.133
L61.5877 126.42
L66.9046 117.278
L72.2215 108.755
L77.5385 100.872
L82.8554 93.6282
L88.1723 87.0093
L93.4892 80.9901
L98.8062 75.5406
L104.123 70.6297
L109.44 66.2267
L114.757 62.3034
L120.074 58.8341
L125.391 55.7953
L130.708 53.165
L136.025 50.9216
L141.342 49.0428
L146.658 47.5048
L151.975 46.2812
L157.292 45.3423
L162.609 44.6552
L167.926 44.183
L173.243 43.8851
L178.56 43.7168
L183.877 43.63
L189.194 43.5728
L194.511 43.4907
L199.828 43.3263
L205.145 43.0207
L210.462 42.5139
L215.778 41.7454
L221.095 40.655
L226.412 39.1832
L231.729 37.2706
L237.046 34.8575
L242.363 31.8823
L247.68 28.2797" style="fill:none;stroke:#0000ff;stroke-linecap:square;stroke-width:0.1;"/>
   </g>
   <g id="line2d_32">
    <path clip-path="url(#p2574a8f0b3)" d="
M40.32 167.7
L45.6369 156.509
L50.9538 145.818
L56.2708 135.669
L61.5877 126.088
L66.9046 117.096
L72.2215 108.703
L77.5385 100.913
L82.8554 93.7209
L88.1723 87.1168
L93.4892 81.0853
L98.8062 75.6076
L104.123 70.6622
L109.44 66.2267
L114.757 62.278
L120.074 58.7931
L125.391 55.7493
L130.708 53.1238
L136.025 50.8932
L141.342 49.0327
L146.658 47.5152
L151.975 46.3108
L157.292 45.3865
L162.609 44.7056
L167.926 44.2286
L173.243 43.9136
L178.56 43.7168
L183.877 43.5937
L189.194 43.499
L194.511 43.3874
L199.828 43.2123
L205.145 42.9249
L210.462 42.4725
L215.778 41.7955
L221.095 40.8252
L226.412 39.4812
L231.729 37.6694
L237.046 35.2816
L242.363 32.1959
L247.68 28.2797" style="fill:none;stroke:#0000ff;stroke-linecap:square;stroke-width:0.1;"/>
   </g>
   <g id="line2d_33">
    <path clip-path="url(#p2574a8f0b3)" d="
M40.32 167.7
L45.6369 156.9
L50.9538 146.288
L56.2708 136.055
L61.5877 126.335
L66.9046 117.213
L72.2215 108.73
L77.5385 100.897
L82.8554 93.6998
L88.1723 87.112
L93.4892 81.1009
L98.8062 75.6341
L104.123 70.6835
L109.44 66.2267
L114.757 62.2467
L120.074 58.7304
L125.391 55.6654
L130.708 53.0373
L136.025 50.8266
L141.342 49.0066
L146.658 47.5432
L151.975 46.3949
L157.292 45.5147
L162.609 44.8532
L167.926 44.3619
L173.243 43.9959
L178.56 43.7168
L183.877 43.4935
L189.194 43.3012
L194.511 43.1193
L199.828 42.926
L205.145 42.6925
L210.462 42.3754
L215.778 41.9093
L221.095 41.1997
L226.412 40.1183
L231.729 38.5004
L237.046 36.1456
L242.363 32.8231
L247.68 28.2797" style="fill:none;stroke:#0000ff;stroke-linecap:square;stroke-width:0.1;"/>
   </g>
   <g id="line2d_34">
    <path clip-path="url(#p2574a8f0b3)" d="
M40.32 167.7
L45.6369 156.768
L50.9538 146.206
L56.2708 136.071
L61.5877 126.42
L66.9046 117.306
L72.2215 108.772
L77.5385 100.85
L82.8554 93.5599
L88.1723 86.9044
L93.4892 80.8724
L98.8062 75.4394
L104.123 70.571
L109.44 66.2267
L114.757 62.3641
L120.074 58.943
L125.391 55.9283
L130.708 53.2918
L136.025 51.0128
L141.342 49.0763
L146.658 47.4708
L151.975 46.1848
L157.292 45.2031
L162.609 44.5033
L167.926 44.0531
L173.243 43.8091
L178.56 43.7168
L183.877 43.7127
L189.194 43.7268
L194.511 43.687
L199.828 43.523
L205.145 43.17
L210.462 42.5719
L215.778 41.6823
L221.095 40.4637
L226.412 38.8849
L231.729 36.9166
L237.046 34.5254
L242.363 31.667
L247.68 28.2797" style="fill:none;stroke:#0000ff;stroke-linecap:square;stroke-width:0.1;"/>
   </g>
   <g id="line2d_35">
    <path clip-path="url(#p2574a8f0b3)" d="
M40.32 167.7
L45.6369 156.981
L50.9538 146.462
L56.2708 136.282
L61.5877 126.555
L66.9046 117.37
L72.2215 108.786
L77.5385 100.841
L82.8554 93.5478
L88.1723 86.9002
L93.4892 80.878
L98.8062 75.4502
L104.123 70.5797
L109.44 66.2267
L114.757 62.3523
L120.074 58.9205
L125.391 55.9002
L130.708 53.2651
L136.025 50.9941
L141.342 49.0698
L146.658 47.4769
L151.975 46.2003
L157.292 45.2221
L162.609 44.5195
L167.926 44.0623
L173.243 43.8113
L178.56 43.7168
L183.877 43.719
L189.194 43.7488
L194.511 43.7302
L199.828 43.5839
L205.145 43.232
L210.462 42.6033
L215.778 41.639
L221.095 40.2985
L226.412 38.5638
L231.729 36.4439
L237.046 33.9755
L242.363 31.224
L247.68 28.2797" style="fill:none;stroke:#0000ff;stroke-linecap:square;stroke-width:0.1;"/>
   </g>
   <g id="line2d_36">
    <path clip-path="url(#p2574a8f0b3)" d="
M40.32 167.7
L45.6369 157.01
L50.9538 146.525
L56.2708 136.366
L61.5877 126.639
L66.9046 117.43
L72.2215 108.808
L77.5385 100.819
L82.8554 93.4868
L88.1723 86.8146
L93.4892 80.7875
L98.8062 75.3755
L104.123 70.5376
L109.44 66.2267
L114.757 62.3945
L120.074 58.9959
L125.391 55.992
L130.708 53.3529
L136.025 51.0575
L141.342 49.0932
L146.658 47.4528
L151.975 46.1314
L157.292 45.1212
L162.609 44.4076
L167.926 43.9649
L173.243 43.7532
L178.56 43.7168
L183.877 43.7852
L189.194 43.8752
L194.511 43.8958
L199.828 43.7547
L205.145 43.3658
L210.462 42.6571
L215.778 41.5785
L221.095 40.1077
L226.412 38.2546
L231.729 36.0617
L237.046 33.6017
L242.363 30.9712
L247.68 28.2797" style="fill:none;stroke:#0000ff;stroke-linecap:square;stroke-width:0.1;"/>
   </g>
   <g id="line2d_37">
    <path clip-path="url(#p2574a8f0b3)" d="
M40.32 167.7
L45.6369 157.402
L50.9538 147.035
L56.2708 136.829
L61.5877 126.973
L66.9046 117.616
L72.2215 108.861
L77.5385 100.777
L82.8554 93.391
L88.1723 86.7037
L93.4892 80.69
L98.8062 75.3081
L104.123 70.5056
L109.44 66.2267
L114.757 62.4175
L120.074 59.0305
L125.391 56.0276
L130.708 53.3814
L136.025 51.0747
L141.342 49.0984
L146.658 47.4485
L151.975 46.1216
L157.292 45.1104
L162.609 44.3992
L167.926 43.9604
L173.243 43.752
L178.56 43.7168
L183.877 43.7834
L189.194 43.8691
L194.511 43.8847
L199.828 43.7405
L205.145 43.3527
L210.462 42.6512
L215.778 41.5856
L221.095 40.1314
L226.412 38.2934
L231.729 36.108
L237.046 33.6428
L242.363 30.9938
L247.68 28.2797" style="fill:none;stroke:#0000ff;stroke-linecap:square;stroke-width:0.1;"/>
   </g>
   <g id="line2d_38">
    <path clip-path="url(#p2574a8f0b3)" d="
M40.32 167.7
L45.6369 157.366
L50.9538 147
L56.2708 136.807
L61.5877 126.965
L66.9046 117.615
L72.2215 108.862
L77.5385 100.775
L82.8554 93.3855
L88.1723 86.6956
L93.4892 80.6818
L98.8062 75.3019
L104.123 70.5027
L109.44 66.2267
L114.757 62.4189
L120.074 59.0314
L125.391 56.0265
L130.708 53.378
L136.025 51.0704
L141.342 49.0961
L146.658 47.4517
L151.975 46.1331
L157.292 45.1311
L162.609 44.4267
L167.926 43.9887
L173.243 43.7717
L178.56 43.7168
L183.877 43.7538
L189.194 43.8049
L194.511 43.7893
L199.828 43.6293
L205.145 43.2546
L210.462 42.6068
L215.778 41.6419
L221.095 40.3312
L226.412 38.6592
L231.729 36.6203
L237.046 34.2138
L242.363 31.4371
L247.68 28.2797" style="fill:none;stroke:#0000ff;stroke-linecap:square;stroke-width:0.1;"/>
   </g>
   <g id="line2d_39">
    <path clip-path="url(#p2574a8f0b3)" d="
M40.32 167.7
L45.6369 156.566
L50.9538 145.868
L56.2708 135.687
L61.5877 126.078
L66.9046 117.075
L72.2215 108.692
L77.5385 100.926
L82.8554 93.7638
L88.1723 87.1831
L93.4892 81.1607
L98.8062 75.6734
L104.123 70.7011
L109.44 66.2267
L114.757 62.2363
L120.074 58.7169
L125.391 55.6544
L130.708 53.0316
L136.025 50.8256
L141.342 49.0074
L146.658 47.5414
L151.975 46.3863
L157.292 45.4976
L162.609 44.8291
L167.926 44.3363
L173.243 43.9778
L178.56 43.7168
L183.877 43.5212
L189.194 43.3615
L194.511 43.2086
L199.828 43.0298
L205.145 42.7837
L210.462 42.4164
L215.778 41.8576
L221.095 41.0178
L226.412 39.7881
L231.729 38.042
L237.046 35.6396
L242.363 32.434
L247.68 28.2797" style="fill:none;stroke:#0000ff;stroke-linecap:square;stroke-width:0.1;"/>
   </g>
   <g id="line2d_40">
    <path clip-path="url(#p2574a8f0b3)" d="
M40.32 167.7
L45.6369 156.398
L50.9538 145.675
L56.2708 135.539
L61.5877 125.994
L66.9046 117.044
L72.2215 108.689
L77.5385 100.924
L82.8554 93.7462
L88.1723 87.1451
L93.4892 81.1092
L98.8062 75.6231
L104.123 70.669
L109.44 66.2267
L114.757 62.2744
L120.074 58.789
L125.391 55.747
L130.708 53.124
L136.025 50.8949
L141.342 49.0339
L146.658 47.5134
L151.975 46.3041
L157.292 45.3743
L162.609 44.6894
L167.926 44.2122
L173.243 43.9023
L178.56 43.7168
L183.877 43.6101
L189.194 43.5343
L194.511 43.439
L199.828 43.2717
L205.145 42.9768
L210.462 42.4957
L215.778 41.7663
L221.095 40.7226
L226.412 39.295
L231.729 37.4107
L237.046 34.9955
L242.363 31.9755
L247.68 28.2797" style="fill:none;stroke:#0000ff;stroke-linecap:square;stroke-width:0.1;"/>
   </g>
   <g id="line2d_41">
    <path clip-path="url(#p2574a8f0b3)" d="
M40.32 167.7
L45.6369 157.402
L50.9538 147.037
L56.2708 136.829
L61.5877 126.97
L66.9046 117.611
L72.2215 108.859
L77.5385 100.781
L82.8554 93.4054
L88.1723 86.7286
L93.4892 80.7213
L98.8062 75.338
L104.123 70.5248
L109.44 66.2267
L114.757 62.3935
L120.074 58.9833
L125.391 55.9647
L130.708 53.3161
L136.025 51.0237
L141.342 49.0781
L146.658 47.4709
L151.975 46.1902
L157.292 45.2176
L162.609 44.526
L167.926 44.078
L173.243 43.8267
L178.56 43.7168
L183.877 43.6871
L189.194 43.6735
L194.511 43.6116
L199.828 43.4399
L205.145 43.1011
L210.462 42.5427
L215.778 41.7169
L221.095 40.5777
L226.412 39.0789
L231.729 37.1687
L237.046 34.786
L242.363 31.8547
L247.68 28.2797" style="fill:none;stroke:#0000ff;stroke-linecap:square;stroke-width:0.1;"/>
   </g>
   <g id="line2d_42">
    <path clip-path="url(#p2574a8f0b3)" d="
M40.32 167.7
L45.6369 157.504
L50.9538 147.183
L56.2708 136.976
L61.5877 127.088
L66.9046 117.684
L72.2215 108.882
L77.5385 100.76
L82.8554 93.3515
L88.1723 86.6577
L93.4892 80.6504
L98.8062 75.2819
L104.123 70.4943
L109.44 66.2267
L114.757 62.4227
L120.074 59.0347
L125.391 56.0268
L130.708 53.3752
L136.025 51.0663
L141.342 49.0939
L146.658 47.4545
L151.975 46.1427
L157.292 45.147
L162.609 44.4461
L167.926 44.0068
L173.243 43.7831
L178.56 43.7168
L183.877 43.7403
L189.194 43.7792
L194.511 43.7565
L199.828 43.597
L205.145 43.2312
L210.462 42.5984
L215.778 41.6498
L221.095 40.3498
L226.412 38.6768
L231.729 36.6229
L237.046 34.1927
L242.363 31.4029
L247.68 28.2797" style="fill:none;stroke:#0000ff;stroke-linecap:square;stroke-width:0.1;"/>
   </g>
   <g id="line2d_43">
    <path clip-path="url(#p2574a8f0b3)" d="
M40.32 167.7
L45.6369 157.413
L50.9538 147.029
L56.2708 136.799
L61.5877 126.929
L66.9046 117.576
L72.2215 108.845
L77.5385 100.795
L82.8554 93.4476
L88.1723 86.7893
L93.4892 80.7865
L98.8062 75.3924
L104.123 70.5556
L109.44 66.2267
L114.757 62.3624
L120.074 58.9281
L125.391 55.8977
L130.708 53.2525
L136.025 50.978
L141.342 49.0614
L146.658 47.4879
L151.975 46.2381
L157.292 45.2868
L162.609 44.6014
L167.926 44.1424
L173.243 43.8643
L178.56 43.7168
L183.877 43.6468
L189.194 43.5992
L194.511 43.5184
L199.828 43.3485
L205.145 43.0338
L210.462 42.5176
L215.778 41.7426
L221.095 40.6494
L226.412 39.1772
L231.729 37.2641
L237.046 34.8485
L242.363 31.8714
L247.68 28.2797" style="fill:none;stroke:#0000ff;stroke-linecap:square;stroke-width:0.1;"/>
   </g>
   <g id="line2d_44">
    <path clip-path="url(#p2574a8f0b3)" d="
M40.32 167.7
L45.6369 157.063
L50.9538 146.586
L56.2708 136.412
L61.5877 126.663
L66.9046 117.438
L72.2215 108.809
L77.5385 100.821
L82.8554 93.4958
L88.1723 86.8318
L93.4892 80.8097
L98.8062 75.3965
L104.123 70.5507
L109.44 66.2267
L114.757 62.3795
L120.074 58.9676
L125.391 55.9561
L130.708 53.3174
L136.025 51.0311
L141.342 49.0832
L146.658 47.4633
L151.975 46.1617
L157.292 45.1662
L162.609 44.458
L167.926 44.0091
L173.243 43.7797
L178.56 43.7168
L183.877 43.7551
L189.194 43.818
L194.511 43.8217
L199.828 43.6794
L205.145 43.3081
L210.462 42.6346
L215.778 41.6028
L221.095 40.1802
L226.412 38.3638
L231.729 36.1835
L237.046 33.7045
L242.363 31.0263
L247.68 28.2797" style="fill:none;stroke:#0000ff;stroke-linecap:square;stroke-width:0.1;"/>
   </g>
   <g id="line2d_45">
    <path clip-path="url(#p2574a8f0b3)" d="
M40.32 167.7
L45.6369 157.473
L50.9538 147.128
L56.2708 136.913
L61.5877 127.032
L66.9046 117.646
L72.2215 108.869
L77.5385 100.771
L82.8554 93.3817
L88.1723 86.6974
L93.4892 80.6895
L98.8062 75.3121
L104.123 70.5102
L109.44 66.2267
L114.757 62.4089
L120.074 59.0119
L125.391 56.0012
L130.708 53.3528
L136.025 51.0516
L141.342 49.089
L146.658 47.459
L151.975 46.1542
L157.292 45.1618
L162.609 44.4603
L167.926 44.0174
L173.243 43.7883
L178.56 43.7168
L183.877 43.7364
L189.194 43.7732
L194.511 43.7504
L199.828 43.5921
L205.145 43.228
L210.462 42.5972
L215.778 41.6514
L221.095 40.3567
L226.412 38.6929
L231.729 36.652
L237.046 34.2344
L242.363 31.4436
L247.68 28.2797" style="fill:none;stroke:#0000ff;stroke-linecap:square;stroke-width:0.1;"/>
   </g>
   <g id="line2d_46">
    <path clip-path="url(#p2574a8f0b3)" d="
M40.32 167.7
L45.6369 156.779
L50.9538 146.172
L56.2708 135.99
L61.5877 126.32
L66.9046 117.223
L72.2215 108.739
L77.5385 100.885
L82.8554 93.6592
L88.1723 87.0484
L93.4892 81.0285
L98.8062 75.5711
L104.123 70.6466
L109.44 66.2267
L114.757 62.2858
L120.074 58.8015
L125.391 55.7537
L130.708 53.1231
L136.025 50.8895
L141.342 49.0302
L146.658 47.5186
L151.975 46.3231
L157.292 45.4078
L162.609 44.7325
L167.926 44.2547
L173.243 43.9305
L178.56 43.7168
L183.877 43.5716
L189.194 43.4545
L194.511 43.3262
L199.828 43.1465
L205.145 42.8715
L210.462 42.4503
L215.778 41.8212
L221.095 40.9086
L226.412 39.62
L231.729 37.8457
L237.046 35.459
L242.363 32.3197
L247.68 28.2797" style="fill:none;stroke:#0000ff;stroke-linecap:square;stroke-width:0.1;"/>
   </g>
   <g id="line2d_47">
    <path clip-path="url(#p2574a8f0b3)" d="
M40.32 167.7
L45.6369 156.802
L50.9538 146.172
L56.2708 135.96
L61.5877 126.273
L66.9046 117.182
L72.2215 108.723
L77.5385 100.902
L82.8554 93.7095
L88.1723 87.1205
L93.4892 81.1057
L98.8062 75.6354
L104.123 70.6829
L109.44 66.2267
L114.757 62.2495
L120.074 58.7371
L125.391 55.6757
L130.708 53.049
L136.025 50.8364
L141.342 49.0108
L146.658 47.5384
L151.975 46.3792
L157.292 45.4889
L162.609 44.8215
L167.926 44.3312
L173.243 43.9757
L178.56 43.7168
L183.877 43.5215
L189.194 43.3602
L194.511 43.2043
L199.828 43.0225
L205.145 42.7757
L210.462 42.4123
L215.778 41.8635
L221.095 41.0402
L226.412 39.8316
L231.729 38.1056
L237.046 35.713
L242.363 32.4925
L247.68 28.2797" style="fill:none;stroke:#0000ff;stroke-linecap:square;stroke-width:0.1;"/>
   </g>
   <g id="line2d_48">
    <path clip-path="url(#p2574a8f0b3)" d="
M40.32 167.7
L45.6369 157.409
L50.9538 147.024
L56.2708 136.797
L61.5877 126.929
L66.9046 117.577
L72.2215 108.845
L77.5385 100.795
L82.8554 93.4446
L88.1723 86.7845
L93.4892 80.781
L98.8062 75.3876
L104.123 70.5528
L109.44 66.2267
L114.757 62.3653
L120.074 58.933
L125.391 55.9035
L130.708 53.2576
L136.025 50.9813
L141.342 49.0625
L146.658 47.487
L151.975 46.2365
L157.292 45.2858
L162.609 44.602
L167.926 44.1446
L173.243 43.8668
L178.56 43.7168
L183.877 43.6407
L189.194 43.5839
L194.511 43.4929
L199.828 43.3161
L205.145 43.0029
L210.462 42.5027
L215.778 41.7625
L221.095 40.7234
L226.412 39.3181
L231.729 37.4681
L237.046 35.0823
L242.363 32.0575
L247.68 28.2797" style="fill:none;stroke:#0000ff;stroke-linecap:square;stroke-width:0.1;"/>
   </g>
   <g id="line2d_49">
    <path clip-path="url(#p2574a8f0b3)" d="
M40.32 167.7
L45.6369 157.178
L50.9538 146.72
L56.2708 136.52
L61.5877 126.731
L66.9046 117.469
L72.2215 108.816
L77.5385 100.817
L82.8554 93.4905
L88.1723 86.8309
L93.4892 80.8142
L98.8062 75.4039
L104.123 70.5566
L109.44 66.2267
L114.757 62.3707
L120.074 58.9497
L125.391 55.9318
L130.708 53.2919
L136.025 51.0111
L141.342 49.0752
L146.658 47.4721
L151.975 46.1889
L157.292 45.2088
L162.609 44.5084
L167.926 44.0559
L173.243 43.8094
L178.56 43.7168
L183.877 43.7167
L189.194 43.74
L194.511 43.7126
L199.828 43.5594
L205.145 43.2077
L210.462 42.5913
L215.778 41.6551
L221.095 40.3578
L226.412 38.6754
L231.729 36.6025
L237.046 34.1534
L242.363 31.362
L247.68 28.2797" style="fill:none;stroke:#0000ff;stroke-linecap:square;stroke-width:0.1;"/>
   </g>
   <g id="line2d_50">
    <path clip-path="url(#p2574a8f0b3)" d="
M40.32 167.7
L45.6369 157.012
L50.9538 146.481
L56.2708 136.277
L61.5877 126.535
L66.9046 117.347
L72.2215 108.777
L77.5385 100.852
L82.8554 93.5811
L88.1723 86.9498
L93.4892 80.9331
L98.8062 75.4977
L104.123 70.6075
L109.44 66.2267
L114.757 62.3224
L120.074 58.8654
L125.391 55.8307
L130.708 53.1963
L136.025 50.9426
L141.342 49.05
L146.658 47.498
L151.975 46.2629
L157.292 45.3174
L162.609 44.6296
L167.926 44.1623
L173.243 43.8736
L178.56 43.7168
L183.877 43.6416
L189.194 43.5939
L194.511 43.5173
L199.828 43.3533
L205.145 43.0419
L210.462 42.5226
L215.778 41.735
L221.095 40.6197
L226.412 39.1191
L231.729 37.1795
L237.046 34.7523
L242.363 31.7963
L247.68 28.2797" style="fill:none;stroke:#0000ff;stroke-linecap:square;stroke-width:0.1;"/>
   </g>
   <g id="line2d_51">
    <path clip-path="url(#p2574a8f0b3)" d="
M40.32 167.7
L45.6369 156.975
L50.9538 146.447
L56.2708 136.263
L61.5877 126.538
L66.9046 117.358
L72.2215 108.783
L77.5385 100.844
L82.8554 93.5552
L88.1723 86.9092
L93.4892 80.8863
L98.8062 75.4565
L104.123 70.583
L109.44 66.2267
L114.757 62.3489
L120.074 58.914
L125.391 55.8911
L130.708 53.255
L136.025 50.9855
L141.342 49.066
L146.658 47.4816
L151.975 46.2163
L157.292 45.25
L162.609 44.5561
L167.926 44.1
L173.243 43.8376
L178.56 43.7168
L183.877 43.6784
L189.194 43.6592
L194.511 43.5948
L199.828 43.4235
L205.145 43.0879
L210.462 42.537
L215.778 41.7244
L221.095 40.6062
L226.412 39.1356
L231.729 37.2559
L237.046 34.8927
L242.363 31.9452
L247.68 28.2797" style="fill:none;stroke:#0000ff;stroke-linecap:square;stroke-width:0.1;"/>
   </g>
   <g id="patch_4">
    <path d="
M247.68 183.6
L247.68 21.6" style="fill:none;stroke:#000000;stroke-linecap:square;stroke-linejoin:miter;"/>
   </g>
   <g id="patch_5">
    <path d="
M40.32 183.6
L40.32 21.6" style="fill:none;stroke:#000000;stroke-linecap:square;stroke-linejoin:miter;"/>
   </g>
   <g id="patch_6">
    <path d="
M40.32 183.6
L247.68 183.6" style="fill:none;stroke:#000000;stroke-linecap:square;stroke-linejoin:miter;"/>
   </g>
   <g id="patch_7">
    <path d="
M40.32 21.6
L247.68 21.6" style="fill:none;stroke:#000000;stroke-linecap:square;stroke-linejoin:miter;"/>
   </g>
   <g id="matplotlib.axis_1">
    <g id="xtick_1">
     <g id="line2d_52">
      <defs>
       <path d="
M0 0
L0 -4" id="mc7db9fdffb" style="stroke:#000000;stroke-width:0.5;"/>
      </defs>
      <g>
       <use style="stroke:#000000;stroke-width:0.5;" x="40.32" xlink:href="#mc7db9fdffb" y="183.6"/>
      </g>
     </g>
     <g id="line2d_53">
      <defs>
       <path d="
M0 0
L0 4" id="m5a7d422ac3" style="stroke:#000000;stroke-width:0.5;"/>
      </defs>
      <g>
       <use style="stroke:#000000;stroke-width:0.5;" x="40.32" xlink:href="#m5a7d422ac3" y="21.6"/>
      </g>
     </g>
     <g id="text_1">
      <!-- 2800 -->
      <defs>
       <path d="
M27.2031 35.375
C33.5 38.5625 39.9062 43.3281 39.9062 50.9844
C39.9062 60.0312 31.0938 65.2969 23 65.2969
C13.9062 65.2969 5.90625 58.7344 5.90625 49.6875
C5.90625 47.2031 6.5 42.9219 10.4062 39.1406
C11.4062 38.1562 15.5938 35.1719 18.2969 33.2812
C13.7969 30.9844 3.29688 25.5312 3.29688 14.5938
C3.29688 4.35938 13.0938 -2 22.7969 -2
C33.5 -2 42.5 5.65625 42.5 15.7969
C42.5 24.8438 36.4062 29.0312 32.4062 31.7031
z

M14.0938 44.125
C13.2969 44.625 9.29688 47.7031 9.29688 52.375
C9.29688 58.4375 15.5938 63 22.7969 63
C30.7031 63 36.5 57.4531 36.5 50.9844
C36.5 41.7344 26.0938 36.4688 25.5938 36.4688
C25.5 36.4688 25.4062 36.4688 24.5938 37.0781
z

M32.5 23.7344
C34 22.6406 38.7969 19.375 38.7969 13.2969
C38.7969 5.95312 31.4062 0.390625 23 0.390625
C13.9062 0.390625 7 6.84375 7 14.6875
C7 22.5469 13.0938 29.0938 20 32.1875
z
" id="CMR17-56"/>
       <path d="
M42 31.6406
C42 37.75 41.9062 48.125 37.7031 56.1094
C34 63.1094 28.0938 65.5938 22.9062 65.5938
C18.0938 65.5938 12 63.4062 8.20312 56.2031
C4.20312 48.7188 3.79688 39.4375 3.79688 31.6406
C3.79688 25.9531 3.90625 17.2812 7 9.67188
C11.2969 -0.609375 19 -2 22.9062 -2
C27.5 -2 34.5 -0.109375 38.5938 9.375
C41.5938 16.2812 42 24.3594 42 31.6406
M22.9062 -0.40625
C16.5 -0.40625 12.7031 5.07812 11.2969 12.6875
C10.2031 18.5625 10.2031 27.1562 10.2031 32.75
C10.2031 40.4375 10.2031 46.8281 11.5 52.9219
C13.4062 61.3906 19 64 22.9062 64
C27 64 32.2969 61.2969 34.2031 53.125
C35.5 47.4375 35.5938 40.7344 35.5938 32.75
C35.5938 26.25 35.5938 18.2656 34.4062 12.375
C32.2969 1.48438 26.4062 -0.40625 22.9062 -0.40625" id="CMR17-48"/>
       <path d="
M41.7031 15.4531
L39.9062 15.4531
C38.9062 8.375 38.0938 7.17188 37.7031 6.5625
C37.2031 5.76562 30 5.76562 28.5938 5.76562
L9.40625 5.76562
C13 9.67188 20 16.75 28.5 24.9531
C34.5938 30.7344 41.7031 37.5312 41.7031 47.4219
C41.7031 59.2188 32.2969 66 21.7969 66
C10.7969 66 4.09375 56.3125 4.09375 47.3438
C4.09375 43.4375 7 42.9375 8.20312 42.9375
C9.20312 42.9375 12.2031 43.5469 12.2031 47.0312
C12.2031 50.1094 9.59375 51 8.20312 51
C7.59375 51 7 50.9062 6.59375 50.7031
C8.5 59.2188 14.2969 63.4062 20.4062 63.4062
C29.0938 63.4062 34.7969 56.5156 34.7969 47.4219
C34.7969 38.7344 29.7031 31.25 24 24.75
L4.09375 2.28125
L4.09375 0
L39.2969 0
z
" id="CMR17-50"/>
      </defs>
      <g transform="translate(30.3573294968 194.51849838)scale(0.1 -0.1)">
       <use transform="scale(0.9962640099626402)" xlink:href="#CMR17-50"/>
       <use transform="translate(45.69047711706103 0.0)scale(0.9962640099626402)" xlink:href="#CMR17-56"/>
       <use transform="translate(91.38095423412206 0.0)scale(0.9962640099626402)" xlink:href="#CMR17-48"/>
       <use transform="translate(137.07143135118307 0.0)scale(0.9962640099626402)" xlink:href="#CMR17-48"/>
      </g>
     </g>
    </g>
    <g id="xtick_2">
     <g id="line2d_54">
      <g>
       <use style="stroke:#000000;stroke-width:0.5;" x="74.88" xlink:href="#mc7db9fdffb" y="183.6"/>
      </g>
     </g>
     <g id="line2d_55">
      <g>
       <use style="stroke:#000000;stroke-width:0.5;" x="74.88" xlink:href="#m5a7d422ac3" y="21.6"/>
      </g>
     </g>
     <g id="text_2">
      <!-- 2900 -->
      <defs>
       <path d="
M35.2031 29.125
C35.2031 7.25 26.0938 0.484375 18.5938 0.484375
C16.2969 0.484375 10.7031 0.484375 8.40625 4.59375
C11 4.1875 12.9062 5.57812 12.9062 8.09375
C12.9062 10.8125 10.7031 11.7031 9.29688 11.7031
C8.40625 11.7031 5.70312 11.2969 5.70312 7.90625
C5.70312 1.10938 11.5938 -2 18.7969 -2
C30.2969 -2 42 10.5312 42 32.3906
C42 59.6406 30.7969 65.2969 23.2031 65.2969
C13.2969 65.2969 3.79688 56.6875 3.79688 43.4062
C3.79688 31.1094 11.9062 22 22.0938 22
C30.5 22 34.2031 29.7344 35.2031 33
z

M22.2969 23.5938
C19.5938 23.5938 15.7969 24.0938 12.7031 30.0312
C10.5938 33.8906 10.5938 38.4531 10.5938 43.2969
C10.5938 49.1562 10.5938 53.2031 13.4062 57.5625
C14.7969 59.6406 17.4062 63 23.2031 63
C35 63 35 45.0781 35 41.125
C35 34.0938 31.7969 23.5938 22.2969 23.5938" id="CMR17-57"/>
      </defs>
      <g transform="translate(64.9173294968 194.51849838)scale(0.1 -0.1)">
       <use transform="scale(0.9962640099626402)" xlink:href="#CMR17-50"/>
       <use transform="translate(45.69047711706103 0.0)scale(0.9962640099626402)" xlink:href="#CMR17-57"/>
       <use transform="translate(91.38095423412206 0.0)scale(0.9962640099626402)" xlink:href="#CMR17-48"/>
       <use transform="translate(137.07143135118307 0.0)scale(0.9962640099626402)" xlink:href="#CMR17-48"/>
      </g>
     </g>
    </g>
    <g id="xtick_3">
     <g id="line2d_56">
      <g>
       <use style="stroke:#000000;stroke-width:0.5;" x="109.44" xlink:href="#mc7db9fdffb" y="183.6"/>
      </g>
     </g>
     <g id="line2d_57">
      <g>
       <use style="stroke:#000000;stroke-width:0.5;" x="109.44" xlink:href="#m5a7d422ac3" y="21.6"/>
      </g>
     </g>
     <g id="text_3">
      <!-- 3000 -->
      <defs>
       <path d="
M22.0938 33.7031
C31 33.7031 34.9062 25.9688 34.9062 17.0312
C34.9062 5 28.5 0.390625 22.7031 0.390625
C17.4062 0.390625 8.79688 3.03125 6.09375 10.8281
C6.59375 10.625 7.09375 10.625 7.59375 10.625
C10 10.625 11.7969 12.2188 11.7969 14.8125
C11.7969 17.7031 9.59375 19 7.59375 19
C5.90625 19 3.29688 18.2031 3.29688 14.4688
C3.29688 5.23438 12.2969 -2 22.9062 -2
C34 -2 42.5 6.71875 42.5 16.9531
C42.5 26.6719 34.5 33.6875 25 34.7969
C32.5938 36.375 39.9062 43.0625 39.9062 52.0156
C39.9062 59.6875 32 65.2969 23 65.2969
C13.9062 65.2969 5.90625 59.8281 5.90625 52.0156
C5.90625 48.5938 8.5 48 9.79688 48
C11.9062 48 13.7031 49.2969 13.7031 51.8906
C13.7031 54.4688 11.9062 55.7656 9.79688 55.7656
C9.40625 55.7656 8.90625 55.7656 8.5 55.5625
C11.4062 61.8594 19.2969 63 22.7969 63
C26.2969 63 32.9062 61.3281 32.9062 51.875
C32.9062 49.1094 32.5 44.1875 29.0938 39.8438
C26.0938 36 22.7031 36 19.4062 35.5938
C18.9062 35.5938 16.5938 35.5938 16.2031 35.5938
C15.5 35.4844 15.0938 35.3906 15.0938 34.5938
C15.0938 33.8125 15.2031 33.7031 17.2031 33.7031
z
" id="CMR17-51"/>
      </defs>
      <g transform="translate(99.4773294968 194.51849838)scale(0.1 -0.1)">
       <use transform="scale(0.9962640099626402)" xlink:href="#CMR17-51"/>
       <use transform="translate(45.69047711706103 0.0)scale(0.9962640099626402)" xlink:href="#CMR17-48"/>
       <use transform="translate(91.38095423412206 0.0)scale(0.9962640099626402)" xlink:href="#CMR17-48"/>
       <use transform="translate(137.07143135118307 0.0)scale(0.9962640099626402)" xlink:href="#CMR17-48"/>
      </g>
     </g>
    </g>
    <g id="xtick_4">
     <g id="line2d_58">
      <g>
       <use style="stroke:#000000;stroke-width:0.5;" x="144.0" xlink:href="#mc7db9fdffb" y="183.6"/>
      </g>
     </g>
     <g id="line2d_59">
      <g>
       <use style="stroke:#000000;stroke-width:0.5;" x="144.0" xlink:href="#m5a7d422ac3" y="21.6"/>
      </g>
     </g>
     <g id="text_4">
      <!-- 3100 -->
      <defs>
       <path d="
M26.5938 63.3125
C26.5938 65.4062 26.5 65.5 25.0938 65.5
C21.2031 61.1875 15.2969 59.7969 9.70312 59.7969
C9.40625 59.7969 8.90625 59.7969 8.79688 59.6094
C8.70312 59.3906 8.70312 59.1719 8.70312 57
C11.7969 57 17 57.5938 21 59.9844
L21 7.20312
C21 3.6875 20.7969 2.5 12.2031 2.5
L9.20312 2.5
L9.20312 0
C14 0 19 0 23.7969 0
C28.5938 0 33.5938 0 38.4062 0
L38.4062 2.5
L35.4062 2.5
C26.7969 2.5 26.5938 3.59375 26.5938 7.15625
z
" id="CMR17-49"/>
      </defs>
      <g transform="translate(134.037329497 194.51849838)scale(0.1 -0.1)">
       <use transform="scale(0.9962640099626402)" xlink:href="#CMR17-51"/>
       <use transform="translate(45.69047711706103 0.0)scale(0.9962640099626402)" xlink:href="#CMR17-49"/>
       <use transform="translate(91.38095423412206 0.0)scale(0.9962640099626402)" xlink:href="#CMR17-48"/>
       <use transform="translate(137.07143135118307 0.0)scale(0.9962640099626402)" xlink:href="#CMR17-48"/>
      </g>
     </g>
    </g>
    <g id="xtick_5">
     <g id="line2d_60">
      <g>
       <use style="stroke:#000000;stroke-width:0.5;" x="178.56" xlink:href="#mc7db9fdffb" y="183.6"/>
      </g>
     </g>
     <g id="line2d_61">
      <g>
       <use style="stroke:#000000;stroke-width:0.5;" x="178.56" xlink:href="#m5a7d422ac3" y="21.6"/>
      </g>
     </g>
     <g id="text_5">
      <!-- 3200 -->
      <g transform="translate(168.597329497 194.51849838)scale(0.1 -0.1)">
       <use transform="scale(0.9962640099626402)" xlink:href="#CMR17-51"/>
       <use transform="translate(45.69047711706103 0.0)scale(0.9962640099626402)" xlink:href="#CMR17-50"/>
       <use transform="translate(91.38095423412206 0.0)scale(0.9962640099626402)" xlink:href="#CMR17-48"/>
       <use transform="translate(137.07143135118307 0.0)scale(0.9962640099626402)" xlink:href="#CMR17-48"/>
      </g>
     </g>
    </g>
    <g id="xtick_6">
     <g id="line2d_62">
      <g>
       <use style="stroke:#000000;stroke-width:0.5;" x="213.12" xlink:href="#mc7db9fdffb" y="183.6"/>
      </g>
     </g>
     <g id="line2d_63">
      <g>
       <use style="stroke:#000000;stroke-width:0.5;" x="213.12" xlink:href="#m5a7d422ac3" y="21.6"/>
      </g>
     </g>
     <g id="text_6">
      <!-- 3300 -->
      <g transform="translate(203.157329497 194.51849838)scale(0.1 -0.1)">
       <use transform="scale(0.9962640099626402)" xlink:href="#CMR17-51"/>
       <use transform="translate(45.69047711706103 0.0)scale(0.9962640099626402)" xlink:href="#CMR17-51"/>
       <use transform="translate(91.38095423412206 0.0)scale(0.9962640099626402)" xlink:href="#CMR17-48"/>
       <use transform="translate(137.07143135118307 0.0)scale(0.9962640099626402)" xlink:href="#CMR17-48"/>
      </g>
     </g>
    </g>
    <g id="xtick_7">
     <g id="line2d_64">
      <g>
       <use style="stroke:#000000;stroke-width:0.5;" x="247.68" xlink:href="#mc7db9fdffb" y="183.6"/>
      </g>
     </g>
     <g id="line2d_65">
      <g>
       <use style="stroke:#000000;stroke-width:0.5;" x="247.68" xlink:href="#m5a7d422ac3" y="21.6"/>
      </g>
     </g>
     <g id="text_7">
      <!-- 3400 -->
      <defs>
       <path d="
M33.5938 64.3281
C33.5938 66.4062 33.5 66.5 31.7031 66.5
L2 19.5938
L2 17
L27.7969 17
L27.7969 7.14062
C27.7969 3.5 27.5938 2.5 20.5938 2.5
L18.7031 2.5
L18.7031 0
C21.9062 0 27.2969 0 30.7031 0
C34.0938 0 39.5 0 42.7031 0
L42.7031 2.5
L40.7969 2.5
C33.7969 2.5 33.5938 3.5 33.5938 7.14062
L33.5938 17
L43.7969 17
L43.7969 19.5938
L33.5938 19.5938
z

M28.0938 57.7656
L28.0938 19.5938
L4 19.5938
z
" id="CMR17-52"/>
      </defs>
      <g transform="translate(237.717329497 194.51849838)scale(0.1 -0.1)">
       <use transform="scale(0.9962640099626402)" xlink:href="#CMR17-51"/>
       <use transform="translate(45.69047711706103 0.0)scale(0.9962640099626402)" xlink:href="#CMR17-52"/>
       <use transform="translate(91.38095423412206 0.0)scale(0.9962640099626402)" xlink:href="#CMR17-48"/>
       <use transform="translate(137.07143135118307 0.0)scale(0.9962640099626402)" xlink:href="#CMR17-48"/>
      </g>
     </g>
    </g>
    <g id="text_8">
     <!-- $T_\textrm{eff}$ -->
     <defs>
      <path d="
M38.0938 23
C38.5 23.4062 38.5 23.6094 38.5 24.625
C38.5 34.9688 33.0938 44 21.7031 44
C11.0938 44 2.70312 33.8906 2.70312 21.6094
C2.70312 8.60938 12.2031 -1 22.7969 -1
C34 -1 38.4062 9.46875 38.4062 11.5469
C38.4062 12.25 37.7969 12.25 37.5938 12.25
C36.9062 12.25 36.7969 12.0469 36.4062 10.875
C34.2031 4.14062 28.7031 0.796875 23.5 0.796875
C19.2031 0.796875 14.9062 3.17188 12.2031 7.5
C9.09375 12.5469 9.09375 18.375 9.09375 23
z

M9.20312 24.5
C9.90625 39.1406 17.5938 42.4062 21.5938 42.4062
C28.4062 42.4062 33 35.8906 33.0938 24.5
z
" id="CMR17-101"/>
      <path d="
M41.7031 61.0938
C42.2969 63.5 42.5 64.3906 44 64.7969
C44.7969 65 48.0938 65 50.2031 65
C60.2031 65 64.9062 64.5938 64.9062 56.7812
C64.9062 55.2656 64.5 51.4688 63.9062 47.75
L63.7969 46.5625
C63.7969 46.1562 64.2031 45.5625 64.7969 45.5625
C65.7969 45.5625 65.7969 46.0625 66.0938 47.6562
L69 65.375
C69.2031 66.2969 69.2031 66.5 69.2031 66.7969
C69.2031 67.8906 68.5938 67.8906 66.5938 67.8906
L11.9062 67.8906
C9.59375 67.8906 9.5 67.7969 8.90625 66
L2.79688 47.9688
C2.70312 47.75 2.40625 46.6562 2.40625 46.5625
C2.40625 46.0625 2.79688 45.5625 3.40625 45.5625
C4.20312 45.5625 4.40625 45.9531 4.79688 47.25
C9 59.3906 11.0938 65 24.4062 65
L31.0938 65
C33.5 65 34.5 65 34.5 63.9062
C34.5 63.5938 34.5 63.4062 34 61.5938
L20.5938 7.79688
C19.5938 3.89062 19.4062 2.89062 8.79688 2.89062
C6.29688 2.89062 5.59375 2.89062 5.59375 1
C5.59375 0 6.70312 0 7.20312 0
C9.70312 0 12.2969 0 14.7969 0
L30.4062 0
C32.9062 0 35.5938 0 38.0938 0
C39.2031 0 40.2031 0 40.2031 1.89062
C40.2031 2.89062 39.5 2.89062 36.9062 2.89062
C27.9062 2.89062 27.9062 3.79688 27.9062 5.29688
C27.9062 5.40625 27.9062 6.10938 28.2969 7.70312
z
" id="CMMI12-84"/>
      <path d="
M39.9062 40
L51.2969 40
L51.2969 42.5781
L39.7031 42.5781
L39.7031 54.5938
C39.7031 62.8438 43.9062 68 48.2031 68
C49.5 68 51 67.6094 52 66.9062
C51.2031 66.7031 49.0938 66.0156 49.0938 63.5312
C49.0938 60.9531 51.0938 60.1562 52.5 60.1562
C53.9062 60.1562 55.9062 60.9531 55.9062 63.5469
C55.9062 67.3125 52.2969 69.5938 48.2969 69.5938
C44.4062 69.5938 41.2031 67.7031 38.7031 65.3281
C36.4062 68.5938 32.5938 69.5938 28.7031 69.5938
C20.9062 69.5938 9.90625 65.125 9.90625 54.2031
L9.90625 42.5781
L1.90625 42.5781
L1.90625 40
L9.90625 40
L9.90625 6.67188
C9.90625 2.875 9.5 2.39062 3.09375 2.39062
L3.09375 -0.203125
C5.5 0 9.90625 0 12.4062 0
C15 0 19.4062 0 21.7969 -0.203125
L21.7969 2.39062
C15.4062 2.39062 15 2.78125 15 6.67188
L15 40
L34.7969 40
L34.7969 6.67188
C34.7969 2.875 34.4062 2.39062 28 2.39062
L28 -0.203125
C30.4062 0 35 0 37.5938 0
C40.5 0 45.5938 0 48.2969 -0.203125
L48.2969 2.39062
C41.0938 2.39062 39.9062 2.39062 39.9062 6.85938
z

M14.7969 42.5781
L14.7969 54.2031
C14.7969 63.2344 21.7969 68 28.5 68
C30 68 33.9062 67.6875 36.2969 65.4219
C34.5 65.4219 32.7969 64.625 32.7969 62.1406
C32.7969 59.5625 35.0938 58.8594 35.2969 58.8594
C34.7969 57.0625 34.7969 55.0938 34.7969 54.3906
L34.7969 42.5781
z
" id="CMR17-11"/>
     </defs>
     <g transform="translate(135.969339221 209.813221416)scale(0.1 -0.1)">
      <use transform="translate(0.0 34.86928595403954)scale(0.9962640099626402)" xlink:href="#CMMI12-84"/>
      <use transform="translate(57.175043659519 0.0)scale(0.9962640099626402)" xlink:href="#CMR17-101"/>
      <use transform="translate(97.66070412223694 0.0)scale(0.9962640099626402)" xlink:href="#CMR17-11"/>
     </g>
    </g>
   </g>
   <g id="matplotlib.axis_2">
    <g id="ytick_1">
     <g id="line2d_66">
      <defs>
       <path d="
M0 0
L4 0" id="md7965d1ba0" style="stroke:#000000;stroke-width:0.5;"/>
      </defs>
      <g>
       <use style="stroke:#000000;stroke-width:0.5;" x="40.32" xlink:href="#md7965d1ba0" y="183.6"/>
      </g>
     </g>
     <g id="line2d_67">
      <defs>
       <path d="
M0 0
L-4 0" id="md9a1c1a7cd" style="stroke:#000000;stroke-width:0.5;"/>
      </defs>
      <g>
       <use style="stroke:#000000;stroke-width:0.5;" x="247.68" xlink:href="#md9a1c1a7cd" y="183.6"/>
      </g>
     </g>
     <g id="text_9">
      <!-- $-3.4$ -->
      <defs>
       <path d="
M18.4062 4.79688
C18.4062 7.6875 16 9.67188 13.5938 9.67188
C10.7031 9.67188 8.70312 7.28125 8.70312 4.89062
C8.70312 2 11.0938 0 13.5 0
C16.4062 0 18.4062 2.39062 18.4062 4.79688" id="CMMI12-58"/>
       <path d="
M65.9062 23
C67.5938 23 69.4062 23 69.4062 25
C69.4062 27 67.5938 27 65.9062 27
L11.7969 27
C10.0938 27 8.29688 27 8.29688 25
C8.29688 23 10.0938 23 11.7969 23
z
" id="CMSY10-0"/>
      </defs>
      <g transform="translate(15.841177299 186.090660025)scale(0.1 -0.1)">
       <use transform="scale(0.9962640099626402)" xlink:href="#CMSY10-0"/>
       <use transform="translate(77.4874676506071 0.0)scale(0.9962640099626402)" xlink:href="#CMR17-51"/>
       <use transform="translate(123.17794476766814 0.0)scale(0.9962640099626402)" xlink:href="#CMMI12-58"/>
       <use transform="translate(150.27512185748756 0.0)scale(0.9962640099626402)" xlink:href="#CMR17-52"/>
      </g>
     </g>
    </g>
    <g id="ytick_2">
     <g id="line2d_68">
      <g>
       <use style="stroke:#000000;stroke-width:0.5;" x="40.32" xlink:href="#md7965d1ba0" y="160.457142857"/>
      </g>
     </g>
     <g id="line2d_69">
      <g>
       <use style="stroke:#000000;stroke-width:0.5;" x="247.68" xlink:href="#md9a1c1a7cd" y="160.457142857"/>
      </g>
     </g>
     <g id="text_10">
      <!-- $-3.2$ -->
      <g transform="translate(15.841177299 162.947802882)scale(0.1 -0.1)">
       <use transform="scale(0.9962640099626402)" xlink:href="#CMSY10-0"/>
       <use transform="translate(77.4874676506071 0.0)scale(0.9962640099626402)" xlink:href="#CMR17-51"/>
       <use transform="translate(123.17794476766814 0.0)scale(0.9962640099626402)" xlink:href="#CMMI12-58"/>
       <use transform="translate(150.27512185748756 0.0)scale(0.9962640099626402)" xlink:href="#CMR17-50"/>
      </g>
     </g>
    </g>
    <g id="ytick_3">
     <g id="line2d_70">
      <g>
       <use style="stroke:#000000;stroke-width:0.5;" x="40.32" xlink:href="#md7965d1ba0" y="137.314285714"/>
      </g>
     </g>
     <g id="line2d_71">
      <g>
       <use style="stroke:#000000;stroke-width:0.5;" x="247.68" xlink:href="#md9a1c1a7cd" y="137.314285714"/>
      </g>
     </g>
     <g id="text_11">
      <!-- $-3.0$ -->
      <g transform="translate(15.841177299 139.804945739)scale(0.1 -0.1)">
       <use transform="scale(0.9962640099626402)" xlink:href="#CMSY10-0"/>
       <use transform="translate(77.4874676506071 0.0)scale(0.9962640099626402)" xlink:href="#CMR17-51"/>
       <use transform="translate(123.17794476766814 0.0)scale(0.9962640099626402)" xlink:href="#CMMI12-58"/>
       <use transform="translate(150.27512185748756 0.0)scale(0.9962640099626402)" xlink:href="#CMR17-48"/>
      </g>
     </g>
    </g>
    <g id="ytick_4">
     <g id="line2d_72">
      <g>
       <use style="stroke:#000000;stroke-width:0.5;" x="40.32" xlink:href="#md7965d1ba0" y="114.171428571"/>
      </g>
     </g>
     <g id="line2d_73">
      <g>
       <use style="stroke:#000000;stroke-width:0.5;" x="247.68" xlink:href="#md9a1c1a7cd" y="114.171428571"/>
      </g>
     </g>
     <g id="text_12">
      <!-- $-2.8$ -->
      <g transform="translate(15.841177299 116.662088596)scale(0.1 -0.1)">
       <use transform="scale(0.9962640099626402)" xlink:href="#CMSY10-0"/>
       <use transform="translate(77.4874676506071 0.0)scale(0.9962640099626402)" xlink:href="#CMR17-50"/>
       <use transform="translate(123.17794476766814 0.0)scale(0.9962640099626402)" xlink:href="#CMMI12-58"/>
       <use transform="translate(150.27512185748756 0.0)scale(0.9962640099626402)" xlink:href="#CMR17-56"/>
      </g>
     </g>
    </g>
    <g id="ytick_5">
     <g id="line2d_74">
      <g>
       <use style="stroke:#000000;stroke-width:0.5;" x="40.32" xlink:href="#md7965d1ba0" y="91.0285714286"/>
      </g>
     </g>
     <g id="line2d_75">
      <g>
       <use style="stroke:#000000;stroke-width:0.5;" x="247.68" xlink:href="#md9a1c1a7cd" y="91.0285714286"/>
      </g>
     </g>
     <g id="text_13">
      <!-- $-2.6$ -->
      <defs>
       <path d="
M10.5938 34
C10.5938 57.6562 21.7969 63 28.2969 63
C30.4062 63 35.5 62.6406 37.5 59
C35.9062 59 32.9062 59 32.9062 55.5156
C32.9062 52.8281 35.0938 51.9219 36.5 51.9219
C37.4062 51.9219 40.0938 52.3125 40.0938 55.625
C40.0938 61.7812 35.0938 65.2969 28.2031 65.2969
C16.2969 65.2969 3.79688 52.9688 3.79688 31
C3.79688 3.95312 15.0938 -2 23.0938 -2
C32.7969 -2 42 6.67188 42 20.0469
C42 32.5156 33.9062 41.5938 23.7031 41.5938
C17.5938 41.5938 13.0938 37.6094 10.5938 30.625
z

M23.0938 0.390625
C10.7969 0.390625 10.7969 18.75 10.7969 22.4375
C10.7969 29.625 14.2031 40 23.5 40
C25.2031 40 30.0938 40 33.4062 33.125
C35.2031 29.2188 35.2031 25.1406 35.2031 20.1406
C35.2031 14.75 35.2031 10.7812 33.0938 6.78125
C30.9062 2.67188 27.7031 0.390625 23.0938 0.390625" id="CMR17-54"/>
      </defs>
      <g transform="translate(15.841177299 93.5192314535)scale(0.1 -0.1)">
       <use transform="scale(0.9962640099626402)" xlink:href="#CMSY10-0"/>
       <use transform="translate(77.4874676506071 0.0)scale(0.9962640099626402)" xlink:href="#CMR17-50"/>
       <use transform="translate(123.17794476766814 0.0)scale(0.9962640099626402)" xlink:href="#CMMI12-58"/>
       <use transform="translate(150.27512185748756 0.0)scale(0.9962640099626402)" xlink:href="#CMR17-54"/>
      </g>
     </g>
    </g>
    <g id="ytick_6">
     <g id="line2d_76">
      <g>
       <use style="stroke:#000000;stroke-width:0.5;" x="40.32" xlink:href="#md7965d1ba0" y="67.8857142857"/>
      </g>
     </g>
     <g id="line2d_77">
      <g>
       <use style="stroke:#000000;stroke-width:0.5;" x="247.68" xlink:href="#md9a1c1a7cd" y="67.8857142857"/>
      </g>
     </g>
     <g id="text_14">
      <!-- $-2.4$ -->
      <g transform="translate(15.841177299 70.3763743106)scale(0.1 -0.1)">
       <use transform="scale(0.9962640099626402)" xlink:href="#CMSY10-0"/>
       <use transform="translate(77.4874676506071 0.0)scale(0.9962640099626402)" xlink:href="#CMR17-50"/>
       <use transform="translate(123.17794476766814 0.0)scale(0.9962640099626402)" xlink:href="#CMMI12-58"/>
       <use transform="translate(150.27512185748756 0.0)scale(0.9962640099626402)" xlink:href="#CMR17-52"/>
      </g>
     </g>
    </g>
    <g id="ytick_7">
     <g id="line2d_78">
      <g>
       <use style="stroke:#000000;stroke-width:0.5;" x="40.32" xlink:href="#md7965d1ba0" y="44.7428571429"/>
      </g>
     </g>
     <g id="line2d_79">
      <g>
       <use style="stroke:#000000;stroke-width:0.5;" x="247.68" xlink:href="#md9a1c1a7cd" y="44.7428571429"/>
      </g>
     </g>
     <g id="text_15">
      <!-- $-2.2$ -->
      <g transform="translate(15.841177299 47.2335171678)scale(0.1 -0.1)">
       <use transform="scale(0.9962640099626402)" xlink:href="#CMSY10-0"/>
       <use transform="translate(77.4874676506071 0.0)scale(0.9962640099626402)" xlink:href="#CMR17-50"/>
       <use transform="translate(123.17794476766814 0.0)scale(0.9962640099626402)" xlink:href="#CMMI12-58"/>
       <use transform="translate(150.27512185748756 0.0)scale(0.9962640099626402)" xlink:href="#CMR17-50"/>
      </g>
     </g>
    </g>
    <g id="ytick_8">
     <g id="line2d_80">
      <g>
       <use style="stroke:#000000;stroke-width:0.5;" x="40.32" xlink:href="#md7965d1ba0" y="21.6"/>
      </g>
     </g>
     <g id="line2d_81">
      <g>
       <use style="stroke:#000000;stroke-width:0.5;" x="247.68" xlink:href="#md9a1c1a7cd" y="21.6"/>
      </g>
     </g>
     <g id="text_16">
      <!-- $-2.0$ -->
      <g transform="translate(15.841177299 24.0906600249)scale(0.1 -0.1)">
       <use transform="scale(0.9962640099626402)" xlink:href="#CMSY10-0"/>
       <use transform="translate(77.4874676506071 0.0)scale(0.9962640099626402)" xlink:href="#CMR17-50"/>
       <use transform="translate(123.17794476766814 0.0)scale(0.9962640099626402)" xlink:href="#CMMI12-58"/>
       <use transform="translate(150.27512185748756 0.0)scale(0.9962640099626402)" xlink:href="#CMR17-48"/>
      </g>
     </g>
    </g>
    <g id="text_17">
     <!-- $w_5$ -->
     <defs>
      <path d="
M34.4062 6.09375
C36.5938 0.09375 42.7969 -1 46.5938 -1
C54.2031 -1 58.7031 5.59375 61.5 12.4688
C63.7969 18.2656 67.5 31.4375 67.5 37.3281
C67.5 43.4062 64.4062 44 63.5 44
C61.0938 44 58.9062 41.6094 58.9062 39.6094
C58.9062 38.4219 59.5938 37.7188 60.0938 37.3281
C61 36.4219 63.5938 33.7344 63.5938 28.5469
C63.5938 25.1406 60.7969 15.7656 58.7031 11.0781
C55.9062 4.98438 52.2031 1 47 1
C41.4062 1 39.5938 5.1875 39.5938 9.78125
C39.5938 12.6719 40.5 16.1719 40.9062 17.8594
L45.0938 34.625
C45.5938 36.625 46.5 40.1094 46.5 40.5156
C46.5 42.0156 45.2969 43.0156 43.7969 43.0156
C40.9062 43.0156 40.2031 40.5156 39.5938 38.125
C38.5938 34.2344 34.4062 17.3594 34 15.1719
C33.5938 13.4688 33.5938 12.375 33.5938 10.1719
C33.5938 7.78125 30.4062 3.98438 30.2969 3.79688
C29.2031 2.6875 27.5938 1 24.5 1
C16.5938 1 16.5938 8.48438 16.5938 10.1719
C16.5938 13.375 17.2969 17.7656 21.7969 29.6406
C23 32.7344 23.5 34.0312 23.5 36.0156
C23.5 40.2188 20.5 44 15.5938 44
C6.40625 44 2.70312 29.5312 2.70312 28.7344
C2.70312 28.3438 3.09375 27.8438 3.79688 27.8438
C4.70312 27.8438 4.79688 28.2344 5.20312 29.625
C7.70312 38.3438 11.5938 41.9062 15.2969 41.9062
C16.2969 41.9062 17.9062 41.9062 17.9062 38.7188
C17.9062 38.2188 17.9062 36.125 16.2031 31.7344
C11.5 19.2656 10.5 15.1719 10.5 11.375
C10.5 0.890625 19.0938 -1 24.2031 -1
C25.9062 -1 30.4062 -1 34.4062 6.09375" id="CMMI12-119"/>
      <path d="
M11.4062 57.6875
C12.4062 57.2812 16.5 56 20.7031 56
C30 56 35.0938 61.0156 38 63.9219
C38 64.7344 38 65.25 37.4062 65.25
C37.2969 65.25 37.0938 65.25 36.2969 64.8281
C32.7969 63.3125 28.7031 62.0781 23.7031 62.0781
C20.7031 62.0781 16.2031 62.5 11.2969 64.7344
C10.2031 65.25 10 65.25 9.90625 65.25
C9.40625 65.25 9.29688 65.1406 9.29688 63.1562
L9.29688 34.2812
C9.29688 32.5 9.29688 32 10.2969 32
C10.7969 32 11 32.2031 11.5 32.9062
C14.7031 37.4844 19.0938 39.4062 24.0938 39.4062
C27.5938 39.4062 35.0938 37.2188 35.0938 20.1406
C35.0938 16.9531 35.0938 11.1719 32.0938 6.57812
C29.5938 2.48438 25.7031 0.390625 21.4062 0.390625
C14.7969 0.390625 8.09375 5 6.29688 12.7188
C6.70312 12.6094 7.5 12.4219 7.90625 12.4219
C9.20312 12.4219 11.7031 13.125 11.7031 16.2188
C11.7031 18.9062 9.79688 20 7.90625 20
C5.59375 20 4.09375 18.5938 4.09375 15.7969
C4.09375 7.09375 11 -2 21.5938 -2
C31.9062 -2 41.7031 6.875 41.7031 19.75
C41.7031 31.7188 33.9062 41 24.2031 41
C19.0938 41 14.7969 39.0938 11.4062 35.4531
z
" id="CMR17-53"/>
     </defs>
     <g transform="translate(8.90399896871 108.151827741)rotate(-90.0)scale(0.1 -0.1)">
      <use transform="translate(0.0 14.943914544092467)scale(0.9962640099626402)" xlink:href="#CMMI12-119"/>
      <use transform="translate(69.73198953630916 0.0)scale(0.6973817666173724)" xlink:href="#CMR17-53"/>
     </g>
    </g>
   </g>
  </g>
  <g id="axes_2">
   <g id="patch_8">
    <path d="
M133.68 177.6
L241.68 177.6
L241.68 69.6
L133.68 69.6
z
" style="fill:#ffffff;"/>
   </g>
   <g id="patch_9">
    <path d="
M133.68 69.6
L157.824 42.4286" style="fill:none;stroke:#999999;stroke-linejoin:miter;"/>
   </g>
   <g id="patch_10">
    <path d="
M241.68 69.6
L164.736 42.4286" style="fill:none;stroke:#999999;stroke-linejoin:miter;"/>
   </g>
   <g id="line2d_82">
    <path clip-path="url(#pc97622b0d7)" d="
M-1702.32 2992.59
M-1 171.943
L42.2954 155.837
L125.372 132.326
L208.449 115.807
L289 105.902" style="fill:none;stroke:#0000ff;stroke-linecap:square;stroke-width:0.1;"/>
   </g>
   <g id="line2d_83">
    <path clip-path="url(#pc97622b0d7)" d="
M-1702.32 2992.59
M-1 171.185
L42.2954 154.75
L125.372 131.036
L208.449 114.696
L289 105.189" style="fill:none;stroke:#0000ff;stroke-linecap:square;stroke-width:0.1;"/>
   </g>
   <g id="line2d_84">
    <path clip-path="url(#pc97622b0d7)" d="
M-1702.32 2992.59
M-1 177.733
L42.2954 164.546
L125.372 144.857
L208.449 129.502
L289 117.751" style="fill:none;stroke:#0000ff;stroke-linecap:square;stroke-width:0.1;"/>
   </g>
   <g id="line2d_85">
    <path clip-path="url(#pc97622b0d7)" d="
M-1702.32 2992.59
M-1 173.303
L42.2954 157.908
L125.372 135.434
L208.449 119.342
L289 109.075" style="fill:none;stroke:#0000ff;stroke-linecap:square;stroke-width:0.1;"/>
   </g>
   <g id="line2d_86">
    <path clip-path="url(#pc97622b0d7)" d="
M-1702.32 2992.59
M-1 174.219
L42.2954 159.239
L125.372 137.107
L208.449 120.91
L289 110.218" style="fill:none;stroke:#0000ff;stroke-linecap:square;stroke-width:0.1;"/>
   </g>
   <g id="line2d_87">
    <path clip-path="url(#pc97622b0d7)" d="
M-1702.32 2992.59
M-1 174.258
L42.2954 159.29
L125.372 137.149
L208.449 120.922
L289 110.2" style="fill:none;stroke:#0000ff;stroke-linecap:square;stroke-width:0.1;"/>
   </g>
   <g id="line2d_88">
    <path clip-path="url(#pc97622b0d7)" d="
M-1702.32 2992.59
M-1 175.293
L42.2954 160.872
L125.372 139.563
L208.449 123.721
L289 112.765" style="fill:none;stroke:#0000ff;stroke-linecap:square;stroke-width:0.1;"/>
   </g>
   <g id="line2d_89">
    <path clip-path="url(#pc97622b0d7)" d="
M-1702.32 2992.59
M-1 171.333
L42.2954 154.922
L125.372 131.014
L208.449 114.371
L289 104.652" style="fill:none;stroke:#0000ff;stroke-linecap:square;stroke-width:0.1;"/>
   </g>
   <g id="line2d_90">
    <path clip-path="url(#pc97622b0d7)" d="
M-1702.32 2992.59
M-1 174.665
L42.2954 159.911
L125.372 138.085
L208.449 121.988
L289 111.155" style="fill:none;stroke:#0000ff;stroke-linecap:square;stroke-width:0.1;"/>
   </g>
   <g id="line2d_91">
    <path clip-path="url(#pc97622b0d7)" d="
M-1702.32 2992.59
M-1 173.113
L42.2954 157.575
L125.372 134.714
L208.449 118.287
L289 107.935" style="fill:none;stroke:#0000ff;stroke-linecap:square;stroke-width:0.1;"/>
   </g>
   <g id="line2d_92">
    <path clip-path="url(#pc97622b0d7)" d="
M-1702.32 2992.59
M-1 175.029
L42.2954 160.481
L125.372 139.023
L208.449 123.147
L289 112.274" style="fill:none;stroke:#0000ff;stroke-linecap:square;stroke-width:0.1;"/>
   </g>
   <g id="line2d_93">
    <path clip-path="url(#pc97622b0d7)" d="
M-1702.32 2992.59
M-1 171.695
L42.2954 155.456
L125.372 131.74
L208.449 115.128
L289 105.285" style="fill:none;stroke:#0000ff;stroke-linecap:square;stroke-width:0.1;"/>
   </g>
   <g id="line2d_94">
    <path clip-path="url(#pc97622b0d7)" d="
M-1702.32 2992.59
M-1 172.413
L42.2954 156.559
L125.372 133.423
L208.449 117.049
L289 106.998" style="fill:none;stroke:#0000ff;stroke-linecap:square;stroke-width:0.1;"/>
   </g>
   <g id="line2d_95">
    <path clip-path="url(#pc97622b0d7)" d="
M-1702.32 2992.59
M-1 173.291
L42.2954 157.867
L125.372 135.256
L208.449 119.02
L289 108.692" style="fill:none;stroke:#0000ff;stroke-linecap:square;stroke-width:0.1;"/>
   </g>
   <g id="line2d_96">
    <path clip-path="url(#pc97622b0d7)" d="
M-1702.32 2992.59
M-1 172.432
L42.2954 156.581
L125.372 133.443
L208.449 117.086
L289 107.062" style="fill:none;stroke:#0000ff;stroke-linecap:square;stroke-width:0.1;"/>
   </g>
   <g id="line2d_97">
    <path clip-path="url(#pc97622b0d7)" d="
M-1702.32 2992.59
M-1 172.826
L42.2954 157.141
L125.372 134.075
L208.449 117.583
L289 107.328" style="fill:none;stroke:#0000ff;stroke-linecap:square;stroke-width:0.1;"/>
   </g>
   <g id="line2d_98">
    <path clip-path="url(#pc97622b0d7)" d="
M-1702.32 2992.59
M-1 168.932
L42.2954 151.3
L125.372 125.766
L208.449 108.604
L289 99.6428" style="fill:none;stroke:#0000ff;stroke-linecap:square;stroke-width:0.1;"/>
   </g>
   <g id="line2d_99">
    <path clip-path="url(#pc97622b0d7)" d="
M-1702.32 2992.59
M-1 173.001
L42.2954 157.428
L125.372 134.608
L208.449 118.291
L289 108.042" style="fill:none;stroke:#0000ff;stroke-linecap:square;stroke-width:0.1;"/>
   </g>
   <g id="line2d_100">
    <path clip-path="url(#pc97622b0d7)" d="
M-1702.32 2992.59
M-1 174.034
L42.2954 159.003
L125.372 136.986
L208.449 121.014
L289 110.503" style="fill:none;stroke:#0000ff;stroke-linecap:square;stroke-width:0.1;"/>
   </g>
   <g id="line2d_101">
    <path clip-path="url(#pc97622b0d7)" d="
M-1702.32 2992.59
M-1 173.377
L42.2954 157.979
L125.372 135.333
L208.449 119.008
L289 108.598" style="fill:none;stroke:#0000ff;stroke-linecap:square;stroke-width:0.1;"/>
   </g>
   <g id="line2d_102">
    <path clip-path="url(#pc97622b0d7)" d="
M-1702.32 2992.59
M-1 173.991
L42.2954 158.924
L125.372 136.796
L208.449 120.72
L289 110.173" style="fill:none;stroke:#0000ff;stroke-linecap:square;stroke-width:0.1;"/>
   </g>
   <g id="line2d_103">
    <path clip-path="url(#pc97622b0d7)" d="
M-1702.32 2992.59
M-1 172.943
L42.2954 157.347
L125.372 134.541
L208.449 118.287
L289 108.108" style="fill:none;stroke:#0000ff;stroke-linecap:square;stroke-width:0.1;"/>
   </g>
   <g id="line2d_104">
    <path clip-path="url(#pc97622b0d7)" d="
M-1702.32 2992.59
M-1 175.001
L42.2954 160.41
L125.372 138.768
L208.449 122.703
L289 111.751" style="fill:none;stroke:#0000ff;stroke-linecap:square;stroke-width:0.1;"/>
   </g>
   <g id="line2d_105">
    <path clip-path="url(#pc97622b0d7)" d="
M-1702.32 2992.59
M-1 172.07
L42.2954 156.042
L125.372 132.697
L208.449 116.303
L289 106.413" style="fill:none;stroke:#0000ff;stroke-linecap:square;stroke-width:0.1;"/>
   </g>
   <g id="line2d_106">
    <path clip-path="url(#pc97622b0d7)" d="
M-1702.32 2992.59
M-1 172.079
L42.2954 156.037
L125.372 132.598
L208.449 116.093
L289 106.145" style="fill:none;stroke:#0000ff;stroke-linecap:square;stroke-width:0.1;"/>
   </g>
   <g id="line2d_107">
    <path clip-path="url(#pc97622b0d7)" d="
M-1702.32 2992.59
M-1 174.016
L42.2954 158.979
L125.372 136.975
L208.449 121.032
L289 110.547" style="fill:none;stroke:#0000ff;stroke-linecap:square;stroke-width:0.1;"/>
   </g>
   <g id="line2d_108">
    <path clip-path="url(#pc97622b0d7)" d="
M-1702.32 2992.59
M-1 171.526
L42.2954 155.231
L125.372 131.565
L208.449 115.099
L289 105.393" style="fill:none;stroke:#0000ff;stroke-linecap:square;stroke-width:0.1;"/>
   </g>
   <g id="line2d_109">
    <path clip-path="url(#pc97622b0d7)" d="
M-1702.32 2992.59
M-1 174.246
L42.2954 159.318
L125.372 137.419
L208.449 121.464
L289 110.873" style="fill:none;stroke:#0000ff;stroke-linecap:square;stroke-width:0.1;"/>
   </g>
   <g id="line2d_110">
    <path clip-path="url(#pc97622b0d7)" d="
M-1702.32 2992.59
M-1 173.168
L42.2954 157.707
L125.372 135.153
L208.449 119.042
L289 108.818" style="fill:none;stroke:#0000ff;stroke-linecap:square;stroke-width:0.1;"/>
   </g>
   <g id="line2d_111">
    <path clip-path="url(#pc97622b0d7)" d="
M-1702.32 2992.59
M-1 174.374
L42.2954 159.494
L125.372 137.587
L208.449 121.555
L289 110.873" style="fill:none;stroke:#0000ff;stroke-linecap:square;stroke-width:0.1;"/>
   </g>
   <g id="line2d_112">
    <path clip-path="url(#pc97622b0d7)" d="
M-1702.32 2992.59
M-1 174.831
L42.2954 160.186
L125.372 138.617
L208.449 122.73
L289 111.94" style="fill:none;stroke:#0000ff;stroke-linecap:square;stroke-width:0.1;"/>
   </g>
   <g id="line2d_113">
    <path clip-path="url(#pc97622b0d7)" d="
M-1702.32 2992.59
M-1 176.111
L42.2954 162.147
L125.372 141.609
L208.449 126.175
L289 115.06" style="fill:none;stroke:#0000ff;stroke-linecap:square;stroke-width:0.1;"/>
   </g>
   <g id="line2d_114">
    <path clip-path="url(#pc97622b0d7)" d="
M-1702.32 2992.59
M-1 172.883
L42.2954 157.245
L125.372 134.339
L208.449 118.011
L289 107.826" style="fill:none;stroke:#0000ff;stroke-linecap:square;stroke-width:0.1;"/>
   </g>
   <g id="line2d_115">
    <path clip-path="url(#pc97622b0d7)" d="
M-1702.32 2992.59
M-1 173.13
L42.2954 157.606
L125.372 134.781
L208.449 118.387
L289 108.045" style="fill:none;stroke:#0000ff;stroke-linecap:square;stroke-width:0.1;"/>
   </g>
   <g id="line2d_116">
    <path clip-path="url(#pc97622b0d7)" d="
M-1702.32 2992.59
M-1 172.068
L42.2954 155.999
L125.372 132.427
L208.449 115.777
L289 105.762" style="fill:none;stroke:#0000ff;stroke-linecap:square;stroke-width:0.1;"/>
   </g>
   <g id="line2d_117">
    <path clip-path="url(#pc97622b0d7)" d="
M-1702.32 2992.59
M-1 171.906
L42.2954 155.77
L125.372 132.175
L208.449 115.58
L289 105.654" style="fill:none;stroke:#0000ff;stroke-linecap:square;stroke-width:0.1;"/>
   </g>
   <g id="line2d_118">
    <path clip-path="url(#pc97622b0d7)" d="
M-1702.32 2992.59
M-1 172.073
L42.2954 156.039
L125.372 132.658
L208.449 116.223
L289 106.314" style="fill:none;stroke:#0000ff;stroke-linecap:square;stroke-width:0.1;"/>
   </g>
   <g id="line2d_119">
    <path clip-path="url(#pc97622b0d7)" d="
M-1702.32 2992.59
M-1 175.993
L42.2954 161.948
L125.372 141.21
L208.449 125.613
L289 114.463" style="fill:none;stroke:#0000ff;stroke-linecap:square;stroke-width:0.1;"/>
   </g>
   <g id="line2d_120">
    <path clip-path="url(#pc97622b0d7)" d="
M-1702.32 2992.59
M-1 174.734
L42.2954 160.029
L125.372 138.333
L208.449 122.353
L289 111.557" style="fill:none;stroke:#0000ff;stroke-linecap:square;stroke-width:0.1;"/>
   </g>
   <g id="line2d_121">
    <path clip-path="url(#pc97622b0d7)" d="
M-1702.32 2992.59
M-1 172.944
L42.2954 157.371
L125.372 134.678
L208.449 118.54
L289 108.405" style="fill:none;stroke:#0000ff;stroke-linecap:square;stroke-width:0.1;"/>
   </g>
   <g id="line2d_122">
    <path clip-path="url(#pc97622b0d7)" d="
M-1702.32 2992.59
M-1 172.214
L42.2954 156.262
L125.372 133.029
L208.449 116.675
L289 106.737" style="fill:none;stroke:#0000ff;stroke-linecap:square;stroke-width:0.1;"/>
   </g>
   <g id="line2d_123">
    <path clip-path="url(#pc97622b0d7)" d="
M-1702.32 2992.59
M-1 173.687
L42.2954 158.49
L125.372 136.293
L208.449 120.299
L289 109.915" style="fill:none;stroke:#0000ff;stroke-linecap:square;stroke-width:0.1;"/>
   </g>
   <g id="line2d_124">
    <path clip-path="url(#pc97622b0d7)" d="
M-1702.32 2992.59
M-1 172.534
L42.2954 156.707
L125.372 133.478
L208.449 116.954
L289 106.798" style="fill:none;stroke:#0000ff;stroke-linecap:square;stroke-width:0.1;"/>
   </g>
   <g id="line2d_125">
    <path clip-path="url(#pc97622b0d7)" d="
M-1702.32 2992.59
M-1 172.398
L42.2954 156.531
L125.372 133.375
L208.449 117.008
L289 106.986" style="fill:none;stroke:#0000ff;stroke-linecap:square;stroke-width:0.1;"/>
   </g>
   <g id="line2d_126">
    <path clip-path="url(#pc97622b0d7)" d="
M-1702.32 2992.59
M-1 175.01
L42.2954 160.473
L125.372 139.115
L208.449 123.359
L289 112.548" style="fill:none;stroke:#0000ff;stroke-linecap:square;stroke-width:0.1;"/>
   </g>
   <g id="line2d_127">
    <path clip-path="url(#pc97622b0d7)" d="
M-1702.32 2992.59
M-1 175.877
L42.2954 161.78
L125.372 141.009
L208.449 125.434
L289 114.344" style="fill:none;stroke:#0000ff;stroke-linecap:square;stroke-width:0.1;"/>
   </g>
   <g id="line2d_128">
    <path clip-path="url(#pc97622b0d7)" d="
M-1702.32 2992.59
M-1 173.658
L42.2954 158.452
L125.372 136.268
L208.449 120.312
L289 109.965" style="fill:none;stroke:#0000ff;stroke-linecap:square;stroke-width:0.1;"/>
   </g>
   <g id="line2d_129">
    <path clip-path="url(#pc97622b0d7)" d="
M-1702.32 2992.59
M-1 172.946
L42.2954 157.341
L125.372 134.471
L208.449 118.129
L289 107.891" style="fill:none;stroke:#0000ff;stroke-linecap:square;stroke-width:0.1;"/>
   </g>
   <g id="line2d_130">
    <path clip-path="url(#pc97622b0d7)" d="
M-1702.32 2992.59
M-1 174.086
L42.2954 159.067
L125.372 137.007
L208.449 120.957
L289 110.384" style="fill:none;stroke:#0000ff;stroke-linecap:square;stroke-width:0.1;"/>
   </g>
   <g id="line2d_131">
    <path clip-path="url(#pc97622b0d7)" d="
M-1702.32 2992.59
M-1 173.366
L42.2954 157.98
L125.372 135.433
L208.449 119.243
L289 108.923" style="fill:none;stroke:#0000ff;stroke-linecap:square;stroke-width:0.1;"/>
   </g>
   <g id="line2d_132">
    <path clip-path="url(#pc97622b0d7)" d="
M187.68 145.2
L187.68 102" style="fill:none;stroke:#000000;stroke-linecap:square;"/>
   </g>
   <g id="patch_11">
    <path d="
M241.68 177.6
L241.68 69.6" style="fill:none;stroke:#000000;stroke-linecap:square;stroke-linejoin:miter;"/>
   </g>
   <g id="patch_12">
    <path d="
M133.68 177.6
L133.68 69.6" style="fill:none;stroke:#000000;stroke-linecap:square;stroke-linejoin:miter;"/>
   </g>
   <g id="patch_13">
    <path d="
M133.68 177.6
L241.68 177.6" style="fill:none;stroke:#000000;stroke-linecap:square;stroke-linejoin:miter;"/>
   </g>
   <g id="patch_14">
    <path d="
M133.68 69.6
L241.68 69.6" style="fill:none;stroke:#000000;stroke-linecap:square;stroke-linejoin:miter;"/>
   </g>
   <g id="matplotlib.axis_3">
    <g id="xtick_8">
     <g id="line2d_133">
      <g>
       <use style="stroke:#000000;stroke-width:0.5;" x="133.68" xlink:href="#mc7db9fdffb" y="177.6"/>
      </g>
     </g>
     <g id="line2d_134">
      <g>
       <use style="stroke:#000000;stroke-width:0.5;" x="133.68" xlink:href="#m5a7d422ac3" y="69.6"/>
      </g>
     </g>
    </g>
    <g id="xtick_9">
     <g id="line2d_135">
      <g>
       <use style="stroke:#000000;stroke-width:0.5;" x="160.68" xlink:href="#mc7db9fdffb" y="177.6"/>
      </g>
     </g>
     <g id="line2d_136">
      <g>
       <use style="stroke:#000000;stroke-width:0.5;" x="160.68" xlink:href="#m5a7d422ac3" y="69.6"/>
      </g>
     </g>
    </g>
    <g id="xtick_10">
     <g id="line2d_137">
      <g>
       <use style="stroke:#000000;stroke-width:0.5;" x="187.68" xlink:href="#mc7db9fdffb" y="177.6"/>
      </g>
     </g>
     <g id="line2d_138">
      <g>
       <use style="stroke:#000000;stroke-width:0.5;" x="187.68" xlink:href="#m5a7d422ac3" y="69.6"/>
      </g>
     </g>
    </g>
    <g id="xtick_11">
     <g id="line2d_139">
      <g>
       <use style="stroke:#000000;stroke-width:0.5;" x="214.68" xlink:href="#mc7db9fdffb" y="177.6"/>
      </g>
     </g>
     <g id="line2d_140">
      <g>
       <use style="stroke:#000000;stroke-width:0.5;" x="214.68" xlink:href="#m5a7d422ac3" y="69.6"/>
      </g>
     </g>
    </g>
    <g id="xtick_12">
     <g id="line2d_141">
      <g>
       <use style="stroke:#000000;stroke-width:0.5;" x="241.68" xlink:href="#mc7db9fdffb" y="177.6"/>
      </g>
     </g>
     <g id="line2d_142">
      <g>
       <use style="stroke:#000000;stroke-width:0.5;" x="241.68" xlink:href="#m5a7d422ac3" y="69.6"/>
      </g>
     </g>
    </g>
   </g>
   <g id="matplotlib.axis_4">
    <g id="ytick_9">
     <g id="line2d_143">
      <g>
       <use style="stroke:#000000;stroke-width:0.5;" x="133.68" xlink:href="#md7965d1ba0" y="177.6"/>
      </g>
     </g>
     <g id="line2d_144">
      <g>
       <use style="stroke:#000000;stroke-width:0.5;" x="241.68" xlink:href="#md9a1c1a7cd" y="177.6"/>
      </g>
     </g>
    </g>
    <g id="ytick_10">
     <g id="line2d_145">
      <g>
       <use style="stroke:#000000;stroke-width:0.5;" x="133.68" xlink:href="#md7965d1ba0" y="164.1"/>
      </g>
     </g>
     <g id="line2d_146">
      <g>
       <use style="stroke:#000000;stroke-width:0.5;" x="241.68" xlink:href="#md9a1c1a7cd" y="164.1"/>
      </g>
     </g>
    </g>
    <g id="ytick_11">
     <g id="line2d_147">
      <g>
       <use style="stroke:#000000;stroke-width:0.5;" x="133.68" xlink:href="#md7965d1ba0" y="150.6"/>
      </g>
     </g>
     <g id="line2d_148">
      <g>
       <use style="stroke:#000000;stroke-width:0.5;" x="241.68" xlink:href="#md9a1c1a7cd" y="150.6"/>
      </g>
     </g>
    </g>
    <g id="ytick_12">
     <g id="line2d_149">
      <g>
       <use style="stroke:#000000;stroke-width:0.5;" x="133.68" xlink:href="#md7965d1ba0" y="137.1"/>
      </g>
     </g>
     <g id="line2d_150">
      <g>
       <use style="stroke:#000000;stroke-width:0.5;" x="241.68" xlink:href="#md9a1c1a7cd" y="137.1"/>
      </g>
     </g>
    </g>
    <g id="ytick_13">
     <g id="line2d_151">
      <g>
       <use style="stroke:#000000;stroke-width:0.5;" x="133.68" xlink:href="#md7965d1ba0" y="123.6"/>
      </g>
     </g>
     <g id="line2d_152">
      <g>
       <use style="stroke:#000000;stroke-width:0.5;" x="241.68" xlink:href="#md9a1c1a7cd" y="123.6"/>
      </g>
     </g>
    </g>
    <g id="ytick_14">
     <g id="line2d_153">
      <g>
       <use style="stroke:#000000;stroke-width:0.5;" x="133.68" xlink:href="#md7965d1ba0" y="110.1"/>
      </g>
     </g>
     <g id="line2d_154">
      <g>
       <use style="stroke:#000000;stroke-width:0.5;" x="241.68" xlink:href="#md9a1c1a7cd" y="110.1"/>
      </g>
     </g>
    </g>
    <g id="ytick_15">
     <g id="line2d_155">
      <g>
       <use style="stroke:#000000;stroke-width:0.5;" x="133.68" xlink:href="#md7965d1ba0" y="96.6"/>
      </g>
     </g>
     <g id="line2d_156">
      <g>
       <use style="stroke:#000000;stroke-width:0.5;" x="241.68" xlink:href="#md9a1c1a7cd" y="96.6"/>
      </g>
     </g>
    </g>
    <g id="ytick_16">
     <g id="line2d_157">
      <g>
       <use style="stroke:#000000;stroke-width:0.5;" x="133.68" xlink:href="#md7965d1ba0" y="83.1"/>
      </g>
     </g>
     <g id="line2d_158">
      <g>
       <use style="stroke:#000000;stroke-width:0.5;" x="241.68" xlink:href="#md9a1c1a7cd" y="83.1"/>
      </g>
     </g>
    </g>
    <g id="ytick_17">
     <g id="line2d_159">
      <g>
       <use style="stroke:#000000;stroke-width:0.5;" x="133.68" xlink:href="#md7965d1ba0" y="69.6"/>
      </g>
     </g>
     <g id="line2d_160">
      <g>
       <use style="stroke:#000000;stroke-width:0.5;" x="241.68" xlink:href="#md9a1c1a7cd" y="69.6"/>
      </g>
     </g>
    </g>
   </g>
  </g>
 </g>
 <defs>
  <clipPath id="pc97622b0d7">
   <rect height="108.0" width="108.0" x="133.68" y="69.6"/>
  </clipPath>
  <clipPath id="p2574a8f0b3">
   <rect height="162.0" width="207.36" x="40.32" y="21.6"/>
  </clipPath>
 </defs>
</svg>
