<?xml version="1.0" encoding="utf-8" standalone="no"?>
<!DOCTYPE svg PUBLIC "-//W3C//DTD SVG 1.1//EN"
  "http://www.w3.org/Graphics/SVG/1.1/DTD/svg11.dtd">
<!-- Created with matplotlib (http://matplotlib.org/) -->
<svg height="237pt" version="1.1" viewBox="0 0 252 237" width="252pt" xmlns="http://www.w3.org/2000/svg" xmlns:xlink="http://www.w3.org/1999/xlink">
 <defs>
  <style type="text/css">
*{stroke-linecap:butt;stroke-linejoin:round;}
  </style>
 </defs>
 <g id="figure_1">
  <g id="patch_1">
   <path d="
M0 237.6
L252 237.6
L252 0
L0 0
z
" style="fill:#ffffff;"/>
  </g>
  <g id="axes_1">
   <g id="patch_2">
    <path d="
M37.8 110.484
L214.2 110.484
L214.2 14.256
L37.8 14.256
z
" style="fill:#ffffff;"/>
   </g>
   <g id="line2d_1">
    <path clip-path="url(#pfdd46de056)" d="
M37.5507 52.6979
L38.4325 40.5299
L39.9021 32.6295
L40.196 32.6451
L41.0778 36.4873
L41.3717 35.688
L42.2535 29.8694
L42.5474 29.2426
L42.8413 29.2761
L43.7231 30.1849
L44.6048 30.5014
L45.1927 30.5549
L45.7805 30.2442
L46.9562 29.3052
L47.2501 29.0042
L47.5441 28.8685
L47.838 29.0316
L49.0137 30.7852
L49.3076 30.6881
L50.1894 29.5556
L50.4833 29.496
L50.7772 29.8079
L51.365 31.4152
L51.659 32.5749
L51.9529 34.2383
L52.2468 37.5439
L52.5407 44.6131
L53.4225 74.9556
L53.7164 78.5293
L54.0103 79.6136
L54.3043 78.7254
L54.5982 75.4238
L54.8921 68.3139
L55.7739 36.2689
L56.0678 32.6362
L56.3617 31.4742
L56.6556 31.4463
L56.9496 32.0439
L57.8313 35.17
L58.1252 35.2509
L58.4192 34.4051
L59.007 31.9637
L59.3009 31.4395
L59.5949 31.4498
L60.4766 32.3598
L60.7705 32.4035
L61.0645 32.1432
L62.2401 30.0561
L62.5341 30.2977
L62.828 31.205
L63.1219 32.9965
L63.4158 35.9662
L64.2976 48.618
L64.5915 50.0086
L64.8854 48.5357
L66.0611 33.6252
L66.3551 32.7341
L66.649 32.7498
L66.9429 33.2932
L67.8247 35.3925
L68.1186 35.4745
L68.4125 35.1566
L69.0003 34.1777
L69.2943 33.957
L69.5882 34.0926
L69.8821 34.978
L70.176 37.6013
L70.7639 47.354
L71.0578 49.2178
L71.3517 46.8806
L71.9396 37.4495
L72.2335 34.6448
L72.5274 33.2342
L72.8213 32.6898
L73.1153 32.7415
L73.7031 33.7849
L74.2909 34.8439
L74.5849 35.1046
L75.4666 35.5203
L75.7605 36.0661
L76.0545 37.0266
L76.3484 38.508
L76.6423 40.7678
L76.9362 44.5459
L77.2302 51.5475
L78.1119 82.1087
L78.4058 86.0272
L78.6998 88.2993
L78.9937 89.5248
L79.2876 89.8757
L79.5815 89.3868
L79.8755 88.0082
L80.1694 85.5283
L80.4633 81.2235
L80.7572 73.2662
L81.3451 51.0115
L81.639 45.2759
L82.2268 40.2167
L83.1086 35.634
L83.6964 33.5887
L84.2843 32.3116
L85.166 30.9966
L85.7539 30.4524
L86.6357 30.1003
L88.987 29.5006
L89.2809 29.7712
L89.5749 30.3607
L90.7506 33.8871
L91.0445 33.8694
L91.3384 33.4307
L92.5141 30.8322
L93.1019 30.3096
L94.2776 29.7254
L94.5715 29.7663
L95.4533 30.1776
L96.629 30.0355
L96.9229 30.2186
L97.2168 30.6744
L98.0986 32.7814
L98.3925 32.791
L99.2743 31.0541
L99.5682 30.9736
L100.156 31.5029
L100.45 31.5599
L101.332 30.9259
L101.626 31.3681
L101.92 32.936
L102.214 36.4286
L102.801 49.477
L103.389 67.4797
L103.977 85.9158
L104.271 89.4654
L104.565 91.3157
L104.859 91.9672
L105.153 91.5045
L105.447 89.8554
L105.741 86.509
L106.034 78.0954
L106.622 40.5827
L106.916 32.9979
L107.21 31.217
L107.504 30.9446
L108.092 30.9943
L109.562 31.4703
L111.325 32.1001
L116.616 34.3829
L117.791 35.2766
L119.261 36.6741
L121.318 38.7083
L122.788 40.8392
L123.67 42.4461
L124.845 45.161
L127.197 51.4849
L128.079 54.7847
L128.96 58.9858
L130.43 66.011
L131.9 73.8894
L132.194 75.9307
L132.781 82.5631
L133.369 90.1071
L133.957 95.4483
L134.545 98.6877
L134.839 99.632
L135.133 100.186
L135.427 100.38
L135.721 100.225
L136.015 99.7113
L136.308 98.812
L136.896 95.682
L137.484 90.5222
L138.072 85.1906
L138.366 87.41
L138.954 96.453
L139.542 101.581
L139.835 102.792
L140.129 103.377
L140.423 103.487
L140.717 103.155
L141.011 102.285
L141.305 100.686
L141.599 98.1499
L142.187 89.7425
L142.775 80.2354
L143.363 75.9978
L145.714 62.4645
L146.008 61.3629
L146.302 60.8248
L146.89 60.8673
L147.184 60.3718
L147.477 58.9891
L148.653 50.8446
L149.241 48.3258
L150.123 45.7424
L150.711 44.5967
L151.005 44.3186
L151.592 44.1299
L152.474 43.317
L153.062 43.4967
L153.356 43.1828
L153.944 42.0477
L154.532 40.3254
L155.119 38.2796
L155.707 37.0775
L156.589 36.1821
L157.177 35.7722
L157.765 35.663
L158.059 35.8129
L159.234 36.9057
L159.528 36.7842
L160.116 35.9699
L161.292 34.0225
L161.88 33.5513
L163.055 33.3115
L164.231 32.5324
L165.113 32.4044
L165.995 32.3808
L166.288 32.4802
L166.582 32.7145
L167.17 33.5893
L167.758 34.5137
L168.052 34.7426
L168.346 34.7077
L168.64 34.4095
L169.522 33.1724
L169.816 33.0326
L170.991 33.0779
L171.579 33.2755
L171.873 33.6133
L172.167 34.244
L172.461 35.4331
L172.755 37.9473
L173.049 43.5647
L173.93 75.6612
L174.224 80.2285
L174.518 82.0988
L174.812 82.2211
L175.106 80.6442
L175.4 76.5426
L175.694 68.0613
L176.282 44.1496
L176.576 38.2555
L176.87 35.9752
L177.164 35.1536
L177.457 34.8352
L178.045 34.6551
L178.633 34.8011
L178.927 35.025
L179.221 35.4561
L179.515 36.7518
L179.809 41.894
L180.691 86.8144
L180.985 90.813
L181.278 93.1314
L181.572 94.303
L181.866 94.4438
L182.16 93.5661
L182.454 91.5901
L182.748 88.209
L183.042 81.6138
L183.336 70.611
L183.63 69.2566
L184.218 86.2921
L184.806 94.3843
L185.099 96.5601
L185.393 97.8534
L185.687 98.396
L185.981 98.2458
L186.275 97.3866
L186.569 95.7281
L186.863 93.1078
L187.157 89.2581
L187.451 83.3432
L188.333 54.8843
L188.92 47.4831
L189.508 43.1798
L190.096 40.073
L190.684 37.7767
L191.272 36.1446
L191.86 35.0235
L192.154 34.7181
L192.447 34.7358
L192.741 35.192
L193.329 36.6969
L193.623 36.8133
L193.917 36.1358
L194.799 32.8189
L195.387 31.8926
L196.268 31.1444
L196.856 30.8276
L197.15 30.7796
L197.444 30.8682
L197.738 31.148
L198.326 32.018
L198.62 32.1658
L198.914 31.9106
L199.796 30.5567
L200.089 30.4765
L201.265 30.6344
L203.323 29.8727
L203.617 29.9626
L203.91 30.2118
L204.204 30.7963
L204.498 31.9824
L205.086 36.4545
L205.674 40.4283
L205.968 40.4033
L206.262 38.8294
L206.85 34.5227
L207.144 33.7778
L207.437 34.215
L207.731 35.0808
L208.025 35.4821
L208.319 34.9785
L209.201 31.9249
L210.377 30.7608
L210.965 30.0177
L211.552 29.7538
L212.728 29.47
L214.492 29.5719
L214.492 29.5719" style="fill:none;stroke:#ff0000;stroke-linecap:square;"/>
   </g>
   <g id="matplotlib.axis_1">
    <g id="xtick_1">
     <g id="line2d_2">
      <defs>
       <path d="
M0 0
L0 -4" id="mc7db9fdffb" style="stroke:#000000;stroke-width:0.5;"/>
      </defs>
      <g>
       <use style="stroke:#000000;stroke-width:0.5;" x="37.8" xlink:href="#mc7db9fdffb" y="110.484"/>
      </g>
     </g>
     <g id="line2d_3">
      <defs>
       <path d="
M0 0
L0 4" id="m5a7d422ac3" style="stroke:#000000;stroke-width:0.5;"/>
      </defs>
      <g>
       <use style="stroke:#000000;stroke-width:0.5;" x="37.8" xlink:href="#m5a7d422ac3" y="14.256"/>
      </g>
     </g>
    </g>
    <g id="xtick_2">
     <g id="line2d_4">
      <g>
       <use style="stroke:#000000;stroke-width:0.5;" x="67.2" xlink:href="#mc7db9fdffb" y="110.484"/>
      </g>
     </g>
     <g id="line2d_5">
      <g>
       <use style="stroke:#000000;stroke-width:0.5;" x="67.2" xlink:href="#m5a7d422ac3" y="14.256"/>
      </g>
     </g>
    </g>
    <g id="xtick_3">
     <g id="line2d_6">
      <g>
       <use style="stroke:#000000;stroke-width:0.5;" x="96.6" xlink:href="#mc7db9fdffb" y="110.484"/>
      </g>
     </g>
     <g id="line2d_7">
      <g>
       <use style="stroke:#000000;stroke-width:0.5;" x="96.6" xlink:href="#m5a7d422ac3" y="14.256"/>
      </g>
     </g>
    </g>
    <g id="xtick_4">
     <g id="line2d_8">
      <g>
       <use style="stroke:#000000;stroke-width:0.5;" x="126.0" xlink:href="#mc7db9fdffb" y="110.484"/>
      </g>
     </g>
     <g id="line2d_9">
      <g>
       <use style="stroke:#000000;stroke-width:0.5;" x="126.0" xlink:href="#m5a7d422ac3" y="14.256"/>
      </g>
     </g>
    </g>
    <g id="xtick_5">
     <g id="line2d_10">
      <g>
       <use style="stroke:#000000;stroke-width:0.5;" x="155.4" xlink:href="#mc7db9fdffb" y="110.484"/>
      </g>
     </g>
     <g id="line2d_11">
      <g>
       <use style="stroke:#000000;stroke-width:0.5;" x="155.4" xlink:href="#m5a7d422ac3" y="14.256"/>
      </g>
     </g>
    </g>
    <g id="xtick_6">
     <g id="line2d_12">
      <g>
       <use style="stroke:#000000;stroke-width:0.5;" x="184.8" xlink:href="#mc7db9fdffb" y="110.484"/>
      </g>
     </g>
     <g id="line2d_13">
      <g>
       <use style="stroke:#000000;stroke-width:0.5;" x="184.8" xlink:href="#m5a7d422ac3" y="14.256"/>
      </g>
     </g>
    </g>
    <g id="xtick_7">
     <g id="line2d_14">
      <g>
       <use style="stroke:#000000;stroke-width:0.5;" x="214.2" xlink:href="#mc7db9fdffb" y="110.484"/>
      </g>
     </g>
     <g id="line2d_15">
      <g>
       <use style="stroke:#000000;stroke-width:0.5;" x="214.2" xlink:href="#m5a7d422ac3" y="14.256"/>
      </g>
     </g>
    </g>
   </g>
   <g id="matplotlib.axis_2">
    <g id="ytick_1">
     <g id="line2d_16">
      <defs>
       <path d="
M0 0
L4 0" id="md7965d1ba0" style="stroke:#000000;stroke-width:0.5;"/>
      </defs>
      <g>
       <use style="stroke:#000000;stroke-width:0.5;" x="37.8" xlink:href="#md7965d1ba0" y="110.484"/>
      </g>
     </g>
     <g id="line2d_17">
      <defs>
       <path d="
M0 0
L-4 0" id="md9a1c1a7cd" style="stroke:#000000;stroke-width:0.5;"/>
      </defs>
      <g>
       <use style="stroke:#000000;stroke-width:0.5;" x="214.2" xlink:href="#md9a1c1a7cd" y="110.484"/>
      </g>
     </g>
     <g id="text_1">
      <!-- $0.0$ -->
      <defs>
       <path d="
M18.4062 4.79688
C18.4062 7.6875 16 9.67188 13.5938 9.67188
C10.7031 9.67188 8.70312 7.28125 8.70312 4.89062
C8.70312 2 11.0938 0 13.5 0
C16.4062 0 18.4062 2.39062 18.4062 4.79688" id="CMMI12-58"/>
       <path d="
M42 31.6406
C42 37.75 41.9062 48.125 37.7031 56.1094
C34 63.1094 28.0938 65.5938 22.9062 65.5938
C18.0938 65.5938 12 63.4062 8.20312 56.2031
C4.20312 48.7188 3.79688 39.4375 3.79688 31.6406
C3.79688 25.9531 3.90625 17.2812 7 9.67188
C11.2969 -0.609375 19 -2 22.9062 -2
C27.5 -2 34.5 -0.109375 38.5938 9.375
C41.5938 16.2812 42 24.3594 42 31.6406
M22.9062 -0.40625
C16.5 -0.40625 12.7031 5.07812 11.2969 12.6875
C10.2031 18.5625 10.2031 27.1562 10.2031 32.75
C10.2031 40.4375 10.2031 46.8281 11.5 52.9219
C13.4062 61.3906 19 64 22.9062 64
C27 64 32.2969 61.2969 34.2031 53.125
C35.5 47.4375 35.5938 40.7344 35.5938 32.75
C35.5938 26.25 35.5938 18.2656 34.4062 12.375
C32.2969 1.48438 26.4062 -0.40625 22.9062 -0.40625" id="CMR17-48"/>
      </defs>
      <g transform="translate(21.0699210237 112.974660025)scale(0.1 -0.1)">
       <use transform="scale(0.9962640099626402)" xlink:href="#CMR17-48"/>
       <use transform="translate(45.69047711706103 0.0)scale(0.9962640099626402)" xlink:href="#CMMI12-58"/>
       <use transform="translate(72.78765420688046 0.0)scale(0.9962640099626402)" xlink:href="#CMR17-48"/>
      </g>
     </g>
    </g>
    <g id="ytick_2">
     <g id="line2d_18">
      <g>
       <use style="stroke:#000000;stroke-width:0.5;" x="37.8" xlink:href="#md7965d1ba0" y="93.8929655172"/>
      </g>
     </g>
     <g id="line2d_19">
      <g>
       <use style="stroke:#000000;stroke-width:0.5;" x="214.2" xlink:href="#md9a1c1a7cd" y="93.8929655172"/>
      </g>
     </g>
     <g id="text_2">
      <!-- $0.2$ -->
      <defs>
       <path d="
M41.7031 15.4531
L39.9062 15.4531
C38.9062 8.375 38.0938 7.17188 37.7031 6.5625
C37.2031 5.76562 30 5.76562 28.5938 5.76562
L9.40625 5.76562
C13 9.67188 20 16.75 28.5 24.9531
C34.5938 30.7344 41.7031 37.5312 41.7031 47.4219
C41.7031 59.2188 32.2969 66 21.7969 66
C10.7969 66 4.09375 56.3125 4.09375 47.3438
C4.09375 43.4375 7 42.9375 8.20312 42.9375
C9.20312 42.9375 12.2031 43.5469 12.2031 47.0312
C12.2031 50.1094 9.59375 51 8.20312 51
C7.59375 51 7 50.9062 6.59375 50.7031
C8.5 59.2188 14.2969 63.4062 20.4062 63.4062
C29.0938 63.4062 34.7969 56.5156 34.7969 47.4219
C34.7969 38.7344 29.7031 31.25 24 24.75
L4.09375 2.28125
L4.09375 0
L39.2969 0
z
" id="CMR17-50"/>
      </defs>
      <g transform="translate(21.0699210237 96.3836255421)scale(0.1 -0.1)">
       <use transform="scale(0.9962640099626402)" xlink:href="#CMR17-48"/>
       <use transform="translate(45.69047711706103 0.0)scale(0.9962640099626402)" xlink:href="#CMMI12-58"/>
       <use transform="translate(72.78765420688046 0.0)scale(0.9962640099626402)" xlink:href="#CMR17-50"/>
      </g>
     </g>
    </g>
    <g id="ytick_3">
     <g id="line2d_20">
      <g>
       <use style="stroke:#000000;stroke-width:0.5;" x="37.8" xlink:href="#md7965d1ba0" y="77.3019310345"/>
      </g>
     </g>
     <g id="line2d_21">
      <g>
       <use style="stroke:#000000;stroke-width:0.5;" x="214.2" xlink:href="#md9a1c1a7cd" y="77.3019310345"/>
      </g>
     </g>
     <g id="text_3">
      <!-- $0.4$ -->
      <defs>
       <path d="
M33.5938 64.3281
C33.5938 66.4062 33.5 66.5 31.7031 66.5
L2 19.5938
L2 17
L27.7969 17
L27.7969 7.14062
C27.7969 3.5 27.5938 2.5 20.5938 2.5
L18.7031 2.5
L18.7031 0
C21.9062 0 27.2969 0 30.7031 0
C34.0938 0 39.5 0 42.7031 0
L42.7031 2.5
L40.7969 2.5
C33.7969 2.5 33.5938 3.5 33.5938 7.14062
L33.5938 17
L43.7969 17
L43.7969 19.5938
L33.5938 19.5938
z

M28.0938 57.7656
L28.0938 19.5938
L4 19.5938
z
" id="CMR17-52"/>
      </defs>
      <g transform="translate(21.0699210237 79.7925910594)scale(0.1 -0.1)">
       <use transform="scale(0.9962640099626402)" xlink:href="#CMR17-48"/>
       <use transform="translate(45.69047711706103 0.0)scale(0.9962640099626402)" xlink:href="#CMMI12-58"/>
       <use transform="translate(72.78765420688046 0.0)scale(0.9962640099626402)" xlink:href="#CMR17-52"/>
      </g>
     </g>
    </g>
    <g id="ytick_4">
     <g id="line2d_22">
      <g>
       <use style="stroke:#000000;stroke-width:0.5;" x="37.8" xlink:href="#md7965d1ba0" y="60.7108965517"/>
      </g>
     </g>
     <g id="line2d_23">
      <g>
       <use style="stroke:#000000;stroke-width:0.5;" x="214.2" xlink:href="#md9a1c1a7cd" y="60.7108965517"/>
      </g>
     </g>
     <g id="text_4">
      <!-- $0.6$ -->
      <defs>
       <path d="
M10.5938 34
C10.5938 57.6562 21.7969 63 28.2969 63
C30.4062 63 35.5 62.6406 37.5 59
C35.9062 59 32.9062 59 32.9062 55.5156
C32.9062 52.8281 35.0938 51.9219 36.5 51.9219
C37.4062 51.9219 40.0938 52.3125 40.0938 55.625
C40.0938 61.7812 35.0938 65.2969 28.2031 65.2969
C16.2969 65.2969 3.79688 52.9688 3.79688 31
C3.79688 3.95312 15.0938 -2 23.0938 -2
C32.7969 -2 42 6.67188 42 20.0469
C42 32.5156 33.9062 41.5938 23.7031 41.5938
C17.5938 41.5938 13.0938 37.6094 10.5938 30.625
z

M23.0938 0.390625
C10.7969 0.390625 10.7969 18.75 10.7969 22.4375
C10.7969 29.625 14.2031 40 23.5 40
C25.2031 40 30.0938 40 33.4062 33.125
C35.2031 29.2188 35.2031 25.1406 35.2031 20.1406
C35.2031 14.75 35.2031 10.7812 33.0938 6.78125
C30.9062 2.67188 27.7031 0.390625 23.0938 0.390625" id="CMR17-54"/>
      </defs>
      <g transform="translate(21.0699210237 63.2015565766)scale(0.1 -0.1)">
       <use transform="scale(0.9962640099626402)" xlink:href="#CMR17-48"/>
       <use transform="translate(45.69047711706103 0.0)scale(0.9962640099626402)" xlink:href="#CMMI12-58"/>
       <use transform="translate(72.78765420688046 0.0)scale(0.9962640099626402)" xlink:href="#CMR17-54"/>
      </g>
     </g>
    </g>
    <g id="ytick_5">
     <g id="line2d_24">
      <g>
       <use style="stroke:#000000;stroke-width:0.5;" x="37.8" xlink:href="#md7965d1ba0" y="44.119862069"/>
      </g>
     </g>
     <g id="line2d_25">
      <g>
       <use style="stroke:#000000;stroke-width:0.5;" x="214.2" xlink:href="#md9a1c1a7cd" y="44.119862069"/>
      </g>
     </g>
     <g id="text_5">
      <!-- $0.8$ -->
      <defs>
       <path d="
M27.2031 35.375
C33.5 38.5625 39.9062 43.3281 39.9062 50.9844
C39.9062 60.0312 31.0938 65.2969 23 65.2969
C13.9062 65.2969 5.90625 58.7344 5.90625 49.6875
C5.90625 47.2031 6.5 42.9219 10.4062 39.1406
C11.4062 38.1562 15.5938 35.1719 18.2969 33.2812
C13.7969 30.9844 3.29688 25.5312 3.29688 14.5938
C3.29688 4.35938 13.0938 -2 22.7969 -2
C33.5 -2 42.5 5.65625 42.5 15.7969
C42.5 24.8438 36.4062 29.0312 32.4062 31.7031
z

M14.0938 44.125
C13.2969 44.625 9.29688 47.7031 9.29688 52.375
C9.29688 58.4375 15.5938 63 22.7969 63
C30.7031 63 36.5 57.4531 36.5 50.9844
C36.5 41.7344 26.0938 36.4688 25.5938 36.4688
C25.5 36.4688 25.4062 36.4688 24.5938 37.0781
z

M32.5 23.7344
C34 22.6406 38.7969 19.375 38.7969 13.2969
C38.7969 5.95312 31.4062 0.390625 23 0.390625
C13.9062 0.390625 7 6.84375 7 14.6875
C7 22.5469 13.0938 29.0938 20 32.1875
z
" id="CMR17-56"/>
      </defs>
      <g transform="translate(21.0699210237 46.6105220939)scale(0.1 -0.1)">
       <use transform="scale(0.9962640099626402)" xlink:href="#CMR17-48"/>
       <use transform="translate(45.69047711706103 0.0)scale(0.9962640099626402)" xlink:href="#CMMI12-58"/>
       <use transform="translate(72.78765420688046 0.0)scale(0.9962640099626402)" xlink:href="#CMR17-56"/>
      </g>
     </g>
    </g>
    <g id="ytick_6">
     <g id="line2d_26">
      <g>
       <use style="stroke:#000000;stroke-width:0.5;" x="37.8" xlink:href="#md7965d1ba0" y="27.5288275862"/>
      </g>
     </g>
     <g id="line2d_27">
      <g>
       <use style="stroke:#000000;stroke-width:0.5;" x="214.2" xlink:href="#md9a1c1a7cd" y="27.5288275862"/>
      </g>
     </g>
     <g id="text_6">
      <!-- $1.0$ -->
      <defs>
       <path d="
M26.5938 63.3125
C26.5938 65.4062 26.5 65.5 25.0938 65.5
C21.2031 61.1875 15.2969 59.7969 9.70312 59.7969
C9.40625 59.7969 8.90625 59.7969 8.79688 59.6094
C8.70312 59.3906 8.70312 59.1719 8.70312 57
C11.7969 57 17 57.5938 21 59.9844
L21 7.20312
C21 3.6875 20.7969 2.5 12.2031 2.5
L9.20312 2.5
L9.20312 0
C14 0 19 0 23.7969 0
C28.5938 0 33.5938 0 38.4062 0
L38.4062 2.5
L35.4062 2.5
C26.7969 2.5 26.5938 3.59375 26.5938 7.15625
z
" id="CMR17-49"/>
      </defs>
      <g transform="translate(21.0699210237 30.0194876111)scale(0.1 -0.1)">
       <use transform="scale(0.9962640099626402)" xlink:href="#CMR17-49"/>
       <use transform="translate(45.69047711706103 0.0)scale(0.9962640099626402)" xlink:href="#CMMI12-58"/>
       <use transform="translate(72.78765420688046 0.0)scale(0.9962640099626402)" xlink:href="#CMR17-48"/>
      </g>
     </g>
    </g>
   </g>
   <g id="patch_3">
    <path d="
M37.8 14.256
L214.2 14.256" style="fill:none;stroke:#000000;"/>
   </g>
   <g id="patch_4">
    <path d="
M37.8 110.484
L37.8 14.256" style="fill:none;stroke:#000000;"/>
   </g>
   <g id="patch_5">
    <path d="
M214.2 110.484
L214.2 14.256" style="fill:none;stroke:#000000;"/>
   </g>
   <g id="patch_6">
    <path d="
M37.8 110.484
L214.2 110.484" style="fill:none;stroke:#000000;"/>
   </g>
   <g id="text_7">
    <!-- raw -->
    <defs>
     <path d="
M58.2031 34.0781
C60.2031 40 64.2031 40 65.7031 40
L65.7031 42.6875
C63.7031 42.6875 61.7031 42.6875 59.7031 42.6875
C57.7969 42.6875 53.5 42.6875 51.7969 42.7812
L51.7969 40
C54.9062 40 56.5938 38.1875 56.5938 35.7031
C56.5938 35 56.4062 34.0938 56.2031 33.4062
L46.7969 6.20312
L36.5938 35.5156
C36.4062 36.2188 36.0938 37.0156 36.0938 37.4062
C36.0938 40 39.5 40 41.0938 40
L41.0938 42.7812
C38.7969 42.6875 34.5938 42.6875 32.2031 42.6875
C29.7031 42.6875 27.0938 42.6875 24.7969 42.7812
L24.7969 40
C30.2969 40 30.2969 39.7969 32.4062 33.7031
L23.2031 6.90625
L13.2969 35.625
C12.7969 36.9062 12.7969 37.1094 12.7969 37.4062
C12.7969 40 16.2031 40 17.7969 40
L17.7969 42.7812
C15.4062 42.6875 11.2031 42.6875 8.70312 42.6875
C6.5 42.6875 3.09375 42.6875 1 42.7812
L1 40
C5.40625 40 6.5 39.7031 7.59375 36.4062
L19.9062 0.59375
C20.2969 -0.703125 20.5938 -1 21.4062 -1
C22.0938 -1 22.5 -0.796875 23 0.703125
L33.2969 30.9062
L43.7031 0.703125
C44.2031 -0.796875 44.5938 -1 45.2969 -1
C46.0938 -1 46.4062 -0.703125 46.7969 0.609375
z
" id="CMR17-119"/>
     <path d="
M15 23.3906
C15 33 19.0938 42 26.5938 42
C27.2969 42 28 41.9062 28.7031 41.5938
C28.7031 41.5938 26.5 40.8906 26.5 38.3125
C26.5 35.9062 28.4062 34.9062 29.9062 34.9062
C31.0938 34.9062 33.2969 35.6094 33.2969 38.4062
C33.2969 41.6094 30.0938 43.5938 26.7031 43.5938
C19.0938 43.5938 15.7969 36.2031 14.7969 32.7031
L14.7031 32.7031
L14.7031 43.5938
L3.09375 42.5
L3.09375 39.9062
C9 39.9062 9.90625 39.2969 9.90625 34.5
L9.90625 6.6875
C9.90625 2.875 9.5 2.39062 3.09375 2.39062
L3.09375 -0.203125
C5.5 0 10.0938 0 12.7031 0
C15.5938 0 20.7031 0 23.4062 -0.203125
L23.4062 2.39062
C16.2031 2.39062 15 2.39062 15 6.875
z
" id="CMR17-114"/>
     <path d="
M36 25.8281
C36 32.375 36 35.8438 31.7969 39.7344
C28.0938 43 23.7969 44 20.4062 44
C12.5 44 6.79688 37.6094 6.79688 30.7969
C6.79688 27 9.79688 27 10.4062 27
C11.7031 27 14 27.7812 14 30.5312
C14 33 12.0938 34.0781 10.4062 34.0781
C10 34.0781 9.5 33.9688 9.20312 33.875
C11.2969 40.5 16.7031 42.4062 20.2031 42.4062
C25.2031 42.4062 30.7031 37.9531 30.7031 29.4531
L30.7031 25
C24.7969 25 17.7031 24.2031 12.0938 21.2031
C5.79688 17.7031 4 12.7031 4 8.90625
C4 1.20312 13 -1 18.2969 -1
C23.7969 -1 28.9062 2.17188 31.0938 7.98438
C31.2969 3.64062 34.0938 -0.28125 38.5 -0.28125
C40.5938 -0.28125 45.9062 1.09375 45.9062 8.85938
L45.9062 14.375
L44.0938 14.375
L44.0938 8.78125
C44.0938 2.78125 41.4062 2 40.0938 2
C36 2 36 7.15625 36 11.5312
z

M30.7031 13.5938
C30.7031 4.95312 24.5 0.59375 19 0.59375
C14 0.59375 10.0938 4.29688 10.0938 8.90625
C10.0938 11.8906 11.4062 17.1875 17.2031 20.3906
C22 23.0938 27.5 23.5 30.7031 23.5
z
" id="CMR17-97"/>
    </defs>
    <g style="fill:#333333;" transform="translate(193.708229199 25.0401724138)scale(0.09 -0.09)">
     <use transform="scale(0.9962640099626402)" xlink:href="#CMR17-114"/>
     <use transform="translate(35.28076779946296 0.0)scale(0.9962640099626402)" xlink:href="#CMR17-97"/>
     <use transform="translate(78.3687909840053 0.0)scale(0.9962640099626402)" xlink:href="#CMR17-119"/>
    </g>
   </g>
  </g>
  <g id="axes_2">
   <g id="patch_7">
    <path d="
M37.8 206.712
L214.2 206.712
L214.2 110.484
L37.8 110.484
z
" style="fill:#ffffff;"/>
   </g>
   <g id="line2d_28">
    <path clip-path="url(#p3e654face5)" d="
M-1 127.85
L0.0907054 127.85
L0.0907054 127.225
L1.43616 127.225
L1.43616 126.909
L2.78152 126.909
L2.78152 126.605
L4.12679 126.605
L4.12679 126.34
L5.47196 126.34
L5.47196 126.641
L6.81704 126.641
L6.81704 127.924
L8.16203 127.924
L8.16203 129.872
L9.50693 129.872
L9.50693 131.563
L10.8517 131.563
L10.8517 131.954
L12.1964 131.954
L12.1964 130.673
L13.5411 130.673
L13.5411 128.399
L14.8856 128.399
L14.8856 126.326
L16.23 126.326
L16.23 125.128
L17.5743 125.128
L17.5743 124.675
L20.2627 124.695
L20.2627 125.079
L21.6068 125.079
L21.6068 125.645
L22.9508 125.645
L22.9508 126.03
L28.3257 126.069
L28.3257 126.146
L29.6692 126.146
L29.6692 125.935
L31.0126 125.935
L31.0126 125.65
L33.6991 125.684
L33.6991 126.036
L35.0423 126.036
L35.0423 126.611
L36.3853 126.611
L36.3853 128.034
L37.7282 128.034
L37.7282 131.12
L39.0711 131.12
L39.0711 134.912
L40.4138 134.912
L40.4138 136.836
L41.7565 136.836
L41.7565 135.592
L43.0991 135.592
L43.0991 132.495
L44.4415 132.495
L44.4415 129.621
L45.7839 129.621
L45.7839 127.776
L47.1262 127.776
L47.1262 126.78
L48.4684 126.78
L48.4684 126.32
L49.8105 126.32
L49.8105 126.198
L51.1525 126.198
L51.1525 126.654
L52.4944 126.654
L52.4944 128.915
L53.8363 128.915
L53.8363 134.762
L55.178 134.762
L55.178 143.348
L56.5196 143.348
L56.5196 149.269
L57.8612 149.269
L57.8612 147.744
L59.2026 147.744
L59.2026 140.542
L60.544 140.542
L60.544 133.55
L61.8852 133.55
L61.8852 129.943
L63.2264 129.943
L63.2264 129.084
L64.5675 129.084
L64.5675 130.128
L65.9085 130.128
L65.9085 132.409
L67.2494 132.409
L67.2494 134.204
L69.9309 134.172
L69.9309 133.088
L71.2715 133.088
L71.2715 132.843
L72.612 132.843
L72.612 133.703
L73.9524 133.703
L73.9524 134.176
L75.2927 134.176
L75.2927 133.643
L76.633 133.643
L76.633 133.808
L77.9731 133.808
L77.9731 137.886
L79.3132 137.886
L79.3132 147.486
L80.6531 147.486
L80.6531 159.202
L81.993 159.202
L81.993 165.526
L83.3328 165.526
L83.3328 161.533
L84.6724 161.533
L84.6724 150.16
L86.012 150.16
L86.012 138.641
L87.3515 138.641
L87.3515 131.348
L88.6909 131.348
L88.6909 128.011
L90.0302 128.011
L90.0302 126.882
L92.7085 126.891
L92.7085 127.37
L94.0476 127.37
L94.0476 127.645
L95.3865 127.645
L95.3865 127.393
L96.7253 127.393
L96.7253 126.912
L98.0641 126.912
L98.0641 126.723
L99.4027 126.723
L99.4027 126.984
L100.741 126.984
L100.741 127.564
L102.08 127.564
L102.08 128.989
L103.418 128.989
L103.418 133.385
L104.756 133.385
L104.756 142.87
L106.095 142.87
L106.095 154.898
L107.433 154.898
L107.433 161.46
L108.771 161.46
L108.771 156.98
L110.109 156.98
L110.109 145.194
L111.446 145.194
L111.446 134.658
L112.784 134.658
L112.784 129.655
L114.122 129.655
L114.122 128.6
L115.459 128.6
L115.459 128.879
L116.797 128.879
L116.797 129.42
L118.134 129.42
L118.134 130.064
L119.471 130.064
L119.471 130.856
L120.808 130.856
L120.808 131.839
L122.146 131.839
L122.146 133.034
L123.482 133.034
L123.482 134.484
L124.819 134.484
L124.819 136.284
L126.156 136.284
L126.156 138.556
L127.493 138.556
L127.493 141.398
L128.829 141.398
L128.829 144.917
L130.166 144.917
L130.166 149.261
L131.502 149.261
L131.502 154.599
L132.839 154.599
L132.839 161.158
L134.175 161.158
L134.175 169.128
L135.511 169.128
L135.511 177.938
L136.847 177.938
L136.847 185.669
L138.183 185.669
L138.183 190.196
L139.519 190.196
L139.519 191.541
L140.855 191.541
L140.855 191.843
L142.19 191.843
L142.19 192.038
L143.526 192.038
L143.526 190.221
L144.861 190.221
L144.861 184.451
L146.197 184.451
L146.197 175.778
L147.532 175.778
L147.532 167.052
L148.867 167.052
L148.867 159.86
L150.202 159.86
L150.202 153.928
L151.537 153.928
L151.537 148.757
L152.872 148.757
L152.872 144.511
L154.207 144.511
L154.207 141.452
L155.542 141.452
L155.542 139.217
L156.876 139.217
L156.876 137.164
L158.211 137.164
L158.211 135.16
L159.545 135.16
L159.545 133.575
L160.88 133.575
L160.88 132.599
L162.214 132.599
L162.214 131.918
L163.548 131.918
L163.548 131.149
L164.882 131.149
L164.882 130.278
L166.216 130.278
L166.216 129.565
L167.55 129.565
L167.55 129.236
L170.218 129.316
L170.218 129.616
L171.551 129.616
L171.551 130.08
L172.885 130.08
L172.885 131.666
L174.218 131.666
L174.218 136.459
L175.551 136.459
L175.551 144.739
L176.885 144.739
L176.885 151.924
L178.218 151.924
L178.218 152.452
L179.551 152.452
L179.551 147.398
L180.884 147.398
L180.884 145.018
L182.217 145.018
L182.217 151.589
L183.549 151.589
L183.549 164.135
L184.882 164.135
L184.882 175.286
L186.215 175.286
L186.215 181.546
L187.547 181.546
L187.547 183.369
L188.88 183.369
L188.88 180.109
L190.212 180.109
L190.212 170.309
L191.544 170.309
L191.544 156.419
L192.876 156.419
L192.876 143.962
L194.208 143.962
L194.208 136.248
L195.54 136.248
L195.54 132.531
L196.872 132.531
L196.872 130.61
L198.204 130.61
L198.204 129.227
L199.535 129.227
L199.535 128.208
L200.867 128.208
L200.867 127.614
L202.198 127.614
L202.198 127.272
L203.53 127.272
L203.53 127.056
L204.861 127.056
L204.861 127.248
L206.192 127.248
L206.192 128.259
L207.523 128.259
L207.523 129.838
L208.854 129.838
L208.854 130.974
L210.185 130.974
L210.185 130.845
L211.516 130.845
L211.516 129.603
L212.846 129.603
L212.846 128.067
L214.177 128.067
L214.177 126.866
L215.508 126.866
L215.508 126.199
L216.838 126.199
L216.838 125.977
L222.159 125.917
L222.159 125.835
L224.819 125.838
L224.819 125.981
L226.148 125.981
L226.148 126.238
L227.478 126.238
L227.478 126.591
L228.808 126.591
L228.808 127.188
L230.137 127.188
L230.137 128.26
L231.466 128.26
L231.466 129.553
L232.796 129.553
L232.796 130.218
L234.125 130.218
L234.125 129.717
L235.454 129.717
L235.454 128.499
L236.783 128.499
L236.783 127.461
L238.112 127.461
L238.112 127.005
L240.77 127.027
L240.77 127.42
L242.098 127.42
L242.098 128.137
L243.427 128.137
L243.427 128.935
L244.755 128.935
L244.755 129.437
L248.74 129.333
L248.74 129.304
L250.068 129.304
L250.068 129.657
L251.396 129.657
L251.396 130.702
L252.724 130.702
L252.724 132.9
L253 132.9
L253 132.9" style="fill:none;stroke:#ff0000;stroke-linecap:square;"/>
   </g>
   <g id="matplotlib.axis_3">
    <g id="xtick_8">
     <g id="line2d_29">
      <g>
       <use style="stroke:#000000;stroke-width:0.5;" x="37.8" xlink:href="#mc7db9fdffb" y="206.712"/>
      </g>
     </g>
     <g id="line2d_30">
      <g>
       <use style="stroke:#000000;stroke-width:0.5;" x="37.8" xlink:href="#m5a7d422ac3" y="110.484"/>
      </g>
     </g>
     <g id="text_8">
      <!-- 5164 -->
      <defs>
       <path d="
M11.4062 57.6875
C12.4062 57.2812 16.5 56 20.7031 56
C30 56 35.0938 61.0156 38 63.9219
C38 64.7344 38 65.25 37.4062 65.25
C37.2969 65.25 37.0938 65.25 36.2969 64.8281
C32.7969 63.3125 28.7031 62.0781 23.7031 62.0781
C20.7031 62.0781 16.2031 62.5 11.2969 64.7344
C10.2031 65.25 10 65.25 9.90625 65.25
C9.40625 65.25 9.29688 65.1406 9.29688 63.1562
L9.29688 34.2812
C9.29688 32.5 9.29688 32 10.2969 32
C10.7969 32 11 32.2031 11.5 32.9062
C14.7031 37.4844 19.0938 39.4062 24.0938 39.4062
C27.5938 39.4062 35.0938 37.2188 35.0938 20.1406
C35.0938 16.9531 35.0938 11.1719 32.0938 6.57812
C29.5938 2.48438 25.7031 0.390625 21.4062 0.390625
C14.7969 0.390625 8.09375 5 6.29688 12.7188
C6.70312 12.6094 7.5 12.4219 7.90625 12.4219
C9.20312 12.4219 11.7031 13.125 11.7031 16.2188
C11.7031 18.9062 9.79688 20 7.90625 20
C5.59375 20 4.09375 18.5938 4.09375 15.7969
C4.09375 7.09375 11 -2 21.5938 -2
C31.9062 -2 41.7031 6.875 41.7031 19.75
C41.7031 31.7188 33.9062 41 24.2031 41
C19.0938 41 14.7969 39.0938 11.4062 35.4531
z
" id="CMR17-53"/>
      </defs>
      <g transform="translate(27.8373294968 217.63049838)scale(0.1 -0.1)">
       <use transform="scale(0.9962640099626402)" xlink:href="#CMR17-53"/>
       <use transform="translate(45.69047711706103 0.0)scale(0.9962640099626402)" xlink:href="#CMR17-49"/>
       <use transform="translate(91.38095423412206 0.0)scale(0.9962640099626402)" xlink:href="#CMR17-54"/>
       <use transform="translate(137.07143135118307 0.0)scale(0.9962640099626402)" xlink:href="#CMR17-52"/>
      </g>
     </g>
    </g>
    <g id="xtick_9">
     <g id="line2d_31">
      <g>
       <use style="stroke:#000000;stroke-width:0.5;" x="67.2" xlink:href="#mc7db9fdffb" y="206.712"/>
      </g>
     </g>
     <g id="line2d_32">
      <g>
       <use style="stroke:#000000;stroke-width:0.5;" x="67.2" xlink:href="#m5a7d422ac3" y="110.484"/>
      </g>
     </g>
     <g id="text_9">
      <!-- 5165 -->
      <g transform="translate(57.2373294968 217.63049838)scale(0.1 -0.1)">
       <use transform="scale(0.9962640099626402)" xlink:href="#CMR17-53"/>
       <use transform="translate(45.69047711706103 0.0)scale(0.9962640099626402)" xlink:href="#CMR17-49"/>
       <use transform="translate(91.38095423412206 0.0)scale(0.9962640099626402)" xlink:href="#CMR17-54"/>
       <use transform="translate(137.07143135118307 0.0)scale(0.9962640099626402)" xlink:href="#CMR17-53"/>
      </g>
     </g>
    </g>
    <g id="xtick_10">
     <g id="line2d_33">
      <g>
       <use style="stroke:#000000;stroke-width:0.5;" x="96.6" xlink:href="#mc7db9fdffb" y="206.712"/>
      </g>
     </g>
     <g id="line2d_34">
      <g>
       <use style="stroke:#000000;stroke-width:0.5;" x="96.6" xlink:href="#m5a7d422ac3" y="110.484"/>
      </g>
     </g>
     <g id="text_10">
      <!-- 5166 -->
      <g transform="translate(86.6373294968 217.63049838)scale(0.1 -0.1)">
       <use transform="scale(0.9962640099626402)" xlink:href="#CMR17-53"/>
       <use transform="translate(45.69047711706103 0.0)scale(0.9962640099626402)" xlink:href="#CMR17-49"/>
       <use transform="translate(91.38095423412206 0.0)scale(0.9962640099626402)" xlink:href="#CMR17-54"/>
       <use transform="translate(137.07143135118307 0.0)scale(0.9962640099626402)" xlink:href="#CMR17-54"/>
      </g>
     </g>
    </g>
    <g id="xtick_11">
     <g id="line2d_35">
      <g>
       <use style="stroke:#000000;stroke-width:0.5;" x="126.0" xlink:href="#mc7db9fdffb" y="206.712"/>
      </g>
     </g>
     <g id="line2d_36">
      <g>
       <use style="stroke:#000000;stroke-width:0.5;" x="126.0" xlink:href="#m5a7d422ac3" y="110.484"/>
      </g>
     </g>
     <g id="text_11">
      <!-- 5167 -->
      <defs>
       <path d="
M45.0938 61.5781
L45.0938 63.7656
L21.5938 63.7656
C9.90625 63.7656 9.70312 65.0781 9.29688 67
L7.5 67
L4.59375 48.3438
L6.40625 48.3438
C6.70312 50.2344 7.40625 55.3125 8.59375 57.2031
C9.20312 58 16.5938 58 18.2969 58
L40.2969 58
L29.2031 41.5781
C21.7969 30.5312 16.7031 15.6094 16.7031 2.57812
C16.7031 1.39062 16.7031 -2 20.2969 -2
C23.9062 -2 23.9062 1.39062 23.9062 2.67188
L23.9062 7.26562
C23.9062 23.5625 26.7031 34.3125 31.2969 41.1875
z
" id="CMR17-55"/>
      </defs>
      <g transform="translate(116.037329497 217.63049838)scale(0.1 -0.1)">
       <use transform="scale(0.9962640099626402)" xlink:href="#CMR17-53"/>
       <use transform="translate(45.69047711706103 0.0)scale(0.9962640099626402)" xlink:href="#CMR17-49"/>
       <use transform="translate(91.38095423412206 0.0)scale(0.9962640099626402)" xlink:href="#CMR17-54"/>
       <use transform="translate(137.07143135118307 0.0)scale(0.9962640099626402)" xlink:href="#CMR17-55"/>
      </g>
     </g>
    </g>
    <g id="xtick_12">
     <g id="line2d_37">
      <g>
       <use style="stroke:#000000;stroke-width:0.5;" x="155.4" xlink:href="#mc7db9fdffb" y="206.712"/>
      </g>
     </g>
     <g id="line2d_38">
      <g>
       <use style="stroke:#000000;stroke-width:0.5;" x="155.4" xlink:href="#m5a7d422ac3" y="110.484"/>
      </g>
     </g>
     <g id="text_12">
      <!-- 5168 -->
      <g transform="translate(145.437329497 217.63049838)scale(0.1 -0.1)">
       <use transform="scale(0.9962640099626402)" xlink:href="#CMR17-53"/>
       <use transform="translate(45.69047711706103 0.0)scale(0.9962640099626402)" xlink:href="#CMR17-49"/>
       <use transform="translate(91.38095423412206 0.0)scale(0.9962640099626402)" xlink:href="#CMR17-54"/>
       <use transform="translate(137.07143135118307 0.0)scale(0.9962640099626402)" xlink:href="#CMR17-56"/>
      </g>
     </g>
    </g>
    <g id="xtick_13">
     <g id="line2d_39">
      <g>
       <use style="stroke:#000000;stroke-width:0.5;" x="184.8" xlink:href="#mc7db9fdffb" y="206.712"/>
      </g>
     </g>
     <g id="line2d_40">
      <g>
       <use style="stroke:#000000;stroke-width:0.5;" x="184.8" xlink:href="#m5a7d422ac3" y="110.484"/>
      </g>
     </g>
     <g id="text_13">
      <!-- 5169 -->
      <defs>
       <path d="
M35.2031 29.125
C35.2031 7.25 26.0938 0.484375 18.5938 0.484375
C16.2969 0.484375 10.7031 0.484375 8.40625 4.59375
C11 4.1875 12.9062 5.57812 12.9062 8.09375
C12.9062 10.8125 10.7031 11.7031 9.29688 11.7031
C8.40625 11.7031 5.70312 11.2969 5.70312 7.90625
C5.70312 1.10938 11.5938 -2 18.7969 -2
C30.2969 -2 42 10.5312 42 32.3906
C42 59.6406 30.7969 65.2969 23.2031 65.2969
C13.2969 65.2969 3.79688 56.6875 3.79688 43.4062
C3.79688 31.1094 11.9062 22 22.0938 22
C30.5 22 34.2031 29.7344 35.2031 33
z

M22.2969 23.5938
C19.5938 23.5938 15.7969 24.0938 12.7031 30.0312
C10.5938 33.8906 10.5938 38.4531 10.5938 43.2969
C10.5938 49.1562 10.5938 53.2031 13.4062 57.5625
C14.7969 59.6406 17.4062 63 23.2031 63
C35 63 35 45.0781 35 41.125
C35 34.0938 31.7969 23.5938 22.2969 23.5938" id="CMR17-57"/>
      </defs>
      <g transform="translate(174.837329497 217.63049838)scale(0.1 -0.1)">
       <use transform="scale(0.9962640099626402)" xlink:href="#CMR17-53"/>
       <use transform="translate(45.69047711706103 0.0)scale(0.9962640099626402)" xlink:href="#CMR17-49"/>
       <use transform="translate(91.38095423412206 0.0)scale(0.9962640099626402)" xlink:href="#CMR17-54"/>
       <use transform="translate(137.07143135118307 0.0)scale(0.9962640099626402)" xlink:href="#CMR17-57"/>
      </g>
     </g>
    </g>
    <g id="xtick_14">
     <g id="line2d_41">
      <g>
       <use style="stroke:#000000;stroke-width:0.5;" x="214.2" xlink:href="#mc7db9fdffb" y="206.712"/>
      </g>
     </g>
     <g id="line2d_42">
      <g>
       <use style="stroke:#000000;stroke-width:0.5;" x="214.2" xlink:href="#m5a7d422ac3" y="110.484"/>
      </g>
     </g>
     <g id="text_14">
      <!-- 5170 -->
      <g transform="translate(204.237329497 217.63049838)scale(0.1 -0.1)">
       <use transform="scale(0.9962640099626402)" xlink:href="#CMR17-53"/>
       <use transform="translate(45.69047711706103 0.0)scale(0.9962640099626402)" xlink:href="#CMR17-49"/>
       <use transform="translate(91.38095423412206 0.0)scale(0.9962640099626402)" xlink:href="#CMR17-55"/>
       <use transform="translate(137.07143135118307 0.0)scale(0.9962640099626402)" xlink:href="#CMR17-48"/>
      </g>
     </g>
    </g>
    <g id="text_15">
     <!-- $\lambda$  [\AA] -->
     <defs>
      <path d="
M36.2969 68.4062
C35.7969 69.7031 35.5938 70 34.5938 70
C33.5938 70 33.4062 69.7031 32.9062 68.4062
L11.7031 8.84375
C9.79688 3.48438 5.79688 2.39062 2.29688 2.39062
L2.29688 -0.203125
C4.09375 0 8.09375 0 10 0
C12.5 0 16.5 0 18.9062 -0.203125
L18.9062 2.39062
C14.2031 2.39062 13.5 5.64062 13.5 6.85938
C13.5 7.76562 13.7031 8.28125 13.9062 8.89062
L19.2031 24
L45.4062 24
L51.4062 6.90625
C51.9062 5.70312 51.9062 5.5 51.9062 5.10938
C51.9062 2.39062 47.5938 2.39062 45.7031 2.39062
L45.7031 0
C48.5938 0 53.7969 0 56.9062 0
C59.5 0 64.5 0 66.9062 -0.203125
L66.9062 2.39062
C61.5938 2.39062 59.7969 2.39062 58.5 6.04688
z

M32.2969 60.5312
L44.5 26.5938
L20.0938 26.5938
z
" id="CMR17-65"/>
      <path d="
M23.5 -25
L23.5 -21.5156
L14.0938 -21.5156
L14.0938 71
L23.5 71
L23.5 74.4844
L10.5938 74.4844
L10.5938 -25
z
" id="CMR17-91"/>
      <path d="
M14.2969 74.4844
L1.40625 74.4844
L1.40625 71
L10.7969 71
L10.7969 -21.5156
L1.40625 -21.5156
L1.40625 -25
L14.2969 -25
z
" id="CMR17-93"/>
      <path d="
M30.9062 61.9531
C28.4062 69 20.5 69 19.2031 69
C18.5938 69 17.5 69 17.5 68
C17.5 67.2188 18.0938 67.1094 18.5938 67.0156
C20.0938 66.8125 21.2969 66.6094 22.9062 63.75
C23.9062 61.8594 34.2031 32.1719 34.2031 31.9688
C34.2031 31.875 34.0938 31.7656 33.2969 30.9688
L7.29688 4.85938
C6.09375 3.65625 5.29688 2.85938 5.29688 1.59375
C5.29688 0.1875 6.5 -1 8.09375 -1
C8.5 -1 9.59375 -0.796875 10.2031 -0.203125
C11.7969 1.28125 26.0938 18.6562 35.2031 29.3906
C37.7969 21.6094 41 12.4531 44.0938 4.07812
C44.5938 2.59375 45.0938 1.1875 46.5 -0.09375
C47.5 -1 47.7031 -1 50.5 -1
L52.4062 -1
C52.7969 -1 53.5 -1 53.5 -0.171875
C53.5 0.265625 53.4062 0.359375 53 0.78125
C52.0938 1.875 51.4062 3.65625 51 4.84375
z
" id="CMMI12-21"/>
      <path d="
M43.2969 61.8125
C43.2969 66.7969 39.2969 70.5938 34.5938 70.5938
C29.9062 70.5938 25.9062 66.7969 25.9062 61.8125
C25.9062 56.7969 29.9062 53 34.5938 53
C39.2969 53 43.2969 56.7969 43.2969 61.8125
M34.5938 54.5938
C30.4062 54.5938 27.7031 57.1875 27.7031 61.8125
C27.7031 66.5 30.5 69 34.5938 69
C38.7969 69 41.5 66.4062 41.5 61.8125
C41.5 57.0938 38.7031 54.5938 34.5938 54.5938" id="CMR17-23"/>
     </defs>
     <g transform="translate(114.930373708 233.247620816)scale(0.1 -0.1)">
      <use transform="scale(0.9962640099626402)" xlink:href="#CMMI12-21"/>
      <use transform="translate(86.98003823552305 0.0)scale(0.9962640099626402)" xlink:href="#CMR17-91"/>
      <use transform="translate(111.85109671738793 17.61874416251557)scale(0.9962640099626402)" xlink:href="#CMR17-23"/>
      <use transform="translate(111.85109671738793 0.0)scale(0.9962640099626402)" xlink:href="#CMR17-65"/>
      <use transform="translate(180.92352652163763 0.0)scale(0.9962640099626402)" xlink:href="#CMR17-93"/>
     </g>
    </g>
   </g>
   <g id="matplotlib.axis_4">
    <g id="ytick_7">
     <g id="line2d_43">
      <g>
       <use style="stroke:#000000;stroke-width:0.5;" x="37.8" xlink:href="#md7965d1ba0" y="206.712"/>
      </g>
     </g>
     <g id="line2d_44">
      <g>
       <use style="stroke:#000000;stroke-width:0.5;" x="214.2" xlink:href="#md9a1c1a7cd" y="206.712"/>
      </g>
     </g>
     <g id="text_16">
      <!-- $0.0$ -->
      <g transform="translate(21.0699210237 209.202660025)scale(0.1 -0.1)">
       <use transform="scale(0.9962640099626402)" xlink:href="#CMR17-48"/>
       <use transform="translate(45.69047711706103 0.0)scale(0.9962640099626402)" xlink:href="#CMMI12-58"/>
       <use transform="translate(72.78765420688046 0.0)scale(0.9962640099626402)" xlink:href="#CMR17-48"/>
      </g>
     </g>
    </g>
    <g id="ytick_8">
     <g id="line2d_45">
      <g>
       <use style="stroke:#000000;stroke-width:0.5;" x="37.8" xlink:href="#md7965d1ba0" y="190.120965517"/>
      </g>
     </g>
     <g id="line2d_46">
      <g>
       <use style="stroke:#000000;stroke-width:0.5;" x="214.2" xlink:href="#md9a1c1a7cd" y="190.120965517"/>
      </g>
     </g>
     <g id="text_17">
      <!-- $0.2$ -->
      <g transform="translate(21.0699210237 192.611625542)scale(0.1 -0.1)">
       <use transform="scale(0.9962640099626402)" xlink:href="#CMR17-48"/>
       <use transform="translate(45.69047711706103 0.0)scale(0.9962640099626402)" xlink:href="#CMMI12-58"/>
       <use transform="translate(72.78765420688046 0.0)scale(0.9962640099626402)" xlink:href="#CMR17-50"/>
      </g>
     </g>
    </g>
    <g id="ytick_9">
     <g id="line2d_47">
      <g>
       <use style="stroke:#000000;stroke-width:0.5;" x="37.8" xlink:href="#md7965d1ba0" y="173.529931034"/>
      </g>
     </g>
     <g id="line2d_48">
      <g>
       <use style="stroke:#000000;stroke-width:0.5;" x="214.2" xlink:href="#md9a1c1a7cd" y="173.529931034"/>
      </g>
     </g>
     <g id="text_18">
      <!-- $0.4$ -->
      <g transform="translate(21.0699210237 176.020591059)scale(0.1 -0.1)">
       <use transform="scale(0.9962640099626402)" xlink:href="#CMR17-48"/>
       <use transform="translate(45.69047711706103 0.0)scale(0.9962640099626402)" xlink:href="#CMMI12-58"/>
       <use transform="translate(72.78765420688046 0.0)scale(0.9962640099626402)" xlink:href="#CMR17-52"/>
      </g>
     </g>
    </g>
    <g id="ytick_10">
     <g id="line2d_49">
      <g>
       <use style="stroke:#000000;stroke-width:0.5;" x="37.8" xlink:href="#md7965d1ba0" y="156.938896552"/>
      </g>
     </g>
     <g id="line2d_50">
      <g>
       <use style="stroke:#000000;stroke-width:0.5;" x="214.2" xlink:href="#md9a1c1a7cd" y="156.938896552"/>
      </g>
     </g>
     <g id="text_19">
      <!-- $0.6$ -->
      <g transform="translate(21.0699210237 159.429556577)scale(0.1 -0.1)">
       <use transform="scale(0.9962640099626402)" xlink:href="#CMR17-48"/>
       <use transform="translate(45.69047711706103 0.0)scale(0.9962640099626402)" xlink:href="#CMMI12-58"/>
       <use transform="translate(72.78765420688046 0.0)scale(0.9962640099626402)" xlink:href="#CMR17-54"/>
      </g>
     </g>
    </g>
    <g id="ytick_11">
     <g id="line2d_51">
      <g>
       <use style="stroke:#000000;stroke-width:0.5;" x="37.8" xlink:href="#md7965d1ba0" y="140.347862069"/>
      </g>
     </g>
     <g id="line2d_52">
      <g>
       <use style="stroke:#000000;stroke-width:0.5;" x="214.2" xlink:href="#md9a1c1a7cd" y="140.347862069"/>
      </g>
     </g>
     <g id="text_20">
      <!-- $0.8$ -->
      <g transform="translate(21.0699210237 142.838522094)scale(0.1 -0.1)">
       <use transform="scale(0.9962640099626402)" xlink:href="#CMR17-48"/>
       <use transform="translate(45.69047711706103 0.0)scale(0.9962640099626402)" xlink:href="#CMMI12-58"/>
       <use transform="translate(72.78765420688046 0.0)scale(0.9962640099626402)" xlink:href="#CMR17-56"/>
      </g>
     </g>
    </g>
    <g id="ytick_12">
     <g id="line2d_53">
      <g>
       <use style="stroke:#000000;stroke-width:0.5;" x="37.8" xlink:href="#md7965d1ba0" y="123.756827586"/>
      </g>
     </g>
     <g id="line2d_54">
      <g>
       <use style="stroke:#000000;stroke-width:0.5;" x="214.2" xlink:href="#md9a1c1a7cd" y="123.756827586"/>
      </g>
     </g>
     <g id="text_21">
      <!-- $1.0$ -->
      <g transform="translate(21.0699210237 126.247487611)scale(0.1 -0.1)">
       <use transform="scale(0.9962640099626402)" xlink:href="#CMR17-49"/>
       <use transform="translate(45.69047711706103 0.0)scale(0.9962640099626402)" xlink:href="#CMMI12-58"/>
       <use transform="translate(72.78765420688046 0.0)scale(0.9962640099626402)" xlink:href="#CMR17-48"/>
      </g>
     </g>
    </g>
   </g>
   <g id="patch_8">
    <path d="
M37.8 110.484
L214.2 110.484" style="fill:none;stroke:#000000;"/>
   </g>
   <g id="patch_9">
    <path d="
M37.8 206.712
L37.8 110.484" style="fill:none;stroke:#000000;"/>
   </g>
   <g id="patch_10">
    <path d="
M214.2 206.712
L214.2 110.484" style="fill:none;stroke:#000000;"/>
   </g>
   <g id="patch_11">
    <path d="
M37.8 206.712
L214.2 206.712" style="fill:none;stroke:#000000;"/>
   </g>
   <g id="text_22">
    <!-- convolved and resampled -->
    <defs>
     <path d="
M15.2969 68.6875
L3.40625 67.5938
L3.40625 65
C9.29688 65 10.2031 64.4062 10.2031 59.6406
L10.2031 6.65625
C10.2031 2.875 9.79688 2.39062 3.40625 2.39062
L3.40625 -0.203125
C5.79688 0 10.2031 0 12.7031 0
C15.2969 0 19.7031 0 22.0938 -0.203125
L22.0938 2.39062
C15.7031 2.39062 15.2969 2.78125 15.2969 6.65625
z
" id="CMR17-108"/>
     <path d="
M41.5 30.2031
C41.5 35.2969 40.5 43.5938 28.7031 43.5938
C20.7969 43.5938 16.7031 37.5 15.2031 33.5
L15.0938 33.5
L15.0938 43.5938
L3.29688 42.5
L3.29688 39.9062
C9.20312 39.9062 10.0938 39.2969 10.0938 34.5
L10.0938 6.6875
C10.0938 2.875 9.70312 2.39062 3.29688 2.39062
L3.29688 -0.203125
C5.70312 0 10.0938 0 12.7031 0
C15.2969 0 19.7969 0 22.2031 -0.203125
L22.2031 2.39062
C15.7969 2.39062 15.4062 2.78125 15.4062 6.6875
L15.4062 25.9062
C15.4062 35.1094 21 42 28 42
C35.4062 42 36.2031 35.4062 36.2031 30.5938
L36.2031 6.6875
C36.2031 2.875 35.7969 2.39062 29.4062 2.39062
L29.4062 -0.203125
C31.7969 0 36.2031 0 38.7969 0
C41.4062 0 45.9062 0 48.2969 -0.203125
L48.2969 2.39062
C41.9062 2.39062 41.5 2.78125 41.5 6.6875
z
" id="CMR17-110"/>
     <path d="
M39.0938 33.7969
C40 36 41.5938 40 47.4062 40
L47.4062 42.5938
C45.5 42.5938 43 42.5938 41.0938 42.5938
C39 42.5938 35.7031 42.5938 33.7031 42.6875
L33.7031 40.0938
C36.2031 39.8906 37.5938 38.7031 37.5938 36.1094
C37.5938 35.2031 37.5938 35 37 33.6094
L26 5.89062
L14.0938 35.7188
C13.5 37.0156 13.5 37.2031 13.5 37.6094
C13.5 40 16.7969 40 18.2969 40
L18.2969 42.6875
C15.9062 42.5938 11.5 42.5938 9 42.5938
C6.29688 42.5938 3.20312 42.5938 1 42.6875
L1 40
C4.79688 40 6.90625 40 8.09375 36.9062
L22.5938 0.6875
C23.2031 -0.796875 23.2969 -1 24.2031 -1
C25.0938 -1 25.2031 -0.796875 25.7969 0.6875
z
" id="CMR17-118"/>
     <path d="
M29.2031 67.5938
L29.2031 65
C35.0938 65 36 64.4062 36 59.6875
L36 36.6406
C35.5938 37.1406 31.5 43.5938 23.4062 43.5938
C13.2031 43.5938 3.29688 34.5 3.29688 21.3125
C3.29688 8.20312 12.5938 -1 22.4062 -1
C30.9062 -1 35.2969 5.26562 35.7969 5.9375
L35.7969 -0.984375
L47.9062 -0.984375
L47.9062 2
C42 2 41.0938 2.59375 41.0938 7.39062
L41.0938 68.6875
z

M35.7969 11.7969
C35.7969 8.79688 34 6.09375 31.7031 4.09375
C28.2969 1.09375 24.9062 0.59375 23 0.59375
C20.0938 0.59375 9.70312 2.09375 9.70312 21.1875
C9.70312 40.8125 21.2969 42 23.9062 42
C28.5 42 32.2031 39.4062 34.5 35.7969
C35.7969 33.7031 35.7969 33.4062 35.7969 31.6094
z
" id="CMR17-100"/>
     <path d="
M38.0938 23
C38.5 23.4062 38.5 23.6094 38.5 24.625
C38.5 34.9688 33.0938 44 21.7031 44
C11.0938 44 2.70312 33.8906 2.70312 21.6094
C2.70312 8.60938 12.2031 -1 22.7969 -1
C34 -1 38.4062 9.46875 38.4062 11.5469
C38.4062 12.25 37.7969 12.25 37.5938 12.25
C36.9062 12.25 36.7969 12.0469 36.4062 10.875
C34.2031 4.14062 28.7031 0.796875 23.5 0.796875
C19.2031 0.796875 14.9062 3.17188 12.2031 7.5
C9.09375 12.5469 9.09375 18.375 9.09375 23
z

M9.20312 24.5
C9.90625 39.1406 17.5938 42.4062 21.5938 42.4062
C28.4062 42.4062 33 35.8906 33.0938 24.5
z
" id="CMR17-101"/>
     <path d="
M30.9062 42.1094
C30.9062 43.9062 30.7969 44 30.2031 44
C29.7969 44 29.7031 43.9062 28.5 42.4219
C28.2031 42.0156 27.2969 41.0156 27 40.625
C23.7969 44 19.2969 44 17.5938 44
C6.5 44 2.5 38.1719 2.5 32.375
C2.5 23.3438 12.7031 21.25 15.5938 20.6406
C21.9062 19.3438 24.0938 18.9375 26.2031 17.125
C27.5 15.9375 29.7031 13.7344 29.7031 10.125
C29.7031 5.90625 27.2969 0.5 18.0938 0.5
C9.40625 0.5 6.29688 7.0625 4.5 15.8281
C4.20312 17.2188 4.20312 17.3281 3.40625 17.3281
C2.59375 17.3281 2.5 17.2188 2.5 15.2344
L2.5 0.890625
C2.5 -0.890625 2.59375 -1 3.20312 -1
C3.70312 -1 3.79688 -0.890625 4.29688 -0.09375
C4.90625 0.796875 6.40625 3.1875 7 4.1875
C9 1.54688 12.5 -1 18.0938 -1
C28 -1 33.2969 4.40625 33.2969 12.2344
C33.2969 17.3438 30.5938 20.0625 29.2969 21.25
C26.2969 24.375 22.7969 25.0625 18.5938 25.8594
C13.0938 27.0781 6.09375 28.4688 6.09375 34.5938
C6.09375 37.1875 7.5 42.7188 17.5938 42.7188
C28.2969 42.7188 28.9062 32.75 29.0938 29.5625
C29.2031 29.0781 29.7031 28.9688 30 28.9688
C30.9062 28.9688 30.9062 29.2812 30.9062 30.9688
z
" id="CMR17-115"/>
     <path d="
M43.0938 21.1875
C43.0938 34 33.7969 44 22.9062 44
C12 44 2.70312 34 2.70312 21.1875
C2.70312 8.60938 12 -1 22.9062 -1
C33.7969 -1 43.0938 8.60938 43.0938 21.1875
M22.9062 0.796875
C18.2031 0.796875 14.2031 3.59375 11.9062 7.5
C9.40625 11.9844 9.09375 17.5938 9.09375 22
C9.09375 26.2031 9.29688 31.4062 11.9062 35.9062
C13.9062 39.2031 17.7969 42.4062 22.9062 42.4062
C27.4062 42.4062 31.2031 39.9062 33.5938 36.4062
C36.7031 31.7031 36.7031 25.1094 36.7031 22
C36.7031 18.0938 36.5 12.1094 33.7969 7.29688
C31 2.70312 26.7031 0.796875 22.9062 0.796875" id="CMR17-111"/>
     <path d="
M22 -16.6094
C15.5938 -16.6094 15.2031 -16.2031 15.2031 -12.3281
L15.2031 6.28125
C18.0938 2.09375 22.2969 -0.59375 27.5938 -0.59375
C37.5938 -0.59375 47.7031 8.17188 47.7031 21.6875
C47.7031 34.2344 39 43.7812 28.7031 43.7812
C22.7031 43.7812 17.7969 40.5 15 36.5312
L15 43.7812
L3.09375 42.6875
L3.09375 40.1094
C9 40.1094 9.90625 39.5 9.90625 34.7344
L9.90625 -12.3281
C9.90625 -16.1094 9.5 -16.6094 3.09375 -16.6094
L3.09375 -19.1875
C5.5 -19 9.90625 -19 12.5 -19
C15.0938 -19 19.5938 -19 22 -19.1875
z

M15.2031 31.4375
C15.2031 32.8438 15.2031 34.9219 19.0938 38.6094
C19.5938 39.0156 23 42 28 42
C35.2969 42 41.2969 32.9375 41.2969 21.5938
C41.2969 10.25 34.9062 1 27 1
C23.4062 1 19.5 2.6875 16.5 7.375
C15.2031 9.5625 15.2031 10.1562 15.2031 11.75
z
" id="CMR17-112"/>
     <path d="
M67.5938 30.2031
C67.5938 35.1875 66.7031 43.5938 54.7969 43.5938
C48 43.5938 43.2969 39 41.5 33.5938
L41.4062 33.5938
C40.2031 41.7969 34.2969 43.5938 28.7031 43.5938
C20.7969 43.5938 16.7031 37.5625 15.2031 33.5938
L15.0938 33.5938
L15.0938 43.5938
L3.29688 42.5
L3.29688 39.9062
C9.20312 39.9062 10.0938 39.2969 10.0938 34.5
L10.0938 6.6875
C10.0938 2.875 9.70312 2.39062 3.29688 2.39062
L3.29688 -0.203125
C5.70312 0 10.0938 0 12.7031 0
C15.2969 0 19.7969 0 22.2031 -0.203125
L22.2031 2.39062
C15.7969 2.39062 15.4062 2.78125 15.4062 6.6875
L15.4062 25.9062
C15.4062 35.1094 21 42 28 42
C35.4062 42 36.2031 35.4062 36.2031 30.5938
L36.2031 6.6875
C36.2031 2.875 35.7969 2.39062 29.4062 2.39062
L29.4062 -0.203125
C31.7969 0 36.2031 0 38.7969 0
C41.4062 0 45.9062 0 48.2969 -0.203125
L48.2969 2.39062
C41.9062 2.39062 41.5 2.78125 41.5 6.6875
L41.5 25.9062
C41.5 35.1094 47.0938 42 54.0938 42
C61.5 42 62.2969 35.4062 62.2969 30.5938
L62.2969 6.6875
C62.2969 2.875 61.9062 2.39062 55.5 2.39062
L55.5 -0.203125
C57.9062 0 62.2969 0 64.9062 0
C67.5 0 72 0 74.4062 -0.203125
L74.4062 2.39062
C68 2.39062 67.5938 2.78125 67.5938 6.6875
z
" id="CMR17-109"/>
     <path d="
M34.9062 35
C33 35 30.2031 35 30.2031 31.5156
C30.2031 28.7188 32.5 27.9219 33.7969 27.9219
C34.5 27.9219 37.4062 28.2344 37.4062 31.625
C37.4062 38.5469 30.5938 43.7969 22.9062 43.7969
C12.2969 43.7969 3.29688 34.0312 3.29688 21.2969
C3.29688 8.0625 12.7031 -1 22.9062 -1
C35.2969 -1 38.4062 10.5938 38.4062 11.6875
C38.4062 12.0938 38.2969 12.3906 37.5938 12.3906
C36.9062 12.3906 36.7969 12.2969 36.4062 10.9844
C33.7969 2.8125 28.0938 0.796875 23.7969 0.796875
C17.4062 0.796875 9.70312 6.67188 9.70312 21.3906
C9.70312 36.5312 17.0938 42 23 42
C26.9062 42 32.7031 40.2031 34.9062 35" id="CMR17-99"/>
    </defs>
    <g style="fill:#333333;" transform="translate(107.636451855 121.268172414)scale(0.09 -0.09)">
     <use transform="scale(0.9962640099626402)" xlink:href="#CMR17-99"/>
     <use transform="translate(40.48566046271794 0.0)scale(0.9962640099626402)" xlink:href="#CMR17-111"/>
     <use transform="translate(86.17613757977897 0.0)scale(0.9962640099626402)" xlink:href="#CMR17-110"/>
     <use transform="translate(134.46905342757628 0.0)scale(0.9962640099626402)" xlink:href="#CMR17-118"/>
     <use transform="translate(180.15951534285495 0.0)scale(0.9962640099626402)" xlink:href="#CMR17-111"/>
     <use transform="translate(225.84999245991597 0.0)scale(0.9962640099626402)" xlink:href="#CMR17-108"/>
     <use transform="translate(250.72105094178085 0.0)scale(0.9962640099626402)" xlink:href="#CMR17-118"/>
     <use transform="translate(296.4115128570595 0.0)scale(0.9962640099626402)" xlink:href="#CMR17-101"/>
     <use transform="translate(336.89717331977744 0.0)scale(0.9962640099626402)" xlink:href="#CMR17-100"/>
     <use transform="translate(417.8685094469957 0.0)scale(0.9962640099626402)" xlink:href="#CMR17-97"/>
     <use transform="translate(463.5589865640567 0.0)scale(0.9962640099626402)" xlink:href="#CMR17-110"/>
     <use transform="translate(514.4543563443727 0.0)scale(0.9962640099626402)" xlink:href="#CMR17-100"/>
     <use transform="translate(595.425692471591 0.0)scale(0.9962640099626402)" xlink:href="#CMR17-114"/>
     <use transform="translate(630.706460271054 0.0)scale(0.9962640099626402)" xlink:href="#CMR17-101"/>
     <use transform="translate(671.1921207337718 0.0)scale(0.9962640099626402)" xlink:href="#CMR17-115"/>
     <use transform="translate(706.9934583690069 0.0)scale(0.9962640099626402)" xlink:href="#CMR17-97"/>
     <use transform="translate(752.683935486068 0.0)scale(0.9962640099626402)" xlink:href="#CMR17-109"/>
     <use transform="translate(829.6035253541409 0.0)scale(0.9962640099626402)" xlink:href="#CMR17-112"/>
     <use transform="translate(880.4988951344568 0.0)scale(0.9962640099626402)" xlink:href="#CMR17-108"/>
     <use transform="translate(905.3699536163217 0.0)scale(0.9962640099626402)" xlink:href="#CMR17-101"/>
     <use transform="translate(945.8556140790396 0.0)scale(0.9962640099626402)" xlink:href="#CMR17-100"/>
    </g>
   </g>
  </g>
  <g id="text_23">
   <!-- $f_\lambda\, \times 10^{7}\,[\textrm{erg}\;\textrm{cm}^{-2}\;\textrm{s}^{-1}\;\textrm{\AA}^{-1}]$ -->
   <defs>
    <path d="
M44.5938 40.0938
C46.5938 40.0938 47.4062 40.0938 47.4062 42
C47.4062 43 46.5938 43 44.7969 43
L36.7031 43
C38.5938 53.5781 40 60.8906 40.7969 64.1719
C41.4062 66.6406 43.5 69 46.0938 69
C48.2031 69 50.2969 68.0938 51.2969 67.1562
C47.4062 66.75 46.2031 63.7812 46.2031 62.0156
C46.2031 59.9531 47.7031 58.7344 49.5938 58.7344
C51.5938 58.7344 54.5938 60.4688 54.5938 64.3594
C54.5938 68.6406 50.4062 71 46 71
C41.7031 71 37.5 67.7188 35.5 63.7188
C33.7031 60.125 32.7031 56.4375 30.4062 43
L23.7031 43
C21.7969 43 20.7969 43 20.7969 41.2031
C20.7969 40.0938 21.4062 40.0938 23.4062 40.0938
L29.7969 40.0938
C28 30.875 23.9062 8.46875 21.5938 -2.14062
C19.9062 -10.7656 18.4062 -18 13.4062 -18
C13.0938 -18 10.2031 -18 8.40625 -16.1094
C13.5 -15.7031 13.5 -11.3438 13.5 -11.25
C13.5 -9.26562 12 -8.07812 10.0938 -8.07812
C8.09375 -8.07812 5.09375 -9.76562 5.09375 -13.5469
C5.09375 -17.8125 9.5 -20 13.4062 -20
C23.5938 -20 27.7969 -1.84375 28.9062 3.10938
C30.7031 10.75 35.5938 37.125 36.0938 40.0938
z
" id="CMMI12-102"/>
    <path d="
M38.9062 27.8906
L18.9062 47.7969
C17.7031 49 17.5 49.1875 16.7031 49.1875
C15.7031 49.1875 14.7031 48.2969 14.7031 47.1875
C14.7031 46.5 14.9062 46.2969 16 45.1875
L36 25.0938
L16 5
C14.9062 3.89062 14.7031 3.6875 14.7031 3
C14.7031 1.89062 15.7031 1 16.7031 1
C17.5 1 17.7031 1.1875 18.9062 2.39062
L38.7969 22.2969
L59.5 1.59375
C59.7031 1.5 60.4062 1 61 1
C62.2031 1 63 1.89062 63 3
C63 3.1875 63 3.59375 62.7031 4.09375
C62.5938 4.29688 46.7031 20 41.7031 25.0938
L60 43.3906
C60.5 44 62 45.2969 62.5 45.8906
C62.5938 46.0938 63 46.5 63 47.1875
C63 48.2969 62.2031 49.1875 61 49.1875
C60.2031 49.1875 59.7969 48.7969 58.7031 47.6875
z
" id="CMSY10-2"/>
    <path d="
M11.0938 18.1875
C13 16.6875 16.2969 15 20.2969 15
C28.2031 15 35 21.2031 35 29.5
C35 32.0938 34.2031 36.0938 31.2031 39.2031
C34 42.0625 38.0938 43 40.4062 43
C40.7969 43 41.4062 43 41.9062 42.7656
C41.5 42.6719 40.5938 42.2812 40.5938 40.7344
C40.5938 39.4844 41.5 38.6094 42.7969 38.6094
C44.2969 38.6094 45.0938 39.5781 45.0938 40.8438
C45.0938 42.6719 43.5938 44.5938 40.4062 44.5938
C36.4062 44.5938 32.9062 42.7812 30.0938 40.3125
C27.0938 43.0156 23.5 44 20.2969 44
C12.4062 44 5.59375 37.7969 5.59375 29.5
C5.59375 23.7812 8.90625 20.1875 9.90625 19.1875
C6.90625 15.6875 6.90625 11.6094 6.90625 11.1094
C6.90625 8.51562 7.90625 4.71875 11.2969 2.625
C6.09375 1.32812 2 -2.64062 2 -7.59375
C2 -14.7344 11.5 -20 22.9062 -20
C33.9062 -20 43.7969 -14.9375 43.7969 -7.48438
C43.7969 6 29 6 21.2969 6
C19 6 14.9062 6 14.4062 6.10938
C11.2969 6.60938 9.20312 9.40625 9.20312 12.8906
C9.20312 13.7812 9.20312 16 11.0938 18.1875
M20.2969 16.6875
C11.5 16.6875 11.5 27.5 11.5 29.5156
C11.5 31.5 11.5 42.3125 20.2969 42.3125
C29.0938 42.3125 29.0938 31.5 29.0938 29.5156
C29.0938 27.5 29.0938 16.6875 20.2969 16.6875
M22.9062 -18.2969
C12.9062 -18.2969 6 -13.0469 6 -7.59375
C6 -4.51562 7.70312 -1.64062 9.90625 -0.0625
C12.4062 1.625 13.4062 1.625 20.2031 1.625
C28.4062 1.625 39.7969 1.625 39.7969 -7.59375
C39.7969 -13.0469 32.9062 -18.2969 22.9062 -18.2969" id="CMR17-103"/>
    <path d="
M65.9062 23
C67.5938 23 69.4062 23 69.4062 25
C69.4062 27 67.5938 27 65.9062 27
L11.7969 27
C10.0938 27 8.29688 27 8.29688 25
C8.29688 23 10.0938 23 11.7969 23
z
" id="CMSY10-0"/>
   </defs>
   <g transform="translate(13.7847183657 171.533545834)rotate(-90.0)scale(0.1 -0.1)">
    <use transform="translate(0.0 14.943914544092468)scale(0.9962640099626402)" xlink:href="#CMMI12-102"/>
    <use transform="translate(48.083237663449566 0.0)scale(0.6973817666173724)" xlink:href="#CMMI12-21"/>
    <use transform="translate(127.15764978012143 14.943914544092468)scale(0.9962640099626402)" xlink:href="#CMSY10-2"/>
    <use transform="translate(226.78432440846828 14.943914544092468)scale(0.9962640099626402)" xlink:href="#CMR17-49"/>
    <use transform="translate(272.4748015255293 14.943914544092468)scale(0.9962640099626402)" xlink:href="#CMR17-48"/>
    <use transform="translate(318.1652786425903 51.097553485951124)scale(0.6973817666173724)" xlink:href="#CMR17-55"/>
    <use transform="translate(367.25099784499537 14.943914544092468)scale(0.9962640099626402)" xlink:href="#CMR17-91"/>
    <use transform="translate(392.1220563268603 14.943914544092468)scale(0.9962640099626402)" xlink:href="#CMR17-101"/>
    <use transform="translate(432.6077167895782 14.943914544092468)scale(0.9962640099626402)" xlink:href="#CMR17-114"/>
    <use transform="translate(467.8884845890411 14.943914544092468)scale(0.9962640099626402)" xlink:href="#CMR17-103"/>
    <use transform="translate(541.2529704282769 14.943914544092468)scale(0.9962640099626402)" xlink:href="#CMR17-99"/>
    <use transform="translate(581.7386308909947 14.943914544092468)scale(0.9962640099626402)" xlink:href="#CMR17-109"/>
    <use transform="translate(658.6582207590676 51.097553485951124)scale(0.6973817666173724)" xlink:href="#CMSY10-0"/>
    <use transform="translate(712.899214007044 51.097553485951124)scale(0.6973817666173724)" xlink:href="#CMR17-50"/>
    <use transform="translate(773.0545366983189 14.943914544092468)scale(0.9962640099626402)" xlink:href="#CMR17-115"/>
    <use transform="translate(808.855874333554 51.097553485951124)scale(0.6973817666173724)" xlink:href="#CMSY10-0"/>
    <use transform="translate(863.0968675815303 51.097553485951124)scale(0.6973817666173724)" xlink:href="#CMR17-49"/>
    <use transform="translate(923.2521902728053 32.56265870660803)scale(0.9962640099626402)" xlink:href="#CMR17-23"/>
    <use transform="translate(923.2521902728053 14.943914544092468)scale(0.9962640099626402)" xlink:href="#CMR17-65"/>
    <use transform="translate(992.3246200770549 74.82118143388077)scale(0.6973817666173724)" xlink:href="#CMSY10-0"/>
    <use transform="translate(1046.5656133250313 74.82118143388077)scale(0.6973817666173724)" xlink:href="#CMR17-49"/>
    <use transform="translate(1079.0469272941316 14.943914544092468)scale(0.9962640099626402)" xlink:href="#CMR17-93"/>
   </g>
  </g>
 </g>
 <defs>
  <clipPath id="p3e654face5">
   <rect height="96.228" width="176.4" x="37.8" y="110.484"/>
  </clipPath>
  <clipPath id="pfdd46de056">
   <rect height="96.228" width="176.4" x="37.8" y="14.256"/>
  </clipPath>
 </defs>
</svg>
