<?xml version="1.0" encoding="utf-8" standalone="no"?>
<!DOCTYPE svg PUBLIC "-//W3C//DTD SVG 1.1//EN"
  "http://www.w3.org/Graphics/SVG/1.1/DTD/svg11.dtd">
<!-- Created with matplotlib (http://matplotlib.org/) -->
<svg height="237pt" version="1.1" viewBox="0 0 252 237" width="252pt" xmlns="http://www.w3.org/2000/svg" xmlns:xlink="http://www.w3.org/1999/xlink">
 <defs>
  <style type="text/css">
*{stroke-linecap:butt;stroke-linejoin:round;}
  </style>
 </defs>
 <g id="figure_1">
  <g id="patch_1">
   <path d="
M0 237.6
L252 237.6
L252 0
L0 0
z
" style="fill:#ffffff;"/>
  </g>
  <g id="axes_1">
   <g id="patch_2">
    <path d="
M42.84 110.484
L226.8 110.484
L226.8 14.256
L42.84 14.256
z
" style="fill:#ffffff;"/>
   </g>
   <g id="line2d_1">
    <path clip-path="url(#pfc8f99d497)" d="
M42.58 54.6241
L43.4996 42.8617
L45.0322 35.2247
L45.3387 35.2397
L46.2583 38.9539
L46.5648 38.1812
L47.4843 32.5565
L47.7909 31.9507
L48.0974 31.983
L49.0169 32.8615
L49.9365 33.1675
L50.5495 33.2192
L51.1626 32.9189
L52.3886 32.0111
L52.6951 31.7202
L53.0017 31.589
L53.3082 31.7467
L54.5343 33.4419
L54.8408 33.348
L55.7603 32.2533
L56.0668 32.1956
L56.3734 32.4971
L56.9864 34.0508
L57.2929 35.1719
L57.5994 36.7798
L57.906 39.9753
L58.2125 46.8088
L59.132 76.1399
L59.4385 79.5944
L59.7451 80.6426
L60.0516 79.7841
L60.3581 76.5925
L60.6646 69.7196
L61.5842 38.7428
L61.8907 35.2311
L62.1972 34.1078
L62.5037 34.0809
L62.8103 34.6585
L63.7298 37.6805
L64.0363 37.7586
L64.3428 36.941
L64.9559 34.5811
L65.2624 34.0743
L65.5689 34.0842
L66.4885 34.9639
L66.795 35.0062
L67.1015 34.7546
L68.3276 32.737
L68.6341 32.9706
L68.9406 33.8476
L69.2471 35.5794
L69.5537 38.4501
L70.4732 50.6802
L70.7797 52.0244
L71.0862 50.6006
L72.3123 36.1872
L72.6188 35.3258
L72.9254 35.3409
L73.2319 35.8662
L74.1514 37.8955
L74.458 37.9749
L74.7645 37.6675
L75.3775 36.7212
L75.684 36.5079
L75.9905 36.639
L76.2971 37.4949
L76.6036 40.0307
L77.2166 49.4583
L77.5231 51.26
L77.8297 49.0007
L78.4427 39.884
L78.7492 37.1728
L79.0557 35.8092
L79.3622 35.283
L79.6688 35.3329
L80.2818 36.3415
L80.8948 37.3652
L81.2014 37.6173
L82.1209 38.0191
L82.4274 38.5467
L82.7339 39.4752
L83.0405 40.9072
L83.347 43.0917
L83.6535 46.7439
L83.96 53.5121
L84.8796 83.0546
L85.1861 86.8424
L85.4926 89.0388
L85.7991 90.2235
L86.1056 90.5627
L86.4122 90.0901
L86.7187 88.7573
L87.0252 86.3602
L87.3317 82.1989
L87.6382 74.5068
L88.2513 52.994
L88.5578 47.4495
L89.1708 42.559
L90.0904 38.129
L90.7034 36.1519
L91.3165 34.9174
L92.236 33.6462
L92.8491 33.1201
L93.7686 32.7798
L96.2208 32.2001
L96.5273 32.4616
L96.8338 33.0314
L98.0599 36.4403
L98.3664 36.4232
L98.6729 35.9991
L99.899 33.4872
L100.512 32.9821
L101.738 32.4174
L102.351 32.6063
L102.964 32.8545
L104.19 32.7172
L104.497 32.8941
L104.803 33.3347
L105.723 35.3715
L106.029 35.3808
L106.949 33.7017
L107.255 33.6239
L107.868 34.1356
L108.175 34.1907
L109.095 33.5778
L109.401 34.0053
L109.708 35.5209
L110.014 38.8971
L110.627 51.5106
L111.24 68.9131
L111.853 86.7348
L112.16 90.166
L112.466 91.9546
L112.773 92.5844
L113.079 92.1372
L113.386 90.5431
L113.692 87.3082
L113.999 79.1751
L114.612 42.9127
L114.918 35.5808
L115.225 33.8592
L115.531 33.5959
L116.144 33.6439
L117.677 34.1041
L119.516 34.7129
L125.033 36.9196
L126.26 37.7835
L127.792 39.1344
L129.938 41.1008
L131.47 43.1607
L132.39 44.714
L133.616 47.3384
L136.068 53.4515
L136.988 56.6413
L137.907 60.7024
L139.44 67.4934
L140.972 75.1092
L141.279 77.0824
L141.892 83.4938
L142.505 90.7863
L143.118 95.9495
L143.731 99.0809
L144.038 99.9937
L144.344 100.529
L144.651 100.717
L144.957 100.567
L145.264 100.07
L145.57 99.2011
L146.183 96.1754
L146.796 91.1876
L147.409 86.0337
L147.716 88.1791
L148.329 96.9207
L148.942 101.878
L149.248 103.049
L149.555 103.614
L149.861 103.721
L150.168 103.399
L150.475 102.558
L150.781 101.013
L151.088 98.561
L151.701 90.4339
L152.314 81.2436
L152.927 77.1474
L155.379 64.0652
L155.685 63.0003
L155.992 62.4802
L156.605 62.5212
L156.911 62.0422
L157.218 60.7056
L158.444 52.8326
L159.057 50.3977
L159.977 47.9005
L160.59 46.7929
L160.896 46.5241
L161.509 46.3417
L162.429 45.5559
L163.042 45.7296
L163.348 45.4262
L163.961 44.3289
L164.574 42.664
L165.187 40.6865
L165.8 39.5244
L166.72 38.6588
L167.333 38.2626
L167.946 38.157
L168.253 38.3019
L169.479 39.3583
L169.785 39.2408
L170.398 38.4537
L171.624 36.5712
L172.237 36.1157
L173.463 35.8839
L174.689 35.1308
L175.916 34.9843
L176.529 34.9842
L176.835 35.0803
L177.142 35.3068
L177.755 36.1525
L178.368 37.0461
L178.674 37.2673
L178.981 37.2336
L179.287 36.9454
L180.207 35.7494
L180.513 35.6143
L181.739 35.6581
L182.352 35.8491
L182.659 36.1757
L182.965 36.7853
L183.272 37.9348
L183.578 40.3652
L183.885 45.7954
L184.805 76.8219
L185.111 81.237
L185.418 83.045
L185.724 83.1632
L186.031 81.6389
L186.337 77.674
L186.644 69.4754
L187.257 46.3607
L187.563 40.6631
L187.87 38.4588
L188.176 37.6646
L188.483 37.3568
L189.096 37.1828
L189.709 37.3238
L190.015 37.5403
L190.322 37.9571
L190.628 39.2095
L190.935 44.1803
L191.854 87.6034
L192.161 91.4687
L192.468 93.7098
L192.774 94.8424
L193.081 94.9785
L193.387 94.13
L193.694 92.2199
L194 88.9515
L194.307 82.5762
L194.613 71.9401
L194.92 70.6308
L195.533 87.0985
L196.146 94.921
L196.452 97.0242
L196.759 98.2744
L197.065 98.799
L197.372 98.6537
L197.678 97.8232
L197.985 96.22
L198.291 93.687
L198.598 89.9656
L198.904 84.2479
L199.824 56.7377
L200.437 49.5831
L201.05 45.4233
L201.663 42.42
L202.276 40.2003
L202.889 38.6226
L203.502 37.5388
L203.809 37.2436
L204.115 37.2608
L204.422 37.7018
L205.035 39.1565
L205.341 39.269
L205.648 38.6141
L206.567 35.4077
L207.18 34.5123
L208.1 33.789
L208.713 33.4829
L209.02 33.4364
L209.326 33.5221
L209.633 33.7925
L210.246 34.6335
L210.552 34.7764
L210.859 34.5297
L211.472 33.521
L211.778 33.221
L212.085 33.1435
L213.311 33.296
L215.456 32.5598
L215.763 32.6467
L216.069 32.8875
L216.376 33.4525
L216.682 34.5991
L217.296 38.9221
L217.602 41.2869
L217.909 42.7634
L218.215 42.7393
L218.522 41.2179
L219.135 37.0548
L219.441 36.3347
L219.748 36.7573
L220.054 37.5942
L220.361 37.9822
L220.667 37.4954
L221.28 35.2259
L221.587 34.5436
L222.813 33.4182
L223.426 32.6999
L224.039 32.4448
L225.265 32.1705
L227.104 32.2689
L227.104 32.2689" style="fill:none;stroke:#ff0000;stroke-linecap:square;"/>
   </g>
   <g id="matplotlib.axis_1">
    <g id="xtick_1">
     <g id="line2d_2">
      <defs>
       <path d="
M0 0
L0 -4" id="mc7db9fdffb" style="stroke:#000000;stroke-width:0.5;"/>
      </defs>
      <g>
       <use style="stroke:#000000;stroke-width:0.5;" x="42.84" xlink:href="#mc7db9fdffb" y="110.484"/>
      </g>
     </g>
     <g id="line2d_3">
      <defs>
       <path d="
M0 0
L0 4" id="m5a7d422ac3" style="stroke:#000000;stroke-width:0.5;"/>
      </defs>
      <g>
       <use style="stroke:#000000;stroke-width:0.5;" x="42.84" xlink:href="#m5a7d422ac3" y="14.256"/>
      </g>
     </g>
    </g>
    <g id="xtick_2">
     <g id="line2d_4">
      <g>
       <use style="stroke:#000000;stroke-width:0.5;" x="73.5" xlink:href="#mc7db9fdffb" y="110.484"/>
      </g>
     </g>
     <g id="line2d_5">
      <g>
       <use style="stroke:#000000;stroke-width:0.5;" x="73.5" xlink:href="#m5a7d422ac3" y="14.256"/>
      </g>
     </g>
    </g>
    <g id="xtick_3">
     <g id="line2d_6">
      <g>
       <use style="stroke:#000000;stroke-width:0.5;" x="104.16" xlink:href="#mc7db9fdffb" y="110.484"/>
      </g>
     </g>
     <g id="line2d_7">
      <g>
       <use style="stroke:#000000;stroke-width:0.5;" x="104.16" xlink:href="#m5a7d422ac3" y="14.256"/>
      </g>
     </g>
    </g>
    <g id="xtick_4">
     <g id="line2d_8">
      <g>
       <use style="stroke:#000000;stroke-width:0.5;" x="134.82" xlink:href="#mc7db9fdffb" y="110.484"/>
      </g>
     </g>
     <g id="line2d_9">
      <g>
       <use style="stroke:#000000;stroke-width:0.5;" x="134.82" xlink:href="#m5a7d422ac3" y="14.256"/>
      </g>
     </g>
    </g>
    <g id="xtick_5">
     <g id="line2d_10">
      <g>
       <use style="stroke:#000000;stroke-width:0.5;" x="165.48" xlink:href="#mc7db9fdffb" y="110.484"/>
      </g>
     </g>
     <g id="line2d_11">
      <g>
       <use style="stroke:#000000;stroke-width:0.5;" x="165.48" xlink:href="#m5a7d422ac3" y="14.256"/>
      </g>
     </g>
    </g>
    <g id="xtick_6">
     <g id="line2d_12">
      <g>
       <use style="stroke:#000000;stroke-width:0.5;" x="196.14" xlink:href="#mc7db9fdffb" y="110.484"/>
      </g>
     </g>
     <g id="line2d_13">
      <g>
       <use style="stroke:#000000;stroke-width:0.5;" x="196.14" xlink:href="#m5a7d422ac3" y="14.256"/>
      </g>
     </g>
    </g>
    <g id="xtick_7">
     <g id="line2d_14">
      <g>
       <use style="stroke:#000000;stroke-width:0.5;" x="226.8" xlink:href="#mc7db9fdffb" y="110.484"/>
      </g>
     </g>
     <g id="line2d_15">
      <g>
       <use style="stroke:#000000;stroke-width:0.5;" x="226.8" xlink:href="#m5a7d422ac3" y="14.256"/>
      </g>
     </g>
    </g>
   </g>
   <g id="matplotlib.axis_2">
    <g id="ytick_1">
     <g id="line2d_16">
      <defs>
       <path d="
M0 0
L4 0" id="md7965d1ba0" style="stroke:#000000;stroke-width:0.5;"/>
      </defs>
      <g>
       <use style="stroke:#000000;stroke-width:0.5;" x="42.84" xlink:href="#md7965d1ba0" y="110.484"/>
      </g>
     </g>
     <g id="line2d_17">
      <defs>
       <path d="
M0 0
L-4 0" id="md9a1c1a7cd" style="stroke:#000000;stroke-width:0.5;"/>
      </defs>
      <g>
       <use style="stroke:#000000;stroke-width:0.5;" x="226.8" xlink:href="#md9a1c1a7cd" y="110.484"/>
      </g>
     </g>
     <g id="text_1">
      <!-- $0.0$ -->
      <defs>
       <path d="
M42 31.6406
C42 37.75 41.9062 48.125 37.7031 56.1094
C34 63.1094 28.0938 65.5938 22.9062 65.5938
C18.0938 65.5938 12 63.4062 8.20312 56.2031
C4.20312 48.7188 3.79688 39.4375 3.79688 31.6406
C3.79688 25.9531 3.90625 17.2812 7 9.67188
C11.2969 -0.609375 19 -2 22.9062 -2
C27.5 -2 34.5 -0.109375 38.5938 9.375
C41.5938 16.2812 42 24.3594 42 31.6406
M22.9062 -0.40625
C16.5 -0.40625 12.7031 5.07812 11.2969 12.6875
C10.2031 18.5625 10.2031 27.1562 10.2031 32.75
C10.2031 40.4375 10.2031 46.8281 11.5 52.9219
C13.4062 61.3906 19 64 22.9062 64
C27 64 32.2969 61.2969 34.2031 53.125
C35.5 47.4375 35.5938 40.7344 35.5938 32.75
C35.5938 26.25 35.5938 18.2656 34.4062 12.375
C32.2969 1.48438 26.4062 -0.40625 22.9062 -0.40625" id="CMR17-48"/>
       <path d="
M18.4062 4.79688
C18.4062 7.6875 16 9.67188 13.5938 9.67188
C10.7031 9.67188 8.70312 7.28125 8.70312 4.89062
C8.70312 2 11.0938 0 13.5 0
C16.4062 0 18.4062 2.39062 18.4062 4.79688" id="CMMI12-58"/>
      </defs>
      <g transform="translate(26.1099210237 112.974660025)scale(0.1 -0.1)">
       <use transform="scale(0.9962640099626402)" xlink:href="#CMR17-48"/>
       <use transform="translate(45.69047711706103 0.0)scale(0.9962640099626402)" xlink:href="#CMMI12-58"/>
       <use transform="translate(72.78765420688046 0.0)scale(0.9962640099626402)" xlink:href="#CMR17-48"/>
      </g>
     </g>
    </g>
    <g id="ytick_2">
     <g id="line2d_18">
      <g>
       <use style="stroke:#000000;stroke-width:0.5;" x="42.84" xlink:href="#md7965d1ba0" y="94.446"/>
      </g>
     </g>
     <g id="line2d_19">
      <g>
       <use style="stroke:#000000;stroke-width:0.5;" x="226.8" xlink:href="#md9a1c1a7cd" y="94.446"/>
      </g>
     </g>
     <g id="text_2">
      <!-- $0.2$ -->
      <defs>
       <path d="
M41.7031 15.4531
L39.9062 15.4531
C38.9062 8.375 38.0938 7.17188 37.7031 6.5625
C37.2031 5.76562 30 5.76562 28.5938 5.76562
L9.40625 5.76562
C13 9.67188 20 16.75 28.5 24.9531
C34.5938 30.7344 41.7031 37.5312 41.7031 47.4219
C41.7031 59.2188 32.2969 66 21.7969 66
C10.7969 66 4.09375 56.3125 4.09375 47.3438
C4.09375 43.4375 7 42.9375 8.20312 42.9375
C9.20312 42.9375 12.2031 43.5469 12.2031 47.0312
C12.2031 50.1094 9.59375 51 8.20312 51
C7.59375 51 7 50.9062 6.59375 50.7031
C8.5 59.2188 14.2969 63.4062 20.4062 63.4062
C29.0938 63.4062 34.7969 56.5156 34.7969 47.4219
C34.7969 38.7344 29.7031 31.25 24 24.75
L4.09375 2.28125
L4.09375 0
L39.2969 0
z
" id="CMR17-50"/>
      </defs>
      <g transform="translate(26.1099210237 96.9366600249)scale(0.1 -0.1)">
       <use transform="scale(0.9962640099626402)" xlink:href="#CMR17-48"/>
       <use transform="translate(45.69047711706103 0.0)scale(0.9962640099626402)" xlink:href="#CMMI12-58"/>
       <use transform="translate(72.78765420688046 0.0)scale(0.9962640099626402)" xlink:href="#CMR17-50"/>
      </g>
     </g>
    </g>
    <g id="ytick_3">
     <g id="line2d_20">
      <g>
       <use style="stroke:#000000;stroke-width:0.5;" x="42.84" xlink:href="#md7965d1ba0" y="78.408"/>
      </g>
     </g>
     <g id="line2d_21">
      <g>
       <use style="stroke:#000000;stroke-width:0.5;" x="226.8" xlink:href="#md9a1c1a7cd" y="78.408"/>
      </g>
     </g>
     <g id="text_3">
      <!-- $0.4$ -->
      <defs>
       <path d="
M33.5938 64.3281
C33.5938 66.4062 33.5 66.5 31.7031 66.5
L2 19.5938
L2 17
L27.7969 17
L27.7969 7.14062
C27.7969 3.5 27.5938 2.5 20.5938 2.5
L18.7031 2.5
L18.7031 0
C21.9062 0 27.2969 0 30.7031 0
C34.0938 0 39.5 0 42.7031 0
L42.7031 2.5
L40.7969 2.5
C33.7969 2.5 33.5938 3.5 33.5938 7.14062
L33.5938 17
L43.7969 17
L43.7969 19.5938
L33.5938 19.5938
z

M28.0938 57.7656
L28.0938 19.5938
L4 19.5938
z
" id="CMR17-52"/>
      </defs>
      <g transform="translate(26.1099210237 80.8986600249)scale(0.1 -0.1)">
       <use transform="scale(0.9962640099626402)" xlink:href="#CMR17-48"/>
       <use transform="translate(45.69047711706103 0.0)scale(0.9962640099626402)" xlink:href="#CMMI12-58"/>
       <use transform="translate(72.78765420688046 0.0)scale(0.9962640099626402)" xlink:href="#CMR17-52"/>
      </g>
     </g>
    </g>
    <g id="ytick_4">
     <g id="line2d_22">
      <g>
       <use style="stroke:#000000;stroke-width:0.5;" x="42.84" xlink:href="#md7965d1ba0" y="62.37"/>
      </g>
     </g>
     <g id="line2d_23">
      <g>
       <use style="stroke:#000000;stroke-width:0.5;" x="226.8" xlink:href="#md9a1c1a7cd" y="62.37"/>
      </g>
     </g>
     <g id="text_4">
      <!-- $0.6$ -->
      <defs>
       <path d="
M10.5938 34
C10.5938 57.6562 21.7969 63 28.2969 63
C30.4062 63 35.5 62.6406 37.5 59
C35.9062 59 32.9062 59 32.9062 55.5156
C32.9062 52.8281 35.0938 51.9219 36.5 51.9219
C37.4062 51.9219 40.0938 52.3125 40.0938 55.625
C40.0938 61.7812 35.0938 65.2969 28.2031 65.2969
C16.2969 65.2969 3.79688 52.9688 3.79688 31
C3.79688 3.95312 15.0938 -2 23.0938 -2
C32.7969 -2 42 6.67188 42 20.0469
C42 32.5156 33.9062 41.5938 23.7031 41.5938
C17.5938 41.5938 13.0938 37.6094 10.5938 30.625
z

M23.0938 0.390625
C10.7969 0.390625 10.7969 18.75 10.7969 22.4375
C10.7969 29.625 14.2031 40 23.5 40
C25.2031 40 30.0938 40 33.4062 33.125
C35.2031 29.2188 35.2031 25.1406 35.2031 20.1406
C35.2031 14.75 35.2031 10.7812 33.0938 6.78125
C30.9062 2.67188 27.7031 0.390625 23.0938 0.390625" id="CMR17-54"/>
      </defs>
      <g transform="translate(26.1099210237 64.8606600249)scale(0.1 -0.1)">
       <use transform="scale(0.9962640099626402)" xlink:href="#CMR17-48"/>
       <use transform="translate(45.69047711706103 0.0)scale(0.9962640099626402)" xlink:href="#CMMI12-58"/>
       <use transform="translate(72.78765420688046 0.0)scale(0.9962640099626402)" xlink:href="#CMR17-54"/>
      </g>
     </g>
    </g>
    <g id="ytick_5">
     <g id="line2d_24">
      <g>
       <use style="stroke:#000000;stroke-width:0.5;" x="42.84" xlink:href="#md7965d1ba0" y="46.332"/>
      </g>
     </g>
     <g id="line2d_25">
      <g>
       <use style="stroke:#000000;stroke-width:0.5;" x="226.8" xlink:href="#md9a1c1a7cd" y="46.332"/>
      </g>
     </g>
     <g id="text_5">
      <!-- $0.8$ -->
      <defs>
       <path d="
M27.2031 35.375
C33.5 38.5625 39.9062 43.3281 39.9062 50.9844
C39.9062 60.0312 31.0938 65.2969 23 65.2969
C13.9062 65.2969 5.90625 58.7344 5.90625 49.6875
C5.90625 47.2031 6.5 42.9219 10.4062 39.1406
C11.4062 38.1562 15.5938 35.1719 18.2969 33.2812
C13.7969 30.9844 3.29688 25.5312 3.29688 14.5938
C3.29688 4.35938 13.0938 -2 22.7969 -2
C33.5 -2 42.5 5.65625 42.5 15.7969
C42.5 24.8438 36.4062 29.0312 32.4062 31.7031
z

M14.0938 44.125
C13.2969 44.625 9.29688 47.7031 9.29688 52.375
C9.29688 58.4375 15.5938 63 22.7969 63
C30.7031 63 36.5 57.4531 36.5 50.9844
C36.5 41.7344 26.0938 36.4688 25.5938 36.4688
C25.5 36.4688 25.4062 36.4688 24.5938 37.0781
z

M32.5 23.7344
C34 22.6406 38.7969 19.375 38.7969 13.2969
C38.7969 5.95312 31.4062 0.390625 23 0.390625
C13.9062 0.390625 7 6.84375 7 14.6875
C7 22.5469 13.0938 29.0938 20 32.1875
z
" id="CMR17-56"/>
      </defs>
      <g transform="translate(26.1099210237 48.8226600249)scale(0.1 -0.1)">
       <use transform="scale(0.9962640099626402)" xlink:href="#CMR17-48"/>
       <use transform="translate(45.69047711706103 0.0)scale(0.9962640099626402)" xlink:href="#CMMI12-58"/>
       <use transform="translate(72.78765420688046 0.0)scale(0.9962640099626402)" xlink:href="#CMR17-56"/>
      </g>
     </g>
    </g>
    <g id="ytick_6">
     <g id="line2d_26">
      <g>
       <use style="stroke:#000000;stroke-width:0.5;" x="42.84" xlink:href="#md7965d1ba0" y="30.294"/>
      </g>
     </g>
     <g id="line2d_27">
      <g>
       <use style="stroke:#000000;stroke-width:0.5;" x="226.8" xlink:href="#md9a1c1a7cd" y="30.294"/>
      </g>
     </g>
     <g id="text_6">
      <!-- $1.0$ -->
      <defs>
       <path d="
M26.5938 63.3125
C26.5938 65.4062 26.5 65.5 25.0938 65.5
C21.2031 61.1875 15.2969 59.7969 9.70312 59.7969
C9.40625 59.7969 8.90625 59.7969 8.79688 59.6094
C8.70312 59.3906 8.70312 59.1719 8.70312 57
C11.7969 57 17 57.5938 21 59.9844
L21 7.20312
C21 3.6875 20.7969 2.5 12.2031 2.5
L9.20312 2.5
L9.20312 0
C14 0 19 0 23.7969 0
C28.5938 0 33.5938 0 38.4062 0
L38.4062 2.5
L35.4062 2.5
C26.7969 2.5 26.5938 3.59375 26.5938 7.15625
z
" id="CMR17-49"/>
      </defs>
      <g transform="translate(26.1099210237 32.7846600249)scale(0.1 -0.1)">
       <use transform="scale(0.9962640099626402)" xlink:href="#CMR17-49"/>
       <use transform="translate(45.69047711706103 0.0)scale(0.9962640099626402)" xlink:href="#CMMI12-58"/>
       <use transform="translate(72.78765420688046 0.0)scale(0.9962640099626402)" xlink:href="#CMR17-48"/>
      </g>
     </g>
    </g>
    <g id="ytick_7">
     <g id="line2d_28">
      <g>
       <use style="stroke:#000000;stroke-width:0.5;" x="42.84" xlink:href="#md7965d1ba0" y="14.256"/>
      </g>
     </g>
     <g id="line2d_29">
      <g>
       <use style="stroke:#000000;stroke-width:0.5;" x="226.8" xlink:href="#md9a1c1a7cd" y="14.256"/>
      </g>
     </g>
     <g id="text_7">
      <!-- $1.2$ -->
      <g transform="translate(26.1099210237 16.7466600249)scale(0.1 -0.1)">
       <use transform="scale(0.9962640099626402)" xlink:href="#CMR17-49"/>
       <use transform="translate(45.69047711706103 0.0)scale(0.9962640099626402)" xlink:href="#CMMI12-58"/>
       <use transform="translate(72.78765420688046 0.0)scale(0.9962640099626402)" xlink:href="#CMR17-50"/>
      </g>
     </g>
    </g>
    <g id="text_8">
     <!-- $\times10^{7}$ -->
     <defs>
      <path d="
M38.9062 27.8906
L18.9062 47.7969
C17.7031 49 17.5 49.1875 16.7031 49.1875
C15.7031 49.1875 14.7031 48.2969 14.7031 47.1875
C14.7031 46.5 14.9062 46.2969 16 45.1875
L36 25.0938
L16 5
C14.9062 3.89062 14.7031 3.6875 14.7031 3
C14.7031 1.89062 15.7031 1 16.7031 1
C17.5 1 17.7031 1.1875 18.9062 2.39062
L38.7969 22.2969
L59.5 1.59375
C59.7031 1.5 60.4062 1 61 1
C62.2031 1 63 1.89062 63 3
C63 3.1875 63 3.59375 62.7031 4.09375
C62.5938 4.29688 46.7031 20 41.7031 25.0938
L60 43.3906
C60.5 44 62 45.2969 62.5 45.8906
C62.5938 46.0938 63 46.5 63 47.1875
C63 48.2969 62.2031 49.1875 61 49.1875
C60.2031 49.1875 59.7969 48.7969 58.7031 47.6875
z
" id="CMSY10-2"/>
      <path d="
M45.0938 61.5781
L45.0938 63.7656
L21.5938 63.7656
C9.90625 63.7656 9.70312 65.0781 9.29688 67
L7.5 67
L4.59375 48.3438
L6.40625 48.3438
C6.70312 50.2344 7.40625 55.3125 8.59375 57.2031
C9.20312 58 16.5938 58 18.2969 58
L40.2969 58
L29.2031 41.5781
C21.7969 30.5312 16.7031 15.6094 16.7031 2.57812
C16.7031 1.39062 16.7031 -2 20.2969 -2
C23.9062 -2 23.9062 1.39062 23.9062 2.67188
L23.9062 7.26562
C23.9062 23.5625 26.7031 34.3125 31.2969 41.1875
z
" id="CMR17-55"/>
     </defs>
     <g transform="translate(42.84 11.256)scale(0.1 -0.1)">
      <use transform="scale(0.9962640099626402)" xlink:href="#CMSY10-2"/>
      <use transform="translate(77.4874676506071 0.0)scale(0.9962640099626402)" xlink:href="#CMR17-49"/>
      <use transform="translate(123.17794476766814 0.0)scale(0.9962640099626402)" xlink:href="#CMR17-48"/>
      <use transform="translate(168.86842188472914 36.15363894185866)scale(0.6973817666173724)" xlink:href="#CMR17-55"/>
     </g>
    </g>
   </g>
   <g id="patch_3">
    <path d="
M226.8 110.484
L226.8 14.256" style="fill:none;stroke:#000000;"/>
   </g>
   <g id="patch_4">
    <path d="
M42.84 14.256
L226.8 14.256" style="fill:none;stroke:#000000;"/>
   </g>
   <g id="patch_5">
    <path d="
M42.84 110.484
L226.8 110.484" style="fill:none;stroke:#000000;"/>
   </g>
   <g id="patch_6">
    <path d="
M42.84 110.484
L42.84 14.256" style="fill:none;stroke:#000000;"/>
   </g>
   <g id="text_9">
    <!-- raw -->
    <defs>
     <path d="
M36 25.8281
C36 32.375 36 35.8438 31.7969 39.7344
C28.0938 43 23.7969 44 20.4062 44
C12.5 44 6.79688 37.6094 6.79688 30.7969
C6.79688 27 9.79688 27 10.4062 27
C11.7031 27 14 27.7812 14 30.5312
C14 33 12.0938 34.0781 10.4062 34.0781
C10 34.0781 9.5 33.9688 9.20312 33.875
C11.2969 40.5 16.7031 42.4062 20.2031 42.4062
C25.2031 42.4062 30.7031 37.9531 30.7031 29.4531
L30.7031 25
C24.7969 25 17.7031 24.2031 12.0938 21.2031
C5.79688 17.7031 4 12.7031 4 8.90625
C4 1.20312 13 -1 18.2969 -1
C23.7969 -1 28.9062 2.17188 31.0938 7.98438
C31.2969 3.64062 34.0938 -0.28125 38.5 -0.28125
C40.5938 -0.28125 45.9062 1.09375 45.9062 8.85938
L45.9062 14.375
L44.0938 14.375
L44.0938 8.78125
C44.0938 2.78125 41.4062 2 40.0938 2
C36 2 36 7.15625 36 11.5312
z

M30.7031 13.5938
C30.7031 4.95312 24.5 0.59375 19 0.59375
C14 0.59375 10.0938 4.29688 10.0938 8.90625
C10.0938 11.8906 11.4062 17.1875 17.2031 20.3906
C22 23.0938 27.5 23.5 30.7031 23.5
z
" id="CMR17-97"/>
     <path d="
M58.2031 34.0781
C60.2031 40 64.2031 40 65.7031 40
L65.7031 42.6875
C63.7031 42.6875 61.7031 42.6875 59.7031 42.6875
C57.7969 42.6875 53.5 42.6875 51.7969 42.7812
L51.7969 40
C54.9062 40 56.5938 38.1875 56.5938 35.7031
C56.5938 35 56.4062 34.0938 56.2031 33.4062
L46.7969 6.20312
L36.5938 35.5156
C36.4062 36.2188 36.0938 37.0156 36.0938 37.4062
C36.0938 40 39.5 40 41.0938 40
L41.0938 42.7812
C38.7969 42.6875 34.5938 42.6875 32.2031 42.6875
C29.7031 42.6875 27.0938 42.6875 24.7969 42.7812
L24.7969 40
C30.2969 40 30.2969 39.7969 32.4062 33.7031
L23.2031 6.90625
L13.2969 35.625
C12.7969 36.9062 12.7969 37.1094 12.7969 37.4062
C12.7969 40 16.2031 40 17.7969 40
L17.7969 42.7812
C15.4062 42.6875 11.2031 42.6875 8.70312 42.6875
C6.5 42.6875 3.09375 42.6875 1 42.7812
L1 40
C5.40625 40 6.5 39.7031 7.59375 36.4062
L19.9062 0.59375
C20.2969 -0.703125 20.5938 -1 21.4062 -1
C22.0938 -1 22.5 -0.796875 23 0.703125
L33.2969 30.9062
L43.7031 0.703125
C44.2031 -0.796875 44.5938 -1 45.2969 -1
C46.0938 -1 46.4062 -0.703125 46.7969 0.609375
z
" id="CMR17-119"/>
     <path d="
M15 23.3906
C15 33 19.0938 42 26.5938 42
C27.2969 42 28 41.9062 28.7031 41.5938
C28.7031 41.5938 26.5 40.8906 26.5 38.3125
C26.5 35.9062 28.4062 34.9062 29.9062 34.9062
C31.0938 34.9062 33.2969 35.6094 33.2969 38.4062
C33.2969 41.6094 30.0938 43.5938 26.7031 43.5938
C19.0938 43.5938 15.7969 36.2031 14.7969 32.7031
L14.7031 32.7031
L14.7031 43.5938
L3.09375 42.5
L3.09375 39.9062
C9 39.9062 9.90625 39.2969 9.90625 34.5
L9.90625 6.6875
C9.90625 2.875 9.5 2.39062 3.09375 2.39062
L3.09375 -0.203125
C5.5 0 10.0938 0 12.7031 0
C15.5938 0 20.7031 0 23.4062 -0.203125
L23.4062 2.39062
C16.2031 2.39062 15 2.39062 15 6.875
z
" id="CMR17-114"/>
    </defs>
    <g transform="translate(48.972 26.2845)scale(0.1 -0.1)">
     <use transform="scale(0.9962640099626402)" xlink:href="#CMR17-114"/>
     <use transform="translate(35.28076779946296 0.0)scale(0.9962640099626402)" xlink:href="#CMR17-97"/>
     <use transform="translate(78.3687909840053 0.0)scale(0.9962640099626402)" xlink:href="#CMR17-119"/>
    </g>
   </g>
  </g>
  <g id="axes_2">
   <g id="patch_7">
    <path d="
M42.84 206.712
L226.8 206.712
L226.8 110.484
L42.84 110.484
z
" style="fill:#ffffff;"/>
   </g>
   <g id="line2d_30">
    <path clip-path="url(#pdee628d44d)" d="
M-1 140.805
L-0.695338 140.805
L-0.695338 134.462
L0.708069 134.462
L0.708069 131.472
L2.11138 131.472
L2.11138 130.042
L3.51459 130.042
L3.51459 129.338
L4.91771 129.338
L4.91771 128.983
L6.32073 128.983
L6.32073 128.639
L7.72365 128.639
L7.72365 128.341
L9.12648 128.341
L9.12648 128.681
L10.5292 128.681
L10.5292 130.125
L11.9318 130.125
L11.9318 132.319
L13.3344 132.319
L13.3344 134.223
L14.7368 134.223
L14.7368 134.664
L16.1391 134.664
L16.1391 133.222
L17.5414 133.222
L17.5414 130.66
L18.9435 130.66
L18.9435 128.325
L20.3456 128.325
L20.3456 126.976
L21.7475 126.976
L21.7475 126.467
L24.5511 126.489
L24.5511 126.922
L25.9528 126.922
L25.9528 127.559
L27.3544 127.559
L27.3544 127.992
L32.9597 128.036
L32.9597 128.123
L34.3607 128.123
L34.3607 127.885
L35.7617 127.885
L35.7617 127.564
L38.5634 127.602
L38.5634 127.999
L39.9641 127.999
L39.9641 128.646
L41.3647 128.646
L41.3647 130.249
L42.7652 130.249
L42.7652 133.725
L44.1656 133.725
L44.1656 137.995
L45.5659 137.995
L45.5659 140.162
L46.9661 140.162
L46.9661 138.761
L48.3662 138.761
L48.3662 135.273
L49.7662 135.273
L49.7662 132.036
L51.1661 132.036
L51.1661 129.958
L52.5659 129.958
L52.5659 128.836
L53.9656 128.836
L53.9656 128.319
L55.3652 128.319
L55.3652 128.181
L56.7648 128.181
L56.7648 128.695
L58.1642 128.695
L58.1642 131.241
L59.5635 131.241
L59.5635 137.827
L60.9628 137.827
L60.9628 147.495
L62.3619 147.495
L62.3619 154.164
L63.7609 154.164
L63.7609 152.447
L65.1599 152.447
L65.1599 144.336
L66.5587 144.336
L66.5587 136.461
L67.9575 136.461
L67.9575 132.399
L69.3561 132.399
L69.3561 131.432
L70.7547 131.432
L70.7547 132.608
L72.1531 132.608
L72.1531 135.176
L73.5515 135.176
L73.5515 137.198
L76.3479 137.162
L76.3479 135.941
L77.746 135.941
L77.746 135.665
L79.1439 135.665
L79.1439 136.634
L80.5418 136.634
L80.5418 137.166
L81.9396 137.166
L81.9396 136.565
L83.3372 136.565
L83.3372 136.752
L84.7348 136.752
L84.7348 141.344
L86.1323 141.344
L86.1323 152.157
L87.5297 152.157
L87.5297 165.351
L88.927 165.351
L88.927 172.473
L90.3242 172.473
L90.3242 167.977
L91.7213 167.977
L91.7213 155.167
L93.1183 155.167
L93.1183 142.195
L94.5151 142.195
L94.5151 133.981
L95.9119 133.981
L95.9119 130.224
L97.3087 130.224
L97.3087 128.951
L100.102 128.962
L100.102 129.501
L101.498 129.501
L101.498 129.811
L102.894 129.811
L102.894 129.527
L104.291 129.527
L104.291 128.985
L105.687 128.985
L105.687 128.773
L107.083 128.773
L107.083 129.066
L108.479 129.066
L108.479 129.719
L109.875 129.719
L109.875 131.325
L111.27 131.325
L111.27 136.275
L112.666 136.275
L112.666 146.958
L114.062 146.958
L114.062 160.503
L115.457 160.503
L115.457 167.894
L116.852 167.894
L116.852 162.849
L118.248 162.849
L118.248 149.575
L119.643 149.575
L119.643 137.709
L121.038 137.709
L121.038 132.074
L122.433 132.074
L122.433 130.886
L123.828 130.886
L123.828 131.201
L125.222 131.201
L125.222 131.81
L126.617 131.81
L126.617 132.535
L128.011 132.535
L128.011 133.427
L129.406 133.427
L129.406 134.534
L130.8 134.534
L130.8 135.881
L132.195 135.881
L132.195 137.513
L133.589 137.513
L133.589 139.54
L134.983 139.54
L134.983 142.099
L136.377 142.099
L136.377 145.3
L137.771 145.3
L137.771 149.263
L139.164 149.263
L139.164 154.155
L140.558 154.155
L140.558 160.167
L141.952 160.167
L141.952 167.554
L143.345 167.554
L143.345 176.53
L144.739 176.53
L144.739 186.452
L146.132 186.452
L146.132 195.158
L147.525 195.158
L147.525 200.257
L148.918 200.257
L148.918 201.771
L150.311 201.771
L150.311 202.111
L151.704 202.111
L151.704 202.331
L153.097 202.331
L153.097 200.285
L154.49 200.285
L154.49 193.787
L155.882 193.787
L155.882 184.019
L157.275 184.019
L157.275 174.192
L158.667 174.192
L158.667 166.091
L160.06 166.091
L160.06 159.411
L161.452 159.411
L161.452 153.588
L162.844 153.588
L162.844 148.806
L164.236 148.806
L164.236 145.36
L165.628 145.36
L165.628 142.843
L167.02 142.843
L167.02 140.532
L168.411 140.532
L168.411 138.275
L169.803 138.275
L169.803 136.489
L171.195 136.489
L171.195 135.391
L172.586 135.391
L172.586 134.623
L173.977 134.623
L173.977 133.757
L175.369 133.757
L175.369 132.776
L176.76 132.776
L176.76 131.973
L178.151 131.973
L178.151 131.603
L180.933 131.693
L180.933 132.031
L182.323 132.031
L182.323 132.554
L183.714 132.554
L183.714 134.339
L185.105 134.339
L185.105 139.738
L186.495 139.738
L186.495 149.062
L187.885 149.062
L187.885 157.154
L189.276 157.154
L189.276 157.749
L190.666 157.749
L190.666 152.057
L192.056 152.057
L192.056 149.377
L193.446 149.377
L193.446 156.776
L194.836 156.776
L194.836 170.907
L196.226 170.907
L196.226 183.465
L197.615 183.465
L197.615 190.515
L199.005 190.515
L199.005 192.569
L200.394 192.569
L200.394 188.897
L201.784 188.897
L201.784 177.86
L203.173 177.86
L203.173 162.216
L204.562 162.216
L204.562 148.187
L205.951 148.187
L205.951 139.5
L207.34 139.5
L207.34 135.314
L208.729 135.314
L208.729 133.151
L210.118 133.151
L210.118 131.592
L211.507 131.592
L211.507 130.444
L212.895 130.444
L212.895 129.776
L214.284 129.776
L214.284 129.391
L215.672 129.391
L215.672 129.147
L217.061 129.147
L217.061 129.363
L218.449 129.363
L218.449 130.503
L219.837 130.503
L219.837 132.281
L221.225 132.281
L221.225 133.561
L222.613 133.561
L222.613 133.414
L224.001 133.414
L224.001 132.016
L225.388 132.016
L225.388 130.287
L226.776 130.287
L226.776 128.934
L228.164 128.934
L228.164 128.182
L229.551 128.182
L229.551 127.932
L235.1 127.865
L235.1 127.773
L237.874 127.775
L237.874 127.937
L239.26 127.937
L239.26 128.227
L240.647 128.227
L240.647 128.624
L242.034 128.624
L242.034 129.296
L243.42 129.296
L243.42 130.503
L244.806 130.503
L244.806 131.96
L246.193 131.96
L246.193 132.708
L247.579 132.708
L247.579 132.145
L248.965 132.145
L248.965 130.773
L250.351 130.773
L250.351 129.604
L251.737 129.604
L251.737 129.09
L253 129.09
L253 129.09" style="fill:none;stroke:#ff0000;stroke-linecap:square;"/>
   </g>
   <g id="matplotlib.axis_3">
    <g id="xtick_8">
     <g id="line2d_31">
      <g>
       <use style="stroke:#000000;stroke-width:0.5;" x="42.84" xlink:href="#mc7db9fdffb" y="206.712"/>
      </g>
     </g>
     <g id="line2d_32">
      <g>
       <use style="stroke:#000000;stroke-width:0.5;" x="42.84" xlink:href="#m5a7d422ac3" y="110.484"/>
      </g>
     </g>
     <g id="text_10">
      <!-- 5164 -->
      <defs>
       <path d="
M11.4062 57.6875
C12.4062 57.2812 16.5 56 20.7031 56
C30 56 35.0938 61.0156 38 63.9219
C38 64.7344 38 65.25 37.4062 65.25
C37.2969 65.25 37.0938 65.25 36.2969 64.8281
C32.7969 63.3125 28.7031 62.0781 23.7031 62.0781
C20.7031 62.0781 16.2031 62.5 11.2969 64.7344
C10.2031 65.25 10 65.25 9.90625 65.25
C9.40625 65.25 9.29688 65.1406 9.29688 63.1562
L9.29688 34.2812
C9.29688 32.5 9.29688 32 10.2969 32
C10.7969 32 11 32.2031 11.5 32.9062
C14.7031 37.4844 19.0938 39.4062 24.0938 39.4062
C27.5938 39.4062 35.0938 37.2188 35.0938 20.1406
C35.0938 16.9531 35.0938 11.1719 32.0938 6.57812
C29.5938 2.48438 25.7031 0.390625 21.4062 0.390625
C14.7969 0.390625 8.09375 5 6.29688 12.7188
C6.70312 12.6094 7.5 12.4219 7.90625 12.4219
C9.20312 12.4219 11.7031 13.125 11.7031 16.2188
C11.7031 18.9062 9.79688 20 7.90625 20
C5.59375 20 4.09375 18.5938 4.09375 15.7969
C4.09375 7.09375 11 -2 21.5938 -2
C31.9062 -2 41.7031 6.875 41.7031 19.75
C41.7031 31.7188 33.9062 41 24.2031 41
C19.0938 41 14.7969 39.0938 11.4062 35.4531
z
" id="CMR17-53"/>
      </defs>
      <g transform="translate(32.8773294968 217.63049838)scale(0.1 -0.1)">
       <use transform="scale(0.9962640099626402)" xlink:href="#CMR17-53"/>
       <use transform="translate(45.69047711706103 0.0)scale(0.9962640099626402)" xlink:href="#CMR17-49"/>
       <use transform="translate(91.38095423412206 0.0)scale(0.9962640099626402)" xlink:href="#CMR17-54"/>
       <use transform="translate(137.07143135118307 0.0)scale(0.9962640099626402)" xlink:href="#CMR17-52"/>
      </g>
     </g>
    </g>
    <g id="xtick_9">
     <g id="line2d_33">
      <g>
       <use style="stroke:#000000;stroke-width:0.5;" x="73.5" xlink:href="#mc7db9fdffb" y="206.712"/>
      </g>
     </g>
     <g id="line2d_34">
      <g>
       <use style="stroke:#000000;stroke-width:0.5;" x="73.5" xlink:href="#m5a7d422ac3" y="110.484"/>
      </g>
     </g>
     <g id="text_11">
      <!-- 5165 -->
      <g transform="translate(63.5373294968 217.63049838)scale(0.1 -0.1)">
       <use transform="scale(0.9962640099626402)" xlink:href="#CMR17-53"/>
       <use transform="translate(45.69047711706103 0.0)scale(0.9962640099626402)" xlink:href="#CMR17-49"/>
       <use transform="translate(91.38095423412206 0.0)scale(0.9962640099626402)" xlink:href="#CMR17-54"/>
       <use transform="translate(137.07143135118307 0.0)scale(0.9962640099626402)" xlink:href="#CMR17-53"/>
      </g>
     </g>
    </g>
    <g id="xtick_10">
     <g id="line2d_35">
      <g>
       <use style="stroke:#000000;stroke-width:0.5;" x="104.16" xlink:href="#mc7db9fdffb" y="206.712"/>
      </g>
     </g>
     <g id="line2d_36">
      <g>
       <use style="stroke:#000000;stroke-width:0.5;" x="104.16" xlink:href="#m5a7d422ac3" y="110.484"/>
      </g>
     </g>
     <g id="text_12">
      <!-- 5166 -->
      <g transform="translate(94.1973294968 217.63049838)scale(0.1 -0.1)">
       <use transform="scale(0.9962640099626402)" xlink:href="#CMR17-53"/>
       <use transform="translate(45.69047711706103 0.0)scale(0.9962640099626402)" xlink:href="#CMR17-49"/>
       <use transform="translate(91.38095423412206 0.0)scale(0.9962640099626402)" xlink:href="#CMR17-54"/>
       <use transform="translate(137.07143135118307 0.0)scale(0.9962640099626402)" xlink:href="#CMR17-54"/>
      </g>
     </g>
    </g>
    <g id="xtick_11">
     <g id="line2d_37">
      <g>
       <use style="stroke:#000000;stroke-width:0.5;" x="134.82" xlink:href="#mc7db9fdffb" y="206.712"/>
      </g>
     </g>
     <g id="line2d_38">
      <g>
       <use style="stroke:#000000;stroke-width:0.5;" x="134.82" xlink:href="#m5a7d422ac3" y="110.484"/>
      </g>
     </g>
     <g id="text_13">
      <!-- 5167 -->
      <g transform="translate(124.857329497 217.63049838)scale(0.1 -0.1)">
       <use transform="scale(0.9962640099626402)" xlink:href="#CMR17-53"/>
       <use transform="translate(45.69047711706103 0.0)scale(0.9962640099626402)" xlink:href="#CMR17-49"/>
       <use transform="translate(91.38095423412206 0.0)scale(0.9962640099626402)" xlink:href="#CMR17-54"/>
       <use transform="translate(137.07143135118307 0.0)scale(0.9962640099626402)" xlink:href="#CMR17-55"/>
      </g>
     </g>
    </g>
    <g id="xtick_12">
     <g id="line2d_39">
      <g>
       <use style="stroke:#000000;stroke-width:0.5;" x="165.48" xlink:href="#mc7db9fdffb" y="206.712"/>
      </g>
     </g>
     <g id="line2d_40">
      <g>
       <use style="stroke:#000000;stroke-width:0.5;" x="165.48" xlink:href="#m5a7d422ac3" y="110.484"/>
      </g>
     </g>
     <g id="text_14">
      <!-- 5168 -->
      <g transform="translate(155.517329497 217.63049838)scale(0.1 -0.1)">
       <use transform="scale(0.9962640099626402)" xlink:href="#CMR17-53"/>
       <use transform="translate(45.69047711706103 0.0)scale(0.9962640099626402)" xlink:href="#CMR17-49"/>
       <use transform="translate(91.38095423412206 0.0)scale(0.9962640099626402)" xlink:href="#CMR17-54"/>
       <use transform="translate(137.07143135118307 0.0)scale(0.9962640099626402)" xlink:href="#CMR17-56"/>
      </g>
     </g>
    </g>
    <g id="xtick_13">
     <g id="line2d_41">
      <g>
       <use style="stroke:#000000;stroke-width:0.5;" x="196.14" xlink:href="#mc7db9fdffb" y="206.712"/>
      </g>
     </g>
     <g id="line2d_42">
      <g>
       <use style="stroke:#000000;stroke-width:0.5;" x="196.14" xlink:href="#m5a7d422ac3" y="110.484"/>
      </g>
     </g>
     <g id="text_15">
      <!-- 5169 -->
      <defs>
       <path d="
M35.2031 29.125
C35.2031 7.25 26.0938 0.484375 18.5938 0.484375
C16.2969 0.484375 10.7031 0.484375 8.40625 4.59375
C11 4.1875 12.9062 5.57812 12.9062 8.09375
C12.9062 10.8125 10.7031 11.7031 9.29688 11.7031
C8.40625 11.7031 5.70312 11.2969 5.70312 7.90625
C5.70312 1.10938 11.5938 -2 18.7969 -2
C30.2969 -2 42 10.5312 42 32.3906
C42 59.6406 30.7969 65.2969 23.2031 65.2969
C13.2969 65.2969 3.79688 56.6875 3.79688 43.4062
C3.79688 31.1094 11.9062 22 22.0938 22
C30.5 22 34.2031 29.7344 35.2031 33
z

M22.2969 23.5938
C19.5938 23.5938 15.7969 24.0938 12.7031 30.0312
C10.5938 33.8906 10.5938 38.4531 10.5938 43.2969
C10.5938 49.1562 10.5938 53.2031 13.4062 57.5625
C14.7969 59.6406 17.4062 63 23.2031 63
C35 63 35 45.0781 35 41.125
C35 34.0938 31.7969 23.5938 22.2969 23.5938" id="CMR17-57"/>
      </defs>
      <g transform="translate(186.177329497 217.63049838)scale(0.1 -0.1)">
       <use transform="scale(0.9962640099626402)" xlink:href="#CMR17-53"/>
       <use transform="translate(45.69047711706103 0.0)scale(0.9962640099626402)" xlink:href="#CMR17-49"/>
       <use transform="translate(91.38095423412206 0.0)scale(0.9962640099626402)" xlink:href="#CMR17-54"/>
       <use transform="translate(137.07143135118307 0.0)scale(0.9962640099626402)" xlink:href="#CMR17-57"/>
      </g>
     </g>
    </g>
    <g id="xtick_14">
     <g id="line2d_43">
      <g>
       <use style="stroke:#000000;stroke-width:0.5;" x="226.8" xlink:href="#mc7db9fdffb" y="206.712"/>
      </g>
     </g>
     <g id="line2d_44">
      <g>
       <use style="stroke:#000000;stroke-width:0.5;" x="226.8" xlink:href="#m5a7d422ac3" y="110.484"/>
      </g>
     </g>
     <g id="text_16">
      <!-- 5170 -->
      <g transform="translate(216.837329497 217.63049838)scale(0.1 -0.1)">
       <use transform="scale(0.9962640099626402)" xlink:href="#CMR17-53"/>
       <use transform="translate(45.69047711706103 0.0)scale(0.9962640099626402)" xlink:href="#CMR17-49"/>
       <use transform="translate(91.38095423412206 0.0)scale(0.9962640099626402)" xlink:href="#CMR17-55"/>
       <use transform="translate(137.07143135118307 0.0)scale(0.9962640099626402)" xlink:href="#CMR17-48"/>
      </g>
     </g>
    </g>
    <g id="text_17">
     <!-- $\lambda$  [\AA] -->
     <defs>
      <path d="
M14.2969 74.4844
L1.40625 74.4844
L1.40625 71
L10.7969 71
L10.7969 -21.5156
L1.40625 -21.5156
L1.40625 -25
L14.2969 -25
z
" id="CMR17-93"/>
      <path d="
M30.9062 61.9531
C28.4062 69 20.5 69 19.2031 69
C18.5938 69 17.5 69 17.5 68
C17.5 67.2188 18.0938 67.1094 18.5938 67.0156
C20.0938 66.8125 21.2969 66.6094 22.9062 63.75
C23.9062 61.8594 34.2031 32.1719 34.2031 31.9688
C34.2031 31.875 34.0938 31.7656 33.2969 30.9688
L7.29688 4.85938
C6.09375 3.65625 5.29688 2.85938 5.29688 1.59375
C5.29688 0.1875 6.5 -1 8.09375 -1
C8.5 -1 9.59375 -0.796875 10.2031 -0.203125
C11.7969 1.28125 26.0938 18.6562 35.2031 29.3906
C37.7969 21.6094 41 12.4531 44.0938 4.07812
C44.5938 2.59375 45.0938 1.1875 46.5 -0.09375
C47.5 -1 47.7031 -1 50.5 -1
L52.4062 -1
C52.7969 -1 53.5 -1 53.5 -0.171875
C53.5 0.265625 53.4062 0.359375 53 0.78125
C52.0938 1.875 51.4062 3.65625 51 4.84375
z
" id="CMMI12-21"/>
      <path d="
M43.2969 61.8125
C43.2969 66.7969 39.2969 70.5938 34.5938 70.5938
C29.9062 70.5938 25.9062 66.7969 25.9062 61.8125
C25.9062 56.7969 29.9062 53 34.5938 53
C39.2969 53 43.2969 56.7969 43.2969 61.8125
M34.5938 54.5938
C30.4062 54.5938 27.7031 57.1875 27.7031 61.8125
C27.7031 66.5 30.5 69 34.5938 69
C38.7969 69 41.5 66.4062 41.5 61.8125
C41.5 57.0938 38.7031 54.5938 34.5938 54.5938" id="CMR17-23"/>
      <path d="
M23.5 -25
L23.5 -21.5156
L14.0938 -21.5156
L14.0938 71
L23.5 71
L23.5 74.4844
L10.5938 74.4844
L10.5938 -25
z
" id="CMR17-91"/>
      <path d="
M36.2969 68.4062
C35.7969 69.7031 35.5938 70 34.5938 70
C33.5938 70 33.4062 69.7031 32.9062 68.4062
L11.7031 8.84375
C9.79688 3.48438 5.79688 2.39062 2.29688 2.39062
L2.29688 -0.203125
C4.09375 0 8.09375 0 10 0
C12.5 0 16.5 0 18.9062 -0.203125
L18.9062 2.39062
C14.2031 2.39062 13.5 5.64062 13.5 6.85938
C13.5 7.76562 13.7031 8.28125 13.9062 8.89062
L19.2031 24
L45.4062 24
L51.4062 6.90625
C51.9062 5.70312 51.9062 5.5 51.9062 5.10938
C51.9062 2.39062 47.5938 2.39062 45.7031 2.39062
L45.7031 0
C48.5938 0 53.7969 0 56.9062 0
C59.5 0 64.5 0 66.9062 -0.203125
L66.9062 2.39062
C61.5938 2.39062 59.7969 2.39062 58.5 6.04688
z

M32.2969 60.5312
L44.5 26.5938
L20.0938 26.5938
z
" id="CMR17-65"/>
     </defs>
     <g transform="translate(123.750373708 233.247620816)scale(0.1 -0.1)">
      <use transform="scale(0.9962640099626402)" xlink:href="#CMMI12-21"/>
      <use transform="translate(86.98003823552305 0.0)scale(0.9962640099626402)" xlink:href="#CMR17-91"/>
      <use transform="translate(111.85109671738793 17.61874416251557)scale(0.9962640099626402)" xlink:href="#CMR17-23"/>
      <use transform="translate(111.85109671738793 0.0)scale(0.9962640099626402)" xlink:href="#CMR17-65"/>
      <use transform="translate(180.92352652163763 0.0)scale(0.9962640099626402)" xlink:href="#CMR17-93"/>
     </g>
    </g>
   </g>
   <g id="matplotlib.axis_4">
    <g id="ytick_8">
     <g id="line2d_45">
      <g>
       <use style="stroke:#000000;stroke-width:0.5;" x="42.84" xlink:href="#md7965d1ba0" y="200.17223301"/>
      </g>
     </g>
     <g id="line2d_46">
      <g>
       <use style="stroke:#000000;stroke-width:0.5;" x="226.8" xlink:href="#md9a1c1a7cd" y="200.17223301"/>
      </g>
     </g>
     <g id="text_18">
      <!-- $0.2$ -->
      <g transform="translate(26.1099210237 202.662893035)scale(0.1 -0.1)">
       <use transform="scale(0.9962640099626402)" xlink:href="#CMR17-48"/>
       <use transform="translate(45.69047711706103 0.0)scale(0.9962640099626402)" xlink:href="#CMMI12-58"/>
       <use transform="translate(72.78765420688046 0.0)scale(0.9962640099626402)" xlink:href="#CMR17-50"/>
      </g>
     </g>
    </g>
    <g id="ytick_9">
     <g id="line2d_47">
      <g>
       <use style="stroke:#000000;stroke-width:0.5;" x="42.84" xlink:href="#md7965d1ba0" y="181.487184466"/>
      </g>
     </g>
     <g id="line2d_48">
      <g>
       <use style="stroke:#000000;stroke-width:0.5;" x="226.8" xlink:href="#md9a1c1a7cd" y="181.487184466"/>
      </g>
     </g>
     <g id="text_19">
      <!-- $0.4$ -->
      <g transform="translate(26.1099210237 183.977844491)scale(0.1 -0.1)">
       <use transform="scale(0.9962640099626402)" xlink:href="#CMR17-48"/>
       <use transform="translate(45.69047711706103 0.0)scale(0.9962640099626402)" xlink:href="#CMMI12-58"/>
       <use transform="translate(72.78765420688046 0.0)scale(0.9962640099626402)" xlink:href="#CMR17-52"/>
      </g>
     </g>
    </g>
    <g id="ytick_10">
     <g id="line2d_49">
      <g>
       <use style="stroke:#000000;stroke-width:0.5;" x="42.84" xlink:href="#md7965d1ba0" y="162.802135922"/>
      </g>
     </g>
     <g id="line2d_50">
      <g>
       <use style="stroke:#000000;stroke-width:0.5;" x="226.8" xlink:href="#md9a1c1a7cd" y="162.802135922"/>
      </g>
     </g>
     <g id="text_20">
      <!-- $0.6$ -->
      <g transform="translate(26.1099210237 165.292795947)scale(0.1 -0.1)">
       <use transform="scale(0.9962640099626402)" xlink:href="#CMR17-48"/>
       <use transform="translate(45.69047711706103 0.0)scale(0.9962640099626402)" xlink:href="#CMMI12-58"/>
       <use transform="translate(72.78765420688046 0.0)scale(0.9962640099626402)" xlink:href="#CMR17-54"/>
      </g>
     </g>
    </g>
    <g id="ytick_11">
     <g id="line2d_51">
      <g>
       <use style="stroke:#000000;stroke-width:0.5;" x="42.84" xlink:href="#md7965d1ba0" y="144.117087379"/>
      </g>
     </g>
     <g id="line2d_52">
      <g>
       <use style="stroke:#000000;stroke-width:0.5;" x="226.8" xlink:href="#md9a1c1a7cd" y="144.117087379"/>
      </g>
     </g>
     <g id="text_21">
      <!-- $0.8$ -->
      <g transform="translate(26.1099210237 146.607747404)scale(0.1 -0.1)">
       <use transform="scale(0.9962640099626402)" xlink:href="#CMR17-48"/>
       <use transform="translate(45.69047711706103 0.0)scale(0.9962640099626402)" xlink:href="#CMMI12-58"/>
       <use transform="translate(72.78765420688046 0.0)scale(0.9962640099626402)" xlink:href="#CMR17-56"/>
      </g>
     </g>
    </g>
    <g id="ytick_12">
     <g id="line2d_53">
      <g>
       <use style="stroke:#000000;stroke-width:0.5;" x="42.84" xlink:href="#md7965d1ba0" y="125.432038835"/>
      </g>
     </g>
     <g id="line2d_54">
      <g>
       <use style="stroke:#000000;stroke-width:0.5;" x="226.8" xlink:href="#md9a1c1a7cd" y="125.432038835"/>
      </g>
     </g>
     <g id="text_22">
      <!-- $1.0$ -->
      <g transform="translate(26.1099210237 127.92269886)scale(0.1 -0.1)">
       <use transform="scale(0.9962640099626402)" xlink:href="#CMR17-49"/>
       <use transform="translate(45.69047711706103 0.0)scale(0.9962640099626402)" xlink:href="#CMMI12-58"/>
       <use transform="translate(72.78765420688046 0.0)scale(0.9962640099626402)" xlink:href="#CMR17-48"/>
      </g>
     </g>
    </g>
    <g id="text_23">
     <!-- $\times10^{7}$ -->
     <g transform="translate(42.84 107.484)scale(0.1 -0.1)">
      <use transform="scale(0.9962640099626402)" xlink:href="#CMSY10-2"/>
      <use transform="translate(77.4874676506071 0.0)scale(0.9962640099626402)" xlink:href="#CMR17-49"/>
      <use transform="translate(123.17794476766814 0.0)scale(0.9962640099626402)" xlink:href="#CMR17-48"/>
      <use transform="translate(168.86842188472914 36.15363894185866)scale(0.6973817666173724)" xlink:href="#CMR17-55"/>
     </g>
    </g>
   </g>
   <g id="patch_8">
    <path d="
M226.8 206.712
L226.8 110.484" style="fill:none;stroke:#000000;"/>
   </g>
   <g id="patch_9">
    <path d="
M42.84 110.484
L226.8 110.484" style="fill:none;stroke:#000000;"/>
   </g>
   <g id="patch_10">
    <path d="
M42.84 206.712
L226.8 206.712" style="fill:none;stroke:#000000;"/>
   </g>
   <g id="patch_11">
    <path d="
M42.84 206.712
L42.84 110.484" style="fill:none;stroke:#000000;"/>
   </g>
   <g id="text_24">
    <!-- convolved and resampled -->
    <defs>
     <path d="
M67.5938 30.2031
C67.5938 35.1875 66.7031 43.5938 54.7969 43.5938
C48 43.5938 43.2969 39 41.5 33.5938
L41.4062 33.5938
C40.2031 41.7969 34.2969 43.5938 28.7031 43.5938
C20.7969 43.5938 16.7031 37.5625 15.2031 33.5938
L15.0938 33.5938
L15.0938 43.5938
L3.29688 42.5
L3.29688 39.9062
C9.20312 39.9062 10.0938 39.2969 10.0938 34.5
L10.0938 6.6875
C10.0938 2.875 9.70312 2.39062 3.29688 2.39062
L3.29688 -0.203125
C5.70312 0 10.0938 0 12.7031 0
C15.2969 0 19.7969 0 22.2031 -0.203125
L22.2031 2.39062
C15.7969 2.39062 15.4062 2.78125 15.4062 6.6875
L15.4062 25.9062
C15.4062 35.1094 21 42 28 42
C35.4062 42 36.2031 35.4062 36.2031 30.5938
L36.2031 6.6875
C36.2031 2.875 35.7969 2.39062 29.4062 2.39062
L29.4062 -0.203125
C31.7969 0 36.2031 0 38.7969 0
C41.4062 0 45.9062 0 48.2969 -0.203125
L48.2969 2.39062
C41.9062 2.39062 41.5 2.78125 41.5 6.6875
L41.5 25.9062
C41.5 35.1094 47.0938 42 54.0938 42
C61.5 42 62.2969 35.4062 62.2969 30.5938
L62.2969 6.6875
C62.2969 2.875 61.9062 2.39062 55.5 2.39062
L55.5 -0.203125
C57.9062 0 62.2969 0 64.9062 0
C67.5 0 72 0 74.4062 -0.203125
L74.4062 2.39062
C68 2.39062 67.5938 2.78125 67.5938 6.6875
z
" id="CMR17-109"/>
     <path d="
M22 -16.6094
C15.5938 -16.6094 15.2031 -16.2031 15.2031 -12.3281
L15.2031 6.28125
C18.0938 2.09375 22.2969 -0.59375 27.5938 -0.59375
C37.5938 -0.59375 47.7031 8.17188 47.7031 21.6875
C47.7031 34.2344 39 43.7812 28.7031 43.7812
C22.7031 43.7812 17.7969 40.5 15 36.5312
L15 43.7812
L3.09375 42.6875
L3.09375 40.1094
C9 40.1094 9.90625 39.5 9.90625 34.7344
L9.90625 -12.3281
C9.90625 -16.1094 9.5 -16.6094 3.09375 -16.6094
L3.09375 -19.1875
C5.5 -19 9.90625 -19 12.5 -19
C15.0938 -19 19.5938 -19 22 -19.1875
z

M15.2031 31.4375
C15.2031 32.8438 15.2031 34.9219 19.0938 38.6094
C19.5938 39.0156 23 42 28 42
C35.2969 42 41.2969 32.9375 41.2969 21.5938
C41.2969 10.25 34.9062 1 27 1
C23.4062 1 19.5 2.6875 16.5 7.375
C15.2031 9.5625 15.2031 10.1562 15.2031 11.75
z
" id="CMR17-112"/>
     <path d="
M39.0938 33.7969
C40 36 41.5938 40 47.4062 40
L47.4062 42.5938
C45.5 42.5938 43 42.5938 41.0938 42.5938
C39 42.5938 35.7031 42.5938 33.7031 42.6875
L33.7031 40.0938
C36.2031 39.8906 37.5938 38.7031 37.5938 36.1094
C37.5938 35.2031 37.5938 35 37 33.6094
L26 5.89062
L14.0938 35.7188
C13.5 37.0156 13.5 37.2031 13.5 37.6094
C13.5 40 16.7969 40 18.2969 40
L18.2969 42.6875
C15.9062 42.5938 11.5 42.5938 9 42.5938
C6.29688 42.5938 3.20312 42.5938 1 42.6875
L1 40
C4.79688 40 6.90625 40 8.09375 36.9062
L22.5938 0.6875
C23.2031 -0.796875 23.2969 -1 24.2031 -1
C25.0938 -1 25.2031 -0.796875 25.7969 0.6875
z
" id="CMR17-118"/>
     <path d="
M34.9062 35
C33 35 30.2031 35 30.2031 31.5156
C30.2031 28.7188 32.5 27.9219 33.7969 27.9219
C34.5 27.9219 37.4062 28.2344 37.4062 31.625
C37.4062 38.5469 30.5938 43.7969 22.9062 43.7969
C12.2969 43.7969 3.29688 34.0312 3.29688 21.2969
C3.29688 8.0625 12.7031 -1 22.9062 -1
C35.2969 -1 38.4062 10.5938 38.4062 11.6875
C38.4062 12.0938 38.2969 12.3906 37.5938 12.3906
C36.9062 12.3906 36.7969 12.2969 36.4062 10.9844
C33.7969 2.8125 28.0938 0.796875 23.7969 0.796875
C17.4062 0.796875 9.70312 6.67188 9.70312 21.3906
C9.70312 36.5312 17.0938 42 23 42
C26.9062 42 32.7031 40.2031 34.9062 35" id="CMR17-99"/>
     <path d="
M30.9062 42.1094
C30.9062 43.9062 30.7969 44 30.2031 44
C29.7969 44 29.7031 43.9062 28.5 42.4219
C28.2031 42.0156 27.2969 41.0156 27 40.625
C23.7969 44 19.2969 44 17.5938 44
C6.5 44 2.5 38.1719 2.5 32.375
C2.5 23.3438 12.7031 21.25 15.5938 20.6406
C21.9062 19.3438 24.0938 18.9375 26.2031 17.125
C27.5 15.9375 29.7031 13.7344 29.7031 10.125
C29.7031 5.90625 27.2969 0.5 18.0938 0.5
C9.40625 0.5 6.29688 7.0625 4.5 15.8281
C4.20312 17.2188 4.20312 17.3281 3.40625 17.3281
C2.59375 17.3281 2.5 17.2188 2.5 15.2344
L2.5 0.890625
C2.5 -0.890625 2.59375 -1 3.20312 -1
C3.70312 -1 3.79688 -0.890625 4.29688 -0.09375
C4.90625 0.796875 6.40625 3.1875 7 4.1875
C9 1.54688 12.5 -1 18.0938 -1
C28 -1 33.2969 4.40625 33.2969 12.2344
C33.2969 17.3438 30.5938 20.0625 29.2969 21.25
C26.2969 24.375 22.7969 25.0625 18.5938 25.8594
C13.0938 27.0781 6.09375 28.4688 6.09375 34.5938
C6.09375 37.1875 7.5 42.7188 17.5938 42.7188
C28.2969 42.7188 28.9062 32.75 29.0938 29.5625
C29.2031 29.0781 29.7031 28.9688 30 28.9688
C30.9062 28.9688 30.9062 29.2812 30.9062 30.9688
z
" id="CMR17-115"/>
     <path d="
M41.5 30.2031
C41.5 35.2969 40.5 43.5938 28.7031 43.5938
C20.7969 43.5938 16.7031 37.5 15.2031 33.5
L15.0938 33.5
L15.0938 43.5938
L3.29688 42.5
L3.29688 39.9062
C9.20312 39.9062 10.0938 39.2969 10.0938 34.5
L10.0938 6.6875
C10.0938 2.875 9.70312 2.39062 3.29688 2.39062
L3.29688 -0.203125
C5.70312 0 10.0938 0 12.7031 0
C15.2969 0 19.7969 0 22.2031 -0.203125
L22.2031 2.39062
C15.7969 2.39062 15.4062 2.78125 15.4062 6.6875
L15.4062 25.9062
C15.4062 35.1094 21 42 28 42
C35.4062 42 36.2031 35.4062 36.2031 30.5938
L36.2031 6.6875
C36.2031 2.875 35.7969 2.39062 29.4062 2.39062
L29.4062 -0.203125
C31.7969 0 36.2031 0 38.7969 0
C41.4062 0 45.9062 0 48.2969 -0.203125
L48.2969 2.39062
C41.9062 2.39062 41.5 2.78125 41.5 6.6875
z
" id="CMR17-110"/>
     <path d="
M29.2031 67.5938
L29.2031 65
C35.0938 65 36 64.4062 36 59.6875
L36 36.6406
C35.5938 37.1406 31.5 43.5938 23.4062 43.5938
C13.2031 43.5938 3.29688 34.5 3.29688 21.3125
C3.29688 8.20312 12.5938 -1 22.4062 -1
C30.9062 -1 35.2969 5.26562 35.7969 5.9375
L35.7969 -0.984375
L47.9062 -0.984375
L47.9062 2
C42 2 41.0938 2.59375 41.0938 7.39062
L41.0938 68.6875
z

M35.7969 11.7969
C35.7969 8.79688 34 6.09375 31.7031 4.09375
C28.2969 1.09375 24.9062 0.59375 23 0.59375
C20.0938 0.59375 9.70312 2.09375 9.70312 21.1875
C9.70312 40.8125 21.2969 42 23.9062 42
C28.5 42 32.2031 39.4062 34.5 35.7969
C35.7969 33.7031 35.7969 33.4062 35.7969 31.6094
z
" id="CMR17-100"/>
     <path d="
M38.0938 23
C38.5 23.4062 38.5 23.6094 38.5 24.625
C38.5 34.9688 33.0938 44 21.7031 44
C11.0938 44 2.70312 33.8906 2.70312 21.6094
C2.70312 8.60938 12.2031 -1 22.7969 -1
C34 -1 38.4062 9.46875 38.4062 11.5469
C38.4062 12.25 37.7969 12.25 37.5938 12.25
C36.9062 12.25 36.7969 12.0469 36.4062 10.875
C34.2031 4.14062 28.7031 0.796875 23.5 0.796875
C19.2031 0.796875 14.9062 3.17188 12.2031 7.5
C9.09375 12.5469 9.09375 18.375 9.09375 23
z

M9.20312 24.5
C9.90625 39.1406 17.5938 42.4062 21.5938 42.4062
C28.4062 42.4062 33 35.8906 33.0938 24.5
z
" id="CMR17-101"/>
     <path d="
M43.0938 21.1875
C43.0938 34 33.7969 44 22.9062 44
C12 44 2.70312 34 2.70312 21.1875
C2.70312 8.60938 12 -1 22.9062 -1
C33.7969 -1 43.0938 8.60938 43.0938 21.1875
M22.9062 0.796875
C18.2031 0.796875 14.2031 3.59375 11.9062 7.5
C9.40625 11.9844 9.09375 17.5938 9.09375 22
C9.09375 26.2031 9.29688 31.4062 11.9062 35.9062
C13.9062 39.2031 17.7969 42.4062 22.9062 42.4062
C27.4062 42.4062 31.2031 39.9062 33.5938 36.4062
C36.7031 31.7031 36.7031 25.1094 36.7031 22
C36.7031 18.0938 36.5 12.1094 33.7969 7.29688
C31 2.70312 26.7031 0.796875 22.9062 0.796875" id="CMR17-111"/>
     <path d="
M15.2969 68.6875
L3.40625 67.5938
L3.40625 65
C9.29688 65 10.2031 64.4062 10.2031 59.6406
L10.2031 6.65625
C10.2031 2.875 9.79688 2.39062 3.40625 2.39062
L3.40625 -0.203125
C5.79688 0 10.2031 0 12.7031 0
C15.2969 0 19.7031 0 22.0938 -0.203125
L22.0938 2.39062
C15.7031 2.39062 15.2969 2.78125 15.2969 6.65625
z
" id="CMR17-108"/>
    </defs>
    <g transform="translate(48.972 122.629281553)scale(0.1 -0.1)">
     <use transform="scale(0.9962640099626402)" xlink:href="#CMR17-99"/>
     <use transform="translate(40.48566046271794 0.0)scale(0.9962640099626402)" xlink:href="#CMR17-111"/>
     <use transform="translate(86.17613757977897 0.0)scale(0.9962640099626402)" xlink:href="#CMR17-110"/>
     <use transform="translate(134.46905342757628 0.0)scale(0.9962640099626402)" xlink:href="#CMR17-118"/>
     <use transform="translate(180.15951534285495 0.0)scale(0.9962640099626402)" xlink:href="#CMR17-111"/>
     <use transform="translate(225.84999245991597 0.0)scale(0.9962640099626402)" xlink:href="#CMR17-108"/>
     <use transform="translate(250.72105094178085 0.0)scale(0.9962640099626402)" xlink:href="#CMR17-118"/>
     <use transform="translate(296.4115128570595 0.0)scale(0.9962640099626402)" xlink:href="#CMR17-101"/>
     <use transform="translate(336.89717331977744 0.0)scale(0.9962640099626402)" xlink:href="#CMR17-100"/>
     <use transform="translate(417.8685094469957 0.0)scale(0.9962640099626402)" xlink:href="#CMR17-97"/>
     <use transform="translate(463.5589865640567 0.0)scale(0.9962640099626402)" xlink:href="#CMR17-110"/>
     <use transform="translate(514.4543563443727 0.0)scale(0.9962640099626402)" xlink:href="#CMR17-100"/>
     <use transform="translate(595.425692471591 0.0)scale(0.9962640099626402)" xlink:href="#CMR17-114"/>
     <use transform="translate(630.706460271054 0.0)scale(0.9962640099626402)" xlink:href="#CMR17-101"/>
     <use transform="translate(671.1921207337718 0.0)scale(0.9962640099626402)" xlink:href="#CMR17-115"/>
     <use transform="translate(706.9934583690069 0.0)scale(0.9962640099626402)" xlink:href="#CMR17-97"/>
     <use transform="translate(752.683935486068 0.0)scale(0.9962640099626402)" xlink:href="#CMR17-109"/>
     <use transform="translate(829.6035253541409 0.0)scale(0.9962640099626402)" xlink:href="#CMR17-112"/>
     <use transform="translate(880.4988951344568 0.0)scale(0.9962640099626402)" xlink:href="#CMR17-108"/>
     <use transform="translate(905.3699536163217 0.0)scale(0.9962640099626402)" xlink:href="#CMR17-101"/>
     <use transform="translate(945.8556140790396 0.0)scale(0.9962640099626402)" xlink:href="#CMR17-100"/>
    </g>
   </g>
  </g>
  <g id="text_25">
   <!-- $f_\lambda \quad [\textrm{erg}\;\textrm{cm}^{-2}\;\textrm{s}^{-1}\;\textrm{\AA}^{-1}]$ -->
   <defs>
    <path d="
M44.5938 40.0938
C46.5938 40.0938 47.4062 40.0938 47.4062 42
C47.4062 43 46.5938 43 44.7969 43
L36.7031 43
C38.5938 53.5781 40 60.8906 40.7969 64.1719
C41.4062 66.6406 43.5 69 46.0938 69
C48.2031 69 50.2969 68.0938 51.2969 67.1562
C47.4062 66.75 46.2031 63.7812 46.2031 62.0156
C46.2031 59.9531 47.7031 58.7344 49.5938 58.7344
C51.5938 58.7344 54.5938 60.4688 54.5938 64.3594
C54.5938 68.6406 50.4062 71 46 71
C41.7031 71 37.5 67.7188 35.5 63.7188
C33.7031 60.125 32.7031 56.4375 30.4062 43
L23.7031 43
C21.7969 43 20.7969 43 20.7969 41.2031
C20.7969 40.0938 21.4062 40.0938 23.4062 40.0938
L29.7969 40.0938
C28 30.875 23.9062 8.46875 21.5938 -2.14062
C19.9062 -10.7656 18.4062 -18 13.4062 -18
C13.0938 -18 10.2031 -18 8.40625 -16.1094
C13.5 -15.7031 13.5 -11.3438 13.5 -11.25
C13.5 -9.26562 12 -8.07812 10.0938 -8.07812
C8.09375 -8.07812 5.09375 -9.76562 5.09375 -13.5469
C5.09375 -17.8125 9.5 -20 13.4062 -20
C23.5938 -20 27.7969 -1.84375 28.9062 3.10938
C30.7031 10.75 35.5938 37.125 36.0938 40.0938
z
" id="CMMI12-102"/>
    <path d="
M65.9062 23
C67.5938 23 69.4062 23 69.4062 25
C69.4062 27 67.5938 27 65.9062 27
L11.7969 27
C10.0938 27 8.29688 27 8.29688 25
C8.29688 23 10.0938 23 11.7969 23
z
" id="CMSY10-0"/>
    <path d="
M11.0938 18.1875
C13 16.6875 16.2969 15 20.2969 15
C28.2031 15 35 21.2031 35 29.5
C35 32.0938 34.2031 36.0938 31.2031 39.2031
C34 42.0625 38.0938 43 40.4062 43
C40.7969 43 41.4062 43 41.9062 42.7656
C41.5 42.6719 40.5938 42.2812 40.5938 40.7344
C40.5938 39.4844 41.5 38.6094 42.7969 38.6094
C44.2969 38.6094 45.0938 39.5781 45.0938 40.8438
C45.0938 42.6719 43.5938 44.5938 40.4062 44.5938
C36.4062 44.5938 32.9062 42.7812 30.0938 40.3125
C27.0938 43.0156 23.5 44 20.2969 44
C12.4062 44 5.59375 37.7969 5.59375 29.5
C5.59375 23.7812 8.90625 20.1875 9.90625 19.1875
C6.90625 15.6875 6.90625 11.6094 6.90625 11.1094
C6.90625 8.51562 7.90625 4.71875 11.2969 2.625
C6.09375 1.32812 2 -2.64062 2 -7.59375
C2 -14.7344 11.5 -20 22.9062 -20
C33.9062 -20 43.7969 -14.9375 43.7969 -7.48438
C43.7969 6 29 6 21.2969 6
C19 6 14.9062 6 14.4062 6.10938
C11.2969 6.60938 9.20312 9.40625 9.20312 12.8906
C9.20312 13.7812 9.20312 16 11.0938 18.1875
M20.2969 16.6875
C11.5 16.6875 11.5 27.5 11.5 29.5156
C11.5 31.5 11.5 42.3125 20.2969 42.3125
C29.0938 42.3125 29.0938 31.5 29.0938 29.5156
C29.0938 27.5 29.0938 16.6875 20.2969 16.6875
M22.9062 -18.2969
C12.9062 -18.2969 6 -13.0469 6 -7.59375
C6 -4.51562 7.70312 -1.64062 9.90625 -0.0625
C12.4062 1.625 13.4062 1.625 20.2031 1.625
C28.4062 1.625 39.7969 1.625 39.7969 -7.59375
C39.7969 -13.0469 32.9062 -18.2969 22.9062 -18.2969" id="CMR17-103"/>
   </defs>
   <g transform="translate(18.8247183657 163.446886383)rotate(-90.0)scale(0.1 -0.1)">
    <use transform="translate(0.0 14.943914544092468)scale(0.9962640099626402)" xlink:href="#CMMI12-102"/>
    <use transform="translate(48.083237663449566 0.0)scale(0.6973817666173724)" xlink:href="#CMMI12-21"/>
    <use transform="translate(179.79508301389322 14.943914544092468)scale(0.9962640099626402)" xlink:href="#CMR17-91"/>
    <use transform="translate(204.66614149575813 14.943914544092468)scale(0.9962640099626402)" xlink:href="#CMR17-101"/>
    <use transform="translate(245.15180195847606 14.943914544092468)scale(0.9962640099626402)" xlink:href="#CMR17-114"/>
    <use transform="translate(280.432569757939 14.943914544092468)scale(0.9962640099626402)" xlink:href="#CMR17-103"/>
    <use transform="translate(353.7970555971747 14.943914544092468)scale(0.9962640099626402)" xlink:href="#CMR17-99"/>
    <use transform="translate(394.2827160598926 14.943914544092468)scale(0.9962640099626402)" xlink:href="#CMR17-109"/>
    <use transform="translate(471.2023059279655 51.097553485951124)scale(0.6973817666173724)" xlink:href="#CMSY10-0"/>
    <use transform="translate(525.4432991759419 51.097553485951124)scale(0.6973817666173724)" xlink:href="#CMR17-50"/>
    <use transform="translate(585.5986218672167 14.943914544092468)scale(0.9962640099626402)" xlink:href="#CMR17-115"/>
    <use transform="translate(621.3999595024518 51.097553485951124)scale(0.6973817666173724)" xlink:href="#CMSY10-0"/>
    <use transform="translate(675.6409527504281 51.097553485951124)scale(0.6973817666173724)" xlink:href="#CMR17-49"/>
    <use transform="translate(735.7962754417031 32.56265870660803)scale(0.9962640099626402)" xlink:href="#CMR17-23"/>
    <use transform="translate(735.7962754417031 14.943914544092468)scale(0.9962640099626402)" xlink:href="#CMR17-65"/>
    <use transform="translate(804.8687052459528 74.82118143388077)scale(0.6973817666173724)" xlink:href="#CMSY10-0"/>
    <use transform="translate(859.109698493929 74.82118143388077)scale(0.6973817666173724)" xlink:href="#CMR17-49"/>
    <use transform="translate(891.5910124630293 14.943914544092468)scale(0.9962640099626402)" xlink:href="#CMR17-93"/>
   </g>
  </g>
 </g>
 <defs>
  <clipPath id="pfc8f99d497">
   <rect height="96.228" width="183.96" x="42.84" y="14.256"/>
  </clipPath>
  <clipPath id="pdee628d44d">
   <rect height="96.228" width="183.96" x="42.84" y="110.484"/>
  </clipPath>
 </defs>
</svg>
