<?xml version="1.0" encoding="utf-8" standalone="no"?>
<!DOCTYPE svg PUBLIC "-//W3C//DTD SVG 1.1//EN"
  "http://www.w3.org/Graphics/SVG/1.1/DTD/svg11.dtd">
<!-- Created with matplotlib (http://matplotlib.org/) -->
<svg height="288pt" version="1.1" viewBox="0 0 252 288" width="252pt" xmlns="http://www.w3.org/2000/svg" xmlns:xlink="http://www.w3.org/1999/xlink">
 <defs>
  <style type="text/css">
*{stroke-linecap:butt;stroke-linejoin:round;}
  </style>
 </defs>
 <g id="figure_1">
  <g id="patch_1">
   <path d="
M0 288
L252 288
L252 0
L0 0
z
" style="fill:#ffffff;"/>
  </g>
  <g id="axes_1">
   <g id="patch_2">
    <path d="
M37.8 130.971
L214.2 130.971
L214.2 14.4
L37.8 14.4
z
" style="fill:#ffffff;"/>
   </g>
   <g id="line2d_1">
    <path clip-path="url(#p38817c7671)" d="
M37.8 27.6373
L39.282 27.0597
L40.764 26.6886
L42.2461 26.5479
L43.7281 26.5828
L45.2101 26.7057
L46.6922 26.8482
L48.1742 27.0109
L49.6563 27.2947
L51.1383 27.8827
L52.6204 28.9484
L54.1025 30.5086
L55.5845 32.3054
L57.0666 33.8376
L58.5487 34.5812
L60.0308 34.2818
L61.5129 33.1048
L62.995 31.5271
L64.4771 30.0695
L65.9592 29.0814
L67.4414 28.6956
L68.9235 28.892
L70.4056 29.5438
L71.8878 30.4099
L73.3699 31.1474
L74.8521 31.4175
L76.3342 31.0461
L77.8164 30.1154
L79.2985 28.9073
L80.7807 27.7419
L82.2629 26.8345
L83.7451 26.2507
L85.2273 25.9514
L86.7095 25.8671
L88.1917 25.9507
L89.6739 26.1958
L91.1561 26.6263
L92.6383 27.2688
L94.1206 28.1137
L95.6028 29.0781
L97.085 29.9944
L98.5673 30.6463
L100.05 30.8537
L101.532 30.5648
L103.014 29.8901
L104.496 29.0483
L105.979 28.257
L107.461 27.6463
L108.943 27.2428
L110.425 27.0123
L111.908 26.9106
L113.39 26.9086
L114.872 26.9915
L116.355 27.1501
L117.837 27.3788
L119.319 27.6829
L120.802 28.0907
L122.284 28.674
L123.766 29.5832
L125.249 31.1122
L126.731 33.7829
L128.213 38.3907
L129.696 45.8912
L131.178 57.0224
L132.66 71.7246
L134.143 88.6632
L135.625 105.245
L137.108 118.267
L138.59 124.935
L140.072 123.772
L141.555 115.082
L143.037 100.843
L144.52 84.055
L146.002 67.7706
L147.485 54.1783
L148.967 44.1798
L150.449 37.5667
L151.932 33.545
L153.414 31.2327
L154.897 29.9286
L156.379 29.1676
L157.862 28.6783
L159.344 28.3225
L160.827 28.047
L162.309 27.8461
L163.792 27.7289
L165.274 27.6942
L166.757 27.7167
L168.239 27.7494
L169.722 27.7413
L171.204 27.6593
L172.687 27.5046
L174.169 27.3152
L175.652 27.1577
L177.134 27.1116
L178.617 27.2525
L180.1 27.6305
L181.582 28.2468
L183.065 29.0424
L184.547 29.9151
L186.03 30.762
L187.512 31.5128
L188.995 32.1177
L190.478 32.5026
L191.96 32.5534
L193.443 32.1725
L194.925 31.3682
L196.408 30.2869
L197.891 29.152
L199.373 28.1589
L200.856 27.4075
L202.339 26.9032
L203.821 26.5992
L205.304 26.4367
L206.787 26.3654
L208.269 26.3493
L209.752 26.3695
L211.235 26.4225
L212.717 26.513
L214.2 26.643" style="fill:none;stroke:#000000;stroke-linecap:square;"/>
   </g>
   <g id="line2d_2">
    <path clip-path="url(#p38817c7671)" d="
M37.8 27.5768
L39.282 27.0017
L40.764 26.6418
L42.2461 26.52
L43.7281 26.5775
L45.2101 26.7202
L46.6922 26.873
L48.1742 27.0324
L49.6563 27.3006
L51.1383 27.8686
L52.6204 28.9216
L54.1025 30.4854
L55.5845 32.3023
L57.0666 33.8598
L58.5487 34.6181
L60.0308 34.314
L61.5129 33.1164
L62.995 31.5144
L64.4771 30.0394
L65.9592 29.0442
L67.4414 28.6599
L68.9235 28.8657
L70.4056 29.5353
L71.8878 30.4253
L73.3699 31.1843
L74.8521 31.4619
L76.3342 31.0776
L77.8164 30.1174
L79.2985 28.8744
L80.7807 27.6796
L82.2629 26.7539
L83.7451 26.162
L85.2273 25.8621
L86.7095 25.7821
L88.1917 25.8745
L89.6739 26.1336
L91.1561 26.5847
L92.6383 27.2551
L94.1206 28.1347
L95.6028 29.1377
L97.085 30.0903
L98.5673 30.7675
L100.05 30.9822
L101.532 30.6807
L103.014 29.9797
L104.496 29.108
L105.979 28.2919
L107.461 27.6637
L108.943 27.2482
L110.425 27.0083
L111.908 26.8994
L113.39 26.8938
L114.872 26.9777
L116.355 27.1418
L117.837 27.3791
L119.319 27.6936
L120.802 28.113
L122.284 28.7085
L123.766 29.628
L125.249 31.1582
L126.731 33.8075
L128.213 38.3558
L129.696 45.7532
L131.178 56.7576
L132.66 71.3552
L134.143 88.2612
L135.625 104.897
L137.108 118.02
L138.59 124.764
L140.072 123.599
L141.555 114.842
L143.037 100.532
L144.52 83.7352
L146.002 67.5201
L147.485 54.0438
L148.967 44.1583
L150.449 37.6225
L151.932 33.6383
L153.414 31.3368
L154.897 30.0305
L156.379 29.262
L157.862 28.761
L159.344 28.3899
L160.827 28.0976
L162.309 27.8822
L163.792 27.757
L165.274 27.7235
L166.757 27.756
L168.239 27.804
L169.722 27.8099
L171.204 27.7346
L172.687 27.5764
L174.169 27.3748
L175.652 27.2017
L177.134 27.1442
L178.617 27.2841
L180.1 27.6748
L181.582 28.3165
L183.065 29.1448
L184.547 30.05
L186.03 30.9232
L187.512 31.6932
L188.995 32.313
L190.478 32.7096
L191.96 32.7652
L193.443 32.3763
L194.925 31.5477
L196.408 30.4296
L197.891 29.2532
L199.373 28.2208
L200.856 27.4356
L202.339 26.9034
L203.821 26.577
L205.304 26.3972
L206.787 26.3132
L208.269 26.2886
L209.752 26.3038
L211.235 26.3551
L212.717 26.4472
L214.2 26.5827" style="fill:none;stroke:#0000ff;stroke-linecap:square;"/>
   </g>
   <g id="line2d_3">
    <path clip-path="url(#p38817c7671)" d="
M37.8 26.4439
L39.282 25.7951
L40.764 25.3769
L42.2461 25.2134
L43.7281 25.2421
L45.2101 25.3661
L46.6922 25.5127
L48.1742 25.6868
L49.6563 26.0031
L51.1383 26.6637
L52.6204 27.8572
L54.1025 29.597
L55.5845 31.5941
L57.0666 33.2926
L58.5487 34.1133
L60.0308 33.7748
L61.5129 32.4584
L62.995 30.6904
L64.4771 29.0472
L65.9592 27.9168
L67.4414 27.4461
L68.9235 27.6104
L70.4056 28.2697
L71.8878 29.1647
L73.3699 29.9317
L74.8521 30.2134
L76.3342 29.8264
L77.8164 28.857
L79.2985 27.6003
L80.7807 26.3905
L82.2629 25.4515
L83.7451 24.8503
L85.2273 24.5455
L86.7095 24.465
L88.1917 24.5616
L89.6739 24.8308
L91.1561 25.3002
L92.6383 25.9985
L94.1206 26.9135
L95.6028 27.9538
L97.085 28.9368
L98.5673 29.6299
L100.05 29.8428
L101.532 29.5245
L103.014 28.7983
L104.496 27.9013
L105.979 27.0663
L107.461 26.4303
L108.943 26.0192
L110.425 25.7947
L111.908 25.7094
L113.39 25.733
L114.872 25.8507
L116.355 26.054
L117.837 26.3386
L119.319 26.712
L120.802 27.2069
L122.284 27.9011
L123.766 28.9534
L125.249 30.6661
L126.731 33.5659
L128.213 38.4438
L129.696 46.2355
L131.178 57.6458
L132.66 72.5778
L134.143 89.6729
L135.625 106.338
L137.108 119.393
L138.59 126.069
L140.072 124.905
L141.555 116.204
L143.037 101.921
L144.52 85.0302
L146.002 68.5674
L147.485 54.7282
L148.967 44.4449
L150.449 37.5485
L151.932 33.2763
L153.414 30.7609
L154.897 29.2997
L156.379 28.4178
L157.862 27.8322
L159.344 27.3966
L160.827 27.0555
L162.309 26.8048
L163.792 26.6575
L165.274 26.6154
L166.757 26.6518
L168.239 26.7117
L169.722 26.7309
L171.204 26.6619
L172.687 26.4975
L174.169 26.2765
L175.652 26.0748
L177.134 25.9854
L178.617 26.0953
L180.1 26.4607
L181.582 27.083
L183.065 27.899
L184.547 28.8016
L186.03 29.6856
L187.512 30.4809
L188.995 31.1359
L190.478 31.5673
L191.96 31.6447
L193.443 31.2559
L194.925 30.4058
L196.408 29.2517
L197.891 28.0349
L199.373 26.9662
L200.856 26.1528
L202.339 25.6013
L203.821 25.2634
L205.304 25.0786
L206.787 24.9952
L208.269 24.9763
L209.752 25.0013
L211.235 25.0647
L212.717 25.1685
L214.2 25.3115" style="fill:none;stroke:#008000;stroke-linecap:square;"/>
   </g>
   <g id="line2d_4">
    <path clip-path="url(#p38817c7671)" d="
M37.8 26.5266
L39.282 25.5523
L40.764 24.9635
L42.2461 24.8085
L43.7281 24.9866
L45.2101 25.3211
L46.6922 25.6536
L48.1742 25.9396
L49.6563 26.3106
L51.1383 27.0487
L52.6204 28.4402
L54.1025 30.5446
L55.5845 33.0158
L57.0666 35.1491
L58.5487 36.2005
L60.0308 35.8042
L61.5129 34.1852
L62.995 32.008
L64.4771 30.0044
L65.9592 28.6743
L67.4414 28.2215
L68.9235 28.6352
L70.4056 29.738
L71.8878 31.159
L73.3699 32.3527
L74.8521 32.7736
L76.3342 32.1392
L77.8164 30.5809
L79.2985 28.5561
L80.7807 26.591
L82.2629 25.0475
L83.7451 24.0458
L85.2273 23.5331
L86.7095 23.4017
L88.1917 23.5748
L89.6739 24.0349
L91.1561 24.8056
L92.6383 25.9083
L94.1206 27.3072
L95.6028 28.8596
L97.085 30.304
L98.5673 31.3155
L100.05 31.6303
L101.532 31.1794
L103.014 30.1362
L104.496 28.8318
L105.979 27.5902
L107.461 26.6004
L108.943 25.8995
L110.425 25.4421
L111.908 25.1765
L113.39 25.0751
L114.872 25.1233
L116.355 25.3028
L117.837 25.5921
L119.319 25.9826
L120.802 26.5003
L122.284 27.2278
L123.766 28.335
L125.249 30.1303
L126.731 33.1291
L128.213 38.0841
L129.696 45.8729
L131.178 57.1505
L132.66 71.82
L134.143 88.5881
L135.625 104.961
L137.108 117.834
L138.59 124.466
L140.072 123.403
L141.555 114.957
L143.037 101.084
L144.52 84.6956
L146.002 68.6935
L147.485 55.143
L148.967 44.9253
L150.449 37.9232
L151.932 33.4799
L153.414 30.8186
L154.897 29.2732
L156.379 28.3564
L157.862 27.7529
L159.344 27.2921
L160.827 26.9117
L162.309 26.6138
L163.792 26.4177
L165.274 26.3209
L166.757 26.2829
L168.239 26.2354
L169.722 26.1141
L171.204 25.8915
L172.687 25.5937
L174.169 25.2959
L175.652 25.1063
L177.134 25.145
L178.617 25.5208
L180.1 26.2985
L181.582 27.4618
L183.065 28.8954
L184.547 30.4153
L186.03 31.8413
L187.512 33.0564
L188.995 33.991
L190.478 34.5508
L191.96 34.5813
L193.443 33.9449
L194.925 32.6523
L196.408 30.9205
L197.891 29.088
L199.373 27.4603
L200.856 26.2025
L202.339 25.3348
L203.821 24.7917
L205.304 24.4834
L206.787 24.3289
L208.269 24.2685
L209.752 24.2699
L211.235 24.3297
L212.717 24.4636
L214.2 24.6881" style="fill:none;stroke:#ff0000;stroke-linecap:square;"/>
   </g>
   <g id="matplotlib.axis_1">
    <g id="xtick_1">
     <g id="line2d_5">
      <defs>
       <path d="
M0 0
L0 -4" id="mc7db9fdffb" style="stroke:#000000;stroke-width:0.5;"/>
      </defs>
      <g>
       <use style="stroke:#000000;stroke-width:0.5;" x="45.0098349651" xlink:href="#mc7db9fdffb" y="130.971428571"/>
      </g>
     </g>
     <g id="line2d_6">
      <defs>
       <path d="
M0 0
L0 4" id="m5a7d422ac3" style="stroke:#000000;stroke-width:0.5;"/>
      </defs>
      <g>
       <use style="stroke:#000000;stroke-width:0.5;" x="45.0098349651" xlink:href="#m5a7d422ac3" y="14.4"/>
      </g>
     </g>
    </g>
    <g id="xtick_2">
     <g id="line2d_7">
      <g>
       <use style="stroke:#000000;stroke-width:0.5;" x="81.9768924552" xlink:href="#mc7db9fdffb" y="130.971428571"/>
      </g>
     </g>
     <g id="line2d_8">
      <g>
       <use style="stroke:#000000;stroke-width:0.5;" x="81.9768924552" xlink:href="#m5a7d422ac3" y="14.4"/>
      </g>
     </g>
    </g>
    <g id="xtick_3">
     <g id="line2d_9">
      <g>
       <use style="stroke:#000000;stroke-width:0.5;" x="118.943949945" xlink:href="#mc7db9fdffb" y="130.971428571"/>
      </g>
     </g>
     <g id="line2d_10">
      <g>
       <use style="stroke:#000000;stroke-width:0.5;" x="118.943949945" xlink:href="#m5a7d422ac3" y="14.4"/>
      </g>
     </g>
    </g>
    <g id="xtick_4">
     <g id="line2d_11">
      <g>
       <use style="stroke:#000000;stroke-width:0.5;" x="155.911007435" xlink:href="#mc7db9fdffb" y="130.971428571"/>
      </g>
     </g>
     <g id="line2d_12">
      <g>
       <use style="stroke:#000000;stroke-width:0.5;" x="155.911007435" xlink:href="#m5a7d422ac3" y="14.4"/>
      </g>
     </g>
    </g>
    <g id="xtick_5">
     <g id="line2d_13">
      <g>
       <use style="stroke:#000000;stroke-width:0.5;" x="192.878064926" xlink:href="#mc7db9fdffb" y="130.971428571"/>
      </g>
     </g>
     <g id="line2d_14">
      <g>
       <use style="stroke:#000000;stroke-width:0.5;" x="192.878064926" xlink:href="#m5a7d422ac3" y="14.4"/>
      </g>
     </g>
    </g>
   </g>
   <g id="matplotlib.axis_2">
    <g id="ytick_1">
     <g id="line2d_15">
      <defs>
       <path d="
M0 0
L4 0" id="md7965d1ba0" style="stroke:#000000;stroke-width:0.5;"/>
      </defs>
      <g>
       <use style="stroke:#000000;stroke-width:0.5;" x="37.8" xlink:href="#md7965d1ba0" y="130.971428571"/>
      </g>
     </g>
     <g id="line2d_16">
      <defs>
       <path d="
M0 0
L-4 0" id="md9a1c1a7cd" style="stroke:#000000;stroke-width:0.5;"/>
      </defs>
      <g>
       <use style="stroke:#000000;stroke-width:0.5;" x="214.2" xlink:href="#md9a1c1a7cd" y="130.971428571"/>
      </g>
     </g>
     <g id="text_1">
      <!-- $0.4$ -->
      <defs>
       <path d="
M42 31.6406
C42 37.75 41.9062 48.125 37.7031 56.1094
C34 63.1094 28.0938 65.5938 22.9062 65.5938
C18.0938 65.5938 12 63.4062 8.20312 56.2031
C4.20312 48.7188 3.79688 39.4375 3.79688 31.6406
C3.79688 25.9531 3.90625 17.2812 7 9.67188
C11.2969 -0.609375 19 -2 22.9062 -2
C27.5 -2 34.5 -0.109375 38.5938 9.375
C41.5938 16.2812 42 24.3594 42 31.6406
M22.9062 -0.40625
C16.5 -0.40625 12.7031 5.07812 11.2969 12.6875
C10.2031 18.5625 10.2031 27.1562 10.2031 32.75
C10.2031 40.4375 10.2031 46.8281 11.5 52.9219
C13.4062 61.3906 19 64 22.9062 64
C27 64 32.2969 61.2969 34.2031 53.125
C35.5 47.4375 35.5938 40.7344 35.5938 32.75
C35.5938 26.25 35.5938 18.2656 34.4062 12.375
C32.2969 1.48438 26.4062 -0.40625 22.9062 -0.40625" id="CMR17-48"/>
       <path d="
M33.5938 64.3281
C33.5938 66.4062 33.5 66.5 31.7031 66.5
L2 19.5938
L2 17
L27.7969 17
L27.7969 7.14062
C27.7969 3.5 27.5938 2.5 20.5938 2.5
L18.7031 2.5
L18.7031 0
C21.9062 0 27.2969 0 30.7031 0
C34.0938 0 39.5 0 42.7031 0
L42.7031 2.5
L40.7969 2.5
C33.7969 2.5 33.5938 3.5 33.5938 7.14062
L33.5938 17
L43.7969 17
L43.7969 19.5938
L33.5938 19.5938
z

M28.0938 57.7656
L28.0938 19.5938
L4 19.5938
z
" id="CMR17-52"/>
       <path d="
M18.4062 4.79688
C18.4062 7.6875 16 9.67188 13.5938 9.67188
C10.7031 9.67188 8.70312 7.28125 8.70312 4.89062
C8.70312 2 11.0938 0 13.5 0
C16.4062 0 18.4062 2.39062 18.4062 4.79688" id="CMMI12-58"/>
      </defs>
      <g transform="translate(21.0699210237 133.462088596)scale(0.1 -0.1)">
       <use transform="scale(0.9962640099626402)" xlink:href="#CMR17-48"/>
       <use transform="translate(45.69047711706103 0.0)scale(0.9962640099626402)" xlink:href="#CMMI12-58"/>
       <use transform="translate(72.78765420688046 0.0)scale(0.9962640099626402)" xlink:href="#CMR17-52"/>
      </g>
     </g>
    </g>
    <g id="ytick_2">
     <g id="line2d_17">
      <g>
       <use style="stroke:#000000;stroke-width:0.5;" x="37.8" xlink:href="#md7965d1ba0" y="111.542857143"/>
      </g>
     </g>
     <g id="line2d_18">
      <g>
       <use style="stroke:#000000;stroke-width:0.5;" x="214.2" xlink:href="#md9a1c1a7cd" y="111.542857143"/>
      </g>
     </g>
     <g id="text_2">
      <!-- $0.5$ -->
      <defs>
       <path d="
M11.4062 57.6875
C12.4062 57.2812 16.5 56 20.7031 56
C30 56 35.0938 61.0156 38 63.9219
C38 64.7344 38 65.25 37.4062 65.25
C37.2969 65.25 37.0938 65.25 36.2969 64.8281
C32.7969 63.3125 28.7031 62.0781 23.7031 62.0781
C20.7031 62.0781 16.2031 62.5 11.2969 64.7344
C10.2031 65.25 10 65.25 9.90625 65.25
C9.40625 65.25 9.29688 65.1406 9.29688 63.1562
L9.29688 34.2812
C9.29688 32.5 9.29688 32 10.2969 32
C10.7969 32 11 32.2031 11.5 32.9062
C14.7031 37.4844 19.0938 39.4062 24.0938 39.4062
C27.5938 39.4062 35.0938 37.2188 35.0938 20.1406
C35.0938 16.9531 35.0938 11.1719 32.0938 6.57812
C29.5938 2.48438 25.7031 0.390625 21.4062 0.390625
C14.7969 0.390625 8.09375 5 6.29688 12.7188
C6.70312 12.6094 7.5 12.4219 7.90625 12.4219
C9.20312 12.4219 11.7031 13.125 11.7031 16.2188
C11.7031 18.9062 9.79688 20 7.90625 20
C5.59375 20 4.09375 18.5938 4.09375 15.7969
C4.09375 7.09375 11 -2 21.5938 -2
C31.9062 -2 41.7031 6.875 41.7031 19.75
C41.7031 31.7188 33.9062 41 24.2031 41
C19.0938 41 14.7969 39.0938 11.4062 35.4531
z
" id="CMR17-53"/>
      </defs>
      <g transform="translate(21.0699210237 114.033517168)scale(0.1 -0.1)">
       <use transform="scale(0.9962640099626402)" xlink:href="#CMR17-48"/>
       <use transform="translate(45.69047711706103 0.0)scale(0.9962640099626402)" xlink:href="#CMMI12-58"/>
       <use transform="translate(72.78765420688046 0.0)scale(0.9962640099626402)" xlink:href="#CMR17-53"/>
      </g>
     </g>
    </g>
    <g id="ytick_3">
     <g id="line2d_19">
      <g>
       <use style="stroke:#000000;stroke-width:0.5;" x="37.8" xlink:href="#md7965d1ba0" y="92.1142857143"/>
      </g>
     </g>
     <g id="line2d_20">
      <g>
       <use style="stroke:#000000;stroke-width:0.5;" x="214.2" xlink:href="#md9a1c1a7cd" y="92.1142857143"/>
      </g>
     </g>
     <g id="text_3">
      <!-- $0.6$ -->
      <defs>
       <path d="
M10.5938 34
C10.5938 57.6562 21.7969 63 28.2969 63
C30.4062 63 35.5 62.6406 37.5 59
C35.9062 59 32.9062 59 32.9062 55.5156
C32.9062 52.8281 35.0938 51.9219 36.5 51.9219
C37.4062 51.9219 40.0938 52.3125 40.0938 55.625
C40.0938 61.7812 35.0938 65.2969 28.2031 65.2969
C16.2969 65.2969 3.79688 52.9688 3.79688 31
C3.79688 3.95312 15.0938 -2 23.0938 -2
C32.7969 -2 42 6.67188 42 20.0469
C42 32.5156 33.9062 41.5938 23.7031 41.5938
C17.5938 41.5938 13.0938 37.6094 10.5938 30.625
z

M23.0938 0.390625
C10.7969 0.390625 10.7969 18.75 10.7969 22.4375
C10.7969 29.625 14.2031 40 23.5 40
C25.2031 40 30.0938 40 33.4062 33.125
C35.2031 29.2188 35.2031 25.1406 35.2031 20.1406
C35.2031 14.75 35.2031 10.7812 33.0938 6.78125
C30.9062 2.67188 27.7031 0.390625 23.0938 0.390625" id="CMR17-54"/>
      </defs>
      <g transform="translate(21.0699210237 94.6049457392)scale(0.1 -0.1)">
       <use transform="scale(0.9962640099626402)" xlink:href="#CMR17-48"/>
       <use transform="translate(45.69047711706103 0.0)scale(0.9962640099626402)" xlink:href="#CMMI12-58"/>
       <use transform="translate(72.78765420688046 0.0)scale(0.9962640099626402)" xlink:href="#CMR17-54"/>
      </g>
     </g>
    </g>
    <g id="ytick_4">
     <g id="line2d_21">
      <g>
       <use style="stroke:#000000;stroke-width:0.5;" x="37.8" xlink:href="#md7965d1ba0" y="72.6857142857"/>
      </g>
     </g>
     <g id="line2d_22">
      <g>
       <use style="stroke:#000000;stroke-width:0.5;" x="214.2" xlink:href="#md9a1c1a7cd" y="72.6857142857"/>
      </g>
     </g>
     <g id="text_4">
      <!-- $0.7$ -->
      <defs>
       <path d="
M45.0938 61.5781
L45.0938 63.7656
L21.5938 63.7656
C9.90625 63.7656 9.70312 65.0781 9.29688 67
L7.5 67
L4.59375 48.3438
L6.40625 48.3438
C6.70312 50.2344 7.40625 55.3125 8.59375 57.2031
C9.20312 58 16.5938 58 18.2969 58
L40.2969 58
L29.2031 41.5781
C21.7969 30.5312 16.7031 15.6094 16.7031 2.57812
C16.7031 1.39062 16.7031 -2 20.2969 -2
C23.9062 -2 23.9062 1.39062 23.9062 2.67188
L23.9062 7.26562
C23.9062 23.5625 26.7031 34.3125 31.2969 41.1875
z
" id="CMR17-55"/>
      </defs>
      <g transform="translate(21.0699210237 75.1763743106)scale(0.1 -0.1)">
       <use transform="scale(0.9962640099626402)" xlink:href="#CMR17-48"/>
       <use transform="translate(45.69047711706103 0.0)scale(0.9962640099626402)" xlink:href="#CMMI12-58"/>
       <use transform="translate(72.78765420688046 0.0)scale(0.9962640099626402)" xlink:href="#CMR17-55"/>
      </g>
     </g>
    </g>
    <g id="ytick_5">
     <g id="line2d_23">
      <g>
       <use style="stroke:#000000;stroke-width:0.5;" x="37.8" xlink:href="#md7965d1ba0" y="53.2571428571"/>
      </g>
     </g>
     <g id="line2d_24">
      <g>
       <use style="stroke:#000000;stroke-width:0.5;" x="214.2" xlink:href="#md9a1c1a7cd" y="53.2571428571"/>
      </g>
     </g>
     <g id="text_5">
      <!-- $0.8$ -->
      <defs>
       <path d="
M27.2031 35.375
C33.5 38.5625 39.9062 43.3281 39.9062 50.9844
C39.9062 60.0312 31.0938 65.2969 23 65.2969
C13.9062 65.2969 5.90625 58.7344 5.90625 49.6875
C5.90625 47.2031 6.5 42.9219 10.4062 39.1406
C11.4062 38.1562 15.5938 35.1719 18.2969 33.2812
C13.7969 30.9844 3.29688 25.5312 3.29688 14.5938
C3.29688 4.35938 13.0938 -2 22.7969 -2
C33.5 -2 42.5 5.65625 42.5 15.7969
C42.5 24.8438 36.4062 29.0312 32.4062 31.7031
z

M14.0938 44.125
C13.2969 44.625 9.29688 47.7031 9.29688 52.375
C9.29688 58.4375 15.5938 63 22.7969 63
C30.7031 63 36.5 57.4531 36.5 50.9844
C36.5 41.7344 26.0938 36.4688 25.5938 36.4688
C25.5 36.4688 25.4062 36.4688 24.5938 37.0781
z

M32.5 23.7344
C34 22.6406 38.7969 19.375 38.7969 13.2969
C38.7969 5.95312 31.4062 0.390625 23 0.390625
C13.9062 0.390625 7 6.84375 7 14.6875
C7 22.5469 13.0938 29.0938 20 32.1875
z
" id="CMR17-56"/>
      </defs>
      <g transform="translate(21.0699210237 55.747802882)scale(0.1 -0.1)">
       <use transform="scale(0.9962640099626402)" xlink:href="#CMR17-48"/>
       <use transform="translate(45.69047711706103 0.0)scale(0.9962640099626402)" xlink:href="#CMMI12-58"/>
       <use transform="translate(72.78765420688046 0.0)scale(0.9962640099626402)" xlink:href="#CMR17-56"/>
      </g>
     </g>
    </g>
    <g id="ytick_6">
     <g id="line2d_25">
      <g>
       <use style="stroke:#000000;stroke-width:0.5;" x="37.8" xlink:href="#md7965d1ba0" y="33.8285714286"/>
      </g>
     </g>
     <g id="line2d_26">
      <g>
       <use style="stroke:#000000;stroke-width:0.5;" x="214.2" xlink:href="#md9a1c1a7cd" y="33.8285714286"/>
      </g>
     </g>
     <g id="text_6">
      <!-- $0.9$ -->
      <defs>
       <path d="
M35.2031 29.125
C35.2031 7.25 26.0938 0.484375 18.5938 0.484375
C16.2969 0.484375 10.7031 0.484375 8.40625 4.59375
C11 4.1875 12.9062 5.57812 12.9062 8.09375
C12.9062 10.8125 10.7031 11.7031 9.29688 11.7031
C8.40625 11.7031 5.70312 11.2969 5.70312 7.90625
C5.70312 1.10938 11.5938 -2 18.7969 -2
C30.2969 -2 42 10.5312 42 32.3906
C42 59.6406 30.7969 65.2969 23.2031 65.2969
C13.2969 65.2969 3.79688 56.6875 3.79688 43.4062
C3.79688 31.1094 11.9062 22 22.0938 22
C30.5 22 34.2031 29.7344 35.2031 33
z

M22.2969 23.5938
C19.5938 23.5938 15.7969 24.0938 12.7031 30.0312
C10.5938 33.8906 10.5938 38.4531 10.5938 43.2969
C10.5938 49.1562 10.5938 53.2031 13.4062 57.5625
C14.7969 59.6406 17.4062 63 23.2031 63
C35 63 35 45.0781 35 41.125
C35 34.0938 31.7969 23.5938 22.2969 23.5938" id="CMR17-57"/>
      </defs>
      <g transform="translate(21.0699210237 36.3192314535)scale(0.1 -0.1)">
       <use transform="scale(0.9962640099626402)" xlink:href="#CMR17-48"/>
       <use transform="translate(45.69047711706103 0.0)scale(0.9962640099626402)" xlink:href="#CMMI12-58"/>
       <use transform="translate(72.78765420688046 0.0)scale(0.9962640099626402)" xlink:href="#CMR17-57"/>
      </g>
     </g>
    </g>
    <g id="ytick_7">
     <g id="line2d_27">
      <g>
       <use style="stroke:#000000;stroke-width:0.5;" x="37.8" xlink:href="#md7965d1ba0" y="14.4"/>
      </g>
     </g>
     <g id="line2d_28">
      <g>
       <use style="stroke:#000000;stroke-width:0.5;" x="214.2" xlink:href="#md9a1c1a7cd" y="14.4"/>
      </g>
     </g>
     <g id="text_7">
      <!-- $1.0$ -->
      <defs>
       <path d="
M26.5938 63.3125
C26.5938 65.4062 26.5 65.5 25.0938 65.5
C21.2031 61.1875 15.2969 59.7969 9.70312 59.7969
C9.40625 59.7969 8.90625 59.7969 8.79688 59.6094
C8.70312 59.3906 8.70312 59.1719 8.70312 57
C11.7969 57 17 57.5938 21 59.9844
L21 7.20312
C21 3.6875 20.7969 2.5 12.2031 2.5
L9.20312 2.5
L9.20312 0
C14 0 19 0 23.7969 0
C28.5938 0 33.5938 0 38.4062 0
L38.4062 2.5
L35.4062 2.5
C26.7969 2.5 26.5938 3.59375 26.5938 7.15625
z
" id="CMR17-49"/>
      </defs>
      <g transform="translate(21.0699210237 16.8906600249)scale(0.1 -0.1)">
       <use transform="scale(0.9962640099626402)" xlink:href="#CMR17-49"/>
       <use transform="translate(45.69047711706103 0.0)scale(0.9962640099626402)" xlink:href="#CMMI12-58"/>
       <use transform="translate(72.78765420688046 0.0)scale(0.9962640099626402)" xlink:href="#CMR17-48"/>
      </g>
     </g>
    </g>
    <g id="text_8">
     <!-- $f_\lambda \quad [\textrm{erg}\;\textrm{cm}^{-2}\;\textrm{s}^{-1}\;\textrm{\AA}^{-1}]$ -->
     <defs>
      <path d="
M43.2969 61.8125
C43.2969 66.7969 39.2969 70.5938 34.5938 70.5938
C29.9062 70.5938 25.9062 66.7969 25.9062 61.8125
C25.9062 56.7969 29.9062 53 34.5938 53
C39.2969 53 43.2969 56.7969 43.2969 61.8125
M34.5938 54.5938
C30.4062 54.5938 27.7031 57.1875 27.7031 61.8125
C27.7031 66.5 30.5 69 34.5938 69
C38.7969 69 41.5 66.4062 41.5 61.8125
C41.5 57.0938 38.7031 54.5938 34.5938 54.5938" id="CMR17-23"/>
      <path d="
M15 23.3906
C15 33 19.0938 42 26.5938 42
C27.2969 42 28 41.9062 28.7031 41.5938
C28.7031 41.5938 26.5 40.8906 26.5 38.3125
C26.5 35.9062 28.4062 34.9062 29.9062 34.9062
C31.0938 34.9062 33.2969 35.6094 33.2969 38.4062
C33.2969 41.6094 30.0938 43.5938 26.7031 43.5938
C19.0938 43.5938 15.7969 36.2031 14.7969 32.7031
L14.7031 32.7031
L14.7031 43.5938
L3.09375 42.5
L3.09375 39.9062
C9 39.9062 9.90625 39.2969 9.90625 34.5
L9.90625 6.6875
C9.90625 2.875 9.5 2.39062 3.09375 2.39062
L3.09375 -0.203125
C5.5 0 10.0938 0 12.7031 0
C15.5938 0 20.7031 0 23.4062 -0.203125
L23.4062 2.39062
C16.2031 2.39062 15 2.39062 15 6.875
z
" id="CMR17-114"/>
      <path d="
M34.9062 35
C33 35 30.2031 35 30.2031 31.5156
C30.2031 28.7188 32.5 27.9219 33.7969 27.9219
C34.5 27.9219 37.4062 28.2344 37.4062 31.625
C37.4062 38.5469 30.5938 43.7969 22.9062 43.7969
C12.2969 43.7969 3.29688 34.0312 3.29688 21.2969
C3.29688 8.0625 12.7031 -1 22.9062 -1
C35.2969 -1 38.4062 10.5938 38.4062 11.6875
C38.4062 12.0938 38.2969 12.3906 37.5938 12.3906
C36.9062 12.3906 36.7969 12.2969 36.4062 10.9844
C33.7969 2.8125 28.0938 0.796875 23.7969 0.796875
C17.4062 0.796875 9.70312 6.67188 9.70312 21.3906
C9.70312 36.5312 17.0938 42 23 42
C26.9062 42 32.7031 40.2031 34.9062 35" id="CMR17-99"/>
      <path d="
M38.0938 23
C38.5 23.4062 38.5 23.6094 38.5 24.625
C38.5 34.9688 33.0938 44 21.7031 44
C11.0938 44 2.70312 33.8906 2.70312 21.6094
C2.70312 8.60938 12.2031 -1 22.7969 -1
C34 -1 38.4062 9.46875 38.4062 11.5469
C38.4062 12.25 37.7969 12.25 37.5938 12.25
C36.9062 12.25 36.7969 12.0469 36.4062 10.875
C34.2031 4.14062 28.7031 0.796875 23.5 0.796875
C19.2031 0.796875 14.9062 3.17188 12.2031 7.5
C9.09375 12.5469 9.09375 18.375 9.09375 23
z

M9.20312 24.5
C9.90625 39.1406 17.5938 42.4062 21.5938 42.4062
C28.4062 42.4062 33 35.8906 33.0938 24.5
z
" id="CMR17-101"/>
      <path d="
M30.9062 61.9531
C28.4062 69 20.5 69 19.2031 69
C18.5938 69 17.5 69 17.5 68
C17.5 67.2188 18.0938 67.1094 18.5938 67.0156
C20.0938 66.8125 21.2969 66.6094 22.9062 63.75
C23.9062 61.8594 34.2031 32.1719 34.2031 31.9688
C34.2031 31.875 34.0938 31.7656 33.2969 30.9688
L7.29688 4.85938
C6.09375 3.65625 5.29688 2.85938 5.29688 1.59375
C5.29688 0.1875 6.5 -1 8.09375 -1
C8.5 -1 9.59375 -0.796875 10.2031 -0.203125
C11.7969 1.28125 26.0938 18.6562 35.2031 29.3906
C37.7969 21.6094 41 12.4531 44.0938 4.07812
C44.5938 2.59375 45.0938 1.1875 46.5 -0.09375
C47.5 -1 47.7031 -1 50.5 -1
L52.4062 -1
C52.7969 -1 53.5 -1 53.5 -0.171875
C53.5 0.265625 53.4062 0.359375 53 0.78125
C52.0938 1.875 51.4062 3.65625 51 4.84375
z
" id="CMMI12-21"/>
      <path d="
M11.0938 18.1875
C13 16.6875 16.2969 15 20.2969 15
C28.2031 15 35 21.2031 35 29.5
C35 32.0938 34.2031 36.0938 31.2031 39.2031
C34 42.0625 38.0938 43 40.4062 43
C40.7969 43 41.4062 43 41.9062 42.7656
C41.5 42.6719 40.5938 42.2812 40.5938 40.7344
C40.5938 39.4844 41.5 38.6094 42.7969 38.6094
C44.2969 38.6094 45.0938 39.5781 45.0938 40.8438
C45.0938 42.6719 43.5938 44.5938 40.4062 44.5938
C36.4062 44.5938 32.9062 42.7812 30.0938 40.3125
C27.0938 43.0156 23.5 44 20.2969 44
C12.4062 44 5.59375 37.7969 5.59375 29.5
C5.59375 23.7812 8.90625 20.1875 9.90625 19.1875
C6.90625 15.6875 6.90625 11.6094 6.90625 11.1094
C6.90625 8.51562 7.90625 4.71875 11.2969 2.625
C6.09375 1.32812 2 -2.64062 2 -7.59375
C2 -14.7344 11.5 -20 22.9062 -20
C33.9062 -20 43.7969 -14.9375 43.7969 -7.48438
C43.7969 6 29 6 21.2969 6
C19 6 14.9062 6 14.4062 6.10938
C11.2969 6.60938 9.20312 9.40625 9.20312 12.8906
C9.20312 13.7812 9.20312 16 11.0938 18.1875
M20.2969 16.6875
C11.5 16.6875 11.5 27.5 11.5 29.5156
C11.5 31.5 11.5 42.3125 20.2969 42.3125
C29.0938 42.3125 29.0938 31.5 29.0938 29.5156
C29.0938 27.5 29.0938 16.6875 20.2969 16.6875
M22.9062 -18.2969
C12.9062 -18.2969 6 -13.0469 6 -7.59375
C6 -4.51562 7.70312 -1.64062 9.90625 -0.0625
C12.4062 1.625 13.4062 1.625 20.2031 1.625
C28.4062 1.625 39.7969 1.625 39.7969 -7.59375
C39.7969 -13.0469 32.9062 -18.2969 22.9062 -18.2969" id="CMR17-103"/>
      <path d="
M23.5 -25
L23.5 -21.5156
L14.0938 -21.5156
L14.0938 71
L23.5 71
L23.5 74.4844
L10.5938 74.4844
L10.5938 -25
z
" id="CMR17-91"/>
      <path d="
M44.5938 40.0938
C46.5938 40.0938 47.4062 40.0938 47.4062 42
C47.4062 43 46.5938 43 44.7969 43
L36.7031 43
C38.5938 53.5781 40 60.8906 40.7969 64.1719
C41.4062 66.6406 43.5 69 46.0938 69
C48.2031 69 50.2969 68.0938 51.2969 67.1562
C47.4062 66.75 46.2031 63.7812 46.2031 62.0156
C46.2031 59.9531 47.7031 58.7344 49.5938 58.7344
C51.5938 58.7344 54.5938 60.4688 54.5938 64.3594
C54.5938 68.6406 50.4062 71 46 71
C41.7031 71 37.5 67.7188 35.5 63.7188
C33.7031 60.125 32.7031 56.4375 30.4062 43
L23.7031 43
C21.7969 43 20.7969 43 20.7969 41.2031
C20.7969 40.0938 21.4062 40.0938 23.4062 40.0938
L29.7969 40.0938
C28 30.875 23.9062 8.46875 21.5938 -2.14062
C19.9062 -10.7656 18.4062 -18 13.4062 -18
C13.0938 -18 10.2031 -18 8.40625 -16.1094
C13.5 -15.7031 13.5 -11.3438 13.5 -11.25
C13.5 -9.26562 12 -8.07812 10.0938 -8.07812
C8.09375 -8.07812 5.09375 -9.76562 5.09375 -13.5469
C5.09375 -17.8125 9.5 -20 13.4062 -20
C23.5938 -20 27.7969 -1.84375 28.9062 3.10938
C30.7031 10.75 35.5938 37.125 36.0938 40.0938
z
" id="CMMI12-102"/>
      <path d="
M65.9062 23
C67.5938 23 69.4062 23 69.4062 25
C69.4062 27 67.5938 27 65.9062 27
L11.7969 27
C10.0938 27 8.29688 27 8.29688 25
C8.29688 23 10.0938 23 11.7969 23
z
" id="CMSY10-0"/>
      <path d="
M67.5938 30.2031
C67.5938 35.1875 66.7031 43.5938 54.7969 43.5938
C48 43.5938 43.2969 39 41.5 33.5938
L41.4062 33.5938
C40.2031 41.7969 34.2969 43.5938 28.7031 43.5938
C20.7969 43.5938 16.7031 37.5625 15.2031 33.5938
L15.0938 33.5938
L15.0938 43.5938
L3.29688 42.5
L3.29688 39.9062
C9.20312 39.9062 10.0938 39.2969 10.0938 34.5
L10.0938 6.6875
C10.0938 2.875 9.70312 2.39062 3.29688 2.39062
L3.29688 -0.203125
C5.70312 0 10.0938 0 12.7031 0
C15.2969 0 19.7969 0 22.2031 -0.203125
L22.2031 2.39062
C15.7969 2.39062 15.4062 2.78125 15.4062 6.6875
L15.4062 25.9062
C15.4062 35.1094 21 42 28 42
C35.4062 42 36.2031 35.4062 36.2031 30.5938
L36.2031 6.6875
C36.2031 2.875 35.7969 2.39062 29.4062 2.39062
L29.4062 -0.203125
C31.7969 0 36.2031 0 38.7969 0
C41.4062 0 45.9062 0 48.2969 -0.203125
L48.2969 2.39062
C41.9062 2.39062 41.5 2.78125 41.5 6.6875
L41.5 25.9062
C41.5 35.1094 47.0938 42 54.0938 42
C61.5 42 62.2969 35.4062 62.2969 30.5938
L62.2969 6.6875
C62.2969 2.875 61.9062 2.39062 55.5 2.39062
L55.5 -0.203125
C57.9062 0 62.2969 0 64.9062 0
C67.5 0 72 0 74.4062 -0.203125
L74.4062 2.39062
C68 2.39062 67.5938 2.78125 67.5938 6.6875
z
" id="CMR17-109"/>
      <path d="
M36.2969 68.4062
C35.7969 69.7031 35.5938 70 34.5938 70
C33.5938 70 33.4062 69.7031 32.9062 68.4062
L11.7031 8.84375
C9.79688 3.48438 5.79688 2.39062 2.29688 2.39062
L2.29688 -0.203125
C4.09375 0 8.09375 0 10 0
C12.5 0 16.5 0 18.9062 -0.203125
L18.9062 2.39062
C14.2031 2.39062 13.5 5.64062 13.5 6.85938
C13.5 7.76562 13.7031 8.28125 13.9062 8.89062
L19.2031 24
L45.4062 24
L51.4062 6.90625
C51.9062 5.70312 51.9062 5.5 51.9062 5.10938
C51.9062 2.39062 47.5938 2.39062 45.7031 2.39062
L45.7031 0
C48.5938 0 53.7969 0 56.9062 0
C59.5 0 64.5 0 66.9062 -0.203125
L66.9062 2.39062
C61.5938 2.39062 59.7969 2.39062 58.5 6.04688
z

M32.2969 60.5312
L44.5 26.5938
L20.0938 26.5938
z
" id="CMR17-65"/>
      <path d="
M30.9062 42.1094
C30.9062 43.9062 30.7969 44 30.2031 44
C29.7969 44 29.7031 43.9062 28.5 42.4219
C28.2031 42.0156 27.2969 41.0156 27 40.625
C23.7969 44 19.2969 44 17.5938 44
C6.5 44 2.5 38.1719 2.5 32.375
C2.5 23.3438 12.7031 21.25 15.5938 20.6406
C21.9062 19.3438 24.0938 18.9375 26.2031 17.125
C27.5 15.9375 29.7031 13.7344 29.7031 10.125
C29.7031 5.90625 27.2969 0.5 18.0938 0.5
C9.40625 0.5 6.29688 7.0625 4.5 15.8281
C4.20312 17.2188 4.20312 17.3281 3.40625 17.3281
C2.59375 17.3281 2.5 17.2188 2.5 15.2344
L2.5 0.890625
C2.5 -0.890625 2.59375 -1 3.20312 -1
C3.70312 -1 3.79688 -0.890625 4.29688 -0.09375
C4.90625 0.796875 6.40625 3.1875 7 4.1875
C9 1.54688 12.5 -1 18.0938 -1
C28 -1 33.2969 4.40625 33.2969 12.2344
C33.2969 17.3438 30.5938 20.0625 29.2969 21.25
C26.2969 24.375 22.7969 25.0625 18.5938 25.8594
C13.0938 27.0781 6.09375 28.4688 6.09375 34.5938
C6.09375 37.1875 7.5 42.7188 17.5938 42.7188
C28.2969 42.7188 28.9062 32.75 29.0938 29.5625
C29.2031 29.0781 29.7031 28.9688 30 28.9688
C30.9062 28.9688 30.9062 29.2812 30.9062 30.9688
z
" id="CMR17-115"/>
      <path d="
M14.2969 74.4844
L1.40625 74.4844
L1.40625 71
L10.7969 71
L10.7969 -21.5156
L1.40625 -21.5156
L1.40625 -25
L14.2969 -25
z
" id="CMR17-93"/>
      <path d="
M41.7031 15.4531
L39.9062 15.4531
C38.9062 8.375 38.0938 7.17188 37.7031 6.5625
C37.2031 5.76562 30 5.76562 28.5938 5.76562
L9.40625 5.76562
C13 9.67188 20 16.75 28.5 24.9531
C34.5938 30.7344 41.7031 37.5312 41.7031 47.4219
C41.7031 59.2188 32.2969 66 21.7969 66
C10.7969 66 4.09375 56.3125 4.09375 47.3438
C4.09375 43.4375 7 42.9375 8.20312 42.9375
C9.20312 42.9375 12.2031 43.5469 12.2031 47.0312
C12.2031 50.1094 9.59375 51 8.20312 51
C7.59375 51 7 50.9062 6.59375 50.7031
C8.5 59.2188 14.2969 63.4062 20.4062 63.4062
C29.0938 63.4062 34.7969 56.5156 34.7969 47.4219
C34.7969 38.7344 29.7031 31.25 24 24.75
L4.09375 2.28125
L4.09375 0
L39.2969 0
z
" id="CMR17-50"/>
     </defs>
     <g transform="translate(14.1327426934 124.40151666)rotate(-90.0)scale(0.1 -0.1)">
      <use transform="translate(0.0 14.943914544092468)scale(0.9962640099626402)" xlink:href="#CMMI12-102"/>
      <use transform="translate(48.083237663449566 0.0)scale(0.6973817666173724)" xlink:href="#CMMI12-21"/>
      <use transform="translate(179.79508301389322 14.943914544092468)scale(0.9962640099626402)" xlink:href="#CMR17-91"/>
      <use transform="translate(204.66614149575813 14.943914544092468)scale(0.9962640099626402)" xlink:href="#CMR17-101"/>
      <use transform="translate(245.15180195847606 14.943914544092468)scale(0.9962640099626402)" xlink:href="#CMR17-114"/>
      <use transform="translate(280.432569757939 14.943914544092468)scale(0.9962640099626402)" xlink:href="#CMR17-103"/>
      <use transform="translate(353.7970555971747 14.943914544092468)scale(0.9962640099626402)" xlink:href="#CMR17-99"/>
      <use transform="translate(394.2827160598926 14.943914544092468)scale(0.9962640099626402)" xlink:href="#CMR17-109"/>
      <use transform="translate(471.2023059279655 51.097553485951124)scale(0.6973817666173724)" xlink:href="#CMSY10-0"/>
      <use transform="translate(525.4432991759419 51.097553485951124)scale(0.6973817666173724)" xlink:href="#CMR17-50"/>
      <use transform="translate(585.5986218672167 14.943914544092468)scale(0.9962640099626402)" xlink:href="#CMR17-115"/>
      <use transform="translate(621.3999595024518 51.097553485951124)scale(0.6973817666173724)" xlink:href="#CMSY10-0"/>
      <use transform="translate(675.6409527504281 51.097553485951124)scale(0.6973817666173724)" xlink:href="#CMR17-49"/>
      <use transform="translate(735.7962754417031 32.56265870660803)scale(0.9962640099626402)" xlink:href="#CMR17-23"/>
      <use transform="translate(735.7962754417031 14.943914544092468)scale(0.9962640099626402)" xlink:href="#CMR17-65"/>
      <use transform="translate(804.8687052459528 74.82118143388077)scale(0.6973817666173724)" xlink:href="#CMSY10-0"/>
      <use transform="translate(859.109698493929 74.82118143388077)scale(0.6973817666173724)" xlink:href="#CMR17-49"/>
      <use transform="translate(891.5910124630293 14.943914544092468)scale(0.9962640099626402)" xlink:href="#CMR17-93"/>
     </g>
    </g>
    <g id="text_9">
     <!-- $\times10^{7}$ -->
     <defs>
      <path d="
M38.9062 27.8906
L18.9062 47.7969
C17.7031 49 17.5 49.1875 16.7031 49.1875
C15.7031 49.1875 14.7031 48.2969 14.7031 47.1875
C14.7031 46.5 14.9062 46.2969 16 45.1875
L36 25.0938
L16 5
C14.9062 3.89062 14.7031 3.6875 14.7031 3
C14.7031 1.89062 15.7031 1 16.7031 1
C17.5 1 17.7031 1.1875 18.9062 2.39062
L38.7969 22.2969
L59.5 1.59375
C59.7031 1.5 60.4062 1 61 1
C62.2031 1 63 1.89062 63 3
C63 3.1875 63 3.59375 62.7031 4.09375
C62.5938 4.29688 46.7031 20 41.7031 25.0938
L60 43.3906
C60.5 44 62 45.2969 62.5 45.8906
C62.5938 46.0938 63 46.5 63 47.1875
C63 48.2969 62.2031 49.1875 61 49.1875
C60.2031 49.1875 59.7969 48.7969 58.7031 47.6875
z
" id="CMSY10-2"/>
     </defs>
     <g transform="translate(37.8 11.4)scale(0.1 -0.1)">
      <use transform="scale(0.9962640099626402)" xlink:href="#CMSY10-2"/>
      <use transform="translate(77.4874676506071 0.0)scale(0.9962640099626402)" xlink:href="#CMR17-49"/>
      <use transform="translate(123.17794476766814 0.0)scale(0.9962640099626402)" xlink:href="#CMR17-48"/>
      <use transform="translate(168.86842188472914 36.15363894185866)scale(0.6973817666173724)" xlink:href="#CMR17-55"/>
     </g>
    </g>
   </g>
   <g id="patch_3">
    <path d="
M37.8 14.4
L214.2 14.4" style="fill:none;stroke:#000000;"/>
   </g>
   <g id="patch_4">
    <path d="
M214.2 130.971
L214.2 14.4" style="fill:none;stroke:#000000;"/>
   </g>
   <g id="patch_5">
    <path d="
M37.8 130.971
L37.8 14.4" style="fill:none;stroke:#000000;"/>
   </g>
   <g id="patch_6">
    <path d="
M37.8 130.971
L214.2 130.971" style="fill:none;stroke:#000000;"/>
   </g>
   <g id="legend_1">
    <g id="line2d_29">
     <path d="
M45 84.7192
L61 84.7192" style="fill:none;stroke:#000000;stroke-linecap:square;"/>
    </g>
    <g id="line2d_30"/>
    <g id="text_10">
     <!-- True -->
     <defs>
      <path d="
M62.2031 67.5938
L4.5 67.5938
L2.79688 45.5938
L4.59375 45.5938
C5.90625 62.125 7.29688 65 22.7031 65
C24.5 65 27.4062 65 28.2031 64.9062
C30.0938 64.6094 30.0938 63.4062 30.0938 61.125
L30.0938 7.17188
C30.0938 3.59375 29.7969 2.5 21.5 2.5
L18.7031 2.5
L18.7031 0
C23.5 0 28.5 0 33.4062 0
C38.2969 0 43.2969 0 48.0938 0
L48.0938 2.5
L45.2969 2.5
C37 2.5 36.7031 3.59375 36.7031 7.17188
L36.7031 61.125
C36.7031 63.3125 36.7031 64.5156 38.5 64.9062
C39.2969 65 42.2031 65 44 65
C59.2969 65 60.7969 62.125 62.0938 45.5938
L63.9062 45.5938
z
" id="CMR17-84"/>
      <path d="
M29.4062 42.0781
L29.4062 39.5
C35.2969 39.5 36.2031 38.8906 36.2031 34.1562
L36.2031 16.125
C36.2031 7.8125 31.7031 0.59375 24.2969 0.59375
C16.0938 0.59375 15.4062 5.4375 15.4062 10.5938
L15.4062 43.1719
L3.29688 42.0781
L3.29688 39.5
C7.29688 39.5 10 39.5 10.0938 35.5312
L10.0938 16.5312
C10.0938 9.89062 10.0938 5.64062 12.7031 2.85938
C14 1.57812 16.5 -1 23.7031 -1
C32.2031 -1 35.5 6.35938 36.2969 8.5
L36.4062 8.5
L36.4062 -0.984375
L48.2969 -0.984375
L48.2969 2
C42.4062 2 41.5 2.59375 41.5 7.39062
L41.5 43.1719
z
" id="CMR17-117"/>
     </defs>
     <g transform="translate(67.4 87.5191608303)scale(0.08 -0.08)">
      <use transform="scale(0.9962640099626402)" xlink:href="#CMR17-84"/>
      <use transform="translate(58.702625165395396 0.0)scale(0.9962640099626402)" xlink:href="#CMR17-114"/>
      <use transform="translate(93.98339296485835 0.0)scale(0.9962640099626402)" xlink:href="#CMR17-117"/>
      <use transform="translate(144.87876274517436 0.0)scale(0.9962640099626402)" xlink:href="#CMR17-101"/>
     </g>
    </g>
    <g id="line2d_31">
     <path d="
M45 95.8689
L61 95.8689" style="fill:none;stroke:#0000ff;stroke-linecap:square;"/>
    </g>
    <g id="line2d_32"/>
    <g id="text_11">
     <!-- $T_{\rm eff}$ -->
     <defs>
      <path d="
M41.7031 61.0938
C42.2969 63.5 42.5 64.3906 44 64.7969
C44.7969 65 48.0938 65 50.2031 65
C60.2031 65 64.9062 64.5938 64.9062 56.7812
C64.9062 55.2656 64.5 51.4688 63.9062 47.75
L63.7969 46.5625
C63.7969 46.1562 64.2031 45.5625 64.7969 45.5625
C65.7969 45.5625 65.7969 46.0625 66.0938 47.6562
L69 65.375
C69.2031 66.2969 69.2031 66.5 69.2031 66.7969
C69.2031 67.8906 68.5938 67.8906 66.5938 67.8906
L11.9062 67.8906
C9.59375 67.8906 9.5 67.7969 8.90625 66
L2.79688 47.9688
C2.70312 47.75 2.40625 46.6562 2.40625 46.5625
C2.40625 46.0625 2.79688 45.5625 3.40625 45.5625
C4.20312 45.5625 4.40625 45.9531 4.79688 47.25
C9 59.3906 11.0938 65 24.4062 65
L31.0938 65
C33.5 65 34.5 65 34.5 63.9062
C34.5 63.5938 34.5 63.4062 34 61.5938
L20.5938 7.79688
C19.5938 3.89062 19.4062 2.89062 8.79688 2.89062
C6.29688 2.89062 5.59375 2.89062 5.59375 1
C5.59375 0 6.70312 0 7.20312 0
C9.70312 0 12.2969 0 14.7969 0
L30.4062 0
C32.9062 0 35.5938 0 38.0938 0
C39.2031 0 40.2031 0 40.2031 1.89062
C40.2031 2.89062 39.5 2.89062 36.9062 2.89062
C27.9062 2.89062 27.9062 3.79688 27.9062 5.29688
C27.9062 5.40625 27.9062 6.10938 28.2969 7.70312
z
" id="CMMI12-84"/>
      <path d="
M39.9062 40
L51.2969 40
L51.2969 42.5781
L39.7031 42.5781
L39.7031 54.5938
C39.7031 62.8438 43.9062 68 48.2031 68
C49.5 68 51 67.6094 52 66.9062
C51.2031 66.7031 49.0938 66.0156 49.0938 63.5312
C49.0938 60.9531 51.0938 60.1562 52.5 60.1562
C53.9062 60.1562 55.9062 60.9531 55.9062 63.5469
C55.9062 67.3125 52.2969 69.5938 48.2969 69.5938
C44.4062 69.5938 41.2031 67.7031 38.7031 65.3281
C36.4062 68.5938 32.5938 69.5938 28.7031 69.5938
C20.9062 69.5938 9.90625 65.125 9.90625 54.2031
L9.90625 42.5781
L1.90625 42.5781
L1.90625 40
L9.90625 40
L9.90625 6.67188
C9.90625 2.875 9.5 2.39062 3.09375 2.39062
L3.09375 -0.203125
C5.5 0 9.90625 0 12.4062 0
C15 0 19.4062 0 21.7969 -0.203125
L21.7969 2.39062
C15.4062 2.39062 15 2.78125 15 6.67188
L15 40
L34.7969 40
L34.7969 6.67188
C34.7969 2.875 34.4062 2.39062 28 2.39062
L28 -0.203125
C30.4062 0 35 0 37.5938 0
C40.5 0 45.5938 0 48.2969 -0.203125
L48.2969 2.39062
C41.0938 2.39062 39.9062 2.39062 39.9062 6.85938
z

M14.7969 42.5781
L14.7969 54.2031
C14.7969 63.2344 21.7969 68 28.5 68
C30 68 33.9062 67.6875 36.2969 65.4219
C34.5 65.4219 32.7969 64.625 32.7969 62.1406
C32.7969 59.5625 35.0938 58.8594 35.2969 58.8594
C34.7969 57.0625 34.7969 55.0938 34.7969 54.3906
L34.7969 42.5781
z
" id="CMR17-11"/>
     </defs>
     <g transform="translate(67.4 98.6689065349)scale(0.08 -0.08)">
      <use transform="translate(0.0 14.943914544092467)scale(0.9962640099626402)" xlink:href="#CMMI12-84"/>
      <use transform="translate(57.175043659519 0.0)scale(0.6973817666173724)" xlink:href="#CMR17-101"/>
      <use transform="translate(85.51487524809309 0.0)scale(0.6973817666173724)" xlink:href="#CMR17-11"/>
     </g>
    </g>
    <g id="line2d_33">
     <path d="
M45 107.452
L61 107.452" style="fill:none;stroke:#008000;stroke-linecap:square;"/>
    </g>
    <g id="line2d_34"/>
    <g id="text_12">
     <!-- $\log_{10} g$ -->
     <defs>
      <path d="
M15.2969 68.6875
L3.40625 67.5938
L3.40625 65
C9.29688 65 10.2031 64.4062 10.2031 59.6406
L10.2031 6.65625
C10.2031 2.875 9.79688 2.39062 3.40625 2.39062
L3.40625 -0.203125
C5.79688 0 10.2031 0 12.7031 0
C15.2969 0 19.7031 0 22.0938 -0.203125
L22.0938 2.39062
C15.7031 2.39062 15.2969 2.78125 15.2969 6.65625
z
" id="CMR17-108"/>
      <path d="
M43.0938 21.1875
C43.0938 34 33.7969 44 22.9062 44
C12 44 2.70312 34 2.70312 21.1875
C2.70312 8.60938 12 -1 22.9062 -1
C33.7969 -1 43.0938 8.60938 43.0938 21.1875
M22.9062 0.796875
C18.2031 0.796875 14.2031 3.59375 11.9062 7.5
C9.40625 11.9844 9.09375 17.5938 9.09375 22
C9.09375 26.2031 9.29688 31.4062 11.9062 35.9062
C13.9062 39.2031 17.7969 42.4062 22.9062 42.4062
C27.4062 42.4062 31.2031 39.9062 33.5938 36.4062
C36.7031 31.7031 36.7031 25.1094 36.7031 22
C36.7031 18.0938 36.5 12.1094 33.7969 7.29688
C31 2.70312 26.7031 0.796875 22.9062 0.796875" id="CMR17-111"/>
      <path d="
M33.7969 12.6719
C33.4062 11.0781 33.2031 10.6719 31.9062 9.1875
C27.7969 3.89062 23.5938 2 20.5 2
C17.2031 2 14.0938 4.59375 14.0938 11.4688
C14.0938 16.7656 17.0938 27.9375 19.2969 32.4375
C22.2031 38.0156 26.7031 42.0156 30.9062 42.0156
C37.5 42.0156 38.7969 33.8281 38.7969 33.2344
L38.5 31.8281
z

M40 37.4219
C38.7031 40.3125 35.9062 44 30.9062 44
C20 44 7.59375 30.3281 7.59375 15.4688
C7.59375 5.09375 13.9062 0 20.2969 0
C25.5938 0 30.2969 4.1875 32.0938 6.1875
L29.9062 -2.67188
C28.5 -8.0625 27.9062 -10.5312 24.2969 -13.9688
C20.2031 -18 16.4062 -18 14.2031 -18
C11.2031 -18 8.70312 -17.7969 6.20312 -17.0156
C9.40625 -16.1406 10.2031 -13.4062 10.2031 -12.3281
C10.2031 -10.7656 9 -9.1875 6.79688 -9.1875
C4.40625 -9.1875 1.79688 -11.1562 1.79688 -14.4062
C1.79688 -18.4375 5.90625 -20 14.4062 -20
C27.2969 -20 34 -11.7656 35.2969 -6.40625
L46.4062 38.0469
C46.7031 39.2344 46.7031 39.4375 46.7031 39.625
C46.7031 41.0156 45.5938 42.1094 44.0938 42.1094
C41.7031 42.1094 40.2969 40.1094 40 37.4219" id="CMMI12-103"/>
     </defs>
     <g transform="translate(67.4 110.251570787)scale(0.08 -0.08)">
      <use transform="translate(0.0 22.86509208631694)scale(0.9962640099626402)" xlink:href="#CMR17-108"/>
      <use transform="translate(24.871058481864885 22.86509208631694)scale(0.9962640099626402)" xlink:href="#CMR17-111"/>
      <use transform="translate(70.56153559892591 22.86509208631694)scale(0.9962640099626402)" xlink:href="#CMR17-103"/>
      <use transform="translate(117.55317887511676 0.0)scale(0.6973817666173724)" xlink:href="#CMR17-49"/>
      <use transform="translate(149.5363608392357 0.0)scale(0.6973817666173724)" xlink:href="#CMR17-48"/>
      <use transform="translate(198.62208004164074 22.86509208631694)scale(0.9962640099626402)" xlink:href="#CMMI12-103"/>
     </g>
    </g>
    <g id="line2d_35">
     <path d="
M45 118.979
L61 118.979" style="fill:none;stroke:#ff0000;stroke-linecap:square;"/>
    </g>
    <g id="line2d_36"/>
    <g id="text_13">
     <!-- [${\rm Fe}/{\rm H}$] -->
     <defs>
      <path d="
M42.9062 71.2969
C42.9062 71.4062 43.5 72.9062 43.5 73.0938
C43.5 74.2969 42.5 75 41.7031 75
C41.2031 75 40.2969 75 39.5 72.7969
L6 -21.2969
C6 -21.4062 5.40625 -22.8906 5.40625 -23.0938
C5.40625 -24.2969 6.40625 -25 7.20312 -25
C7.79688 -25 8.70312 -24.8906 9.40625 -22.7969
z
" id="CMMI12-61"/>
      <path d="
M56.0938 61.0156
C56.0938 65.5 57.2031 65.5 64.0938 65.5
L64.0938 68
C61.2031 68 55.9062 68 52.7969 68
C49.7031 68 44.4062 68 41.5 68
L41.5 65.5
C48.4062 65.5 49.5 65.5 49.5 61
L49.5 36.5781
L19.7031 36.5781
L19.7031 61
C19.7031 65.5 20.7969 65.5 27.7031 65.5
L27.7031 68
C24.7969 68 19.5 68 16.4062 68
C13.2969 68 8 68 5.09375 68
L5.09375 65.5
C12 65.5 13.0938 65.5 13.0938 61.0156
L13.0938 6.98438
C13.0938 2.5 12 2.5 5.09375 2.5
L5.09375 0
C8 0 13.2969 0 16.4062 0
C19.5 0 24.7969 0 27.7031 0
L27.7031 2.5
C20.7969 2.5 19.7031 2.5 19.7031 6.96875
L19.7031 34
L49.5 34
L49.5 6.96875
C49.5 2.5 48.4062 2.5 41.5 2.5
L41.5 0
C44.4062 0 49.7031 0 52.7969 0
C55.9062 0 61.2031 0 64.0938 0
L64.0938 2.5
C57.2031 2.5 56.0938 2.5 56.0938 6.98438
z
" id="CMR17-72"/>
      <path d="
M54.4062 67.5781
L5.09375 67.5781
L5.09375 65
C12 65 13.0938 65 13.0938 60.5312
L13.0938 6.96875
C13.0938 2.5 12 2.5 5.09375 2.5
L5.09375 0
C8 0 13.5938 0 16.7031 0
C20.7969 0 25.5938 0 29.7031 0
L29.7031 2.5
L27.5 2.5
C19.9062 2.5 19.7031 3.48438 19.7031 7.0625
L19.7031 32.4219
L28.7031 32.4219
C38 32.4219 38.9062 29.1875 38.9062 21
L40.7031 21
L40.7031 46.8906
L38.9062 46.8906
C38.9062 38.3438 38 35 28.7031 35
L19.7031 35
L19.7031 61.1094
C19.7031 64.5 19.9062 65 23.9062 65
L36.7969 65
C51.9062 65 53.5938 58.8906 55 45.7656
L56.7969 45.7656
z
" id="CMR17-70"/>
     </defs>
     <g transform="translate(67.4 121.778900552)scale(0.08 -0.08)">
      <use transform="scale(0.9962640099626402)" xlink:href="#CMR17-91"/>
      <use transform="translate(24.871058481864885 0.0)scale(0.9962640099626402)" xlink:href="#CMR17-70"/>
      <use transform="translate(77.04764968283001 0.0)scale(0.9962640099626402)" xlink:href="#CMR17-101"/>
      <use transform="translate(117.53331014554796 0.0)scale(0.9962640099626402)" xlink:href="#CMMI12-61"/>
      <use transform="translate(166.30822890722294 0.0)scale(0.9962640099626402)" xlink:href="#CMR17-72"/>
      <use transform="translate(235.38065871147262 0.0)scale(0.9962640099626402)" xlink:href="#CMR17-93"/>
     </g>
    </g>
   </g>
  </g>
  <g id="axes_2">
   <g id="patch_7">
    <path d="
M37.8 259.2
L214.2 259.2
L214.2 142.629
L37.8 142.629
z
" style="fill:#ffffff;"/>
   </g>
   <g id="PolyCollection_1">
    <defs>
     <path d="
M37.8 -121.206
L37.8 -52.965
L39.282 -51.2593
L40.764 -49.3798
L42.2461 -47.3492
L43.7281 -45.3232
L45.2101 -43.6331
L46.6922 -42.6792
L48.1742 -42.7108
L49.6563 -43.6356
L51.1383 -44.9963
L52.6204 -46.1588
L54.1025 -46.6231
L55.5845 -46.2913
L57.0666 -45.5225
L58.5487 -44.8948
L60.0308 -44.8037
L61.5129 -45.2177
L62.995 -45.8032
L64.4771 -46.2388
L65.9592 -46.3803
L67.4414 -46.1857
L68.9235 -45.5878
L70.4056 -44.542
L71.8878 -43.2265
L73.3699 -42.1509
L74.8521 -41.9535
L76.3342 -42.9813
L77.8164 -45.0242
L79.2985 -47.4536
L80.7807 -49.619
L82.2629 -51.1446
L83.7451 -51.9632
L85.2273 -52.1662
L86.7095 -51.8394
L88.1917 -50.9814
L89.6739 -49.5136
L91.1561 -47.3459
L92.6383 -44.4555
L94.1206 -40.9678
L95.6028 -37.2274
L97.085 -33.8237
L98.5673 -31.4864
L100.05 -30.8018
L101.532 -31.8732
L103.014 -34.2093
L104.496 -36.9893
L105.979 -39.514
L107.461 -41.4813
L108.943 -42.9311
L110.425 -43.992
L111.908 -44.6991
L113.39 -44.9908
L114.872 -44.8099
L116.355 -44.1792
L117.837 -43.1782
L119.319 -41.8634
L120.802 -40.1871
L122.284 -37.963
L123.766 -34.8855
L125.249 -30.5889
L126.731 -24.7335
L128.213 -17.0912
L129.696 -7.57502
L131.178 3.82493
L132.66 17.1497
L134.143 32.44
L135.625 49.2282
L137.108 65.3009
L138.59 75.8247
L140.072 76.1149
L141.555 66.7146
L143.037 52.4196
L144.52 37.1905
L146.002 22.6344
L147.485 9.19254
L148.967 -2.83095
L150.449 -13.0014
L151.932 -20.9454
L153.414 -26.6325
L154.897 -30.4692
L156.379 -33.1313
L157.862 -35.262
L159.344 -37.2331
L160.827 -39.083
L162.309 -40.6148
L163.792 -41.567
L165.274 -41.7713
L166.757 -41.2654
L168.239 -40.3296
L169.722 -39.4196
L171.204 -38.9875
L172.687 -39.2664
L174.169 -40.1406
L175.652 -41.1799
L177.134 -41.8115
L178.617 -41.5389
L180.1 -40.1201
L181.582 -37.6717
L183.065 -34.651
L184.547 -31.6913
L186.03 -29.3229
L187.512 -27.7487
L188.995 -26.8667
L190.478 -26.5295
L191.96 -26.7862
L193.443 -27.853
L194.925 -29.8592
L196.408 -32.6533
L197.891 -35.8563
L199.373 -39.0651
L200.856 -42.0048
L202.339 -44.5426
L203.821 -46.6327
L205.304 -48.2689
L206.787 -49.471
L208.269 -50.2807
L209.752 -50.7455
L211.235 -50.896
L212.717 -50.733
L214.2 -50.2387
L214.2 -123.933
L214.2 -123.933
L212.717 -123.438
L211.235 -123.275
L209.752 -123.426
L208.269 -123.891
L206.787 -124.7
L205.304 -125.903
L203.821 -127.539
L202.339 -129.629
L200.856 -132.167
L199.373 -135.106
L197.891 -138.315
L196.408 -141.518
L194.925 -144.312
L193.443 -146.318
L191.96 -147.385
L190.478 -147.642
L188.995 -147.305
L187.512 -146.423
L186.03 -144.849
L184.547 -142.48
L183.065 -139.52
L181.582 -136.5
L180.1 -134.051
L178.617 -132.633
L177.134 -132.36
L175.652 -132.992
L174.169 -134.031
L172.687 -134.905
L171.204 -135.184
L169.722 -134.752
L168.239 -133.842
L166.757 -132.906
L165.274 -132.4
L163.792 -132.604
L162.309 -133.557
L160.827 -135.088
L159.344 -136.938
L157.862 -138.909
L156.379 -141.04
L154.897 -143.702
L153.414 -147.539
L151.932 -153.226
L150.449 -161.17
L148.967 -171.34
L147.485 -183.364
L146.002 -196.806
L144.52 -211.362
L143.037 -226.591
L141.555 -240.886
L140.072 -250.286
L138.59 -249.996
L137.108 -239.472
L135.625 -223.4
L134.143 -206.611
L132.66 -191.321
L131.178 -177.996
L129.696 -166.596
L128.213 -157.08
L126.731 -149.438
L125.249 -143.583
L123.766 -139.286
L122.284 -136.208
L120.802 -133.984
L119.319 -132.308
L117.837 -130.993
L116.355 -129.992
L114.872 -129.362
L113.39 -129.181
L111.908 -129.472
L110.425 -130.179
L108.943 -131.24
L107.461 -132.69
L105.979 -134.657
L104.496 -137.182
L103.014 -139.962
L101.532 -142.298
L100.05 -143.37
L98.5673 -142.685
L97.085 -140.348
L95.6028 -136.944
L94.1206 -133.204
L92.6383 -129.716
L91.1561 -126.826
L89.6739 -124.658
L88.1917 -123.19
L86.7095 -122.332
L85.2273 -122.005
L83.7451 -122.208
L82.2629 -123.027
L80.7807 -124.552
L79.2985 -126.718
L77.8164 -129.147
L76.3342 -131.19
L74.8521 -132.218
L73.3699 -132.021
L71.8878 -130.945
L70.4056 -129.629
L68.9235 -128.584
L67.4414 -127.986
L65.9592 -127.791
L64.4771 -127.933
L62.995 -128.368
L61.5129 -128.954
L60.0308 -129.368
L58.5487 -129.277
L57.0666 -128.649
L55.5845 -127.88
L54.1025 -127.548
L52.6204 -128.013
L51.1383 -129.175
L49.6563 -130.536
L48.1742 -131.461
L46.6922 -131.492
L45.2101 -130.538
L43.7281 -128.848
L42.2461 -126.822
L40.764 -124.792
L39.282 -122.912
L37.8 -121.206
z
" id="C0_0_9a68d9f68d"/>
    </defs>
    <g clip-path="url(#pa454c67c66)">
     <use style="fill:#0000ff;fill-opacity:0.2;stroke:#0000ff;stroke-opacity:0.2;" x="0.0" xlink:href="#C0_0_9a68d9f68d" y="288.0"/>
    </g>
   </g>
   <g id="PolyCollection_2">
    <defs>
     <path d="
M37.8 -112.144
L37.8 -62.027
L39.282 -53.8427
L40.764 -47.2154
L42.2461 -42.5537
L43.7281 -39.7429
L45.2101 -38.5571
L46.6922 -38.9647
L48.1742 -41.3203
L49.6563 -46.4231
L51.1383 -55.3227
L52.6204 -68.7125
L54.1025 -85.9728
L55.5845 -69.8239
L57.0666 -55.0396
L58.5487 -48.6973
L60.0308 -53.0905
L61.5129 -66.443
L62.995 -84.0073
L64.4771 -73.4139
L65.9592 -60.6583
L67.4414 -52.7049
L68.9235 -48.6799
L70.4056 -47.0866
L71.8878 -46.6167
L73.3699 -46.4902
L74.8521 -46.3855
L76.3342 -46.1849
L77.8164 -45.7905
L79.2985 -45.1214
L80.7807 -44.1976
L82.2629 -43.1558
L83.7451 -42.168
L85.2273 -41.3609
L86.7095 -40.8101
L88.1917 -40.6102
L89.6739 -40.9469
L91.1561 -42.0783
L92.6383 -44.1743
L94.1206 -47.0697
L95.6028 -50.1171
L97.085 -52.3249
L98.5673 -52.7895
L100.05 -51.1558
L101.532 -47.7667
L103.014 -43.4202
L104.496 -38.9639
L105.979 -35.0081
L107.461 -31.8421
L108.943 -29.4561
L110.425 -27.6105
L111.908 -25.9343
L113.39 -24.0516
L114.872 -21.6713
L116.355 -18.6068
L117.837 -14.7101
L119.319 -9.78055
L120.802 -3.48825
L122.284 4.62561
L123.766 15.0083
L125.249 27.739
L126.731 41.9769
L128.213 55.4756
L129.696 64.5947
L131.178 65.0501
L132.66 53.1602
L134.143 27.2684
L135.625 -10.3124
L137.108 -50.2241
L138.59 -75.0349
L140.072 -69.6039
L141.555 -37.3164
L143.037 3.92372
L144.52 38.7353
L146.002 60.2925
L147.485 67.8763
L148.967 64.1282
L150.449 53.2855
L151.932 39.6802
L153.414 26.5053
L154.897 15.2932
L156.379 6.22264
L157.862 -1.16838
L159.344 -7.34918
L160.827 -12.496
L162.309 -16.4863
L163.792 -19.0537
L165.274 -20.0007
L166.757 -19.4096
L168.239 -17.7778
L169.722 -15.9678
L171.204 -14.9205
L172.687 -15.2589
L174.169 -17.0212
L175.652 -19.7114
L177.134 -22.6099
L178.617 -25.1163
L180.1 -26.9464
L181.582 -28.1218
L183.065 -28.8119
L184.547 -29.1275
L186.03 -28.9878
L187.512 -28.1809
L188.995 -26.6239
L190.478 -24.627
L191.96 -22.8901
L193.443 -22.148
L194.925 -22.7329
L196.408 -24.4421
L197.891 -26.7878
L199.373 -29.3404
L200.856 -31.8725
L202.339 -34.2919
L203.821 -36.5277
L205.304 -38.4992
L206.787 -40.1545
L208.269 -41.5156
L209.752 -42.6691
L211.235 -43.6935
L212.717 -44.5623
L214.2 -45.1041
L214.2 -129.067
L214.2 -129.067
L212.717 -129.609
L211.235 -130.478
L209.752 -131.502
L208.269 -132.656
L206.787 -134.017
L205.304 -135.672
L203.821 -137.644
L202.339 -139.879
L200.856 -142.299
L199.373 -144.831
L197.891 -147.384
L196.408 -149.729
L194.925 -151.439
L193.443 -152.023
L191.96 -151.281
L190.478 -149.544
L188.995 -147.548
L187.512 -145.991
L186.03 -145.184
L184.547 -145.044
L183.065 -145.36
L181.582 -146.05
L180.1 -147.225
L178.617 -149.055
L177.134 -151.562
L175.652 -154.46
L174.169 -157.15
L172.687 -158.913
L171.204 -159.251
L169.722 -158.204
L168.239 -156.394
L166.757 -154.762
L165.274 -154.171
L163.792 -155.118
L162.309 -157.685
L160.827 -161.675
L159.344 -166.822
L157.862 -173.003
L156.379 -180.394
L154.897 -189.465
L153.414 -200.677
L151.932 -213.852
L150.449 -227.457
L148.967 -238.3
L147.485 -242.048
L146.002 -234.464
L144.52 -212.907
L143.037 -178.095
L141.555 -136.855
L140.072 -104.568
L138.59 -99.1366
L137.108 -123.947
L135.625 -163.859
L134.143 -201.44
L132.66 -227.332
L131.178 -239.222
L129.696 -238.766
L128.213 -229.647
L126.731 -216.148
L125.249 -201.91
L123.766 -189.18
L122.284 -178.797
L120.802 -170.683
L119.319 -164.391
L117.837 -159.461
L116.355 -155.565
L114.872 -152.5
L113.39 -150.12
L111.908 -148.237
L110.425 -146.561
L108.943 -144.715
L107.461 -142.329
L105.979 -139.163
L104.496 -135.208
L103.014 -130.751
L101.532 -126.405
L100.05 -123.016
L98.5673 -121.382
L97.085 -121.847
L95.6028 -124.054
L94.1206 -127.102
L92.6383 -129.997
L91.1561 -132.093
L89.6739 -133.224
L88.1917 -133.561
L86.7095 -133.361
L85.2273 -132.811
L83.7451 -132.003
L82.2629 -131.016
L80.7807 -129.974
L79.2985 -129.05
L77.8164 -128.381
L76.3342 -127.987
L74.8521 -127.786
L73.3699 -127.681
L71.8878 -127.555
L70.4056 -127.085
L68.9235 -125.491
L67.4414 -121.466
L65.9592 -113.513
L64.4771 -100.758
L62.995 -90.1641
L61.5129 -107.728
L60.0308 -121.081
L58.5487 -125.474
L57.0666 -119.132
L55.5845 -104.348
L54.1025 -88.1987
L52.6204 -105.459
L51.1383 -118.849
L49.6563 -127.748
L48.1742 -132.851
L46.6922 -135.207
L45.2101 -135.614
L43.7281 -134.429
L42.2461 -131.618
L40.764 -126.956
L39.282 -120.329
L37.8 -112.144
z
" id="C1_0_dc3bd93b57"/>
    </defs>
    <g clip-path="url(#pa454c67c66)">
     <use style="fill:#008000;fill-opacity:0.2;stroke:#008000;stroke-opacity:0.2;" x="0.0" xlink:href="#C1_0_dc3bd93b57" y="288.0"/>
    </g>
   </g>
   <g id="PolyCollection_3">
    <defs>
     <path d="
M37.8 -288.754
L37.8 114.583
L39.282 132.535
L40.764 142.941
L42.2461 144.887
L43.7281 140.327
L45.2101 132.784
L46.6922 125.604
L48.1742 120.061
L49.6563 114.091
L51.1383 102.656
L52.6204 80.3207
L54.1025 45.3061
L55.5845 2.90627
L57.0666 -34.6405
L58.5487 -53.5257
L60.0308 -46.5862
L61.5129 -17.9384
L62.995 20.1116
L64.4771 54.5332
L65.9592 76.8408
L67.4414 83.6861
L68.9235 75.2077
L70.4056 54.3517
L71.8878 27.6703
L73.3699 5.24871
L74.8521 -2.50463
L76.3342 9.85204
L77.8164 39.6182
L79.2985 77.848
L80.7807 114.592
L82.2629 143.272
L83.7451 161.831
L85.2273 171.282
L86.7095 173.564
L88.1917 170.048
L89.6739 161.094
L91.1561 146.386
L92.6383 125.693
L94.1206 99.7885
L95.6028 71.2751
L97.085 44.8622
L98.5673 26.448
L100.05 20.8538
L101.532 29.2704
L103.014 48.3633
L104.496 72.0204
L105.979 94.5001
L107.461 112.64
L108.943 125.934
L110.425 135.171
L111.908 141.107
L113.39 144.051
L114.872 144.169
L116.355 141.822
L117.837 137.535
L119.319 131.644
L120.802 123.887
L122.284 113.129
L123.766 97.1902
L125.249 72.7281
L126.731 35.3096
L128.213 -19.9906
L129.696 -76.8789
L131.178 24.1225
L132.66 146.861
L134.143 284.931
L135.625 426.036
L137.108 548.668
L138.59 621.39
L140.072 618.25
L141.555 542.899
L143.037 423.657
L144.52 288.706
L146.002 156.334
L147.485 37.4523
L148.967 -61.5523
L150.449 -36.2675
L151.932 18.0214
L153.414 53.6155
L154.897 75.5038
L156.379 88.8734
L157.862 97.8971
L159.344 105.087
L160.827 111.336
L162.309 116.503
L163.792 120.219
L165.274 122.544
L166.757 124.203
L168.239 126.32
L169.722 129.814
L171.204 134.859
L172.687 140.702
L174.169 145.842
L175.652 148.365
L177.134 146.251
L178.617 137.716
L180.1 121.738
L181.582 98.7154
L183.065 70.8197
L184.547 41.5217
L186.03 14.2894
L187.512 -8.57039
L188.995 -25.7527
L190.478 -35.6346
L191.96 -35.5578
L193.443 -23.1523
L194.925 1.21639
L196.408 33.4354
L197.891 67.2879
L199.373 97.3089
L200.856 120.606
L202.339 136.852
L203.821 147.217
L205.304 153.299
L206.787 156.548
L208.269 158.04
L209.752 158.36
L211.235 157.553
L212.717 155.268
L214.2 151.08
L214.2 -325.252
L214.2 -325.252
L212.717 -329.439
L211.235 -331.725
L209.752 -332.531
L208.269 -332.211
L206.787 -330.719
L205.304 -327.47
L203.821 -321.389
L202.339 -311.024
L200.856 -294.777
L199.373 -271.48
L197.891 -241.459
L196.408 -207.607
L194.925 -175.388
L193.443 -151.019
L191.96 -138.614
L190.478 -138.537
L188.995 -148.419
L187.512 -165.601
L186.03 -188.461
L184.547 -215.693
L183.065 -244.991
L181.582 -272.887
L180.1 -295.91
L178.617 -311.887
L177.134 -320.422
L175.652 -322.536
L174.169 -320.013
L172.687 -314.873
L171.204 -309.031
L169.722 -303.985
L168.239 -300.491
L166.757 -298.375
L165.274 -296.715
L163.792 -294.391
L162.309 -290.675
L160.827 -285.507
L159.344 -279.258
L157.862 -272.069
L156.379 -263.045
L154.897 -249.675
L153.414 -227.787
L151.932 -192.193
L150.449 -137.904
L148.967 -112.619
L147.485 -211.624
L146.002 -330.506
L144.52 -462.877
L143.037 -597.828
L141.555 -717.07
L140.072 -792.421
L138.59 -795.562
L137.108 -722.84
L135.625 -600.208
L134.143 -459.102
L132.66 -321.032
L131.178 -198.294
L129.696 -97.2925
L128.213 -154.181
L126.731 -209.481
L125.249 -246.899
L123.766 -271.362
L122.284 -287.301
L120.802 -298.059
L119.319 -305.816
L117.837 -311.707
L116.355 -315.993
L114.872 -318.34
L113.39 -318.223
L111.908 -315.279
L110.425 -309.342
L108.943 -300.105
L107.461 -286.811
L105.979 -268.672
L104.496 -246.192
L103.014 -222.535
L101.532 -203.442
L100.05 -195.025
L98.5673 -200.619
L97.085 -219.034
L95.6028 -245.447
L94.1206 -273.96
L92.6383 -299.864
L91.1561 -320.557
L89.6739 -335.265
L88.1917 -344.22
L86.7095 -347.735
L85.2273 -345.453
L83.7451 -336.002
L82.2629 -317.444
L80.7807 -288.763
L79.2985 -252.019
L77.8164 -213.79
L76.3342 -184.023
L74.8521 -171.667
L73.3699 -179.42
L71.8878 -201.842
L70.4056 -228.523
L68.9235 -249.379
L67.4414 -257.858
L65.9592 -251.012
L64.4771 -228.705
L62.995 -194.283
L61.5129 -156.233
L60.0308 -127.585
L58.5487 -120.646
L57.0666 -139.531
L55.5845 -177.078
L54.1025 -219.477
L52.6204 -254.492
L51.1383 -276.828
L49.6563 -288.262
L48.1742 -294.233
L46.6922 -299.775
L45.2101 -306.956
L43.7281 -314.498
L42.2461 -319.058
L40.764 -317.112
L39.282 -306.707
L37.8 -288.754
z
" id="C2_0_252ec3ad44"/>
    </defs>
    <g clip-path="url(#pa454c67c66)">
     <use style="fill:#ff0000;fill-opacity:0.2;stroke:#ff0000;stroke-opacity:0.2;" x="0.0" xlink:href="#C2_0_252ec3ad44" y="288.0"/>
    </g>
   </g>
   <g id="line2d_37">
    <path clip-path="url(#pa454c67c66)" d="
M37.8 200.914
L214.2 200.914" style="fill:none;stroke:#000000;stroke-dasharray:1.000000,3.000000;stroke-dashoffset:0.0;"/>
   </g>
   <g id="line2d_38">
    <path clip-path="url(#pa454c67c66)" d="
M37.8 200.192
L39.282 200.224
L40.764 200.359
L42.2461 200.583
L43.7281 200.851
L45.2101 201.086
L46.6922 201.209
L48.1742 201.17
L49.6563 200.985
L51.1383 200.747
L52.6204 200.592
L54.1025 200.633
L55.5845 200.876
L57.0666 201.189
L58.5487 201.373
L60.0308 201.313
L61.5129 201.057
L62.995 200.759
L64.4771 200.551
L65.9592 200.467
L67.4414 200.486
L68.9235 200.598
L70.4056 200.811
L71.8878 201.101
L73.3699 201.363
L74.8521 201.455
L76.3342 201.297
L77.8164 200.939
L79.2985 200.518
L80.7807 200.171
L82.2629 199.956
L83.7451 199.864
L85.2273 199.858
L86.7095 199.91
L88.1917 200.013
L89.6739 200.177
L91.1561 200.42
L92.6383 200.751
L94.1206 201.166
L95.6028 201.631
L97.085 202.073
L98.5673 202.386
L100.05 202.476
L101.532 202.321
L103.014 201.996
L104.496 201.633
L105.979 201.332
L107.461 201.122
L108.943 200.978
L110.425 200.867
L111.908 200.782
L113.39 200.738
L114.872 200.75
L116.355 200.815
L117.837 200.918
L119.319 201.042
L120.802 201.181
L122.284 201.328
L123.766 201.455
L125.249 201.474
L126.731 201.218
L128.213 200.471
L129.696 199.083
L131.178 197.141
L132.66 195.086
L134.143 193.675
L135.625 193.65
L137.108 195.019
L138.59 196.49
L140.072 196.514
L141.555 195.373
L143.037 194.698
L144.52 195.369
L146.002 197.072
L147.485 199.033
L148.967 200.632
L150.449 201.619
L151.932 202.066
L153.414 202.181
L154.897 202.147
L156.379 202.05
L157.862 201.907
L159.344 201.722
L160.827 201.52
L162.309 201.346
L163.792 201.25
L165.274 201.264
L166.757 201.384
L168.239 201.566
L169.722 201.733
L171.204 201.813
L172.687 201.771
L174.169 201.624
L175.652 201.439
L177.134 201.303
L178.617 201.291
L180.1 201.443
L181.582 201.749
L183.065 202.147
L184.547 202.544
L186.03 202.872
L187.512 203.115
L188.995 203.305
L190.478 203.453
L191.96 203.514
L193.443 203.409
L194.925 203.102
L196.408 202.643
L197.891 202.132
L199.373 201.655
L200.856 201.249
L202.339 200.917
L203.821 200.651
L205.304 200.445
L206.787 200.295
L208.269 200.195
L209.752 200.136
L211.235 200.115
L212.717 200.134
L214.2 200.198" style="fill:none;stroke:#0000ff;stroke-linecap:square;"/>
   </g>
   <g id="line2d_39">
    <path clip-path="url(#pa454c67c66)" d="
M37.8 186.669
L39.282 185.867
L40.764 185.339
L42.2461 185.081
L43.7281 185.004
L45.2101 185.006
L46.6922 185.043
L48.1742 185.164
L49.6563 185.526
L51.1383 186.345
L52.6204 187.794
L54.1025 189.858
L55.5845 192.199
L57.0666 194.179
L58.5487 195.107
L60.0308 194.632
L61.5129 192.958
L62.995 190.707
L64.4771 188.545
L65.9592 186.902
L67.4414 185.911
L68.9235 185.51
L70.4056 185.544
L71.8878 185.82
L73.3699 186.117
L74.8521 186.235
L76.3342 186.077
L77.8164 185.685
L79.2985 185.203
L80.7807 184.775
L82.2629 184.479
L83.7451 184.326
L85.2273 184.288
L86.7095 184.341
L88.1917 184.486
L89.6739 184.75
L91.1561 185.174
L92.6383 185.782
L94.1206 186.551
L95.6028 187.387
L97.085 188.123
L98.5673 188.578
L100.05 188.63
L101.532 188.293
L103.014 187.718
L104.496 187.115
L105.979 186.652
L107.461 186.399
L108.943 186.34
L110.425 186.43
L111.908 186.634
L113.39 186.938
L114.872 187.345
L116.355 187.866
L117.837 188.515
L119.319 189.323
L120.802 190.338
L122.284 191.636
L123.766 193.316
L125.249 195.486
L126.731 198.234
L128.213 201.587
L129.696 205.486
L131.178 209.798
L132.66 214.377
L134.143 219.095
L135.625 223.759
L137.108 227.822
L138.59 230.166
L140.072 229.754
L141.555 226.809
L143.037 222.517
L144.52 217.825
L146.002 213.133
L147.485 208.605
L148.967 204.397
L150.449 200.684
L151.932 197.599
L153.414 195.168
L154.897 193.312
L156.379 191.888
L157.862 190.756
L159.344 189.821
L160.827 189.052
L162.309 188.47
L163.792 188.12
L165.274 188.034
L166.757 188.198
L168.239 188.52
L169.722 188.846
L171.204 189.008
L172.687 188.902
L174.169 188.537
L175.652 188.023
L177.134 187.511
L178.617 187.13
L180.1 186.951
L181.582 186.976
L183.065 187.16
L184.547 187.454
L186.03 187.841
L187.512 188.328
L188.995 188.898
L190.478 189.441
L191.96 189.765
L193.443 189.692
L194.925 189.185
L196.408 188.374
L197.891 187.468
L199.373 186.636
L200.856 185.957
L202.339 185.438
L203.821 185.061
L205.304 184.81
L206.787 184.674
L208.269 184.641
L209.752 184.697
L211.235 184.815
L212.717 184.965
L214.2 185.108" style="fill:none;stroke:#008000;stroke-linecap:square;"/>
   </g>
   <g id="line2d_40">
    <path clip-path="url(#pa454c67c66)" d="
M37.8 187.656
L39.282 182.979
L40.764 180.43
L42.2461 180.277
L43.7281 181.971
L45.2101 184.471
L46.6922 186.717
L48.1742 188.171
L49.6563 189.189
L51.1383 190.946
L52.6204 194.804
L54.1025 201.351
L55.5845 209.618
L57.0666 217.124
L58.5487 221.014
L60.0308 219.779
L61.5129 214.211
L62.995 206.781
L64.4771 200.128
L65.9592 196.016
L67.4414 195.222
L68.9235 197.827
L70.4056 203.257
L71.8878 209.995
L73.3699 215.585
L74.8521 217.445
L76.3342 214.212
L77.8164 206.548
L79.2985 196.693
L80.7807 187.169
L82.2629 179.678
L83.7451 174.797
L85.2273 172.316
L86.7095 171.771
L88.1917 172.816
L89.6739 175.324
L91.1561 179.302
L92.6383 184.708
L94.1206 191.262
L95.6028 198.285
L97.085 204.658
L98.5673 209.037
L100.05 210.352
L101.532 208.371
L103.014 203.888
L104.496 198.309
L105.979 192.927
L107.461 188.43
L108.943 184.915
L110.425 182.236
L111.908 180.299
L113.39 179.117
L114.872 178.693
L116.355 178.924
L117.837 179.618
L119.319 180.614
L120.802 181.882
L122.284 183.553
L123.766 185.854
L125.249 188.965
L126.731 192.836
L128.213 197.023
L129.696 200.671
L131.178 202.74
L132.66 202.419
L134.143 199.562
L135.625 194.99
L137.108 190.566
L138.59 188.816
L140.072 191.511
L141.555 198.025
L143.037 205.763
L144.52 212.022
L146.002 215.068
L147.485 214.406
L148.967 210.707
L150.449 205.416
L151.932 200.111
L153.414 195.871
L154.897 192.992
L156.379 191.148
L157.862 189.804
L159.344 188.569
L160.827 187.332
L162.309 186.189
L163.792 185.255
L165.274 184.517
L166.757 183.793
L168.239 182.831
L169.722 181.48
L171.204 179.81
L172.687 178.122
L174.169 176.854
L175.652 176.494
L177.134 177.509
L178.617 180.288
L180.1 185.016
L181.582 191.513
L183.065 199.146
L184.547 206.961
L186.03 214.024
L187.512 219.742
L188.995 223.842
L190.478 226.037
L191.96 225.796
L193.443 222.613
L194.925 216.564
L196.408 208.589
L197.891 200.144
L199.373 192.551
L200.856 186.549
L202.339 182.269
L203.821 179.463
L205.304 177.752
L206.787 176.776
L208.269 176.252
L209.752 176.027
L211.235 176.1
L212.717 176.602
L214.2 177.707" style="fill:none;stroke:#ff0000;stroke-linecap:square;"/>
   </g>
   <g id="matplotlib.axis_3">
    <g id="xtick_6">
     <g id="line2d_41">
      <g>
       <use style="stroke:#000000;stroke-width:0.5;" x="45.0098349651" xlink:href="#mc7db9fdffb" y="259.2"/>
      </g>
     </g>
     <g id="line2d_42">
      <g>
       <use style="stroke:#000000;stroke-width:0.5;" x="45.0098349651" xlink:href="#m5a7d422ac3" y="142.628571429"/>
      </g>
     </g>
     <g id="text_14">
      <!-- 5161 -->
      <g transform="translate(35.0471644619 270.11849838)scale(0.1 -0.1)">
       <use transform="scale(0.9962640099626402)" xlink:href="#CMR17-53"/>
       <use transform="translate(45.69047711706103 0.0)scale(0.9962640099626402)" xlink:href="#CMR17-49"/>
       <use transform="translate(91.38095423412206 0.0)scale(0.9962640099626402)" xlink:href="#CMR17-54"/>
       <use transform="translate(137.07143135118307 0.0)scale(0.9962640099626402)" xlink:href="#CMR17-49"/>
      </g>
     </g>
    </g>
    <g id="xtick_7">
     <g id="line2d_43">
      <g>
       <use style="stroke:#000000;stroke-width:0.5;" x="81.9768924552" xlink:href="#mc7db9fdffb" y="259.2"/>
      </g>
     </g>
     <g id="line2d_44">
      <g>
       <use style="stroke:#000000;stroke-width:0.5;" x="81.9768924552" xlink:href="#m5a7d422ac3" y="142.628571429"/>
      </g>
     </g>
     <g id="text_15">
      <!-- 5162 -->
      <g transform="translate(72.0142219521 270.11849838)scale(0.1 -0.1)">
       <use transform="scale(0.9962640099626402)" xlink:href="#CMR17-53"/>
       <use transform="translate(45.69047711706103 0.0)scale(0.9962640099626402)" xlink:href="#CMR17-49"/>
       <use transform="translate(91.38095423412206 0.0)scale(0.9962640099626402)" xlink:href="#CMR17-54"/>
       <use transform="translate(137.07143135118307 0.0)scale(0.9962640099626402)" xlink:href="#CMR17-50"/>
      </g>
     </g>
    </g>
    <g id="xtick_8">
     <g id="line2d_45">
      <g>
       <use style="stroke:#000000;stroke-width:0.5;" x="118.943949945" xlink:href="#mc7db9fdffb" y="259.2"/>
      </g>
     </g>
     <g id="line2d_46">
      <g>
       <use style="stroke:#000000;stroke-width:0.5;" x="118.943949945" xlink:href="#m5a7d422ac3" y="142.628571429"/>
      </g>
     </g>
     <g id="text_16">
      <!-- 5162 -->
      <g transform="translate(108.981279442 270.11849838)scale(0.1 -0.1)">
       <use transform="scale(0.9962640099626402)" xlink:href="#CMR17-53"/>
       <use transform="translate(45.69047711706103 0.0)scale(0.9962640099626402)" xlink:href="#CMR17-49"/>
       <use transform="translate(91.38095423412206 0.0)scale(0.9962640099626402)" xlink:href="#CMR17-54"/>
       <use transform="translate(137.07143135118307 0.0)scale(0.9962640099626402)" xlink:href="#CMR17-50"/>
      </g>
     </g>
    </g>
    <g id="xtick_9">
     <g id="line2d_47">
      <g>
       <use style="stroke:#000000;stroke-width:0.5;" x="155.911007435" xlink:href="#mc7db9fdffb" y="259.2"/>
      </g>
     </g>
     <g id="line2d_48">
      <g>
       <use style="stroke:#000000;stroke-width:0.5;" x="155.911007435" xlink:href="#m5a7d422ac3" y="142.628571429"/>
      </g>
     </g>
     <g id="text_17">
      <!-- 5162 -->
      <g transform="translate(145.948336932 270.11849838)scale(0.1 -0.1)">
       <use transform="scale(0.9962640099626402)" xlink:href="#CMR17-53"/>
       <use transform="translate(45.69047711706103 0.0)scale(0.9962640099626402)" xlink:href="#CMR17-49"/>
       <use transform="translate(91.38095423412206 0.0)scale(0.9962640099626402)" xlink:href="#CMR17-54"/>
       <use transform="translate(137.07143135118307 0.0)scale(0.9962640099626402)" xlink:href="#CMR17-50"/>
      </g>
     </g>
    </g>
    <g id="xtick_10">
     <g id="line2d_49">
      <g>
       <use style="stroke:#000000;stroke-width:0.5;" x="192.878064926" xlink:href="#mc7db9fdffb" y="259.2"/>
      </g>
     </g>
     <g id="line2d_50">
      <g>
       <use style="stroke:#000000;stroke-width:0.5;" x="192.878064926" xlink:href="#m5a7d422ac3" y="142.628571429"/>
      </g>
     </g>
     <g id="text_18">
      <!-- 5163 -->
      <defs>
       <path d="
M22.0938 33.7031
C31 33.7031 34.9062 25.9688 34.9062 17.0312
C34.9062 5 28.5 0.390625 22.7031 0.390625
C17.4062 0.390625 8.79688 3.03125 6.09375 10.8281
C6.59375 10.625 7.09375 10.625 7.59375 10.625
C10 10.625 11.7969 12.2188 11.7969 14.8125
C11.7969 17.7031 9.59375 19 7.59375 19
C5.90625 19 3.29688 18.2031 3.29688 14.4688
C3.29688 5.23438 12.2969 -2 22.9062 -2
C34 -2 42.5 6.71875 42.5 16.9531
C42.5 26.6719 34.5 33.6875 25 34.7969
C32.5938 36.375 39.9062 43.0625 39.9062 52.0156
C39.9062 59.6875 32 65.2969 23 65.2969
C13.9062 65.2969 5.90625 59.8281 5.90625 52.0156
C5.90625 48.5938 8.5 48 9.79688 48
C11.9062 48 13.7031 49.2969 13.7031 51.8906
C13.7031 54.4688 11.9062 55.7656 9.79688 55.7656
C9.40625 55.7656 8.90625 55.7656 8.5 55.5625
C11.4062 61.8594 19.2969 63 22.7969 63
C26.2969 63 32.9062 61.3281 32.9062 51.875
C32.9062 49.1094 32.5 44.1875 29.0938 39.8438
C26.0938 36 22.7031 36 19.4062 35.5938
C18.9062 35.5938 16.5938 35.5938 16.2031 35.5938
C15.5 35.4844 15.0938 35.3906 15.0938 34.5938
C15.0938 33.8125 15.2031 33.7031 17.2031 33.7031
z
" id="CMR17-51"/>
      </defs>
      <g transform="translate(182.915394422 270.11849838)scale(0.1 -0.1)">
       <use transform="scale(0.9962640099626402)" xlink:href="#CMR17-53"/>
       <use transform="translate(45.69047711706103 0.0)scale(0.9962640099626402)" xlink:href="#CMR17-49"/>
       <use transform="translate(91.38095423412206 0.0)scale(0.9962640099626402)" xlink:href="#CMR17-54"/>
       <use transform="translate(137.07143135118307 0.0)scale(0.9962640099626402)" xlink:href="#CMR17-51"/>
      </g>
     </g>
    </g>
    <g id="text_19">
     <!-- $\lambda$ [\AA] -->
     <g transform="translate(114.930373708 285.735620816)scale(0.1 -0.1)">
      <use transform="scale(0.9962640099626402)" xlink:href="#CMMI12-21"/>
      <use transform="translate(86.98003823552305 0.0)scale(0.9962640099626402)" xlink:href="#CMR17-91"/>
      <use transform="translate(111.85109671738793 17.61874416251557)scale(0.9962640099626402)" xlink:href="#CMR17-23"/>
      <use transform="translate(111.85109671738793 0.0)scale(0.9962640099626402)" xlink:href="#CMR17-65"/>
      <use transform="translate(180.92352652163763 0.0)scale(0.9962640099626402)" xlink:href="#CMR17-93"/>
     </g>
    </g>
   </g>
   <g id="matplotlib.axis_4">
    <g id="ytick_8">
     <g id="line2d_51">
      <g>
       <use style="stroke:#000000;stroke-width:0.5;" x="37.8" xlink:href="#md7965d1ba0" y="244.135524497"/>
      </g>
     </g>
     <g id="line2d_52">
      <g>
       <use style="stroke:#000000;stroke-width:0.5;" x="214.2" xlink:href="#md9a1c1a7cd" y="244.135524497"/>
      </g>
     </g>
     <g id="text_20">
      <!-- $-2$ -->
      <g transform="translate(21.0699210237 246.626184522)scale(0.1 -0.1)">
       <use transform="scale(0.9962640099626402)" xlink:href="#CMSY10-0"/>
       <use transform="translate(77.4874676506071 0.0)scale(0.9962640099626402)" xlink:href="#CMR17-50"/>
      </g>
     </g>
    </g>
    <g id="ytick_9">
     <g id="line2d_53">
      <g>
       <use style="stroke:#000000;stroke-width:0.5;" x="37.8" xlink:href="#md7965d1ba0" y="222.524905106"/>
      </g>
     </g>
     <g id="line2d_54">
      <g>
       <use style="stroke:#000000;stroke-width:0.5;" x="214.2" xlink:href="#md9a1c1a7cd" y="222.524905106"/>
      </g>
     </g>
     <g id="text_21">
      <!-- $-1$ -->
      <g transform="translate(21.0699210237 225.015565131)scale(0.1 -0.1)">
       <use transform="scale(0.9962640099626402)" xlink:href="#CMSY10-0"/>
       <use transform="translate(77.4874676506071 0.0)scale(0.9962640099626402)" xlink:href="#CMR17-49"/>
      </g>
     </g>
    </g>
    <g id="ytick_10">
     <g id="line2d_55">
      <g>
       <use style="stroke:#000000;stroke-width:0.5;" x="37.8" xlink:href="#md7965d1ba0" y="200.914285714"/>
      </g>
     </g>
     <g id="line2d_56">
      <g>
       <use style="stroke:#000000;stroke-width:0.5;" x="214.2" xlink:href="#md9a1c1a7cd" y="200.914285714"/>
      </g>
     </g>
     <g id="text_22">
      <!-- $0$ -->
      <g transform="translate(28.8186647484 203.404945739)scale(0.1 -0.1)">
       <use transform="scale(0.9962640099626402)" xlink:href="#CMR17-48"/>
      </g>
     </g>
    </g>
    <g id="ytick_11">
     <g id="line2d_57">
      <g>
       <use style="stroke:#000000;stroke-width:0.5;" x="37.8" xlink:href="#md7965d1ba0" y="179.303666323"/>
      </g>
     </g>
     <g id="line2d_58">
      <g>
       <use style="stroke:#000000;stroke-width:0.5;" x="214.2" xlink:href="#md9a1c1a7cd" y="179.303666323"/>
      </g>
     </g>
     <g id="text_23">
      <!-- $1$ -->
      <g transform="translate(28.8186647484 181.794326348)scale(0.1 -0.1)">
       <use transform="scale(0.9962640099626402)" xlink:href="#CMR17-49"/>
      </g>
     </g>
    </g>
    <g id="ytick_12">
     <g id="line2d_59">
      <g>
       <use style="stroke:#000000;stroke-width:0.5;" x="37.8" xlink:href="#md7965d1ba0" y="157.693046931"/>
      </g>
     </g>
     <g id="line2d_60">
      <g>
       <use style="stroke:#000000;stroke-width:0.5;" x="214.2" xlink:href="#md9a1c1a7cd" y="157.693046931"/>
      </g>
     </g>
     <g id="text_24">
      <!-- $2$ -->
      <g transform="translate(28.8186647484 160.183706956)scale(0.1 -0.1)">
       <use transform="scale(0.9962640099626402)" xlink:href="#CMR17-50"/>
      </g>
     </g>
    </g>
    <g id="text_25">
     <!-- error [$\%$] -->
     <defs>
      <path d="
M72.5 15
C72.5 26.5312 66.7969 35 60.0938 35
C53.2969 35 46.4062 27.125 46.4062 15
C46.4062 2.85938 53.2031 -5 60.0938 -5
C66.7969 -5 72.5 3.35938 72.5 15
M60.2031 -3.40625
C57.5938 -3.40625 51.0938 -1.03125 51.0938 15
C51.0938 31.1094 57.5938 33.4062 60.2031 33.4062
C65.7031 33.4062 70.7031 25.5312 70.7031 15
C70.7031 4.45312 65.7031 -3.40625 60.2031 -3.40625
M63.7969 71.5156
C64.5 72.6094 64.5938 72.7031 64.5938 73.2031
C64.5938 74.3906 63.7031 75 62.9062 75
C61.9062 75 61.5 74.3125 60.7969 73.5312
C55 65.4688 47 64.5938 42.9062 64.5938
C32.9062 64.5938 26.7969 70.2188 24.9062 71.9844
C23.5938 73.1562 21.7031 75 18.2969 75
C11.5 75 4.59375 67.125 4.59375 55
C4.59375 42.8594 11.4062 35 18.2969 35
C25 35 30.7031 43.4062 30.7031 55.1094
C30.7031 62.0156 28.5938 66.7188 28.2969 67.3125
C34.4062 63.5 40.4062 63 43 63
C49.4062 63 54 65.3594 56.5 67.0156
L56.5938 66.9219
L13.4062 -1.3125
C12.5 -2.71875 12.5 -2.92188 12.5 -3.21875
C12.5 -4.3125 13.4062 -5 14.2969 -5
C15.2031 -5 15.5 -4.51562 16.2031 -3.40625
z

M18.4062 36.5938
C15.7969 36.5938 9.29688 38.9688 9.29688 55
C9.29688 71.1094 15.7969 73.4062 18.4062 73.4062
C23.9062 73.4062 28.9062 65.5312 28.9062 55
C28.9062 44.4531 23.9062 36.5938 18.4062 36.5938" id="CMR17-37"/>
     </defs>
     <g transform="translate(13.5792609988 220.050889843)rotate(-90.0)scale(0.1 -0.1)">
      <use transform="scale(0.9962640099626402)" xlink:href="#CMR17-101"/>
      <use transform="translate(40.48566046271794 0.0)scale(0.9962640099626402)" xlink:href="#CMR17-114"/>
      <use transform="translate(75.7664282621809 0.0)scale(0.9962640099626402)" xlink:href="#CMR17-114"/>
      <use transform="translate(111.04719606164385 0.0)scale(0.9962640099626402)" xlink:href="#CMR17-111"/>
      <use transform="translate(156.73767317870488 0.0)scale(0.9962640099626402)" xlink:href="#CMR17-114"/>
      <use transform="translate(222.09440732507008 0.0)scale(0.9962640099626402)" xlink:href="#CMR17-91"/>
      <use transform="translate(246.96546580693496 0.0)scale(0.9962640099626402)" xlink:href="#CMR17-37"/>
      <use transform="translate(323.88505567500783 0.0)scale(0.9962640099626402)" xlink:href="#CMR17-93"/>
     </g>
    </g>
   </g>
   <g id="patch_8">
    <path d="
M37.8 142.629
L214.2 142.629" style="fill:none;stroke:#000000;"/>
   </g>
   <g id="patch_9">
    <path d="
M214.2 259.2
L214.2 142.629" style="fill:none;stroke:#000000;"/>
   </g>
   <g id="patch_10">
    <path d="
M37.8 259.2
L37.8 142.629" style="fill:none;stroke:#000000;"/>
   </g>
   <g id="patch_11">
    <path d="
M37.8 259.2
L214.2 259.2" style="fill:none;stroke:#000000;"/>
   </g>
  </g>
 </g>
 <defs>
  <clipPath id="p38817c7671">
   <rect height="116.571428571" width="176.4" x="37.8" y="14.4"/>
  </clipPath>
  <clipPath id="pa454c67c66">
   <rect height="116.571428571" width="176.4" x="37.8" y="142.628571429"/>
  </clipPath>
 </defs>
</svg>
