<?xml version="1.0" encoding="utf-8" standalone="no"?>
<!DOCTYPE svg PUBLIC "-//W3C//DTD SVG 1.1//EN"
  "http://www.w3.org/Graphics/SVG/1.1/DTD/svg11.dtd">
<!-- Created with matplotlib (http://matplotlib.org/) -->
<svg height="144pt" version="1.1" viewBox="0 0 252 144" width="252pt" xmlns="http://www.w3.org/2000/svg" xmlns:xlink="http://www.w3.org/1999/xlink">
 <defs>
  <style type="text/css">
*{stroke-linecap:butt;stroke-linejoin:round;}
  </style>
 </defs>
 <g id="figure_1">
  <g id="patch_1">
   <path d="
M0 144
L252 144
L252 0
L0 0
z
" style="fill:#ffffff;"/>
  </g>
  <g id="axes_1">
   <g id="patch_2">
    <path d="
M42.84 112.32
L226.8 112.32
L226.8 14.4
L42.84 14.4
z
" style="fill:#ffffff;"/>
   </g>
   <g id="patch_3">
    <path clip-path="url(#p6b0fa3c084)" d="
M165.48 23.3018
L169.159 30.4233
L165.483 30.4233
L165.483 112.32
L165.477 112.32
L165.477 30.4233
L161.801 30.4233
z
" style="fill:#808080;stroke:#808080;"/>
   </g>
   <g id="line2d_1">
    <path clip-path="url(#p6b0fa3c084)" d="
M42.5935 112.317
L58.3087 112.193
L63.8552 111.946
L67.5529 111.591
L70.3262 111.15
L73.0994 110.489
L75.8727 109.524
L77.7215 108.662
L79.5704 107.586
L81.4192 106.26
L83.2681 104.646
L85.1169 102.707
L86.9657 100.408
L88.8146 97.7184
L90.6634 94.615
L92.5123 91.0839
L94.3611 87.1236
L96.21 82.7475
L98.9832 75.4757
L101.757 67.5236
L111.001 40.2868
L112.85 35.6466
L114.698 31.5887
L116.547 28.2339
L117.472 26.8533
L118.396 25.6855
L119.321 24.7398
L120.245 24.0237
L121.169 23.5431
L122.094 23.3018
L123.018 23.3018
L123.943 23.5431
L124.867 24.0237
L125.791 24.7398
L126.716 25.6855
L127.64 26.8533
L128.565 28.2339
L130.414 31.5887
L132.262 35.6466
L134.111 40.2868
L136.885 48.0478
L142.431 64.7671
L146.129 75.4757
L148.902 82.7475
L150.751 87.1236
L152.6 91.0839
L154.449 94.615
L156.297 97.7184
L158.146 100.408
L159.995 102.707
L161.844 104.646
L163.693 106.26
L165.542 107.586
L167.39 108.662
L169.239 109.524
L172.013 110.489
L174.786 111.15
L177.559 111.591
L181.257 111.946
L186.803 112.193
L196.048 112.303
L214.536 112.32
L214.536 112.32" style="fill:none;stroke:#808080;stroke-dasharray:1.000000,3.000000;stroke-dashoffset:0.0;stroke-width:2;"/>
   </g>
   <g id="line2d_2">
    <path clip-path="url(#p6b0fa3c084)" d="
M42.5935 112.32
L91.5879 112.32
L92.5123 104.088
L93.4367 99.0611
L95.2855 91.534
L99.9077 74.8223
L104.53 58.6298
L107.303 49.5832
L110.076 41.4521
L111.925 36.696
L113.774 32.5669
L115.623 29.1339
L117.472 26.4538
L118.396 25.4102
L119.321 24.5703
L120.245 23.9373
L121.169 23.5139
L122.094 23.3018
L123.018 23.3018
L123.943 23.5139
L124.867 23.9373
L125.791 24.5703
L126.716 25.4102
L127.64 26.4538
L128.565 27.6967
L130.414 30.7596
L132.262 34.5485
L134.111 39.0005
L135.96 44.0406
L138.733 52.5135
L141.507 61.7901
L147.053 81.4384
L150.751 95.1118
L151.675 99.0611
L152.6 104.088
L153.524 112.32
L214.536 112.32
L214.536 112.32" style="fill:none;stroke:#808080;stroke-dasharray:6.000000,6.000000;stroke-dashoffset:0.0;stroke-width:2;"/>
   </g>
   <g id="line2d_3">
    <path clip-path="url(#p6b0fa3c084)" d="
M42.5935 -777.862" style="fill:none;stroke:#808080;stroke-linecap:square;stroke-width:2;"/>
   </g>
   <g id="line2d_4">
    <path clip-path="url(#p6b0fa3c084)" d="
M73.5 112.312
L87.3663 112.185
L93.8373 111.913
L98.4594 111.484
L102.157 110.894
L104.93 110.241
L107.704 109.351
L110.477 108.162
L112.326 107.172
L114.175 106.001
L116.023 104.63
L117.872 103.039
L119.721 101.213
L121.57 99.1357
L123.419 96.7969
L125.268 94.1893
L128.041 89.7707
L130.814 84.7608
L133.587 79.2091
L136.361 73.1993
L140.983 62.5
L147.454 47.3763
L150.227 41.3811
L153 35.9694
L154.849 32.7805
L156.698 29.9873
L158.547 27.6353
L160.396 25.7637
L162.245 24.4038
L163.169 23.9232
L164.093 23.5785
L165.018 23.3711
L165.942 23.3018
L166.867 23.3711
L167.791 23.5785
L168.715 23.9232
L169.64 24.4038
L171.489 25.7637
L173.338 27.6353
L175.186 29.9873
L177.035 32.7805
L178.884 35.9694
L181.657 41.3811
L184.431 47.3763
L189.053 58.1162
L195.524 73.1993
L198.297 79.2091
L201.07 84.7608
L203.844 89.7707
L206.617 94.1893
L208.466 96.7969
L210.314 99.1357
L212.163 101.213
L214.012 103.039
L215.861 104.63
L217.71 106.001
L219.559 107.172
L222.332 108.595
L225.105 109.677
L226.954 110.241
L226.954 110.241" style="fill:none;stroke:#000000;stroke-linecap:square;stroke-width:2;"/>
   </g>
   <g id="matplotlib.axis_1">
    <g id="xtick_1">
     <g id="line2d_5">
      <defs>
       <path d="
M0 0
L0 -4" id="mc7db9fdffb" style="stroke:#000000;stroke-width:0.5;"/>
      </defs>
      <g>
       <use style="stroke:#000000;stroke-width:0.5;" x="61.236" xlink:href="#mc7db9fdffb" y="112.32"/>
      </g>
     </g>
     <g id="line2d_6">
      <defs>
       <path d="
M0 0
L0 4" id="m5a7d422ac3" style="stroke:#000000;stroke-width:0.5;"/>
      </defs>
      <g>
       <use style="stroke:#000000;stroke-width:0.5;" x="61.236" xlink:href="#m5a7d422ac3" y="14.4"/>
      </g>
     </g>
     <g id="text_1">
      <!-- $-10$ -->
      <defs>
       <path d="
M26.5938 63.3125
C26.5938 65.4062 26.5 65.5 25.0938 65.5
C21.2031 61.1875 15.2969 59.7969 9.70312 59.7969
C9.40625 59.7969 8.90625 59.7969 8.79688 59.6094
C8.70312 59.3906 8.70312 59.1719 8.70312 57
C11.7969 57 17 57.5938 21 59.9844
L21 7.20312
C21 3.6875 20.7969 2.5 12.2031 2.5
L9.20312 2.5
L9.20312 0
C14 0 19 0 23.7969 0
C28.5938 0 33.5938 0 38.4062 0
L38.4062 2.5
L35.4062 2.5
C26.7969 2.5 26.5938 3.59375 26.5938 7.15625
z
" id="CMR17-49"/>
       <path d="
M42 31.6406
C42 37.75 41.9062 48.125 37.7031 56.1094
C34 63.1094 28.0938 65.5938 22.9062 65.5938
C18.0938 65.5938 12 63.4062 8.20312 56.2031
C4.20312 48.7188 3.79688 39.4375 3.79688 31.6406
C3.79688 25.9531 3.90625 17.2812 7 9.67188
C11.2969 -0.609375 19 -2 22.9062 -2
C27.5 -2 34.5 -0.109375 38.5938 9.375
C41.5938 16.2812 42 24.3594 42 31.6406
M22.9062 -0.40625
C16.5 -0.40625 12.7031 5.07812 11.2969 12.6875
C10.2031 18.5625 10.2031 27.1562 10.2031 32.75
C10.2031 40.4375 10.2031 46.8281 11.5 52.9219
C13.4062 61.3906 19 64 22.9062 64
C27 64 32.2969 61.2969 34.2031 53.125
C35.5 47.4375 35.5938 40.7344 35.5938 32.75
C35.5938 26.25 35.5938 18.2656 34.4062 12.375
C32.2969 1.48438 26.4062 -0.40625 22.9062 -0.40625" id="CMR17-48"/>
       <path d="
M65.9062 23
C67.5938 23 69.4062 23 69.4062 25
C69.4062 27 67.5938 27 65.9062 27
L11.7969 27
C10.0938 27 8.29688 27 8.29688 25
C8.29688 23 10.0938 23 11.7969 23
z
" id="CMSY10-0"/>
      </defs>
      <g transform="translate(52.3802928861 123.23849838)scale(0.1 -0.1)">
       <use transform="scale(0.9962640099626402)" xlink:href="#CMSY10-0"/>
       <use transform="translate(77.4874676506071 0.0)scale(0.9962640099626402)" xlink:href="#CMR17-49"/>
       <use transform="translate(123.17794476766814 0.0)scale(0.9962640099626402)" xlink:href="#CMR17-48"/>
      </g>
     </g>
    </g>
    <g id="xtick_2">
     <g id="line2d_7">
      <g>
       <use style="stroke:#000000;stroke-width:0.5;" x="91.896" xlink:href="#mc7db9fdffb" y="112.32"/>
      </g>
     </g>
     <g id="line2d_8">
      <g>
       <use style="stroke:#000000;stroke-width:0.5;" x="91.896" xlink:href="#m5a7d422ac3" y="14.4"/>
      </g>
     </g>
     <g id="text_2">
      <!-- $-5$ -->
      <defs>
       <path d="
M11.4062 57.6875
C12.4062 57.2812 16.5 56 20.7031 56
C30 56 35.0938 61.0156 38 63.9219
C38 64.7344 38 65.25 37.4062 65.25
C37.2969 65.25 37.0938 65.25 36.2969 64.8281
C32.7969 63.3125 28.7031 62.0781 23.7031 62.0781
C20.7031 62.0781 16.2031 62.5 11.2969 64.7344
C10.2031 65.25 10 65.25 9.90625 65.25
C9.40625 65.25 9.29688 65.1406 9.29688 63.1562
L9.29688 34.2812
C9.29688 32.5 9.29688 32 10.2969 32
C10.7969 32 11 32.2031 11.5 32.9062
C14.7031 37.4844 19.0938 39.4062 24.0938 39.4062
C27.5938 39.4062 35.0938 37.2188 35.0938 20.1406
C35.0938 16.9531 35.0938 11.1719 32.0938 6.57812
C29.5938 2.48438 25.7031 0.390625 21.4062 0.390625
C14.7969 0.390625 8.09375 5 6.29688 12.7188
C6.70312 12.6094 7.5 12.4219 7.90625 12.4219
C9.20312 12.4219 11.7031 13.125 11.7031 16.2188
C11.7031 18.9062 9.79688 20 7.90625 20
C5.59375 20 4.09375 18.5938 4.09375 15.7969
C4.09375 7.09375 11 -2 21.5938 -2
C31.9062 -2 41.7031 6.875 41.7031 19.75
C41.7031 31.7188 33.9062 41 24.2031 41
C19.0938 41 14.7969 39.0938 11.4062 35.4531
z
" id="CMR17-53"/>
      </defs>
      <g transform="translate(85.5309605119 123.23849838)scale(0.1 -0.1)">
       <use transform="scale(0.9962640099626402)" xlink:href="#CMSY10-0"/>
       <use transform="translate(77.4874676506071 0.0)scale(0.9962640099626402)" xlink:href="#CMR17-53"/>
      </g>
     </g>
    </g>
    <g id="xtick_3">
     <g id="line2d_9">
      <g>
       <use style="stroke:#000000;stroke-width:0.5;" x="122.556" xlink:href="#mc7db9fdffb" y="112.32"/>
      </g>
     </g>
     <g id="line2d_10">
      <g>
       <use style="stroke:#000000;stroke-width:0.5;" x="122.556" xlink:href="#m5a7d422ac3" y="14.4"/>
      </g>
     </g>
     <g id="text_3">
      <!-- $0$ -->
      <g transform="translate(120.065332374 123.23849838)scale(0.1 -0.1)">
       <use transform="scale(0.9962640099626402)" xlink:href="#CMR17-48"/>
      </g>
     </g>
    </g>
    <g id="xtick_4">
     <g id="line2d_11">
      <g>
       <use style="stroke:#000000;stroke-width:0.5;" x="153.216" xlink:href="#mc7db9fdffb" y="112.32"/>
      </g>
     </g>
     <g id="line2d_12">
      <g>
       <use style="stroke:#000000;stroke-width:0.5;" x="153.216" xlink:href="#m5a7d422ac3" y="14.4"/>
      </g>
     </g>
     <g id="text_4">
      <!-- $5$ -->
      <g transform="translate(150.725332374 123.23849838)scale(0.1 -0.1)">
       <use transform="scale(0.9962640099626402)" xlink:href="#CMR17-53"/>
      </g>
     </g>
    </g>
    <g id="xtick_5">
     <g id="line2d_13">
      <g>
       <use style="stroke:#000000;stroke-width:0.5;" x="183.876" xlink:href="#mc7db9fdffb" y="112.32"/>
      </g>
     </g>
     <g id="line2d_14">
      <g>
       <use style="stroke:#000000;stroke-width:0.5;" x="183.876" xlink:href="#m5a7d422ac3" y="14.4"/>
      </g>
     </g>
     <g id="text_5">
      <!-- $10$ -->
      <g transform="translate(178.894664748 123.23849838)scale(0.1 -0.1)">
       <use transform="scale(0.9962640099626402)" xlink:href="#CMR17-49"/>
       <use transform="translate(45.69047711706103 0.0)scale(0.9962640099626402)" xlink:href="#CMR17-48"/>
      </g>
     </g>
    </g>
    <g id="xtick_6">
     <g id="line2d_15">
      <g>
       <use style="stroke:#000000;stroke-width:0.5;" x="214.536" xlink:href="#mc7db9fdffb" y="112.32"/>
      </g>
     </g>
     <g id="line2d_16">
      <g>
       <use style="stroke:#000000;stroke-width:0.5;" x="214.536" xlink:href="#m5a7d422ac3" y="14.4"/>
      </g>
     </g>
     <g id="text_6">
      <!-- $15$ -->
      <g transform="translate(209.554664748 123.23849838)scale(0.1 -0.1)">
       <use transform="scale(0.9962640099626402)" xlink:href="#CMR17-49"/>
       <use transform="translate(45.69047711706103 0.0)scale(0.9962640099626402)" xlink:href="#CMR17-53"/>
      </g>
     </g>
    </g>
    <g id="text_7">
     <!-- $\Delta v$ [$\textrm{km s}^{-1}$] -->
     <defs>
      <path d="
M23.5 -25
L23.5 -21.5156
L14.0938 -21.5156
L14.0938 71
L23.5 71
L23.5 74.4844
L10.5938 74.4844
L10.5938 -25
z
" id="CMR17-91"/>
      <path d="
M67.5938 30.2031
C67.5938 35.1875 66.7031 43.5938 54.7969 43.5938
C48 43.5938 43.2969 39 41.5 33.5938
L41.4062 33.5938
C40.2031 41.7969 34.2969 43.5938 28.7031 43.5938
C20.7969 43.5938 16.7031 37.5625 15.2031 33.5938
L15.0938 33.5938
L15.0938 43.5938
L3.29688 42.5
L3.29688 39.9062
C9.20312 39.9062 10.0938 39.2969 10.0938 34.5
L10.0938 6.6875
C10.0938 2.875 9.70312 2.39062 3.29688 2.39062
L3.29688 -0.203125
C5.70312 0 10.0938 0 12.7031 0
C15.2969 0 19.7969 0 22.2031 -0.203125
L22.2031 2.39062
C15.7969 2.39062 15.4062 2.78125 15.4062 6.6875
L15.4062 25.9062
C15.4062 35.1094 21 42 28 42
C35.4062 42 36.2031 35.4062 36.2031 30.5938
L36.2031 6.6875
C36.2031 2.875 35.7969 2.39062 29.4062 2.39062
L29.4062 -0.203125
C31.7969 0 36.2031 0 38.7969 0
C41.4062 0 45.9062 0 48.2969 -0.203125
L48.2969 2.39062
C41.9062 2.39062 41.5 2.78125 41.5 6.6875
L41.5 25.9062
C41.5 35.1094 47.0938 42 54.0938 42
C61.5 42 62.2969 35.4062 62.2969 30.5938
L62.2969 6.6875
C62.2969 2.875 61.9062 2.39062 55.5 2.39062
L55.5 -0.203125
C57.9062 0 62.2969 0 64.9062 0
C67.5 0 72 0 74.4062 -0.203125
L74.4062 2.39062
C68 2.39062 67.5938 2.78125 67.5938 6.6875
z
" id="CMR17-109"/>
      <path d="
M14.2969 74.4844
L1.40625 74.4844
L1.40625 71
L10.7969 71
L10.7969 -21.5156
L1.40625 -21.5156
L1.40625 -25
L14.2969 -25
z
" id="CMR17-93"/>
      <path d="
M45.7031 37.3281
C45.7031 43.6094 42.5 44 41.7031 44
C39.2969 44 37.0938 41.6094 37.0938 39.6094
C37.0938 38.4219 37.7969 37.7188 38.2031 37.3281
C39.2031 36.4219 41.7969 33.7344 41.7969 28.5469
C41.7969 24.3438 35.7969 1 23.7969 1
C17.7031 1 16.5 6.09375 16.5 9.78125
C16.5 14.7656 18.7969 21.75 21.5 28.9375
C23.0938 33.0312 23.5 34.0312 23.5 36.0156
C23.5 40.2188 20.5 44 15.5938 44
C6.40625 44 2.70312 29.5312 2.70312 28.7344
C2.70312 28.3438 3.09375 27.8438 3.79688 27.8438
C4.70312 27.8438 4.79688 28.2344 5.20312 29.6406
C7.59375 38.2188 11.5 42.0156 15.2969 42.0156
C16.2031 42.0156 17.9062 42.0156 17.9062 38.7188
C17.9062 36.125 16.7969 33.2344 15.2969 29.4375
C10.5 16.6719 10.5 13.5781 10.5 11.1719
C10.5 8.98438 10.7969 4.89062 13.9062 2.09375
C17.5 -1 22.5 -1 23.4062 -1
C40 -1 45.7031 31.625 45.7031 37.3281" id="CMMI12-118"/>
      <path d="
M26.0938 26.1406
C26 26.3438 25.5 26.9375 25.5 27.2344
C25.5 27.4375 32.5938 33.9219 33.5 34.7188
C39.2031 39.5 42.7969 40 45.4062 40
L45.4062 42.6875
C44.7969 42.6875 44.5938 42.6875 44.5 42.6875
L39.5938 42.6875
C36.7969 42.6875 32.5 42.6875 29.7969 42.6875
L29.7969 40.0938
C31.2031 39.9844 32.2031 39.1875 32.2031 37.7969
C32.2031 35.8125 30.2031 33.9219 30.0938 33.9219
L15 20.1562
L15 68.6875
L3.09375 67.5938
L3.09375 65
C9 65 9.90625 64.4062 9.90625 59.6406
L9.90625 6.65625
C9.90625 2.875 9.5 2.39062 3.09375 2.39062
L3.09375 -0.203125
C5.5 0 9.90625 0 12.4062 0
C14.9062 0 19.2969 0 21.7031 -0.203125
L21.7031 2.39062
C15.2969 2.39062 14.9062 2.78125 14.9062 6.6875
L14.9062 17.6562
L21.7969 23.9375
L31.9062 8.96875
C33.0938 7.17188 34.0938 5.76562 34.0938 4.46875
C34.0938 2.6875 32.2969 2.39062 31.0938 2.39062
L31.0938 -0.203125
C33.5 0 37.7969 0 40.2969 0
C42.0938 0 45.7969 0 47.5 0
L47.5 2.39062
C42.7969 2.39062 41.7031 3.28125 38.7031 7.67188
z
" id="CMR17-107"/>
      <path d="
M30.9062 42.1094
C30.9062 43.9062 30.7969 44 30.2031 44
C29.7969 44 29.7031 43.9062 28.5 42.4219
C28.2031 42.0156 27.2969 41.0156 27 40.625
C23.7969 44 19.2969 44 17.5938 44
C6.5 44 2.5 38.1719 2.5 32.375
C2.5 23.3438 12.7031 21.25 15.5938 20.6406
C21.9062 19.3438 24.0938 18.9375 26.2031 17.125
C27.5 15.9375 29.7031 13.7344 29.7031 10.125
C29.7031 5.90625 27.2969 0.5 18.0938 0.5
C9.40625 0.5 6.29688 7.0625 4.5 15.8281
C4.20312 17.2188 4.20312 17.3281 3.40625 17.3281
C2.59375 17.3281 2.5 17.2188 2.5 15.2344
L2.5 0.890625
C2.5 -0.890625 2.59375 -1 3.20312 -1
C3.70312 -1 3.79688 -0.890625 4.29688 -0.09375
C4.90625 0.796875 6.40625 3.1875 7 4.1875
C9 1.54688 12.5 -1 18.0938 -1
C28 -1 33.2969 4.40625 33.2969 12.2344
C33.2969 17.3438 30.5938 20.0625 29.2969 21.25
C26.2969 24.375 22.7969 25.0625 18.5938 25.8594
C13.0938 27.0781 6.09375 28.4688 6.09375 34.5938
C6.09375 37.1875 7.5 42.7188 17.5938 42.7188
C28.2969 42.7188 28.9062 32.75 29.0938 29.5625
C29.2031 29.0781 29.7031 28.9688 30 28.9688
C30.9062 28.9688 30.9062 29.2812 30.9062 30.9688
z
" id="CMR17-115"/>
      <path d="
M40.5938 68.7969
C39.7969 70.5 39.4062 70.5 38.5938 70.5
C37.4062 70.5 37.2969 70.2969 36.5938 68.8906
L4.20312 1.70312
C4.09375 1.5 3.70312 0.59375 3.70312 0.5
C3.70312 0.09375 3.79688 0 5.59375 0
L71.5 0
C73.2969 0 73.4062 0.09375 73.4062 0.5
C73.4062 0.59375 73 1.5 72.9062 1.70312
z

M36.0938 62.9219
L63.7969 5.59375
L8.29688 5.59375
z
" id="CMR17-1"/>
     </defs>
     <g transform="translate(107.894299015 139.125467655)scale(0.1 -0.1)">
      <use transform="scale(0.9962640099626402)" xlink:href="#CMR17-1"/>
      <use transform="translate(76.91958986807286 0.0)scale(0.9962640099626402)" xlink:href="#CMMI12-118"/>
      <use transform="translate(157.73072961258563 0.0)scale(0.9962640099626402)" xlink:href="#CMR17-91"/>
      <use transform="translate(182.6017880944505 0.0)scale(0.9962640099626402)" xlink:href="#CMR17-107"/>
      <use transform="translate(230.89470394224784 0.0)scale(0.9962640099626402)" xlink:href="#CMR17-109"/>
      <use transform="translate(337.89026015722294 0.0)scale(0.9962640099626402)" xlink:href="#CMR17-115"/>
      <use transform="translate(373.691597792458 42.258522727272734)scale(0.6973817666173724)" xlink:href="#CMSY10-0"/>
      <use transform="translate(427.9325910404344 42.258522727272734)scale(0.6973817666173724)" xlink:href="#CMR17-49"/>
      <use transform="translate(460.41390500953463 0.0)scale(0.9962640099626402)" xlink:href="#CMR17-93"/>
     </g>
    </g>
   </g>
   <g id="matplotlib.axis_2">
    <g id="ytick_1">
     <g id="line2d_17">
      <defs>
       <path d="
M0 0
L4 0" id="md7965d1ba0" style="stroke:#000000;stroke-width:0.5;"/>
      </defs>
      <g>
       <use style="stroke:#000000;stroke-width:0.5;" x="42.84" xlink:href="#md7965d1ba0" y="112.32"/>
      </g>
     </g>
     <g id="line2d_18">
      <defs>
       <path d="
M0 0
L-4 0" id="md9a1c1a7cd" style="stroke:#000000;stroke-width:0.5;"/>
      </defs>
      <g>
       <use style="stroke:#000000;stroke-width:0.5;" x="226.8" xlink:href="#md9a1c1a7cd" y="112.32"/>
      </g>
     </g>
     <g id="text_8">
      <!-- $0.0$ -->
      <defs>
       <path d="
M18.4062 4.79688
C18.4062 7.6875 16 9.67188 13.5938 9.67188
C10.7031 9.67188 8.70312 7.28125 8.70312 4.89062
C8.70312 2 11.0938 0 13.5 0
C16.4062 0 18.4062 2.39062 18.4062 4.79688" id="CMMI12-58"/>
      </defs>
      <g transform="translate(26.1099210237 114.810660025)scale(0.1 -0.1)">
       <use transform="scale(0.9962640099626402)" xlink:href="#CMR17-48"/>
       <use transform="translate(45.69047711706103 0.0)scale(0.9962640099626402)" xlink:href="#CMMI12-58"/>
       <use transform="translate(72.78765420688046 0.0)scale(0.9962640099626402)" xlink:href="#CMR17-48"/>
      </g>
     </g>
    </g>
    <g id="ytick_2">
     <g id="line2d_19">
      <g>
       <use style="stroke:#000000;stroke-width:0.5;" x="42.84" xlink:href="#md7965d1ba0" y="94.5163636364"/>
      </g>
     </g>
     <g id="line2d_20">
      <g>
       <use style="stroke:#000000;stroke-width:0.5;" x="226.8" xlink:href="#md9a1c1a7cd" y="94.5163636364"/>
      </g>
     </g>
     <g id="text_9">
      <!-- $0.2$ -->
      <defs>
       <path d="
M41.7031 15.4531
L39.9062 15.4531
C38.9062 8.375 38.0938 7.17188 37.7031 6.5625
C37.2031 5.76562 30 5.76562 28.5938 5.76562
L9.40625 5.76562
C13 9.67188 20 16.75 28.5 24.9531
C34.5938 30.7344 41.7031 37.5312 41.7031 47.4219
C41.7031 59.2188 32.2969 66 21.7969 66
C10.7969 66 4.09375 56.3125 4.09375 47.3438
C4.09375 43.4375 7 42.9375 8.20312 42.9375
C9.20312 42.9375 12.2031 43.5469 12.2031 47.0312
C12.2031 50.1094 9.59375 51 8.20312 51
C7.59375 51 7 50.9062 6.59375 50.7031
C8.5 59.2188 14.2969 63.4062 20.4062 63.4062
C29.0938 63.4062 34.7969 56.5156 34.7969 47.4219
C34.7969 38.7344 29.7031 31.25 24 24.75
L4.09375 2.28125
L4.09375 0
L39.2969 0
z
" id="CMR17-50"/>
      </defs>
      <g transform="translate(26.1099210237 97.0070236613)scale(0.1 -0.1)">
       <use transform="scale(0.9962640099626402)" xlink:href="#CMR17-48"/>
       <use transform="translate(45.69047711706103 0.0)scale(0.9962640099626402)" xlink:href="#CMMI12-58"/>
       <use transform="translate(72.78765420688046 0.0)scale(0.9962640099626402)" xlink:href="#CMR17-50"/>
      </g>
     </g>
    </g>
    <g id="ytick_3">
     <g id="line2d_21">
      <g>
       <use style="stroke:#000000;stroke-width:0.5;" x="42.84" xlink:href="#md7965d1ba0" y="76.7127272727"/>
      </g>
     </g>
     <g id="line2d_22">
      <g>
       <use style="stroke:#000000;stroke-width:0.5;" x="226.8" xlink:href="#md9a1c1a7cd" y="76.7127272727"/>
      </g>
     </g>
     <g id="text_10">
      <!-- $0.4$ -->
      <defs>
       <path d="
M33.5938 64.3281
C33.5938 66.4062 33.5 66.5 31.7031 66.5
L2 19.5938
L2 17
L27.7969 17
L27.7969 7.14062
C27.7969 3.5 27.5938 2.5 20.5938 2.5
L18.7031 2.5
L18.7031 0
C21.9062 0 27.2969 0 30.7031 0
C34.0938 0 39.5 0 42.7031 0
L42.7031 2.5
L40.7969 2.5
C33.7969 2.5 33.5938 3.5 33.5938 7.14062
L33.5938 17
L43.7969 17
L43.7969 19.5938
L33.5938 19.5938
z

M28.0938 57.7656
L28.0938 19.5938
L4 19.5938
z
" id="CMR17-52"/>
      </defs>
      <g transform="translate(26.1099210237 79.2033872976)scale(0.1 -0.1)">
       <use transform="scale(0.9962640099626402)" xlink:href="#CMR17-48"/>
       <use transform="translate(45.69047711706103 0.0)scale(0.9962640099626402)" xlink:href="#CMMI12-58"/>
       <use transform="translate(72.78765420688046 0.0)scale(0.9962640099626402)" xlink:href="#CMR17-52"/>
      </g>
     </g>
    </g>
    <g id="ytick_4">
     <g id="line2d_23">
      <g>
       <use style="stroke:#000000;stroke-width:0.5;" x="42.84" xlink:href="#md7965d1ba0" y="58.9090909091"/>
      </g>
     </g>
     <g id="line2d_24">
      <g>
       <use style="stroke:#000000;stroke-width:0.5;" x="226.8" xlink:href="#md9a1c1a7cd" y="58.9090909091"/>
      </g>
     </g>
     <g id="text_11">
      <!-- $0.6$ -->
      <defs>
       <path d="
M10.5938 34
C10.5938 57.6562 21.7969 63 28.2969 63
C30.4062 63 35.5 62.6406 37.5 59
C35.9062 59 32.9062 59 32.9062 55.5156
C32.9062 52.8281 35.0938 51.9219 36.5 51.9219
C37.4062 51.9219 40.0938 52.3125 40.0938 55.625
C40.0938 61.7812 35.0938 65.2969 28.2031 65.2969
C16.2969 65.2969 3.79688 52.9688 3.79688 31
C3.79688 3.95312 15.0938 -2 23.0938 -2
C32.7969 -2 42 6.67188 42 20.0469
C42 32.5156 33.9062 41.5938 23.7031 41.5938
C17.5938 41.5938 13.0938 37.6094 10.5938 30.625
z

M23.0938 0.390625
C10.7969 0.390625 10.7969 18.75 10.7969 22.4375
C10.7969 29.625 14.2031 40 23.5 40
C25.2031 40 30.0938 40 33.4062 33.125
C35.2031 29.2188 35.2031 25.1406 35.2031 20.1406
C35.2031 14.75 35.2031 10.7812 33.0938 6.78125
C30.9062 2.67188 27.7031 0.390625 23.0938 0.390625" id="CMR17-54"/>
      </defs>
      <g transform="translate(26.1099210237 61.399750934)scale(0.1 -0.1)">
       <use transform="scale(0.9962640099626402)" xlink:href="#CMR17-48"/>
       <use transform="translate(45.69047711706103 0.0)scale(0.9962640099626402)" xlink:href="#CMMI12-58"/>
       <use transform="translate(72.78765420688046 0.0)scale(0.9962640099626402)" xlink:href="#CMR17-54"/>
      </g>
     </g>
    </g>
    <g id="ytick_5">
     <g id="line2d_25">
      <g>
       <use style="stroke:#000000;stroke-width:0.5;" x="42.84" xlink:href="#md7965d1ba0" y="41.1054545455"/>
      </g>
     </g>
     <g id="line2d_26">
      <g>
       <use style="stroke:#000000;stroke-width:0.5;" x="226.8" xlink:href="#md9a1c1a7cd" y="41.1054545455"/>
      </g>
     </g>
     <g id="text_12">
      <!-- $0.8$ -->
      <defs>
       <path d="
M27.2031 35.375
C33.5 38.5625 39.9062 43.3281 39.9062 50.9844
C39.9062 60.0312 31.0938 65.2969 23 65.2969
C13.9062 65.2969 5.90625 58.7344 5.90625 49.6875
C5.90625 47.2031 6.5 42.9219 10.4062 39.1406
C11.4062 38.1562 15.5938 35.1719 18.2969 33.2812
C13.7969 30.9844 3.29688 25.5312 3.29688 14.5938
C3.29688 4.35938 13.0938 -2 22.7969 -2
C33.5 -2 42.5 5.65625 42.5 15.7969
C42.5 24.8438 36.4062 29.0312 32.4062 31.7031
z

M14.0938 44.125
C13.2969 44.625 9.29688 47.7031 9.29688 52.375
C9.29688 58.4375 15.5938 63 22.7969 63
C30.7031 63 36.5 57.4531 36.5 50.9844
C36.5 41.7344 26.0938 36.4688 25.5938 36.4688
C25.5 36.4688 25.4062 36.4688 24.5938 37.0781
z

M32.5 23.7344
C34 22.6406 38.7969 19.375 38.7969 13.2969
C38.7969 5.95312 31.4062 0.390625 23 0.390625
C13.9062 0.390625 7 6.84375 7 14.6875
C7 22.5469 13.0938 29.0938 20 32.1875
z
" id="CMR17-56"/>
      </defs>
      <g transform="translate(26.1099210237 43.5961145704)scale(0.1 -0.1)">
       <use transform="scale(0.9962640099626402)" xlink:href="#CMR17-48"/>
       <use transform="translate(45.69047711706103 0.0)scale(0.9962640099626402)" xlink:href="#CMMI12-58"/>
       <use transform="translate(72.78765420688046 0.0)scale(0.9962640099626402)" xlink:href="#CMR17-56"/>
      </g>
     </g>
    </g>
    <g id="ytick_6">
     <g id="line2d_27">
      <g>
       <use style="stroke:#000000;stroke-width:0.5;" x="42.84" xlink:href="#md7965d1ba0" y="23.3018181818"/>
      </g>
     </g>
     <g id="line2d_28">
      <g>
       <use style="stroke:#000000;stroke-width:0.5;" x="226.8" xlink:href="#md9a1c1a7cd" y="23.3018181818"/>
      </g>
     </g>
     <g id="text_13">
      <!-- $1.0$ -->
      <g transform="translate(26.1099210237 25.7924782067)scale(0.1 -0.1)">
       <use transform="scale(0.9962640099626402)" xlink:href="#CMR17-49"/>
       <use transform="translate(45.69047711706103 0.0)scale(0.9962640099626402)" xlink:href="#CMMI12-58"/>
       <use transform="translate(72.78765420688046 0.0)scale(0.9962640099626402)" xlink:href="#CMR17-48"/>
      </g>
     </g>
    </g>
   </g>
   <g id="patch_4">
    <path d="
M226.8 112.32
L226.8 14.4" style="fill:none;stroke:#000000;"/>
   </g>
   <g id="patch_5">
    <path d="
M42.84 112.32
L226.8 112.32" style="fill:none;stroke:#000000;"/>
   </g>
   <g id="patch_6">
    <path d="
M42.84 112.32
L42.84 14.4" style="fill:none;stroke:#000000;"/>
   </g>
   <g id="patch_7">
    <path d="
M42.84 14.4
L226.8 14.4" style="fill:none;stroke:#000000;"/>
   </g>
   <g id="legend_1">
    <g id="line2d_29">
     <path d="
M51.84 28.7319
L71.84 28.7319" style="fill:none;stroke:#808080;stroke-dasharray:1.000000,3.000000;stroke-dashoffset:0.0;stroke-width:2;"/>
    </g>
    <g id="line2d_30"/>
    <g id="text_14">
     <!-- $\mathcal{F}_v^{\rm inst}$ -->
     <defs>
      <path d="
M15.5 61.0781
C15.5 63.2656 13.7031 65.1562 11.4062 65.1562
C9.20312 65.1562 7.29688 63.375 7.29688 61.0781
C7.29688 58.8906 9.09375 57 11.4062 57
C13.5938 57 15.5 58.7969 15.5 61.0781
M3.79688 42.2812
L3.79688 39.7031
C9.40625 39.7031 10.2031 39.0938 10.2031 34.3281
L10.2031 6.67188
C10.2031 2.875 9.79688 2.39062 3.40625 2.39062
L3.40625 -0.203125
C5.79688 0 10.0938 0 12.5938 0
C15 0 19.0938 0 21.4062 -0.203125
L21.4062 2.39062
C15.5 2.39062 15.2969 2.98438 15.2969 6.5625
L15.2969 43.375
z
" id="CMR17-105"/>
      <path d="
M41.5 30.2031
C41.5 35.2969 40.5 43.5938 28.7031 43.5938
C20.7969 43.5938 16.7031 37.5 15.2031 33.5
L15.0938 33.5
L15.0938 43.5938
L3.29688 42.5
L3.29688 39.9062
C9.20312 39.9062 10.0938 39.2969 10.0938 34.5
L10.0938 6.6875
C10.0938 2.875 9.70312 2.39062 3.29688 2.39062
L3.29688 -0.203125
C5.70312 0 10.0938 0 12.7031 0
C15.2969 0 19.7969 0 22.2031 -0.203125
L22.2031 2.39062
C15.7969 2.39062 15.4062 2.78125 15.4062 6.6875
L15.4062 25.9062
C15.4062 35.1094 21 42 28 42
C35.4062 42 36.2031 35.4062 36.2031 30.5938
L36.2031 6.6875
C36.2031 2.875 35.7969 2.39062 29.4062 2.39062
L29.4062 -0.203125
C31.7969 0 36.2031 0 38.7969 0
C41.4062 0 45.9062 0 48.2969 -0.203125
L48.2969 2.39062
C41.9062 2.39062 41.5 2.78125 41.5 6.6875
z
" id="CMR17-110"/>
      <path d="
M15.0938 40
L29.0938 40
L29.0938 42.5781
L15.0938 42.5781
L15.0938 61
L13.2969 61
C13.0938 50.7031 9.59375 41.6875 1.09375 41.6875
L1.09375 40
L9.79688 40
L9.79688 12.0469
C9.79688 10.1562 9.79688 -1 21.4062 -1
C27.2969 -1 30.7031 4.78125 30.7031 12.1406
L30.7031 17.8125
L28.9062 17.8125
L28.9062 12.2344
C28.9062 5.375 26.2031 0.796875 22 0.796875
C19.0938 0.796875 15.0938 2.78125 15.0938 11.8438
z
" id="CMR17-116"/>
      <path d="
M83 64.7031
C83 69.2969 75.2969 68.6094 72.2031 68.6094
L34.5 68.6094
C29.5 68.6094 20.5938 65.7031 19 60.2969
C19.2031 59.6875 19.4062 59.5938 20 59.5938
C22.2031 59.5938 25.2031 61.4531 26.5938 63
C29.7031 63 32.7031 63 35.7969 63
L42 63
C42 63 41.5938 61.2969 41.5938 61.2031
C37.7031 42.9062 31.7969 27.4062 27.4062 17.6094
C26.7969 16.2969 21.4062 3.79688 20 2.60938
C15.5938 2.60938 12.2969 4.98438 10.5 8.875
C10.2031 9.46875 10.2031 9.875 9.5 9.875
C7.20312 9.875 1.70312 6.67188 1.70312 4.98438
C1.70312 4.78125 1.79688 4.59375 1.90625 4.39062
C3.70312 -0.296875 8.20312 -3 13.0938 -3
C18.2031 -3 24.0938 0.6875 27.2969 4.375
C30.5938 8.17188 37.2031 24.5156 39.7969 30.5
L59.0938 30.5
C59 30.3906 58.9062 30.2969 58.9062 30.1875
C58.9062 29.7969 59.5 29.5 59.9062 29.5
C62.0938 29.5 67.7969 32.2969 67.7969 35.3906
C67.7969 36.0938 67.0938 36 65.9062 36
L41.9062 36
C44.5 45 47.9062 53.7969 49.7031 63
L62.9062 63
C65.4062 63 72.4062 63.5 74.2031 61.3438
C74.4062 60.75 74.0938 59.7812 74.4062 59.2969
C74.5938 59.0938 74.9062 58.9844 75.2031 58.9844
C77.5938 58.9844 83 61.9844 83 64.7031" id="CMSY10-70"/>
     </defs>
     <g transform="translate(79.84 32.2318707192)scale(0.1 -0.1)">
      <use transform="translate(0.0 24.629350142045457)scale(0.9962640099626402)" xlink:href="#CMSY10-70"/>
      <use transform="translate(81.49978048626247 60.78298908390411)scale(0.6973817666173724)" xlink:href="#CMR17-105"/>
      <use transform="translate(98.90943933394304 60.78298908390411)scale(0.6973817666173724)" xlink:href="#CMR17-110"/>
      <use transform="translate(134.5360476825187 60.78298908390411)scale(0.6973817666173724)" xlink:href="#CMR17-115"/>
      <use transform="translate(159.5968700138154 60.78298908390411)scale(0.6973817666173724)" xlink:href="#CMR17-116"/>
      <use transform="translate(71.60627809289385 0.0)scale(0.6973817666173724)" xlink:href="#CMMI12-118"/>
     </g>
    </g>
    <g id="line2d_31">
     <path d="
M51.84 44.0996
L71.84 44.0996" style="fill:none;stroke:#808080;stroke-dasharray:6.000000,6.000000;stroke-dashoffset:0.0;stroke-width:2;"/>
    </g>
    <g id="line2d_32"/>
    <g id="text_15">
     <!-- $\mathcal{F}_v^{\rm rot}$ -->
     <defs>
      <path d="
M43.0938 21.1875
C43.0938 34 33.7969 44 22.9062 44
C12 44 2.70312 34 2.70312 21.1875
C2.70312 8.60938 12 -1 22.9062 -1
C33.7969 -1 43.0938 8.60938 43.0938 21.1875
M22.9062 0.796875
C18.2031 0.796875 14.2031 3.59375 11.9062 7.5
C9.40625 11.9844 9.09375 17.5938 9.09375 22
C9.09375 26.2031 9.29688 31.4062 11.9062 35.9062
C13.9062 39.2031 17.7969 42.4062 22.9062 42.4062
C27.4062 42.4062 31.2031 39.9062 33.5938 36.4062
C36.7031 31.7031 36.7031 25.1094 36.7031 22
C36.7031 18.0938 36.5 12.1094 33.7969 7.29688
C31 2.70312 26.7031 0.796875 22.9062 0.796875" id="CMR17-111"/>
      <path d="
M15 23.3906
C15 33 19.0938 42 26.5938 42
C27.2969 42 28 41.9062 28.7031 41.5938
C28.7031 41.5938 26.5 40.8906 26.5 38.3125
C26.5 35.9062 28.4062 34.9062 29.9062 34.9062
C31.0938 34.9062 33.2969 35.6094 33.2969 38.4062
C33.2969 41.6094 30.0938 43.5938 26.7031 43.5938
C19.0938 43.5938 15.7969 36.2031 14.7969 32.7031
L14.7031 32.7031
L14.7031 43.5938
L3.09375 42.5
L3.09375 39.9062
C9 39.9062 9.90625 39.2969 9.90625 34.5
L9.90625 6.6875
C9.90625 2.875 9.5 2.39062 3.09375 2.39062
L3.09375 -0.203125
C5.5 0 10.0938 0 12.7031 0
C15.5938 0 20.7031 0 23.4062 -0.203125
L23.4062 2.39062
C16.2031 2.39062 15 2.39062 15 6.875
z
" id="CMR17-114"/>
     </defs>
     <g transform="translate(79.84 47.5996383192)scale(0.1 -0.1)">
      <use transform="translate(0.0 24.629350142045457)scale(0.9962640099626402)" xlink:href="#CMSY10-70"/>
      <use transform="translate(81.49978048626247 60.78298908390411)scale(0.6973817666173724)" xlink:href="#CMR17-114"/>
      <use transform="translate(106.19620089216221 60.78298908390411)scale(0.6973817666173724)" xlink:href="#CMR17-111"/>
      <use transform="translate(138.17938285628114 60.78298908390411)scale(0.6973817666173724)" xlink:href="#CMR17-116"/>
      <use transform="translate(71.60627809289385 0.0)scale(0.6973817666173724)" xlink:href="#CMMI12-118"/>
     </g>
    </g>
    <g id="line2d_33">
     <path d="
M51.84 58.8685
L71.84 58.8685" style="fill:none;stroke:#808080;stroke-linecap:square;stroke-width:2;"/>
    </g>
    <g id="line2d_34"/>
    <g id="text_16">
     <!-- $\delta_{\rm Dop}$ -->
     <defs>
      <path d="
M22 -16.6094
C15.5938 -16.6094 15.2031 -16.2031 15.2031 -12.3281
L15.2031 6.28125
C18.0938 2.09375 22.2969 -0.59375 27.5938 -0.59375
C37.5938 -0.59375 47.7031 8.17188 47.7031 21.6875
C47.7031 34.2344 39 43.7812 28.7031 43.7812
C22.7031 43.7812 17.7969 40.5 15 36.5312
L15 43.7812
L3.09375 42.6875
L3.09375 40.1094
C9 40.1094 9.90625 39.5 9.90625 34.7344
L9.90625 -12.3281
C9.90625 -16.1094 9.5 -16.6094 3.09375 -16.6094
L3.09375 -19.1875
C5.5 -19 9.90625 -19 12.5 -19
C15.0938 -19 19.5938 -19 22 -19.1875
z

M15.2031 31.4375
C15.2031 32.8438 15.2031 34.9219 19.0938 38.6094
C19.5938 39.0156 23 42 28 42
C35.2969 42 41.2969 32.9375 41.2969 21.5938
C41.2969 10.25 34.9062 1 27 1
C23.4062 1 19.5 2.6875 16.5 7.375
C15.2031 9.5625 15.2031 10.1562 15.2031 11.75
z
" id="CMR17-112"/>
      <path d="
M5.20312 68
L5.20312 65.4062
C12.0938 65.4062 13.2031 65.4062 13.2031 60.9375
L13.2031 7.0625
C13.2031 2.59375 12.0938 2.59375 5.20312 2.59375
L5.20312 0
L37 0
C53.0938 0 66 14.7344 66 33.4531
C66 52.2812 53.2969 68 37 68
z

M23.7969 2.59375
C19.7969 2.59375 19.5938 3.07812 19.5938 6.46875
L19.5938 61.5312
C19.5938 64.9219 19.7969 65.4062 23.7969 65.4062
L35 65.4062
C43.2969 65.4062 58.5938 60.5312 58.5938 33.4531
C58.5938 19.4062 54.5 13.7344 52.5938 11.0469
C50.2031 7.96875 44.5 2.59375 35 2.59375
z
" id="CMR17-68"/>
      <path d="
M26 43.6719
C13.2031 40.5781 4 27.3125 4 15.6406
C4 4.98438 11.2031 -1 19.2031 -1
C31 -1 39 15.1562 39 28.4062
C39 37.375 34.7969 42.875 32.2969 46.1562
C28.5938 50.8438 22.5938 58.5312 22.5938 63.3125
C22.5938 65.0156 23.9062 68 28.2969 68
C31.4062 68 33.2969 66.9062 36.2969 65.2031
C37.2031 64.5938 39.5 63.3125 40.7969 63.3125
C42.9062 63.3125 44.4062 65.3906 44.4062 66.9844
C44.4062 68.8906 42.9062 69.1875 39.4062 69.9844
C34.7031 70.9844 33.2969 70.9844 31.5938 70.9844
C29.9062 70.9844 20.0938 70.9844 20.0938 60.8125
C20.0938 55.9219 22.5938 50.25 26 43.6719
M27.0938 41.7656
C30.9062 33.875 32.4062 30.8906 32.4062 24.4062
C32.4062 16.6406 28.2031 0.984375 19.2969 0.984375
C15.4062 0.984375 9.79688 3.57812 9.79688 12.8438
C9.79688 19.3281 13.5 38.1719 27.0938 41.7656" id="CMMI12-14"/>
     </defs>
     <g transform="translate(79.84 62.3685317024)scale(0.1 -0.1)">
      <use transform="translate(0.0 14.943914544092467)scale(0.9962640099626402)" xlink:href="#CMMI12-14"/>
      <use transform="translate(43.20545695341688 0.0)scale(0.6973817666173724)" xlink:href="#CMR17-68"/>
      <use transform="translate(92.48072718030045 0.0)scale(0.6973817666173724)" xlink:href="#CMR17-111"/>
      <use transform="translate(124.46390914441938 0.0)scale(0.6973817666173724)" xlink:href="#CMR17-112"/>
     </g>
    </g>
    <g id="line2d_35">
     <path d="
M51.84 72.8057
L71.84 72.8057" style="fill:none;stroke:#000000;stroke-linecap:square;stroke-width:2;"/>
    </g>
    <g id="line2d_36"/>
    <g id="text_17">
     <!-- $\varphi_v$ -->
     <defs>
      <path d="
M30.0938 4.375
C28.4062 4.375 26.9062 4.375 26.9062 4.875
C26.9062 5.07812 28.5938 14.4688 29.2031 16.6719
C32.4062 29.4375 40 38.625 48.7031 38.625
C55.2031 38.625 58.2031 33.7344 58.2031 28.25
C58.2031 16.875 45.4062 4.375 30.0938 4.375
M25.7969 -0.796875
C26.4062 -0.890625 27.4062 -1 29.2031 -1
C45.5938 -1 60.7031 14.7656 60.7031 30.5312
C60.7031 36.625 58 44 49.5938 44
C35.2031 44 29.0938 23.7344 23.5 4.96875
C12 7.15625 7.20312 13.25 7.20312 19.9375
C7.20312 22.6406 9.29688 33.3281 15.0938 40.5
C16.2031 41.8125 16.2031 42.0156 16.2031 42.2188
C16.2031 43.0156 15.4062 43.0156 15.2031 43.0156
C12.5 43.0156 4.90625 28.4375 4.90625 18.9531
C4.90625 7.76562 13.7031 1.67188 21.7969 -0.109375
L16.5938 -17
C16.0938 -18.5 16.0938 -18.6875 16.0938 -19.0938
C16.0938 -21.5 18.5 -21.5 18.7031 -21.5
C19.7031 -21.5 21.5 -21.1094 22.2969 -19.1094
C22.5938 -18.2188 25.4062 -2.78125 25.7969 -0.796875" id="CMMI12-39"/>
     </defs>
     <g transform="translate(79.84 76.3057100327)scale(0.1 -0.1)">
      <use transform="translate(0.0 14.943914544092467)scale(0.9962640099626402)" xlink:href="#CMMI12-39"/>
      <use transform="translate(63.903063706413455 0.0)scale(0.6973817666173724)" xlink:href="#CMMI12-118"/>
     </g>
    </g>
   </g>
  </g>
 </g>
 <defs>
  <clipPath id="p6b0fa3c084">
   <rect height="97.92" width="183.96" x="42.84" y="14.4"/>
  </clipPath>
 </defs>
</svg>
