<?xml version="1.0" encoding="utf-8" standalone="no"?>
<!DOCTYPE svg PUBLIC "-//W3C//DTD SVG 1.1//EN"
  "http://www.w3.org/Graphics/SVG/1.1/DTD/svg11.dtd">
<!-- Created with matplotlib (http://matplotlib.org/) -->
<svg height="288pt" version="1.1" viewBox="0 0 288 288" width="288pt" xmlns="http://www.w3.org/2000/svg" xmlns:xlink="http://www.w3.org/1999/xlink">
 <defs>
  <style type="text/css">
*{stroke-linecap:butt;stroke-linejoin:round;}
  </style>
 </defs>
 <g id="figure_1">
  <g id="patch_1">
   <path d="
M0 288
L288 288
L288 0
L0 0
z
" style="fill:#ffffff;"/>
  </g>
  <g id="axes_1">
   <g id="patch_2">
    <path d="
M37.44 121.745
L273.6 121.745
L273.6 14.4
L37.44 14.4
z
" style="fill:#ffffff;"/>
   </g>
   <g id="line2d_1">
    <path clip-path="url(#p9db70328ea)" d="
M36.4616 29.5929
L40.2062 25.4798
L43.9506 32.9085
L47.6948 23.3519
L51.4387 25.8365
L55.1824 33.5291
L58.9258 35.5516
L62.669 32.2361
L66.412 31.6256
L70.1547 37.5468
L73.8971 32.642
L77.6393 28.7008
L81.3813 33.2399
L85.1231 25.9663
L88.8646 21.2831
L92.6058 24.2342
L96.3468 27.6101
L100.088 28.8116
L103.828 32.3839
L107.568 23.6945
L111.308 32.9225
L115.048 37.4521
L118.788 44.9915
L122.527 38.7705
L126.266 30.8255
L130.005 35.0174
L133.744 51.5821
L137.482 68.7762
L141.22 78.7446
L144.958 73.307
L148.695 65.3418
L152.433 41.2364
L156.17 43.8364
L159.907 61.955
L163.643 91.6739
L167.38 104.811
L171.116 90.5391
L174.852 63.5309
L178.588 48.421
L182.323 30.2186
L186.058 31.4971
L189.793 31.3815
L193.528 27.0487
L197.262 35.9733
L200.996 30.2643
L204.73 28.4677
L208.464 29.3394
L212.198 20.8374
L215.931 28.5817
L219.664 26.5654
L223.397 30.9556
L227.129 29.1666
L230.861 30.7457
L234.593 26.0015
L238.325 23.179
L242.057 22.6389
L245.788 29.7866
L249.519 24.9866
L253.25 27.8776
L256.98 32.5605
L260.711 21.2324
L264.441 26.3187
L268.171 31.7103
L271.9 29.4492
L275.629 27.2716" style="fill:none;stroke:#0000ff;stroke-linecap:square;"/>
   </g>
   <g id="line2d_2">
    <path clip-path="url(#p9db70328ea)" d="
M36.4616 27.8039
L40.2062 27.5523
L43.9506 27.4511
L47.6948 27.5463
L51.4387 27.9844
L55.1824 29.1774
L58.9258 31.2749
L62.669 33.42
L66.412 34.5013
L70.1547 34.3907
L73.8971 33.7037
L77.6393 32.8205
L81.3813 31.571
L85.1231 29.9999
L88.8646 28.7303
L92.6058 28.1096
L96.3468 27.8933
L100.088 27.8537
L103.828 28.106
L107.568 29.1859
L111.308 31.8992
L115.048 35.9708
L118.788 39.1728
L122.527 39.4294
L126.266 37.9886
L130.005 40.506
L133.744 52.381
L137.482 70.3185
L141.22 82.3315
L144.958 79.0867
L148.695 63.6672
L152.433 49.7605
L156.17 50.3164
L159.907 66.7191
L163.643 87.5067
L167.38 96.9752
L171.116 87.6566
L174.852 66.2627
L178.588 46.0215
L182.323 34.4375
L186.058 30.1007
L189.793 28.7485
L193.528 28.1217
L197.262 27.7395
L200.996 27.6006
L204.73 27.6582
L208.464 27.7393
L212.198 27.7147
L215.931 27.6198
L219.664 27.5574
L223.397 27.5407
L227.129 27.5122
L230.861 27.4962
L234.593 27.6012
L238.325 27.8504
L242.057 28.1233
L245.788 28.2807
L249.519 28.2714
L253.25 28.131
L256.98 27.958
L260.711 27.9086
L264.441 28.0839
L268.171 28.3722
L271.9 28.5493
L275.629 28.5193" style="fill:none;stroke:#ff0000;stroke-linecap:square;"/>
   </g>
   <g id="matplotlib.axis_1">
    <g id="xtick_1">
     <g id="line2d_3">
      <defs>
       <path d="
M0 0
L0 -4" id="mc7db9fdffb" style="stroke:#000000;stroke-width:0.5;"/>
      </defs>
      <g>
       <use style="stroke:#000000;stroke-width:0.5;" x="37.44" xlink:href="#mc7db9fdffb" y="121.745454545"/>
      </g>
     </g>
     <g id="line2d_4">
      <defs>
       <path d="
M0 0
L0 4" id="m5a7d422ac3" style="stroke:#000000;stroke-width:0.5;"/>
      </defs>
      <g>
       <use style="stroke:#000000;stroke-width:0.5;" x="37.44" xlink:href="#m5a7d422ac3" y="14.4"/>
      </g>
     </g>
    </g>
    <g id="xtick_2">
     <g id="line2d_5">
      <g>
       <use style="stroke:#000000;stroke-width:0.5;" x="76.8" xlink:href="#mc7db9fdffb" y="121.745454545"/>
      </g>
     </g>
     <g id="line2d_6">
      <g>
       <use style="stroke:#000000;stroke-width:0.5;" x="76.8" xlink:href="#m5a7d422ac3" y="14.4"/>
      </g>
     </g>
    </g>
    <g id="xtick_3">
     <g id="line2d_7">
      <g>
       <use style="stroke:#000000;stroke-width:0.5;" x="116.16" xlink:href="#mc7db9fdffb" y="121.745454545"/>
      </g>
     </g>
     <g id="line2d_8">
      <g>
       <use style="stroke:#000000;stroke-width:0.5;" x="116.16" xlink:href="#m5a7d422ac3" y="14.4"/>
      </g>
     </g>
    </g>
    <g id="xtick_4">
     <g id="line2d_9">
      <g>
       <use style="stroke:#000000;stroke-width:0.5;" x="155.52" xlink:href="#mc7db9fdffb" y="121.745454545"/>
      </g>
     </g>
     <g id="line2d_10">
      <g>
       <use style="stroke:#000000;stroke-width:0.5;" x="155.52" xlink:href="#m5a7d422ac3" y="14.4"/>
      </g>
     </g>
    </g>
    <g id="xtick_5">
     <g id="line2d_11">
      <g>
       <use style="stroke:#000000;stroke-width:0.5;" x="194.88" xlink:href="#mc7db9fdffb" y="121.745454545"/>
      </g>
     </g>
     <g id="line2d_12">
      <g>
       <use style="stroke:#000000;stroke-width:0.5;" x="194.88" xlink:href="#m5a7d422ac3" y="14.4"/>
      </g>
     </g>
    </g>
    <g id="xtick_6">
     <g id="line2d_13">
      <g>
       <use style="stroke:#000000;stroke-width:0.5;" x="234.24" xlink:href="#mc7db9fdffb" y="121.745454545"/>
      </g>
     </g>
     <g id="line2d_14">
      <g>
       <use style="stroke:#000000;stroke-width:0.5;" x="234.24" xlink:href="#m5a7d422ac3" y="14.4"/>
      </g>
     </g>
    </g>
    <g id="xtick_7">
     <g id="line2d_15">
      <g>
       <use style="stroke:#000000;stroke-width:0.5;" x="273.6" xlink:href="#mc7db9fdffb" y="121.745454545"/>
      </g>
     </g>
     <g id="line2d_16">
      <g>
       <use style="stroke:#000000;stroke-width:0.5;" x="273.6" xlink:href="#m5a7d422ac3" y="14.4"/>
      </g>
     </g>
    </g>
   </g>
   <g id="matplotlib.axis_2">
    <g id="ytick_1">
     <g id="line2d_17">
      <defs>
       <path d="
M0 0
L4 0" id="md7965d1ba0" style="stroke:#000000;stroke-width:0.5;"/>
      </defs>
      <g>
       <use style="stroke:#000000;stroke-width:0.5;" x="37.44" xlink:href="#md7965d1ba0" y="121.745454545"/>
      </g>
     </g>
     <g id="line2d_18">
      <defs>
       <path d="
M0 0
L-4 0" id="md9a1c1a7cd" style="stroke:#000000;stroke-width:0.5;"/>
      </defs>
      <g>
       <use style="stroke:#000000;stroke-width:0.5;" x="273.6" xlink:href="#md9a1c1a7cd" y="121.745454545"/>
      </g>
     </g>
     <g id="text_1">
      <!-- $1.0$ -->
      <defs>
       <path d="
M18.4062 4.79688
C18.4062 7.6875 16 9.67188 13.5938 9.67188
C10.7031 9.67188 8.70312 7.28125 8.70312 4.89062
C8.70312 2 11.0938 0 13.5 0
C16.4062 0 18.4062 2.39062 18.4062 4.79688" id="CMMI12-58"/>
       <path d="
M42 31.6406
C42 37.75 41.9062 48.125 37.7031 56.1094
C34 63.1094 28.0938 65.5938 22.9062 65.5938
C18.0938 65.5938 12 63.4062 8.20312 56.2031
C4.20312 48.7188 3.79688 39.4375 3.79688 31.6406
C3.79688 25.9531 3.90625 17.2812 7 9.67188
C11.2969 -0.609375 19 -2 22.9062 -2
C27.5 -2 34.5 -0.109375 38.5938 9.375
C41.5938 16.2812 42 24.3594 42 31.6406
M22.9062 -0.40625
C16.5 -0.40625 12.7031 5.07812 11.2969 12.6875
C10.2031 18.5625 10.2031 27.1562 10.2031 32.75
C10.2031 40.4375 10.2031 46.8281 11.5 52.9219
C13.4062 61.3906 19 64 22.9062 64
C27 64 32.2969 61.2969 34.2031 53.125
C35.5 47.4375 35.5938 40.7344 35.5938 32.75
C35.5938 26.25 35.5938 18.2656 34.4062 12.375
C32.2969 1.48438 26.4062 -0.40625 22.9062 -0.40625" id="CMR17-48"/>
       <path d="
M26.5938 63.3125
C26.5938 65.4062 26.5 65.5 25.0938 65.5
C21.2031 61.1875 15.2969 59.7969 9.70312 59.7969
C9.40625 59.7969 8.90625 59.7969 8.79688 59.6094
C8.70312 59.3906 8.70312 59.1719 8.70312 57
C11.7969 57 17 57.5938 21 59.9844
L21 7.20312
C21 3.6875 20.7969 2.5 12.2031 2.5
L9.20312 2.5
L9.20312 0
C14 0 19 0 23.7969 0
C28.5938 0 33.5938 0 38.4062 0
L38.4062 2.5
L35.4062 2.5
C26.7969 2.5 26.5938 3.59375 26.5938 7.15625
z
" id="CMR17-49"/>
      </defs>
      <g transform="translate(18.4823582464 124.734246575)scale(0.12 -0.12)">
       <use transform="scale(0.9962640099626402)" xlink:href="#CMR17-49"/>
       <use transform="translate(45.69047711706103 0.0)scale(0.9962640099626402)" xlink:href="#CMMI12-58"/>
       <use transform="translate(72.78765420688046 0.0)scale(0.9962640099626402)" xlink:href="#CMR17-48"/>
      </g>
     </g>
    </g>
    <g id="ytick_2">
     <g id="line2d_19">
      <g>
       <use style="stroke:#000000;stroke-width:0.5;" x="37.44" xlink:href="#md7965d1ba0" y="103.854545455"/>
      </g>
     </g>
     <g id="line2d_20">
      <g>
       <use style="stroke:#000000;stroke-width:0.5;" x="273.6" xlink:href="#md9a1c1a7cd" y="103.854545455"/>
      </g>
     </g>
     <g id="text_2">
      <!-- $1.2$ -->
      <defs>
       <path d="
M41.7031 15.4531
L39.9062 15.4531
C38.9062 8.375 38.0938 7.17188 37.7031 6.5625
C37.2031 5.76562 30 5.76562 28.5938 5.76562
L9.40625 5.76562
C13 9.67188 20 16.75 28.5 24.9531
C34.5938 30.7344 41.7031 37.5312 41.7031 47.4219
C41.7031 59.2188 32.2969 66 21.7969 66
C10.7969 66 4.09375 56.3125 4.09375 47.3438
C4.09375 43.4375 7 42.9375 8.20312 42.9375
C9.20312 42.9375 12.2031 43.5469 12.2031 47.0312
C12.2031 50.1094 9.59375 51 8.20312 51
C7.59375 51 7 50.9062 6.59375 50.7031
C8.5 59.2188 14.2969 63.4062 20.4062 63.4062
C29.0938 63.4062 34.7969 56.5156 34.7969 47.4219
C34.7969 38.7344 29.7031 31.25 24 24.75
L4.09375 2.28125
L4.09375 0
L39.2969 0
z
" id="CMR17-50"/>
      </defs>
      <g transform="translate(18.4823582464 106.843337484)scale(0.12 -0.12)">
       <use transform="scale(0.9962640099626402)" xlink:href="#CMR17-49"/>
       <use transform="translate(45.69047711706103 0.0)scale(0.9962640099626402)" xlink:href="#CMMI12-58"/>
       <use transform="translate(72.78765420688046 0.0)scale(0.9962640099626402)" xlink:href="#CMR17-50"/>
      </g>
     </g>
    </g>
    <g id="ytick_3">
     <g id="line2d_21">
      <g>
       <use style="stroke:#000000;stroke-width:0.5;" x="37.44" xlink:href="#md7965d1ba0" y="85.9636363636"/>
      </g>
     </g>
     <g id="line2d_22">
      <g>
       <use style="stroke:#000000;stroke-width:0.5;" x="273.6" xlink:href="#md9a1c1a7cd" y="85.9636363636"/>
      </g>
     </g>
     <g id="text_3">
      <!-- $1.4$ -->
      <defs>
       <path d="
M33.5938 64.3281
C33.5938 66.4062 33.5 66.5 31.7031 66.5
L2 19.5938
L2 17
L27.7969 17
L27.7969 7.14062
C27.7969 3.5 27.5938 2.5 20.5938 2.5
L18.7031 2.5
L18.7031 0
C21.9062 0 27.2969 0 30.7031 0
C34.0938 0 39.5 0 42.7031 0
L42.7031 2.5
L40.7969 2.5
C33.7969 2.5 33.5938 3.5 33.5938 7.14062
L33.5938 17
L43.7969 17
L43.7969 19.5938
L33.5938 19.5938
z

M28.0938 57.7656
L28.0938 19.5938
L4 19.5938
z
" id="CMR17-52"/>
      </defs>
      <g transform="translate(18.4823582464 88.9524283935)scale(0.12 -0.12)">
       <use transform="scale(0.9962640099626402)" xlink:href="#CMR17-49"/>
       <use transform="translate(45.69047711706103 0.0)scale(0.9962640099626402)" xlink:href="#CMMI12-58"/>
       <use transform="translate(72.78765420688046 0.0)scale(0.9962640099626402)" xlink:href="#CMR17-52"/>
      </g>
     </g>
    </g>
    <g id="ytick_4">
     <g id="line2d_23">
      <g>
       <use style="stroke:#000000;stroke-width:0.5;" x="37.44" xlink:href="#md7965d1ba0" y="68.0727272727"/>
      </g>
     </g>
     <g id="line2d_24">
      <g>
       <use style="stroke:#000000;stroke-width:0.5;" x="273.6" xlink:href="#md9a1c1a7cd" y="68.0727272727"/>
      </g>
     </g>
     <g id="text_4">
      <!-- $1.6$ -->
      <defs>
       <path d="
M10.5938 34
C10.5938 57.6562 21.7969 63 28.2969 63
C30.4062 63 35.5 62.6406 37.5 59
C35.9062 59 32.9062 59 32.9062 55.5156
C32.9062 52.8281 35.0938 51.9219 36.5 51.9219
C37.4062 51.9219 40.0938 52.3125 40.0938 55.625
C40.0938 61.7812 35.0938 65.2969 28.2031 65.2969
C16.2969 65.2969 3.79688 52.9688 3.79688 31
C3.79688 3.95312 15.0938 -2 23.0938 -2
C32.7969 -2 42 6.67188 42 20.0469
C42 32.5156 33.9062 41.5938 23.7031 41.5938
C17.5938 41.5938 13.0938 37.6094 10.5938 30.625
z

M23.0938 0.390625
C10.7969 0.390625 10.7969 18.75 10.7969 22.4375
C10.7969 29.625 14.2031 40 23.5 40
C25.2031 40 30.0938 40 33.4062 33.125
C35.2031 29.2188 35.2031 25.1406 35.2031 20.1406
C35.2031 14.75 35.2031 10.7812 33.0938 6.78125
C30.9062 2.67188 27.7031 0.390625 23.0938 0.390625" id="CMR17-54"/>
      </defs>
      <g transform="translate(18.4823582464 71.0615193026)scale(0.12 -0.12)">
       <use transform="scale(0.9962640099626402)" xlink:href="#CMR17-49"/>
       <use transform="translate(45.69047711706103 0.0)scale(0.9962640099626402)" xlink:href="#CMMI12-58"/>
       <use transform="translate(72.78765420688046 0.0)scale(0.9962640099626402)" xlink:href="#CMR17-54"/>
      </g>
     </g>
    </g>
    <g id="ytick_5">
     <g id="line2d_25">
      <g>
       <use style="stroke:#000000;stroke-width:0.5;" x="37.44" xlink:href="#md7965d1ba0" y="50.1818181818"/>
      </g>
     </g>
     <g id="line2d_26">
      <g>
       <use style="stroke:#000000;stroke-width:0.5;" x="273.6" xlink:href="#md9a1c1a7cd" y="50.1818181818"/>
      </g>
     </g>
     <g id="text_5">
      <!-- $1.8$ -->
      <defs>
       <path d="
M27.2031 35.375
C33.5 38.5625 39.9062 43.3281 39.9062 50.9844
C39.9062 60.0312 31.0938 65.2969 23 65.2969
C13.9062 65.2969 5.90625 58.7344 5.90625 49.6875
C5.90625 47.2031 6.5 42.9219 10.4062 39.1406
C11.4062 38.1562 15.5938 35.1719 18.2969 33.2812
C13.7969 30.9844 3.29688 25.5312 3.29688 14.5938
C3.29688 4.35938 13.0938 -2 22.7969 -2
C33.5 -2 42.5 5.65625 42.5 15.7969
C42.5 24.8438 36.4062 29.0312 32.4062 31.7031
z

M14.0938 44.125
C13.2969 44.625 9.29688 47.7031 9.29688 52.375
C9.29688 58.4375 15.5938 63 22.7969 63
C30.7031 63 36.5 57.4531 36.5 50.9844
C36.5 41.7344 26.0938 36.4688 25.5938 36.4688
C25.5 36.4688 25.4062 36.4688 24.5938 37.0781
z

M32.5 23.7344
C34 22.6406 38.7969 19.375 38.7969 13.2969
C38.7969 5.95312 31.4062 0.390625 23 0.390625
C13.9062 0.390625 7 6.84375 7 14.6875
C7 22.5469 13.0938 29.0938 20 32.1875
z
" id="CMR17-56"/>
      </defs>
      <g transform="translate(18.4823582464 53.1706102117)scale(0.12 -0.12)">
       <use transform="scale(0.9962640099626402)" xlink:href="#CMR17-49"/>
       <use transform="translate(45.69047711706103 0.0)scale(0.9962640099626402)" xlink:href="#CMMI12-58"/>
       <use transform="translate(72.78765420688046 0.0)scale(0.9962640099626402)" xlink:href="#CMR17-56"/>
      </g>
     </g>
    </g>
    <g id="ytick_6">
     <g id="line2d_27">
      <g>
       <use style="stroke:#000000;stroke-width:0.5;" x="37.44" xlink:href="#md7965d1ba0" y="32.2909090909"/>
      </g>
     </g>
     <g id="line2d_28">
      <g>
       <use style="stroke:#000000;stroke-width:0.5;" x="273.6" xlink:href="#md9a1c1a7cd" y="32.2909090909"/>
      </g>
     </g>
     <g id="text_6">
      <!-- $2.0$ -->
      <g transform="translate(18.4823582464 35.2797011208)scale(0.12 -0.12)">
       <use transform="scale(0.9962640099626402)" xlink:href="#CMR17-50"/>
       <use transform="translate(45.69047711706103 0.0)scale(0.9962640099626402)" xlink:href="#CMMI12-58"/>
       <use transform="translate(72.78765420688046 0.0)scale(0.9962640099626402)" xlink:href="#CMR17-48"/>
      </g>
     </g>
    </g>
    <g id="ytick_7">
     <g id="line2d_29">
      <g>
       <use style="stroke:#000000;stroke-width:0.5;" x="37.44" xlink:href="#md7965d1ba0" y="14.4"/>
      </g>
     </g>
     <g id="line2d_30">
      <g>
       <use style="stroke:#000000;stroke-width:0.5;" x="273.6" xlink:href="#md9a1c1a7cd" y="14.4"/>
      </g>
     </g>
     <g id="text_7">
      <!-- $2.2$ -->
      <g transform="translate(18.4823582464 17.3887920299)scale(0.12 -0.12)">
       <use transform="scale(0.9962640099626402)" xlink:href="#CMR17-50"/>
       <use transform="translate(45.69047711706103 0.0)scale(0.9962640099626402)" xlink:href="#CMMI12-58"/>
       <use transform="translate(72.78765420688046 0.0)scale(0.9962640099626402)" xlink:href="#CMR17-50"/>
      </g>
     </g>
    </g>
    <g id="text_8">
     <!-- $\times10^{-13}$ -->
     <defs>
      <path d="
M38.9062 27.8906
L18.9062 47.7969
C17.7031 49 17.5 49.1875 16.7031 49.1875
C15.7031 49.1875 14.7031 48.2969 14.7031 47.1875
C14.7031 46.5 14.9062 46.2969 16 45.1875
L36 25.0938
L16 5
C14.9062 3.89062 14.7031 3.6875 14.7031 3
C14.7031 1.89062 15.7031 1 16.7031 1
C17.5 1 17.7031 1.1875 18.9062 2.39062
L38.7969 22.2969
L59.5 1.59375
C59.7031 1.5 60.4062 1 61 1
C62.2031 1 63 1.89062 63 3
C63 3.1875 63 3.59375 62.7031 4.09375
C62.5938 4.29688 46.7031 20 41.7031 25.0938
L60 43.3906
C60.5 44 62 45.2969 62.5 45.8906
C62.5938 46.0938 63 46.5 63 47.1875
C63 48.2969 62.2031 49.1875 61 49.1875
C60.2031 49.1875 59.7969 48.7969 58.7031 47.6875
z
" id="CMSY10-2"/>
      <path d="
M22.0938 33.7031
C31 33.7031 34.9062 25.9688 34.9062 17.0312
C34.9062 5 28.5 0.390625 22.7031 0.390625
C17.4062 0.390625 8.79688 3.03125 6.09375 10.8281
C6.59375 10.625 7.09375 10.625 7.59375 10.625
C10 10.625 11.7969 12.2188 11.7969 14.8125
C11.7969 17.7031 9.59375 19 7.59375 19
C5.90625 19 3.29688 18.2031 3.29688 14.4688
C3.29688 5.23438 12.2969 -2 22.9062 -2
C34 -2 42.5 6.71875 42.5 16.9531
C42.5 26.6719 34.5 33.6875 25 34.7969
C32.5938 36.375 39.9062 43.0625 39.9062 52.0156
C39.9062 59.6875 32 65.2969 23 65.2969
C13.9062 65.2969 5.90625 59.8281 5.90625 52.0156
C5.90625 48.5938 8.5 48 9.79688 48
C11.9062 48 13.7031 49.2969 13.7031 51.8906
C13.7031 54.4688 11.9062 55.7656 9.79688 55.7656
C9.40625 55.7656 8.90625 55.7656 8.5 55.5625
C11.4062 61.8594 19.2969 63 22.7969 63
C26.2969 63 32.9062 61.3281 32.9062 51.875
C32.9062 49.1094 32.5 44.1875 29.0938 39.8438
C26.0938 36 22.7031 36 19.4062 35.5938
C18.9062 35.5938 16.5938 35.5938 16.2031 35.5938
C15.5 35.4844 15.0938 35.3906 15.0938 34.5938
C15.0938 33.8125 15.2031 33.7031 17.2031 33.7031
z
" id="CMR17-51"/>
      <path d="
M65.9062 23
C67.5938 23 69.4062 23 69.4062 25
C69.4062 27 67.5938 27 65.9062 27
L11.7969 27
C10.0938 27 8.29688 27 8.29688 25
C8.29688 23 10.0938 23 11.7969 23
z
" id="CMSY10-0"/>
     </defs>
     <g transform="translate(37.44 11.4)scale(0.12 -0.12)">
      <use transform="scale(0.9962640099626402)" xlink:href="#CMSY10-2"/>
      <use transform="translate(77.4874676506071 0.0)scale(0.9962640099626402)" xlink:href="#CMR17-49"/>
      <use transform="translate(123.17794476766814 0.0)scale(0.9962640099626402)" xlink:href="#CMR17-48"/>
      <use transform="translate(168.86842188472914 36.15363894185866)scale(0.6973817666173724)" xlink:href="#CMSY10-0"/>
      <use transform="translate(223.1094151327055 36.15363894185866)scale(0.6973817666173724)" xlink:href="#CMR17-49"/>
      <use transform="translate(255.09259709682442 36.15363894185866)scale(0.6973817666173724)" xlink:href="#CMR17-51"/>
     </g>
    </g>
   </g>
   <g id="patch_3">
    <path d="
M37.44 14.4
L273.6 14.4" style="fill:none;stroke:#000000;"/>
   </g>
   <g id="patch_4">
    <path d="
M37.44 121.745
L273.6 121.745" style="fill:none;stroke:#000000;"/>
   </g>
   <g id="patch_5">
    <path d="
M273.6 121.745
L273.6 14.4" style="fill:none;stroke:#000000;"/>
   </g>
   <g id="patch_6">
    <path d="
M37.44 121.745
L37.44 14.4" style="fill:none;stroke:#000000;"/>
   </g>
   <g id="legend_1">
    <g id="patch_7">
     <path d="
M193.509 115.745
L267.6 115.745
L267.6 78.6963
L193.509 78.6963
L193.509 115.745
z
" style="fill:#ffffff;stroke:#000000;"/>
    </g>
    <g id="line2d_31">
     <path d="
M198.309 87.6963
L222.309 87.6963" style="fill:none;stroke:#0000ff;stroke-linecap:square;"/>
    </g>
    <g id="line2d_32"/>
    <g id="text_9">
     <!-- data -->
     <defs>
      <path d="
M15.0938 40
L29.0938 40
L29.0938 42.5781
L15.0938 42.5781
L15.0938 61
L13.2969 61
C13.0938 50.7031 9.59375 41.6875 1.09375 41.6875
L1.09375 40
L9.79688 40
L9.79688 12.0469
C9.79688 10.1562 9.79688 -1 21.4062 -1
C27.2969 -1 30.7031 4.78125 30.7031 12.1406
L30.7031 17.8125
L28.9062 17.8125
L28.9062 12.2344
C28.9062 5.375 26.2031 0.796875 22 0.796875
C19.0938 0.796875 15.0938 2.78125 15.0938 11.8438
z
" id="CMR17-116"/>
      <path d="
M29.2031 67.5938
L29.2031 65
C35.0938 65 36 64.4062 36 59.6875
L36 36.6406
C35.5938 37.1406 31.5 43.5938 23.4062 43.5938
C13.2031 43.5938 3.29688 34.5 3.29688 21.3125
C3.29688 8.20312 12.5938 -1 22.4062 -1
C30.9062 -1 35.2969 5.26562 35.7969 5.9375
L35.7969 -0.984375
L47.9062 -0.984375
L47.9062 2
C42 2 41.0938 2.59375 41.0938 7.39062
L41.0938 68.6875
z

M35.7969 11.7969
C35.7969 8.79688 34 6.09375 31.7031 4.09375
C28.2969 1.09375 24.9062 0.59375 23 0.59375
C20.0938 0.59375 9.70312 2.09375 9.70312 21.1875
C9.70312 40.8125 21.2969 42 23.9062 42
C28.5 42 32.2031 39.4062 34.5 35.7969
C35.7969 33.7031 35.7969 33.4062 35.7969 31.6094
z
" id="CMR17-100"/>
      <path d="
M36 25.8281
C36 32.375 36 35.8438 31.7969 39.7344
C28.0938 43 23.7969 44 20.4062 44
C12.5 44 6.79688 37.6094 6.79688 30.7969
C6.79688 27 9.79688 27 10.4062 27
C11.7031 27 14 27.7812 14 30.5312
C14 33 12.0938 34.0781 10.4062 34.0781
C10 34.0781 9.5 33.9688 9.20312 33.875
C11.2969 40.5 16.7031 42.4062 20.2031 42.4062
C25.2031 42.4062 30.7031 37.9531 30.7031 29.4531
L30.7031 25
C24.7969 25 17.7031 24.2031 12.0938 21.2031
C5.79688 17.7031 4 12.7031 4 8.90625
C4 1.20312 13 -1 18.2969 -1
C23.7969 -1 28.9062 2.17188 31.0938 7.98438
C31.2969 3.64062 34.0938 -0.28125 38.5 -0.28125
C40.5938 -0.28125 45.9062 1.09375 45.9062 8.85938
L45.9062 14.375
L44.0938 14.375
L44.0938 8.78125
C44.0938 2.78125 41.4062 2 40.0938 2
C36 2 36 7.15625 36 11.5312
z

M30.7031 13.5938
C30.7031 4.95312 24.5 0.59375 19 0.59375
C14 0.59375 10.0938 4.29688 10.0938 8.90625
C10.0938 11.8906 11.4062 17.1875 17.2031 20.3906
C22 23.0938 27.5 23.5 30.7031 23.5
z
" id="CMR17-97"/>
     </defs>
     <g transform="translate(231.909218118 91.896263037)scale(0.12 -0.12)">
      <use transform="scale(0.9962640099626402)" xlink:href="#CMR17-100"/>
      <use transform="translate(50.89536978031601 0.0)scale(0.9962640099626402)" xlink:href="#CMR17-97"/>
      <use transform="translate(96.58584689737704 0.0)scale(0.9962640099626402)" xlink:href="#CMR17-116"/>
      <use transform="translate(131.86661469683997 0.0)scale(0.9962640099626402)" xlink:href="#CMR17-97"/>
     </g>
    </g>
    <g id="line2d_33">
     <path d="
M198.309 104.421
L222.309 104.421" style="fill:none;stroke:#ff0000;stroke-linecap:square;"/>
    </g>
    <g id="line2d_34"/>
    <g id="text_10">
     <!-- model -->
     <defs>
      <path d="
M38.0938 23
C38.5 23.4062 38.5 23.6094 38.5 24.625
C38.5 34.9688 33.0938 44 21.7031 44
C11.0938 44 2.70312 33.8906 2.70312 21.6094
C2.70312 8.60938 12.2031 -1 22.7969 -1
C34 -1 38.4062 9.46875 38.4062 11.5469
C38.4062 12.25 37.7969 12.25 37.5938 12.25
C36.9062 12.25 36.7969 12.0469 36.4062 10.875
C34.2031 4.14062 28.7031 0.796875 23.5 0.796875
C19.2031 0.796875 14.9062 3.17188 12.2031 7.5
C9.09375 12.5469 9.09375 18.375 9.09375 23
z

M9.20312 24.5
C9.90625 39.1406 17.5938 42.4062 21.5938 42.4062
C28.4062 42.4062 33 35.8906 33.0938 24.5
z
" id="CMR17-101"/>
      <path d="
M15.2969 68.6875
L3.40625 67.5938
L3.40625 65
C9.29688 65 10.2031 64.4062 10.2031 59.6406
L10.2031 6.65625
C10.2031 2.875 9.79688 2.39062 3.40625 2.39062
L3.40625 -0.203125
C5.79688 0 10.2031 0 12.7031 0
C15.2969 0 19.7031 0 22.0938 -0.203125
L22.0938 2.39062
C15.7031 2.39062 15.2969 2.78125 15.2969 6.65625
z
" id="CMR17-108"/>
      <path d="
M67.5938 30.2031
C67.5938 35.1875 66.7031 43.5938 54.7969 43.5938
C48 43.5938 43.2969 39 41.5 33.5938
L41.4062 33.5938
C40.2031 41.7969 34.2969 43.5938 28.7031 43.5938
C20.7969 43.5938 16.7031 37.5625 15.2031 33.5938
L15.0938 33.5938
L15.0938 43.5938
L3.29688 42.5
L3.29688 39.9062
C9.20312 39.9062 10.0938 39.2969 10.0938 34.5
L10.0938 6.6875
C10.0938 2.875 9.70312 2.39062 3.29688 2.39062
L3.29688 -0.203125
C5.70312 0 10.0938 0 12.7031 0
C15.2969 0 19.7969 0 22.2031 -0.203125
L22.2031 2.39062
C15.7969 2.39062 15.4062 2.78125 15.4062 6.6875
L15.4062 25.9062
C15.4062 35.1094 21 42 28 42
C35.4062 42 36.2031 35.4062 36.2031 30.5938
L36.2031 6.6875
C36.2031 2.875 35.7969 2.39062 29.4062 2.39062
L29.4062 -0.203125
C31.7969 0 36.2031 0 38.7969 0
C41.4062 0 45.9062 0 48.2969 -0.203125
L48.2969 2.39062
C41.9062 2.39062 41.5 2.78125 41.5 6.6875
L41.5 25.9062
C41.5 35.1094 47.0938 42 54.0938 42
C61.5 42 62.2969 35.4062 62.2969 30.5938
L62.2969 6.6875
C62.2969 2.875 61.9062 2.39062 55.5 2.39062
L55.5 -0.203125
C57.9062 0 62.2969 0 64.9062 0
C67.5 0 72 0 74.4062 -0.203125
L74.4062 2.39062
C68 2.39062 67.5938 2.78125 67.5938 6.6875
z
" id="CMR17-109"/>
      <path d="
M43.0938 21.1875
C43.0938 34 33.7969 44 22.9062 44
C12 44 2.70312 34 2.70312 21.1875
C2.70312 8.60938 12 -1 22.9062 -1
C33.7969 -1 43.0938 8.60938 43.0938 21.1875
M22.9062 0.796875
C18.2031 0.796875 14.2031 3.59375 11.9062 7.5
C9.40625 11.9844 9.09375 17.5938 9.09375 22
C9.09375 26.2031 9.29688 31.4062 11.9062 35.9062
C13.9062 39.2031 17.7969 42.4062 22.9062 42.4062
C27.4062 42.4062 31.2031 39.9062 33.5938 36.4062
C36.7031 31.7031 36.7031 25.1094 36.7031 22
C36.7031 18.0938 36.5 12.1094 33.7969 7.29688
C31 2.70312 26.7031 0.796875 22.9062 0.796875" id="CMR17-111"/>
     </defs>
     <g transform="translate(231.909218118 108.620858791)scale(0.12 -0.12)">
      <use transform="scale(0.9962640099626402)" xlink:href="#CMR17-109"/>
      <use transform="translate(76.91958986807286 0.0)scale(0.9962640099626402)" xlink:href="#CMR17-111"/>
      <use transform="translate(125.2125057158702 0.0)scale(0.9962640099626402)" xlink:href="#CMR17-100"/>
      <use transform="translate(176.10787549618618 0.0)scale(0.9962640099626402)" xlink:href="#CMR17-101"/>
      <use transform="translate(216.59353595890414 0.0)scale(0.9962640099626402)" xlink:href="#CMR17-108"/>
     </g>
    </g>
   </g>
  </g>
  <g id="axes_2">
   <g id="patch_8">
    <path d="
M37.44 250.56
L273.6 250.56
L273.6 143.215
L37.44 143.215
z
" style="fill:#ffffff;"/>
   </g>
   <g id="line2d_35">
    <path clip-path="url(#p12da3c4a5b)" d="
M36.4616 222.957
L40.2062 216.337
L43.9506 229.245
L47.6948 212.699
L51.4387 216.208
L55.1824 227.35
L58.9258 227.221
L62.669 217.86
L66.412 214.96
L70.1547 225.3
L73.8971 218.07
L77.6393 212.828
L81.3813 222.751
L85.1231 212.975
L88.8646 207.123
L92.6058 213.246
L96.3468 219.404
L100.088 221.532
L103.828 227.224
L107.568 210.476
L111.308 221.644
L115.048 222.429
L118.788 229.865
L122.527 218.76
L126.266 207.61
L130.005 210.481
L133.744 218.52
L137.482 217.246
L141.22 213.741
L144.958 209.982
L148.695 222.761
L152.433 205.277
L156.17 208.781
L159.907 211.723
L163.643 227.034
L167.38 233.323
L171.116 224.831
L174.852 215.207
L178.588 224.003
L182.323 212.658
L186.058 222.284
L189.793 224.404
L193.528 218.05
L197.262 234.005
L200.996 224.456
L204.73 221.278
L208.464 222.633
L212.198 208.1
L215.931 221.539
L219.664 218.189
L223.397 225.744
L227.129 222.726
L230.861 225.46
L234.593 217.148
L238.325 211.882
L242.057 210.488
L245.788 222.471
L249.519 214.259
L253.25 219.455
L256.98 227.78
L260.711 208.445
L264.441 216.864
L268.171 225.612
L271.9 221.433
L275.629 217.751" style="fill:none;stroke:#0000ff;stroke-linecap:square;"/>
   </g>
   <g id="line2d_36">
    <path clip-path="url(#p12da3c4a5b)" d="
M-15.9889 219.246
M-1 219.455
L-0.998214 219.451
L2.74886 218.696
L6.49569 203.931
L10.2423 200.284
L13.9886 197.774
L17.7347 197.069
L21.4806 203.056
L25.2262 208.644
L28.9716 224.95
L32.7167 219.454
L36.4616 206.283
L40.2062 221.271
L43.9506 225.334
L47.6948 231.468
L51.4387 222.22
L55.1824 217.373
L58.9258 206.766
L62.669 234.274
L66.412 226.086
L70.1547 221.955
L73.8971 221.463
L77.6393 217.924
L81.3813 233.729
L85.1231 229.482
L88.8646 231.2
L92.6058 222.262
L96.3468 230.349
L100.088 204.958
L103.828 227.021
L107.568 222.635
L111.308 206.154
L115.048 210.328
L118.788 226.241
L122.527 202.188
L126.266 202.515
L130.005 209.526
L133.744 211.176
L137.482 213.694
L141.22 218.546
L144.958 214.203
L148.695 210.159
L152.433 225.395
L156.17 227.24
L159.907 230.087
L163.643 230.66
L167.38 227.097
L171.116 236.925
L174.852 226.768
L178.588 213.748
L182.323 217.593
L186.058 207.203
L189.793 199.806
L193.528 201.453
L197.262 237.526
L200.996 233.39
L204.73 219.472
L208.464 222.119
L212.198 221.297
L215.931 217.64
L219.664 214.406
L223.397 230.513
L227.129 219.234
L230.861 215.614
L234.593 220.803
L238.325 218.023
L242.057 216.816
L245.788 226.495
L249.519 227.709
L253.25 214.12
L256.98 205.851
L260.711 213.096
L264.441 204.901
L268.171 229.133
L271.9 217.231
L275.629 242.396
L279.359 218.781
L283.087 229.597
L286.816 231.185
L289 226.488" style="fill:none;stroke:#000000;stroke-linecap:square;stroke-width:0.4;"/>
   </g>
   <g id="matplotlib.axis_3">
    <g id="xtick_8">
     <g id="line2d_37">
      <g>
       <use style="stroke:#000000;stroke-width:0.5;" x="37.44" xlink:href="#mc7db9fdffb" y="250.56"/>
      </g>
     </g>
     <g id="line2d_38">
      <g>
       <use style="stroke:#000000;stroke-width:0.5;" x="37.44" xlink:href="#m5a7d422ac3" y="143.214545455"/>
      </g>
     </g>
     <g id="text_11">
      <!-- $0.0$ -->
      <g transform="translate(29.9611791232 262.862179814)scale(0.12 -0.12)">
       <use transform="scale(0.9962640099626402)" xlink:href="#CMR17-48"/>
       <use transform="translate(45.69047711706103 0.0)scale(0.9962640099626402)" xlink:href="#CMMI12-58"/>
       <use transform="translate(72.78765420688046 0.0)scale(0.9962640099626402)" xlink:href="#CMR17-48"/>
      </g>
     </g>
    </g>
    <g id="xtick_9">
     <g id="line2d_39">
      <g>
       <use style="stroke:#000000;stroke-width:0.5;" x="76.8" xlink:href="#mc7db9fdffb" y="250.56"/>
      </g>
     </g>
     <g id="line2d_40">
      <g>
       <use style="stroke:#000000;stroke-width:0.5;" x="76.8" xlink:href="#m5a7d422ac3" y="143.214545455"/>
      </g>
     </g>
     <g id="text_12">
      <!-- $0.5$ -->
      <defs>
       <path d="
M11.4062 57.6875
C12.4062 57.2812 16.5 56 20.7031 56
C30 56 35.0938 61.0156 38 63.9219
C38 64.7344 38 65.25 37.4062 65.25
C37.2969 65.25 37.0938 65.25 36.2969 64.8281
C32.7969 63.3125 28.7031 62.0781 23.7031 62.0781
C20.7031 62.0781 16.2031 62.5 11.2969 64.7344
C10.2031 65.25 10 65.25 9.90625 65.25
C9.40625 65.25 9.29688 65.1406 9.29688 63.1562
L9.29688 34.2812
C9.29688 32.5 9.29688 32 10.2969 32
C10.7969 32 11 32.2031 11.5 32.9062
C14.7031 37.4844 19.0938 39.4062 24.0938 39.4062
C27.5938 39.4062 35.0938 37.2188 35.0938 20.1406
C35.0938 16.9531 35.0938 11.1719 32.0938 6.57812
C29.5938 2.48438 25.7031 0.390625 21.4062 0.390625
C14.7969 0.390625 8.09375 5 6.29688 12.7188
C6.70312 12.6094 7.5 12.4219 7.90625 12.4219
C9.20312 12.4219 11.7031 13.125 11.7031 16.2188
C11.7031 18.9062 9.79688 20 7.90625 20
C5.59375 20 4.09375 18.5938 4.09375 15.7969
C4.09375 7.09375 11 -2 21.5938 -2
C31.9062 -2 41.7031 6.875 41.7031 19.75
C41.7031 31.7188 33.9062 41 24.2031 41
C19.0938 41 14.7969 39.0938 11.4062 35.4531
z
" id="CMR17-53"/>
      </defs>
      <g transform="translate(69.3211791232 262.862179814)scale(0.12 -0.12)">
       <use transform="scale(0.9962640099626402)" xlink:href="#CMR17-48"/>
       <use transform="translate(45.69047711706103 0.0)scale(0.9962640099626402)" xlink:href="#CMMI12-58"/>
       <use transform="translate(72.78765420688046 0.0)scale(0.9962640099626402)" xlink:href="#CMR17-53"/>
      </g>
     </g>
    </g>
    <g id="xtick_10">
     <g id="line2d_41">
      <g>
       <use style="stroke:#000000;stroke-width:0.5;" x="116.16" xlink:href="#mc7db9fdffb" y="250.56"/>
      </g>
     </g>
     <g id="line2d_42">
      <g>
       <use style="stroke:#000000;stroke-width:0.5;" x="116.16" xlink:href="#m5a7d422ac3" y="143.214545455"/>
      </g>
     </g>
     <g id="text_13">
      <!-- $1.0$ -->
      <g transform="translate(108.681179123 262.862179814)scale(0.12 -0.12)">
       <use transform="scale(0.9962640099626402)" xlink:href="#CMR17-49"/>
       <use transform="translate(45.69047711706103 0.0)scale(0.9962640099626402)" xlink:href="#CMMI12-58"/>
       <use transform="translate(72.78765420688046 0.0)scale(0.9962640099626402)" xlink:href="#CMR17-48"/>
      </g>
     </g>
    </g>
    <g id="xtick_11">
     <g id="line2d_43">
      <g>
       <use style="stroke:#000000;stroke-width:0.5;" x="155.52" xlink:href="#mc7db9fdffb" y="250.56"/>
      </g>
     </g>
     <g id="line2d_44">
      <g>
       <use style="stroke:#000000;stroke-width:0.5;" x="155.52" xlink:href="#m5a7d422ac3" y="143.214545455"/>
      </g>
     </g>
     <g id="text_14">
      <!-- $1.5$ -->
      <g transform="translate(148.041179123 262.862179814)scale(0.12 -0.12)">
       <use transform="scale(0.9962640099626402)" xlink:href="#CMR17-49"/>
       <use transform="translate(45.69047711706103 0.0)scale(0.9962640099626402)" xlink:href="#CMMI12-58"/>
       <use transform="translate(72.78765420688046 0.0)scale(0.9962640099626402)" xlink:href="#CMR17-53"/>
      </g>
     </g>
    </g>
    <g id="xtick_12">
     <g id="line2d_45">
      <g>
       <use style="stroke:#000000;stroke-width:0.5;" x="194.88" xlink:href="#mc7db9fdffb" y="250.56"/>
      </g>
     </g>
     <g id="line2d_46">
      <g>
       <use style="stroke:#000000;stroke-width:0.5;" x="194.88" xlink:href="#m5a7d422ac3" y="143.214545455"/>
      </g>
     </g>
     <g id="text_15">
      <!-- $2.0$ -->
      <g transform="translate(187.401179123 262.862179814)scale(0.12 -0.12)">
       <use transform="scale(0.9962640099626402)" xlink:href="#CMR17-50"/>
       <use transform="translate(45.69047711706103 0.0)scale(0.9962640099626402)" xlink:href="#CMMI12-58"/>
       <use transform="translate(72.78765420688046 0.0)scale(0.9962640099626402)" xlink:href="#CMR17-48"/>
      </g>
     </g>
    </g>
    <g id="xtick_13">
     <g id="line2d_47">
      <g>
       <use style="stroke:#000000;stroke-width:0.5;" x="234.24" xlink:href="#mc7db9fdffb" y="250.56"/>
      </g>
     </g>
     <g id="line2d_48">
      <g>
       <use style="stroke:#000000;stroke-width:0.5;" x="234.24" xlink:href="#m5a7d422ac3" y="143.214545455"/>
      </g>
     </g>
     <g id="text_16">
      <!-- $2.5$ -->
      <g transform="translate(226.761179123 262.862179814)scale(0.12 -0.12)">
       <use transform="scale(0.9962640099626402)" xlink:href="#CMR17-50"/>
       <use transform="translate(45.69047711706103 0.0)scale(0.9962640099626402)" xlink:href="#CMMI12-58"/>
       <use transform="translate(72.78765420688046 0.0)scale(0.9962640099626402)" xlink:href="#CMR17-53"/>
      </g>
     </g>
    </g>
    <g id="xtick_14">
     <g id="line2d_49">
      <g>
       <use style="stroke:#000000;stroke-width:0.5;" x="273.6" xlink:href="#mc7db9fdffb" y="250.56"/>
      </g>
     </g>
     <g id="line2d_50">
      <g>
       <use style="stroke:#000000;stroke-width:0.5;" x="273.6" xlink:href="#m5a7d422ac3" y="143.214545455"/>
      </g>
     </g>
     <g id="text_17">
      <!-- $3.0$ -->
      <g transform="translate(266.121179123 262.862179814)scale(0.12 -0.12)">
       <use transform="scale(0.9962640099626402)" xlink:href="#CMR17-51"/>
       <use transform="translate(45.69047711706103 0.0)scale(0.9962640099626402)" xlink:href="#CMMI12-58"/>
       <use transform="translate(72.78765420688046 0.0)scale(0.9962640099626402)" xlink:href="#CMR17-48"/>
      </g>
     </g>
    </g>
    <g id="text_18">
     <!-- $\lambda$ (\AA) -->
     <defs>
      <path d="
M26.2969 24.6719
C26.2969 31.8438 25.5938 43.9844 19.5938 56.8281
C14.7969 67.1875 6.59375 74.4531 5.40625 74.4531
C5.09375 74.4531 4.70312 74.3438 4.70312 73.8594
C4.70312 73.6719 4.79688 73.5625 4.90625 73.3594
C9.70312 68.3906 21.9062 55.75 21.9062 24.7969
C21.9062 -6.28125 9.79688 -18.9219 4.90625 -23.9062
C4.79688 -24.0938 4.70312 -24.2031 4.70312 -24.3906
C4.70312 -24.8906 5.09375 -25 5.40625 -25
C6.5 -25 15 -17.625 19.9062 -6.67188
C24.9062 4.375 26.2969 15.125 26.2969 24.6719" id="CMR17-41"/>
      <path d="
M30.9062 61.9531
C28.4062 69 20.5 69 19.2031 69
C18.5938 69 17.5 69 17.5 68
C17.5 67.2188 18.0938 67.1094 18.5938 67.0156
C20.0938 66.8125 21.2969 66.6094 22.9062 63.75
C23.9062 61.8594 34.2031 32.1719 34.2031 31.9688
C34.2031 31.875 34.0938 31.7656 33.2969 30.9688
L7.29688 4.85938
C6.09375 3.65625 5.29688 2.85938 5.29688 1.59375
C5.29688 0.1875 6.5 -1 8.09375 -1
C8.5 -1 9.59375 -0.796875 10.2031 -0.203125
C11.7969 1.28125 26.0938 18.6562 35.2031 29.3906
C37.7969 21.6094 41 12.4531 44.0938 4.07812
C44.5938 2.59375 45.0938 1.1875 46.5 -0.09375
C47.5 -1 47.7031 -1 50.5 -1
L52.4062 -1
C52.7969 -1 53.5 -1 53.5 -0.171875
C53.5 0.265625 53.4062 0.359375 53 0.78125
C52.0938 1.875 51.4062 3.65625 51 4.84375
z
" id="CMMI12-21"/>
      <path d="
M36.2969 68.4062
C35.7969 69.7031 35.5938 70 34.5938 70
C33.5938 70 33.4062 69.7031 32.9062 68.4062
L11.7031 8.84375
C9.79688 3.48438 5.79688 2.39062 2.29688 2.39062
L2.29688 -0.203125
C4.09375 0 8.09375 0 10 0
C12.5 0 16.5 0 18.9062 -0.203125
L18.9062 2.39062
C14.2031 2.39062 13.5 5.64062 13.5 6.85938
C13.5 7.76562 13.7031 8.28125 13.9062 8.89062
L19.2031 24
L45.4062 24
L51.4062 6.90625
C51.9062 5.70312 51.9062 5.5 51.9062 5.10938
C51.9062 2.39062 47.5938 2.39062 45.7031 2.39062
L45.7031 0
C48.5938 0 53.7969 0 56.9062 0
C59.5 0 64.5 0 66.9062 -0.203125
L66.9062 2.39062
C61.5938 2.39062 59.7969 2.39062 58.5 6.04688
z

M32.2969 60.5312
L44.5 26.5938
L20.0938 26.5938
z
" id="CMR17-65"/>
      <path d="
M30.5938 -24.4062
C30.5938 -24.3125 30.5938 -24.1094 30.2969 -23.8125
C25.7031 -19.1406 13.4062 -6.39062 13.4062 24.6719
C13.4062 55.75 25.5 68.3906 30.4062 73.3594
C30.4062 73.4688 30.5938 73.6719 30.5938 73.9531
C30.5938 74.25 30.2969 74.4531 29.9062 74.4531
C28.7969 74.4531 20.2969 67.0781 15.4062 56.125
C10.4062 45.0781 9 34.3281 9 24.7812
C9 17.6094 9.70312 5.46875 15.7031 -7.375
C20.5 -17.7344 28.7031 -25 29.9062 -25
C30.4062 -25 30.5938 -24.7969 30.5938 -24.4062" id="CMR17-40"/>
      <path d="
M43.2969 61.8125
C43.2969 66.7969 39.2969 70.5938 34.5938 70.5938
C29.9062 70.5938 25.9062 66.7969 25.9062 61.8125
C25.9062 56.7969 29.9062 53 34.5938 53
C39.2969 53 43.2969 56.7969 43.2969 61.8125
M34.5938 54.5938
C30.4062 54.5938 27.7031 57.1875 27.7031 61.8125
C27.7031 66.5 30.5 69 34.5938 69
C38.7969 69 41.5 66.4062 41.5 61.8125
C41.5 57.0938 38.7031 54.5938 34.5938 54.5938" id="CMR17-23"/>
     </defs>
     <g transform="translate(141.21476554 280.602672011)scale(0.12 -0.12)">
      <use transform="scale(0.9962640099626402)" xlink:href="#CMMI12-21"/>
      <use transform="translate(86.98003823552305 0.0)scale(0.9962640099626402)" xlink:href="#CMR17-40"/>
      <use transform="translate(122.260806034986 17.61874416251557)scale(0.9962640099626402)" xlink:href="#CMR17-23"/>
      <use transform="translate(122.260806034986 0.0)scale(0.9962640099626402)" xlink:href="#CMR17-65"/>
      <use transform="translate(191.3332358392357 0.0)scale(0.9962640099626402)" xlink:href="#CMR17-41"/>
     </g>
    </g>
    <g id="text_19">
     <!-- $+5.136{\times}10^{3}$ -->
     <defs>
      <path d="
M37.7031 23.5156
L64.2031 23.5156
C65.5938 23.5156 67.2969 23.5156 67.2969 25.2031
C67.2969 27 65.7031 27 64.2031 27
L37.7031 27
L37.7031 53.3281
C37.7031 54.7188 37.7031 56.4219 36 56.4219
C34.2031 56.4219 34.2031 54.8281 34.2031 53.3281
L34.2031 27
L7.70312 27
C6.29688 27 4.59375 27 4.59375 25.3125
C4.59375 23.5156 6.20312 23.5156 7.70312 23.5156
L34.2031 23.5156
L34.2031 -2.90625
C34.2031 -4.29688 34.2031 -6 35.9062 -6
C37.7031 -6 37.7031 -4.40625 37.7031 -2.90625
z
" id="CMR17-43"/>
     </defs>
     <g transform="translate(212.59307346 276.488955382)scale(0.12 -0.12)">
      <use transform="scale(0.9962640099626402)" xlink:href="#CMR17-43"/>
      <use transform="translate(71.71478841551215 0.0)scale(0.9962640099626402)" xlink:href="#CMR17-53"/>
      <use transform="translate(117.40526553257317 0.0)scale(0.9962640099626402)" xlink:href="#CMMI12-58"/>
      <use transform="translate(144.5024426223926 0.0)scale(0.9962640099626402)" xlink:href="#CMR17-49"/>
      <use transform="translate(190.19291973945363 0.0)scale(0.9962640099626402)" xlink:href="#CMR17-51"/>
      <use transform="translate(235.88339685651465 0.0)scale(0.9962640099626402)" xlink:href="#CMR17-54"/>
      <use transform="translate(281.5738739735757 0.0)scale(0.9962640099626402)" xlink:href="#CMSY10-2"/>
      <use transform="translate(359.0613416241828 0.0)scale(0.9962640099626402)" xlink:href="#CMR17-49"/>
      <use transform="translate(404.7518187412438 0.0)scale(0.9962640099626402)" xlink:href="#CMR17-48"/>
      <use transform="translate(450.4422958583048 36.15363894185866)scale(0.6973817666173724)" xlink:href="#CMR17-51"/>
     </g>
    </g>
   </g>
   <g id="matplotlib.axis_4">
    <g id="ytick_8">
     <g id="text_20">
      <!-- $-2$ -->
      <g transform="translate(18.2885203193 253.54879203)scale(0.12 -0.12)">
       <use transform="scale(0.9962640099626402)" xlink:href="#CMSY10-0"/>
       <use transform="translate(77.4874676506071 0.0)scale(0.9962640099626402)" xlink:href="#CMR17-50"/>
      </g>
     </g>
    </g>
    <g id="ytick_9">
     <g id="line2d_51">
      <g>
       <use style="stroke:#000000;stroke-width:0.5;" x="37.44" xlink:href="#md7965d1ba0" y="235.224935065"/>
      </g>
     </g>
     <g id="line2d_52">
      <g>
       <use style="stroke:#000000;stroke-width:0.5;" x="273.6" xlink:href="#md9a1c1a7cd" y="235.224935065"/>
      </g>
     </g>
     <g id="text_21">
      <!-- $-1$ -->
      <g transform="translate(18.2885203193 238.213727095)scale(0.12 -0.12)">
       <use transform="scale(0.9962640099626402)" xlink:href="#CMSY10-0"/>
       <use transform="translate(77.4874676506071 0.0)scale(0.9962640099626402)" xlink:href="#CMR17-49"/>
      </g>
     </g>
    </g>
    <g id="ytick_10">
     <g id="line2d_53">
      <g>
       <use style="stroke:#000000;stroke-width:0.5;" x="37.44" xlink:href="#md7965d1ba0" y="219.88987013"/>
      </g>
     </g>
     <g id="line2d_54">
      <g>
       <use style="stroke:#000000;stroke-width:0.5;" x="273.6" xlink:href="#md9a1c1a7cd" y="219.88987013"/>
      </g>
     </g>
     <g id="text_22">
      <!-- $0$ -->
      <g transform="translate(27.5870097486 222.87866216)scale(0.12 -0.12)">
       <use transform="scale(0.9962640099626402)" xlink:href="#CMR17-48"/>
      </g>
     </g>
    </g>
    <g id="ytick_11">
     <g id="line2d_55">
      <g>
       <use style="stroke:#000000;stroke-width:0.5;" x="37.44" xlink:href="#md7965d1ba0" y="204.554805195"/>
      </g>
     </g>
     <g id="line2d_56">
      <g>
       <use style="stroke:#000000;stroke-width:0.5;" x="273.6" xlink:href="#md9a1c1a7cd" y="204.554805195"/>
      </g>
     </g>
     <g id="text_23">
      <!-- $1$ -->
      <g transform="translate(27.5870097486 207.543597225)scale(0.12 -0.12)">
       <use transform="scale(0.9962640099626402)" xlink:href="#CMR17-49"/>
      </g>
     </g>
    </g>
    <g id="ytick_12">
     <g id="line2d_57">
      <g>
       <use style="stroke:#000000;stroke-width:0.5;" x="37.44" xlink:href="#md7965d1ba0" y="189.21974026"/>
      </g>
     </g>
     <g id="line2d_58">
      <g>
       <use style="stroke:#000000;stroke-width:0.5;" x="273.6" xlink:href="#md9a1c1a7cd" y="189.21974026"/>
      </g>
     </g>
     <g id="text_24">
      <!-- $2$ -->
      <g transform="translate(27.5870097486 192.20853229)scale(0.12 -0.12)">
       <use transform="scale(0.9962640099626402)" xlink:href="#CMR17-50"/>
      </g>
     </g>
    </g>
    <g id="ytick_13">
     <g id="line2d_59">
      <g>
       <use style="stroke:#000000;stroke-width:0.5;" x="37.44" xlink:href="#md7965d1ba0" y="173.884675325"/>
      </g>
     </g>
     <g id="line2d_60">
      <g>
       <use style="stroke:#000000;stroke-width:0.5;" x="273.6" xlink:href="#md9a1c1a7cd" y="173.884675325"/>
      </g>
     </g>
     <g id="text_25">
      <!-- $3$ -->
      <g transform="translate(27.5870097486 176.873467355)scale(0.12 -0.12)">
       <use transform="scale(0.9962640099626402)" xlink:href="#CMR17-51"/>
      </g>
     </g>
    </g>
    <g id="ytick_14">
     <g id="line2d_61">
      <g>
       <use style="stroke:#000000;stroke-width:0.5;" x="37.44" xlink:href="#md7965d1ba0" y="158.54961039"/>
      </g>
     </g>
     <g id="line2d_62">
      <g>
       <use style="stroke:#000000;stroke-width:0.5;" x="273.6" xlink:href="#md9a1c1a7cd" y="158.54961039"/>
      </g>
     </g>
     <g id="text_26">
      <!-- $4$ -->
      <g transform="translate(27.5870097486 161.538402419)scale(0.12 -0.12)">
       <use transform="scale(0.9962640099626402)" xlink:href="#CMR17-52"/>
      </g>
     </g>
    </g>
    <g id="ytick_15">
     <g id="line2d_63">
      <g>
       <use style="stroke:#000000;stroke-width:0.5;" x="37.44" xlink:href="#md7965d1ba0" y="143.214545455"/>
      </g>
     </g>
     <g id="line2d_64">
      <g>
       <use style="stroke:#000000;stroke-width:0.5;" x="273.6" xlink:href="#md9a1c1a7cd" y="143.214545455"/>
      </g>
     </g>
     <g id="text_27">
      <!-- $5$ -->
      <g transform="translate(27.5870097486 146.203337484)scale(0.12 -0.12)">
       <use transform="scale(0.9962640099626402)" xlink:href="#CMR17-53"/>
      </g>
     </g>
    </g>
    <g id="text_28">
     <!-- $f_\lambda$ -->
     <defs>
      <path d="
M44.5938 40.0938
C46.5938 40.0938 47.4062 40.0938 47.4062 42
C47.4062 43 46.5938 43 44.7969 43
L36.7031 43
C38.5938 53.5781 40 60.8906 40.7969 64.1719
C41.4062 66.6406 43.5 69 46.0938 69
C48.2031 69 50.2969 68.0938 51.2969 67.1562
C47.4062 66.75 46.2031 63.7812 46.2031 62.0156
C46.2031 59.9531 47.7031 58.7344 49.5938 58.7344
C51.5938 58.7344 54.5938 60.4688 54.5938 64.3594
C54.5938 68.6406 50.4062 71 46 71
C41.7031 71 37.5 67.7188 35.5 63.7188
C33.7031 60.125 32.7031 56.4375 30.4062 43
L23.7031 43
C21.7969 43 20.7969 43 20.7969 41.2031
C20.7969 40.0938 21.4062 40.0938 23.4062 40.0938
L29.7969 40.0938
C28 30.875 23.9062 8.46875 21.5938 -2.14062
C19.9062 -10.7656 18.4062 -18 13.4062 -18
C13.0938 -18 10.2031 -18 8.40625 -16.1094
C13.5 -15.7031 13.5 -11.3438 13.5 -11.25
C13.5 -9.26562 12 -8.07812 10.0938 -8.07812
C8.09375 -8.07812 5.09375 -9.76562 5.09375 -13.5469
C5.09375 -17.8125 9.5 -20 13.4062 -20
C23.5938 -20 27.7969 -1.84375 28.9062 3.10938
C30.7031 10.75 35.5938 37.125 36.0938 40.0938
z
" id="CMMI12-102"/>
     </defs>
     <g transform="translate(10.9639245651 202.242206983)rotate(-90.0)scale(0.12 -0.12)">
      <use transform="translate(0.0 14.943914544092467)scale(0.9962640099626402)" xlink:href="#CMMI12-102"/>
      <use transform="translate(48.083237663449566 0.0)scale(0.6973817666173724)" xlink:href="#CMMI12-21"/>
     </g>
    </g>
    <g id="text_29">
     <!-- $\times10^{-14}$ -->
     <g transform="translate(37.44 140.214545455)scale(0.12 -0.12)">
      <use transform="scale(0.9962640099626402)" xlink:href="#CMSY10-2"/>
      <use transform="translate(77.4874676506071 0.0)scale(0.9962640099626402)" xlink:href="#CMR17-49"/>
      <use transform="translate(123.17794476766814 0.0)scale(0.9962640099626402)" xlink:href="#CMR17-48"/>
      <use transform="translate(168.86842188472914 36.15363894185866)scale(0.6973817666173724)" xlink:href="#CMSY10-0"/>
      <use transform="translate(223.1094151327055 36.15363894185866)scale(0.6973817666173724)" xlink:href="#CMR17-49"/>
      <use transform="translate(255.09259709682442 36.15363894185866)scale(0.6973817666173724)" xlink:href="#CMR17-52"/>
     </g>
    </g>
   </g>
   <g id="patch_9">
    <path d="
M37.44 143.215
L273.6 143.215" style="fill:none;stroke:#000000;"/>
   </g>
   <g id="patch_10">
    <path d="
M37.44 250.56
L273.6 250.56" style="fill:none;stroke:#000000;"/>
   </g>
   <g id="patch_11">
    <path d="
M273.6 250.56
L273.6 143.215" style="fill:none;stroke:#000000;"/>
   </g>
   <g id="patch_12">
    <path d="
M37.44 250.56
L37.44 143.215" style="fill:none;stroke:#000000;"/>
   </g>
   <g id="legend_2">
    <g id="patch_13">
     <path d="
M43.44 186.264
L126.375 186.264
L126.375 149.215
L43.44 149.215
L43.44 186.264
z
" style="fill:#ffffff;stroke:#000000;"/>
    </g>
    <g id="line2d_65">
     <path d="
M48.24 158.215
L72.24 158.215" style="fill:none;stroke:#0000ff;stroke-linecap:square;"/>
    </g>
    <g id="line2d_66"/>
    <g id="text_30">
     <!-- residual -->
     <defs>
      <path d="
M15 23.3906
C15 33 19.0938 42 26.5938 42
C27.2969 42 28 41.9062 28.7031 41.5938
C28.7031 41.5938 26.5 40.8906 26.5 38.3125
C26.5 35.9062 28.4062 34.9062 29.9062 34.9062
C31.0938 34.9062 33.2969 35.6094 33.2969 38.4062
C33.2969 41.6094 30.0938 43.5938 26.7031 43.5938
C19.0938 43.5938 15.7969 36.2031 14.7969 32.7031
L14.7031 32.7031
L14.7031 43.5938
L3.09375 42.5
L3.09375 39.9062
C9 39.9062 9.90625 39.2969 9.90625 34.5
L9.90625 6.6875
C9.90625 2.875 9.5 2.39062 3.09375 2.39062
L3.09375 -0.203125
C5.5 0 10.0938 0 12.7031 0
C15.5938 0 20.7031 0 23.4062 -0.203125
L23.4062 2.39062
C16.2031 2.39062 15 2.39062 15 6.875
z
" id="CMR17-114"/>
      <path d="
M29.4062 42.0781
L29.4062 39.5
C35.2969 39.5 36.2031 38.8906 36.2031 34.1562
L36.2031 16.125
C36.2031 7.8125 31.7031 0.59375 24.2969 0.59375
C16.0938 0.59375 15.4062 5.4375 15.4062 10.5938
L15.4062 43.1719
L3.29688 42.0781
L3.29688 39.5
C7.29688 39.5 10 39.5 10.0938 35.5312
L10.0938 16.5312
C10.0938 9.89062 10.0938 5.64062 12.7031 2.85938
C14 1.57812 16.5 -1 23.7031 -1
C32.2031 -1 35.5 6.35938 36.2969 8.5
L36.4062 8.5
L36.4062 -0.984375
L48.2969 -0.984375
L48.2969 2
C42.4062 2 41.5 2.59375 41.5 7.39062
L41.5 43.1719
z
" id="CMR17-117"/>
      <path d="
M30.9062 42.1094
C30.9062 43.9062 30.7969 44 30.2031 44
C29.7969 44 29.7031 43.9062 28.5 42.4219
C28.2031 42.0156 27.2969 41.0156 27 40.625
C23.7969 44 19.2969 44 17.5938 44
C6.5 44 2.5 38.1719 2.5 32.375
C2.5 23.3438 12.7031 21.25 15.5938 20.6406
C21.9062 19.3438 24.0938 18.9375 26.2031 17.125
C27.5 15.9375 29.7031 13.7344 29.7031 10.125
C29.7031 5.90625 27.2969 0.5 18.0938 0.5
C9.40625 0.5 6.29688 7.0625 4.5 15.8281
C4.20312 17.2188 4.20312 17.3281 3.40625 17.3281
C2.59375 17.3281 2.5 17.2188 2.5 15.2344
L2.5 0.890625
C2.5 -0.890625 2.59375 -1 3.20312 -1
C3.70312 -1 3.79688 -0.890625 4.29688 -0.09375
C4.90625 0.796875 6.40625 3.1875 7 4.1875
C9 1.54688 12.5 -1 18.0938 -1
C28 -1 33.2969 4.40625 33.2969 12.2344
C33.2969 17.3438 30.5938 20.0625 29.2969 21.25
C26.2969 24.375 22.7969 25.0625 18.5938 25.8594
C13.0938 27.0781 6.09375 28.4688 6.09375 34.5938
C6.09375 37.1875 7.5 42.7188 17.5938 42.7188
C28.2969 42.7188 28.9062 32.75 29.0938 29.5625
C29.2031 29.0781 29.7031 28.9688 30 28.9688
C30.9062 28.9688 30.9062 29.2812 30.9062 30.9688
z
" id="CMR17-115"/>
      <path d="
M15.5 61.0781
C15.5 63.2656 13.7031 65.1562 11.4062 65.1562
C9.20312 65.1562 7.29688 63.375 7.29688 61.0781
C7.29688 58.8906 9.09375 57 11.4062 57
C13.5938 57 15.5 58.7969 15.5 61.0781
M3.79688 42.2812
L3.79688 39.7031
C9.40625 39.7031 10.2031 39.0938 10.2031 34.3281
L10.2031 6.67188
C10.2031 2.875 9.79688 2.39062 3.40625 2.39062
L3.40625 -0.203125
C5.79688 0 10.0938 0 12.5938 0
C15 0 19.0938 0 21.4062 -0.203125
L21.4062 2.39062
C15.5 2.39062 15.2969 2.98438 15.2969 6.5625
L15.2969 43.375
z
" id="CMR17-105"/>
     </defs>
     <g transform="translate(81.84 162.414545455)scale(0.12 -0.12)">
      <use transform="scale(0.9962640099626402)" xlink:href="#CMR17-114"/>
      <use transform="translate(35.28076779946296 0.0)scale(0.9962640099626402)" xlink:href="#CMR17-101"/>
      <use transform="translate(75.7664282621809 0.0)scale(0.9962640099626402)" xlink:href="#CMR17-115"/>
      <use transform="translate(111.56776589741595 0.0)scale(0.9962640099626402)" xlink:href="#CMR17-105"/>
      <use transform="translate(136.43882437928085 0.0)scale(0.9962640099626402)" xlink:href="#CMR17-100"/>
      <use transform="translate(187.33419415959685 0.0)scale(0.9962640099626402)" xlink:href="#CMR17-117"/>
      <use transform="translate(238.22956393991285 0.0)scale(0.9962640099626402)" xlink:href="#CMR17-97"/>
      <use transform="translate(283.9200410569739 0.0)scale(0.9962640099626402)" xlink:href="#CMR17-108"/>
     </g>
    </g>
    <g id="line2d_67">
     <path d="
M48.24 174.939
L72.24 174.939" style="fill:none;stroke:#000000;stroke-linecap:square;stroke-width:0.4;"/>
    </g>
    <g id="line2d_68"/>
    <g id="text_31">
     <!-- sample -->
     <defs>
      <path d="
M22 -16.6094
C15.5938 -16.6094 15.2031 -16.2031 15.2031 -12.3281
L15.2031 6.28125
C18.0938 2.09375 22.2969 -0.59375 27.5938 -0.59375
C37.5938 -0.59375 47.7031 8.17188 47.7031 21.6875
C47.7031 34.2344 39 43.7812 28.7031 43.7812
C22.7031 43.7812 17.7969 40.5 15 36.5312
L15 43.7812
L3.09375 42.6875
L3.09375 40.1094
C9 40.1094 9.90625 39.5 9.90625 34.7344
L9.90625 -12.3281
C9.90625 -16.1094 9.5 -16.6094 3.09375 -16.6094
L3.09375 -19.1875
C5.5 -19 9.90625 -19 12.5 -19
C15.0938 -19 19.5938 -19 22 -19.1875
z

M15.2031 31.4375
C15.2031 32.8438 15.2031 34.9219 19.0938 38.6094
C19.5938 39.0156 23 42 28 42
C35.2969 42 41.2969 32.9375 41.2969 21.5938
C41.2969 10.25 34.9062 1 27 1
C23.4062 1 19.5 2.6875 16.5 7.375
C15.2031 9.5625 15.2031 10.1562 15.2031 11.75
z
" id="CMR17-112"/>
     </defs>
     <g transform="translate(81.84 179.139141209)scale(0.12 -0.12)">
      <use transform="scale(0.9962640099626402)" xlink:href="#CMR17-115"/>
      <use transform="translate(35.80133763523506 0.0)scale(0.9962640099626402)" xlink:href="#CMR17-97"/>
      <use transform="translate(81.49181475229608 0.0)scale(0.9962640099626402)" xlink:href="#CMR17-109"/>
      <use transform="translate(158.41140462036896 0.0)scale(0.9962640099626402)" xlink:href="#CMR17-112"/>
      <use transform="translate(209.30677440068496 0.0)scale(0.9962640099626402)" xlink:href="#CMR17-108"/>
      <use transform="translate(234.17783288254984 0.0)scale(0.9962640099626402)" xlink:href="#CMR17-101"/>
     </g>
    </g>
   </g>
  </g>
 </g>
 <defs>
  <clipPath id="p9db70328ea">
   <rect height="107.345454545" width="236.16" x="37.44" y="14.4"/>
  </clipPath>
  <clipPath id="p12da3c4a5b">
   <rect height="107.345454545" width="236.16" x="37.44" y="143.214545455"/>
  </clipPath>
 </defs>
</svg>
