<?xml version="1.0" encoding="utf-8" standalone="no"?>
<!DOCTYPE svg PUBLIC "-//W3C//DTD SVG 1.1//EN"
  "http://www.w3.org/Graphics/SVG/1.1/DTD/svg11.dtd">
<!-- Created with matplotlib (http://matplotlib.org/) -->
<svg height="194pt" version="1.1" viewBox="0 0 468 194" width="468pt" xmlns="http://www.w3.org/2000/svg" xmlns:xlink="http://www.w3.org/1999/xlink">
 <defs>
  <style type="text/css">
*{stroke-linecap:butt;stroke-linejoin:round;}
  </style>
 </defs>
 <g id="figure_1">
  <g id="patch_1">
   <path d="
M0 194.4
L468 194.4
L468 0
L0 0
z
" style="fill:#ffffff;"/>
  </g>
  <g id="axes_1">
   <g id="patch_2">
    <path d="
M56.16 87.48
L444.6 87.48
L444.6 13.608
L56.16 13.608
z
" style="fill:#ffffff;"/>
   </g>
   <g id="PolyCollection_1">
    <defs>
     <path d="
M182.825 -106.92
L153.27 -106.92
L153.27 -180.792
L182.825 -180.792
L182.825 -180.792
L182.825 -106.92
z
" id="C0_0_8906e6d3ab"/>
    </defs>
    <g clip-path="url(#p365837b872)">
     <use style="fill:#808080;fill-opacity:0.5;stroke:#808080;stroke-opacity:0.5;" x="0.0" xlink:href="#C0_0_8906e6d3ab" y="194.4"/>
    </g>
   </g>
   <g id="line2d_1">
    <path clip-path="url(#p365837b872)" d="
M56.0302 24.4274
L56.4001 23.0656
L56.7699 22.7434
L57.5096 24.437
L57.8793 23.1464
L58.249 24.1282
L58.6188 23.722
L58.9884 23.6307
L59.3581 24.9179
L59.7277 22.8396
L60.0973 24.7229
L60.4669 24.8829
L60.8364 24.444
L61.2059 24.5907
L61.5754 23.2743
L61.9449 24.4808
L62.3143 23.1284
L62.6837 22.5563
L63.0531 22.7296
L63.4225 24.4796
L63.7918 24.2068
L64.1611 24.329
L64.5303 24.787
L64.8996 24.6418
L65.2688 23.4597
L65.638 25.8267
L66.0071 26.2962
L66.3763 29.5157
L66.7454 36.9184
L67.4835 55.8452
L67.8525 58.7016
L68.2215 54.2557
L68.9594 37.9852
L69.6972 27.816
L70.0661 27.7101
L70.4349 24.7724
L70.8037 24.4802
L71.5412 26.5594
L71.9099 26.3334
L72.2786 28.5875
L72.6473 27.4544
L73.0159 27.1902
L73.3845 26.3425
L74.1216 35.4437
L74.4902 43.5639
L74.8587 55.5151
L75.2271 59.9969
L75.5956 57.8227
L76.3324 36.9016
L77.0691 29.325
L77.4374 27.6611
L77.8057 26.9183
L78.1739 25.0276
L78.9103 25.4833
L79.2785 27.4857
L79.6466 30.6356
L80.3828 40.9175
L81.1189 35.2794
L81.4869 28.6658
L81.8549 25.3442
L82.2228 25.8327
L82.5908 25.6483
L82.9587 24.4765
L83.3265 25.6637
L83.6944 23.3979
L84.43 25.7255
L84.7977 25.6622
L85.1654 25.8992
L85.9008 23.8956
L86.6361 24.4445
L87.0037 23.7304
L87.3712 25.1498
L87.7388 23.9357
L88.1063 23.5348
L88.4737 23.847
L88.8412 24.7633
L89.2086 23.9837
L89.576 25.5007
L89.9434 26.1399
L90.3107 25.6699
L90.678 24.8903
L91.0453 24.4383
L91.4126 22.9112
L91.7798 24.0126
L92.147 24.039
L92.5142 25.4135
L92.8813 24.1407
L93.2485 24.1368
L93.6156 23.9042
L93.9826 22.9122
L94.3497 23.5656
L94.7167 23.7974
L95.0837 23.777
L95.4506 24.8988
L95.8175 28.1732
L96.1844 34.4566
L96.9182 53.1945
L97.285 54.7382
L97.6518 48.3398
L98.0185 37.2715
L98.3853 29.5948
L98.752 25.5764
L99.1186 26.6309
L99.4853 23.6425
L99.8519 25.0771
L100.219 27.3149
L100.585 31.8983
L101.318 45.8078
L101.685 47.7776
L102.051 43.9163
L102.784 30.7901
L103.15 26.2187
L103.517 24.2902
L103.883 24.9984
L104.249 24.5496
L104.616 24.7049
L104.982 24.7335
L105.348 25.6604
L105.714 29.384
L106.446 41.6354
L106.813 41.0593
L107.179 34.103
L107.911 25.7342
L108.277 23.6807
L108.643 24.1751
L109.374 29.559
L109.74 29.9903
L110.106 30.9258
L110.838 28.6799
L111.204 26.6487
L111.569 26.5194
L111.935 23.6561
L112.301 24.566
L112.666 23.4601
L113.032 24.0365
L113.398 23.7302
L113.763 23.9741
L114.129 23.232
L114.494 23.6852
L114.86 23.6788
L115.591 27.4082
L115.956 28.0578
L116.321 25.8902
L116.687 24.9202
L117.052 26.4408
L117.417 23.7006
L117.783 25.4012
L118.148 29.0107
L118.513 37.5559
L118.878 49.2385
L119.244 53.7094
L119.609 52.1899
L120.704 29.5065
L121.069 26.5369
L121.434 26.799
L122.164 29.1499
L122.529 29.377
L122.894 28.8387
L123.258 26.8822
L123.623 26.8569
L123.988 22.6681
L124.353 23.6393
L124.718 25.4154
L125.082 22.9916
L125.447 24.3141
L125.812 24.4165
L126.176 24.662
L126.541 25.3701
L126.905 24.3087
L127.27 24.3773
L127.635 25.1102
L127.999 30.4282
L128.364 39.1755
L128.728 45.2485
L129.092 46.7283
L129.457 41.8551
L130.185 28.059
L130.55 25.1089
L130.914 25.93
L131.278 22.8163
L131.643 23.8378
L132.007 23.9591
L132.371 25.2123
L132.735 23.4408
L133.099 22.9608
L133.463 24.2639
L133.827 24.0914
L134.191 24.3586
L134.555 24.1666
L134.919 25.1037
L135.283 23.5141
L135.647 24.2026
L136.011 23.4826
L136.375 23.6498
L136.739 25.7101
L137.102 25.3094
L137.466 24.3479
L137.83 24.4967
L138.194 23.199
L138.557 23.9448
L138.921 25.3086
L139.285 21.6985
L139.648 23.3192
L140.012 23.4761
L140.375 24.5701
L141.102 28.9644
L141.466 28.6815
L142.193 26.5259
L142.556 31.1389
L142.92 33.4216
L143.283 39.0544
L143.646 36.2251
L144.009 29.9284
L144.736 24.7386
L145.099 24.6296
L145.462 24.8109
L145.825 23.7743
L146.189 24.6996
L146.552 25.0808
L146.915 24.4499
L147.278 24.564
L147.641 24.8443
L148.004 25.5163
L148.367 25.4352
L148.73 25.9752
L149.092 24.4669
L149.455 24.9097
L149.818 26.2366
L150.181 24.8861
L150.544 24.6936
L150.906 24.7439
L151.269 25.2263
L151.632 23.317
L151.995 24.7759
L152.357 24.6802
L152.72 23.7034
L153.082 25.0793
L153.445 23.278
L153.807 22.9736
L154.17 25.006
L154.895 25.8226
L155.257 26.053
L155.62 24.3766
L155.982 26.3327
L156.344 24.924
L157.431 28.2373
L157.793 28.4258
L158.156 33.3363
L159.242 56.5674
L159.604 57.5827
L160.69 32.642
L161.052 28.1912
L161.414 28.0462
L161.776 25.2461
L162.138 25.3798
L162.5 23.4595
L162.862 24.7221
L163.585 23.6809
L163.947 25.8407
L164.309 24.3094
L165.032 22.9176
L165.394 23.8873
L165.755 25.5409
L166.117 23.5549
L166.478 25.2072
L166.84 23.8176
L167.202 24.1203
L167.563 24.8831
L167.924 24.8278
L168.286 25.1381
L168.647 26.15
L169.009 24.8202
L169.37 24.6889
L169.731 23.13
L170.093 24.0487
L170.454 25.276
L170.815 25.467
L171.537 24.084
L171.898 24.2117
L172.26 25.3745
L173.343 23.7469
L173.704 23.4065
L174.065 24.8246
L174.426 24.525
L174.787 24.9468
L175.147 26.0077
L175.508 24.8757
L176.23 27.8531
L176.591 28.9318
L176.952 35.8864
L177.673 57.7398
L178.034 65.0285
L178.394 62.1006
L178.755 54.2999
L179.476 33.5176
L179.836 27.7239
L180.197 25.1082
L180.557 24.1048
L181.278 23.1452
L181.639 24.84
L182.359 25.2298
L182.72 24.7556
L183.08 24.8152
L183.44 25.1832
L183.8 25.0101
L184.161 24.5114
L184.521 24.217
L184.881 25.6063
L185.241 24.019
L185.601 25.3849
L185.961 24.9355
L186.321 24.9366
L186.681 26.8493
L187.041 25.5285
L187.401 30.5421
L187.761 38.2476
L188.121 41.4577
L188.481 41.2521
L188.841 37.4869
L189.2 30.7573
L189.56 33.4496
L189.92 39.981
L190.639 61.562
L190.999 63.9398
L191.359 56.5184
L192.078 37.6236
L192.437 32.3908
L193.156 25.3305
L193.516 24.7404
L193.875 25.6335
L194.235 25.409
L194.594 25.5028
L194.953 25.9447
L195.313 24.5226
L196.031 23.2028
L196.391 24.5117
L196.75 26.2448
L197.109 25.0784
L197.468 24.5202
L197.827 24.8833
L198.186 24.8369
L198.905 23.616
L199.264 24.2203
L199.623 23.63
L199.981 23.7385
L200.34 23.466
L200.699 25.1493
L201.058 24.8228
L201.417 25.387
L201.776 24.2128
L202.135 24.3415
L202.493 25.3476
L203.211 23.6488
L203.57 25.5682
L203.928 25.5403
L204.287 23.048
L204.645 25.4609
L205.004 25.975
L205.363 24.391
L205.721 26.4339
L206.08 27.0408
L206.438 27.9829
L207.513 25.6189
L207.872 28.7517
L208.23 26.0413
L208.947 28.2661
L209.305 28.2466
L209.663 31.4426
L210.021 39.1989
L210.737 61.3614
L211.096 66.319
L211.812 62.159
L212.528 54.8727
L213.601 32.0212
L213.959 28.391
L214.675 25.0637
L215.033 26.2957
L215.748 23.646
L216.106 23.0918
L216.464 25.788
L216.821 25.8902
L217.179 24.5037
L217.537 24.3694
L217.894 25.352
L218.252 25.0211
L218.609 23.4612
L218.967 25.6955
L219.324 25.057
L219.682 25.2557
L220.039 23.7267
L220.396 24.7777
L221.111 24.1882
L221.468 26.101
L221.826 24.8269
L222.183 25.138
L222.54 26.125
L222.897 26.4676
L223.254 26.3773
L223.611 25.343
L223.968 26.2334
L224.326 27.7677
L224.683 24.9291
L225.04 25.5093
L225.397 24.2832
L225.754 26.3027
L226.11 25.1755
L226.467 27.5271
L226.824 31.8284
L227.181 38.7896
L227.538 41.0114
L227.895 38.6348
L228.965 27.7618
L229.322 25.7624
L229.678 26.7567
L230.035 24.3834
L230.391 25.0886
L231.104 29.2312
L231.461 29.8523
L231.817 26.5297
L232.174 28.4077
L232.53 26.3239
L232.887 25.5304
L233.243 26.2878
L233.599 25.2807
L233.956 26.2741
L234.312 27.9497
L234.668 25.9112
L235.737 25.3397
L236.093 27.4462
L236.805 34.7898
L237.161 37.4852
L237.517 36.7531
L237.873 33.5479
L238.585 25.0572
L238.941 25.6859
L239.297 23.3861
L239.653 24.4845
L240.009 25.0239
L240.364 25.9691
L240.72 25.3366
L241.076 24.3437
L241.432 26.0123
L241.787 26.009
L242.143 24.6967
L242.499 26.7891
L242.854 26.8923
L243.21 27.259
L243.565 26.2086
L243.921 25.9923
L244.276 26.8957
L244.632 26.1597
L244.987 26.1129
L245.343 26.355
L245.698 25.4484
L246.054 27.0025
L246.409 25.3971
L246.764 27.9919
L247.119 25.0425
L247.475 26.7751
L247.83 27.4295
L248.185 25.8041
L248.54 26.5435
L248.895 26.5779
L249.25 25.4995
L249.606 26.9532
L249.961 25.5965
L250.316 25.8239
L250.671 27.1838
L251.026 25.4382
L251.735 26.8137
L252.09 26.4682
L252.445 26.5507
L252.8 27.015
L253.509 25.4224
L253.864 24.9068
L254.574 26.5044
L254.928 26.5569
L255.283 25.4855
L255.637 26.3434
L255.992 26.8921
L256.347 24.7576
L256.701 26.5196
L257.056 25.8431
L257.41 23.993
L257.764 25.3692
L258.119 25.5333
L258.473 26.9956
L258.828 25.5337
L259.182 25.8625
L259.536 27.7638
L259.89 26.4598
L260.953 25.0494
L261.307 22.3149
L261.661 26.5904
L262.015 26.5714
L262.369 25.9779
L262.724 28.2056
L263.431 27.3105
L263.785 29.3532
L264.139 26.5522
L264.493 25.8735
L264.847 27.8835
L265.555 26.3459
L265.909 24.9699
L266.262 25.2483
L266.616 27.5699
L267.677 48.699
L268.031 52.1482
L268.384 50.1921
L268.738 41.9705
L269.445 31.1124
L269.798 29.4307
L270.152 29.4003
L270.505 30.0399
L270.859 28.9625
L271.212 30.0843
L271.565 30.8239
L271.919 27.6418
L272.272 28.6936
L272.978 26.1043
L273.331 27.092
L273.685 27.084
L274.038 25.6796
L274.391 27.4623
L274.744 25.7269
L275.097 26.5916
L275.45 24.8561
L275.803 29.1836
L276.156 32.0688
L276.509 38.074
L276.862 49.602
L277.215 55.4243
L277.568 53.5353
L278.626 33.4326
L278.979 29.9293
L279.684 27.4169
L280.037 26.186
L280.389 26.6942
L280.742 25.2456
L281.095 26.8004
L281.447 26.3601
L281.8 28.2055
L282.152 26.7852
L282.505 28.5552
L283.209 26.7402
L283.562 27.0278
L283.914 26.1128
L284.266 26.0831
L284.619 27.0224
L284.971 26.9362
L285.323 29.3131
L285.675 32.803
L286.028 39.242
L286.38 48.1464
L286.732 50.793
L287.084 48.1916
L287.436 39.0518
L287.788 33.5774
L288.14 30.2843
L288.492 28.6379
L288.844 25.2301
L289.196 26.1261
L289.548 28.3581
L289.9 25.6066
L290.251 29.2273
L290.603 31.607
L290.955 32.8419
L291.307 33.6007
L292.01 27.3157
L292.362 27.4503
L292.714 28.1181
L293.065 30.4286
L293.768 33.2961
L294.12 29.5589
L295.174 26.4295
L295.526 27.0471
L295.877 26.4725
L296.228 27.3173
L296.58 23.9801
L296.931 25.895
L297.282 24.3473
L297.634 25.6174
L297.985 26.4006
L298.336 25.6311
L298.687 25.9028
L299.038 25.9718
L299.389 25.8433
L299.74 27.6564
L300.092 24.6902
L300.443 24.7718
L300.794 26.671
L301.144 24.3558
L301.495 25.8328
L301.846 25.0888
L302.548 27.5962
L302.899 23.5837
L303.25 25.7925
L303.6 26.3628
L303.951 25.5458
L304.302 25.3234
L304.653 24.7301
L305.003 26.2841
L305.354 24.7141
L305.704 25.8483
L306.055 27.7053
L306.406 28.5729
L306.756 27.5935
L307.107 26.9959
L307.807 24.5291
L308.158 25.5227
L308.508 28.4887
L308.859 27.9957
L309.559 28.3826
L309.909 27.282
L310.26 28.4744
L310.61 27.9039
L310.96 28.9993
L311.31 28.3312
L311.66 29.1276
L312.36 25.7768
L312.71 25.3676
L313.06 25.7969
L313.41 26.8234
L313.76 25.7827
L314.11 27.8633
L314.46 24.8344
L314.81 26.8853
L315.16 25.7706
L315.51 26.8508
L315.859 26.4907
L316.209 26.9983
L316.559 29.1555
L316.909 28.7048
L317.258 26.7813
L317.608 28.9743
L317.957 29.538
L318.307 27.6008
L318.657 23.7956
L319.006 26.9972
L319.356 26.2612
L319.705 28.7414
L320.055 25.6472
L320.404 26.71
L321.103 26.5216
L321.452 25.7454
L321.801 26.1632
L322.151 26.782
L322.5 25.623
L322.849 29.1573
L323.198 28.7341
L323.547 29.5214
L323.896 28.4612
L324.246 28.5767
L324.595 29.1799
L324.944 26.6824
L325.293 22.6284
L325.642 27.3948
L325.991 25.8675
L326.34 26.2854
L326.688 25.9126
L327.037 24.0524
L327.386 27.9963
L327.735 24.1498
L328.084 27.6614
L328.432 27.6112
L328.781 27.7108
L329.13 26.8154
L329.479 28.2567
L329.827 26.9424
L330.176 27.9404
L330.524 28.2584
L330.873 27.2566
L331.222 28.9724
L331.57 27.9339
L331.919 28.1036
L332.267 25.6216
L332.615 26.2934
L332.964 27.7744
L333.312 27.389
L333.66 27.6889
L334.009 25.8973
L334.357 25.0473
L334.705 28.6033
L335.053 27.7629
L335.402 28.4122
L335.75 32.3046
L336.098 27.4635
L336.446 27.9065
L336.794 27.8243
L337.142 26.594
L337.49 26.6105
L337.838 25.0703
L338.534 27.8977
L338.882 30.0434
L339.23 25.3188
L339.578 27.6766
L339.926 27.7728
L340.273 28.0245
L340.621 27.8817
L340.969 29.0141
L341.317 25.7287
L341.664 28.1798
L342.012 26.6754
L342.36 26.1775
L342.707 25.9736
L343.055 28.3477
L343.402 27.1921
L343.75 28.4953
L344.097 27.9657
L344.445 28.6127
L344.792 31.6878
L345.139 31.8016
L345.834 29.4955
L346.182 29.154
L346.529 29.0353
L346.876 30.2661
L347.223 29.8852
L347.918 26.4607
L348.265 27.7023
L348.612 25.303
L348.959 26.1807
L350 32.0778
L350.694 38.2169
L351.041 34.8857
L351.388 34.2004
L352.081 28.2796
L352.428 28.7353
L352.775 25.9443
L353.468 29.4183
L353.815 25.623
L354.162 28.1949
L354.508 28.8434
L354.855 34.3189
L355.202 36.3258
L355.548 36.9902
L356.241 30.5353
L357.28 27.3213
L357.627 27.7835
L357.973 27.1215
L358.319 28.9332
L358.666 29.9394
L359.012 28.6039
L359.704 29.5841
L360.051 30.3666
L360.397 31.5297
L360.743 29.4723
L361.089 28.9366
L361.435 28.8905
L362.127 28.3962
L362.473 32.4109
L362.819 33.2146
L363.165 40.09
L363.857 57.2221
L364.203 57.4443
L364.894 41.3355
L365.24 36.323
L365.586 37.261
L366.277 54.2766
L366.623 59.8002
L366.968 57.9492
L367.314 54.0366
L367.659 45.9623
L368.005 41.5294
L368.35 44.0334
L369.041 62.9965
L369.387 68.4018
L369.732 64.1716
L370.423 46.929
L370.768 35.5627
L371.458 29.6615
L371.804 29.7042
L372.149 28.3321
L372.494 29.3897
L372.839 25.1786
L373.184 28.2532
L373.874 26.9422
L374.219 29.3773
L374.564 29.4489
L374.909 24.5685
L375.254 27.8706
L375.599 27.8047
L375.944 28.9387
L376.289 29.3105
L376.634 28.1533
L376.978 28.9907
L377.323 30.6257
L377.668 27.5632
L378.012 29.3865
L378.357 29.6206
L379.046 36.5995
L379.391 38.1614
L380.08 35.4961
L380.425 31.2574
L380.769 31.6312
L381.113 27.7844
L381.458 30.0377
L381.802 27.1728
L382.491 27.4026
L382.835 25.0981
L383.179 28.3315
L383.524 29.4066
L383.868 27.1852
L384.212 26.7456
L384.556 27.0905
L384.9 27.6595
L385.244 27.7745
L385.589 29.29
L385.933 26.3098
L386.277 29.6419
L386.621 26.3621
L386.965 27.88
L387.308 26.5544
L387.652 28.3612
L387.996 24.9096
L388.34 26.0047
L388.684 29.1438
L389.028 25.2729
L389.371 27.3482
L389.715 26.0469
L390.059 28.3822
L390.402 29.8914
L391.09 39.2718
L391.777 54.7688
L392.12 52.8658
L392.464 49.4114
L393.151 32.2633
L393.494 31.7814
L393.838 29.0054
L394.181 30.3953
L394.524 30.5642
L394.868 31.359
L395.211 29.5354
L395.554 30.7665
L395.897 28.9295
L396.24 29.1164
L396.584 27.1381
L396.927 28.9314
L397.27 28.4132
L397.613 28.9463
L397.956 28.983
L398.299 28.8779
L398.642 29.3985
L398.985 28.7235
L399.328 27.5703
L399.671 28.9892
L400.014 28.6073
L400.356 29.9948
L400.699 26.4176
L401.042 28.1495
L401.727 26.0085
L402.07 28.1771
L402.413 29.1772
L402.755 29.1199
L403.098 28.1015
L403.441 30.3769
L403.783 27.008
L404.126 27.8885
L404.468 27.2854
L404.811 29.0084
L405.153 25.456
L405.496 28.2262
L405.838 28.497
L406.18 26.7625
L406.523 28.3539
L406.865 28.4499
L407.207 28.1206
L407.549 27.3246
L407.892 27.6577
L408.234 28.5042
L408.576 27.9446
L408.918 28.8873
L409.26 26.9113
L409.602 25.6387
L410.628 28.5945
L411.312 26.9708
L411.654 28.6142
L411.996 28.2275
L412.338 28.2864
L412.68 29.0054
L413.021 29.4339
L413.363 31.2968
L413.705 31.2086
L414.388 34.9445
L414.73 33.8587
L415.071 31.7004
L415.413 34.1974
L415.755 31.2859
L416.096 34.7105
L416.438 34.396
L417.121 45.9406
L417.803 65.5226
L418.145 65.8692
L418.486 60.0184
L419.51 36.9011
L419.851 32.5945
L420.192 33.4324
L420.533 30.7346
L420.874 29.6376
L421.216 30.6671
L421.557 30.8661
L421.898 30.7042
L422.239 27.7529
L422.58 27.2535
L422.921 30.8968
L423.262 31.3781
L423.602 26.4293
L423.943 27.9778
L424.284 27.8961
L424.966 28.8687
L425.306 26.7989
L425.647 29.479
L425.988 27.8571
L426.329 29.7303
L426.669 30.0916
L427.01 28.5951
L427.35 30.1752
L427.691 27.0546
L428.031 29.6324
L428.372 27.4506
L428.712 29.8356
L429.053 27.9378
L429.393 27.0352
L430.074 30.095
L430.414 28.5549
L431.095 35.184
L431.435 39.9649
L431.775 51.4806
L432.115 58.8416
L432.456 58.4065
L432.796 53.8828
L433.476 33.8744
L434.156 28.0667
L434.496 31.971
L434.836 30.3474
L435.176 27.4403
L435.516 27.9704
L435.856 27.3365
L436.195 31.7957
L436.535 32.1844
L436.875 31.4969
L437.215 29.6735
L437.894 36.0948
L438.234 37.5666
L438.573 45.0929
L438.913 43.7529
L439.253 37.9251
L439.592 39.6763
L439.932 33.3963
L440.271 31.6921
L440.611 28.8699
L441.289 28.3531
L441.968 26.7659
L442.307 29.9007
L442.647 27.6665
L442.986 27.2259
L443.325 29.0165
L443.664 26.4365
L444.004 26.8975
L444.004 26.8975" style="fill:none;stroke:#0000ff;stroke-linecap:square;"/>
   </g>
   <g id="line2d_2">
    <path clip-path="url(#p365837b872)" d="
M56.0302 26.1622
L56.4001 25.3239
L56.7699 24.6172
L57.1398 24.286
L57.8793 24.1814
L60.8364 24.3264
L61.5754 24.8359
L61.9449 25.0807
L62.3143 25.0924
L63.4225 24.5228
L64.1611 24.4389
L64.8996 24.5682
L65.2688 24.7255
L65.638 25.0653
L66.0071 26.0767
L66.3763 29.0844
L66.7454 35.7541
L67.4835 54.0356
L67.8525 55.7578
L68.2215 49.8017
L68.9594 32.9896
L69.3283 28.5433
L69.6972 26.2935
L70.0661 25.2075
L70.4349 24.7765
L70.8037 24.7025
L71.1725 24.9101
L71.5412 25.4893
L72.2786 26.8844
L72.6473 26.8149
L73.0159 26.3627
L73.3845 26.4198
L73.7531 28.3747
L74.1216 33.9124
L74.8587 53.2979
L75.2271 58.0997
L75.5956 54.762
L76.3324 37.4483
L76.7007 31.95
L77.0691 29.3731
L78.1739 26.0209
L78.5421 25.2032
L78.9103 25.1479
L79.2785 26.5962
L79.6466 30.5512
L80.3828 40.7836
L80.7509 40.1237
L81.8549 25.8593
L82.2228 24.6837
L82.5908 24.4477
L83.3265 24.4979
L84.43 24.8916
L84.7977 24.8597
L85.5331 24.5786
L87.0037 24.5561
L87.7388 24.6947
L88.4737 24.8655
L89.2086 24.9577
L89.576 25.0381
L89.9434 25.002
L91.0453 24.4882
L91.7798 24.4243
L93.6156 24.586
L94.3497 24.78
L94.7167 25.0032
L95.0837 25.4851
L95.4506 26.7963
L95.8175 30.4081
L96.1844 37.9954
L96.9182 57.9814
L97.285 59.8501
L97.6518 53.0986
L98.3853 33.1996
L98.752 28.1919
L99.1186 26.2297
L99.4853 25.6385
L99.8519 25.7706
L100.219 27.0971
L100.585 30.9457
L101.318 45.1449
L101.685 47.9378
L102.051 44.1519
L102.784 31.1733
L103.15 28.2614
L103.883 25.9055
L104.249 25.1845
L104.616 24.948
L104.982 25.3281
L105.348 26.9375
L105.714 30.8192
L106.446 40.9858
L106.813 40.6404
L107.911 26.3877
L108.277 25.1121
L108.643 25.121
L109.009 25.8951
L110.106 30.0081
L110.472 30.5051
L110.838 30.1215
L111.204 28.8639
L111.935 25.6545
L112.301 24.8373
L112.666 24.5555
L113.398 24.4889
L114.129 24.5225
L114.494 24.6664
L114.86 25.137
L115.591 27.1195
L115.956 27.5526
L116.321 27.0319
L117.052 25.2392
L117.417 25.1325
L117.783 25.9437
L118.148 28.6046
L118.513 34.4963
L119.244 49.6003
L119.609 49.5892
L120.704 28.5687
L121.069 26.349
L121.434 26.6264
L122.164 30.5893
L122.529 31.2247
L122.894 29.752
L123.623 25.5767
L123.988 24.8774
L124.353 24.7523
L125.812 24.6494
L126.905 24.6792
L127.27 24.8556
L127.635 25.6955
L127.999 28.2959
L128.728 37.7998
L129.092 39.0441
L129.457 35.7725
L130.185 26.8531
L130.55 25.2223
L130.914 24.7533
L131.278 24.6431
L131.643 24.6975
L132.007 24.9631
L132.735 25.7856
L133.099 25.7913
L134.191 24.717
L134.919 24.6785
L136.011 24.7423
L136.739 24.8009
L138.194 25.0986
L138.921 25.7562
L139.285 25.8297
L140.012 25.5346
L140.375 25.8641
L141.102 26.9751
L141.466 27.0436
L141.829 26.9766
L142.193 27.8113
L142.556 30.5402
L142.92 34.2976
L143.283 36.2634
L143.646 34.6112
L144.373 27.0647
L144.736 25.3143
L145.099 24.8027
L145.825 24.7033
L148.367 24.918
L149.092 25.0508
L149.818 25.1337
L150.906 26.2698
L151.269 26.0068
L151.995 25.0275
L152.357 24.8722
L154.17 24.9339
L154.895 24.8268
L157.069 24.9068
L157.431 25.3162
L157.793 26.8613
L158.156 30.6477
L159.242 48.9694
L159.604 48.4403
L159.966 42.6785
L160.69 29.074
L161.052 26.4418
L161.414 26.1691
L161.776 26.7248
L162.138 27.0153
L162.5 26.6548
L163.223 25.358
L163.585 25.1007
L164.67 24.9761
L166.117 25.0405
L167.202 25.2409
L170.093 25.0317
L171.898 25.2618
L172.621 25.2027
L173.704 25.7199
L174.426 25.4942
L175.147 25.3855
L175.508 25.451
L175.869 25.6986
L176.23 26.6702
L176.591 29.7653
L176.952 36.6637
L177.673 57.4221
L178.034 62.7831
L178.394 60.4064
L179.836 27.7354
L180.197 25.8867
L180.557 25.3684
L181.278 25.2397
L182.72 25.3099
L183.44 25.7996
L183.8 26.045
L184.161 26.1148
L184.881 25.8035
L185.601 25.4378
L186.321 25.3714
L186.681 25.7211
L187.041 27.1521
L187.401 30.6224
L187.761 35.5066
L188.121 38.861
L188.481 38.1778
L189.2 31.4449
L189.56 32.9739
L189.92 40.0434
L190.639 58.6271
L190.999 59.8572
L191.359 53.3909
L192.078 35.1517
L192.437 30.1611
L192.797 27.6732
L193.156 26.4119
L193.516 25.8021
L193.875 25.6047
L194.235 25.6786
L194.594 25.9785
L195.313 26.959
L196.031 28.0974
L196.391 28.4248
L196.75 28.3562
L197.109 27.9124
L198.186 26.1496
L198.545 26.2049
L198.905 26.556
L199.264 26.7227
L199.623 26.4612
L200.34 25.5426
L200.699 25.3493
L201.417 25.3175
L202.135 25.4461
L202.852 25.6521
L203.57 25.513
L204.287 25.3409
L205.004 25.419
L205.363 25.5501
L205.721 25.8172
L206.797 27.1288
L207.155 27.0416
L207.872 26.5635
L208.23 26.6509
L208.588 26.8849
L208.947 27.3486
L209.305 28.8107
L209.663 32.8593
L210.021 40.7731
L210.737 60.1699
L211.096 63.3589
L211.454 61.383
L211.812 58.3961
L212.17 56.459
L212.528 53.3399
L213.244 38.1329
L213.601 31.2967
L213.959 27.7851
L214.317 26.5459
L214.675 26.1341
L215.391 25.7811
L216.821 25.5771
L219.324 25.4585
L221.111 25.6168
L221.826 26.0342
L222.897 26.6974
L223.254 26.7228
L223.968 26.5919
L224.326 26.7346
L225.04 27.2165
L225.754 27.2463
L226.11 27.6506
L226.467 29.6821
L227.538 43.509
L227.895 41.5319
L228.608 30.3438
L228.965 27.4546
L229.322 26.634
L230.035 26.4191
L230.391 26.4295
L230.748 26.7157
L231.104 27.1737
L231.461 27.4187
L231.817 27.1799
L232.53 25.9742
L232.887 25.6215
L233.243 25.4986
L233.956 25.5585
L234.668 25.6981
L235.381 25.6528
L235.737 25.8215
L236.093 26.7436
L236.449 29.0702
L237.161 34.9496
L237.517 34.722
L238.585 27.2608
L238.941 26.8209
L239.297 27.0351
L239.653 27.6903
L240.364 29.7044
L240.72 29.8096
L241.076 28.8725
L241.787 26.3924
L242.143 25.8969
L242.499 25.9114
L242.854 26.3126
L243.565 27.513
L243.921 27.7878
L244.276 27.6284
L245.343 26.1904
L245.698 26.0843
L246.054 26.3302
L246.764 27.4759
L247.119 27.5993
L247.475 27.1349
L248.185 25.91
L248.54 25.7408
L249.961 25.982
L251.026 25.6569
L251.735 25.7307
L252.445 25.9231
L253.155 25.8238
L253.864 25.6742
L254.928 25.7159
L255.637 25.9547
L256.347 26.2875
L256.701 26.2667
L257.764 25.8186
L258.473 25.8886
L259.182 26.1343
L259.89 25.9886
L260.599 25.7958
L261.307 25.8842
L262.369 26.2661
L263.078 26.7478
L263.785 26.8831
L264.493 26.7252
L265.555 26.009
L265.909 26.0223
L266.262 26.3993
L266.616 27.8407
L266.97 31.7055
L268.031 50.7788
L268.384 48.4881
L269.445 29.3012
L269.798 27.1465
L270.152 26.3621
L270.505 26.1234
L270.859 26.1073
L272.272 26.468
L272.978 26.2741
L273.331 26.307
L274.391 26.8629
L275.097 26.8499
L275.45 27.3163
L275.803 29.2967
L276.156 34.3757
L277.215 59.0867
L277.568 57.494
L278.626 36.6585
L279.684 29.6032
L280.037 27.655
L280.389 26.6845
L280.742 26.5111
L281.095 26.8449
L281.8 27.9019
L282.152 27.8689
L283.209 26.3639
L283.914 26.1155
L284.619 26.1805
L284.971 26.5493
L285.323 27.9989
L285.675 31.9142
L286.38 46.0148
L286.732 49.174
L287.084 45.9327
L287.788 31.8515
L288.14 28
L288.492 26.6525
L288.844 26.5928
L289.196 27.4291
L290.251 33.2713
L290.603 33.6856
L290.955 32.8867
L292.01 28.3039
L292.362 28.0312
L292.714 29.3686
L293.417 33.48
L293.768 33.2161
L294.823 27.1432
L295.174 26.5714
L295.526 26.563
L296.228 27.0139
L296.58 27.015
L297.985 26.1774
L299.038 26.1974
L299.74 26.357
L300.443 26.6411
L301.495 26.6658
L301.846 27.0116
L302.548 27.9163
L302.899 27.7938
L303.951 26.4126
L304.302 26.3525
L304.653 26.4197
L305.003 26.6114
L305.354 27.034
L306.055 28.1855
L306.406 28.1931
L307.457 26.6223
L307.807 26.5687
L308.158 26.7418
L308.508 27.1019
L310.26 29.8726
L310.61 30.8243
L310.96 31.2734
L311.31 30.7447
L312.36 27.2939
L312.71 26.7808
L313.06 26.5387
L313.41 26.5223
L314.46 27.027
L315.51 26.6939
L315.859 26.8817
L316.209 27.287
L317.258 29.3685
L317.608 29.4191
L318.657 27.3614
L319.006 27.3187
L319.705 27.4977
L320.753 27.2612
L322.151 26.8086
L322.5 26.8434
L322.849 27.0468
L323.547 27.5993
L323.896 27.4994
L324.944 26.5543
L325.642 26.4736
L327.037 26.6311
L327.735 26.8568
L328.084 27.1487
L328.781 27.9959
L329.13 28.0614
L329.827 27.4643
L330.176 27.4458
L330.873 28.0611
L331.222 28.1754
L331.919 27.884
L332.615 27.5687
L334.009 27.1916
L334.357 27.3704
L334.705 28.2855
L335.402 31.2593
L335.75 31.3987
L336.098 30.1864
L336.446 28.5342
L336.794 27.4356
L337.142 27.1258
L337.838 27.3543
L339.578 27.1392
L340.273 26.898
L342.012 26.9762
L342.707 27.392
L343.055 27.5783
L343.75 27.5281
L344.097 27.7445
L345.139 29.6551
L345.487 29.2317
L346.182 27.7611
L346.529 27.6922
L347.223 28.0147
L347.57 27.8428
L348.265 27.2559
L348.612 27.1331
L348.959 27.2027
L349.306 27.6577
L349.653 28.8209
L350.694 34.5193
L351.041 34.2359
L352.428 27.3218
L352.775 26.9882
L353.468 26.9248
L353.815 27.0909
L354.162 27.8104
L354.508 29.7263
L355.202 35.578
L355.548 36.0761
L355.895 33.937
L356.588 28.3753
L356.934 27.3295
L357.28 27.0572
L358.319 27.0706
L361.781 27.3787
L362.127 27.6551
L362.473 28.7267
L362.819 31.912
L363.857 52.7773
L364.203 52.6779
L365.24 35.0077
L365.586 36.7775
L366.623 57.6009
L366.968 56.5704
L367.659 44.3134
L368.005 42.6343
L368.35 47.0754
L369.041 64.2555
L369.387 68.4985
L369.732 66.088
L371.113 34.9828
L371.458 32.7529
L372.149 31.3084
L372.839 29.8479
L373.184 29.4348
L373.874 28.9914
L374.564 28.2818
L375.254 27.995
L376.289 27.742
L377.323 27.8267
L377.668 27.8005
L378.012 28.1118
L378.357 29.488
L379.391 39.4029
L379.736 38.9997
L380.769 29.1854
L381.113 27.9586
L381.458 27.5319
L382.147 27.3688
L384.212 27.4579
L385.244 27.6222
L386.277 28.2024
L386.621 28.1309
L387.652 27.6561
L389.028 27.5404
L389.715 27.6187
L390.059 27.887
L390.402 28.896
L390.746 31.8165
L391.09 37.6712
L391.777 51.5496
L392.12 52.1552
L392.464 46.8841
L393.151 32.7764
L393.494 29.4085
L393.838 28.3332
L394.181 28.4171
L394.868 29.3069
L395.211 29.2959
L396.24 28.2437
L397.27 27.7437
L397.956 27.7526
L398.985 28.0456
L399.671 27.8503
L400.356 27.6916
L400.699 27.7855
L401.042 27.9982
L401.385 28.4097
L401.727 29.2145
L402.413 31.3129
L402.755 31.3525
L403.783 28.3824
L404.126 28.137
L405.153 28.4335
L405.838 28.1716
L406.865 27.7764
L407.549 27.788
L408.576 28.1647
L409.26 28.0236
L409.944 27.8207
L410.97 27.8508
L412.68 28.0508
L413.021 28.3714
L413.363 29.1526
L414.047 31.5413
L414.388 31.8877
L414.73 31.2671
L415.071 30.2584
L415.413 29.6214
L415.755 29.7065
L416.096 30.6365
L416.438 32.9514
L416.779 37.7222
L417.803 61.9151
L418.145 63.2966
L418.486 58.1468
L419.169 40.5988
L419.51 34.6382
L419.851 31.4748
L420.192 30.0113
L420.533 29.3044
L421.216 28.6831
L421.898 28.4956
L422.58 28.6133
L423.262 28.7064
L424.966 28.1495
L426.329 28.1396
L427.01 28.3856
L427.35 28.6251
L427.691 29.0233
L428.372 30.1309
L428.712 30.2557
L429.053 29.849
L429.734 28.6043
L430.074 28.3542
L430.414 28.5151
L430.755 29.6167
L431.095 32.8839
L432.115 52.813
L432.456 52.4732
L433.816 29.5934
L434.156 28.6906
L434.836 28.4361
L435.516 28.3837
L435.856 28.6526
L436.535 30.1097
L437.215 31.7342
L437.554 33.9596
L437.894 38.7535
L438.573 50.1246
L438.913 50.3764
L439.253 46.0195
L439.932 34.4887
L440.271 31.1271
L440.611 29.3796
L440.95 28.6377
L441.289 28.403
L442.307 28.3524
L443.664 28.3785
L444.004 28.7128
L444.004 28.7128" style="fill:none;stroke:#ff0000;stroke-linecap:square;"/>
   </g>
   <g id="matplotlib.axis_1">
    <g id="xtick_1">
     <g id="line2d_3">
      <defs>
       <path d="
M0 0
L0 -4" id="mc7db9fdffb" style="stroke:#000000;stroke-width:0.5;"/>
      </defs>
      <g>
       <use style="stroke:#000000;stroke-width:0.5;" x="56.16" xlink:href="#mc7db9fdffb" y="87.48"/>
      </g>
     </g>
     <g id="line2d_4">
      <defs>
       <path d="
M0 0
L0 4" id="m5a7d422ac3" style="stroke:#000000;stroke-width:0.5;"/>
      </defs>
      <g>
       <use style="stroke:#000000;stroke-width:0.5;" x="56.16" xlink:href="#m5a7d422ac3" y="13.608"/>
      </g>
     </g>
    </g>
    <g id="xtick_2">
     <g id="line2d_5">
      <g>
       <use style="stroke:#000000;stroke-width:0.5;" x="140.603478261" xlink:href="#mc7db9fdffb" y="87.48"/>
      </g>
     </g>
     <g id="line2d_6">
      <g>
       <use style="stroke:#000000;stroke-width:0.5;" x="140.603478261" xlink:href="#m5a7d422ac3" y="13.608"/>
      </g>
     </g>
    </g>
    <g id="xtick_3">
     <g id="line2d_7">
      <g>
       <use style="stroke:#000000;stroke-width:0.5;" x="225.046956522" xlink:href="#mc7db9fdffb" y="87.48"/>
      </g>
     </g>
     <g id="line2d_8">
      <g>
       <use style="stroke:#000000;stroke-width:0.5;" x="225.046956522" xlink:href="#m5a7d422ac3" y="13.608"/>
      </g>
     </g>
    </g>
    <g id="xtick_4">
     <g id="line2d_9">
      <g>
       <use style="stroke:#000000;stroke-width:0.5;" x="309.490434783" xlink:href="#mc7db9fdffb" y="87.48"/>
      </g>
     </g>
     <g id="line2d_10">
      <g>
       <use style="stroke:#000000;stroke-width:0.5;" x="309.490434783" xlink:href="#m5a7d422ac3" y="13.608"/>
      </g>
     </g>
    </g>
    <g id="xtick_5">
     <g id="line2d_11">
      <g>
       <use style="stroke:#000000;stroke-width:0.5;" x="393.933913043" xlink:href="#mc7db9fdffb" y="87.48"/>
      </g>
     </g>
     <g id="line2d_12">
      <g>
       <use style="stroke:#000000;stroke-width:0.5;" x="393.933913043" xlink:href="#m5a7d422ac3" y="13.608"/>
      </g>
     </g>
    </g>
   </g>
   <g id="matplotlib.axis_2">
    <g id="ytick_1">
     <g id="line2d_13">
      <defs>
       <path d="
M0 0
L4 0" id="md7965d1ba0" style="stroke:#000000;stroke-width:0.5;"/>
      </defs>
      <g>
       <use style="stroke:#000000;stroke-width:0.5;" x="56.16" xlink:href="#md7965d1ba0" y="77.8445217391"/>
      </g>
     </g>
     <g id="line2d_14">
      <defs>
       <path d="
M0 0
L-4 0" id="md9a1c1a7cd" style="stroke:#000000;stroke-width:0.5;"/>
      </defs>
      <g>
       <use style="stroke:#000000;stroke-width:0.5;" x="444.6" xlink:href="#md9a1c1a7cd" y="77.8445217391"/>
      </g>
     </g>
     <g id="text_1">
      <!-- $0.4$ -->
      <defs>
       <path d="
M33.5938 64.3281
C33.5938 66.4062 33.5 66.5 31.7031 66.5
L2 19.5938
L2 17
L27.7969 17
L27.7969 7.14062
C27.7969 3.5 27.5938 2.5 20.5938 2.5
L18.7031 2.5
L18.7031 0
C21.9062 0 27.2969 0 30.7031 0
C34.0938 0 39.5 0 42.7031 0
L42.7031 2.5
L40.7969 2.5
C33.7969 2.5 33.5938 3.5 33.5938 7.14062
L33.5938 17
L43.7969 17
L43.7969 19.5938
L33.5938 19.5938
z

M28.0938 57.7656
L28.0938 19.5938
L4 19.5938
z
" id="CMR17-52"/>
       <path d="
M42 31.6406
C42 37.75 41.9062 48.125 37.7031 56.1094
C34 63.1094 28.0938 65.5938 22.9062 65.5938
C18.0938 65.5938 12 63.4062 8.20312 56.2031
C4.20312 48.7188 3.79688 39.4375 3.79688 31.6406
C3.79688 25.9531 3.90625 17.2812 7 9.67188
C11.2969 -0.609375 19 -2 22.9062 -2
C27.5 -2 34.5 -0.109375 38.5938 9.375
C41.5938 16.2812 42 24.3594 42 31.6406
M22.9062 -0.40625
C16.5 -0.40625 12.7031 5.07812 11.2969 12.6875
C10.2031 18.5625 10.2031 27.1562 10.2031 32.75
C10.2031 40.4375 10.2031 46.8281 11.5 52.9219
C13.4062 61.3906 19 64 22.9062 64
C27 64 32.2969 61.2969 34.2031 53.125
C35.5 47.4375 35.5938 40.7344 35.5938 32.75
C35.5938 26.25 35.5938 18.2656 34.4062 12.375
C32.2969 1.48438 26.4062 -0.40625 22.9062 -0.40625" id="CMR17-48"/>
       <path d="
M18.4062 4.79688
C18.4062 7.6875 16 9.67188 13.5938 9.67188
C10.7031 9.67188 8.70312 7.28125 8.70312 4.89062
C8.70312 2 11.0938 0 13.5 0
C16.4062 0 18.4062 2.39062 18.4062 4.79688" id="CMMI12-58"/>
      </defs>
      <g transform="translate(39.4299210237 80.335181764)scale(0.1 -0.1)">
       <use transform="scale(0.9962640099626402)" xlink:href="#CMR17-48"/>
       <use transform="translate(45.69047711706103 0.0)scale(0.9962640099626402)" xlink:href="#CMMI12-58"/>
       <use transform="translate(72.78765420688046 0.0)scale(0.9962640099626402)" xlink:href="#CMR17-52"/>
      </g>
     </g>
    </g>
    <g id="ytick_2">
     <g id="line2d_15">
      <g>
       <use style="stroke:#000000;stroke-width:0.5;" x="56.16" xlink:href="#md7965d1ba0" y="64.9972173913"/>
      </g>
     </g>
     <g id="line2d_16">
      <g>
       <use style="stroke:#000000;stroke-width:0.5;" x="444.6" xlink:href="#md9a1c1a7cd" y="64.9972173913"/>
      </g>
     </g>
     <g id="text_2">
      <!-- $0.8$ -->
      <defs>
       <path d="
M27.2031 35.375
C33.5 38.5625 39.9062 43.3281 39.9062 50.9844
C39.9062 60.0312 31.0938 65.2969 23 65.2969
C13.9062 65.2969 5.90625 58.7344 5.90625 49.6875
C5.90625 47.2031 6.5 42.9219 10.4062 39.1406
C11.4062 38.1562 15.5938 35.1719 18.2969 33.2812
C13.7969 30.9844 3.29688 25.5312 3.29688 14.5938
C3.29688 4.35938 13.0938 -2 22.7969 -2
C33.5 -2 42.5 5.65625 42.5 15.7969
C42.5 24.8438 36.4062 29.0312 32.4062 31.7031
z

M14.0938 44.125
C13.2969 44.625 9.29688 47.7031 9.29688 52.375
C9.29688 58.4375 15.5938 63 22.7969 63
C30.7031 63 36.5 57.4531 36.5 50.9844
C36.5 41.7344 26.0938 36.4688 25.5938 36.4688
C25.5 36.4688 25.4062 36.4688 24.5938 37.0781
z

M32.5 23.7344
C34 22.6406 38.7969 19.375 38.7969 13.2969
C38.7969 5.95312 31.4062 0.390625 23 0.390625
C13.9062 0.390625 7 6.84375 7 14.6875
C7 22.5469 13.0938 29.0938 20 32.1875
z
" id="CMR17-56"/>
      </defs>
      <g transform="translate(39.4299210237 67.4878774162)scale(0.1 -0.1)">
       <use transform="scale(0.9962640099626402)" xlink:href="#CMR17-48"/>
       <use transform="translate(45.69047711706103 0.0)scale(0.9962640099626402)" xlink:href="#CMMI12-58"/>
       <use transform="translate(72.78765420688046 0.0)scale(0.9962640099626402)" xlink:href="#CMR17-56"/>
      </g>
     </g>
    </g>
    <g id="ytick_3">
     <g id="line2d_17">
      <g>
       <use style="stroke:#000000;stroke-width:0.5;" x="56.16" xlink:href="#md7965d1ba0" y="52.1499130435"/>
      </g>
     </g>
     <g id="line2d_18">
      <g>
       <use style="stroke:#000000;stroke-width:0.5;" x="444.6" xlink:href="#md9a1c1a7cd" y="52.1499130435"/>
      </g>
     </g>
     <g id="text_3">
      <!-- $1.2$ -->
      <defs>
       <path d="
M41.7031 15.4531
L39.9062 15.4531
C38.9062 8.375 38.0938 7.17188 37.7031 6.5625
C37.2031 5.76562 30 5.76562 28.5938 5.76562
L9.40625 5.76562
C13 9.67188 20 16.75 28.5 24.9531
C34.5938 30.7344 41.7031 37.5312 41.7031 47.4219
C41.7031 59.2188 32.2969 66 21.7969 66
C10.7969 66 4.09375 56.3125 4.09375 47.3438
C4.09375 43.4375 7 42.9375 8.20312 42.9375
C9.20312 42.9375 12.2031 43.5469 12.2031 47.0312
C12.2031 50.1094 9.59375 51 8.20312 51
C7.59375 51 7 50.9062 6.59375 50.7031
C8.5 59.2188 14.2969 63.4062 20.4062 63.4062
C29.0938 63.4062 34.7969 56.5156 34.7969 47.4219
C34.7969 38.7344 29.7031 31.25 24 24.75
L4.09375 2.28125
L4.09375 0
L39.2969 0
z
" id="CMR17-50"/>
       <path d="
M26.5938 63.3125
C26.5938 65.4062 26.5 65.5 25.0938 65.5
C21.2031 61.1875 15.2969 59.7969 9.70312 59.7969
C9.40625 59.7969 8.90625 59.7969 8.79688 59.6094
C8.70312 59.3906 8.70312 59.1719 8.70312 57
C11.7969 57 17 57.5938 21 59.9844
L21 7.20312
C21 3.6875 20.7969 2.5 12.2031 2.5
L9.20312 2.5
L9.20312 0
C14 0 19 0 23.7969 0
C28.5938 0 33.5938 0 38.4062 0
L38.4062 2.5
L35.4062 2.5
C26.7969 2.5 26.5938 3.59375 26.5938 7.15625
z
" id="CMR17-49"/>
      </defs>
      <g transform="translate(39.4299210237 54.6405730684)scale(0.1 -0.1)">
       <use transform="scale(0.9962640099626402)" xlink:href="#CMR17-49"/>
       <use transform="translate(45.69047711706103 0.0)scale(0.9962640099626402)" xlink:href="#CMMI12-58"/>
       <use transform="translate(72.78765420688046 0.0)scale(0.9962640099626402)" xlink:href="#CMR17-50"/>
      </g>
     </g>
    </g>
    <g id="ytick_4">
     <g id="line2d_19">
      <g>
       <use style="stroke:#000000;stroke-width:0.5;" x="56.16" xlink:href="#md7965d1ba0" y="39.3026086957"/>
      </g>
     </g>
     <g id="line2d_20">
      <g>
       <use style="stroke:#000000;stroke-width:0.5;" x="444.6" xlink:href="#md9a1c1a7cd" y="39.3026086957"/>
      </g>
     </g>
     <g id="text_4">
      <!-- $1.6$ -->
      <defs>
       <path d="
M10.5938 34
C10.5938 57.6562 21.7969 63 28.2969 63
C30.4062 63 35.5 62.6406 37.5 59
C35.9062 59 32.9062 59 32.9062 55.5156
C32.9062 52.8281 35.0938 51.9219 36.5 51.9219
C37.4062 51.9219 40.0938 52.3125 40.0938 55.625
C40.0938 61.7812 35.0938 65.2969 28.2031 65.2969
C16.2969 65.2969 3.79688 52.9688 3.79688 31
C3.79688 3.95312 15.0938 -2 23.0938 -2
C32.7969 -2 42 6.67188 42 20.0469
C42 32.5156 33.9062 41.5938 23.7031 41.5938
C17.5938 41.5938 13.0938 37.6094 10.5938 30.625
z

M23.0938 0.390625
C10.7969 0.390625 10.7969 18.75 10.7969 22.4375
C10.7969 29.625 14.2031 40 23.5 40
C25.2031 40 30.0938 40 33.4062 33.125
C35.2031 29.2188 35.2031 25.1406 35.2031 20.1406
C35.2031 14.75 35.2031 10.7812 33.0938 6.78125
C30.9062 2.67188 27.7031 0.390625 23.0938 0.390625" id="CMR17-54"/>
      </defs>
      <g transform="translate(39.4299210237 41.7932687206)scale(0.1 -0.1)">
       <use transform="scale(0.9962640099626402)" xlink:href="#CMR17-49"/>
       <use transform="translate(45.69047711706103 0.0)scale(0.9962640099626402)" xlink:href="#CMMI12-58"/>
       <use transform="translate(72.78765420688046 0.0)scale(0.9962640099626402)" xlink:href="#CMR17-54"/>
      </g>
     </g>
    </g>
    <g id="ytick_5">
     <g id="line2d_21">
      <g>
       <use style="stroke:#000000;stroke-width:0.5;" x="56.16" xlink:href="#md7965d1ba0" y="26.4553043478"/>
      </g>
     </g>
     <g id="line2d_22">
      <g>
       <use style="stroke:#000000;stroke-width:0.5;" x="444.6" xlink:href="#md9a1c1a7cd" y="26.4553043478"/>
      </g>
     </g>
     <g id="text_5">
      <!-- $2.0$ -->
      <g transform="translate(39.4299210237 28.9459643727)scale(0.1 -0.1)">
       <use transform="scale(0.9962640099626402)" xlink:href="#CMR17-50"/>
       <use transform="translate(45.69047711706103 0.0)scale(0.9962640099626402)" xlink:href="#CMMI12-58"/>
       <use transform="translate(72.78765420688046 0.0)scale(0.9962640099626402)" xlink:href="#CMR17-48"/>
      </g>
     </g>
    </g>
    <g id="ytick_6">
     <g id="line2d_23">
      <g>
       <use style="stroke:#000000;stroke-width:0.5;" x="56.16" xlink:href="#md7965d1ba0" y="13.608"/>
      </g>
     </g>
     <g id="line2d_24">
      <g>
       <use style="stroke:#000000;stroke-width:0.5;" x="444.6" xlink:href="#md9a1c1a7cd" y="13.608"/>
      </g>
     </g>
     <g id="text_6">
      <!-- $2.4$ -->
      <g transform="translate(39.4299210237 16.0986600249)scale(0.1 -0.1)">
       <use transform="scale(0.9962640099626402)" xlink:href="#CMR17-50"/>
       <use transform="translate(45.69047711706103 0.0)scale(0.9962640099626402)" xlink:href="#CMMI12-58"/>
       <use transform="translate(72.78765420688046 0.0)scale(0.9962640099626402)" xlink:href="#CMR17-52"/>
      </g>
     </g>
    </g>
    <g id="text_7">
     <!-- $\times10^{-13}$ -->
     <defs>
      <path d="
M22.0938 33.7031
C31 33.7031 34.9062 25.9688 34.9062 17.0312
C34.9062 5 28.5 0.390625 22.7031 0.390625
C17.4062 0.390625 8.79688 3.03125 6.09375 10.8281
C6.59375 10.625 7.09375 10.625 7.59375 10.625
C10 10.625 11.7969 12.2188 11.7969 14.8125
C11.7969 17.7031 9.59375 19 7.59375 19
C5.90625 19 3.29688 18.2031 3.29688 14.4688
C3.29688 5.23438 12.2969 -2 22.9062 -2
C34 -2 42.5 6.71875 42.5 16.9531
C42.5 26.6719 34.5 33.6875 25 34.7969
C32.5938 36.375 39.9062 43.0625 39.9062 52.0156
C39.9062 59.6875 32 65.2969 23 65.2969
C13.9062 65.2969 5.90625 59.8281 5.90625 52.0156
C5.90625 48.5938 8.5 48 9.79688 48
C11.9062 48 13.7031 49.2969 13.7031 51.8906
C13.7031 54.4688 11.9062 55.7656 9.79688 55.7656
C9.40625 55.7656 8.90625 55.7656 8.5 55.5625
C11.4062 61.8594 19.2969 63 22.7969 63
C26.2969 63 32.9062 61.3281 32.9062 51.875
C32.9062 49.1094 32.5 44.1875 29.0938 39.8438
C26.0938 36 22.7031 36 19.4062 35.5938
C18.9062 35.5938 16.5938 35.5938 16.2031 35.5938
C15.5 35.4844 15.0938 35.3906 15.0938 34.5938
C15.0938 33.8125 15.2031 33.7031 17.2031 33.7031
z
" id="CMR17-51"/>
      <path d="
M65.9062 23
C67.5938 23 69.4062 23 69.4062 25
C69.4062 27 67.5938 27 65.9062 27
L11.7969 27
C10.0938 27 8.29688 27 8.29688 25
C8.29688 23 10.0938 23 11.7969 23
z
" id="CMSY10-0"/>
      <path d="
M38.9062 27.8906
L18.9062 47.7969
C17.7031 49 17.5 49.1875 16.7031 49.1875
C15.7031 49.1875 14.7031 48.2969 14.7031 47.1875
C14.7031 46.5 14.9062 46.2969 16 45.1875
L36 25.0938
L16 5
C14.9062 3.89062 14.7031 3.6875 14.7031 3
C14.7031 1.89062 15.7031 1 16.7031 1
C17.5 1 17.7031 1.1875 18.9062 2.39062
L38.7969 22.2969
L59.5 1.59375
C59.7031 1.5 60.4062 1 61 1
C62.2031 1 63 1.89062 63 3
C63 3.1875 63 3.59375 62.7031 4.09375
C62.5938 4.29688 46.7031 20 41.7031 25.0938
L60 43.3906
C60.5 44 62 45.2969 62.5 45.8906
C62.5938 46.0938 63 46.5 63 47.1875
C63 48.2969 62.2031 49.1875 61 49.1875
C60.2031 49.1875 59.7969 48.7969 58.7031 47.6875
z
" id="CMSY10-2"/>
     </defs>
     <g transform="translate(56.16 10.608)scale(0.1 -0.1)">
      <use transform="scale(0.9962640099626402)" xlink:href="#CMSY10-2"/>
      <use transform="translate(77.4874676506071 0.0)scale(0.9962640099626402)" xlink:href="#CMR17-49"/>
      <use transform="translate(123.17794476766814 0.0)scale(0.9962640099626402)" xlink:href="#CMR17-48"/>
      <use transform="translate(168.86842188472914 36.15363894185866)scale(0.6973817666173724)" xlink:href="#CMSY10-0"/>
      <use transform="translate(223.1094151327055 36.15363894185866)scale(0.6973817666173724)" xlink:href="#CMR17-49"/>
      <use transform="translate(255.09259709682442 36.15363894185866)scale(0.6973817666173724)" xlink:href="#CMR17-51"/>
     </g>
    </g>
   </g>
   <g id="patch_3">
    <path d="
M56.16 13.608
L444.6 13.608" style="fill:none;stroke:#000000;"/>
   </g>
   <g id="patch_4">
    <path d="
M444.6 87.48
L444.6 13.608" style="fill:none;stroke:#000000;"/>
   </g>
   <g id="patch_5">
    <path d="
M56.16 87.48
L444.6 87.48" style="fill:none;stroke:#000000;"/>
   </g>
   <g id="patch_6">
    <path d="
M56.16 87.48
L56.16 13.608" style="fill:none;stroke:#000000;"/>
   </g>
   <g id="legend_1">
    <g id="line2d_25">
     <path d="
M313.938 73.0428
L333.938 73.0428" style="fill:none;stroke:#0000ff;stroke-linecap:square;"/>
    </g>
    <g id="line2d_26"/>
    <g id="text_8">
     <!-- data -->
     <defs>
      <path d="
M15.0938 40
L29.0938 40
L29.0938 42.5781
L15.0938 42.5781
L15.0938 61
L13.2969 61
C13.0938 50.7031 9.59375 41.6875 1.09375 41.6875
L1.09375 40
L9.79688 40
L9.79688 12.0469
C9.79688 10.1562 9.79688 -1 21.4062 -1
C27.2969 -1 30.7031 4.78125 30.7031 12.1406
L30.7031 17.8125
L28.9062 17.8125
L28.9062 12.2344
C28.9062 5.375 26.2031 0.796875 22 0.796875
C19.0938 0.796875 15.0938 2.78125 15.0938 11.8438
z
" id="CMR17-116"/>
      <path d="
M29.2031 67.5938
L29.2031 65
C35.0938 65 36 64.4062 36 59.6875
L36 36.6406
C35.5938 37.1406 31.5 43.5938 23.4062 43.5938
C13.2031 43.5938 3.29688 34.5 3.29688 21.3125
C3.29688 8.20312 12.5938 -1 22.4062 -1
C30.9062 -1 35.2969 5.26562 35.7969 5.9375
L35.7969 -0.984375
L47.9062 -0.984375
L47.9062 2
C42 2 41.0938 2.59375 41.0938 7.39062
L41.0938 68.6875
z

M35.7969 11.7969
C35.7969 8.79688 34 6.09375 31.7031 4.09375
C28.2969 1.09375 24.9062 0.59375 23 0.59375
C20.0938 0.59375 9.70312 2.09375 9.70312 21.1875
C9.70312 40.8125 21.2969 42 23.9062 42
C28.5 42 32.2031 39.4062 34.5 35.7969
C35.7969 33.7031 35.7969 33.4062 35.7969 31.6094
z
" id="CMR17-100"/>
      <path d="
M36 25.8281
C36 32.375 36 35.8438 31.7969 39.7344
C28.0938 43 23.7969 44 20.4062 44
C12.5 44 6.79688 37.6094 6.79688 30.7969
C6.79688 27 9.79688 27 10.4062 27
C11.7031 27 14 27.7812 14 30.5312
C14 33 12.0938 34.0781 10.4062 34.0781
C10 34.0781 9.5 33.9688 9.20312 33.875
C11.2969 40.5 16.7031 42.4062 20.2031 42.4062
C25.2031 42.4062 30.7031 37.9531 30.7031 29.4531
L30.7031 25
C24.7969 25 17.7031 24.2031 12.0938 21.2031
C5.79688 17.7031 4 12.7031 4 8.90625
C4 1.20312 13 -1 18.2969 -1
C23.7969 -1 28.9062 2.17188 31.0938 7.98438
C31.2969 3.64062 34.0938 -0.28125 38.5 -0.28125
C40.5938 -0.28125 45.9062 1.09375 45.9062 8.85938
L45.9062 14.375
L44.0938 14.375
L44.0938 8.78125
C44.0938 2.78125 41.4062 2 40.0938 2
C36 2 36 7.15625 36 11.5312
z

M30.7031 13.5938
C30.7031 4.95312 24.5 0.59375 19 0.59375
C14 0.59375 10.0938 4.29688 10.0938 8.90625
C10.0938 11.8906 11.4062 17.1875 17.2031 20.3906
C22 23.0938 27.5 23.5 30.7031 23.5
z
" id="CMR17-97"/>
     </defs>
     <g transform="translate(341.937767795 76.5428216697)scale(0.1 -0.1)">
      <use transform="scale(0.9962640099626402)" xlink:href="#CMR17-100"/>
      <use transform="translate(50.89536978031601 0.0)scale(0.9962640099626402)" xlink:href="#CMR17-97"/>
      <use transform="translate(96.58584689737704 0.0)scale(0.9962640099626402)" xlink:href="#CMR17-116"/>
      <use transform="translate(131.86661469683997 0.0)scale(0.9962640099626402)" xlink:href="#CMR17-97"/>
     </g>
    </g>
    <g id="line2d_27">
     <path d="
M381.31 73.0428
L401.31 73.0428" style="fill:none;stroke:#ff0000;stroke-linecap:square;"/>
    </g>
    <g id="line2d_28"/>
    <g id="text_9">
     <!-- model -->
     <defs>
      <path d="
M38.0938 23
C38.5 23.4062 38.5 23.6094 38.5 24.625
C38.5 34.9688 33.0938 44 21.7031 44
C11.0938 44 2.70312 33.8906 2.70312 21.6094
C2.70312 8.60938 12.2031 -1 22.7969 -1
C34 -1 38.4062 9.46875 38.4062 11.5469
C38.4062 12.25 37.7969 12.25 37.5938 12.25
C36.9062 12.25 36.7969 12.0469 36.4062 10.875
C34.2031 4.14062 28.7031 0.796875 23.5 0.796875
C19.2031 0.796875 14.9062 3.17188 12.2031 7.5
C9.09375 12.5469 9.09375 18.375 9.09375 23
z

M9.20312 24.5
C9.90625 39.1406 17.5938 42.4062 21.5938 42.4062
C28.4062 42.4062 33 35.8906 33.0938 24.5
z
" id="CMR17-101"/>
      <path d="
M43.0938 21.1875
C43.0938 34 33.7969 44 22.9062 44
C12 44 2.70312 34 2.70312 21.1875
C2.70312 8.60938 12 -1 22.9062 -1
C33.7969 -1 43.0938 8.60938 43.0938 21.1875
M22.9062 0.796875
C18.2031 0.796875 14.2031 3.59375 11.9062 7.5
C9.40625 11.9844 9.09375 17.5938 9.09375 22
C9.09375 26.2031 9.29688 31.4062 11.9062 35.9062
C13.9062 39.2031 17.7969 42.4062 22.9062 42.4062
C27.4062 42.4062 31.2031 39.9062 33.5938 36.4062
C36.7031 31.7031 36.7031 25.1094 36.7031 22
C36.7031 18.0938 36.5 12.1094 33.7969 7.29688
C31 2.70312 26.7031 0.796875 22.9062 0.796875" id="CMR17-111"/>
      <path d="
M15.2969 68.6875
L3.40625 67.5938
L3.40625 65
C9.29688 65 10.2031 64.4062 10.2031 59.6406
L10.2031 6.65625
C10.2031 2.875 9.79688 2.39062 3.40625 2.39062
L3.40625 -0.203125
C5.79688 0 10.2031 0 12.7031 0
C15.2969 0 19.7031 0 22.0938 -0.203125
L22.0938 2.39062
C15.7031 2.39062 15.2969 2.78125 15.2969 6.65625
z
" id="CMR17-108"/>
      <path d="
M67.5938 30.2031
C67.5938 35.1875 66.7031 43.5938 54.7969 43.5938
C48 43.5938 43.2969 39 41.5 33.5938
L41.4062 33.5938
C40.2031 41.7969 34.2969 43.5938 28.7031 43.5938
C20.7969 43.5938 16.7031 37.5625 15.2031 33.5938
L15.0938 33.5938
L15.0938 43.5938
L3.29688 42.5
L3.29688 39.9062
C9.20312 39.9062 10.0938 39.2969 10.0938 34.5
L10.0938 6.6875
C10.0938 2.875 9.70312 2.39062 3.29688 2.39062
L3.29688 -0.203125
C5.70312 0 10.0938 0 12.7031 0
C15.2969 0 19.7969 0 22.2031 -0.203125
L22.2031 2.39062
C15.7969 2.39062 15.4062 2.78125 15.4062 6.6875
L15.4062 25.9062
C15.4062 35.1094 21 42 28 42
C35.4062 42 36.2031 35.4062 36.2031 30.5938
L36.2031 6.6875
C36.2031 2.875 35.7969 2.39062 29.4062 2.39062
L29.4062 -0.203125
C31.7969 0 36.2031 0 38.7969 0
C41.4062 0 45.9062 0 48.2969 -0.203125
L48.2969 2.39062
C41.9062 2.39062 41.5 2.78125 41.5 6.6875
L41.5 25.9062
C41.5 35.1094 47.0938 42 54.0938 42
C61.5 42 62.2969 35.4062 62.2969 30.5938
L62.2969 6.6875
C62.2969 2.875 61.9062 2.39062 55.5 2.39062
L55.5 -0.203125
C57.9062 0 62.2969 0 64.9062 0
C67.5 0 72 0 74.4062 -0.203125
L74.4062 2.39062
C68 2.39062 67.5938 2.78125 67.5938 6.6875
z
" id="CMR17-109"/>
     </defs>
     <g transform="translate(409.309627106 76.5428216697)scale(0.1 -0.1)">
      <use transform="scale(0.9962640099626402)" xlink:href="#CMR17-109"/>
      <use transform="translate(76.91958986807286 0.0)scale(0.9962640099626402)" xlink:href="#CMR17-111"/>
      <use transform="translate(125.2125057158702 0.0)scale(0.9962640099626402)" xlink:href="#CMR17-100"/>
      <use transform="translate(176.10787549618618 0.0)scale(0.9962640099626402)" xlink:href="#CMR17-101"/>
      <use transform="translate(216.59353595890414 0.0)scale(0.9962640099626402)" xlink:href="#CMR17-108"/>
     </g>
    </g>
   </g>
  </g>
  <g id="axes_2">
   <g id="patch_7">
    <path d="
M56.16 161.352
L444.6 161.352
L444.6 87.48
L56.16 87.48
z
" style="fill:#ffffff;"/>
   </g>
   <g id="PolyCollection_2">
    <defs>
     <path d="
M182.825 13.122
L153.27 13.122
L153.27 -153.09
L182.825 -153.09
L182.825 -153.09
L182.825 13.122
z
" id="C1_0_d16028850e"/>
    </defs>
    <g clip-path="url(#pc949900f65)">
     <use style="fill:#808080;fill-opacity:0.5;stroke:#808080;stroke-opacity:0.5;" x="0.0" xlink:href="#C1_0_d16028850e" y="194.4"/>
    </g>
   </g>
   <g id="line2d_29">
    <path clip-path="url(#pc949900f65)" d="
M56.0302 119.428
L56.4001 117.923
L56.7699 119.029
L57.5096 125.117
L57.8793 121.44
L58.249 124.23
L58.6188 123
L58.9884 122.664
L59.3581 126.306
L59.7277 120.318
L60.0973 125.758
L60.4669 126.211
L60.8364 124.754
L61.2059 124.602
L61.5754 119.926
L61.9449 122.691
L62.3143 118.77
L62.6837 117.684
L63.0531 118.838
L63.4225 124.292
L63.7918 123.708
L64.1611 124.1
L64.5303 125.305
L64.8996 124.628
L65.2688 120.777
L65.638 126.605
L66.0071 125.047
L66.3763 125.656
L66.7454 127.763
L67.1144 129.137
L67.4835 129.619
L67.8525 132.879
L68.2215 137.221
L68.5905 136.632
L68.9594 138.778
L69.3283 135.186
L69.6972 128.793
L70.0661 131.611
L70.4349 124.404
L70.8037 123.777
L71.5412 127.493
L71.9099 124.471
L72.2786 129.312
L72.6473 126.255
L73.0159 126.795
L73.3845 124.194
L73.7531 130.027
L74.1216 128.818
L74.4902 125.087
L74.8587 130.791
L75.2271 129.87
L75.5956 133.216
L75.964 125.66
L76.3324 122.844
L76.7007 126.973
L77.0691 124.278
L77.4374 123.068
L77.8057 123.878
L78.1739 121.56
L78.5421 124.738
L78.9103 125.38
L79.2785 126.973
L79.6466 124.659
L80.0148 120.691
L80.3828 124.801
L80.7509 118.76
L81.1189 125.273
L81.4869 122.732
L81.8549 122.935
L82.2228 127.719
L82.5908 127.868
L82.9587 124.52
L83.3265 127.768
L83.6944 120.906
L84.43 126.813
L84.7977 126.723
L85.1654 127.831
L85.9008 122.533
L86.2685 123.08
L86.6361 124.009
L87.0037 122.042
L87.3712 126.057
L87.7388 122.234
L88.1063 120.728
L88.4737 121.488
L88.8412 124.066
L89.2086 121.616
L89.576 125.746
L89.9434 127.687
L90.3107 126.835
L90.678 125.179
L91.0453 124.273
L91.4126 120.043
L91.7798 123.232
L92.147 123.271
L92.5142 127.154
L92.8813 123.4
L93.2485 123.272
L93.6156 122.456
L93.9826 119.393
L94.3497 120.925
L94.7167 120.949
L95.0837 119.505
L95.4506 118.96
L95.8175 117.991
L96.1844 114.242
L96.5513 112.833
L96.9182 110.654
L97.285 109.719
L97.6518 110.734
L98.0185 109.973
L98.752 116.896
L99.1186 125.569
L99.4853 118.678
L100.219 125.042
L100.585 127.155
L100.952 125.346
L101.318 126.322
L101.685 123.955
L102.051 123.739
L102.418 123.232
L102.784 123.314
L103.15 118.543
L103.517 116.891
L103.883 121.808
L104.249 122.591
L104.616 123.717
L104.982 122.706
L105.348 120.744
L105.714 120.29
L106.08 121.349
L106.446 126.284
L106.813 125.62
L107.179 119.648
L107.545 123.722
L107.911 122.537
L108.277 120.301
L108.643 121.696
L109.374 131.013
L109.74 127.795
L110.106 127.054
L110.472 122.434
L111.204 118.047
L111.569 122.63
L111.935 118.67
L112.301 123.636
L112.666 121.267
L113.032 123.096
L113.398 122.235
L113.763 122.924
L114.129 120.706
L114.494 121.595
L114.86 120.224
L115.225 123.532
L115.591 125.246
L115.956 125.869
L116.321 121.134
L116.687 121.287
L117.052 127.871
L117.417 120.299
L118.148 125.584
L118.878 142.481
L119.244 136.23
L119.609 131.893
L120.339 125.846
L120.704 127.112
L121.069 124.956
L121.434 124.912
L122.529 119.104
L122.894 121.79
L123.258 123.09
L123.623 128.097
L123.988 118.064
L124.353 121.216
L124.718 126.322
L125.082 119.416
L125.447 123.345
L125.812 123.746
L126.176 124.501
L126.541 126.516
L126.905 123.351
L127.635 122.733
L127.999 130.546
L128.364 142.017
L128.728 145.831
L129.092 146.508
L129.457 141.904
L130.185 127.883
L130.55 124.09
L130.914 127.799
L131.278 119.164
L131.643 121.944
L132.007 121.53
L132.371 123.843
L132.735 117.674
L133.099 116.278
L133.463 121.075
L133.827 121.858
L134.191 123.386
L134.555 123.026
L134.919 125.638
L135.283 120.937
L135.647 122.852
L136.011 120.795
L136.375 121.257
L136.739 127.03
L137.102 125.653
L137.466 122.743
L137.83 123.076
L138.194 118.955
L138.557 120.178
L138.921 123.129
L139.285 112.539
L139.648 117.765
L140.012 118.498
L140.375 120.696
L141.102 130.135
L141.466 129.125
L141.829 126.279
L142.193 120.72
L142.556 126.137
L142.92 121.898
L143.283 132.44
L143.646 129.056
L144.009 122.454
L144.373 125.299
L144.736 122.761
L145.462 124.706
L145.825 121.745
L146.189 124.353
L146.552 125.338
L146.915 123.387
L147.278 123.627
L147.641 124.425
L148.004 126.324
L148.367 125.903
L148.73 127.189
L149.092 122.737
L149.455 124.049
L149.818 127.587
L150.181 122.619
L150.544 120.577
L150.906 120.029
L151.269 122.172
L151.632 118.258
L151.995 123.693
L152.357 123.864
L152.72 121.004
L153.082 124.776
L153.445 119.473
L153.807 118.617
L154.17 124.623
L154.895 127.279
L155.257 127.896
L155.62 122.971
L155.982 128.554
L156.344 124.558
L157.069 129.946
L157.431 132.814
L157.793 128.914
L158.518 136.244
L158.88 139.855
L159.604 150.7
L159.966 142.659
L160.328 142.165
L161.052 129.446
L161.414 129.812
L161.776 120.165
L162.138 119.714
L162.5 115.229
L162.862 120.931
L163.223 121.187
L163.585 120.334
L163.947 126.765
L164.309 122.447
L165.032 118.526
L165.394 121.317
L165.755 126.02
L166.117 120.145
L166.478 124.62
L166.84 120.386
L167.202 121.194
L167.563 123.489
L167.924 123.49
L168.286 124.55
L168.647 127.645
L169.009 123.975
L169.37 123.641
L169.731 119.084
L170.093 121.59
L170.454 124.977
L170.815 125.363
L171.537 121.006
L171.898 121.397
L172.26 124.913
L172.621 123.335
L173.343 119.094
L173.704 117.765
L174.065 122.042
L174.426 121.63
L174.787 123.13
L175.147 126.205
L175.508 122.762
L175.869 126.41
L176.23 127.817
L176.591 122.019
L176.952 122.181
L177.312 125.343
L177.673 125.329
L178.034 130.872
L178.394 129.287
L178.755 131.805
L179.115 127.249
L179.476 127.311
L180.197 122.178
L180.557 120.783
L180.918 119.928
L181.278 118.394
L181.639 123.248
L181.999 123.996
L182.359 124.376
L182.72 122.822
L183.08 122.429
L183.44 122.644
L183.8 121.441
L184.161 119.806
L184.521 119.279
L184.881 123.849
L185.241 119.874
L185.601 124.264
L185.961 123.224
L186.321 123.166
L186.681 127.66
L187.041 119.748
L187.401 124.185
L187.761 132.296
L188.121 131.882
L188.481 133.255
L188.841 133.274
L189.2 122.439
L189.56 125.784
L189.92 124.237
L190.28 124.11
L190.639 132.854
L190.999 136.153
L191.359 133.408
L191.718 133.253
L192.078 131.523
L192.437 130.826
L192.797 129.077
L193.156 121.307
L193.516 121.364
L193.875 124.499
L194.594 123.049
L194.953 123.005
L195.313 117.411
L196.031 110.344
L196.391 113.166
L196.75 118.346
L197.109 116.268
L197.468 116.555
L197.827 119.548
L198.186 120.642
L198.545 118.641
L198.905 115.963
L199.264 117.222
L199.623 116.276
L199.981 118.038
L200.34 118.446
L200.699 123.841
L201.058 123.031
L201.417 124.616
L201.776 121.119
L202.135 121.24
L202.493 123.783
L203.211 118.724
L203.57 124.575
L203.928 124.837
L204.287 117.824
L204.645 124.719
L205.004 126.015
L205.363 121.083
L205.721 126.189
L206.08 126.616
L206.438 127.78
L207.155 122.243
L207.513 121.206
L207.872 130.707
L208.23 122.663
L208.947 127.054
L209.305 122.794
L209.663 120.343
L210.021 119.89
L210.379 122.228
L211.096 132.926
L211.454 132.451
L211.812 135.234
L212.17 130.017
L212.528 128.823
L212.886 125.194
L213.244 125.041
L213.601 126.499
L213.959 126.158
L214.317 124.402
L214.675 121.339
L215.033 125.501
L215.748 118.503
L216.106 117.051
L216.464 124.92
L216.821 125.316
L217.179 121.42
L217.537 121.122
L217.894 124.045
L218.252 123.196
L218.609 118.775
L218.967 125.181
L219.324 123.262
L219.682 123.763
L220.039 119.36
L220.396 122.384
L221.111 120.309
L221.468 125.3
L221.826 120.945
L222.183 121.091
L222.54 123.245
L222.897 123.755
L223.254 123.423
L223.611 120.705
L223.968 123.385
L224.326 127.386
L224.683 118.45
L225.04 119.508
L225.397 115.837
L225.754 121.703
L226.11 117.3
L226.467 118.22
L226.824 117.182
L227.181 120.258
L227.538 117.236
L227.895 116.087
L228.251 121.66
L228.608 124.084
L228.965 125.299
L229.322 121.91
L229.678 125.144
L230.035 118.563
L230.391 120.561
L231.104 130.331
L231.461 131.413
L231.817 122.547
L232.174 129.681
L232.53 125.421
L232.887 124.154
L233.243 126.685
L233.599 123.794
L233.956 126.473
L234.312 131.046
L234.668 125.029
L235.381 123.869
L235.737 123.031
L236.093 126.436
L236.449 131.97
L236.805 131.149
L237.161 131.706
L237.873 128.76
L238.585 118.081
L238.941 121.153
L239.297 113.925
L239.653 115.199
L240.009 113.704
L240.364 113.677
L240.72 111.556
L241.076 111.396
L241.432 120.197
L241.787 123.314
L242.143 120.965
L242.499 126.939
L243.21 125.355
L243.565 120.666
L243.921 119.254
L244.276 122.309
L244.632 121.591
L245.343 124.889
L245.698 122.588
L246.054 126.349
L246.409 120.095
L246.764 125.9
L247.119 117.065
L247.475 123.382
L247.83 127.308
L248.185 124.112
L248.54 126.724
L248.895 126.621
L249.25 123.097
L249.606 127.05
L249.961 123.308
L250.316 124.361
L250.671 128.63
L251.026 123.787
L251.735 127.529
L252.09 126.217
L252.445 126.22
L252.8 127.586
L253.509 123.539
L253.864 122.21
L254.219 124.973
L254.574 126.8
L254.928 126.834
L255.283 123.508
L255.637 125.534
L255.992 126.545
L256.347 120.017
L256.701 125.143
L257.056 123.655
L257.41 118.857
L257.764 123.124
L258.119 123.63
L258.473 127.599
L258.828 122.989
L259.182 123.635
L259.536 129.156
L259.89 125.77
L260.599 123.827
L260.953 122.217
L261.307 114.154
L261.661 126.178
L262.015 125.797
L262.369 123.587
L262.724 129.273
L263.431 125.696
L263.785 131.518
L264.139 123.568
L264.493 121.967
L264.847 128.458
L265.201 127.19
L265.555 125.385
L265.909 121.39
L266.262 121.107
L266.616 123.637
L266.97 131.92
L267.323 128.314
L267.677 130.623
L268.031 128.353
L268.384 129.315
L268.738 125.987
L269.091 132.94
L269.445 129.623
L269.798 130.983
L270.505 135.676
L270.859 132.625
L271.212 135.564
L271.565 137.247
L271.919 127.774
L272.272 130.815
L272.978 123.928
L273.331 126.673
L273.685 126.135
L274.038 121.423
L274.391 126.139
L274.744 121.174
L275.097 123.673
L275.45 117.343
L275.803 124.091
L276.509 109.827
L276.862 114.375
L277.215 113.886
L277.568 113.035
L277.92 113.589
L278.273 115.47
L278.626 115.141
L278.979 112.412
L279.684 118.13
L280.037 120.192
L280.389 124.444
L280.742 120.778
L281.095 124.288
L281.447 121.307
L281.8 125.289
L282.152 121.3
L282.505 127.826
L283.209 125.498
L283.562 126.847
L283.914 124.408
L284.266 124.345
L284.619 126.837
L284.971 125.528
L285.323 128.194
L286.028 125.808
L286.38 130.544
L286.732 129.071
L287.084 130.91
L287.436 125.556
L287.788 129.378
L288.14 130.983
L288.492 130.124
L288.844 120.498
L289.196 120.67
L289.548 121.864
L289.9 107.317
L291.307 130.766
L292.01 121.575
L292.362 122.746
L292.714 120.821
L293.065 120.662
L293.417 119.973
L293.768 124.646
L294.12 119.912
L294.471 123.664
L294.823 124.3
L295.174 124.008
L295.526 125.808
L295.877 123.487
L296.228 125.288
L296.58 115.691
L296.931 121.87
L297.282 118.299
L297.634 122.558
L297.985 125.058
L298.336 122.888
L298.687 123.637
L299.038 123.767
L299.389 123.251
L299.74 128.152
L300.092 119.172
L300.443 119.042
L300.794 124.452
L301.144 117.946
L301.495 122.021
L301.846 118.888
L302.197 120.476
L302.548 123.496
L302.899 112.312
L303.25 120.17
L303.6 123.402
L303.951 121.924
L304.302 121.457
L304.653 119.558
L305.003 123.475
L305.354 117.746
L305.704 119.181
L306.055 123.035
L306.406 125.508
L306.756 124.19
L307.107 124.361
L307.457 122.207
L307.807 118.552
L308.158 120.911
L308.508 128.403
L308.859 125.473
L309.209 124.385
L309.559 123.795
L309.909 119.25
L310.26 120.396
L310.61 116.02
L310.96 117.878
L311.31 117.477
L311.66 123.343
L312.01 122.335
L312.36 120.054
L312.71 120.353
L313.06 122.283
L313.41 125.282
L313.76 121.791
L314.11 127.114
L314.46 118.112
L314.81 124.291
L315.16 121.608
L315.51 124.867
L315.859 123.292
L316.209 123.586
L316.559 128.008
L316.909 124.409
L317.258 116.978
L317.608 123.137
L317.957 126.649
L318.307 123.62
L318.657 114.164
L319.006 123.492
L319.356 121.002
L319.705 127.992
L320.055 119.251
L320.404 122.546
L321.103 122.673
L321.452 120.861
L322.151 124.339
L322.5 120.907
L322.849 130.484
L323.198 128.313
L323.547 129.942
L323.896 127.181
L324.246 128.552
L324.595 131.356
L324.944 124.784
L325.293 113.333
L325.642 127.064
L325.991 122.638
L326.34 123.754
L326.688 122.542
L327.037 117.002
L327.386 128.099
L327.735 116.633
L328.084 125.89
L328.432 124.447
L328.781 123.597
L329.13 120.834
L329.479 125.782
L329.827 122.915
L330.176 125.838
L330.524 125.913
L330.873 122.103
L331.222 126.707
L331.57 124.018
L331.919 125.047
L332.267 118.423
L332.615 120.75
L332.964 125.248
L333.312 124.31
L333.66 125.489
L334.009 120.695
L334.357 117.737
L334.705 125.33
L335.053 118.33
L335.402 116.231
L335.75 127.021
L336.098 116.588
L336.446 122.611
L336.794 125.534
L337.142 122.887
L337.49 122.621
L337.838 117.85
L338.186 121.429
L338.882 132.628
L339.23 119.025
L339.578 125.961
L339.926 126.621
L340.273 127.655
L340.621 127.249
L340.969 130.336
L341.317 120.818
L341.664 127.933
L342.012 123.551
L342.707 120.338
L343.055 126.628
L343.402 123.291
L343.75 127.196
L344.097 125.052
L344.445 124.927
L344.792 131.322
L345.139 130.587
L345.487 128.086
L345.834 127.635
L346.182 128.42
L346.529 128.277
L346.876 131.186
L347.223 129.794
L347.918 121.364
L348.265 125.699
L348.612 119.154
L348.959 121.478
L349.306 126.197
L349.653 127.338
L350 128.068
L350.694 135.047
L351.041 126.284
L351.388 129.617
L351.735 128.432
L352.081 124.48
L352.428 128.48
L352.775 121.415
L353.468 131.585
L353.815 120.196
L354.162 125.522
L354.508 121.878
L354.855 128.734
L355.202 126.566
L355.548 127.044
L355.895 124.296
L356.241 123.806
L356.588 127.456
L356.934 126.861
L357.28 125.175
L357.627 126.588
L357.973 124.634
L358.319 129.771
L358.666 132.594
L359.012 128.686
L359.358 129.795
L359.704 131.36
L360.051 133.548
L360.397 136.839
L360.743 130.864
L361.089 129.245
L361.435 128.996
L361.781 128.098
L362.127 126.547
L362.473 135.008
L362.819 128.161
L363.165 129.498
L363.511 131.658
L363.857 137.195
L364.203 138.119
L364.548 132.348
L364.894 130.835
L365.586 125.806
L365.931 132.907
L366.277 130.224
L366.623 130.739
L366.968 128.38
L367.314 134.533
L367.659 129.157
L368.35 115.67
L368.696 119.908
L369.041 120.797
L369.387 124.138
L369.732 118.906
L370.077 118.427
L370.423 120.605
L370.768 111.686
L371.113 116.477
L371.458 115.528
L371.804 118.09
L372.149 115.859
L372.494 121.05
L372.839 110.992
L373.184 121.019
L373.529 119.998
L373.874 118.525
L374.219 126.591
L374.564 127.771
L374.909 114.285
L375.254 124.058
L375.599 124.173
L375.944 127.749
L376.289 128.925
L376.634 125.455
L376.978 127.709
L377.323 132.463
L377.668 123.734
L378.012 128.081
L378.357 124.797
L378.702 126.4
L379.046 124.377
L379.391 120.847
L379.736 118.527
L380.08 123.692
L380.425 122.692
L380.769 131.448
L381.113 123.915
L381.458 131.62
L381.802 123.756
L382.491 124.517
L382.835 117.859
L383.179 127.107
L383.524 130.143
L383.868 123.694
L384.212 122.368
L384.556 123.305
L384.9 124.836
L385.244 124.854
L385.589 128.596
L385.933 119.33
L386.277 128.554
L386.621 119.331
L386.965 124.254
L387.308 120.96
L387.652 126.443
L387.996 116.649
L388.34 119.881
L388.684 128.982
L389.028 117.897
L389.371 123.833
L389.715 119.897
L390.059 125.84
L390.402 127.278
L390.746 130.852
L391.433 127.058
L391.777 133.671
L392.12 126.459
L392.464 131.682
L392.807 129.365
L393.151 122.941
L393.494 131.238
L393.838 126.348
L394.181 130.103
L394.524 129.162
L394.868 130.316
L395.211 125.105
L395.554 129.678
L395.897 125.587
L396.24 126.925
L396.584 121.773
L396.927 127.429
L397.27 126.341
L397.613 128.01
L397.956 127.954
L398.299 127.303
L398.642 128.451
L398.985 126.365
L399.328 123.218
L399.671 127.69
L400.014 126.958
L400.356 131.038
L400.699 120.483
L401.042 124.851
L401.727 115.199
L402.07 118.101
L402.413 118.276
L403.098 117.716
L403.441 127.782
L403.783 120.465
L404.126 123.702
L404.468 121.692
L404.811 126.201
L405.153 115.856
L405.496 124.09
L405.838 125.352
L406.18 120.841
L406.523 125.805
L406.865 126.352
L407.207 125.5
L407.549 123.084
L407.892 123.691
L408.234 125.679
L408.576 123.783
L408.918 126.555
L409.26 121.218
L409.602 117.933
L410.628 126.632
L411.312 121.809
L411.654 126.47
L411.996 125.3
L412.338 125.375
L412.68 127.161
L413.021 127.471
L413.363 130.581
L413.705 126.767
L414.047 129.26
L414.388 133.204
L414.73 131.867
L415.071 128.562
L415.413 137.572
L415.755 128.957
L416.096 136.129
L416.438 128.569
L416.779 129.529
L417.121 125.705
L417.803 134.788
L418.486 129.797
L419.169 133.53
L419.851 127.635
L420.192 134.252
L420.533 128.528
L420.874 126.494
L421.216 130.12
L421.557 131.076
L421.898 130.766
L422.239 122.204
L422.58 120.506
L422.921 130.722
L423.262 132.097
L423.602 118.2
L423.943 123.164
L424.284 123.368
L424.966 126.484
L425.306 120.564
L425.647 128.31
L425.988 123.676
L426.329 128.989
L426.669 129.772
L427.01 125.018
L427.35 128.873
L427.691 118.756
L428.031 124.506
L428.372 116.71
L428.712 123.208
L429.053 118.921
L429.393 118.286
L430.074 129.421
L430.414 124.53
L430.755 129.853
L431.095 131.029
L431.435 126.571
L431.775 136.742
L432.115 141.748
L432.456 141.474
L432.796 145.889
L433.476 128.367
L433.816 126.88
L434.156 122.622
L434.496 134.376
L434.836 129.911
L435.176 121.755
L435.516 123.228
L435.856 120.632
L436.195 131.655
L436.535 130.381
L436.875 126.262
L437.215 118.491
L437.554 121.462
L437.894 116.772
L438.234 102.344
L438.573 109.95
L439.253 101.145
L439.592 124.084
L439.932 121.276
L440.271 126.04
L440.611 122.951
L440.95 124.368
L441.289 124.272
L441.968 119.846
L442.307 128.867
L442.647 122.487
L442.986 121.275
L443.325 126.432
L443.664 118.833
L444.004 119.197
L444.004 119.197" style="fill:none;stroke:#000000;stroke-linecap:square;"/>
   </g>
   <g id="matplotlib.axis_3">
    <g id="xtick_6">
     <g id="line2d_30">
      <g>
       <use style="stroke:#000000;stroke-width:0.5;" x="56.16" xlink:href="#mc7db9fdffb" y="161.352"/>
      </g>
     </g>
     <g id="line2d_31">
      <g>
       <use style="stroke:#000000;stroke-width:0.5;" x="56.16" xlink:href="#m5a7d422ac3" y="87.48"/>
      </g>
     </g>
     <g id="text_10">
      <!-- 5190 -->
      <defs>
       <path d="
M11.4062 57.6875
C12.4062 57.2812 16.5 56 20.7031 56
C30 56 35.0938 61.0156 38 63.9219
C38 64.7344 38 65.25 37.4062 65.25
C37.2969 65.25 37.0938 65.25 36.2969 64.8281
C32.7969 63.3125 28.7031 62.0781 23.7031 62.0781
C20.7031 62.0781 16.2031 62.5 11.2969 64.7344
C10.2031 65.25 10 65.25 9.90625 65.25
C9.40625 65.25 9.29688 65.1406 9.29688 63.1562
L9.29688 34.2812
C9.29688 32.5 9.29688 32 10.2969 32
C10.7969 32 11 32.2031 11.5 32.9062
C14.7031 37.4844 19.0938 39.4062 24.0938 39.4062
C27.5938 39.4062 35.0938 37.2188 35.0938 20.1406
C35.0938 16.9531 35.0938 11.1719 32.0938 6.57812
C29.5938 2.48438 25.7031 0.390625 21.4062 0.390625
C14.7969 0.390625 8.09375 5 6.29688 12.7188
C6.70312 12.6094 7.5 12.4219 7.90625 12.4219
C9.20312 12.4219 11.7031 13.125 11.7031 16.2188
C11.7031 18.9062 9.79688 20 7.90625 20
C5.59375 20 4.09375 18.5938 4.09375 15.7969
C4.09375 7.09375 11 -2 21.5938 -2
C31.9062 -2 41.7031 6.875 41.7031 19.75
C41.7031 31.7188 33.9062 41 24.2031 41
C19.0938 41 14.7969 39.0938 11.4062 35.4531
z
" id="CMR17-53"/>
       <path d="
M35.2031 29.125
C35.2031 7.25 26.0938 0.484375 18.5938 0.484375
C16.2969 0.484375 10.7031 0.484375 8.40625 4.59375
C11 4.1875 12.9062 5.57812 12.9062 8.09375
C12.9062 10.8125 10.7031 11.7031 9.29688 11.7031
C8.40625 11.7031 5.70312 11.2969 5.70312 7.90625
C5.70312 1.10938 11.5938 -2 18.7969 -2
C30.2969 -2 42 10.5312 42 32.3906
C42 59.6406 30.7969 65.2969 23.2031 65.2969
C13.2969 65.2969 3.79688 56.6875 3.79688 43.4062
C3.79688 31.1094 11.9062 22 22.0938 22
C30.5 22 34.2031 29.7344 35.2031 33
z

M22.2969 23.5938
C19.5938 23.5938 15.7969 24.0938 12.7031 30.0312
C10.5938 33.8906 10.5938 38.4531 10.5938 43.2969
C10.5938 49.1562 10.5938 53.2031 13.4062 57.5625
C14.7969 59.6406 17.4062 63 23.2031 63
C35 63 35 45.0781 35 41.125
C35 34.0938 31.7969 23.5938 22.2969 23.5938" id="CMR17-57"/>
      </defs>
      <g transform="translate(46.1973294968 172.27049838)scale(0.1 -0.1)">
       <use transform="scale(0.9962640099626402)" xlink:href="#CMR17-53"/>
       <use transform="translate(45.69047711706103 0.0)scale(0.9962640099626402)" xlink:href="#CMR17-49"/>
       <use transform="translate(91.38095423412206 0.0)scale(0.9962640099626402)" xlink:href="#CMR17-57"/>
       <use transform="translate(137.07143135118307 0.0)scale(0.9962640099626402)" xlink:href="#CMR17-48"/>
      </g>
     </g>
    </g>
    <g id="xtick_7">
     <g id="line2d_32">
      <g>
       <use style="stroke:#000000;stroke-width:0.5;" x="140.603478261" xlink:href="#mc7db9fdffb" y="161.352"/>
      </g>
     </g>
     <g id="line2d_33">
      <g>
       <use style="stroke:#000000;stroke-width:0.5;" x="140.603478261" xlink:href="#m5a7d422ac3" y="87.48"/>
      </g>
     </g>
     <g id="text_11">
      <!-- 5200 -->
      <g transform="translate(130.640807758 172.27049838)scale(0.1 -0.1)">
       <use transform="scale(0.9962640099626402)" xlink:href="#CMR17-53"/>
       <use transform="translate(45.69047711706103 0.0)scale(0.9962640099626402)" xlink:href="#CMR17-50"/>
       <use transform="translate(91.38095423412206 0.0)scale(0.9962640099626402)" xlink:href="#CMR17-48"/>
       <use transform="translate(137.07143135118307 0.0)scale(0.9962640099626402)" xlink:href="#CMR17-48"/>
      </g>
     </g>
    </g>
    <g id="xtick_8">
     <g id="line2d_34">
      <g>
       <use style="stroke:#000000;stroke-width:0.5;" x="225.046956522" xlink:href="#mc7db9fdffb" y="161.352"/>
      </g>
     </g>
     <g id="line2d_35">
      <g>
       <use style="stroke:#000000;stroke-width:0.5;" x="225.046956522" xlink:href="#m5a7d422ac3" y="87.48"/>
      </g>
     </g>
     <g id="text_12">
      <!-- 5210 -->
      <g transform="translate(215.084286019 172.27049838)scale(0.1 -0.1)">
       <use transform="scale(0.9962640099626402)" xlink:href="#CMR17-53"/>
       <use transform="translate(45.69047711706103 0.0)scale(0.9962640099626402)" xlink:href="#CMR17-50"/>
       <use transform="translate(91.38095423412206 0.0)scale(0.9962640099626402)" xlink:href="#CMR17-49"/>
       <use transform="translate(137.07143135118307 0.0)scale(0.9962640099626402)" xlink:href="#CMR17-48"/>
      </g>
     </g>
    </g>
    <g id="xtick_9">
     <g id="line2d_36">
      <g>
       <use style="stroke:#000000;stroke-width:0.5;" x="309.490434783" xlink:href="#mc7db9fdffb" y="161.352"/>
      </g>
     </g>
     <g id="line2d_37">
      <g>
       <use style="stroke:#000000;stroke-width:0.5;" x="309.490434783" xlink:href="#m5a7d422ac3" y="87.48"/>
      </g>
     </g>
     <g id="text_13">
      <!-- 5220 -->
      <g transform="translate(299.527764279 172.27049838)scale(0.1 -0.1)">
       <use transform="scale(0.9962640099626402)" xlink:href="#CMR17-53"/>
       <use transform="translate(45.69047711706103 0.0)scale(0.9962640099626402)" xlink:href="#CMR17-50"/>
       <use transform="translate(91.38095423412206 0.0)scale(0.9962640099626402)" xlink:href="#CMR17-50"/>
       <use transform="translate(137.07143135118307 0.0)scale(0.9962640099626402)" xlink:href="#CMR17-48"/>
      </g>
     </g>
    </g>
    <g id="xtick_10">
     <g id="line2d_38">
      <g>
       <use style="stroke:#000000;stroke-width:0.5;" x="393.933913043" xlink:href="#mc7db9fdffb" y="161.352"/>
      </g>
     </g>
     <g id="line2d_39">
      <g>
       <use style="stroke:#000000;stroke-width:0.5;" x="393.933913043" xlink:href="#m5a7d422ac3" y="87.48"/>
      </g>
     </g>
     <g id="text_14">
      <!-- 5230 -->
      <g transform="translate(383.97124254 172.27049838)scale(0.1 -0.1)">
       <use transform="scale(0.9962640099626402)" xlink:href="#CMR17-53"/>
       <use transform="translate(45.69047711706103 0.0)scale(0.9962640099626402)" xlink:href="#CMR17-50"/>
       <use transform="translate(91.38095423412206 0.0)scale(0.9962640099626402)" xlink:href="#CMR17-51"/>
       <use transform="translate(137.07143135118307 0.0)scale(0.9962640099626402)" xlink:href="#CMR17-48"/>
      </g>
     </g>
    </g>
    <g id="text_15">
     <!-- $\lambda$ [\AA] -->
     <defs>
      <path d="
M43.2969 61.8125
C43.2969 66.7969 39.2969 70.5938 34.5938 70.5938
C29.9062 70.5938 25.9062 66.7969 25.9062 61.8125
C25.9062 56.7969 29.9062 53 34.5938 53
C39.2969 53 43.2969 56.7969 43.2969 61.8125
M34.5938 54.5938
C30.4062 54.5938 27.7031 57.1875 27.7031 61.8125
C27.7031 66.5 30.5 69 34.5938 69
C38.7969 69 41.5 66.4062 41.5 61.8125
C41.5 57.0938 38.7031 54.5938 34.5938 54.5938" id="CMR17-23"/>
      <path d="
M23.5 -25
L23.5 -21.5156
L14.0938 -21.5156
L14.0938 71
L23.5 71
L23.5 74.4844
L10.5938 74.4844
L10.5938 -25
z
" id="CMR17-91"/>
      <path d="
M36.2969 68.4062
C35.7969 69.7031 35.5938 70 34.5938 70
C33.5938 70 33.4062 69.7031 32.9062 68.4062
L11.7031 8.84375
C9.79688 3.48438 5.79688 2.39062 2.29688 2.39062
L2.29688 -0.203125
C4.09375 0 8.09375 0 10 0
C12.5 0 16.5 0 18.9062 -0.203125
L18.9062 2.39062
C14.2031 2.39062 13.5 5.64062 13.5 6.85938
C13.5 7.76562 13.7031 8.28125 13.9062 8.89062
L19.2031 24
L45.4062 24
L51.4062 6.90625
C51.9062 5.70312 51.9062 5.5 51.9062 5.10938
C51.9062 2.39062 47.5938 2.39062 45.7031 2.39062
L45.7031 0
C48.5938 0 53.7969 0 56.9062 0
C59.5 0 64.5 0 66.9062 -0.203125
L66.9062 2.39062
C61.5938 2.39062 59.7969 2.39062 58.5 6.04688
z

M32.2969 60.5312
L44.5 26.5938
L20.0938 26.5938
z
" id="CMR17-65"/>
      <path d="
M30.9062 61.9531
C28.4062 69 20.5 69 19.2031 69
C18.5938 69 17.5 69 17.5 68
C17.5 67.2188 18.0938 67.1094 18.5938 67.0156
C20.0938 66.8125 21.2969 66.6094 22.9062 63.75
C23.9062 61.8594 34.2031 32.1719 34.2031 31.9688
C34.2031 31.875 34.0938 31.7656 33.2969 30.9688
L7.29688 4.85938
C6.09375 3.65625 5.29688 2.85938 5.29688 1.59375
C5.29688 0.1875 6.5 -1 8.09375 -1
C8.5 -1 9.59375 -0.796875 10.2031 -0.203125
C11.7969 1.28125 26.0938 18.6562 35.2031 29.3906
C37.7969 21.6094 41 12.4531 44.0938 4.07812
C44.5938 2.59375 45.0938 1.1875 46.5 -0.09375
C47.5 -1 47.7031 -1 50.5 -1
L52.4062 -1
C52.7969 -1 53.5 -1 53.5 -0.171875
C53.5 0.265625 53.4062 0.359375 53 0.78125
C52.0938 1.875 51.4062 3.65625 51 4.84375
z
" id="CMMI12-21"/>
      <path d="
M14.2969 74.4844
L1.40625 74.4844
L1.40625 71
L10.7969 71
L10.7969 -21.5156
L1.40625 -21.5156
L1.40625 -25
L14.2969 -25
z
" id="CMR17-93"/>
     </defs>
     <g transform="translate(239.310373708 187.887620816)scale(0.1 -0.1)">
      <use transform="scale(0.9962640099626402)" xlink:href="#CMMI12-21"/>
      <use transform="translate(86.98003823552305 0.0)scale(0.9962640099626402)" xlink:href="#CMR17-91"/>
      <use transform="translate(111.85109671738793 17.61874416251557)scale(0.9962640099626402)" xlink:href="#CMR17-23"/>
      <use transform="translate(111.85109671738793 0.0)scale(0.9962640099626402)" xlink:href="#CMR17-65"/>
      <use transform="translate(180.92352652163763 0.0)scale(0.9962640099626402)" xlink:href="#CMR17-93"/>
     </g>
    </g>
   </g>
   <g id="matplotlib.axis_4">
    <g id="ytick_7">
     <g id="line2d_40">
      <g>
       <use style="stroke:#000000;stroke-width:0.5;" x="56.16" xlink:href="#md7965d1ba0" y="152.118"/>
      </g>
     </g>
     <g id="line2d_41">
      <g>
       <use style="stroke:#000000;stroke-width:0.5;" x="444.6" xlink:href="#md9a1c1a7cd" y="152.118"/>
      </g>
     </g>
     <g id="text_16">
      <!-- $-3.0$ -->
      <g transform="translate(31.681177299 154.608660025)scale(0.1 -0.1)">
       <use transform="scale(0.9962640099626402)" xlink:href="#CMSY10-0"/>
       <use transform="translate(77.4874676506071 0.0)scale(0.9962640099626402)" xlink:href="#CMR17-51"/>
       <use transform="translate(123.17794476766814 0.0)scale(0.9962640099626402)" xlink:href="#CMMI12-58"/>
       <use transform="translate(150.27512185748756 0.0)scale(0.9962640099626402)" xlink:href="#CMR17-48"/>
      </g>
     </g>
    </g>
    <g id="ytick_8">
     <g id="line2d_42">
      <g>
       <use style="stroke:#000000;stroke-width:0.5;" x="56.16" xlink:href="#md7965d1ba0" y="138.267"/>
      </g>
     </g>
     <g id="line2d_43">
      <g>
       <use style="stroke:#000000;stroke-width:0.5;" x="444.6" xlink:href="#md9a1c1a7cd" y="138.267"/>
      </g>
     </g>
     <g id="text_17">
      <!-- $-1.5$ -->
      <g transform="translate(31.681177299 140.757660025)scale(0.1 -0.1)">
       <use transform="scale(0.9962640099626402)" xlink:href="#CMSY10-0"/>
       <use transform="translate(77.4874676506071 0.0)scale(0.9962640099626402)" xlink:href="#CMR17-49"/>
       <use transform="translate(123.17794476766814 0.0)scale(0.9962640099626402)" xlink:href="#CMMI12-58"/>
       <use transform="translate(150.27512185748756 0.0)scale(0.9962640099626402)" xlink:href="#CMR17-53"/>
      </g>
     </g>
    </g>
    <g id="ytick_9">
     <g id="line2d_44">
      <g>
       <use style="stroke:#000000;stroke-width:0.5;" x="56.16" xlink:href="#md7965d1ba0" y="124.416"/>
      </g>
     </g>
     <g id="line2d_45">
      <g>
       <use style="stroke:#000000;stroke-width:0.5;" x="444.6" xlink:href="#md9a1c1a7cd" y="124.416"/>
      </g>
     </g>
     <g id="text_18">
      <!-- $0.0$ -->
      <g transform="translate(39.4299210237 126.906660025)scale(0.1 -0.1)">
       <use transform="scale(0.9962640099626402)" xlink:href="#CMR17-48"/>
       <use transform="translate(45.69047711706103 0.0)scale(0.9962640099626402)" xlink:href="#CMMI12-58"/>
       <use transform="translate(72.78765420688046 0.0)scale(0.9962640099626402)" xlink:href="#CMR17-48"/>
      </g>
     </g>
    </g>
    <g id="ytick_10">
     <g id="line2d_46">
      <g>
       <use style="stroke:#000000;stroke-width:0.5;" x="56.16" xlink:href="#md7965d1ba0" y="110.565"/>
      </g>
     </g>
     <g id="line2d_47">
      <g>
       <use style="stroke:#000000;stroke-width:0.5;" x="444.6" xlink:href="#md9a1c1a7cd" y="110.565"/>
      </g>
     </g>
     <g id="text_19">
      <!-- $1.5$ -->
      <g transform="translate(39.4299210237 113.055660025)scale(0.1 -0.1)">
       <use transform="scale(0.9962640099626402)" xlink:href="#CMR17-49"/>
       <use transform="translate(45.69047711706103 0.0)scale(0.9962640099626402)" xlink:href="#CMMI12-58"/>
       <use transform="translate(72.78765420688046 0.0)scale(0.9962640099626402)" xlink:href="#CMR17-53"/>
      </g>
     </g>
    </g>
    <g id="ytick_11">
     <g id="line2d_48">
      <g>
       <use style="stroke:#000000;stroke-width:0.5;" x="56.16" xlink:href="#md7965d1ba0" y="96.714"/>
      </g>
     </g>
     <g id="line2d_49">
      <g>
       <use style="stroke:#000000;stroke-width:0.5;" x="444.6" xlink:href="#md9a1c1a7cd" y="96.714"/>
      </g>
     </g>
     <g id="text_20">
      <!-- $3.0$ -->
      <g transform="translate(39.4299210237 99.2046600249)scale(0.1 -0.1)">
       <use transform="scale(0.9962640099626402)" xlink:href="#CMR17-51"/>
       <use transform="translate(45.69047711706103 0.0)scale(0.9962640099626402)" xlink:href="#CMMI12-58"/>
       <use transform="translate(72.78765420688046 0.0)scale(0.9962640099626402)" xlink:href="#CMR17-48"/>
      </g>
     </g>
    </g>
    <g id="text_21">
     <!-- $\times10^{-14}$ -->
     <g transform="translate(56.16 84.48)scale(0.1 -0.1)">
      <use transform="scale(0.9962640099626402)" xlink:href="#CMSY10-2"/>
      <use transform="translate(77.4874676506071 0.0)scale(0.9962640099626402)" xlink:href="#CMR17-49"/>
      <use transform="translate(123.17794476766814 0.0)scale(0.9962640099626402)" xlink:href="#CMR17-48"/>
      <use transform="translate(168.86842188472914 36.15363894185866)scale(0.6973817666173724)" xlink:href="#CMSY10-0"/>
      <use transform="translate(223.1094151327055 36.15363894185866)scale(0.6973817666173724)" xlink:href="#CMR17-49"/>
      <use transform="translate(255.09259709682442 36.15363894185866)scale(0.6973817666173724)" xlink:href="#CMR17-52"/>
     </g>
    </g>
   </g>
   <g id="patch_8">
    <path d="
M56.16 87.48
L444.6 87.48" style="fill:none;stroke:#000000;"/>
   </g>
   <g id="patch_9">
    <path d="
M444.6 161.352
L444.6 87.48" style="fill:none;stroke:#000000;"/>
   </g>
   <g id="patch_10">
    <path d="
M56.16 161.352
L444.6 161.352" style="fill:none;stroke:#000000;"/>
   </g>
   <g id="patch_11">
    <path d="
M56.16 161.352
L56.16 87.48" style="fill:none;stroke:#000000;"/>
   </g>
   <g id="legend_2">
    <g id="line2d_50">
     <path d="
M369.825 99.98
L389.825 99.98" style="fill:none;stroke:#000000;stroke-linecap:square;"/>
    </g>
    <g id="line2d_51"/>
    <g id="text_22">
     <!-- residuals -->
     <defs>
      <path d="
M15.5 61.0781
C15.5 63.2656 13.7031 65.1562 11.4062 65.1562
C9.20312 65.1562 7.29688 63.375 7.29688 61.0781
C7.29688 58.8906 9.09375 57 11.4062 57
C13.5938 57 15.5 58.7969 15.5 61.0781
M3.79688 42.2812
L3.79688 39.7031
C9.40625 39.7031 10.2031 39.0938 10.2031 34.3281
L10.2031 6.67188
C10.2031 2.875 9.79688 2.39062 3.40625 2.39062
L3.40625 -0.203125
C5.79688 0 10.0938 0 12.5938 0
C15 0 19.0938 0 21.4062 -0.203125
L21.4062 2.39062
C15.5 2.39062 15.2969 2.98438 15.2969 6.5625
L15.2969 43.375
z
" id="CMR17-105"/>
      <path d="
M29.4062 42.0781
L29.4062 39.5
C35.2969 39.5 36.2031 38.8906 36.2031 34.1562
L36.2031 16.125
C36.2031 7.8125 31.7031 0.59375 24.2969 0.59375
C16.0938 0.59375 15.4062 5.4375 15.4062 10.5938
L15.4062 43.1719
L3.29688 42.0781
L3.29688 39.5
C7.29688 39.5 10 39.5 10.0938 35.5312
L10.0938 16.5312
C10.0938 9.89062 10.0938 5.64062 12.7031 2.85938
C14 1.57812 16.5 -1 23.7031 -1
C32.2031 -1 35.5 6.35938 36.2969 8.5
L36.4062 8.5
L36.4062 -0.984375
L48.2969 -0.984375
L48.2969 2
C42.4062 2 41.5 2.59375 41.5 7.39062
L41.5 43.1719
z
" id="CMR17-117"/>
      <path d="
M30.9062 42.1094
C30.9062 43.9062 30.7969 44 30.2031 44
C29.7969 44 29.7031 43.9062 28.5 42.4219
C28.2031 42.0156 27.2969 41.0156 27 40.625
C23.7969 44 19.2969 44 17.5938 44
C6.5 44 2.5 38.1719 2.5 32.375
C2.5 23.3438 12.7031 21.25 15.5938 20.6406
C21.9062 19.3438 24.0938 18.9375 26.2031 17.125
C27.5 15.9375 29.7031 13.7344 29.7031 10.125
C29.7031 5.90625 27.2969 0.5 18.0938 0.5
C9.40625 0.5 6.29688 7.0625 4.5 15.8281
C4.20312 17.2188 4.20312 17.3281 3.40625 17.3281
C2.59375 17.3281 2.5 17.2188 2.5 15.2344
L2.5 0.890625
C2.5 -0.890625 2.59375 -1 3.20312 -1
C3.70312 -1 3.79688 -0.890625 4.29688 -0.09375
C4.90625 0.796875 6.40625 3.1875 7 4.1875
C9 1.54688 12.5 -1 18.0938 -1
C28 -1 33.2969 4.40625 33.2969 12.2344
C33.2969 17.3438 30.5938 20.0625 29.2969 21.25
C26.2969 24.375 22.7969 25.0625 18.5938 25.8594
C13.0938 27.0781 6.09375 28.4688 6.09375 34.5938
C6.09375 37.1875 7.5 42.7188 17.5938 42.7188
C28.2969 42.7188 28.9062 32.75 29.0938 29.5625
C29.2031 29.0781 29.7031 28.9688 30 28.9688
C30.9062 28.9688 30.9062 29.2812 30.9062 30.9688
z
" id="CMR17-115"/>
      <path d="
M15 23.3906
C15 33 19.0938 42 26.5938 42
C27.2969 42 28 41.9062 28.7031 41.5938
C28.7031 41.5938 26.5 40.8906 26.5 38.3125
C26.5 35.9062 28.4062 34.9062 29.9062 34.9062
C31.0938 34.9062 33.2969 35.6094 33.2969 38.4062
C33.2969 41.6094 30.0938 43.5938 26.7031 43.5938
C19.0938 43.5938 15.7969 36.2031 14.7969 32.7031
L14.7031 32.7031
L14.7031 43.5938
L3.09375 42.5
L3.09375 39.9062
C9 39.9062 9.90625 39.2969 9.90625 34.5
L9.90625 6.6875
C9.90625 2.875 9.5 2.39062 3.09375 2.39062
L3.09375 -0.203125
C5.5 0 10.0938 0 12.7031 0
C15.5938 0 20.7031 0 23.4062 -0.203125
L23.4062 2.39062
C16.2031 2.39062 15 2.39062 15 6.875
z
" id="CMR17-114"/>
     </defs>
     <g transform="translate(397.824923748 103.48)scale(0.1 -0.1)">
      <use transform="scale(0.9962640099626402)" xlink:href="#CMR17-114"/>
      <use transform="translate(35.28076779946296 0.0)scale(0.9962640099626402)" xlink:href="#CMR17-101"/>
      <use transform="translate(75.7664282621809 0.0)scale(0.9962640099626402)" xlink:href="#CMR17-115"/>
      <use transform="translate(111.56776589741595 0.0)scale(0.9962640099626402)" xlink:href="#CMR17-105"/>
      <use transform="translate(136.43882437928085 0.0)scale(0.9962640099626402)" xlink:href="#CMR17-100"/>
      <use transform="translate(187.33419415959685 0.0)scale(0.9962640099626402)" xlink:href="#CMR17-117"/>
      <use transform="translate(238.22956393991285 0.0)scale(0.9962640099626402)" xlink:href="#CMR17-97"/>
      <use transform="translate(283.9200410569739 0.0)scale(0.9962640099626402)" xlink:href="#CMR17-108"/>
      <use transform="translate(308.79109953883875 0.0)scale(0.9962640099626402)" xlink:href="#CMR17-115"/>
     </g>
    </g>
   </g>
  </g>
  <g id="text_23">
   <!-- $f_\lambda \quad [\textrm{erg}\;\textrm{cm}^{-2}\;\textrm{s}^{-1}\;\textrm{\AA}^{-1}]$ -->
   <defs>
    <path d="
M11.0938 18.1875
C13 16.6875 16.2969 15 20.2969 15
C28.2031 15 35 21.2031 35 29.5
C35 32.0938 34.2031 36.0938 31.2031 39.2031
C34 42.0625 38.0938 43 40.4062 43
C40.7969 43 41.4062 43 41.9062 42.7656
C41.5 42.6719 40.5938 42.2812 40.5938 40.7344
C40.5938 39.4844 41.5 38.6094 42.7969 38.6094
C44.2969 38.6094 45.0938 39.5781 45.0938 40.8438
C45.0938 42.6719 43.5938 44.5938 40.4062 44.5938
C36.4062 44.5938 32.9062 42.7812 30.0938 40.3125
C27.0938 43.0156 23.5 44 20.2969 44
C12.4062 44 5.59375 37.7969 5.59375 29.5
C5.59375 23.7812 8.90625 20.1875 9.90625 19.1875
C6.90625 15.6875 6.90625 11.6094 6.90625 11.1094
C6.90625 8.51562 7.90625 4.71875 11.2969 2.625
C6.09375 1.32812 2 -2.64062 2 -7.59375
C2 -14.7344 11.5 -20 22.9062 -20
C33.9062 -20 43.7969 -14.9375 43.7969 -7.48438
C43.7969 6 29 6 21.2969 6
C19 6 14.9062 6 14.4062 6.10938
C11.2969 6.60938 9.20312 9.40625 9.20312 12.8906
C9.20312 13.7812 9.20312 16 11.0938 18.1875
M20.2969 16.6875
C11.5 16.6875 11.5 27.5 11.5 29.5156
C11.5 31.5 11.5 42.3125 20.2969 42.3125
C29.0938 42.3125 29.0938 31.5 29.0938 29.5156
C29.0938 27.5 29.0938 16.6875 20.2969 16.6875
M22.9062 -18.2969
C12.9062 -18.2969 6 -13.0469 6 -7.59375
C6 -4.51562 7.70312 -1.64062 9.90625 -0.0625
C12.4062 1.625 13.4062 1.625 20.2031 1.625
C28.4062 1.625 39.7969 1.625 39.7969 -7.59375
C39.7969 -13.0469 32.9062 -18.2969 22.9062 -18.2969" id="CMR17-103"/>
    <path d="
M34.9062 35
C33 35 30.2031 35 30.2031 31.5156
C30.2031 28.7188 32.5 27.9219 33.7969 27.9219
C34.5 27.9219 37.4062 28.2344 37.4062 31.625
C37.4062 38.5469 30.5938 43.7969 22.9062 43.7969
C12.2969 43.7969 3.29688 34.0312 3.29688 21.2969
C3.29688 8.0625 12.7031 -1 22.9062 -1
C35.2969 -1 38.4062 10.5938 38.4062 11.6875
C38.4062 12.0938 38.2969 12.3906 37.5938 12.3906
C36.9062 12.3906 36.7969 12.2969 36.4062 10.9844
C33.7969 2.8125 28.0938 0.796875 23.7969 0.796875
C17.4062 0.796875 9.70312 6.67188 9.70312 21.3906
C9.70312 36.5312 17.0938 42 23 42
C26.9062 42 32.7031 40.2031 34.9062 35" id="CMR17-99"/>
    <path d="
M44.5938 40.0938
C46.5938 40.0938 47.4062 40.0938 47.4062 42
C47.4062 43 46.5938 43 44.7969 43
L36.7031 43
C38.5938 53.5781 40 60.8906 40.7969 64.1719
C41.4062 66.6406 43.5 69 46.0938 69
C48.2031 69 50.2969 68.0938 51.2969 67.1562
C47.4062 66.75 46.2031 63.7812 46.2031 62.0156
C46.2031 59.9531 47.7031 58.7344 49.5938 58.7344
C51.5938 58.7344 54.5938 60.4688 54.5938 64.3594
C54.5938 68.6406 50.4062 71 46 71
C41.7031 71 37.5 67.7188 35.5 63.7188
C33.7031 60.125 32.7031 56.4375 30.4062 43
L23.7031 43
C21.7969 43 20.7969 43 20.7969 41.2031
C20.7969 40.0938 21.4062 40.0938 23.4062 40.0938
L29.7969 40.0938
C28 30.875 23.9062 8.46875 21.5938 -2.14062
C19.9062 -10.7656 18.4062 -18 13.4062 -18
C13.0938 -18 10.2031 -18 8.40625 -16.1094
C13.5 -15.7031 13.5 -11.3438 13.5 -11.25
C13.5 -9.26562 12 -8.07812 10.0938 -8.07812
C8.09375 -8.07812 5.09375 -9.76562 5.09375 -13.5469
C5.09375 -17.8125 9.5 -20 13.4062 -20
C23.5938 -20 27.7969 -1.84375 28.9062 3.10938
C30.7031 10.75 35.5938 37.125 36.0938 40.0938
z
" id="CMMI12-102"/>
   </defs>
   <g transform="translate(25.3047183657 131.046886383)rotate(-90.0)scale(0.1 -0.1)">
    <use transform="translate(0.0 14.943914544092468)scale(0.9962640099626402)" xlink:href="#CMMI12-102"/>
    <use transform="translate(48.083237663449566 0.0)scale(0.6973817666173724)" xlink:href="#CMMI12-21"/>
    <use transform="translate(179.79508301389322 14.943914544092468)scale(0.9962640099626402)" xlink:href="#CMR17-91"/>
    <use transform="translate(204.66614149575813 14.943914544092468)scale(0.9962640099626402)" xlink:href="#CMR17-101"/>
    <use transform="translate(245.15180195847606 14.943914544092468)scale(0.9962640099626402)" xlink:href="#CMR17-114"/>
    <use transform="translate(280.432569757939 14.943914544092468)scale(0.9962640099626402)" xlink:href="#CMR17-103"/>
    <use transform="translate(353.7970555971747 14.943914544092468)scale(0.9962640099626402)" xlink:href="#CMR17-99"/>
    <use transform="translate(394.2827160598926 14.943914544092468)scale(0.9962640099626402)" xlink:href="#CMR17-109"/>
    <use transform="translate(471.2023059279655 51.097553485951124)scale(0.6973817666173724)" xlink:href="#CMSY10-0"/>
    <use transform="translate(525.4432991759419 51.097553485951124)scale(0.6973817666173724)" xlink:href="#CMR17-50"/>
    <use transform="translate(585.5986218672167 14.943914544092468)scale(0.9962640099626402)" xlink:href="#CMR17-115"/>
    <use transform="translate(621.3999595024518 51.097553485951124)scale(0.6973817666173724)" xlink:href="#CMSY10-0"/>
    <use transform="translate(675.6409527504281 51.097553485951124)scale(0.6973817666173724)" xlink:href="#CMR17-49"/>
    <use transform="translate(735.7962754417031 32.56265870660803)scale(0.9962640099626402)" xlink:href="#CMR17-23"/>
    <use transform="translate(735.7962754417031 14.943914544092468)scale(0.9962640099626402)" xlink:href="#CMR17-65"/>
    <use transform="translate(804.8687052459528 74.82118143388077)scale(0.6973817666173724)" xlink:href="#CMSY10-0"/>
    <use transform="translate(859.109698493929 74.82118143388077)scale(0.6973817666173724)" xlink:href="#CMR17-49"/>
    <use transform="translate(891.5910124630293 14.943914544092468)scale(0.9962640099626402)" xlink:href="#CMR17-93"/>
   </g>
  </g>
 </g>
 <defs>
  <clipPath id="pc949900f65">
   <rect height="73.872" width="388.44" x="56.16" y="87.48"/>
  </clipPath>
  <clipPath id="p365837b872">
   <rect height="73.872" width="388.44" x="56.16" y="13.608"/>
  </clipPath>
 </defs>
</svg>
