<?xml version="1.0" encoding="utf-8" standalone="no"?>
<!DOCTYPE svg PUBLIC "-//W3C//DTD SVG 1.1//EN"
  "http://www.w3.org/Graphics/SVG/1.1/DTD/svg11.dtd">
<!-- Created with matplotlib (http://matplotlib.org/) -->
<svg height="158pt" version="1.1" viewBox="0 0 468 158" width="468pt" xmlns="http://www.w3.org/2000/svg" xmlns:xlink="http://www.w3.org/1999/xlink">
 <defs>
  <style type="text/css">
*{stroke-linecap:butt;stroke-linejoin:round;}
  </style>
 </defs>
 <g id="figure_1">
  <g id="patch_1">
   <path d="
M0 158.4
L468 158.4
L468 0
L0 0
z
" style="fill:#ffffff;"/>
  </g>
  <g id="axes_1">
   <g id="patch_2">
    <path d="
M56.16 71.28
L444.6 71.28
L444.6 14.256
L56.16 14.256
z
" style="fill:#ffffff;"/>
   </g>
   <g id="PolyCollection_1">
    <defs>
     <path d="
M182.825 -87.12
L153.27 -87.12
L153.27 -144.144
L182.825 -144.144
L182.825 -144.144
L182.825 -87.12
z
" id="C0_0_f2a9fc8224"/>
    </defs>
    <g clip-path="url(#pb67a50fc1a)">
     <use style="fill:#808080;fill-opacity:0.5;stroke:#808080;stroke-opacity:0.5;" x="0.0" xlink:href="#C0_0_f2a9fc8224" y="158.4"/>
    </g>
   </g>
   <g id="line2d_1">
    <path clip-path="url(#pb67a50fc1a)" d="
M56.0302 22.6078
L56.4001 21.5566
L56.7699 21.3079
L57.5096 22.6152
L57.8793 21.6189
L58.249 22.3769
L58.6188 22.0633
L58.9884 21.9928
L59.3581 22.9865
L59.7277 21.3822
L60.0973 22.836
L60.4669 22.9594
L60.8364 22.6206
L61.2059 22.7339
L61.5754 21.7177
L61.9449 22.649
L62.3143 21.6051
L62.6837 21.1635
L63.0531 21.2972
L63.4225 22.6481
L63.7918 22.4375
L64.1611 22.5319
L64.5303 22.8854
L64.8996 22.7734
L65.2688 21.8608
L65.638 23.6879
L66.0071 24.0504
L66.3763 26.5356
L66.7454 32.25
L67.4835 46.8601
L67.8525 49.0651
L68.2215 45.6332
L68.9594 33.0735
L69.6972 25.2236
L70.0661 25.1418
L70.4349 22.8742
L70.8037 22.6485
L71.5412 24.2536
L71.9099 24.0791
L72.2786 25.8191
L72.6473 24.9445
L73.0159 24.7405
L73.3845 24.0861
L74.1216 31.1116
L74.4902 37.3798
L74.8587 46.6054
L75.2271 50.065
L75.5956 48.3866
L76.3324 32.237
L77.0691 26.3884
L77.4374 25.104
L77.8057 24.5306
L78.1739 23.0712
L78.9103 23.4229
L79.2785 24.9686
L79.6466 27.4001
L80.3828 35.337
L81.1189 30.9848
L81.4869 25.8796
L81.8549 23.3156
L82.2228 23.6926
L82.5908 23.5503
L82.9587 22.6457
L83.3265 23.5622
L83.6944 21.8131
L84.43 23.6098
L84.7977 23.561
L85.1654 23.744
L85.9008 22.1973
L86.6361 22.621
L87.0037 22.0698
L87.3712 23.1655
L87.7388 22.2283
L88.1063 21.9188
L88.4737 22.1598
L88.8412 22.8671
L89.2086 22.2653
L89.576 23.4363
L89.9434 23.9297
L90.3107 23.567
L90.678 22.9652
L91.0453 22.6162
L91.4126 21.4374
L91.7798 22.2876
L92.147 22.308
L92.5142 23.3691
L92.8813 22.3865
L93.2485 22.3835
L93.6156 22.2039
L93.9826 21.4382
L94.3497 21.9426
L94.7167 22.1215
L95.0837 22.1058
L95.4506 22.9717
L95.8175 25.4993
L96.1844 30.3496
L96.9182 44.814
L97.285 46.0056
L97.6518 41.0665
L98.0185 32.5225
L98.3853 26.5967
L98.752 23.4947
L99.1186 24.3087
L99.4853 22.002
L99.8519 23.1093
L100.219 24.8367
L100.585 28.3748
L101.318 39.112
L101.685 40.6325
L102.051 37.6519
L102.784 27.5194
L103.15 23.9905
L103.517 22.5019
L103.883 23.0486
L104.249 22.7022
L104.982 22.8441
L105.348 23.5596
L105.714 26.4339
L106.446 35.8912
L106.813 35.4464
L107.179 30.0767
L107.911 23.6166
L108.277 22.0314
L108.643 22.4131
L109.374 26.569
L109.74 26.902
L110.106 27.6241
L110.838 25.8905
L111.204 24.3225
L111.569 24.2227
L111.935 22.0124
L112.301 22.7148
L112.666 21.8612
L113.032 22.3061
L113.398 22.0696
L113.763 22.2579
L114.129 21.6851
L114.494 22.0349
L114.86 22.0299
L115.591 24.9088
L115.956 25.4103
L116.321 23.737
L116.687 22.9882
L117.052 24.162
L117.417 22.0468
L117.783 23.3596
L118.148 26.1458
L118.513 32.7421
L118.878 41.7602
L119.244 45.2114
L119.609 44.0385
L120.704 26.5286
L121.069 24.2362
L121.434 24.4385
L122.164 26.2533
L122.529 26.4286
L122.894 26.013
L123.258 24.5027
L123.623 24.4833
L123.988 21.2498
L124.353 21.9994
L124.718 23.3705
L125.082 21.4995
L125.447 22.5204
L126.176 22.7889
L126.541 23.3355
L126.905 22.5162
L127.27 22.5692
L127.635 23.1349
L127.999 27.24
L128.364 33.9923
L128.728 38.6802
L129.092 39.8225
L129.457 36.0608
L130.185 25.4112
L130.55 23.1339
L130.914 23.7677
L131.278 21.3641
L131.643 22.1527
L132.007 22.2463
L132.371 23.2137
L132.735 21.8462
L133.099 21.4757
L133.463 22.4816
L133.827 22.3485
L134.191 22.5547
L134.555 22.4065
L134.919 23.1299
L135.283 21.9028
L135.647 22.4343
L136.011 21.8785
L136.375 22.0076
L136.739 23.598
L137.102 23.2887
L137.466 22.5465
L137.83 22.6613
L138.194 21.6596
L138.557 22.2353
L138.921 23.288
L139.285 20.5013
L139.648 21.7524
L140.012 21.8735
L140.375 22.718
L141.102 26.1101
L141.466 25.8917
L142.193 24.2277
L142.556 27.7886
L142.92 29.5507
L143.283 33.8989
L143.646 31.7148
L144.009 26.8542
L144.736 22.848
L145.099 22.7639
L145.462 22.9038
L145.825 22.1037
L146.189 22.8179
L146.552 23.1122
L146.915 22.6252
L147.278 22.7132
L147.641 22.9296
L148.004 23.4484
L148.367 23.3858
L148.73 23.8026
L149.092 22.6383
L149.455 22.9801
L149.818 24.0044
L150.181 22.9619
L150.544 22.8133
L150.906 22.8522
L151.269 23.2245
L151.632 21.7507
L151.995 22.8768
L152.357 22.803
L152.72 22.0489
L153.082 23.111
L153.445 21.7206
L153.807 21.4856
L154.17 23.0545
L154.895 23.6848
L155.257 23.8627
L155.62 22.5686
L155.982 24.0786
L156.344 22.9911
L157.431 25.5488
L157.793 25.6943
L158.156 29.4849
L159.242 47.4176
L159.604 48.2013
L160.69 28.9489
L161.052 25.5132
L161.414 25.4012
L161.776 23.2398
L162.138 23.343
L162.5 21.8606
L162.862 22.8353
L163.585 22.0316
L163.947 23.6988
L164.309 22.5167
L165.032 21.4423
L165.394 22.1909
L165.755 23.4674
L166.117 21.9343
L166.478 23.2098
L166.84 22.1371
L167.202 22.3707
L167.563 22.9596
L167.924 22.9169
L168.286 23.1564
L168.647 23.9375
L169.009 22.911
L169.37 22.8096
L169.731 21.6063
L170.454 23.2629
L170.815 23.4103
L171.537 22.3428
L171.898 22.4413
L172.26 23.3389
L173.343 22.0825
L173.704 21.8198
L174.065 22.9144
L174.426 22.6832
L174.787 23.0088
L175.147 23.8277
L175.508 22.9539
L176.23 25.2522
L176.591 26.0849
L176.952 31.4533
L177.673 48.3227
L178.034 53.949
L178.394 51.6888
L178.755 45.6673
L179.476 29.6248
L179.836 25.1525
L180.197 23.1334
L180.557 22.3588
L181.278 21.6181
L181.639 22.9264
L182.359 23.2272
L182.72 22.8611
L183.08 22.9072
L183.44 23.1913
L183.8 23.0577
L184.521 22.4454
L184.881 23.5178
L185.241 22.2926
L185.601 23.3469
L185.961 23
L186.321 23.0009
L186.681 24.4774
L187.041 23.4578
L187.401 27.3279
L187.761 33.276
L188.121 35.754
L188.481 35.5953
L188.841 32.6888
L189.2 27.494
L189.56 29.5723
L189.92 34.6141
L190.639 51.2731
L190.999 53.1086
L191.359 47.3798
L192.078 32.7944
L192.437 28.755
L193.156 23.305
L193.516 22.8494
L193.875 23.5388
L194.235 23.3655
L194.594 23.438
L194.953 23.7791
L195.313 22.6813
L196.031 21.6625
L196.75 24.0107
L197.109 23.1103
L197.468 22.6795
L197.827 22.9598
L198.186 22.9239
L198.905 21.9815
L199.264 22.448
L199.623 21.9923
L199.981 22.076
L200.34 21.8657
L200.699 23.1651
L201.058 22.9131
L201.417 23.3486
L201.776 22.4421
L202.135 22.5415
L202.493 23.3181
L203.211 22.0068
L203.57 23.4885
L203.928 23.4669
L204.287 21.543
L204.645 23.4056
L205.004 23.8025
L205.363 22.5797
L205.721 24.1567
L206.08 24.6252
L206.438 25.3524
L207.513 23.5276
L207.872 25.9459
L208.23 23.8536
L208.947 25.571
L209.305 25.556
L209.663 28.0231
L210.021 34.0104
L210.737 51.1183
L211.096 54.9452
L211.812 51.7339
L212.528 46.1095
L213.601 28.4697
L213.959 25.6674
L214.675 23.099
L215.033 24.05
L215.748 22.0046
L216.106 21.5768
L216.464 23.6581
L216.821 23.737
L217.179 22.6667
L217.537 22.563
L217.894 23.3216
L218.252 23.0661
L218.609 21.862
L218.967 23.5867
L219.324 23.0938
L219.682 23.2472
L220.039 22.0669
L220.396 22.8782
L221.111 22.4232
L221.468 23.8997
L221.826 22.9162
L222.183 23.1564
L222.54 23.9182
L222.897 24.1827
L223.254 24.113
L223.611 23.3146
L223.968 24.0019
L224.326 25.1863
L224.683 22.9951
L225.04 23.443
L225.397 22.4965
L225.754 24.0554
L226.11 23.1853
L226.467 25.0005
L226.824 28.3209
L227.181 33.6944
L227.538 35.4095
L227.895 33.5749
L228.965 25.1817
L229.322 23.6384
L229.678 24.4059
L230.035 22.5738
L230.391 23.1182
L231.104 26.316
L231.461 26.7955
L231.817 24.2306
L232.174 25.6804
L232.53 24.0718
L232.887 23.4593
L233.243 24.0439
L233.599 23.2665
L233.956 24.0333
L234.312 25.3268
L234.668 23.7532
L235.737 23.3121
L236.093 24.9381
L236.805 30.6069
L237.161 32.6875
L237.517 32.1224
L237.873 29.6482
L238.585 23.094
L238.941 23.5793
L239.297 21.804
L239.653 22.6519
L240.009 23.0682
L240.364 23.7979
L240.72 23.3097
L241.076 22.5432
L241.432 23.8312
L241.787 23.8287
L242.143 22.8157
L242.499 24.4309
L242.854 24.5106
L243.21 24.7936
L243.565 23.9828
L243.921 23.8158
L244.276 24.5132
L244.632 23.945
L244.987 23.9089
L245.343 24.0958
L245.698 23.3959
L246.054 24.5956
L246.409 23.3564
L246.764 25.3594
L247.119 23.0826
L247.475 24.4201
L247.83 24.9252
L248.185 23.6706
L248.54 24.2413
L248.895 24.2678
L249.25 23.4354
L249.606 24.5576
L249.961 23.5103
L250.316 23.6858
L250.671 24.7356
L251.026 23.388
L251.735 24.4499
L252.09 24.1832
L252.445 24.2469
L252.8 24.6053
L253.509 23.3759
L253.864 22.9779
L254.574 24.2111
L254.928 24.2516
L255.283 23.4246
L255.637 24.0869
L255.992 24.5104
L256.347 22.8627
L256.701 24.2229
L257.056 23.7006
L257.41 22.2725
L257.764 23.3348
L258.119 23.4615
L258.473 24.5903
L258.828 23.4618
L259.182 23.7156
L259.536 25.1833
L259.89 24.1767
L260.953 23.0879
L261.307 20.9771
L261.661 24.2775
L262.015 24.2628
L262.369 23.8047
L262.724 25.5243
L263.431 24.8333
L263.785 26.4102
L264.139 24.248
L264.493 23.7241
L264.847 25.2757
L265.555 24.0888
L265.909 23.0266
L266.262 23.2415
L266.616 25.0336
L267.677 41.3438
L268.031 44.0064
L268.384 42.4964
L268.738 36.1499
L269.445 27.7682
L269.798 26.47
L270.152 26.4465
L270.505 26.9403
L270.859 26.1086
L271.212 26.9745
L271.565 27.5454
L271.919 25.0891
L272.272 25.901
L272.978 23.9023
L273.331 24.6647
L273.685 24.6585
L274.038 23.5744
L274.391 24.9506
L274.744 23.611
L275.097 24.2784
L275.45 22.9387
L275.803 26.2793
L276.156 28.5065
L276.509 33.1421
L276.862 42.0409
L277.215 46.5352
L277.568 45.0771
L278.626 29.5592
L278.979 26.8549
L279.684 24.9155
L280.037 23.9653
L280.389 24.3576
L280.742 23.2394
L281.095 24.4396
L281.447 24.0997
L281.8 25.5242
L282.152 24.4279
L282.505 25.7942
L283.209 24.3932
L283.562 24.6152
L283.914 23.9089
L284.266 23.8859
L284.619 24.611
L284.971 24.5445
L285.323 26.3792
L285.675 29.0732
L286.028 34.0436
L286.38 40.9172
L286.732 42.9602
L287.084 40.9521
L287.436 33.8969
L287.788 29.671
L288.14 27.1289
L288.492 25.8581
L288.844 23.2274
L289.196 23.9191
L289.548 25.642
L289.9 23.5181
L290.251 26.313
L290.603 28.15
L290.955 29.1032
L291.307 29.6889
L292.01 24.8374
L292.362 24.9413
L292.714 25.4568
L293.065 27.2403
L293.768 29.4538
L294.12 26.5689
L295.174 24.1533
L295.526 24.6301
L295.877 24.1865
L296.228 24.8386
L296.58 22.2626
L296.931 23.7407
L297.282 22.546
L297.634 23.5264
L297.985 24.131
L298.336 23.537
L298.687 23.7468
L299.038 23.8
L299.389 23.7008
L299.74 25.1004
L300.092 22.8107
L300.443 22.8737
L300.794 24.3397
L301.144 22.5525
L301.495 23.6927
L301.846 23.1184
L302.548 25.0539
L302.899 21.9565
L303.25 23.6616
L303.6 24.1018
L303.951 23.4712
L304.302 23.2994
L304.653 22.8415
L305.003 24.0411
L305.354 22.8291
L305.704 23.7046
L306.055 25.1381
L306.406 25.8078
L306.756 25.0518
L307.107 24.5905
L307.807 22.6863
L308.158 23.4533
L308.508 25.7429
L308.859 25.3623
L309.559 25.6609
L309.909 24.8113
L310.26 25.7318
L310.61 25.2914
L310.96 26.137
L311.31 25.6213
L311.66 26.2361
L312.36 23.6495
L312.71 23.3336
L313.06 23.665
L313.41 24.4573
L313.76 23.6541
L314.11 25.2601
L314.46 22.922
L314.81 24.5052
L315.16 23.6447
L315.51 24.4785
L315.859 24.2006
L316.209 24.5923
L316.559 26.2576
L316.909 25.9096
L317.258 24.4248
L317.608 26.1177
L317.957 26.5529
L318.307 25.0575
L318.657 22.1201
L319.006 24.5915
L319.356 24.0233
L319.705 25.9379
L320.055 23.5494
L320.404 24.3698
L321.103 24.2244
L321.452 23.6252
L321.801 23.9477
L322.151 24.4254
L322.5 23.5307
L322.849 26.259
L323.198 25.9323
L323.547 26.54
L323.896 25.7217
L324.246 25.8107
L324.595 26.2764
L324.944 24.3485
L325.293 21.2192
L325.642 24.8984
L325.991 23.7195
L326.34 24.0421
L326.688 23.7543
L327.037 22.3184
L327.386 25.3627
L327.735 22.3935
L328.084 25.1043
L328.432 25.0655
L328.781 25.1424
L329.13 24.4512
L329.479 25.5638
L329.827 24.5492
L330.176 25.3196
L330.524 25.565
L330.873 24.7918
L331.222 26.1162
L331.57 25.3146
L331.919 25.4455
L332.267 23.5297
L332.615 24.0482
L332.964 25.1915
L333.312 24.894
L333.66 25.1254
L334.009 23.7424
L334.357 23.0864
L334.705 25.8314
L335.053 25.1826
L335.402 25.6838
L335.75 28.6885
L336.098 24.9515
L336.446 25.2934
L336.794 25.23
L337.142 24.2803
L337.49 24.293
L337.838 23.1041
L338.534 25.2867
L338.882 26.943
L339.23 23.2959
L339.578 25.116
L339.926 25.1902
L340.273 25.3846
L340.621 25.2743
L340.969 26.1484
L341.317 23.6123
L341.664 25.5044
L342.012 24.3431
L342.36 23.9587
L342.707 23.8014
L343.055 25.634
L343.402 24.742
L343.75 25.7479
L344.097 25.3391
L344.445 25.8386
L344.792 28.2124
L345.139 28.3002
L345.834 26.5201
L346.182 26.2564
L346.529 26.1648
L346.876 27.1149
L347.223 26.8209
L347.918 24.1774
L348.265 25.1358
L348.612 23.2837
L348.959 23.9612
L350 28.5134
L350.694 33.2524
L351.041 30.6809
L351.388 30.1519
L352.081 25.5815
L352.428 25.9333
L352.775 23.7788
L353.468 26.4604
L353.815 23.5307
L354.162 25.5161
L354.508 26.0167
L354.855 30.2433
L355.202 31.7925
L355.548 32.3054
L356.241 27.3227
L357.28 24.8417
L357.627 25.1985
L357.973 24.6875
L358.319 26.086
L358.666 26.8627
L359.012 25.8317
L359.704 26.5885
L360.051 27.1925
L360.397 28.0903
L360.743 26.5021
L361.089 26.0886
L361.435 26.053
L362.127 25.6715
L362.473 28.7705
L362.819 29.3909
L363.165 34.6982
L363.857 47.923
L364.203 48.0945
L364.894 35.6597
L365.24 31.7904
L365.586 32.5145
L366.277 45.6493
L366.623 49.9132
L366.968 48.4843
L367.314 45.4641
L367.659 39.2313
L368.005 35.8094
L368.35 37.7423
L369.041 52.3805
L369.387 56.553
L369.732 53.2876
L370.423 39.9774
L370.768 31.2035
L371.458 26.6482
L371.804 26.6811
L372.149 25.622
L372.494 26.4384
L372.839 23.1877
L373.184 25.5611
L373.874 24.549
L374.219 26.4288
L374.564 26.484
L374.909 22.7167
L375.254 25.2657
L375.599 25.2148
L375.944 26.0902
L376.289 26.3772
L376.634 25.4839
L376.978 26.1304
L377.323 27.3924
L377.668 25.0285
L378.012 26.4359
L378.357 26.6166
L379.046 32.0038
L379.391 33.2095
L380.08 31.1521
L380.425 27.8801
L380.769 28.1687
L381.113 25.1992
L381.458 26.9386
L381.802 24.727
L382.491 24.9045
L382.835 23.1256
L383.179 25.6215
L383.524 26.4514
L383.868 24.7366
L384.212 24.3973
L384.556 24.6635
L384.9 25.1028
L385.244 25.1915
L385.589 26.3614
L385.933 24.0609
L386.277 26.633
L386.621 24.1013
L386.965 25.273
L387.308 24.2497
L387.652 25.6444
L387.996 22.9801
L388.34 23.8254
L388.684 26.2485
L389.028 23.2605
L389.371 24.8624
L389.715 23.8579
L390.059 25.6607
L390.402 26.8257
L391.09 34.0666
L391.777 46.0292
L392.12 44.5603
L392.464 41.8937
L393.151 28.6566
L393.494 28.2846
L393.838 26.1417
L394.181 27.2146
L394.524 27.345
L394.868 27.9585
L395.211 26.5508
L395.554 27.5012
L395.897 26.0831
L396.24 26.2274
L396.584 24.7003
L396.927 26.0846
L397.27 25.6846
L397.613 26.0961
L398.299 26.0433
L398.642 26.4452
L398.985 25.9241
L399.328 25.0339
L399.671 26.1292
L400.014 25.8344
L400.356 26.9055
L400.699 24.1441
L401.042 25.4811
L401.727 23.8283
L402.07 25.5023
L402.413 26.2743
L402.755 26.2301
L403.098 25.444
L403.441 27.2004
L403.783 24.5999
L404.126 25.2796
L404.468 24.814
L404.811 26.144
L405.153 23.4018
L405.496 25.5403
L405.838 25.7492
L406.18 24.4103
L406.523 25.6388
L406.865 25.7129
L407.207 25.4587
L407.549 24.8442
L407.892 25.1014
L408.234 25.7548
L408.576 25.3229
L408.918 26.0506
L409.26 24.5252
L409.602 23.5429
L410.628 25.8245
L411.312 24.5711
L411.654 25.8398
L411.996 25.5412
L412.338 25.5867
L412.68 26.1417
L413.021 26.4724
L413.363 27.9105
L413.705 27.8424
L414.388 30.7263
L414.73 29.8881
L415.071 28.2221
L415.413 30.1496
L415.755 27.9021
L416.096 30.5457
L416.438 30.3029
L417.121 39.2145
L417.803 54.3305
L418.145 54.598
L418.486 50.0816
L419.51 32.2366
L419.851 28.9122
L420.192 29.559
L420.533 27.4766
L420.874 26.6297
L421.216 27.4244
L421.557 27.578
L421.898 27.4531
L422.239 25.1749
L422.58 24.7894
L422.921 27.6017
L423.262 27.9733
L423.602 24.1532
L423.943 25.3485
L424.284 25.2854
L424.966 26.0362
L425.306 24.4385
L425.647 26.5073
L425.988 25.2553
L426.329 26.7013
L426.669 26.9802
L427.01 25.825
L427.35 27.0447
L427.691 24.6358
L428.031 26.6257
L428.372 24.9415
L428.712 26.7826
L429.053 25.3176
L429.393 24.6208
L430.074 26.9828
L430.414 25.7939
L431.095 30.9112
L431.435 34.6017
L431.775 43.491
L432.115 49.1732
L432.456 48.8373
L432.796 45.3453
L433.476 29.9002
L434.156 25.4171
L434.496 28.431
L434.836 27.1776
L435.176 24.9335
L435.516 25.3428
L435.856 24.8535
L436.195 28.2957
L436.535 28.5957
L436.875 28.065
L437.215 26.6574
L437.894 31.6143
L438.234 32.7503
L438.573 38.5601
L438.913 37.5258
L439.253 33.0271
L439.592 34.3789
L439.932 29.5312
L440.271 28.2157
L440.611 26.0371
L441.289 25.6382
L441.968 24.413
L442.307 26.8328
L442.647 25.1082
L442.986 24.7681
L443.325 26.1503
L443.664 24.1587
L444.004 24.5145
L444.004 24.5145" style="fill:none;stroke:#0000ff;stroke-linecap:square;"/>
   </g>
   <g id="line2d_2">
    <path clip-path="url(#pb67a50fc1a)" d="
M56.0302 23.9469
L56.4001 23.2998
L56.7699 22.7543
L57.1398 22.4986
L57.8793 22.4179
L60.8364 22.5298
L62.3143 23.1211
L63.7918 22.6275
L64.5303 22.6468
L65.2688 22.8379
L65.638 23.1002
L66.0071 23.881
L66.3763 26.2027
L66.7454 31.3512
L67.4835 45.4633
L67.8525 46.7927
L68.2215 42.195
L68.9594 29.2172
L69.3283 25.785
L69.6972 24.0483
L70.0661 23.21
L70.4349 22.8773
L70.8037 22.8201
L71.1725 22.9804
L71.5412 23.4275
L72.2786 24.5044
L72.6473 24.4508
L73.0159 24.1017
L73.3845 24.1458
L73.7531 25.6549
L74.1216 29.9296
L74.8587 44.8938
L75.2271 48.6005
L75.5956 46.024
L76.3324 32.659
L76.7007 28.4147
L77.0691 26.4255
L78.1739 23.8379
L78.5421 23.2067
L78.9103 23.164
L79.2785 24.2819
L79.6466 27.3349
L80.3828 35.2337
L80.7509 34.7243
L81.8549 23.7131
L82.2228 22.8056
L82.5908 22.6235
L83.3265 22.6622
L84.7977 22.9415
L85.9008 22.7029
L89.2086 23.0172
L89.9434 23.0513
L91.4126 22.6114
L93.2485 22.6906
L94.3497 22.88
L94.7167 23.0523
L95.0837 23.4243
L95.4506 24.4365
L95.8175 27.2245
L96.1844 33.0813
L96.9182 48.5091
L97.285 49.9517
L97.6518 44.74
L98.3853 29.3793
L98.752 25.5138
L99.1186 23.9991
L99.4853 23.5427
L99.8519 23.6447
L100.219 24.6686
L100.585 27.6395
L101.318 38.6003
L101.685 40.7562
L102.051 37.8337
L102.784 27.8152
L103.15 25.5674
L103.883 23.7488
L104.249 23.1923
L104.616 23.0097
L104.982 23.3031
L105.348 24.5455
L105.714 27.5419
L106.446 35.3897
L106.813 35.1231
L107.911 24.121
L108.277 23.1364
L108.643 23.1433
L109.009 23.7408
L110.106 26.9157
L110.472 27.2994
L110.838 27.0033
L111.204 26.0325
L111.935 23.5551
L112.301 22.9243
L112.666 22.7067
L113.763 22.6585
L114.494 22.7923
L114.86 23.1556
L115.591 24.6859
L115.956 25.0203
L116.321 24.6183
L117.052 23.2345
L117.417 23.1521
L117.783 23.7783
L118.148 25.8323
L118.513 30.3803
L119.244 42.0395
L119.609 42.0309
L120.704 25.8046
L121.069 24.0911
L121.434 24.3053
L122.164 27.3644
L122.529 27.8548
L122.894 26.718
L123.623 23.495
L123.988 22.9552
L124.718 22.8587
L126.905 22.8022
L127.27 22.9384
L127.635 23.5867
L127.999 25.5941
L128.728 32.9304
L129.092 33.8909
L129.457 31.3654
L130.185 24.4803
L130.55 23.2214
L130.914 22.8594
L131.278 22.7743
L131.643 22.8163
L132.007 23.0213
L132.735 23.6563
L133.099 23.6607
L134.191 22.8313
L134.919 22.8017
L138.194 23.1259
L138.921 23.6335
L139.285 23.6903
L140.012 23.4625
L140.375 23.7169
L141.102 24.5745
L141.829 24.5756
L142.193 25.22
L142.556 27.3265
L142.92 30.2269
L143.283 31.7444
L143.646 30.469
L144.373 24.6436
L144.736 23.2924
L145.099 22.8976
L145.825 22.8208
L148.367 22.9865
L149.092 23.089
L149.818 23.153
L150.906 24.03
L151.269 23.827
L151.995 23.071
L152.357 22.9512
L154.532 22.944
L155.62 22.9565
L157.069 22.9779
L157.431 23.2939
L157.793 24.4866
L158.156 27.4094
L159.242 41.5525
L159.604 41.1441
L159.966 36.6964
L160.69 26.1946
L161.052 24.1628
L161.414 23.9523
L161.776 24.3813
L162.138 24.6055
L162.5 24.3272
L163.223 23.3261
L163.585 23.1276
L164.67 23.0314
L166.117 23.0811
L167.202 23.2358
L170.093 23.0743
L172.26 23.2054
L172.621 23.2063
L173.704 23.6055
L175.508 23.398
L175.869 23.5891
L176.23 24.3391
L176.591 26.7283
L176.952 32.0534
L177.673 48.0774
L178.034 52.2157
L178.394 50.3811
L179.836 25.1613
L180.197 23.7343
L180.557 23.3342
L181.278 23.2349
L182.72 23.289
L184.161 23.9103
L184.881 23.67
L185.601 23.3877
L186.321 23.3365
L186.681 23.6065
L187.041 24.7111
L187.401 27.3899
L187.761 31.1602
L188.121 33.7495
L188.481 33.2222
L189.2 28.0249
L189.56 29.2051
L189.92 34.6623
L190.639 49.0076
L190.999 49.9571
L191.359 44.9656
L192.078 30.8862
L192.437 27.0338
L192.797 25.1133
L193.156 24.1397
L193.516 23.669
L193.875 23.5166
L194.235 23.5737
L194.953 24.158
L196.391 25.6935
L196.75 25.6406
L197.109 25.298
L198.186 23.9372
L198.545 23.98
L198.905 24.2509
L199.264 24.3796
L199.623 24.1777
L200.34 23.4687
L201.058 23.285
L202.135 23.3942
L202.852 23.5532
L203.57 23.4458
L204.287 23.3129
L205.004 23.3732
L205.721 23.6806
L206.797 24.6931
L207.155 24.6258
L207.872 24.2567
L208.23 24.3242
L208.588 24.5048
L208.947 24.8628
L209.305 25.9914
L209.663 29.1167
L210.021 35.2255
L210.737 50.1985
L211.096 52.6602
L211.454 51.1349
L211.812 48.8293
L212.17 47.3339
L212.528 44.9263
L213.244 33.1875
L213.601 27.9105
L213.959 25.1997
L214.317 24.2432
L214.675 23.9253
L215.391 23.6527
L216.821 23.4953
L219.324 23.4038
L221.111 23.5259
L222.183 24.049
L222.897 24.3601
L223.611 24.3109
L223.968 24.2787
L224.683 24.5971
L225.04 24.7608
L225.754 24.7838
L226.11 25.0959
L226.467 26.6641
L227.538 37.3374
L227.895 35.8113
L228.608 27.1749
L228.965 24.9446
L229.322 24.3111
L230.035 24.1453
L230.391 24.1533
L230.748 24.3742
L231.104 24.7278
L231.461 24.9169
L231.817 24.7325
L232.53 23.8019
L232.887 23.5296
L233.599 23.4336
L235.024 23.5793
L235.381 23.5537
L235.737 23.6839
L236.093 24.3957
L236.449 26.1917
L237.161 30.7302
L237.517 30.5545
L238.585 24.795
L238.941 24.4554
L239.297 24.6208
L239.653 25.1266
L240.364 26.6813
L240.72 26.7625
L241.076 26.0391
L241.787 24.1247
L242.143 23.7422
L242.499 23.7533
L242.854 24.0631
L243.565 24.9897
L243.921 25.2018
L244.276 25.0788
L245.343 23.9688
L245.698 23.8868
L246.054 24.0767
L246.764 24.961
L247.119 25.0563
L247.475 24.6978
L248.185 23.7523
L248.54 23.6217
L249.961 23.8079
L251.026 23.5569
L251.735 23.6139
L252.445 23.7624
L253.155 23.6857
L254.219 23.5606
L255.283 23.6684
L256.701 24.0277
L257.764 23.6817
L258.473 23.7357
L259.182 23.9254
L259.89 23.813
L260.599 23.6642
L261.661 23.8045
L262.369 24.0272
L263.431 24.4896
L264.139 24.4757
L264.847 24.1905
L265.555 23.8287
L265.909 23.839
L266.262 24.13
L266.616 25.2426
L266.97 28.226
L268.031 42.9492
L268.384 41.181
L269.445 26.37
L269.798 24.7067
L270.152 24.1013
L270.505 23.917
L271.212 23.9814
L271.919 24.1876
L272.625 24.103
L273.331 24.0588
L274.391 24.4878
L275.097 24.4778
L275.45 24.8378
L275.803 26.3666
L276.156 30.2872
L277.215 49.3624
L277.568 48.1329
L278.626 32.0494
L279.684 26.6032
L280.037 25.0993
L280.389 24.3501
L280.742 24.2163
L281.095 24.474
L281.8 25.2899
L282.152 25.2644
L283.209 24.1026
L283.914 23.9109
L284.619 23.9611
L284.971 24.2458
L285.323 25.3648
L285.675 28.3871
L286.38 39.2718
L286.732 41.7105
L287.084 39.2084
L287.788 28.3387
L288.14 25.3656
L288.492 24.3255
L288.844 24.2794
L289.196 24.9249
L290.251 29.4347
L290.603 29.7545
L290.955 29.1378
L292.01 25.6002
L292.362 25.3897
L292.714 26.4221
L293.417 29.5958
L293.768 29.3921
L294.823 24.7042
L295.174 24.2629
L295.526 24.2563
L296.228 24.6044
L296.58 24.6053
L297.985 23.9587
L299.389 24.0136
L300.794 24.3302
L301.495 24.3357
L301.846 24.6026
L302.548 25.301
L302.899 25.2064
L303.951 24.1403
L304.653 24.1458
L305.003 24.2937
L305.354 24.6199
L306.055 25.5088
L306.406 25.5147
L307.457 24.3021
L307.807 24.2608
L308.158 24.3944
L308.859 25.0784
L310.26 26.8111
L310.61 27.5457
L310.96 27.8925
L311.31 27.4843
L312.36 24.8205
L312.71 24.4245
L313.06 24.2376
L313.41 24.225
L314.46 24.6146
L315.51 24.3574
L315.859 24.5024
L316.209 24.8152
L317.258 26.422
L317.608 26.461
L318.657 24.8726
L319.006 24.8397
L319.705 24.9778
L320.753 24.7953
L322.151 24.4459
L322.5 24.4728
L323.896 24.9792
L324.944 24.2497
L325.991 24.1969
L327.386 24.374
L328.084 24.7084
L328.781 25.3624
L329.13 25.413
L329.827 24.9521
L330.176 24.9378
L331.222 25.501
L331.919 25.2761
L332.964 24.9682
L334.357 24.8796
L334.705 25.586
L335.402 27.8816
L335.75 27.9891
L336.098 27.0533
L336.446 25.778
L336.794 24.9299
L337.142 24.6908
L338.186 24.8441
L338.882 24.738
L339.578 24.7011
L340.273 24.5149
L342.012 24.5753
L343.402 25.0441
L343.75 25.0014
L344.097 25.1684
L345.139 26.6432
L345.487 26.3164
L346.182 25.1812
L346.529 25.128
L347.223 25.3769
L347.918 24.9969
L348.612 24.6964
L348.959 24.7501
L349.306 25.1014
L349.653 25.9993
L350.694 30.398
L351.041 30.1793
L352.428 24.8421
L352.775 24.5846
L353.468 24.5357
L353.815 24.6639
L354.162 25.2192
L354.508 26.6982
L355.202 31.2153
L355.548 31.5998
L355.895 29.9486
L356.588 25.6553
L356.934 24.848
L357.28 24.6378
L358.319 24.6482
L361.781 24.886
L362.127 25.0994
L362.473 25.9265
L362.819 28.3854
L363.857 44.492
L364.203 44.4152
L365.24 30.7751
L365.586 32.1412
L366.623 48.2154
L366.968 47.42
L367.659 37.9584
L368.005 36.6622
L368.35 40.0905
L369.041 53.3523
L369.387 56.6276
L369.732 54.7669
L371.113 30.7559
L371.458 29.0345
L372.149 27.9195
L372.839 26.792
L373.184 26.4732
L373.874 26.1309
L374.564 25.5831
L375.254 25.3617
L376.289 25.1664
L378.012 25.4519
L378.357 26.5142
L379.391 34.1679
L379.736 33.8566
L380.769 26.2807
L381.113 25.3336
L381.458 25.0042
L382.147 24.8784
L384.556 24.9618
L385.244 25.074
L386.277 25.5219
L386.965 25.3166
L387.652 25.1002
L389.371 25.019
L389.715 25.0713
L390.059 25.2784
L390.402 26.0573
L390.746 28.3117
L391.09 32.8311
L391.777 43.5443
L392.12 44.0117
L392.464 39.9428
L393.151 29.0527
L393.494 26.4529
L393.838 25.6228
L394.181 25.6876
L394.868 26.3745
L395.211 26.366
L396.24 25.5537
L397.27 25.1678
L397.956 25.1746
L398.985 25.4008
L399.671 25.2501
L400.356 25.1275
L401.042 25.3642
L401.385 25.6819
L401.727 26.3031
L402.413 27.9229
L402.755 27.9535
L403.783 25.6608
L404.126 25.4714
L405.153 25.7002
L406.18 25.3701
L407.207 25.1676
L407.892 25.2959
L408.576 25.4928
L409.26 25.3838
L409.944 25.2272
L411.312 25.2712
L412.68 25.4048
L413.021 25.6523
L413.363 26.2553
L414.047 28.0992
L414.388 28.3667
L414.73 27.8876
L415.071 27.1089
L415.413 26.6172
L415.755 26.6829
L416.096 27.4008
L416.438 29.1877
L416.779 32.8704
L417.803 51.5457
L418.145 52.6121
L418.486 48.6369
L419.169 35.091
L419.51 30.4898
L419.851 28.0479
L420.192 26.9182
L420.533 26.3725
L421.216 25.8929
L421.898 25.7482
L423.602 25.822
L424.625 25.503
L426.329 25.4734
L427.01 25.6632
L427.691 26.1555
L428.372 27.0105
L428.712 27.1069
L429.053 26.7929
L429.734 25.8321
L430.074 25.639
L430.414 25.7633
L430.755 26.6136
L431.095 29.1356
L432.115 44.5195
L432.456 44.2572
L433.816 26.5956
L434.156 25.8987
L434.836 25.7022
L435.516 25.6618
L435.856 25.8693
L436.535 26.9941
L437.215 28.2482
L437.554 29.966
L437.894 33.6666
L438.573 42.4442
L438.913 42.6386
L439.253 39.2754
L439.932 30.3744
L440.271 27.7795
L440.611 26.4305
L440.95 25.8579
L441.289 25.6767
L442.647 25.6261
L443.664 25.6578
L444.004 25.9158
L444.004 25.9158" style="fill:none;stroke:#ff0000;stroke-linecap:square;"/>
   </g>
   <g id="matplotlib.axis_1">
    <g id="xtick_1">
     <g id="line2d_3">
      <defs>
       <path d="
M0 0
L0 -4" id="mc7db9fdffb" style="stroke:#000000;stroke-width:0.5;"/>
      </defs>
      <g>
       <use style="stroke:#000000;stroke-width:0.5;" x="56.16" xlink:href="#mc7db9fdffb" y="71.28"/>
      </g>
     </g>
     <g id="line2d_4">
      <defs>
       <path d="
M0 0
L0 4" id="m5a7d422ac3" style="stroke:#000000;stroke-width:0.5;"/>
      </defs>
      <g>
       <use style="stroke:#000000;stroke-width:0.5;" x="56.16" xlink:href="#m5a7d422ac3" y="14.256"/>
      </g>
     </g>
    </g>
    <g id="xtick_2">
     <g id="line2d_5">
      <g>
       <use style="stroke:#000000;stroke-width:0.5;" x="140.603478261" xlink:href="#mc7db9fdffb" y="71.28"/>
      </g>
     </g>
     <g id="line2d_6">
      <g>
       <use style="stroke:#000000;stroke-width:0.5;" x="140.603478261" xlink:href="#m5a7d422ac3" y="14.256"/>
      </g>
     </g>
    </g>
    <g id="xtick_3">
     <g id="line2d_7">
      <g>
       <use style="stroke:#000000;stroke-width:0.5;" x="225.046956522" xlink:href="#mc7db9fdffb" y="71.28"/>
      </g>
     </g>
     <g id="line2d_8">
      <g>
       <use style="stroke:#000000;stroke-width:0.5;" x="225.046956522" xlink:href="#m5a7d422ac3" y="14.256"/>
      </g>
     </g>
    </g>
    <g id="xtick_4">
     <g id="line2d_9">
      <g>
       <use style="stroke:#000000;stroke-width:0.5;" x="309.490434783" xlink:href="#mc7db9fdffb" y="71.28"/>
      </g>
     </g>
     <g id="line2d_10">
      <g>
       <use style="stroke:#000000;stroke-width:0.5;" x="309.490434783" xlink:href="#m5a7d422ac3" y="14.256"/>
      </g>
     </g>
    </g>
    <g id="xtick_5">
     <g id="line2d_11">
      <g>
       <use style="stroke:#000000;stroke-width:0.5;" x="393.933913043" xlink:href="#mc7db9fdffb" y="71.28"/>
      </g>
     </g>
     <g id="line2d_12">
      <g>
       <use style="stroke:#000000;stroke-width:0.5;" x="393.933913043" xlink:href="#m5a7d422ac3" y="14.256"/>
      </g>
     </g>
    </g>
   </g>
   <g id="matplotlib.axis_2">
    <g id="ytick_1">
     <g id="line2d_13">
      <defs>
       <path d="
M0 0
L4 0" id="md7965d1ba0" style="stroke:#000000;stroke-width:0.5;"/>
      </defs>
      <g>
       <use style="stroke:#000000;stroke-width:0.5;" x="56.16" xlink:href="#md7965d1ba0" y="63.8420869565"/>
      </g>
     </g>
     <g id="line2d_14">
      <defs>
       <path d="
M0 0
L-4 0" id="md9a1c1a7cd" style="stroke:#000000;stroke-width:0.5;"/>
      </defs>
      <g>
       <use style="stroke:#000000;stroke-width:0.5;" x="444.6" xlink:href="#md9a1c1a7cd" y="63.8420869565"/>
      </g>
     </g>
     <g id="text_1">
      <!-- $0.4$ -->
      <defs>
       <path d="
M42 31.6406
C42 37.75 41.9062 48.125 37.7031 56.1094
C34 63.1094 28.0938 65.5938 22.9062 65.5938
C18.0938 65.5938 12 63.4062 8.20312 56.2031
C4.20312 48.7188 3.79688 39.4375 3.79688 31.6406
C3.79688 25.9531 3.90625 17.2812 7 9.67188
C11.2969 -0.609375 19 -2 22.9062 -2
C27.5 -2 34.5 -0.109375 38.5938 9.375
C41.5938 16.2812 42 24.3594 42 31.6406
M22.9062 -0.40625
C16.5 -0.40625 12.7031 5.07812 11.2969 12.6875
C10.2031 18.5625 10.2031 27.1562 10.2031 32.75
C10.2031 40.4375 10.2031 46.8281 11.5 52.9219
C13.4062 61.3906 19 64 22.9062 64
C27 64 32.2969 61.2969 34.2031 53.125
C35.5 47.4375 35.5938 40.7344 35.5938 32.75
C35.5938 26.25 35.5938 18.2656 34.4062 12.375
C32.2969 1.48438 26.4062 -0.40625 22.9062 -0.40625" id="CMR17-48"/>
       <path d="
M18.4062 4.79688
C18.4062 7.6875 16 9.67188 13.5938 9.67188
C10.7031 9.67188 8.70312 7.28125 8.70312 4.89062
C8.70312 2 11.0938 0 13.5 0
C16.4062 0 18.4062 2.39062 18.4062 4.79688" id="CMMI12-58"/>
       <path d="
M33.5938 64.3281
C33.5938 66.4062 33.5 66.5 31.7031 66.5
L2 19.5938
L2 17
L27.7969 17
L27.7969 7.14062
C27.7969 3.5 27.5938 2.5 20.5938 2.5
L18.7031 2.5
L18.7031 0
C21.9062 0 27.2969 0 30.7031 0
C34.0938 0 39.5 0 42.7031 0
L42.7031 2.5
L40.7969 2.5
C33.7969 2.5 33.5938 3.5 33.5938 7.14062
L33.5938 17
L43.7969 17
L43.7969 19.5938
L33.5938 19.5938
z

M28.0938 57.7656
L28.0938 19.5938
L4 19.5938
z
" id="CMR17-52"/>
      </defs>
      <g transform="translate(39.4299210237 66.3327469814)scale(0.1 -0.1)">
       <use transform="scale(0.9962640099626402)" xlink:href="#CMR17-48"/>
       <use transform="translate(45.69047711706103 0.0)scale(0.9962640099626402)" xlink:href="#CMMI12-58"/>
       <use transform="translate(72.78765420688046 0.0)scale(0.9962640099626402)" xlink:href="#CMR17-52"/>
      </g>
     </g>
    </g>
    <g id="ytick_2">
     <g id="line2d_15">
      <g>
       <use style="stroke:#000000;stroke-width:0.5;" x="56.16" xlink:href="#md7965d1ba0" y="53.9248695652"/>
      </g>
     </g>
     <g id="line2d_16">
      <g>
       <use style="stroke:#000000;stroke-width:0.5;" x="444.6" xlink:href="#md9a1c1a7cd" y="53.9248695652"/>
      </g>
     </g>
     <g id="text_2">
      <!-- $0.8$ -->
      <defs>
       <path d="
M27.2031 35.375
C33.5 38.5625 39.9062 43.3281 39.9062 50.9844
C39.9062 60.0312 31.0938 65.2969 23 65.2969
C13.9062 65.2969 5.90625 58.7344 5.90625 49.6875
C5.90625 47.2031 6.5 42.9219 10.4062 39.1406
C11.4062 38.1562 15.5938 35.1719 18.2969 33.2812
C13.7969 30.9844 3.29688 25.5312 3.29688 14.5938
C3.29688 4.35938 13.0938 -2 22.7969 -2
C33.5 -2 42.5 5.65625 42.5 15.7969
C42.5 24.8438 36.4062 29.0312 32.4062 31.7031
z

M14.0938 44.125
C13.2969 44.625 9.29688 47.7031 9.29688 52.375
C9.29688 58.4375 15.5938 63 22.7969 63
C30.7031 63 36.5 57.4531 36.5 50.9844
C36.5 41.7344 26.0938 36.4688 25.5938 36.4688
C25.5 36.4688 25.4062 36.4688 24.5938 37.0781
z

M32.5 23.7344
C34 22.6406 38.7969 19.375 38.7969 13.2969
C38.7969 5.95312 31.4062 0.390625 23 0.390625
C13.9062 0.390625 7 6.84375 7 14.6875
C7 22.5469 13.0938 29.0938 20 32.1875
z
" id="CMR17-56"/>
      </defs>
      <g transform="translate(39.4299210237 56.4155295901)scale(0.1 -0.1)">
       <use transform="scale(0.9962640099626402)" xlink:href="#CMR17-48"/>
       <use transform="translate(45.69047711706103 0.0)scale(0.9962640099626402)" xlink:href="#CMMI12-58"/>
       <use transform="translate(72.78765420688046 0.0)scale(0.9962640099626402)" xlink:href="#CMR17-56"/>
      </g>
     </g>
    </g>
    <g id="ytick_3">
     <g id="line2d_17">
      <g>
       <use style="stroke:#000000;stroke-width:0.5;" x="56.16" xlink:href="#md7965d1ba0" y="44.0076521739"/>
      </g>
     </g>
     <g id="line2d_18">
      <g>
       <use style="stroke:#000000;stroke-width:0.5;" x="444.6" xlink:href="#md9a1c1a7cd" y="44.0076521739"/>
      </g>
     </g>
     <g id="text_3">
      <!-- $1.2$ -->
      <defs>
       <path d="
M41.7031 15.4531
L39.9062 15.4531
C38.9062 8.375 38.0938 7.17188 37.7031 6.5625
C37.2031 5.76562 30 5.76562 28.5938 5.76562
L9.40625 5.76562
C13 9.67188 20 16.75 28.5 24.9531
C34.5938 30.7344 41.7031 37.5312 41.7031 47.4219
C41.7031 59.2188 32.2969 66 21.7969 66
C10.7969 66 4.09375 56.3125 4.09375 47.3438
C4.09375 43.4375 7 42.9375 8.20312 42.9375
C9.20312 42.9375 12.2031 43.5469 12.2031 47.0312
C12.2031 50.1094 9.59375 51 8.20312 51
C7.59375 51 7 50.9062 6.59375 50.7031
C8.5 59.2188 14.2969 63.4062 20.4062 63.4062
C29.0938 63.4062 34.7969 56.5156 34.7969 47.4219
C34.7969 38.7344 29.7031 31.25 24 24.75
L4.09375 2.28125
L4.09375 0
L39.2969 0
z
" id="CMR17-50"/>
       <path d="
M26.5938 63.3125
C26.5938 65.4062 26.5 65.5 25.0938 65.5
C21.2031 61.1875 15.2969 59.7969 9.70312 59.7969
C9.40625 59.7969 8.90625 59.7969 8.79688 59.6094
C8.70312 59.3906 8.70312 59.1719 8.70312 57
C11.7969 57 17 57.5938 21 59.9844
L21 7.20312
C21 3.6875 20.7969 2.5 12.2031 2.5
L9.20312 2.5
L9.20312 0
C14 0 19 0 23.7969 0
C28.5938 0 33.5938 0 38.4062 0
L38.4062 2.5
L35.4062 2.5
C26.7969 2.5 26.5938 3.59375 26.5938 7.15625
z
" id="CMR17-49"/>
      </defs>
      <g transform="translate(39.4299210237 46.4983121988)scale(0.1 -0.1)">
       <use transform="scale(0.9962640099626402)" xlink:href="#CMR17-49"/>
       <use transform="translate(45.69047711706103 0.0)scale(0.9962640099626402)" xlink:href="#CMMI12-58"/>
       <use transform="translate(72.78765420688046 0.0)scale(0.9962640099626402)" xlink:href="#CMR17-50"/>
      </g>
     </g>
    </g>
    <g id="ytick_4">
     <g id="line2d_19">
      <g>
       <use style="stroke:#000000;stroke-width:0.5;" x="56.16" xlink:href="#md7965d1ba0" y="34.0904347826"/>
      </g>
     </g>
     <g id="line2d_20">
      <g>
       <use style="stroke:#000000;stroke-width:0.5;" x="444.6" xlink:href="#md9a1c1a7cd" y="34.0904347826"/>
      </g>
     </g>
     <g id="text_4">
      <!-- $1.6$ -->
      <defs>
       <path d="
M10.5938 34
C10.5938 57.6562 21.7969 63 28.2969 63
C30.4062 63 35.5 62.6406 37.5 59
C35.9062 59 32.9062 59 32.9062 55.5156
C32.9062 52.8281 35.0938 51.9219 36.5 51.9219
C37.4062 51.9219 40.0938 52.3125 40.0938 55.625
C40.0938 61.7812 35.0938 65.2969 28.2031 65.2969
C16.2969 65.2969 3.79688 52.9688 3.79688 31
C3.79688 3.95312 15.0938 -2 23.0938 -2
C32.7969 -2 42 6.67188 42 20.0469
C42 32.5156 33.9062 41.5938 23.7031 41.5938
C17.5938 41.5938 13.0938 37.6094 10.5938 30.625
z

M23.0938 0.390625
C10.7969 0.390625 10.7969 18.75 10.7969 22.4375
C10.7969 29.625 14.2031 40 23.5 40
C25.2031 40 30.0938 40 33.4062 33.125
C35.2031 29.2188 35.2031 25.1406 35.2031 20.1406
C35.2031 14.75 35.2031 10.7812 33.0938 6.78125
C30.9062 2.67188 27.7031 0.390625 23.0938 0.390625" id="CMR17-54"/>
      </defs>
      <g transform="translate(39.4299210237 36.5810948075)scale(0.1 -0.1)">
       <use transform="scale(0.9962640099626402)" xlink:href="#CMR17-49"/>
       <use transform="translate(45.69047711706103 0.0)scale(0.9962640099626402)" xlink:href="#CMMI12-58"/>
       <use transform="translate(72.78765420688046 0.0)scale(0.9962640099626402)" xlink:href="#CMR17-54"/>
      </g>
     </g>
    </g>
    <g id="ytick_5">
     <g id="line2d_21">
      <g>
       <use style="stroke:#000000;stroke-width:0.5;" x="56.16" xlink:href="#md7965d1ba0" y="24.1732173913"/>
      </g>
     </g>
     <g id="line2d_22">
      <g>
       <use style="stroke:#000000;stroke-width:0.5;" x="444.6" xlink:href="#md9a1c1a7cd" y="24.1732173913"/>
      </g>
     </g>
     <g id="text_5">
      <!-- $2.0$ -->
      <g transform="translate(39.4299210237 26.6638774162)scale(0.1 -0.1)">
       <use transform="scale(0.9962640099626402)" xlink:href="#CMR17-50"/>
       <use transform="translate(45.69047711706103 0.0)scale(0.9962640099626402)" xlink:href="#CMMI12-58"/>
       <use transform="translate(72.78765420688046 0.0)scale(0.9962640099626402)" xlink:href="#CMR17-48"/>
      </g>
     </g>
    </g>
    <g id="ytick_6">
     <g id="line2d_23">
      <g>
       <use style="stroke:#000000;stroke-width:0.5;" x="56.16" xlink:href="#md7965d1ba0" y="14.256"/>
      </g>
     </g>
     <g id="line2d_24">
      <g>
       <use style="stroke:#000000;stroke-width:0.5;" x="444.6" xlink:href="#md9a1c1a7cd" y="14.256"/>
      </g>
     </g>
     <g id="text_6">
      <!-- $2.4$ -->
      <g transform="translate(39.4299210237 16.7466600249)scale(0.1 -0.1)">
       <use transform="scale(0.9962640099626402)" xlink:href="#CMR17-50"/>
       <use transform="translate(45.69047711706103 0.0)scale(0.9962640099626402)" xlink:href="#CMMI12-58"/>
       <use transform="translate(72.78765420688046 0.0)scale(0.9962640099626402)" xlink:href="#CMR17-52"/>
      </g>
     </g>
    </g>
    <g id="text_7">
     <!-- $\times10^{-13}$ -->
     <defs>
      <path d="
M22.0938 33.7031
C31 33.7031 34.9062 25.9688 34.9062 17.0312
C34.9062 5 28.5 0.390625 22.7031 0.390625
C17.4062 0.390625 8.79688 3.03125 6.09375 10.8281
C6.59375 10.625 7.09375 10.625 7.59375 10.625
C10 10.625 11.7969 12.2188 11.7969 14.8125
C11.7969 17.7031 9.59375 19 7.59375 19
C5.90625 19 3.29688 18.2031 3.29688 14.4688
C3.29688 5.23438 12.2969 -2 22.9062 -2
C34 -2 42.5 6.71875 42.5 16.9531
C42.5 26.6719 34.5 33.6875 25 34.7969
C32.5938 36.375 39.9062 43.0625 39.9062 52.0156
C39.9062 59.6875 32 65.2969 23 65.2969
C13.9062 65.2969 5.90625 59.8281 5.90625 52.0156
C5.90625 48.5938 8.5 48 9.79688 48
C11.9062 48 13.7031 49.2969 13.7031 51.8906
C13.7031 54.4688 11.9062 55.7656 9.79688 55.7656
C9.40625 55.7656 8.90625 55.7656 8.5 55.5625
C11.4062 61.8594 19.2969 63 22.7969 63
C26.2969 63 32.9062 61.3281 32.9062 51.875
C32.9062 49.1094 32.5 44.1875 29.0938 39.8438
C26.0938 36 22.7031 36 19.4062 35.5938
C18.9062 35.5938 16.5938 35.5938 16.2031 35.5938
C15.5 35.4844 15.0938 35.3906 15.0938 34.5938
C15.0938 33.8125 15.2031 33.7031 17.2031 33.7031
z
" id="CMR17-51"/>
      <path d="
M65.9062 23
C67.5938 23 69.4062 23 69.4062 25
C69.4062 27 67.5938 27 65.9062 27
L11.7969 27
C10.0938 27 8.29688 27 8.29688 25
C8.29688 23 10.0938 23 11.7969 23
z
" id="CMSY10-0"/>
      <path d="
M38.9062 27.8906
L18.9062 47.7969
C17.7031 49 17.5 49.1875 16.7031 49.1875
C15.7031 49.1875 14.7031 48.2969 14.7031 47.1875
C14.7031 46.5 14.9062 46.2969 16 45.1875
L36 25.0938
L16 5
C14.9062 3.89062 14.7031 3.6875 14.7031 3
C14.7031 1.89062 15.7031 1 16.7031 1
C17.5 1 17.7031 1.1875 18.9062 2.39062
L38.7969 22.2969
L59.5 1.59375
C59.7031 1.5 60.4062 1 61 1
C62.2031 1 63 1.89062 63 3
C63 3.1875 63 3.59375 62.7031 4.09375
C62.5938 4.29688 46.7031 20 41.7031 25.0938
L60 43.3906
C60.5 44 62 45.2969 62.5 45.8906
C62.5938 46.0938 63 46.5 63 47.1875
C63 48.2969 62.2031 49.1875 61 49.1875
C60.2031 49.1875 59.7969 48.7969 58.7031 47.6875
z
" id="CMSY10-2"/>
     </defs>
     <g transform="translate(56.16 11.256)scale(0.1 -0.1)">
      <use transform="scale(0.9962640099626402)" xlink:href="#CMSY10-2"/>
      <use transform="translate(77.4874676506071 0.0)scale(0.9962640099626402)" xlink:href="#CMR17-49"/>
      <use transform="translate(123.17794476766814 0.0)scale(0.9962640099626402)" xlink:href="#CMR17-48"/>
      <use transform="translate(168.86842188472914 36.15363894185866)scale(0.6973817666173724)" xlink:href="#CMSY10-0"/>
      <use transform="translate(223.1094151327055 36.15363894185866)scale(0.6973817666173724)" xlink:href="#CMR17-49"/>
      <use transform="translate(255.09259709682442 36.15363894185866)scale(0.6973817666173724)" xlink:href="#CMR17-51"/>
     </g>
    </g>
   </g>
   <g id="patch_3">
    <path d="
M56.16 14.256
L444.6 14.256" style="fill:none;stroke:#000000;"/>
   </g>
   <g id="patch_4">
    <path d="
M56.16 71.28
L56.16 14.256" style="fill:none;stroke:#000000;"/>
   </g>
   <g id="patch_5">
    <path d="
M444.6 71.28
L444.6 14.256" style="fill:none;stroke:#000000;"/>
   </g>
   <g id="patch_6">
    <path d="
M56.16 71.28
L444.6 71.28" style="fill:none;stroke:#000000;"/>
   </g>
   <g id="legend_1">
    <g id="line2d_25">
     <path d="
M313.938 56.8428
L333.938 56.8428" style="fill:none;stroke:#0000ff;stroke-linecap:square;"/>
    </g>
    <g id="line2d_26"/>
    <g id="text_8">
     <!-- data -->
     <defs>
      <path d="
M15.0938 40
L29.0938 40
L29.0938 42.5781
L15.0938 42.5781
L15.0938 61
L13.2969 61
C13.0938 50.7031 9.59375 41.6875 1.09375 41.6875
L1.09375 40
L9.79688 40
L9.79688 12.0469
C9.79688 10.1562 9.79688 -1 21.4062 -1
C27.2969 -1 30.7031 4.78125 30.7031 12.1406
L30.7031 17.8125
L28.9062 17.8125
L28.9062 12.2344
C28.9062 5.375 26.2031 0.796875 22 0.796875
C19.0938 0.796875 15.0938 2.78125 15.0938 11.8438
z
" id="CMR17-116"/>
      <path d="
M29.2031 67.5938
L29.2031 65
C35.0938 65 36 64.4062 36 59.6875
L36 36.6406
C35.5938 37.1406 31.5 43.5938 23.4062 43.5938
C13.2031 43.5938 3.29688 34.5 3.29688 21.3125
C3.29688 8.20312 12.5938 -1 22.4062 -1
C30.9062 -1 35.2969 5.26562 35.7969 5.9375
L35.7969 -0.984375
L47.9062 -0.984375
L47.9062 2
C42 2 41.0938 2.59375 41.0938 7.39062
L41.0938 68.6875
z

M35.7969 11.7969
C35.7969 8.79688 34 6.09375 31.7031 4.09375
C28.2969 1.09375 24.9062 0.59375 23 0.59375
C20.0938 0.59375 9.70312 2.09375 9.70312 21.1875
C9.70312 40.8125 21.2969 42 23.9062 42
C28.5 42 32.2031 39.4062 34.5 35.7969
C35.7969 33.7031 35.7969 33.4062 35.7969 31.6094
z
" id="CMR17-100"/>
      <path d="
M36 25.8281
C36 32.375 36 35.8438 31.7969 39.7344
C28.0938 43 23.7969 44 20.4062 44
C12.5 44 6.79688 37.6094 6.79688 30.7969
C6.79688 27 9.79688 27 10.4062 27
C11.7031 27 14 27.7812 14 30.5312
C14 33 12.0938 34.0781 10.4062 34.0781
C10 34.0781 9.5 33.9688 9.20312 33.875
C11.2969 40.5 16.7031 42.4062 20.2031 42.4062
C25.2031 42.4062 30.7031 37.9531 30.7031 29.4531
L30.7031 25
C24.7969 25 17.7031 24.2031 12.0938 21.2031
C5.79688 17.7031 4 12.7031 4 8.90625
C4 1.20312 13 -1 18.2969 -1
C23.7969 -1 28.9062 2.17188 31.0938 7.98438
C31.2969 3.64062 34.0938 -0.28125 38.5 -0.28125
C40.5938 -0.28125 45.9062 1.09375 45.9062 8.85938
L45.9062 14.375
L44.0938 14.375
L44.0938 8.78125
C44.0938 2.78125 41.4062 2 40.0938 2
C36 2 36 7.15625 36 11.5312
z

M30.7031 13.5938
C30.7031 4.95312 24.5 0.59375 19 0.59375
C14 0.59375 10.0938 4.29688 10.0938 8.90625
C10.0938 11.8906 11.4062 17.1875 17.2031 20.3906
C22 23.0938 27.5 23.5 30.7031 23.5
z
" id="CMR17-97"/>
     </defs>
     <g transform="translate(341.937767795 60.3428216697)scale(0.1 -0.1)">
      <use transform="scale(0.9962640099626402)" xlink:href="#CMR17-100"/>
      <use transform="translate(50.89536978031601 0.0)scale(0.9962640099626402)" xlink:href="#CMR17-97"/>
      <use transform="translate(96.58584689737704 0.0)scale(0.9962640099626402)" xlink:href="#CMR17-116"/>
      <use transform="translate(131.86661469683997 0.0)scale(0.9962640099626402)" xlink:href="#CMR17-97"/>
     </g>
    </g>
    <g id="line2d_27">
     <path d="
M381.31 56.8428
L401.31 56.8428" style="fill:none;stroke:#ff0000;stroke-linecap:square;"/>
    </g>
    <g id="line2d_28"/>
    <g id="text_9">
     <!-- model -->
     <defs>
      <path d="
M43.0938 21.1875
C43.0938 34 33.7969 44 22.9062 44
C12 44 2.70312 34 2.70312 21.1875
C2.70312 8.60938 12 -1 22.9062 -1
C33.7969 -1 43.0938 8.60938 43.0938 21.1875
M22.9062 0.796875
C18.2031 0.796875 14.2031 3.59375 11.9062 7.5
C9.40625 11.9844 9.09375 17.5938 9.09375 22
C9.09375 26.2031 9.29688 31.4062 11.9062 35.9062
C13.9062 39.2031 17.7969 42.4062 22.9062 42.4062
C27.4062 42.4062 31.2031 39.9062 33.5938 36.4062
C36.7031 31.7031 36.7031 25.1094 36.7031 22
C36.7031 18.0938 36.5 12.1094 33.7969 7.29688
C31 2.70312 26.7031 0.796875 22.9062 0.796875" id="CMR17-111"/>
      <path d="
M38.0938 23
C38.5 23.4062 38.5 23.6094 38.5 24.625
C38.5 34.9688 33.0938 44 21.7031 44
C11.0938 44 2.70312 33.8906 2.70312 21.6094
C2.70312 8.60938 12.2031 -1 22.7969 -1
C34 -1 38.4062 9.46875 38.4062 11.5469
C38.4062 12.25 37.7969 12.25 37.5938 12.25
C36.9062 12.25 36.7969 12.0469 36.4062 10.875
C34.2031 4.14062 28.7031 0.796875 23.5 0.796875
C19.2031 0.796875 14.9062 3.17188 12.2031 7.5
C9.09375 12.5469 9.09375 18.375 9.09375 23
z

M9.20312 24.5
C9.90625 39.1406 17.5938 42.4062 21.5938 42.4062
C28.4062 42.4062 33 35.8906 33.0938 24.5
z
" id="CMR17-101"/>
      <path d="
M15.2969 68.6875
L3.40625 67.5938
L3.40625 65
C9.29688 65 10.2031 64.4062 10.2031 59.6406
L10.2031 6.65625
C10.2031 2.875 9.79688 2.39062 3.40625 2.39062
L3.40625 -0.203125
C5.79688 0 10.2031 0 12.7031 0
C15.2969 0 19.7031 0 22.0938 -0.203125
L22.0938 2.39062
C15.7031 2.39062 15.2969 2.78125 15.2969 6.65625
z
" id="CMR17-108"/>
      <path d="
M67.5938 30.2031
C67.5938 35.1875 66.7031 43.5938 54.7969 43.5938
C48 43.5938 43.2969 39 41.5 33.5938
L41.4062 33.5938
C40.2031 41.7969 34.2969 43.5938 28.7031 43.5938
C20.7969 43.5938 16.7031 37.5625 15.2031 33.5938
L15.0938 33.5938
L15.0938 43.5938
L3.29688 42.5
L3.29688 39.9062
C9.20312 39.9062 10.0938 39.2969 10.0938 34.5
L10.0938 6.6875
C10.0938 2.875 9.70312 2.39062 3.29688 2.39062
L3.29688 -0.203125
C5.70312 0 10.0938 0 12.7031 0
C15.2969 0 19.7969 0 22.2031 -0.203125
L22.2031 2.39062
C15.7969 2.39062 15.4062 2.78125 15.4062 6.6875
L15.4062 25.9062
C15.4062 35.1094 21 42 28 42
C35.4062 42 36.2031 35.4062 36.2031 30.5938
L36.2031 6.6875
C36.2031 2.875 35.7969 2.39062 29.4062 2.39062
L29.4062 -0.203125
C31.7969 0 36.2031 0 38.7969 0
C41.4062 0 45.9062 0 48.2969 -0.203125
L48.2969 2.39062
C41.9062 2.39062 41.5 2.78125 41.5 6.6875
L41.5 25.9062
C41.5 35.1094 47.0938 42 54.0938 42
C61.5 42 62.2969 35.4062 62.2969 30.5938
L62.2969 6.6875
C62.2969 2.875 61.9062 2.39062 55.5 2.39062
L55.5 -0.203125
C57.9062 0 62.2969 0 64.9062 0
C67.5 0 72 0 74.4062 -0.203125
L74.4062 2.39062
C68 2.39062 67.5938 2.78125 67.5938 6.6875
z
" id="CMR17-109"/>
     </defs>
     <g transform="translate(409.309627106 60.3428216697)scale(0.1 -0.1)">
      <use transform="scale(0.9962640099626402)" xlink:href="#CMR17-109"/>
      <use transform="translate(76.91958986807286 0.0)scale(0.9962640099626402)" xlink:href="#CMR17-111"/>
      <use transform="translate(125.2125057158702 0.0)scale(0.9962640099626402)" xlink:href="#CMR17-100"/>
      <use transform="translate(176.10787549618618 0.0)scale(0.9962640099626402)" xlink:href="#CMR17-101"/>
      <use transform="translate(216.59353595890414 0.0)scale(0.9962640099626402)" xlink:href="#CMR17-108"/>
     </g>
    </g>
   </g>
  </g>
  <g id="axes_2">
   <g id="patch_7">
    <path d="
M56.16 128.304
L444.6 128.304
L444.6 71.28
L56.16 71.28
z
" style="fill:#ffffff;"/>
   </g>
   <g id="PolyCollection_2">
    <defs>
     <path d="
M182.825 5.544
L153.27 5.544
L153.27 -122.76
L182.825 -122.76
L182.825 -122.76
L182.825 5.544
z
" id="C1_0_4f8675e8ec"/>
    </defs>
    <g clip-path="url(#p9568c8cc1d)">
     <use style="fill:#808080;fill-opacity:0.5;stroke:#808080;stroke-opacity:0.5;" x="0.0" xlink:href="#C1_0_4f8675e8ec" y="158.4"/>
    </g>
   </g>
   <g id="line2d_29">
    <path clip-path="url(#p9568c8cc1d)" d="
M56.0302 95.942
L56.4001 94.7802
L56.7699 95.6334
L57.5096 100.333
L57.8793 97.4949
L58.249 99.6482
L58.6188 98.699
L58.9884 98.4395
L59.3581 101.251
L59.7277 96.6289
L60.0973 100.828
L60.4669 101.177
L60.8364 100.053
L61.2059 99.9357
L61.5754 96.3264
L61.9449 98.4605
L62.3143 95.4334
L62.6837 94.5954
L63.0531 95.4858
L63.4225 99.696
L63.7918 99.2458
L64.1611 99.5481
L64.5303 100.478
L64.8996 99.9555
L65.2688 96.9829
L65.638 101.482
L66.0071 100.279
L66.3763 100.749
L66.7454 102.376
L67.1144 103.436
L67.4835 103.808
L67.8525 106.325
L68.2215 109.677
L68.5905 109.222
L68.9594 110.879
L69.3283 108.106
L69.6972 103.171
L70.0661 105.346
L70.4349 99.7829
L70.8037 99.2986
L71.5412 102.167
L71.9099 99.8342
L72.2786 103.572
L72.6473 101.211
L73.0159 101.629
L73.3845 99.6206
L73.7531 104.123
L74.1216 103.19
L74.4902 100.31
L74.8587 104.713
L75.2271 104.002
L75.5956 106.585
L75.964 100.752
L76.3324 98.5787
L76.7007 101.765
L77.0691 99.6852
L77.4374 98.7518
L77.8057 99.3769
L78.1739 97.5876
L78.5421 100.04
L78.9103 100.536
L79.2785 101.766
L79.6466 99.9793
L80.0148 96.9164
L80.3828 100.089
L80.7509 95.4258
L81.1189 100.454
L81.4869 98.4921
L81.8549 98.649
L82.2228 102.342
L82.5908 102.456
L82.9587 99.8719
L83.3265 102.379
L83.6944 97.0826
L84.43 101.643
L84.7977 101.573
L85.1654 102.428
L85.9008 98.3384
L86.2685 98.7604
L86.6361 99.4781
L87.0037 97.9596
L87.3712 101.059
L87.7388 98.1076
L88.1063 96.9448
L88.4737 97.5316
L88.8412 99.522
L89.2086 97.6304
L89.576 100.819
L89.9434 102.317
L90.3107 101.659
L90.678 100.381
L91.0453 99.6813
L91.4126 96.4166
L91.7798 98.8783
L92.147 98.9079
L92.5142 101.905
L92.8813 99.008
L93.2485 98.9091
L93.6156 98.2788
L93.9826 95.9147
L94.3497 97.0969
L94.7167 97.116
L95.0837 96.0012
L95.4506 95.5807
L95.8175 94.8321
L96.1844 91.9383
L96.5513 90.8508
L96.9182 89.1685
L97.285 88.4471
L97.6518 89.2307
L98.0185 88.643
L98.752 93.9873
L99.1186 100.682
L99.4853 95.3623
L100.219 100.275
L100.585 101.906
L100.952 100.51
L101.318 101.263
L101.685 99.4365
L102.051 99.2692
L102.418 98.8777
L102.784 98.9417
L103.15 95.2586
L103.517 93.9833
L103.883 97.7789
L104.249 98.383
L104.616 99.2526
L104.982 98.4723
L105.348 96.9577
L105.714 96.6067
L106.08 97.4241
L106.446 101.234
L106.813 100.722
L107.179 96.1118
L107.545 99.2564
L107.911 98.3419
L108.277 96.6152
L108.643 97.6927
L109.374 104.884
L109.74 102.4
L110.106 101.829
L110.472 98.2619
L111.204 94.8757
L111.569 98.4136
L111.935 95.3568
L112.301 99.1899
L112.666 97.3612
L113.032 98.773
L113.398 98.1083
L113.763 98.6401
L114.129 96.9281
L114.494 97.6144
L114.86 96.5558
L115.225 99.1098
L115.591 100.433
L115.956 100.913
L116.321 97.2583
L116.687 97.3766
L117.052 102.459
L117.417 96.6142
L118.148 100.693
L118.878 113.737
L119.244 108.911
L119.609 105.564
L120.339 100.896
L120.704 101.873
L121.069 100.209
L121.434 100.175
L122.529 95.6915
L122.894 97.7651
L123.258 98.7686
L123.623 102.633
L123.988 94.889
L124.353 97.3219
L124.718 101.263
L125.082 95.9327
L125.447 98.965
L125.812 99.2752
L126.176 99.858
L126.541 101.413
L126.905 98.9697
L127.635 98.4932
L127.999 104.524
L128.364 113.379
L128.728 116.323
L129.092 116.845
L129.457 113.291
L130.185 102.468
L130.55 99.5404
L130.914 102.403
L131.278 95.7377
L131.643 97.8841
L132.007 97.5639
L132.371 99.3494
L132.735 94.588
L133.099 93.5102
L133.463 97.2133
L133.827 97.8172
L134.191 98.9967
L134.555 98.7193
L134.919 100.736
L135.283 97.1062
L135.647 98.5845
L136.011 96.9965
L136.375 97.3538
L136.739 101.81
L137.102 100.747
L137.466 98.5009
L137.83 98.7574
L138.194 95.5762
L138.557 96.5207
L138.921 98.7986
L139.285 90.6237
L139.648 94.6581
L140.012 95.2235
L140.375 96.9201
L141.102 104.207
L141.466 103.427
L141.829 101.23
L142.193 96.9393
L142.556 101.121
L142.92 97.8479
L143.283 105.986
L143.646 103.374
L144.009 98.2778
L144.373 100.474
L144.736 98.5143
L145.462 100.016
L145.825 97.7302
L146.189 99.7436
L146.552 100.504
L146.915 98.9976
L147.278 99.1833
L147.641 99.7989
L148.004 101.265
L148.367 100.94
L148.73 101.932
L149.092 98.4961
L149.455 99.5089
L149.818 102.24
L150.181 98.4045
L150.544 96.8289
L150.906 96.4058
L151.269 98.0599
L151.632 95.0381
L151.995 99.2336
L152.357 99.3659
L152.72 97.1581
L153.082 100.07
L153.445 95.976
L153.807 95.3155
L154.17 99.9521
L154.895 102.002
L155.257 102.478
L155.62 98.6767
L155.982 102.986
L156.344 99.9017
L157.069 104.061
L157.431 106.275
L157.793 103.264
L158.518 108.922
L158.88 111.709
L159.604 120.082
L159.966 113.874
L160.328 113.493
L161.052 103.675
L161.414 103.958
L161.776 96.5102
L162.138 96.1625
L162.5 92.7006
L162.862 97.1018
L163.223 97.2996
L163.585 96.641
L163.947 101.605
L164.309 98.2719
L165.032 95.2453
L165.394 97.3996
L165.755 101.03
L166.117 96.495
L166.478 99.9492
L166.84 96.6811
L167.202 97.305
L167.563 99.0763
L167.924 99.077
L168.286 99.8958
L168.647 102.284
L169.009 99.4517
L169.37 99.1938
L169.731 95.6758
L170.093 97.6104
L170.454 100.225
L170.815 100.523
L171.537 97.1601
L171.898 97.4615
L172.26 100.176
L172.621 98.9576
L173.343 95.6842
L173.704 94.6579
L174.065 97.9597
L174.426 97.6412
L174.787 98.7992
L175.147 101.173
L175.508 98.5153
L175.869 101.331
L176.23 102.417
L176.591 97.942
L176.952 98.067
L177.312 100.507
L177.673 100.497
L178.034 104.775
L178.394 103.552
L178.755 105.496
L179.115 101.979
L179.476 102.026
L180.197 98.0643
L180.557 96.9878
L180.918 96.3275
L181.278 95.1437
L181.639 98.8901
L181.999 99.4676
L182.359 99.7609
L182.72 98.5618
L183.08 98.258
L183.44 98.4241
L183.8 97.4953
L184.161 96.2337
L184.521 95.8268
L184.881 99.3544
L185.241 96.2862
L185.601 99.6746
L185.961 98.8718
L186.321 98.8271
L186.681 102.296
L187.041 96.1889
L187.401 99.6139
L187.761 105.875
L188.121 105.555
L188.481 106.615
L188.841 106.63
L189.2 98.2659
L189.56 100.848
L189.92 99.6535
L190.28 99.5556
L190.639 106.306
L190.999 108.853
L191.359 106.733
L191.718 106.614
L192.078 105.278
L192.437 104.74
L192.797 103.39
L193.156 97.3921
L193.516 97.4357
L193.875 99.8558
L194.594 98.7364
L194.953 98.7025
L195.313 94.385
L196.031 88.9294
L196.391 91.1076
L196.75 95.1061
L197.109 93.5024
L197.468 93.724
L197.827 96.0345
L198.186 96.8786
L198.545 95.3339
L198.905 93.2673
L199.264 94.2384
L199.623 93.5089
L199.981 94.8685
L200.34 95.1834
L200.699 99.3482
L201.058 98.7226
L201.417 99.9463
L201.776 97.2467
L202.135 97.3405
L202.493 99.3035
L203.211 95.398
L203.57 99.9147
L203.928 100.117
L204.287 94.7035
L204.645 100.026
L205.004 101.026
L205.363 97.2195
L205.721 101.161
L206.08 101.49
L206.438 102.389
L207.155 98.1143
L207.513 97.3144
L207.872 104.648
L208.23 98.439
L208.947 101.828
L209.305 98.5401
L209.663 96.6479
L210.021 96.2984
L210.379 98.1028
L211.096 106.361
L211.454 105.994
L211.812 108.143
L212.17 104.115
L212.528 103.194
L212.886 100.392
L213.244 100.274
L213.601 101.4
L213.959 101.137
L214.317 99.7811
L214.675 97.4164
L215.033 100.63
L215.748 95.2275
L216.106 94.107
L216.464 100.181
L216.821 100.487
L217.179 97.4794
L217.537 97.2489
L217.894 99.5056
L218.252 98.8503
L218.609 95.4379
L218.967 100.382
L219.324 98.9009
L219.682 99.2876
L220.039 95.8888
L220.396 98.2235
L221.111 96.6217
L221.468 100.475
L221.826 97.1126
L222.183 97.2256
L222.54 98.8878
L222.897 99.2819
L223.254 99.0252
L223.611 96.9277
L223.968 98.9962
L224.326 102.085
L224.683 95.1864
L225.04 96.0032
L225.397 93.1695
L225.754 97.6978
L226.11 94.2989
L226.467 95.0092
L226.824 94.208
L227.181 96.5827
L227.538 94.2492
L227.895 93.3625
L228.251 97.6642
L228.608 99.5354
L228.965 100.474
L229.322 97.8578
L229.678 100.354
L230.035 95.2741
L230.391 96.8162
L231.104 104.358
L231.461 105.193
L231.817 98.3489
L232.174 103.857
L232.53 100.568
L232.887 99.5899
L233.243 101.543
L233.599 99.3117
L233.956 101.38
L234.312 104.91
L234.668 100.265
L235.381 99.3696
L235.737 98.7229
L236.093 101.351
L236.449 105.623
L236.805 104.99
L237.161 105.419
L237.873 103.146
L238.585 94.9015
L238.941 97.2731
L239.297 91.6938
L239.653 92.6773
L240.009 91.5234
L240.364 91.5021
L240.72 89.8652
L241.076 89.7413
L241.432 96.5356
L241.787 98.9412
L242.143 97.1283
L242.499 101.74
L243.21 100.517
L243.565 96.8972
L243.921 95.8073
L244.276 98.1659
L244.632 97.6116
L245.343 100.157
L245.698 98.3808
L246.054 101.284
L246.409 96.4565
L246.764 100.937
L247.119 94.1177
L247.475 98.9936
L247.83 102.024
L248.185 99.5571
L248.54 101.573
L248.895 101.494
L249.25 98.7736
L249.606 101.825
L249.961 98.9365
L250.316 99.7497
L250.671 103.045
L251.026 99.3065
L251.735 102.195
L252.09 101.182
L252.445 101.185
L252.8 102.239
L253.509 99.1148
L253.864 98.089
L254.219 100.222
L254.574 101.632
L254.928 101.658
L255.283 99.0912
L255.637 100.655
L255.992 101.436
L256.347 96.3966
L256.701 100.353
L257.056 99.2049
L257.41 95.5012
L257.764 98.7947
L258.119 99.1851
L258.473 102.249
L258.828 98.6905
L259.182 99.1888
L259.536 103.451
L259.89 100.838
L260.599 99.337
L260.953 98.0942
L261.307 91.8706
L261.661 101.152
L262.015 100.858
L262.369 99.1524
L262.724 103.541
L263.431 100.78
L263.785 105.274
L264.139 99.1374
L264.493 97.9017
L264.847 102.912
L265.201 101.934
L265.555 100.54
L265.909 97.4564
L266.262 97.2376
L266.616 99.191
L266.97 105.585
L267.323 102.801
L267.677 104.583
L268.031 102.831
L268.384 103.574
L268.738 101.004
L269.091 106.372
L269.445 103.812
L269.798 104.861
L270.505 108.484
L270.859 106.129
L271.212 108.397
L271.565 109.697
L271.919 102.384
L272.272 104.731
L272.978 99.4152
L273.331 101.534
L273.685 101.119
L274.038 97.4813
L274.391 101.122
L274.744 97.2896
L275.097 99.2188
L275.45 94.3321
L275.803 99.541
L276.509 88.5304
L276.862 92.041
L277.215 91.6639
L277.568 91.0065
L277.92 91.434
L278.273 92.8863
L278.626 92.6327
L278.979 90.5258
L279.684 94.9399
L280.037 96.5317
L280.389 99.8134
L280.742 96.9835
L281.095 99.6933
L281.447 97.3919
L281.8 100.466
L282.152 97.387
L282.505 102.424
L283.209 100.627
L283.562 101.669
L283.914 99.7862
L284.266 99.7369
L284.619 101.661
L284.971 100.651
L285.323 102.708
L286.028 100.867
L286.38 104.523
L286.732 103.385
L287.084 104.805
L287.436 100.672
L287.788 103.622
L288.14 104.861
L288.492 104.198
L288.844 96.7676
L289.196 96.9003
L289.548 97.8219
L289.9 86.5925
L291.307 104.693
L292.01 97.5988
L292.362 98.5028
L292.714 97.0169
L293.065 96.8942
L293.417 96.3626
L293.768 99.9694
L294.12 96.3154
L294.471 99.2112
L294.823 99.7021
L295.174 99.4771
L295.526 100.866
L295.877 99.075
L296.228 100.465
L296.58 93.0567
L296.931 97.8265
L297.282 95.0701
L297.634 98.3579
L297.985 100.287
L298.336 98.6122
L298.687 99.1904
L299.038 99.2913
L299.389 98.8925
L299.74 102.676
L300.092 95.7438
L300.443 95.6434
L300.794 99.8194
L301.144 94.7977
L301.495 97.9433
L301.846 95.5247
L302.197 96.7507
L302.548 99.0816
L302.899 90.4487
L303.25 96.5144
L303.6 99.0089
L303.951 97.8683
L304.302 97.5081
L304.653 96.0422
L305.003 99.0658
L305.354 94.6434
L305.704 95.7513
L306.055 98.7263
L306.406 100.635
L306.756 99.6173
L307.107 99.7498
L307.457 98.0869
L307.807 95.2654
L308.158 97.0865
L308.508 102.87
L308.859 100.608
L309.209 99.7682
L309.559 99.3129
L309.909 95.8043
L310.26 96.689
L310.61 93.3109
L310.96 94.745
L311.31 94.4358
L311.66 98.9635
L312.01 98.1855
L312.36 96.4252
L312.71 96.6556
L313.06 98.1457
L313.41 100.46
L313.76 97.7654
L314.11 101.874
L314.46 94.9259
L314.81 99.6955
L315.16 97.6245
L315.51 100.14
L315.859 98.9242
L316.209 99.1512
L316.559 102.565
L316.909 99.7862
L317.258 94.0501
L317.608 98.8048
L317.957 101.516
L318.307 99.1775
L318.657 91.8784
L319.006 99.0786
L319.356 97.157
L319.705 102.552
L320.055 95.8047
L320.404 98.3483
L321.103 98.4463
L321.452 97.0479
L322.151 99.7329
L322.5 97.0834
L322.849 104.476
L323.198 102.8
L323.547 104.058
L323.896 101.927
L324.246 102.985
L324.595 105.149
L324.944 100.076
L325.293 91.2364
L325.642 101.836
L325.991 98.4195
L326.34 99.2812
L326.688 98.3452
L327.037 94.0692
L327.386 102.635
L327.735 93.7842
L328.084 100.93
L328.432 99.8161
L328.781 99.1594
L329.13 97.0266
L329.479 100.847
L329.827 98.6337
L330.176 100.89
L330.524 100.948
L330.873 98.0066
L331.222 101.561
L331.57 99.4848
L331.919 100.279
L332.267 95.166
L332.615 96.9618
L332.964 100.434
L333.312 99.71
L333.66 100.62
L334.009 96.9195
L334.357 94.6364
L334.705 100.497
L335.053 95.0943
L335.402 93.4734
L335.75 101.803
L336.098 93.7492
L336.446 98.3989
L336.794 100.655
L337.142 98.6119
L337.49 98.4065
L337.838 94.7232
L338.186 97.4866
L338.882 106.131
L339.23 95.6306
L339.578 100.985
L339.926 101.494
L340.273 102.292
L340.621 101.979
L340.969 104.362
L341.317 97.015
L341.664 102.507
L342.012 99.1244
L342.707 96.6441
L343.055 101.5
L343.402 98.9235
L343.75 101.938
L344.097 100.283
L344.445 100.186
L344.792 105.123
L345.139 104.556
L345.487 102.625
L345.834 102.277
L346.182 102.883
L346.529 102.773
L346.876 105.018
L347.223 103.943
L347.918 97.436
L348.265 100.783
L348.612 95.7305
L348.959 97.5239
L349.306 101.167
L349.653 102.048
L350 102.611
L350.694 107.998
L351.041 101.234
L351.388 103.807
L351.735 102.892
L352.081 99.8416
L352.428 102.929
L352.775 97.4753
L353.468 105.326
L353.815 96.5342
L354.162 100.645
L354.508 97.8327
L354.855 103.125
L355.202 101.452
L355.548 101.821
L355.895 99.699
L356.241 99.3214
L356.588 102.139
L356.934 101.68
L357.28 100.378
L357.627 101.469
L357.973 99.9601
L358.319 103.926
L358.666 106.105
L359.012 103.088
L359.358 103.944
L359.704 105.152
L360.051 106.841
L360.397 109.382
L360.743 104.77
L361.089 103.519
L361.435 103.328
L361.781 102.634
L362.127 101.437
L362.473 107.968
L362.819 102.683
L363.165 103.715
L363.511 105.383
L363.857 109.656
L364.203 110.37
L364.548 105.915
L364.894 104.747
L365.586 100.865
L365.931 106.347
L366.277 104.276
L366.623 104.673
L366.968 102.852
L367.314 107.601
L367.659 103.451
L368.35 93.0409
L368.696 96.3121
L369.041 96.998
L369.387 99.5773
L369.732 95.539
L370.077 95.1689
L370.423 96.8502
L370.768 89.9654
L371.113 93.6635
L371.458 92.9314
L371.804 94.9085
L372.149 93.1867
L372.494 97.194
L372.839 89.4295
L373.184 97.1697
L373.529 96.3817
L373.874 95.2442
L374.219 101.471
L374.564 102.382
L374.909 91.9717
L375.254 99.516
L375.599 99.6043
L375.944 102.365
L376.289 103.273
L376.634 100.594
L376.978 102.334
L377.323 106.004
L377.668 99.2653
L378.012 102.621
L378.357 100.086
L378.702 101.324
L379.046 99.7615
L379.391 97.0368
L379.736 95.246
L380.08 99.2332
L380.425 98.4612
L380.769 105.22
L381.113 99.4055
L381.458 105.353
L381.802 99.2825
L382.491 99.8701
L382.835 94.7307
L383.179 101.869
L383.524 104.213
L383.868 99.2348
L384.212 98.2113
L384.556 98.9345
L384.9 100.116
L385.244 100.13
L385.589 103.019
L385.933 95.8661
L386.277 102.987
L386.621 95.8666
L386.965 99.6667
L387.308 97.1245
L387.652 101.357
L387.996 93.7962
L388.34 96.2913
L388.684 103.316
L389.028 94.7599
L389.371 99.342
L389.715 96.3037
L390.059 100.891
L390.402 102.001
L390.746 104.76
L391.433 101.832
L391.777 106.936
L392.12 101.369
L392.464 105.401
L392.807 103.612
L393.151 98.6533
L393.494 105.058
L393.838 101.284
L394.181 104.182
L394.524 103.455
L394.868 104.346
L395.211 100.324
L395.554 103.854
L395.897 100.696
L396.24 101.729
L396.584 97.7521
L396.927 102.117
L397.27 101.278
L397.613 102.566
L397.956 102.523
L398.299 102.021
L398.642 102.906
L398.985 101.297
L399.328 98.8673
L399.671 102.319
L400.014 101.754
L400.356 104.904
L400.699 96.7563
L401.042 100.128
L401.727 92.677
L402.07 94.9175
L402.413 95.0521
L403.098 94.6198
L403.441 102.391
L403.783 96.7418
L404.126 99.2405
L404.468 97.6891
L404.811 101.17
L405.153 93.1841
L405.496 99.5407
L405.838 100.514
L406.18 97.0325
L406.523 100.865
L406.865 101.287
L407.207 100.629
L407.549 98.7634
L407.892 99.2327
L408.234 100.767
L408.576 99.3036
L408.918 101.443
L409.26 97.3234
L409.602 94.7877
L410.628 101.502
L411.312 97.7794
L411.654 101.377
L411.996 100.474
L412.338 100.533
L412.68 101.911
L413.021 102.15
L413.363 104.551
L413.705 101.607
L414.047 103.531
L414.388 106.576
L414.73 105.544
L415.071 102.992
L415.413 109.947
L415.755 103.297
L416.096 108.834
L416.438 102.998
L416.779 103.739
L417.121 100.787
L417.803 107.798
L418.486 103.946
L419.169 106.827
L419.851 102.277
L420.192 107.384
L420.533 102.966
L420.874 101.396
L421.216 104.195
L421.557 104.933
L421.898 104.694
L422.239 98.0846
L422.58 96.7741
L422.921 104.66
L423.262 105.721
L423.602 94.994
L423.943 98.8255
L424.284 98.9831
L424.966 101.388
L425.306 96.8184
L425.647 102.798
L425.988 99.2205
L426.329 103.322
L426.669 103.927
L427.01 100.257
L427.35 103.232
L427.691 95.4228
L428.031 99.8613
L428.372 93.8435
L428.712 98.8596
L429.053 95.5505
L429.393 95.0604
L430.074 103.655
L430.414 99.8802
L430.755 103.989
L431.095 104.897
L431.435 101.455
L431.775 109.307
L432.115 113.171
L432.456 112.96
L432.796 116.368
L433.476 102.842
L433.816 101.694
L434.156 98.4074
L434.496 107.48
L434.836 104.034
L435.176 97.738
L435.516 98.8747
L435.856 96.8713
L436.195 105.38
L436.535 104.396
L436.875 101.217
L437.215 95.2186
L437.554 97.5118
L437.894 93.8916
L438.234 82.754
L438.573 88.6252
L439.253 81.828
L439.592 99.5354
L439.932 97.3678
L440.271 101.046
L440.611 98.6609
L440.95 99.7552
L441.289 99.6811
L441.968 96.2645
L442.307 103.228
L442.647 98.3031
L442.986 97.3673
L443.325 101.348
L443.664 95.4822
L444.004 95.7633
L444.004 95.7633" style="fill:none;stroke:#000000;stroke-linecap:square;"/>
   </g>
   <g id="matplotlib.axis_3">
    <g id="xtick_6">
     <g id="line2d_30">
      <g>
       <use style="stroke:#000000;stroke-width:0.5;" x="56.16" xlink:href="#mc7db9fdffb" y="128.304"/>
      </g>
     </g>
     <g id="line2d_31">
      <g>
       <use style="stroke:#000000;stroke-width:0.5;" x="56.16" xlink:href="#m5a7d422ac3" y="71.28"/>
      </g>
     </g>
     <g id="text_10">
      <!-- 5190 -->
      <defs>
       <path d="
M11.4062 57.6875
C12.4062 57.2812 16.5 56 20.7031 56
C30 56 35.0938 61.0156 38 63.9219
C38 64.7344 38 65.25 37.4062 65.25
C37.2969 65.25 37.0938 65.25 36.2969 64.8281
C32.7969 63.3125 28.7031 62.0781 23.7031 62.0781
C20.7031 62.0781 16.2031 62.5 11.2969 64.7344
C10.2031 65.25 10 65.25 9.90625 65.25
C9.40625 65.25 9.29688 65.1406 9.29688 63.1562
L9.29688 34.2812
C9.29688 32.5 9.29688 32 10.2969 32
C10.7969 32 11 32.2031 11.5 32.9062
C14.7031 37.4844 19.0938 39.4062 24.0938 39.4062
C27.5938 39.4062 35.0938 37.2188 35.0938 20.1406
C35.0938 16.9531 35.0938 11.1719 32.0938 6.57812
C29.5938 2.48438 25.7031 0.390625 21.4062 0.390625
C14.7969 0.390625 8.09375 5 6.29688 12.7188
C6.70312 12.6094 7.5 12.4219 7.90625 12.4219
C9.20312 12.4219 11.7031 13.125 11.7031 16.2188
C11.7031 18.9062 9.79688 20 7.90625 20
C5.59375 20 4.09375 18.5938 4.09375 15.7969
C4.09375 7.09375 11 -2 21.5938 -2
C31.9062 -2 41.7031 6.875 41.7031 19.75
C41.7031 31.7188 33.9062 41 24.2031 41
C19.0938 41 14.7969 39.0938 11.4062 35.4531
z
" id="CMR17-53"/>
       <path d="
M35.2031 29.125
C35.2031 7.25 26.0938 0.484375 18.5938 0.484375
C16.2969 0.484375 10.7031 0.484375 8.40625 4.59375
C11 4.1875 12.9062 5.57812 12.9062 8.09375
C12.9062 10.8125 10.7031 11.7031 9.29688 11.7031
C8.40625 11.7031 5.70312 11.2969 5.70312 7.90625
C5.70312 1.10938 11.5938 -2 18.7969 -2
C30.2969 -2 42 10.5312 42 32.3906
C42 59.6406 30.7969 65.2969 23.2031 65.2969
C13.2969 65.2969 3.79688 56.6875 3.79688 43.4062
C3.79688 31.1094 11.9062 22 22.0938 22
C30.5 22 34.2031 29.7344 35.2031 33
z

M22.2969 23.5938
C19.5938 23.5938 15.7969 24.0938 12.7031 30.0312
C10.5938 33.8906 10.5938 38.4531 10.5938 43.2969
C10.5938 49.1562 10.5938 53.2031 13.4062 57.5625
C14.7969 59.6406 17.4062 63 23.2031 63
C35 63 35 45.0781 35 41.125
C35 34.0938 31.7969 23.5938 22.2969 23.5938" id="CMR17-57"/>
      </defs>
      <g transform="translate(46.1973294968 139.22249838)scale(0.1 -0.1)">
       <use transform="scale(0.9962640099626402)" xlink:href="#CMR17-53"/>
       <use transform="translate(45.69047711706103 0.0)scale(0.9962640099626402)" xlink:href="#CMR17-49"/>
       <use transform="translate(91.38095423412206 0.0)scale(0.9962640099626402)" xlink:href="#CMR17-57"/>
       <use transform="translate(137.07143135118307 0.0)scale(0.9962640099626402)" xlink:href="#CMR17-48"/>
      </g>
     </g>
    </g>
    <g id="xtick_7">
     <g id="line2d_32">
      <g>
       <use style="stroke:#000000;stroke-width:0.5;" x="140.603478261" xlink:href="#mc7db9fdffb" y="128.304"/>
      </g>
     </g>
     <g id="line2d_33">
      <g>
       <use style="stroke:#000000;stroke-width:0.5;" x="140.603478261" xlink:href="#m5a7d422ac3" y="71.28"/>
      </g>
     </g>
     <g id="text_11">
      <!-- 5200 -->
      <g transform="translate(130.640807758 139.22249838)scale(0.1 -0.1)">
       <use transform="scale(0.9962640099626402)" xlink:href="#CMR17-53"/>
       <use transform="translate(45.69047711706103 0.0)scale(0.9962640099626402)" xlink:href="#CMR17-50"/>
       <use transform="translate(91.38095423412206 0.0)scale(0.9962640099626402)" xlink:href="#CMR17-48"/>
       <use transform="translate(137.07143135118307 0.0)scale(0.9962640099626402)" xlink:href="#CMR17-48"/>
      </g>
     </g>
    </g>
    <g id="xtick_8">
     <g id="line2d_34">
      <g>
       <use style="stroke:#000000;stroke-width:0.5;" x="225.046956522" xlink:href="#mc7db9fdffb" y="128.304"/>
      </g>
     </g>
     <g id="line2d_35">
      <g>
       <use style="stroke:#000000;stroke-width:0.5;" x="225.046956522" xlink:href="#m5a7d422ac3" y="71.28"/>
      </g>
     </g>
     <g id="text_12">
      <!-- 5210 -->
      <g transform="translate(215.084286019 139.22249838)scale(0.1 -0.1)">
       <use transform="scale(0.9962640099626402)" xlink:href="#CMR17-53"/>
       <use transform="translate(45.69047711706103 0.0)scale(0.9962640099626402)" xlink:href="#CMR17-50"/>
       <use transform="translate(91.38095423412206 0.0)scale(0.9962640099626402)" xlink:href="#CMR17-49"/>
       <use transform="translate(137.07143135118307 0.0)scale(0.9962640099626402)" xlink:href="#CMR17-48"/>
      </g>
     </g>
    </g>
    <g id="xtick_9">
     <g id="line2d_36">
      <g>
       <use style="stroke:#000000;stroke-width:0.5;" x="309.490434783" xlink:href="#mc7db9fdffb" y="128.304"/>
      </g>
     </g>
     <g id="line2d_37">
      <g>
       <use style="stroke:#000000;stroke-width:0.5;" x="309.490434783" xlink:href="#m5a7d422ac3" y="71.28"/>
      </g>
     </g>
     <g id="text_13">
      <!-- 5220 -->
      <g transform="translate(299.527764279 139.22249838)scale(0.1 -0.1)">
       <use transform="scale(0.9962640099626402)" xlink:href="#CMR17-53"/>
       <use transform="translate(45.69047711706103 0.0)scale(0.9962640099626402)" xlink:href="#CMR17-50"/>
       <use transform="translate(91.38095423412206 0.0)scale(0.9962640099626402)" xlink:href="#CMR17-50"/>
       <use transform="translate(137.07143135118307 0.0)scale(0.9962640099626402)" xlink:href="#CMR17-48"/>
      </g>
     </g>
    </g>
    <g id="xtick_10">
     <g id="line2d_38">
      <g>
       <use style="stroke:#000000;stroke-width:0.5;" x="393.933913043" xlink:href="#mc7db9fdffb" y="128.304"/>
      </g>
     </g>
     <g id="line2d_39">
      <g>
       <use style="stroke:#000000;stroke-width:0.5;" x="393.933913043" xlink:href="#m5a7d422ac3" y="71.28"/>
      </g>
     </g>
     <g id="text_14">
      <!-- 5230 -->
      <g transform="translate(383.97124254 139.22249838)scale(0.1 -0.1)">
       <use transform="scale(0.9962640099626402)" xlink:href="#CMR17-53"/>
       <use transform="translate(45.69047711706103 0.0)scale(0.9962640099626402)" xlink:href="#CMR17-50"/>
       <use transform="translate(91.38095423412206 0.0)scale(0.9962640099626402)" xlink:href="#CMR17-51"/>
       <use transform="translate(137.07143135118307 0.0)scale(0.9962640099626402)" xlink:href="#CMR17-48"/>
      </g>
     </g>
    </g>
    <g id="text_15">
     <!-- $\lambda$ [\AA] -->
     <defs>
      <path d="
M43.2969 61.8125
C43.2969 66.7969 39.2969 70.5938 34.5938 70.5938
C29.9062 70.5938 25.9062 66.7969 25.9062 61.8125
C25.9062 56.7969 29.9062 53 34.5938 53
C39.2969 53 43.2969 56.7969 43.2969 61.8125
M34.5938 54.5938
C30.4062 54.5938 27.7031 57.1875 27.7031 61.8125
C27.7031 66.5 30.5 69 34.5938 69
C38.7969 69 41.5 66.4062 41.5 61.8125
C41.5 57.0938 38.7031 54.5938 34.5938 54.5938" id="CMR17-23"/>
      <path d="
M14.2969 74.4844
L1.40625 74.4844
L1.40625 71
L10.7969 71
L10.7969 -21.5156
L1.40625 -21.5156
L1.40625 -25
L14.2969 -25
z
" id="CMR17-93"/>
      <path d="
M36.2969 68.4062
C35.7969 69.7031 35.5938 70 34.5938 70
C33.5938 70 33.4062 69.7031 32.9062 68.4062
L11.7031 8.84375
C9.79688 3.48438 5.79688 2.39062 2.29688 2.39062
L2.29688 -0.203125
C4.09375 0 8.09375 0 10 0
C12.5 0 16.5 0 18.9062 -0.203125
L18.9062 2.39062
C14.2031 2.39062 13.5 5.64062 13.5 6.85938
C13.5 7.76562 13.7031 8.28125 13.9062 8.89062
L19.2031 24
L45.4062 24
L51.4062 6.90625
C51.9062 5.70312 51.9062 5.5 51.9062 5.10938
C51.9062 2.39062 47.5938 2.39062 45.7031 2.39062
L45.7031 0
C48.5938 0 53.7969 0 56.9062 0
C59.5 0 64.5 0 66.9062 -0.203125
L66.9062 2.39062
C61.5938 2.39062 59.7969 2.39062 58.5 6.04688
z

M32.2969 60.5312
L44.5 26.5938
L20.0938 26.5938
z
" id="CMR17-65"/>
      <path d="
M23.5 -25
L23.5 -21.5156
L14.0938 -21.5156
L14.0938 71
L23.5 71
L23.5 74.4844
L10.5938 74.4844
L10.5938 -25
z
" id="CMR17-91"/>
      <path d="
M30.9062 61.9531
C28.4062 69 20.5 69 19.2031 69
C18.5938 69 17.5 69 17.5 68
C17.5 67.2188 18.0938 67.1094 18.5938 67.0156
C20.0938 66.8125 21.2969 66.6094 22.9062 63.75
C23.9062 61.8594 34.2031 32.1719 34.2031 31.9688
C34.2031 31.875 34.0938 31.7656 33.2969 30.9688
L7.29688 4.85938
C6.09375 3.65625 5.29688 2.85938 5.29688 1.59375
C5.29688 0.1875 6.5 -1 8.09375 -1
C8.5 -1 9.59375 -0.796875 10.2031 -0.203125
C11.7969 1.28125 26.0938 18.6562 35.2031 29.3906
C37.7969 21.6094 41 12.4531 44.0938 4.07812
C44.5938 2.59375 45.0938 1.1875 46.5 -0.09375
C47.5 -1 47.7031 -1 50.5 -1
L52.4062 -1
C52.7969 -1 53.5 -1 53.5 -0.171875
C53.5 0.265625 53.4062 0.359375 53 0.78125
C52.0938 1.875 51.4062 3.65625 51 4.84375
z
" id="CMMI12-21"/>
     </defs>
     <g transform="translate(239.310373708 154.839620816)scale(0.1 -0.1)">
      <use transform="scale(0.9962640099626402)" xlink:href="#CMMI12-21"/>
      <use transform="translate(86.98003823552305 0.0)scale(0.9962640099626402)" xlink:href="#CMR17-91"/>
      <use transform="translate(111.85109671738793 17.61874416251557)scale(0.9962640099626402)" xlink:href="#CMR17-23"/>
      <use transform="translate(111.85109671738793 0.0)scale(0.9962640099626402)" xlink:href="#CMR17-65"/>
      <use transform="translate(180.92352652163763 0.0)scale(0.9962640099626402)" xlink:href="#CMR17-93"/>
     </g>
    </g>
   </g>
   <g id="matplotlib.axis_4">
    <g id="ytick_7">
     <g id="line2d_40">
      <g>
       <use style="stroke:#000000;stroke-width:0.5;" x="56.16" xlink:href="#md7965d1ba0" y="121.176"/>
      </g>
     </g>
     <g id="line2d_41">
      <g>
       <use style="stroke:#000000;stroke-width:0.5;" x="444.6" xlink:href="#md9a1c1a7cd" y="121.176"/>
      </g>
     </g>
     <g id="text_16">
      <!-- $-3.0$ -->
      <g transform="translate(31.681177299 123.666660025)scale(0.1 -0.1)">
       <use transform="scale(0.9962640099626402)" xlink:href="#CMSY10-0"/>
       <use transform="translate(77.4874676506071 0.0)scale(0.9962640099626402)" xlink:href="#CMR17-51"/>
       <use transform="translate(123.17794476766814 0.0)scale(0.9962640099626402)" xlink:href="#CMMI12-58"/>
       <use transform="translate(150.27512185748756 0.0)scale(0.9962640099626402)" xlink:href="#CMR17-48"/>
      </g>
     </g>
    </g>
    <g id="ytick_8">
     <g id="line2d_42">
      <g>
       <use style="stroke:#000000;stroke-width:0.5;" x="56.16" xlink:href="#md7965d1ba0" y="110.484"/>
      </g>
     </g>
     <g id="line2d_43">
      <g>
       <use style="stroke:#000000;stroke-width:0.5;" x="444.6" xlink:href="#md9a1c1a7cd" y="110.484"/>
      </g>
     </g>
     <g id="text_17">
      <!-- $-1.5$ -->
      <g transform="translate(31.681177299 112.974660025)scale(0.1 -0.1)">
       <use transform="scale(0.9962640099626402)" xlink:href="#CMSY10-0"/>
       <use transform="translate(77.4874676506071 0.0)scale(0.9962640099626402)" xlink:href="#CMR17-49"/>
       <use transform="translate(123.17794476766814 0.0)scale(0.9962640099626402)" xlink:href="#CMMI12-58"/>
       <use transform="translate(150.27512185748756 0.0)scale(0.9962640099626402)" xlink:href="#CMR17-53"/>
      </g>
     </g>
    </g>
    <g id="ytick_9">
     <g id="line2d_44">
      <g>
       <use style="stroke:#000000;stroke-width:0.5;" x="56.16" xlink:href="#md7965d1ba0" y="99.792"/>
      </g>
     </g>
     <g id="line2d_45">
      <g>
       <use style="stroke:#000000;stroke-width:0.5;" x="444.6" xlink:href="#md9a1c1a7cd" y="99.792"/>
      </g>
     </g>
     <g id="text_18">
      <!-- $0.0$ -->
      <g transform="translate(39.4299210237 102.282660025)scale(0.1 -0.1)">
       <use transform="scale(0.9962640099626402)" xlink:href="#CMR17-48"/>
       <use transform="translate(45.69047711706103 0.0)scale(0.9962640099626402)" xlink:href="#CMMI12-58"/>
       <use transform="translate(72.78765420688046 0.0)scale(0.9962640099626402)" xlink:href="#CMR17-48"/>
      </g>
     </g>
    </g>
    <g id="ytick_10">
     <g id="line2d_46">
      <g>
       <use style="stroke:#000000;stroke-width:0.5;" x="56.16" xlink:href="#md7965d1ba0" y="89.1"/>
      </g>
     </g>
     <g id="line2d_47">
      <g>
       <use style="stroke:#000000;stroke-width:0.5;" x="444.6" xlink:href="#md9a1c1a7cd" y="89.1"/>
      </g>
     </g>
     <g id="text_19">
      <!-- $1.5$ -->
      <g transform="translate(39.4299210237 91.5906600249)scale(0.1 -0.1)">
       <use transform="scale(0.9962640099626402)" xlink:href="#CMR17-49"/>
       <use transform="translate(45.69047711706103 0.0)scale(0.9962640099626402)" xlink:href="#CMMI12-58"/>
       <use transform="translate(72.78765420688046 0.0)scale(0.9962640099626402)" xlink:href="#CMR17-53"/>
      </g>
     </g>
    </g>
    <g id="ytick_11">
     <g id="line2d_48">
      <g>
       <use style="stroke:#000000;stroke-width:0.5;" x="56.16" xlink:href="#md7965d1ba0" y="78.408"/>
      </g>
     </g>
     <g id="line2d_49">
      <g>
       <use style="stroke:#000000;stroke-width:0.5;" x="444.6" xlink:href="#md9a1c1a7cd" y="78.408"/>
      </g>
     </g>
     <g id="text_20">
      <!-- $3.0$ -->
      <g transform="translate(39.4299210237 80.8986600249)scale(0.1 -0.1)">
       <use transform="scale(0.9962640099626402)" xlink:href="#CMR17-51"/>
       <use transform="translate(45.69047711706103 0.0)scale(0.9962640099626402)" xlink:href="#CMMI12-58"/>
       <use transform="translate(72.78765420688046 0.0)scale(0.9962640099626402)" xlink:href="#CMR17-48"/>
      </g>
     </g>
    </g>
    <g id="text_21">
     <!-- $\times10^{-14}$ -->
     <g transform="translate(56.16 68.28)scale(0.1 -0.1)">
      <use transform="scale(0.9962640099626402)" xlink:href="#CMSY10-2"/>
      <use transform="translate(77.4874676506071 0.0)scale(0.9962640099626402)" xlink:href="#CMR17-49"/>
      <use transform="translate(123.17794476766814 0.0)scale(0.9962640099626402)" xlink:href="#CMR17-48"/>
      <use transform="translate(168.86842188472914 36.15363894185866)scale(0.6973817666173724)" xlink:href="#CMSY10-0"/>
      <use transform="translate(223.1094151327055 36.15363894185866)scale(0.6973817666173724)" xlink:href="#CMR17-49"/>
      <use transform="translate(255.09259709682442 36.15363894185866)scale(0.6973817666173724)" xlink:href="#CMR17-52"/>
     </g>
    </g>
   </g>
   <g id="patch_8">
    <path d="
M56.16 71.28
L444.6 71.28" style="fill:none;stroke:#000000;"/>
   </g>
   <g id="patch_9">
    <path d="
M56.16 128.304
L56.16 71.28" style="fill:none;stroke:#000000;"/>
   </g>
   <g id="patch_10">
    <path d="
M444.6 128.304
L444.6 71.28" style="fill:none;stroke:#000000;"/>
   </g>
   <g id="patch_11">
    <path d="
M56.16 128.304
L444.6 128.304" style="fill:none;stroke:#000000;"/>
   </g>
   <g id="legend_2">
    <g id="line2d_50">
     <path d="
M369.825 83.78
L389.825 83.78" style="fill:none;stroke:#000000;stroke-linecap:square;"/>
    </g>
    <g id="line2d_51"/>
    <g id="text_22">
     <!-- residuals -->
     <defs>
      <path d="
M15 23.3906
C15 33 19.0938 42 26.5938 42
C27.2969 42 28 41.9062 28.7031 41.5938
C28.7031 41.5938 26.5 40.8906 26.5 38.3125
C26.5 35.9062 28.4062 34.9062 29.9062 34.9062
C31.0938 34.9062 33.2969 35.6094 33.2969 38.4062
C33.2969 41.6094 30.0938 43.5938 26.7031 43.5938
C19.0938 43.5938 15.7969 36.2031 14.7969 32.7031
L14.7031 32.7031
L14.7031 43.5938
L3.09375 42.5
L3.09375 39.9062
C9 39.9062 9.90625 39.2969 9.90625 34.5
L9.90625 6.6875
C9.90625 2.875 9.5 2.39062 3.09375 2.39062
L3.09375 -0.203125
C5.5 0 10.0938 0 12.7031 0
C15.5938 0 20.7031 0 23.4062 -0.203125
L23.4062 2.39062
C16.2031 2.39062 15 2.39062 15 6.875
z
" id="CMR17-114"/>
      <path d="
M29.4062 42.0781
L29.4062 39.5
C35.2969 39.5 36.2031 38.8906 36.2031 34.1562
L36.2031 16.125
C36.2031 7.8125 31.7031 0.59375 24.2969 0.59375
C16.0938 0.59375 15.4062 5.4375 15.4062 10.5938
L15.4062 43.1719
L3.29688 42.0781
L3.29688 39.5
C7.29688 39.5 10 39.5 10.0938 35.5312
L10.0938 16.5312
C10.0938 9.89062 10.0938 5.64062 12.7031 2.85938
C14 1.57812 16.5 -1 23.7031 -1
C32.2031 -1 35.5 6.35938 36.2969 8.5
L36.4062 8.5
L36.4062 -0.984375
L48.2969 -0.984375
L48.2969 2
C42.4062 2 41.5 2.59375 41.5 7.39062
L41.5 43.1719
z
" id="CMR17-117"/>
      <path d="
M30.9062 42.1094
C30.9062 43.9062 30.7969 44 30.2031 44
C29.7969 44 29.7031 43.9062 28.5 42.4219
C28.2031 42.0156 27.2969 41.0156 27 40.625
C23.7969 44 19.2969 44 17.5938 44
C6.5 44 2.5 38.1719 2.5 32.375
C2.5 23.3438 12.7031 21.25 15.5938 20.6406
C21.9062 19.3438 24.0938 18.9375 26.2031 17.125
C27.5 15.9375 29.7031 13.7344 29.7031 10.125
C29.7031 5.90625 27.2969 0.5 18.0938 0.5
C9.40625 0.5 6.29688 7.0625 4.5 15.8281
C4.20312 17.2188 4.20312 17.3281 3.40625 17.3281
C2.59375 17.3281 2.5 17.2188 2.5 15.2344
L2.5 0.890625
C2.5 -0.890625 2.59375 -1 3.20312 -1
C3.70312 -1 3.79688 -0.890625 4.29688 -0.09375
C4.90625 0.796875 6.40625 3.1875 7 4.1875
C9 1.54688 12.5 -1 18.0938 -1
C28 -1 33.2969 4.40625 33.2969 12.2344
C33.2969 17.3438 30.5938 20.0625 29.2969 21.25
C26.2969 24.375 22.7969 25.0625 18.5938 25.8594
C13.0938 27.0781 6.09375 28.4688 6.09375 34.5938
C6.09375 37.1875 7.5 42.7188 17.5938 42.7188
C28.2969 42.7188 28.9062 32.75 29.0938 29.5625
C29.2031 29.0781 29.7031 28.9688 30 28.9688
C30.9062 28.9688 30.9062 29.2812 30.9062 30.9688
z
" id="CMR17-115"/>
      <path d="
M15.5 61.0781
C15.5 63.2656 13.7031 65.1562 11.4062 65.1562
C9.20312 65.1562 7.29688 63.375 7.29688 61.0781
C7.29688 58.8906 9.09375 57 11.4062 57
C13.5938 57 15.5 58.7969 15.5 61.0781
M3.79688 42.2812
L3.79688 39.7031
C9.40625 39.7031 10.2031 39.0938 10.2031 34.3281
L10.2031 6.67188
C10.2031 2.875 9.79688 2.39062 3.40625 2.39062
L3.40625 -0.203125
C5.79688 0 10.0938 0 12.5938 0
C15 0 19.0938 0 21.4062 -0.203125
L21.4062 2.39062
C15.5 2.39062 15.2969 2.98438 15.2969 6.5625
L15.2969 43.375
z
" id="CMR17-105"/>
     </defs>
     <g transform="translate(397.824923748 87.28)scale(0.1 -0.1)">
      <use transform="scale(0.9962640099626402)" xlink:href="#CMR17-114"/>
      <use transform="translate(35.28076779946296 0.0)scale(0.9962640099626402)" xlink:href="#CMR17-101"/>
      <use transform="translate(75.7664282621809 0.0)scale(0.9962640099626402)" xlink:href="#CMR17-115"/>
      <use transform="translate(111.56776589741595 0.0)scale(0.9962640099626402)" xlink:href="#CMR17-105"/>
      <use transform="translate(136.43882437928085 0.0)scale(0.9962640099626402)" xlink:href="#CMR17-100"/>
      <use transform="translate(187.33419415959685 0.0)scale(0.9962640099626402)" xlink:href="#CMR17-117"/>
      <use transform="translate(238.22956393991285 0.0)scale(0.9962640099626402)" xlink:href="#CMR17-97"/>
      <use transform="translate(283.9200410569739 0.0)scale(0.9962640099626402)" xlink:href="#CMR17-108"/>
      <use transform="translate(308.79109953883875 0.0)scale(0.9962640099626402)" xlink:href="#CMR17-115"/>
     </g>
    </g>
   </g>
  </g>
  <g id="text_23">
   <!-- $f_\lambda \quad [\textrm{erg}\;\textrm{cm}^{-2}\;\textrm{s}^{-1}\;\textrm{\AA}^{-1}]$ -->
   <defs>
    <path d="
M44.5938 40.0938
C46.5938 40.0938 47.4062 40.0938 47.4062 42
C47.4062 43 46.5938 43 44.7969 43
L36.7031 43
C38.5938 53.5781 40 60.8906 40.7969 64.1719
C41.4062 66.6406 43.5 69 46.0938 69
C48.2031 69 50.2969 68.0938 51.2969 67.1562
C47.4062 66.75 46.2031 63.7812 46.2031 62.0156
C46.2031 59.9531 47.7031 58.7344 49.5938 58.7344
C51.5938 58.7344 54.5938 60.4688 54.5938 64.3594
C54.5938 68.6406 50.4062 71 46 71
C41.7031 71 37.5 67.7188 35.5 63.7188
C33.7031 60.125 32.7031 56.4375 30.4062 43
L23.7031 43
C21.7969 43 20.7969 43 20.7969 41.2031
C20.7969 40.0938 21.4062 40.0938 23.4062 40.0938
L29.7969 40.0938
C28 30.875 23.9062 8.46875 21.5938 -2.14062
C19.9062 -10.7656 18.4062 -18 13.4062 -18
C13.0938 -18 10.2031 -18 8.40625 -16.1094
C13.5 -15.7031 13.5 -11.3438 13.5 -11.25
C13.5 -9.26562 12 -8.07812 10.0938 -8.07812
C8.09375 -8.07812 5.09375 -9.76562 5.09375 -13.5469
C5.09375 -17.8125 9.5 -20 13.4062 -20
C23.5938 -20 27.7969 -1.84375 28.9062 3.10938
C30.7031 10.75 35.5938 37.125 36.0938 40.0938
z
" id="CMMI12-102"/>
    <path d="
M34.9062 35
C33 35 30.2031 35 30.2031 31.5156
C30.2031 28.7188 32.5 27.9219 33.7969 27.9219
C34.5 27.9219 37.4062 28.2344 37.4062 31.625
C37.4062 38.5469 30.5938 43.7969 22.9062 43.7969
C12.2969 43.7969 3.29688 34.0312 3.29688 21.2969
C3.29688 8.0625 12.7031 -1 22.9062 -1
C35.2969 -1 38.4062 10.5938 38.4062 11.6875
C38.4062 12.0938 38.2969 12.3906 37.5938 12.3906
C36.9062 12.3906 36.7969 12.2969 36.4062 10.9844
C33.7969 2.8125 28.0938 0.796875 23.7969 0.796875
C17.4062 0.796875 9.70312 6.67188 9.70312 21.3906
C9.70312 36.5312 17.0938 42 23 42
C26.9062 42 32.7031 40.2031 34.9062 35" id="CMR17-99"/>
    <path d="
M11.0938 18.1875
C13 16.6875 16.2969 15 20.2969 15
C28.2031 15 35 21.2031 35 29.5
C35 32.0938 34.2031 36.0938 31.2031 39.2031
C34 42.0625 38.0938 43 40.4062 43
C40.7969 43 41.4062 43 41.9062 42.7656
C41.5 42.6719 40.5938 42.2812 40.5938 40.7344
C40.5938 39.4844 41.5 38.6094 42.7969 38.6094
C44.2969 38.6094 45.0938 39.5781 45.0938 40.8438
C45.0938 42.6719 43.5938 44.5938 40.4062 44.5938
C36.4062 44.5938 32.9062 42.7812 30.0938 40.3125
C27.0938 43.0156 23.5 44 20.2969 44
C12.4062 44 5.59375 37.7969 5.59375 29.5
C5.59375 23.7812 8.90625 20.1875 9.90625 19.1875
C6.90625 15.6875 6.90625 11.6094 6.90625 11.1094
C6.90625 8.51562 7.90625 4.71875 11.2969 2.625
C6.09375 1.32812 2 -2.64062 2 -7.59375
C2 -14.7344 11.5 -20 22.9062 -20
C33.9062 -20 43.7969 -14.9375 43.7969 -7.48438
C43.7969 6 29 6 21.2969 6
C19 6 14.9062 6 14.4062 6.10938
C11.2969 6.60938 9.20312 9.40625 9.20312 12.8906
C9.20312 13.7812 9.20312 16 11.0938 18.1875
M20.2969 16.6875
C11.5 16.6875 11.5 27.5 11.5 29.5156
C11.5 31.5 11.5 42.3125 20.2969 42.3125
C29.0938 42.3125 29.0938 31.5 29.0938 29.5156
C29.0938 27.5 29.0938 16.6875 20.2969 16.6875
M22.9062 -18.2969
C12.9062 -18.2969 6 -13.0469 6 -7.59375
C6 -4.51562 7.70312 -1.64062 9.90625 -0.0625
C12.4062 1.625 13.4062 1.625 20.2031 1.625
C28.4062 1.625 39.7969 1.625 39.7969 -7.59375
C39.7969 -13.0469 32.9062 -18.2969 22.9062 -18.2969" id="CMR17-103"/>
   </defs>
   <g transform="translate(25.3047183657 123.846886383)rotate(-90.0)scale(0.1 -0.1)">
    <use transform="translate(0.0 14.943914544092468)scale(0.9962640099626402)" xlink:href="#CMMI12-102"/>
    <use transform="translate(48.083237663449566 0.0)scale(0.6973817666173724)" xlink:href="#CMMI12-21"/>
    <use transform="translate(179.79508301389322 14.943914544092468)scale(0.9962640099626402)" xlink:href="#CMR17-91"/>
    <use transform="translate(204.66614149575813 14.943914544092468)scale(0.9962640099626402)" xlink:href="#CMR17-101"/>
    <use transform="translate(245.15180195847606 14.943914544092468)scale(0.9962640099626402)" xlink:href="#CMR17-114"/>
    <use transform="translate(280.432569757939 14.943914544092468)scale(0.9962640099626402)" xlink:href="#CMR17-103"/>
    <use transform="translate(353.7970555971747 14.943914544092468)scale(0.9962640099626402)" xlink:href="#CMR17-99"/>
    <use transform="translate(394.2827160598926 14.943914544092468)scale(0.9962640099626402)" xlink:href="#CMR17-109"/>
    <use transform="translate(471.2023059279655 51.097553485951124)scale(0.6973817666173724)" xlink:href="#CMSY10-0"/>
    <use transform="translate(525.4432991759419 51.097553485951124)scale(0.6973817666173724)" xlink:href="#CMR17-50"/>
    <use transform="translate(585.5986218672167 14.943914544092468)scale(0.9962640099626402)" xlink:href="#CMR17-115"/>
    <use transform="translate(621.3999595024518 51.097553485951124)scale(0.6973817666173724)" xlink:href="#CMSY10-0"/>
    <use transform="translate(675.6409527504281 51.097553485951124)scale(0.6973817666173724)" xlink:href="#CMR17-49"/>
    <use transform="translate(735.7962754417031 32.56265870660803)scale(0.9962640099626402)" xlink:href="#CMR17-23"/>
    <use transform="translate(735.7962754417031 14.943914544092468)scale(0.9962640099626402)" xlink:href="#CMR17-65"/>
    <use transform="translate(804.8687052459528 74.82118143388077)scale(0.6973817666173724)" xlink:href="#CMSY10-0"/>
    <use transform="translate(859.109698493929 74.82118143388077)scale(0.6973817666173724)" xlink:href="#CMR17-49"/>
    <use transform="translate(891.5910124630293 14.943914544092468)scale(0.9962640099626402)" xlink:href="#CMR17-93"/>
   </g>
  </g>
 </g>
 <defs>
  <clipPath id="pb67a50fc1a">
   <rect height="57.024" width="388.44" x="56.16" y="14.256"/>
  </clipPath>
  <clipPath id="p9568c8cc1d">
   <rect height="57.024" width="388.44" x="56.16" y="71.28"/>
  </clipPath>
 </defs>
</svg>
