<?xml version="1.0" encoding="utf-8" standalone="no"?>
<!DOCTYPE svg PUBLIC "-//W3C//DTD SVG 1.1//EN"
  "http://www.w3.org/Graphics/SVG/1.1/DTD/svg11.dtd">
<!-- Created with matplotlib (http://matplotlib.org/) -->
<svg height="230pt" version="1.1" viewBox="0 0 230 230" width="230pt" xmlns="http://www.w3.org/2000/svg" xmlns:xlink="http://www.w3.org/1999/xlink">
 <defs>
  <style type="text/css">
*{stroke-linecap:butt;stroke-linejoin:round;}
  </style>
 </defs>
 <g id="figure_1">
  <g id="patch_1">
   <path d="
M0 230.4
L230.4 230.4
L230.4 0
L0 0
z
" style="fill:#ffffff;"/>
  </g>
  <g id="axes_1">
   <g id="patch_2">
    <path d="
M43.776 193.536
L207.36 193.536
L207.36 23.04
L43.776 23.04
z
" style="fill:#ffffff;"/>
   </g>
   <g id="patch_3">
    <path clip-path="url(#p92744531cd)" d="
M134.95 47.4386
C135.458 46.4641 135.819 45.5294 135.953 44.8403
C136.087 44.1512 135.983 43.7641 135.664 43.7641
C135.345 43.7641 134.837 44.1512 134.252 44.8403
C133.667 45.5294 133.053 46.4641 132.544 47.4386
C132.036 48.413 131.675 49.3478 131.541 50.0368
C131.407 50.7259 131.511 51.113 131.831 51.113
C132.15 51.113 132.657 50.7259 133.243 50.0368
C133.828 49.3478 134.442 48.4131 134.95 47.4386
z
" style="fill:none;stroke:#000000;"/>
   </g>
   <g id="patch_4">
    <path clip-path="url(#p92744531cd)" d="
M103.137 107.406
C103.808 106.05 104.344 104.749 104.628 103.789
C104.912 102.83 104.92 102.291 104.651 102.291
C104.382 102.291 103.857 102.83 103.192 103.789
C102.527 104.749 101.776 106.05 101.105 107.406
C100.434 108.763 99.8976 110.064 99.6136 111.023
C99.3297 111.982 99.3215 112.521 99.5909 112.521
C99.8603 112.521 100.385 111.982 101.05 111.023
C101.715 110.064 102.466 108.763 103.137 107.406
z
" style="fill:none;stroke:#000000;"/>
   </g>
   <g id="patch_5">
    <path clip-path="url(#p92744531cd)" d="
M73.4011 119.164
C73.7627 117.995 73.8606 116.873 73.6735 116.047
C73.4864 115.22 73.0294 114.755 72.4032 114.755
C71.777 114.755 71.0328 115.22 70.3344 116.047
C69.6359 116.873 69.0404 117.995 68.6789 119.164
C68.3173 120.334 68.2194 121.455 68.4065 122.282
C68.5936 123.109 69.0506 123.574 69.6768 123.574
C70.303 123.574 71.0472 123.109 71.7456 122.282
C72.4441 121.455 73.0396 120.334 73.4011 119.164
z
" style="fill:none;stroke:#000000;"/>
   </g>
   <g id="LineCollection_1">
    <defs>
     <path d="
M136.474 -180.316
L180.096 -180.316" id="C0_0_396e9b096b"/>
     <path d="
M136.474 -169.145
L180.096 -169.145" id="C0_1_ebcd1f8dc9"/>
     <path d="
M144.653 -180.022
L188.275 -180.022" id="C0_2_1a983729ba"/>
    </defs>
    <g clip-path="url(#p92744531cd)">
     <use style="fill:none;stroke:#0000ff;" x="0.0" xlink:href="#C0_0_396e9b096b" y="230.4"/>
    </g>
    <g clip-path="url(#p92744531cd)">
     <use style="fill:none;stroke:#0000ff;" x="0.0" xlink:href="#C0_1_ebcd1f8dc9" y="230.4"/>
    </g>
    <g clip-path="url(#p92744531cd)">
     <use style="fill:none;stroke:#0000ff;" x="0.0" xlink:href="#C0_2_1a983729ba" y="230.4"/>
    </g>
   </g>
   <g id="LineCollection_2">
    <defs>
     <path d="
M158.285 -165.618
L158.285 -195.014" id="C1_0_6ea3436b89"/>
     <path d="
M158.285 -154.447
L158.285 -183.843" id="C1_1_38f5c397a9"/>
     <path d="
M166.464 -165.324
L166.464 -194.72" id="C1_2_7887ff1ce7"/>
    </defs>
    <g clip-path="url(#p92744531cd)">
     <use style="fill:none;stroke:#0000ff;" x="0.0" xlink:href="#C1_0_6ea3436b89" y="230.4"/>
    </g>
    <g clip-path="url(#p92744531cd)">
     <use style="fill:none;stroke:#0000ff;" x="0.0" xlink:href="#C1_1_38f5c397a9" y="230.4"/>
    </g>
    <g clip-path="url(#p92744531cd)">
     <use style="fill:none;stroke:#0000ff;" x="0.0" xlink:href="#C1_2_7887ff1ce7" y="230.4"/>
    </g>
   </g>
   <g id="LineCollection_3">
    <defs>
     <path d="
M111.936 -163.266
L177.37 -163.266" id="C2_0_1f7bd06ae2"/>
    </defs>
    <g clip-path="url(#p92744531cd)">
     <use style="fill:none;stroke:#bf00bf;" x="0.0" xlink:href="#C2_0_1f7bd06ae2" y="230.4"/>
    </g>
   </g>
   <g id="LineCollection_4">
    <defs>
     <path d="
M144.653 -141.219
L144.653 -185.313" id="C3_0_46b8a5874a"/>
    </defs>
    <g clip-path="url(#p92744531cd)">
     <use style="fill:none;stroke:#bf00bf;" x="0.0" xlink:href="#C3_0_46b8a5874a" y="230.4"/>
    </g>
   </g>
   <g id="LineCollection_5">
    <defs>
     <path d="
M87.3984 -75.0786
L141.926 -75.0786" id="C4_0_19650445cb"/>
    </defs>
    <g clip-path="url(#p92744531cd)">
     <use style="fill:none;stroke:#008000;" x="0.0" xlink:href="#C4_0_19650445cb" y="230.4"/>
    </g>
   </g>
   <g id="LineCollection_6">
    <defs>
     <path d="
M114.662 -53.0317
L114.662 -97.1255" id="C5_0_96c772a647"/>
    </defs>
    <g clip-path="url(#p92744531cd)">
     <use style="fill:none;stroke:#008000;" x="0.0" xlink:href="#C5_0_96c772a647" y="230.4"/>
    </g>
   </g>
   <g id="LineCollection_7">
    <defs>
     <path d="
M150.106 -166.794
L193.728 -166.794" id="C6_0_731401c320"/>
    </defs>
    <g clip-path="url(#p92744531cd)">
     <use style="fill:none;stroke:#000000;" x="0.0" xlink:href="#C6_0_731401c320" y="230.4"/>
    </g>
   </g>
   <g id="LineCollection_8">
    <defs>
     <path d="
M171.917 -144.747
L171.917 -188.841" id="C7_0_2031077e63"/>
    </defs>
    <g clip-path="url(#p92744531cd)">
     <use style="fill:none;stroke:#000000;" x="0.0" xlink:href="#C7_0_2031077e63" y="230.4"/>
    </g>
   </g>
   <g id="line2d_1">
    <defs>
     <path d="
M0 3
L0 -3" id="m2bd262d54f" style="stroke:#0000ff;stroke-width:0.5;"/>
    </defs>
    <g clip-path="url(#p92744531cd)">
     <use style="fill:#0000ff;stroke:#0000ff;stroke-width:0.5;" x="136.4736" xlink:href="#m2bd262d54f" y="50.0841931034"/>
     <use style="fill:#0000ff;stroke:#0000ff;stroke-width:0.5;" x="136.4736" xlink:href="#m2bd262d54f" y="61.2546206897"/>
     <use style="fill:#0000ff;stroke:#0000ff;stroke-width:0.5;" x="144.6528" xlink:href="#m2bd262d54f" y="50.3781517241"/>
    </g>
   </g>
   <g id="line2d_2">
    <g clip-path="url(#p92744531cd)">
     <use style="fill:#0000ff;stroke:#0000ff;stroke-width:0.5;" x="180.096" xlink:href="#m2bd262d54f" y="50.0841931034"/>
     <use style="fill:#0000ff;stroke:#0000ff;stroke-width:0.5;" x="180.096" xlink:href="#m2bd262d54f" y="61.2546206897"/>
     <use style="fill:#0000ff;stroke:#0000ff;stroke-width:0.5;" x="188.2752" xlink:href="#m2bd262d54f" y="50.3781517241"/>
    </g>
   </g>
   <g id="line2d_3">
    <defs>
     <path d="
M3 1.83697e-16
L-3 -1.83697e-16" id="m4a5567e584" style="stroke:#0000ff;stroke-width:0.5;"/>
    </defs>
    <g clip-path="url(#p92744531cd)">
     <use style="fill:#0000ff;stroke:#0000ff;stroke-width:0.5;" x="158.2848" xlink:href="#m4a5567e584" y="64.7821241379"/>
     <use style="fill:#0000ff;stroke:#0000ff;stroke-width:0.5;" x="158.2848" xlink:href="#m4a5567e584" y="75.9525517241"/>
     <use style="fill:#0000ff;stroke:#0000ff;stroke-width:0.5;" x="166.464" xlink:href="#m4a5567e584" y="65.0760827586"/>
    </g>
   </g>
   <g id="line2d_4">
    <g clip-path="url(#p92744531cd)">
     <use style="fill:#0000ff;stroke:#0000ff;stroke-width:0.5;" x="158.2848" xlink:href="#m4a5567e584" y="35.386262069"/>
     <use style="fill:#0000ff;stroke:#0000ff;stroke-width:0.5;" x="158.2848" xlink:href="#m4a5567e584" y="46.5566896552"/>
     <use style="fill:#0000ff;stroke:#0000ff;stroke-width:0.5;" x="166.464" xlink:href="#m4a5567e584" y="35.6802206897"/>
    </g>
   </g>
   <g id="line2d_5">
    <defs>
     <path d="
M0 2
C0.530406 2 1.03916 1.78927 1.41421 1.41421
C1.78927 1.03916 2 0.530406 2 0
C2 -0.530406 1.78927 -1.03916 1.41421 -1.41421
C1.03916 -1.78927 0.530406 -2 0 -2
C-0.530406 -2 -1.03916 -1.78927 -1.41421 -1.41421
C-1.78927 -1.03916 -2 -0.530406 -2 0
C-2 0.530406 -1.78927 1.03916 -1.41421 1.41421
C-1.03916 1.78927 -0.530406 2 0 2
z
" id="m439a49b87f" style="stroke:#000000;stroke-width:0.5;"/>
    </defs>
    <g clip-path="url(#p92744531cd)">
     <use style="fill:#0000ff;stroke:#000000;stroke-width:0.5;" x="158.2848" xlink:href="#m439a49b87f" y="50.0841931034"/>
     <use style="fill:#0000ff;stroke:#000000;stroke-width:0.5;" x="158.2848" xlink:href="#m439a49b87f" y="61.2546206897"/>
     <use style="fill:#0000ff;stroke:#000000;stroke-width:0.5;" x="166.464" xlink:href="#m439a49b87f" y="50.3781517241"/>
    </g>
   </g>
   <g id="line2d_6">
    <defs>
     <path d="
M0 3
L0 -3" id="m201a519757" style="stroke:#bf00bf;stroke-width:0.5;"/>
    </defs>
    <g clip-path="url(#p92744531cd)">
     <use style="fill:#bf00bf;stroke:#bf00bf;stroke-width:0.5;" x="111.936" xlink:href="#m201a519757" y="67.1337931034"/>
    </g>
   </g>
   <g id="line2d_7">
    <g clip-path="url(#p92744531cd)">
     <use style="fill:#bf00bf;stroke:#bf00bf;stroke-width:0.5;" x="177.3696" xlink:href="#m201a519757" y="67.1337931034"/>
    </g>
   </g>
   <g id="line2d_8">
    <defs>
     <path d="
M3 1.83697e-16
L-3 -1.83697e-16" id="me072f834ab" style="stroke:#bf00bf;stroke-width:0.5;"/>
    </defs>
    <g clip-path="url(#p92744531cd)">
     <use style="fill:#bf00bf;stroke:#bf00bf;stroke-width:0.5;" x="144.6528" xlink:href="#me072f834ab" y="89.1806896552"/>
    </g>
   </g>
   <g id="line2d_9">
    <g clip-path="url(#p92744531cd)">
     <use style="fill:#bf00bf;stroke:#bf00bf;stroke-width:0.5;" x="144.6528" xlink:href="#me072f834ab" y="45.0868965517"/>
    </g>
   </g>
   <g id="line2d_10">
    <defs>
     <path d="
M0 2
C0.530406 2 1.03916 1.78927 1.41421 1.41421
C1.78927 1.03916 2 0.530406 2 0
C2 -0.530406 1.78927 -1.03916 1.41421 -1.41421
C1.03916 -1.78927 0.530406 -2 0 -2
C-0.530406 -2 -1.03916 -1.78927 -1.41421 -1.41421
C-1.78927 -1.03916 -2 -0.530406 -2 0
C-2 0.530406 -1.78927 1.03916 -1.41421 1.41421
C-1.03916 1.78927 -0.530406 2 0 2
z
" id="m41c9b52665" style="stroke:#000000;stroke-width:0.5;"/>
    </defs>
    <g clip-path="url(#p92744531cd)">
     <use style="fill:#bf00bf;stroke:#000000;stroke-width:0.5;" x="144.6528" xlink:href="#m41c9b52665" y="67.1337931034"/>
    </g>
   </g>
   <g id="line2d_11">
    <defs>
     <path d="
M0 3
L0 -3" id="m2eabbe31a3" style="stroke:#008000;stroke-width:0.5;"/>
    </defs>
    <g clip-path="url(#p92744531cd)">
     <use style="fill:#008000;stroke:#008000;stroke-width:0.5;" x="87.3984" xlink:href="#m2eabbe31a3" y="155.32137931"/>
    </g>
   </g>
   <g id="line2d_12">
    <g clip-path="url(#p92744531cd)">
     <use style="fill:#008000;stroke:#008000;stroke-width:0.5;" x="141.9264" xlink:href="#m2eabbe31a3" y="155.32137931"/>
    </g>
   </g>
   <g id="line2d_13">
    <defs>
     <path d="
M3 1.83697e-16
L-3 -1.83697e-16" id="m37ea37557e" style="stroke:#008000;stroke-width:0.5;"/>
    </defs>
    <g clip-path="url(#p92744531cd)">
     <use style="fill:#008000;stroke:#008000;stroke-width:0.5;" x="114.6624" xlink:href="#m37ea37557e" y="177.368275862"/>
    </g>
   </g>
   <g id="line2d_14">
    <g clip-path="url(#p92744531cd)">
     <use style="fill:#008000;stroke:#008000;stroke-width:0.5;" x="114.6624" xlink:href="#m37ea37557e" y="133.274482759"/>
    </g>
   </g>
   <g id="line2d_15">
    <defs>
     <path d="
M0 2
C0.530406 2 1.03916 1.78927 1.41421 1.41421
C1.78927 1.03916 2 0.530406 2 0
C2 -0.530406 1.78927 -1.03916 1.41421 -1.41421
C1.03916 -1.78927 0.530406 -2 0 -2
C-0.530406 -2 -1.03916 -1.78927 -1.41421 -1.41421
C-1.78927 -1.03916 -2 -0.530406 -2 0
C-2 0.530406 -1.78927 1.03916 -1.41421 1.41421
C-1.03916 1.78927 -0.530406 2 0 2
z
" id="m3a2bd31b39" style="stroke:#000000;stroke-width:0.5;"/>
    </defs>
    <g clip-path="url(#p92744531cd)">
     <use style="fill:#008000;stroke:#000000;stroke-width:0.5;" x="114.6624" xlink:href="#m3a2bd31b39" y="155.32137931"/>
    </g>
   </g>
   <g id="line2d_16">
    <defs>
     <path d="
M0 3
L0 -3" id="m9b22c1f968" style="stroke:#000000;stroke-width:0.5;"/>
    </defs>
    <g clip-path="url(#p92744531cd)">
     <use style="stroke:#000000;stroke-width:0.5;" x="150.1056" xlink:href="#m9b22c1f968" y="63.6062896552"/>
    </g>
   </g>
   <g id="line2d_17">
    <g clip-path="url(#p92744531cd)">
     <use style="stroke:#000000;stroke-width:0.5;" x="193.728" xlink:href="#m9b22c1f968" y="63.6062896552"/>
    </g>
   </g>
   <g id="line2d_18">
    <defs>
     <path d="
M3 1.83697e-16
L-3 -1.83697e-16" id="mcf9903d1bd" style="stroke:#000000;stroke-width:0.5;"/>
    </defs>
    <g clip-path="url(#p92744531cd)">
     <use style="stroke:#000000;stroke-width:0.5;" x="171.9168" xlink:href="#mcf9903d1bd" y="85.6531862069"/>
    </g>
   </g>
   <g id="line2d_19">
    <g clip-path="url(#p92744531cd)">
     <use style="stroke:#000000;stroke-width:0.5;" x="171.9168" xlink:href="#mcf9903d1bd" y="41.5593931034"/>
    </g>
   </g>
   <g id="line2d_20">
    <defs>
     <path d="
M0 2
C0.530406 2 1.03916 1.78927 1.41421 1.41421
C1.78927 1.03916 2 0.530406 2 0
C2 -0.530406 1.78927 -1.03916 1.41421 -1.41421
C1.03916 -1.78927 0.530406 -2 0 -2
C-0.530406 -2 -1.03916 -1.78927 -1.41421 -1.41421
C-1.78927 -1.03916 -2 -0.530406 -2 0
C-2 0.530406 -1.78927 1.03916 -1.41421 1.41421
C-1.03916 1.78927 -0.530406 2 0 2
z
" id="m408b856472" style="stroke:#000000;stroke-width:0.5;"/>
    </defs>
    <g clip-path="url(#p92744531cd)">
     <use style="stroke:#000000;stroke-width:0.5;" x="171.9168" xlink:href="#m408b856472" y="63.6062896552"/>
    </g>
   </g>
   <g id="line2d_21">
    <g clip-path="url(#p92744531cd)">
     <use style="stroke:#000000;stroke-width:0.5;" x="133.7472" xlink:href="#m408b856472" y="47.4385655172"/>
    </g>
   </g>
   <g id="line2d_22">
    <g clip-path="url(#p92744531cd)">
     <use style="stroke:#000000;stroke-width:0.5;" x="102.12096" xlink:href="#m408b856472" y="107.406124138"/>
    </g>
   </g>
   <g id="line2d_23">
    <g clip-path="url(#p92744531cd)">
     <use style="stroke:#000000;stroke-width:0.5;" x="71.04" xlink:href="#m408b856472" y="119.164468966"/>
    </g>
   </g>
   <g id="matplotlib.axis_1">
    <g id="xtick_1">
     <g id="text_1">
      <!-- $-0.6$ -->
      <defs>
       <path d="
M42 31.6406
C42 37.75 41.9062 48.125 37.7031 56.1094
C34 63.1094 28.0938 65.5938 22.9062 65.5938
C18.0938 65.5938 12 63.4062 8.20312 56.2031
C4.20312 48.7188 3.79688 39.4375 3.79688 31.6406
C3.79688 25.9531 3.90625 17.2812 7 9.67188
C11.2969 -0.609375 19 -2 22.9062 -2
C27.5 -2 34.5 -0.109375 38.5938 9.375
C41.5938 16.2812 42 24.3594 42 31.6406
M22.9062 -0.40625
C16.5 -0.40625 12.7031 5.07812 11.2969 12.6875
C10.2031 18.5625 10.2031 27.1562 10.2031 32.75
C10.2031 40.4375 10.2031 46.8281 11.5 52.9219
C13.4062 61.3906 19 64 22.9062 64
C27 64 32.2969 61.2969 34.2031 53.125
C35.5 47.4375 35.5938 40.7344 35.5938 32.75
C35.5938 26.25 35.5938 18.2656 34.4062 12.375
C32.2969 1.48438 26.4062 -0.40625 22.9062 -0.40625" id="CMR17-48"/>
       <path d="
M65.9062 23
C67.5938 23 69.4062 23 69.4062 25
C69.4062 27 67.5938 27 65.9062 27
L11.7969 27
C10.0938 27 8.29688 27 8.29688 25
C8.29688 23 10.0938 23 11.7969 23
z
" id="CMSY10-0"/>
       <path d="
M18.4062 4.79688
C18.4062 7.6875 16 9.67188 13.5938 9.67188
C10.7031 9.67188 8.70312 7.28125 8.70312 4.89062
C8.70312 2 11.0938 0 13.5 0
C16.4062 0 18.4062 2.39062 18.4062 4.79688" id="CMMI12-58"/>
       <path d="
M10.5938 34
C10.5938 57.6562 21.7969 63 28.2969 63
C30.4062 63 35.5 62.6406 37.5 59
C35.9062 59 32.9062 59 32.9062 55.5156
C32.9062 52.8281 35.0938 51.9219 36.5 51.9219
C37.4062 51.9219 40.0938 52.3125 40.0938 55.625
C40.0938 61.7812 35.0938 65.2969 28.2031 65.2969
C16.2969 65.2969 3.79688 52.9688 3.79688 31
C3.79688 3.95312 15.0938 -2 23.0938 -2
C32.7969 -2 42 6.67188 42 20.0469
C42 32.5156 33.9062 41.5938 23.7031 41.5938
C17.5938 41.5938 13.0938 37.6094 10.5938 30.625
z

M23.0938 0.390625
C10.7969 0.390625 10.7969 18.75 10.7969 22.4375
C10.7969 29.625 14.2031 40 23.5 40
C25.2031 40 30.0938 40 33.4062 33.125
C35.2031 29.2188 35.2031 25.1406 35.2031 20.1406
C35.2031 14.75 35.2031 10.7812 33.0938 6.78125
C30.9062 2.67188 27.7031 0.390625 23.0938 0.390625" id="CMR17-54"/>
      </defs>
      <g transform="translate(33.5365886495 204.45449838)scale(0.1 -0.1)">
       <use transform="scale(0.9962640099626402)" xlink:href="#CMSY10-0"/>
       <use transform="translate(77.4874676506071 0.0)scale(0.9962640099626402)" xlink:href="#CMR17-48"/>
       <use transform="translate(123.17794476766814 0.0)scale(0.9962640099626402)" xlink:href="#CMMI12-58"/>
       <use transform="translate(150.27512185748756 0.0)scale(0.9962640099626402)" xlink:href="#CMR17-54"/>
      </g>
     </g>
    </g>
    <g id="xtick_2">
     <g id="line2d_24">
      <defs>
       <path d="
M0 0
L0 -4" id="mc7db9fdffb" style="stroke:#000000;stroke-width:0.5;"/>
      </defs>
      <g>
       <use style="stroke:#000000;stroke-width:0.5;" x="71.04" xlink:href="#mc7db9fdffb" y="193.536"/>
      </g>
     </g>
     <g id="line2d_25">
      <defs>
       <path d="
M0 0
L0 4" id="m5a7d422ac3" style="stroke:#000000;stroke-width:0.5;"/>
      </defs>
      <g>
       <use style="stroke:#000000;stroke-width:0.5;" x="71.04" xlink:href="#m5a7d422ac3" y="23.04"/>
      </g>
     </g>
     <g id="text_2">
      <!-- $-0.5$ -->
      <defs>
       <path d="
M11.4062 57.6875
C12.4062 57.2812 16.5 56 20.7031 56
C30 56 35.0938 61.0156 38 63.9219
C38 64.7344 38 65.25 37.4062 65.25
C37.2969 65.25 37.0938 65.25 36.2969 64.8281
C32.7969 63.3125 28.7031 62.0781 23.7031 62.0781
C20.7031 62.0781 16.2031 62.5 11.2969 64.7344
C10.2031 65.25 10 65.25 9.90625 65.25
C9.40625 65.25 9.29688 65.1406 9.29688 63.1562
L9.29688 34.2812
C9.29688 32.5 9.29688 32 10.2969 32
C10.7969 32 11 32.2031 11.5 32.9062
C14.7031 37.4844 19.0938 39.4062 24.0938 39.4062
C27.5938 39.4062 35.0938 37.2188 35.0938 20.1406
C35.0938 16.9531 35.0938 11.1719 32.0938 6.57812
C29.5938 2.48438 25.7031 0.390625 21.4062 0.390625
C14.7969 0.390625 8.09375 5 6.29688 12.7188
C6.70312 12.6094 7.5 12.4219 7.90625 12.4219
C9.20312 12.4219 11.7031 13.125 11.7031 16.2188
C11.7031 18.9062 9.79688 20 7.90625 20
C5.59375 20 4.09375 18.5938 4.09375 15.7969
C4.09375 7.09375 11 -2 21.5938 -2
C31.9062 -2 41.7031 6.875 41.7031 19.75
C41.7031 31.7188 33.9062 41 24.2031 41
C19.0938 41 14.7969 39.0938 11.4062 35.4531
z
" id="CMR17-53"/>
      </defs>
      <g transform="translate(60.8005886495 204.45449838)scale(0.1 -0.1)">
       <use transform="scale(0.9962640099626402)" xlink:href="#CMSY10-0"/>
       <use transform="translate(77.4874676506071 0.0)scale(0.9962640099626402)" xlink:href="#CMR17-48"/>
       <use transform="translate(123.17794476766814 0.0)scale(0.9962640099626402)" xlink:href="#CMMI12-58"/>
       <use transform="translate(150.27512185748756 0.0)scale(0.9962640099626402)" xlink:href="#CMR17-53"/>
      </g>
     </g>
    </g>
    <g id="xtick_3">
     <g id="line2d_26">
      <g>
       <use style="stroke:#000000;stroke-width:0.5;" x="98.304" xlink:href="#mc7db9fdffb" y="193.536"/>
      </g>
     </g>
     <g id="line2d_27">
      <g>
       <use style="stroke:#000000;stroke-width:0.5;" x="98.304" xlink:href="#m5a7d422ac3" y="23.04"/>
      </g>
     </g>
     <g id="text_3">
      <!-- $-0.4$ -->
      <defs>
       <path d="
M33.5938 64.3281
C33.5938 66.4062 33.5 66.5 31.7031 66.5
L2 19.5938
L2 17
L27.7969 17
L27.7969 7.14062
C27.7969 3.5 27.5938 2.5 20.5938 2.5
L18.7031 2.5
L18.7031 0
C21.9062 0 27.2969 0 30.7031 0
C34.0938 0 39.5 0 42.7031 0
L42.7031 2.5
L40.7969 2.5
C33.7969 2.5 33.5938 3.5 33.5938 7.14062
L33.5938 17
L43.7969 17
L43.7969 19.5938
L33.5938 19.5938
z

M28.0938 57.7656
L28.0938 19.5938
L4 19.5938
z
" id="CMR17-52"/>
      </defs>
      <g transform="translate(88.0645886495 204.45449838)scale(0.1 -0.1)">
       <use transform="scale(0.9962640099626402)" xlink:href="#CMSY10-0"/>
       <use transform="translate(77.4874676506071 0.0)scale(0.9962640099626402)" xlink:href="#CMR17-48"/>
       <use transform="translate(123.17794476766814 0.0)scale(0.9962640099626402)" xlink:href="#CMMI12-58"/>
       <use transform="translate(150.27512185748756 0.0)scale(0.9962640099626402)" xlink:href="#CMR17-52"/>
      </g>
     </g>
    </g>
    <g id="xtick_4">
     <g id="line2d_28">
      <g>
       <use style="stroke:#000000;stroke-width:0.5;" x="125.568" xlink:href="#mc7db9fdffb" y="193.536"/>
      </g>
     </g>
     <g id="line2d_29">
      <g>
       <use style="stroke:#000000;stroke-width:0.5;" x="125.568" xlink:href="#m5a7d422ac3" y="23.04"/>
      </g>
     </g>
     <g id="text_4">
      <!-- $-0.3$ -->
      <defs>
       <path d="
M22.0938 33.7031
C31 33.7031 34.9062 25.9688 34.9062 17.0312
C34.9062 5 28.5 0.390625 22.7031 0.390625
C17.4062 0.390625 8.79688 3.03125 6.09375 10.8281
C6.59375 10.625 7.09375 10.625 7.59375 10.625
C10 10.625 11.7969 12.2188 11.7969 14.8125
C11.7969 17.7031 9.59375 19 7.59375 19
C5.90625 19 3.29688 18.2031 3.29688 14.4688
C3.29688 5.23438 12.2969 -2 22.9062 -2
C34 -2 42.5 6.71875 42.5 16.9531
C42.5 26.6719 34.5 33.6875 25 34.7969
C32.5938 36.375 39.9062 43.0625 39.9062 52.0156
C39.9062 59.6875 32 65.2969 23 65.2969
C13.9062 65.2969 5.90625 59.8281 5.90625 52.0156
C5.90625 48.5938 8.5 48 9.79688 48
C11.9062 48 13.7031 49.2969 13.7031 51.8906
C13.7031 54.4688 11.9062 55.7656 9.79688 55.7656
C9.40625 55.7656 8.90625 55.7656 8.5 55.5625
C11.4062 61.8594 19.2969 63 22.7969 63
C26.2969 63 32.9062 61.3281 32.9062 51.875
C32.9062 49.1094 32.5 44.1875 29.0938 39.8438
C26.0938 36 22.7031 36 19.4062 35.5938
C18.9062 35.5938 16.5938 35.5938 16.2031 35.5938
C15.5 35.4844 15.0938 35.3906 15.0938 34.5938
C15.0938 33.8125 15.2031 33.7031 17.2031 33.7031
z
" id="CMR17-51"/>
      </defs>
      <g transform="translate(115.328588649 204.45449838)scale(0.1 -0.1)">
       <use transform="scale(0.9962640099626402)" xlink:href="#CMSY10-0"/>
       <use transform="translate(77.4874676506071 0.0)scale(0.9962640099626402)" xlink:href="#CMR17-48"/>
       <use transform="translate(123.17794476766814 0.0)scale(0.9962640099626402)" xlink:href="#CMMI12-58"/>
       <use transform="translate(150.27512185748756 0.0)scale(0.9962640099626402)" xlink:href="#CMR17-51"/>
      </g>
     </g>
    </g>
    <g id="xtick_5">
     <g id="line2d_30">
      <g>
       <use style="stroke:#000000;stroke-width:0.5;" x="152.832" xlink:href="#mc7db9fdffb" y="193.536"/>
      </g>
     </g>
     <g id="line2d_31">
      <g>
       <use style="stroke:#000000;stroke-width:0.5;" x="152.832" xlink:href="#m5a7d422ac3" y="23.04"/>
      </g>
     </g>
     <g id="text_5">
      <!-- $-0.2$ -->
      <defs>
       <path d="
M41.7031 15.4531
L39.9062 15.4531
C38.9062 8.375 38.0938 7.17188 37.7031 6.5625
C37.2031 5.76562 30 5.76562 28.5938 5.76562
L9.40625 5.76562
C13 9.67188 20 16.75 28.5 24.9531
C34.5938 30.7344 41.7031 37.5312 41.7031 47.4219
C41.7031 59.2188 32.2969 66 21.7969 66
C10.7969 66 4.09375 56.3125 4.09375 47.3438
C4.09375 43.4375 7 42.9375 8.20312 42.9375
C9.20312 42.9375 12.2031 43.5469 12.2031 47.0312
C12.2031 50.1094 9.59375 51 8.20312 51
C7.59375 51 7 50.9062 6.59375 50.7031
C8.5 59.2188 14.2969 63.4062 20.4062 63.4062
C29.0938 63.4062 34.7969 56.5156 34.7969 47.4219
C34.7969 38.7344 29.7031 31.25 24 24.75
L4.09375 2.28125
L4.09375 0
L39.2969 0
z
" id="CMR17-50"/>
      </defs>
      <g transform="translate(142.592588649 204.45449838)scale(0.1 -0.1)">
       <use transform="scale(0.9962640099626402)" xlink:href="#CMSY10-0"/>
       <use transform="translate(77.4874676506071 0.0)scale(0.9962640099626402)" xlink:href="#CMR17-48"/>
       <use transform="translate(123.17794476766814 0.0)scale(0.9962640099626402)" xlink:href="#CMMI12-58"/>
       <use transform="translate(150.27512185748756 0.0)scale(0.9962640099626402)" xlink:href="#CMR17-50"/>
      </g>
     </g>
    </g>
    <g id="xtick_6">
     <g id="line2d_32">
      <g>
       <use style="stroke:#000000;stroke-width:0.5;" x="180.096" xlink:href="#mc7db9fdffb" y="193.536"/>
      </g>
     </g>
     <g id="line2d_33">
      <g>
       <use style="stroke:#000000;stroke-width:0.5;" x="180.096" xlink:href="#m5a7d422ac3" y="23.04"/>
      </g>
     </g>
     <g id="text_6">
      <!-- $-0.1$ -->
      <defs>
       <path d="
M26.5938 63.3125
C26.5938 65.4062 26.5 65.5 25.0938 65.5
C21.2031 61.1875 15.2969 59.7969 9.70312 59.7969
C9.40625 59.7969 8.90625 59.7969 8.79688 59.6094
C8.70312 59.3906 8.70312 59.1719 8.70312 57
C11.7969 57 17 57.5938 21 59.9844
L21 7.20312
C21 3.6875 20.7969 2.5 12.2031 2.5
L9.20312 2.5
L9.20312 0
C14 0 19 0 23.7969 0
C28.5938 0 33.5938 0 38.4062 0
L38.4062 2.5
L35.4062 2.5
C26.7969 2.5 26.5938 3.59375 26.5938 7.15625
z
" id="CMR17-49"/>
      </defs>
      <g transform="translate(169.856588649 204.45449838)scale(0.1 -0.1)">
       <use transform="scale(0.9962640099626402)" xlink:href="#CMSY10-0"/>
       <use transform="translate(77.4874676506071 0.0)scale(0.9962640099626402)" xlink:href="#CMR17-48"/>
       <use transform="translate(123.17794476766814 0.0)scale(0.9962640099626402)" xlink:href="#CMMI12-58"/>
       <use transform="translate(150.27512185748756 0.0)scale(0.9962640099626402)" xlink:href="#CMR17-49"/>
      </g>
     </g>
    </g>
    <g id="xtick_7">
     <g id="line2d_34">
      <g>
       <use style="stroke:#000000;stroke-width:0.5;" x="207.36" xlink:href="#mc7db9fdffb" y="193.536"/>
      </g>
     </g>
     <g id="line2d_35">
      <g>
       <use style="stroke:#000000;stroke-width:0.5;" x="207.36" xlink:href="#m5a7d422ac3" y="23.04"/>
      </g>
     </g>
     <g id="text_7">
      <!-- $0.0$ -->
      <g transform="translate(200.994960512 204.45449838)scale(0.1 -0.1)">
       <use transform="scale(0.9962640099626402)" xlink:href="#CMR17-48"/>
       <use transform="translate(45.69047711706103 0.0)scale(0.9962640099626402)" xlink:href="#CMMI12-58"/>
       <use transform="translate(72.78765420688046 0.0)scale(0.9962640099626402)" xlink:href="#CMR17-48"/>
      </g>
     </g>
    </g>
    <g id="text_8">
     <!-- $[{\rm m}/{\rm H}]$ -->
     <defs>
      <path d="
M14.2969 74.4844
L1.40625 74.4844
L1.40625 71
L10.7969 71
L10.7969 -21.5156
L1.40625 -21.5156
L1.40625 -25
L14.2969 -25
z
" id="CMR17-93"/>
      <path d="
M56.0938 61.0156
C56.0938 65.5 57.2031 65.5 64.0938 65.5
L64.0938 68
C61.2031 68 55.9062 68 52.7969 68
C49.7031 68 44.4062 68 41.5 68
L41.5 65.5
C48.4062 65.5 49.5 65.5 49.5 61
L49.5 36.5781
L19.7031 36.5781
L19.7031 61
C19.7031 65.5 20.7969 65.5 27.7031 65.5
L27.7031 68
C24.7969 68 19.5 68 16.4062 68
C13.2969 68 8 68 5.09375 68
L5.09375 65.5
C12 65.5 13.0938 65.5 13.0938 61.0156
L13.0938 6.98438
C13.0938 2.5 12 2.5 5.09375 2.5
L5.09375 0
C8 0 13.2969 0 16.4062 0
C19.5 0 24.7969 0 27.7031 0
L27.7031 2.5
C20.7969 2.5 19.7031 2.5 19.7031 6.96875
L19.7031 34
L49.5 34
L49.5 6.96875
C49.5 2.5 48.4062 2.5 41.5 2.5
L41.5 0
C44.4062 0 49.7031 0 52.7969 0
C55.9062 0 61.2031 0 64.0938 0
L64.0938 2.5
C57.2031 2.5 56.0938 2.5 56.0938 6.98438
z
" id="CMR17-72"/>
      <path d="
M23.5 -25
L23.5 -21.5156
L14.0938 -21.5156
L14.0938 71
L23.5 71
L23.5 74.4844
L10.5938 74.4844
L10.5938 -25
z
" id="CMR17-91"/>
      <path d="
M67.5938 30.2031
C67.5938 35.1875 66.7031 43.5938 54.7969 43.5938
C48 43.5938 43.2969 39 41.5 33.5938
L41.4062 33.5938
C40.2031 41.7969 34.2969 43.5938 28.7031 43.5938
C20.7969 43.5938 16.7031 37.5625 15.2031 33.5938
L15.0938 33.5938
L15.0938 43.5938
L3.29688 42.5
L3.29688 39.9062
C9.20312 39.9062 10.0938 39.2969 10.0938 34.5
L10.0938 6.6875
C10.0938 2.875 9.70312 2.39062 3.29688 2.39062
L3.29688 -0.203125
C5.70312 0 10.0938 0 12.7031 0
C15.2969 0 19.7969 0 22.2031 -0.203125
L22.2031 2.39062
C15.7969 2.39062 15.4062 2.78125 15.4062 6.6875
L15.4062 25.9062
C15.4062 35.1094 21 42 28 42
C35.4062 42 36.2031 35.4062 36.2031 30.5938
L36.2031 6.6875
C36.2031 2.875 35.7969 2.39062 29.4062 2.39062
L29.4062 -0.203125
C31.7969 0 36.2031 0 38.7969 0
C41.4062 0 45.9062 0 48.2969 -0.203125
L48.2969 2.39062
C41.9062 2.39062 41.5 2.78125 41.5 6.6875
L41.5 25.9062
C41.5 35.1094 47.0938 42 54.0938 42
C61.5 42 62.2969 35.4062 62.2969 30.5938
L62.2969 6.6875
C62.2969 2.875 61.9062 2.39062 55.5 2.39062
L55.5 -0.203125
C57.9062 0 62.2969 0 64.9062 0
C67.5 0 72 0 74.4062 -0.203125
L74.4062 2.39062
C68 2.39062 67.5938 2.78125 67.5938 6.6875
z
" id="CMR17-109"/>
      <path d="
M42.9062 71.2969
C42.9062 71.4062 43.5 72.9062 43.5 73.0938
C43.5 74.2969 42.5 75 41.7031 75
C41.2031 75 40.2969 75 39.5 72.7969
L6 -21.2969
C6 -21.4062 5.40625 -22.8906 5.40625 -23.0938
C5.40625 -24.2969 6.40625 -25 7.20312 -25
C7.79688 -25 8.70312 -24.8906 9.40625 -22.7969
z
" id="CMMI12-61"/>
     </defs>
     <g transform="translate(112.422813553 218.863656785)scale(0.1 -0.1)">
      <use transform="scale(0.9962640099626402)" xlink:href="#CMR17-91"/>
      <use transform="translate(24.871058481864885 0.0)scale(0.9962640099626402)" xlink:href="#CMR17-109"/>
      <use transform="translate(101.79064834993774 0.0)scale(0.9962640099626402)" xlink:href="#CMMI12-61"/>
      <use transform="translate(150.56556711161272 0.0)scale(0.9962640099626402)" xlink:href="#CMR17-72"/>
      <use transform="translate(219.6379969158624 0.0)scale(0.9962640099626402)" xlink:href="#CMR17-93"/>
     </g>
    </g>
   </g>
   <g id="matplotlib.axis_2">
    <g id="ytick_1">
     <g id="line2d_36">
      <defs>
       <path d="
M0 0
L4 0" id="md7965d1ba0" style="stroke:#000000;stroke-width:0.5;"/>
      </defs>
      <g>
       <use style="stroke:#000000;stroke-width:0.5;" x="43.776" xlink:href="#md7965d1ba0" y="170.019310345"/>
      </g>
     </g>
     <g id="line2d_37">
      <defs>
       <path d="
M0 0
L-4 0" id="md9a1c1a7cd" style="stroke:#000000;stroke-width:0.5;"/>
      </defs>
      <g>
       <use style="stroke:#000000;stroke-width:0.5;" x="207.36" xlink:href="#md9a1c1a7cd" y="170.019310345"/>
      </g>
     </g>
     <g id="text_9">
      <!-- 6100 -->
      <g transform="translate(19.8506589936 172.50997037)scale(0.1 -0.1)">
       <use transform="scale(0.9962640099626402)" xlink:href="#CMR17-54"/>
       <use transform="translate(45.69047711706103 0.0)scale(0.9962640099626402)" xlink:href="#CMR17-49"/>
       <use transform="translate(91.38095423412206 0.0)scale(0.9962640099626402)" xlink:href="#CMR17-48"/>
       <use transform="translate(137.07143135118307 0.0)scale(0.9962640099626402)" xlink:href="#CMR17-48"/>
      </g>
     </g>
    </g>
    <g id="ytick_2">
     <g id="line2d_38">
      <g>
       <use style="stroke:#000000;stroke-width:0.5;" x="43.776" xlink:href="#md7965d1ba0" y="140.623448276"/>
      </g>
     </g>
     <g id="line2d_39">
      <g>
       <use style="stroke:#000000;stroke-width:0.5;" x="207.36" xlink:href="#md9a1c1a7cd" y="140.623448276"/>
      </g>
     </g>
     <g id="text_10">
      <!-- 6200 -->
      <g transform="translate(19.8506589936 143.114108301)scale(0.1 -0.1)">
       <use transform="scale(0.9962640099626402)" xlink:href="#CMR17-54"/>
       <use transform="translate(45.69047711706103 0.0)scale(0.9962640099626402)" xlink:href="#CMR17-50"/>
       <use transform="translate(91.38095423412206 0.0)scale(0.9962640099626402)" xlink:href="#CMR17-48"/>
       <use transform="translate(137.07143135118307 0.0)scale(0.9962640099626402)" xlink:href="#CMR17-48"/>
      </g>
     </g>
    </g>
    <g id="ytick_3">
     <g id="line2d_40">
      <g>
       <use style="stroke:#000000;stroke-width:0.5;" x="43.776" xlink:href="#md7965d1ba0" y="111.227586207"/>
      </g>
     </g>
     <g id="line2d_41">
      <g>
       <use style="stroke:#000000;stroke-width:0.5;" x="207.36" xlink:href="#md9a1c1a7cd" y="111.227586207"/>
      </g>
     </g>
     <g id="text_11">
      <!-- 6300 -->
      <g transform="translate(19.8506589936 113.718246232)scale(0.1 -0.1)">
       <use transform="scale(0.9962640099626402)" xlink:href="#CMR17-54"/>
       <use transform="translate(45.69047711706103 0.0)scale(0.9962640099626402)" xlink:href="#CMR17-51"/>
       <use transform="translate(91.38095423412206 0.0)scale(0.9962640099626402)" xlink:href="#CMR17-48"/>
       <use transform="translate(137.07143135118307 0.0)scale(0.9962640099626402)" xlink:href="#CMR17-48"/>
      </g>
     </g>
    </g>
    <g id="ytick_4">
     <g id="line2d_42">
      <g>
       <use style="stroke:#000000;stroke-width:0.5;" x="43.776" xlink:href="#md7965d1ba0" y="81.8317241379"/>
      </g>
     </g>
     <g id="line2d_43">
      <g>
       <use style="stroke:#000000;stroke-width:0.5;" x="207.36" xlink:href="#md9a1c1a7cd" y="81.8317241379"/>
      </g>
     </g>
     <g id="text_12">
      <!-- 6400 -->
      <g transform="translate(19.8506589936 84.3223841628)scale(0.1 -0.1)">
       <use transform="scale(0.9962640099626402)" xlink:href="#CMR17-54"/>
       <use transform="translate(45.69047711706103 0.0)scale(0.9962640099626402)" xlink:href="#CMR17-52"/>
       <use transform="translate(91.38095423412206 0.0)scale(0.9962640099626402)" xlink:href="#CMR17-48"/>
       <use transform="translate(137.07143135118307 0.0)scale(0.9962640099626402)" xlink:href="#CMR17-48"/>
      </g>
     </g>
    </g>
    <g id="ytick_5">
     <g id="line2d_44">
      <g>
       <use style="stroke:#000000;stroke-width:0.5;" x="43.776" xlink:href="#md7965d1ba0" y="52.435862069"/>
      </g>
     </g>
     <g id="line2d_45">
      <g>
       <use style="stroke:#000000;stroke-width:0.5;" x="207.36" xlink:href="#md9a1c1a7cd" y="52.435862069"/>
      </g>
     </g>
     <g id="text_13">
      <!-- 6500 -->
      <g transform="translate(19.8506589936 54.9265220939)scale(0.1 -0.1)">
       <use transform="scale(0.9962640099626402)" xlink:href="#CMR17-54"/>
       <use transform="translate(45.69047711706103 0.0)scale(0.9962640099626402)" xlink:href="#CMR17-53"/>
       <use transform="translate(91.38095423412206 0.0)scale(0.9962640099626402)" xlink:href="#CMR17-48"/>
       <use transform="translate(137.07143135118307 0.0)scale(0.9962640099626402)" xlink:href="#CMR17-48"/>
      </g>
     </g>
    </g>
    <g id="ytick_6">
     <g id="line2d_46">
      <g>
       <use style="stroke:#000000;stroke-width:0.5;" x="43.776" xlink:href="#md7965d1ba0" y="23.04"/>
      </g>
     </g>
     <g id="line2d_47">
      <g>
       <use style="stroke:#000000;stroke-width:0.5;" x="207.36" xlink:href="#md9a1c1a7cd" y="23.04"/>
      </g>
     </g>
     <g id="text_14">
      <!-- 6600 -->
      <g transform="translate(19.8506589936 25.5306600249)scale(0.1 -0.1)">
       <use transform="scale(0.9962640099626402)" xlink:href="#CMR17-54"/>
       <use transform="translate(45.69047711706103 0.0)scale(0.9962640099626402)" xlink:href="#CMR17-54"/>
       <use transform="translate(91.38095423412206 0.0)scale(0.9962640099626402)" xlink:href="#CMR17-48"/>
       <use transform="translate(137.07143135118307 0.0)scale(0.9962640099626402)" xlink:href="#CMR17-48"/>
      </g>
     </g>
    </g>
    <g id="text_15">
     <!-- $T_{\rm eff}$ -->
     <defs>
      <path d="
M38.0938 23
C38.5 23.4062 38.5 23.6094 38.5 24.625
C38.5 34.9688 33.0938 44 21.7031 44
C11.0938 44 2.70312 33.8906 2.70312 21.6094
C2.70312 8.60938 12.2031 -1 22.7969 -1
C34 -1 38.4062 9.46875 38.4062 11.5469
C38.4062 12.25 37.7969 12.25 37.5938 12.25
C36.9062 12.25 36.7969 12.0469 36.4062 10.875
C34.2031 4.14062 28.7031 0.796875 23.5 0.796875
C19.2031 0.796875 14.9062 3.17188 12.2031 7.5
C9.09375 12.5469 9.09375 18.375 9.09375 23
z

M9.20312 24.5
C9.90625 39.1406 17.5938 42.4062 21.5938 42.4062
C28.4062 42.4062 33 35.8906 33.0938 24.5
z
" id="CMR17-101"/>
      <path d="
M39.9062 40
L51.2969 40
L51.2969 42.5781
L39.7031 42.5781
L39.7031 54.5938
C39.7031 62.8438 43.9062 68 48.2031 68
C49.5 68 51 67.6094 52 66.9062
C51.2031 66.7031 49.0938 66.0156 49.0938 63.5312
C49.0938 60.9531 51.0938 60.1562 52.5 60.1562
C53.9062 60.1562 55.9062 60.9531 55.9062 63.5469
C55.9062 67.3125 52.2969 69.5938 48.2969 69.5938
C44.4062 69.5938 41.2031 67.7031 38.7031 65.3281
C36.4062 68.5938 32.5938 69.5938 28.7031 69.5938
C20.9062 69.5938 9.90625 65.125 9.90625 54.2031
L9.90625 42.5781
L1.90625 42.5781
L1.90625 40
L9.90625 40
L9.90625 6.67188
C9.90625 2.875 9.5 2.39062 3.09375 2.39062
L3.09375 -0.203125
C5.5 0 9.90625 0 12.4062 0
C15 0 19.4062 0 21.7969 -0.203125
L21.7969 2.39062
C15.4062 2.39062 15 2.78125 15 6.67188
L15 40
L34.7969 40
L34.7969 6.67188
C34.7969 2.875 34.4062 2.39062 28 2.39062
L28 -0.203125
C30.4062 0 35 0 37.5938 0
C40.5 0 45.5938 0 48.2969 -0.203125
L48.2969 2.39062
C41.0938 2.39062 39.9062 2.39062 39.9062 6.85938
z

M14.7969 42.5781
L14.7969 54.2031
C14.7969 63.2344 21.7969 68 28.5 68
C30 68 33.9062 67.6875 36.2969 65.4219
C34.5 65.4219 32.7969 64.625 32.7969 62.1406
C32.7969 59.5625 35.0938 58.8594 35.2969 58.8594
C34.7969 57.0625 34.7969 55.0938 34.7969 54.3906
L34.7969 42.5781
z
" id="CMR17-11"/>
      <path d="
M41.7031 61.0938
C42.2969 63.5 42.5 64.3906 44 64.7969
C44.7969 65 48.0938 65 50.2031 65
C60.2031 65 64.9062 64.5938 64.9062 56.7812
C64.9062 55.2656 64.5 51.4688 63.9062 47.75
L63.7969 46.5625
C63.7969 46.1562 64.2031 45.5625 64.7969 45.5625
C65.7969 45.5625 65.7969 46.0625 66.0938 47.6562
L69 65.375
C69.2031 66.2969 69.2031 66.5 69.2031 66.7969
C69.2031 67.8906 68.5938 67.8906 66.5938 67.8906
L11.9062 67.8906
C9.59375 67.8906 9.5 67.7969 8.90625 66
L2.79688 47.9688
C2.70312 47.75 2.40625 46.6562 2.40625 46.5625
C2.40625 46.0625 2.79688 45.5625 3.40625 45.5625
C4.20312 45.5625 4.40625 45.9531 4.79688 47.25
C9 59.3906 11.0938 65 24.4062 65
L31.0938 65
C33.5 65 34.5 65 34.5 63.9062
C34.5 63.5938 34.5 63.4062 34 61.5938
L20.5938 7.79688
C19.5938 3.89062 19.4062 2.89062 8.79688 2.89062
C6.29688 2.89062 5.59375 2.89062 5.59375 1
C5.59375 0 6.70312 0 7.20312 0
C9.70312 0 12.2969 0 14.7969 0
L30.4062 0
C32.9062 0 35.5938 0 38.0938 0
C39.2031 0 40.2031 0 40.2031 1.89062
C40.2031 2.89062 39.5 2.89062 36.9062 2.89062
C27.9062 2.89062 27.9062 3.79688 27.9062 5.29688
C27.9062 5.40625 27.9062 6.10938 28.2969 7.70312
z
" id="CMMI12-84"/>
     </defs>
     <g transform="translate(12.9134806633 115.332779586)rotate(-90.0)scale(0.1 -0.1)">
      <use transform="translate(0.0 14.943914544092467)scale(0.9962640099626402)" xlink:href="#CMMI12-84"/>
      <use transform="translate(57.175043659519 0.0)scale(0.6973817666173724)" xlink:href="#CMR17-101"/>
      <use transform="translate(85.51487524809309 0.0)scale(0.6973817666173724)" xlink:href="#CMR17-11"/>
     </g>
    </g>
   </g>
   <g id="patch_6">
    <path d="
M43.776 193.536
L207.36 193.536" style="fill:none;stroke:#000000;"/>
   </g>
   <g id="patch_7">
    <path d="
M43.776 23.04
L207.36 23.04" style="fill:none;stroke:#000000;"/>
   </g>
   <g id="patch_8">
    <path d="
M43.776 193.536
L43.776 23.04" style="fill:none;stroke:#000000;"/>
   </g>
   <g id="patch_9">
    <path d="
M207.36 193.536
L207.36 23.04" style="fill:none;stroke:#000000;"/>
   </g>
   <g id="text_16">
    <!-- CfA -->
    <defs>
     <path d="
M15.2969 40
L26.7031 40
L26.7031 42.5781
L15.0938 42.5781
L15.0938 54.5938
C15.0938 62.8438 19.2969 68 23.5938 68
C24.9062 68 26.4062 67.6094 27.4062 66.9062
C26.5938 66.7031 24.5 66.0156 24.5 63.5312
C24.5 60.9531 26.5 60.1562 27.9062 60.1562
C29.2969 60.1562 31.2969 60.9531 31.2969 63.5469
C31.2969 67.3125 27.7031 69.5938 23.7031 69.5938
C18 69.5938 10.2031 64.9375 10.2031 54.3906
L10.2031 42.5781
L2.20312 42.5781
L2.20312 40
L10.2031 40
L10.2031 6.67188
C10.2031 2.875 9.79688 2.39062 3.40625 2.39062
L3.40625 -0.203125
C5.79688 0 10.4062 0 13 0
C15.9062 0 21 0 23.7031 -0.203125
L23.7031 2.39062
C16.5 2.39062 15.2969 2.39062 15.2969 6.85938
z
" id="CMR17-102"/>
     <path d="
M62.0938 67.1094
C62.0938 68.8906 62 69 61.4062 69
C61 69 60.9062 68.8906 60.2031 67.7031
L55.7969 59.3281
C50.9062 65.4531 44.9062 69 37.2031 69
C20.0938 69 4.59375 54 4.59375 33.5469
C4.59375 12.9062 20.0938 -2 37.2969 -2
C52.5938 -2 62.0938 11.4062 62.0938 22.8438
C62.0938 23.8281 62.0938 24.2344 61.2031 24.2344
C60.4062 24.2344 60.4062 23.9375 60.2969 23.0469
C59.5 9.14062 49.5 0.59375 38.7031 0.59375
C28.5 0.59375 12.2031 7.73438 12.2031 33.5938
C12.2031 59.5469 28.7969 66.5 38.5 66.5
C49.7969 66.5 58 56.75 59.9062 42.9219
C60.0938 41.7188 60.0938 41.5156 61 41.5156
C62.0938 41.5156 62.0938 41.7188 62.0938 43.5156
z
" id="CMR17-67"/>
     <path d="
M36.2969 68.4062
C35.7969 69.7031 35.5938 70 34.5938 70
C33.5938 70 33.4062 69.7031 32.9062 68.4062
L11.7031 8.84375
C9.79688 3.48438 5.79688 2.39062 2.29688 2.39062
L2.29688 -0.203125
C4.09375 0 8.09375 0 10 0
C12.5 0 16.5 0 18.9062 -0.203125
L18.9062 2.39062
C14.2031 2.39062 13.5 5.64062 13.5 6.85938
C13.5 7.76562 13.7031 8.28125 13.9062 8.89062
L19.2031 24
L45.4062 24
L51.4062 6.90625
C51.9062 5.70312 51.9062 5.5 51.9062 5.10938
C51.9062 2.39062 47.5938 2.39062 45.7031 2.39062
L45.7031 0
C48.5938 0 53.7969 0 56.9062 0
C59.5 0 64.5 0 66.9062 -0.203125
L66.9062 2.39062
C61.5938 2.39062 59.7969 2.39062 58.5 6.04688
z

M32.2969 60.5312
L44.5 26.5938
L20.0938 26.5938
z
" id="CMR17-65"/>
    </defs>
    <g transform="translate(103.7568 52.435862069)scale(0.1 -0.1)">
     <use transform="scale(0.9962640099626402)" xlink:href="#CMR17-67"/>
     <use transform="translate(66.50988055047479 0.0)scale(0.9962640099626402)" xlink:href="#CMR17-102"/>
     <use transform="translate(93.98339296485835 0.0)scale(0.9962640099626402)" xlink:href="#CMR17-65"/>
    </g>
   </g>
   <g id="text_17">
    <!-- PHOENIX -->
    <defs>
     <path d="
M60.7031 25.0781
L58.9062 25.0781
C56.7031 10.5156 55.4062 2.59375 37.7969 2.59375
L23.9062 2.59375
C19.9062 2.59375 19.7031 3.07812 19.7031 6.46875
L19.7031 34
L29.0938 34
C38.5 34 39.4062 30.5625 39.4062 22.125
L41.2031 22.125
L41.2031 48
L39.4062 48
C39.4062 39.9219 38.5 36.5938 29.0938 36.5938
L19.7031 36.5938
L19.7031 61.1406
C19.7031 64.5 19.9062 65 23.9062 65
L37.5938 65
C53.0938 65 54.9062 58.8594 56.2969 45.6562
L58.0938 45.6562
L55.7031 67.5781
L5.09375 67.5781
L5.09375 65
C12 65 13.0938 65 13.0938 60.5312
L13.0938 7.04688
C13.0938 2.59375 12 2.59375 5.09375 2.59375
L5.09375 0
L57.0938 0
z
" id="CMR17-69"/>
     <path d="
M20.5 66.4062
C19.7969 67.5 19.7031 67.5938 17.7969 67.5938
L5.09375 67.5938
L5.09375 65
L7 65
C11 65 12.7969 64.5156 13.0938 64.4062
L13.0938 9.53125
C13.0938 7.04688 13.0938 2.39062 5.09375 2.39062
L5.09375 -0.203125
C7.40625 0 11.5938 0 14.0938 0
C16.5938 0 20.7969 0 23.0938 -0.203125
L23.0938 2.39062
C15.0938 2.39062 15.0938 7.04688 15.0938 9.53125
L15.0938 63.0156
C15.7969 62.4219 15.7969 62.2188 16.5 61.2344
L53.5938 1.1875
C54.2969 0 54.5938 0 55.0938 0
C56.0938 0 56.0938 0.296875 56.0938 2.17188
L56.0938 57.8906
C56.0938 60.3594 56.0938 65 64.0938 65
L64.0938 67.5938
C61.7969 67.5938 57.5938 67.5938 55.0938 67.5938
C52.5938 67.5938 48.4062 67.5938 46.0938 67.5938
L46.0938 65
C54.0938 65 54.0938 60.3438 54.0938 57.8594
L54.0938 11.9219
z
" id="CMR17-78"/>
     <path d="
M67.2969 33.3594
C67.2969 53.7031 52.5938 69 36 69
C19 69 4.59375 53.5 4.59375 33.3594
C4.59375 13.2031 19.2031 -2 35.9062 -2
C53 -2 67.2969 13.5 67.2969 33.3594
M36 -0.203125
C24.5938 -0.203125 12.2031 11.1094 12.2031 34.6406
C12.2031 58.0625 25.7969 67.2031 35.9062 67.2031
C46.5 67.2031 59.7031 57.7812 59.7031 34.6406
C59.7031 10.7188 47 -0.203125 36 -0.203125" id="CMR17-79"/>
     <path d="
M19.7031 61.0156
C19.7031 65.5 20.9062 65.5 28.0938 65.5
L28.0938 68
C24.9062 68 19.7969 68 16.4062 68
C13 68 7.90625 68 4.70312 68
L4.70312 65.5
C11.9062 65.5 13.0938 65.5 13.0938 61.0156
L13.0938 6.98438
C13.0938 2.5 11.9062 2.5 4.70312 2.5
L4.70312 0
C7.90625 0 13 0 16.4062 0
C19.7969 0 24.9062 0 28.0938 0
L28.0938 2.5
C20.9062 2.5 19.7031 2.5 19.7031 6.98438
z
" id="CMR17-73"/>
     <path d="
M19.7969 31.9062
L35.7969 31.9062
C48.7031 31.9062 58.0938 40.2812 58.0938 49.75
C58.0938 59.2344 48.9062 68 35.7969 68
L5.20312 68
L5.20312 65.4062
C12.0938 65.4062 13.2031 65.4062 13.2031 60.9375
L13.2031 6.96875
C13.2031 2.5 12.0938 2.5 5.20312 2.5
L5.20312 0
C8.09375 0 13.4062 0 16.5 0
C19.5938 0 24.9062 0 27.7969 0
L27.7969 2.5
C20.9062 2.5 19.7969 2.5 19.7969 6.96875
z

M19.5938 34
L19.5938 61.5312
C19.5938 64.9219 19.7969 65.4062 23.7969 65.4062
L33.9062 65.4062
C46.7969 65.4062 50.5 58.0312 50.5 49.75
C50.5 40.6875 46.0938 34 33.9062 34
z
" id="CMR17-80"/>
     <path d="
M36.5 37.4688
L51.2969 58.6406
C52.7969 60.7188 55.7969 65 64 65
L64 67.6875
C61.7031 67.4844 57.9062 67.4844 55.5 67.4844
C52.2031 67.4844 48.0938 67.4844 45.5938 67.6875
L45.5938 65.0938
C48.7969 64.7969 49.5938 62.8125 49.5938 61.2188
C49.5938 60.0469 49.0938 59.25 48.4062 58.25
L35.2031 39.2656
L20.4062 60.7188
C19.7031 61.8125 19.5938 62.1094 19.5938 62.4062
C19.5938 63.3125 20.7031 65 24 65
L24 67.4844
C20.7969 67.4844 15.9062 67.4844 12.5938 67.4844
C10 67.4844 5 67.4844 2.59375 67.6875
L2.59375 65
C8.09375 65 9.90625 64.8125 12.0938 61.7344
L31.4062 33.7969
L14 8.57812
C9.70312 2.39062 3.20312 2.39062 1.29688 2.39062
L1.29688 -0.203125
C3.59375 0 7.40625 0 9.79688 0
C12.5 0 17.2031 0 19.7031 -0.203125
L19.7031 2.39062
C16.5938 2.6875 15.7031 4.67188 15.7031 6.26562
C15.7031 7.54688 16.2031 8.25 16.7031 8.9375
L32.7031 32
L50.0938 6.59375
C50.9062 5.5 50.9062 5.20312 50.9062 4.90625
C50.9062 4.10938 50 2.39062 46.5 2.39062
L46.5 0
C49.7031 0 54.5938 0 57.9062 0
C60.5 0 65.5 0 67.9062 -0.203125
L67.9062 2.39062
C61.5 2.39062 60.5 2.875 58.5 5.67188
z
" id="CMR17-88"/>
    </defs>
    <g transform="translate(57.408 96.5296551724)scale(0.1 -0.1)">
     <use transform="scale(0.9962640099626402)" xlink:href="#CMR17-80"/>
     <use transform="translate(62.586300518563206 0.0)scale(0.9962640099626402)" xlink:href="#CMR17-72"/>
     <use transform="translate(131.65873032281291 0.0)scale(0.9962640099626402)" xlink:href="#CMR17-79"/>
     <use transform="translate(203.37351873832506 0.0)scale(0.9962640099626402)" xlink:href="#CMR17-69"/>
     <use transform="translate(265.95981925688824 0.0)scale(0.9962640099626402)" xlink:href="#CMR17-78"/>
     <use transform="translate(335.032249061138 0.0)scale(0.9962640099626402)" xlink:href="#CMR17-73"/>
     <use transform="translate(367.67065824933843 0.0)scale(0.9962640099626402)" xlink:href="#CMR17-88"/>
    </g>
   </g>
   <g id="text_18">
    <!-- SPC -->
    <defs>
     <path d="
M43.7969 68.1094
C43.7969 69.8906 43.7031 70 43.0938 70
C42.5 70 42.2969 69.5938 41.9062 68.7031
L38.9062 62.125
C35.0938 67.5469 29.2969 70 23 70
C12.7969 70 4.59375 61.9531 4.59375 51.7969
C4.59375 48.7344 5.29688 44.3438 8.70312 40.1719
C12.4062 35.6094 15.9062 34.8125 23.9062 32.7188
C26.9062 31.9219 31.9062 30.625 32.9062 30.2344
C38.5938 27.8438 41.5938 21.8906 41.5938 16.3125
C41.5938 9.14062 36.5 1.5 27.7969 1.5
C17.0938 1.5 7.09375 7.46875 6.40625 21.4062
C6.29688 23 6.20312 23.0938 5.5 23.0938
C4.70312 23.0938 4.59375 23 4.59375 21
L4.59375 0.890625
C4.59375 -0.890625 4.70312 -1 5.29688 -1
C6 -1 6.20312 -0.5 7.59375 2.59375
C7.70312 2.89062 7.70312 3.09375 9.59375 6.875
C14.5938 0.375 23 -1 27.7969 -1
C38.7031 -1 46.4062 8.04688 46.4062 18.5781
C46.4062 23.7344 44.5 27.7031 43.4062 29.5
C39.2031 35.8594 34.7031 37.0469 29.9062 38.2344
C29.2031 38.5469 29 38.5469 23.4062 39.9375
C18 41.3281 15.7031 42.0312 13.2031 44.7188
C10.4062 47.7969 9.40625 50.9844 9.40625 54.1719
C9.40625 60.6406 14.5938 67.7031 23.0938 67.7031
C33.7031 67.7031 40.2969 60.2344 41.7969 47.7969
C42.0938 46 42.2031 45.9062 42.9062 45.9062
C43.7969 45.9062 43.7969 46.2031 43.7969 47.8906
z
" id="CMR17-83"/>
    </defs>
    <g style="fill:#0000ff;" transform="translate(180.096 37.7379310345)scale(0.1 -0.1)">
     <use transform="scale(0.9962640099626402)" xlink:href="#CMR17-83"/>
     <use transform="translate(50.89536978031601 0.0)scale(0.9962640099626402)" xlink:href="#CMR17-80"/>
     <use transform="translate(113.48167029887921 0.0)scale(0.9962640099626402)" xlink:href="#CMR17-67"/>
    </g>
   </g>
   <g id="text_19">
    <!-- SME -->
    <defs>
     <path d="
M20.9062 66
C20.2969 67.5 20.2031 67.5938 18.0938 67.5938
L5.29688 67.5938
L5.29688 65
C12.2031 65 13.2969 65 13.2969 60.5469
L13.2969 9.53125
C13.2969 7.04688 13.2969 2.39062 5.29688 2.39062
L5.29688 -0.203125
C7.59375 0 11.7969 0 14.2969 0
C16.7969 0 21 0 23.2969 -0.203125
L23.2969 2.39062
C15.2969 2.39062 15.2969 7.04688 15.2969 9.53125
L15.2969 64.6094
L15.4062 64.6094
L38.9062 1.57812
C39.2969 0.59375 39.5 0 40.2969 0
C41.0938 0 41.2969 0.59375 41.7031 1.57812
L65.4062 65
L65.5 65
L65.5 6.84375
C65.5 2.39062 64.4062 2.39062 57.5 2.39062
L57.5 -0.203125
C60.2031 0 65.5938 0 68.5 0
C71.4062 0 76.9062 0 79.5938 -0.203125
L79.5938 2.39062
C72.7031 2.39062 71.5938 2.39062 71.5938 6.84375
L71.5938 60.5469
C71.5938 65 72.7031 65 79.5938 65
L79.5938 67.5938
L66.9062 67.5938
C64.7969 67.5938 64.7031 67.5 64.0938 66
L42.5 7.84375
z
" id="CMR17-77"/>
    </defs>
    <g style="fill:#bf00bf;" transform="translate(120.1152 81.8317241379)scale(0.1 -0.1)">
     <use transform="scale(0.9962640099626402)" xlink:href="#CMR17-83"/>
     <use transform="translate(50.89536978031601 0.0)scale(0.9962640099626402)" xlink:href="#CMR17-77"/>
     <use transform="translate(135.58231035472448 0.0)scale(0.9962640099626402)" xlink:href="#CMR17-69"/>
    </g>
   </g>
   <g id="text_20">
    <!-- MOOG -->
    <defs>
     <path d="
M62.0938 19.2656
C62.0938 23.0156 62.4062 23.5156 68.5938 23.5156
L68.5938 26.0938
C66.2031 26 60.7969 26 58.0938 26
C55.2969 26 47.5 26 43.7031 26
L43.7031 23.5156
L46.7031 23.5156
C55.2969 23.5156 55.5 22.4062 55.5 18.7656
L55.5 12.0938
C55.5 0.984375 42.5 0.984375 39.4062 0.984375
C29.0938 0.984375 12.2031 8 12.2031 33.7969
C12.2031 59.5781 28.7969 66.5 38.5 66.5
C49.7969 66.5 58 56.75 59.9062 42.9219
C60.0938 41.7188 60.0938 41.5156 61 41.5156
C62.0938 41.5156 62.0938 41.7188 62.0938 43.5156
L62.0938 67.1094
C62.0938 68.8906 62 69 61.4062 69
C61 69 60.9062 68.8906 60.2031 67.7031
L55.7969 59.3281
C50.9062 65.4531 44.9062 69 37.2031 69
C20.0938 69 4.59375 54 4.59375 33.5469
C4.59375 13.2031 19.7969 -2 37.4062 -2
C45.5 -2 53.4062 0.875 56.5 6.51562
C58.2031 2.46875 61 -0.3125 61.5 -0.3125
C62 -0.3125 62.0938 -0.203125 62.0938 1.5625
z
" id="CMR17-71"/>
    </defs>
    <g style="fill:#008000;" transform="translate(120.1152 170.019310345)scale(0.1 -0.1)">
     <use transform="scale(0.9962640099626402)" xlink:href="#CMR17-77"/>
     <use transform="translate(84.68694057440848 0.0)scale(0.9962640099626402)" xlink:href="#CMR17-79"/>
     <use transform="translate(156.40172898992063 0.0)scale(0.9962640099626402)" xlink:href="#CMR17-79"/>
     <use transform="translate(228.11651740543277 0.0)scale(0.9962640099626402)" xlink:href="#CMR17-71"/>
    </g>
   </g>
   <g id="text_21">
    <!-- AVG -->
    <defs>
     <path d="
M59 58.5156
C59.9062 60.7188 61.5 65 68.2031 65
L68.2031 67.6875
C65.9062 67.4844 63.2969 67.4844 60.7969 67.4844
C58.4062 67.4844 54.2969 67.4844 52 67.6875
L52 65
C57 65 57.2031 61.5 57.2031 60.9062
C57.2031 59.7969 56.9062 59.1094 56.5938 58.3125
L36.9062 6.96875
L16.2969 60.625
C16 61.3281 15.7969 61.8281 15.7969 62.3125
C15.7969 65 19.7969 65 21.9062 65
L21.9062 67.4844
C18.7031 67.4844 14 67.4844 10.7031 67.4844
C8.09375 67.4844 3.40625 67.4844 1 67.6875
L1 65
C6.79688 65 7.90625 64.6094 9.09375 61.4219
L32.9062 -0.40625
C33.4062 -1.79688 33.5 -2 34.5938 -2
C35.7031 -2 35.7969 -1.79688 36.2969 -0.40625
z
" id="CMR17-86"/>
    </defs>
    <g transform="translate(180.096 78.892137931)scale(0.1 -0.1)">
     <use transform="scale(0.9962640099626402)" xlink:href="#CMR17-65"/>
     <use transform="translate(58.66272048665162 0.0)scale(0.9962640099626402)" xlink:href="#CMR17-86"/>
     <use transform="translate(125.13269635838265 0.0)scale(0.9962640099626402)" xlink:href="#CMR17-71"/>
    </g>
   </g>
  </g>
 </g>
 <defs>
  <clipPath id="p92744531cd">
   <rect height="170.496" width="163.584" x="43.776" y="23.04"/>
  </clipPath>
 </defs>
</svg>
