<?xml version="1.0" encoding="utf-8" standalone="no"?>
<!DOCTYPE svg PUBLIC "-//W3C//DTD SVG 1.1//EN"
  "http://www.w3.org/Graphics/SVG/1.1/DTD/svg11.dtd">
<!-- Created with matplotlib (http://matplotlib.org/) -->
<svg height="252pt" version="1.1" viewBox="0 0 252 252" width="252pt" xmlns="http://www.w3.org/2000/svg" xmlns:xlink="http://www.w3.org/1999/xlink">
 <defs>
  <style type="text/css">
*{stroke-linecap:butt;stroke-linejoin:round;}
  </style>
 </defs>
 <g id="figure_1">
  <g id="patch_1">
   <path d="
M0 252
L252 252
L252 0
L0 0
z
" style="fill:#ffffff;"/>
  </g>
  <g id="axes_1">
   <g id="patch_2">
    <path d="
M37.8 211.68
L226.8 211.68
L226.8 25.2
L37.8 25.2
z
" style="fill:#ffffff;"/>
   </g>
   <g id="patch_3">
    <path clip-path="url(#p6ee0767660)" d="
M159.872 47.3112
C160.342 46.4281 160.675 45.581 160.799 44.9565
C160.923 44.3321 160.826 43.9812 160.532 43.9812
C160.237 43.9812 159.767 44.3321 159.226 44.9565
C158.686 45.581 158.118 46.4281 157.648 47.3112
C157.178 48.1943 156.845 49.0414 156.721 49.6659
C156.597 50.2903 156.694 50.6412 156.988 50.6412
C157.283 50.6412 157.753 50.2903 158.294 49.6659
C158.834 49.0414 159.402 48.1943 159.872 47.3112
z
" style="fill:none;stroke:#000000;"/>
   </g>
   <g id="patch_4">
    <path clip-path="url(#p6ee0767660)" d="
M130.467 101.657
C131.087 100.427 131.583 99.2484 131.846 98.3791
C132.108 97.5099 132.116 97.0214 131.867 97.0214
C131.618 97.0214 131.132 97.5099 130.518 98.3791
C129.903 99.2484 129.209 100.427 128.589 101.657
C127.969 102.886 127.473 104.065 127.21 104.934
C126.948 105.804 126.94 106.292 127.189 106.292
C127.438 106.292 127.924 105.804 128.538 104.934
C129.153 104.065 129.847 102.886 130.467 101.657
z
" style="fill:none;stroke:#000000;"/>
   </g>
   <g id="patch_5">
    <path clip-path="url(#p6ee0767660)" d="
M65.5386 189.036
C70.0203 183.808 73.786 178.793 76.0064 175.096
C78.2269 171.4 78.7207 169.322 77.3791 169.322
C76.0376 169.322 72.9702 171.4 68.8525 175.096
C64.7349 178.793 59.9031 183.808 55.4214 189.036
C50.9397 194.264 47.174 199.279 44.9536 202.976
C42.7331 206.672 42.2393 208.75 43.5809 208.75
C44.9224 208.75 47.9898 206.672 52.1075 202.976
C56.2251 199.279 61.0569 194.264 65.5386 189.036
z
" style="fill:none;stroke:#000000;"/>
   </g>
   <g id="LineCollection_1">
    <defs>
     <path d="
M161.28 -202.291
L201.6 -202.291" id="C0_0_9a8fb68c95"/>
     <path d="
M161.28 -192.168
L201.6 -192.168" id="C0_1_e1a090a79c"/>
     <path d="
M168.84 -202.025
L209.16 -202.025" id="C0_2_c703da609e"/>
     <path d="
M204.12 -199.361
L224.28 -199.361" id="C0_3_2ad85b3bb4"/>
     <path d="
M138.6 -186.84
L199.08 -186.84" id="C0_4_f5948cf093"/>
     <path d="
M115.92 -106.92
L166.32 -106.92" id="C0_5_0faa7311c0"/>
     <path d="
M173.88 -190.037
L214.2 -190.037" id="C0_6_4bc2ca19b9"/>
    </defs>
    <g clip-path="url(#p6ee0767660)">
     <use style="fill:none;stroke:#0000ff;" x="0.0" xlink:href="#C0_0_9a8fb68c95" y="252.0"/>
    </g>
    <g clip-path="url(#p6ee0767660)">
     <use style="fill:none;stroke:#0000ff;" x="0.0" xlink:href="#C0_1_e1a090a79c" y="252.0"/>
    </g>
    <g clip-path="url(#p6ee0767660)">
     <use style="fill:none;stroke:#0000ff;" x="0.0" xlink:href="#C0_2_c703da609e" y="252.0"/>
    </g>
    <g clip-path="url(#p6ee0767660)">
     <use style="fill:none;stroke:#0000ff;" x="0.0" xlink:href="#C0_3_2ad85b3bb4" y="252.0"/>
    </g>
    <g clip-path="url(#p6ee0767660)">
     <use style="fill:none;stroke:#0000ff;" x="0.0" xlink:href="#C0_4_f5948cf093" y="252.0"/>
    </g>
    <g clip-path="url(#p6ee0767660)">
     <use style="fill:none;stroke:#0000ff;" x="0.0" xlink:href="#C0_5_0faa7311c0" y="252.0"/>
    </g>
    <g clip-path="url(#p6ee0767660)">
     <use style="fill:none;stroke:#0000ff;" x="0.0" xlink:href="#C0_6_4bc2ca19b9" y="252.0"/>
    </g>
   </g>
   <g id="LineCollection_2">
    <defs>
     <path d="
M181.44 -188.971
L181.44 -215.611" id="C1_0_eaa71c78d2"/>
     <path d="
M181.44 -178.848
L181.44 -205.488" id="C1_1_78a16dfaf8"/>
     <path d="
M189 -188.705
L189 -215.345" id="C1_2_3ad4ddf1a1"/>
     <path d="
M214.2 -187.639
L214.2 -211.082" id="C1_3_90f382c342"/>
     <path d="
M168.84 -166.86
L168.84 -206.82" id="C1_4_12618cd1f2"/>
     <path d="
M141.12 -86.94
L141.12 -126.9" id="C1_5_7c6d99be59"/>
     <path d="
M194.04 -170.057
L194.04 -210.017" id="C1_6_6c28773afe"/>
    </defs>
    <g clip-path="url(#p6ee0767660)">
     <use style="fill:none;stroke:#0000ff;" x="0.0" xlink:href="#C1_0_eaa71c78d2" y="252.0"/>
    </g>
    <g clip-path="url(#p6ee0767660)">
     <use style="fill:none;stroke:#0000ff;" x="0.0" xlink:href="#C1_1_78a16dfaf8" y="252.0"/>
    </g>
    <g clip-path="url(#p6ee0767660)">
     <use style="fill:none;stroke:#0000ff;" x="0.0" xlink:href="#C1_2_3ad4ddf1a1" y="252.0"/>
    </g>
    <g clip-path="url(#p6ee0767660)">
     <use style="fill:none;stroke:#0000ff;" x="0.0" xlink:href="#C1_3_90f382c342" y="252.0"/>
    </g>
    <g clip-path="url(#p6ee0767660)">
     <use style="fill:none;stroke:#0000ff;" x="0.0" xlink:href="#C1_4_12618cd1f2" y="252.0"/>
    </g>
    <g clip-path="url(#p6ee0767660)">
     <use style="fill:none;stroke:#0000ff;" x="0.0" xlink:href="#C1_5_7c6d99be59" y="252.0"/>
    </g>
    <g clip-path="url(#p6ee0767660)">
     <use style="fill:none;stroke:#0000ff;" x="0.0" xlink:href="#C1_6_6c28773afe" y="252.0"/>
    </g>
   </g>
   <g id="line2d_1">
    <defs>
     <path d="
M0 3
L0 -3" id="m2bd262d54f" style="stroke:#0000ff;stroke-width:0.5;"/>
    </defs>
    <g clip-path="url(#p6ee0767660)">
     <use style="fill:#0000ff;stroke:#0000ff;stroke-width:0.5;" x="161.28" xlink:href="#m2bd262d54f" y="49.7088"/>
     <use style="fill:#0000ff;stroke:#0000ff;stroke-width:0.5;" x="161.28" xlink:href="#m2bd262d54f" y="59.832"/>
     <use style="fill:#0000ff;stroke:#0000ff;stroke-width:0.5;" x="168.84" xlink:href="#m2bd262d54f" y="49.9752"/>
     <use style="fill:#0000ff;stroke:#0000ff;stroke-width:0.5;" x="204.12" xlink:href="#m2bd262d54f" y="52.6392"/>
     <use style="fill:#0000ff;stroke:#0000ff;stroke-width:0.5;" x="138.6" xlink:href="#m2bd262d54f" y="65.16"/>
     <use style="fill:#0000ff;stroke:#0000ff;stroke-width:0.5;" x="115.92" xlink:href="#m2bd262d54f" y="145.08"/>
     <use style="fill:#0000ff;stroke:#0000ff;stroke-width:0.5;" x="173.88" xlink:href="#m2bd262d54f" y="61.9632"/>
    </g>
   </g>
   <g id="line2d_2">
    <g clip-path="url(#p6ee0767660)">
     <use style="fill:#0000ff;stroke:#0000ff;stroke-width:0.5;" x="201.6" xlink:href="#m2bd262d54f" y="49.7088"/>
     <use style="fill:#0000ff;stroke:#0000ff;stroke-width:0.5;" x="201.6" xlink:href="#m2bd262d54f" y="59.832"/>
     <use style="fill:#0000ff;stroke:#0000ff;stroke-width:0.5;" x="209.16" xlink:href="#m2bd262d54f" y="49.9752"/>
     <use style="fill:#0000ff;stroke:#0000ff;stroke-width:0.5;" x="224.28" xlink:href="#m2bd262d54f" y="52.6392"/>
     <use style="fill:#0000ff;stroke:#0000ff;stroke-width:0.5;" x="199.08" xlink:href="#m2bd262d54f" y="65.16"/>
     <use style="fill:#0000ff;stroke:#0000ff;stroke-width:0.5;" x="166.32" xlink:href="#m2bd262d54f" y="145.08"/>
     <use style="fill:#0000ff;stroke:#0000ff;stroke-width:0.5;" x="214.2" xlink:href="#m2bd262d54f" y="61.9632"/>
    </g>
   </g>
   <g id="line2d_3">
    <defs>
     <path d="
M3 1.83697e-16
L-3 -1.83697e-16" id="m4a5567e584" style="stroke:#0000ff;stroke-width:0.5;"/>
    </defs>
    <g clip-path="url(#p6ee0767660)">
     <use style="fill:#0000ff;stroke:#0000ff;stroke-width:0.5;" x="181.44" xlink:href="#m4a5567e584" y="63.0288"/>
     <use style="fill:#0000ff;stroke:#0000ff;stroke-width:0.5;" x="181.44" xlink:href="#m4a5567e584" y="73.152"/>
     <use style="fill:#0000ff;stroke:#0000ff;stroke-width:0.5;" x="189.0" xlink:href="#m4a5567e584" y="63.2952"/>
     <use style="fill:#0000ff;stroke:#0000ff;stroke-width:0.5;" x="214.2" xlink:href="#m4a5567e584" y="64.3608"/>
     <use style="fill:#0000ff;stroke:#0000ff;stroke-width:0.5;" x="168.84" xlink:href="#m4a5567e584" y="85.14"/>
     <use style="fill:#0000ff;stroke:#0000ff;stroke-width:0.5;" x="141.12" xlink:href="#m4a5567e584" y="165.06"/>
     <use style="fill:#0000ff;stroke:#0000ff;stroke-width:0.5;" x="194.04" xlink:href="#m4a5567e584" y="81.9432"/>
    </g>
   </g>
   <g id="line2d_4">
    <g clip-path="url(#p6ee0767660)">
     <use style="fill:#0000ff;stroke:#0000ff;stroke-width:0.5;" x="181.44" xlink:href="#m4a5567e584" y="36.3888"/>
     <use style="fill:#0000ff;stroke:#0000ff;stroke-width:0.5;" x="181.44" xlink:href="#m4a5567e584" y="46.512"/>
     <use style="fill:#0000ff;stroke:#0000ff;stroke-width:0.5;" x="189.0" xlink:href="#m4a5567e584" y="36.6552"/>
     <use style="fill:#0000ff;stroke:#0000ff;stroke-width:0.5;" x="214.2" xlink:href="#m4a5567e584" y="40.9176"/>
     <use style="fill:#0000ff;stroke:#0000ff;stroke-width:0.5;" x="168.84" xlink:href="#m4a5567e584" y="45.18"/>
     <use style="fill:#0000ff;stroke:#0000ff;stroke-width:0.5;" x="141.12" xlink:href="#m4a5567e584" y="125.1"/>
     <use style="fill:#0000ff;stroke:#0000ff;stroke-width:0.5;" x="194.04" xlink:href="#m4a5567e584" y="41.9832"/>
    </g>
   </g>
   <g id="line2d_5">
    <defs>
     <path d="
M0 2
C0.530406 2 1.03916 1.78927 1.41421 1.41421
C1.78927 1.03916 2 0.530406 2 0
C2 -0.530406 1.78927 -1.03916 1.41421 -1.41421
C1.03916 -1.78927 0.530406 -2 0 -2
C-0.530406 -2 -1.03916 -1.78927 -1.41421 -1.41421
C-1.78927 -1.03916 -2 -0.530406 -2 0
C-2 0.530406 -1.78927 1.03916 -1.41421 1.41421
C-1.03916 1.78927 -0.530406 2 0 2
z
" id="m439a49b87f" style="stroke:#000000;stroke-width:0.5;"/>
    </defs>
    <g clip-path="url(#p6ee0767660)">
     <use style="fill:#0000ff;stroke:#000000;stroke-width:0.5;" x="181.44" xlink:href="#m439a49b87f" y="49.7088"/>
     <use style="fill:#0000ff;stroke:#000000;stroke-width:0.5;" x="181.44" xlink:href="#m439a49b87f" y="59.832"/>
     <use style="fill:#0000ff;stroke:#000000;stroke-width:0.5;" x="189.0" xlink:href="#m439a49b87f" y="49.9752"/>
     <use style="fill:#0000ff;stroke:#000000;stroke-width:0.5;" x="214.2" xlink:href="#m439a49b87f" y="52.6392"/>
     <use style="fill:#0000ff;stroke:#000000;stroke-width:0.5;" x="168.84" xlink:href="#m439a49b87f" y="65.16"/>
     <use style="fill:#0000ff;stroke:#000000;stroke-width:0.5;" x="141.12" xlink:href="#m439a49b87f" y="145.08"/>
     <use style="fill:#0000ff;stroke:#000000;stroke-width:0.5;" x="194.04" xlink:href="#m439a49b87f" y="61.9632"/>
    </g>
   </g>
   <g id="line2d_6">
    <defs>
     <path d="
M0 2
C0.530406 2 1.03916 1.78927 1.41421 1.41421
C1.78927 1.03916 2 0.530406 2 0
C2 -0.530406 1.78927 -1.03916 1.41421 -1.41421
C1.03916 -1.78927 0.530406 -2 0 -2
C-0.530406 -2 -1.03916 -1.78927 -1.41421 -1.41421
C-1.78927 -1.03916 -2 -0.530406 -2 0
C-2 0.530406 -1.78927 1.03916 -1.41421 1.41421
C-1.03916 1.78927 -0.530406 2 0 2
z
" id="m408b856472" style="stroke:#000000;stroke-width:0.5;"/>
    </defs>
    <g clip-path="url(#p6ee0767660)">
     <use style="stroke:#000000;stroke-width:0.5;" x="158.76" xlink:href="#m408b856472" y="47.3112"/>
    </g>
   </g>
   <g id="line2d_7">
    <g clip-path="url(#p6ee0767660)">
     <use style="stroke:#000000;stroke-width:0.5;" x="129.528" xlink:href="#m408b856472" y="101.6568"/>
    </g>
   </g>
   <g id="line2d_8">
    <g clip-path="url(#p6ee0767660)">
     <use style="stroke:#000000;stroke-width:0.5;" x="60.48" xlink:href="#m408b856472" y="189.036"/>
    </g>
   </g>
   <g id="matplotlib.axis_1">
    <g id="xtick_1">
     <g id="line2d_9">
      <defs>
       <path d="
M0 0
L0 -4" id="mc7db9fdffb" style="stroke:#000000;stroke-width:0.5;"/>
      </defs>
      <g>
       <use style="stroke:#000000;stroke-width:0.5;" x="50.4" xlink:href="#mc7db9fdffb" y="211.68"/>
      </g>
     </g>
     <g id="line2d_10">
      <defs>
       <path d="
M0 0
L0 4" id="m5a7d422ac3" style="stroke:#000000;stroke-width:0.5;"/>
      </defs>
      <g>
       <use style="stroke:#000000;stroke-width:0.5;" x="50.4" xlink:href="#m5a7d422ac3" y="25.2"/>
      </g>
     </g>
     <g id="text_1">
      <!-- $-0.7$ -->
      <defs>
       <path d="
M18.4062 4.79688
C18.4062 7.6875 16 9.67188 13.5938 9.67188
C10.7031 9.67188 8.70312 7.28125 8.70312 4.89062
C8.70312 2 11.0938 0 13.5 0
C16.4062 0 18.4062 2.39062 18.4062 4.79688" id="CMMI12-58"/>
       <path d="
M45.0938 61.5781
L45.0938 63.7656
L21.5938 63.7656
C9.90625 63.7656 9.70312 65.0781 9.29688 67
L7.5 67
L4.59375 48.3438
L6.40625 48.3438
C6.70312 50.2344 7.40625 55.3125 8.59375 57.2031
C9.20312 58 16.5938 58 18.2969 58
L40.2969 58
L29.2031 41.5781
C21.7969 30.5312 16.7031 15.6094 16.7031 2.57812
C16.7031 1.39062 16.7031 -2 20.2969 -2
C23.9062 -2 23.9062 1.39062 23.9062 2.67188
L23.9062 7.26562
C23.9062 23.5625 26.7031 34.3125 31.2969 41.1875
z
" id="CMR17-55"/>
       <path d="
M42 31.6406
C42 37.75 41.9062 48.125 37.7031 56.1094
C34 63.1094 28.0938 65.5938 22.9062 65.5938
C18.0938 65.5938 12 63.4062 8.20312 56.2031
C4.20312 48.7188 3.79688 39.4375 3.79688 31.6406
C3.79688 25.9531 3.90625 17.2812 7 9.67188
C11.2969 -0.609375 19 -2 22.9062 -2
C27.5 -2 34.5 -0.109375 38.5938 9.375
C41.5938 16.2812 42 24.3594 42 31.6406
M22.9062 -0.40625
C16.5 -0.40625 12.7031 5.07812 11.2969 12.6875
C10.2031 18.5625 10.2031 27.1562 10.2031 32.75
C10.2031 40.4375 10.2031 46.8281 11.5 52.9219
C13.4062 61.3906 19 64 22.9062 64
C27 64 32.2969 61.2969 34.2031 53.125
C35.5 47.4375 35.5938 40.7344 35.5938 32.75
C35.5938 26.25 35.5938 18.2656 34.4062 12.375
C32.2969 1.48438 26.4062 -0.40625 22.9062 -0.40625" id="CMR17-48"/>
       <path d="
M65.9062 23
C67.5938 23 69.4062 23 69.4062 25
C69.4062 27 67.5938 27 65.9062 27
L11.7969 27
C10.0938 27 8.29688 27 8.29688 25
C8.29688 23 10.0938 23 11.7969 23
z
" id="CMSY10-0"/>
      </defs>
      <g transform="translate(40.1605886495 222.59849838)scale(0.1 -0.1)">
       <use transform="scale(0.9962640099626402)" xlink:href="#CMSY10-0"/>
       <use transform="translate(77.4874676506071 0.0)scale(0.9962640099626402)" xlink:href="#CMR17-48"/>
       <use transform="translate(123.17794476766814 0.0)scale(0.9962640099626402)" xlink:href="#CMMI12-58"/>
       <use transform="translate(150.27512185748756 0.0)scale(0.9962640099626402)" xlink:href="#CMR17-55"/>
      </g>
     </g>
    </g>
    <g id="xtick_2">
     <g id="line2d_11">
      <g>
       <use style="stroke:#000000;stroke-width:0.5;" x="75.6" xlink:href="#mc7db9fdffb" y="211.68"/>
      </g>
     </g>
     <g id="line2d_12">
      <g>
       <use style="stroke:#000000;stroke-width:0.5;" x="75.6" xlink:href="#m5a7d422ac3" y="25.2"/>
      </g>
     </g>
     <g id="text_2">
      <!-- $-0.6$ -->
      <defs>
       <path d="
M10.5938 34
C10.5938 57.6562 21.7969 63 28.2969 63
C30.4062 63 35.5 62.6406 37.5 59
C35.9062 59 32.9062 59 32.9062 55.5156
C32.9062 52.8281 35.0938 51.9219 36.5 51.9219
C37.4062 51.9219 40.0938 52.3125 40.0938 55.625
C40.0938 61.7812 35.0938 65.2969 28.2031 65.2969
C16.2969 65.2969 3.79688 52.9688 3.79688 31
C3.79688 3.95312 15.0938 -2 23.0938 -2
C32.7969 -2 42 6.67188 42 20.0469
C42 32.5156 33.9062 41.5938 23.7031 41.5938
C17.5938 41.5938 13.0938 37.6094 10.5938 30.625
z

M23.0938 0.390625
C10.7969 0.390625 10.7969 18.75 10.7969 22.4375
C10.7969 29.625 14.2031 40 23.5 40
C25.2031 40 30.0938 40 33.4062 33.125
C35.2031 29.2188 35.2031 25.1406 35.2031 20.1406
C35.2031 14.75 35.2031 10.7812 33.0938 6.78125
C30.9062 2.67188 27.7031 0.390625 23.0938 0.390625" id="CMR17-54"/>
      </defs>
      <g transform="translate(65.3605886495 222.59849838)scale(0.1 -0.1)">
       <use transform="scale(0.9962640099626402)" xlink:href="#CMSY10-0"/>
       <use transform="translate(77.4874676506071 0.0)scale(0.9962640099626402)" xlink:href="#CMR17-48"/>
       <use transform="translate(123.17794476766814 0.0)scale(0.9962640099626402)" xlink:href="#CMMI12-58"/>
       <use transform="translate(150.27512185748756 0.0)scale(0.9962640099626402)" xlink:href="#CMR17-54"/>
      </g>
     </g>
    </g>
    <g id="xtick_3">
     <g id="line2d_13">
      <g>
       <use style="stroke:#000000;stroke-width:0.5;" x="100.8" xlink:href="#mc7db9fdffb" y="211.68"/>
      </g>
     </g>
     <g id="line2d_14">
      <g>
       <use style="stroke:#000000;stroke-width:0.5;" x="100.8" xlink:href="#m5a7d422ac3" y="25.2"/>
      </g>
     </g>
     <g id="text_3">
      <!-- $-0.5$ -->
      <defs>
       <path d="
M11.4062 57.6875
C12.4062 57.2812 16.5 56 20.7031 56
C30 56 35.0938 61.0156 38 63.9219
C38 64.7344 38 65.25 37.4062 65.25
C37.2969 65.25 37.0938 65.25 36.2969 64.8281
C32.7969 63.3125 28.7031 62.0781 23.7031 62.0781
C20.7031 62.0781 16.2031 62.5 11.2969 64.7344
C10.2031 65.25 10 65.25 9.90625 65.25
C9.40625 65.25 9.29688 65.1406 9.29688 63.1562
L9.29688 34.2812
C9.29688 32.5 9.29688 32 10.2969 32
C10.7969 32 11 32.2031 11.5 32.9062
C14.7031 37.4844 19.0938 39.4062 24.0938 39.4062
C27.5938 39.4062 35.0938 37.2188 35.0938 20.1406
C35.0938 16.9531 35.0938 11.1719 32.0938 6.57812
C29.5938 2.48438 25.7031 0.390625 21.4062 0.390625
C14.7969 0.390625 8.09375 5 6.29688 12.7188
C6.70312 12.6094 7.5 12.4219 7.90625 12.4219
C9.20312 12.4219 11.7031 13.125 11.7031 16.2188
C11.7031 18.9062 9.79688 20 7.90625 20
C5.59375 20 4.09375 18.5938 4.09375 15.7969
C4.09375 7.09375 11 -2 21.5938 -2
C31.9062 -2 41.7031 6.875 41.7031 19.75
C41.7031 31.7188 33.9062 41 24.2031 41
C19.0938 41 14.7969 39.0938 11.4062 35.4531
z
" id="CMR17-53"/>
      </defs>
      <g transform="translate(90.5605886495 222.59849838)scale(0.1 -0.1)">
       <use transform="scale(0.9962640099626402)" xlink:href="#CMSY10-0"/>
       <use transform="translate(77.4874676506071 0.0)scale(0.9962640099626402)" xlink:href="#CMR17-48"/>
       <use transform="translate(123.17794476766814 0.0)scale(0.9962640099626402)" xlink:href="#CMMI12-58"/>
       <use transform="translate(150.27512185748756 0.0)scale(0.9962640099626402)" xlink:href="#CMR17-53"/>
      </g>
     </g>
    </g>
    <g id="xtick_4">
     <g id="line2d_15">
      <g>
       <use style="stroke:#000000;stroke-width:0.5;" x="126.0" xlink:href="#mc7db9fdffb" y="211.68"/>
      </g>
     </g>
     <g id="line2d_16">
      <g>
       <use style="stroke:#000000;stroke-width:0.5;" x="126.0" xlink:href="#m5a7d422ac3" y="25.2"/>
      </g>
     </g>
     <g id="text_4">
      <!-- $-0.4$ -->
      <defs>
       <path d="
M33.5938 64.3281
C33.5938 66.4062 33.5 66.5 31.7031 66.5
L2 19.5938
L2 17
L27.7969 17
L27.7969 7.14062
C27.7969 3.5 27.5938 2.5 20.5938 2.5
L18.7031 2.5
L18.7031 0
C21.9062 0 27.2969 0 30.7031 0
C34.0938 0 39.5 0 42.7031 0
L42.7031 2.5
L40.7969 2.5
C33.7969 2.5 33.5938 3.5 33.5938 7.14062
L33.5938 17
L43.7969 17
L43.7969 19.5938
L33.5938 19.5938
z

M28.0938 57.7656
L28.0938 19.5938
L4 19.5938
z
" id="CMR17-52"/>
      </defs>
      <g transform="translate(115.760588649 222.59849838)scale(0.1 -0.1)">
       <use transform="scale(0.9962640099626402)" xlink:href="#CMSY10-0"/>
       <use transform="translate(77.4874676506071 0.0)scale(0.9962640099626402)" xlink:href="#CMR17-48"/>
       <use transform="translate(123.17794476766814 0.0)scale(0.9962640099626402)" xlink:href="#CMMI12-58"/>
       <use transform="translate(150.27512185748756 0.0)scale(0.9962640099626402)" xlink:href="#CMR17-52"/>
      </g>
     </g>
    </g>
    <g id="xtick_5">
     <g id="line2d_17">
      <g>
       <use style="stroke:#000000;stroke-width:0.5;" x="151.2" xlink:href="#mc7db9fdffb" y="211.68"/>
      </g>
     </g>
     <g id="line2d_18">
      <g>
       <use style="stroke:#000000;stroke-width:0.5;" x="151.2" xlink:href="#m5a7d422ac3" y="25.2"/>
      </g>
     </g>
     <g id="text_5">
      <!-- $-0.3$ -->
      <defs>
       <path d="
M22.0938 33.7031
C31 33.7031 34.9062 25.9688 34.9062 17.0312
C34.9062 5 28.5 0.390625 22.7031 0.390625
C17.4062 0.390625 8.79688 3.03125 6.09375 10.8281
C6.59375 10.625 7.09375 10.625 7.59375 10.625
C10 10.625 11.7969 12.2188 11.7969 14.8125
C11.7969 17.7031 9.59375 19 7.59375 19
C5.90625 19 3.29688 18.2031 3.29688 14.4688
C3.29688 5.23438 12.2969 -2 22.9062 -2
C34 -2 42.5 6.71875 42.5 16.9531
C42.5 26.6719 34.5 33.6875 25 34.7969
C32.5938 36.375 39.9062 43.0625 39.9062 52.0156
C39.9062 59.6875 32 65.2969 23 65.2969
C13.9062 65.2969 5.90625 59.8281 5.90625 52.0156
C5.90625 48.5938 8.5 48 9.79688 48
C11.9062 48 13.7031 49.2969 13.7031 51.8906
C13.7031 54.4688 11.9062 55.7656 9.79688 55.7656
C9.40625 55.7656 8.90625 55.7656 8.5 55.5625
C11.4062 61.8594 19.2969 63 22.7969 63
C26.2969 63 32.9062 61.3281 32.9062 51.875
C32.9062 49.1094 32.5 44.1875 29.0938 39.8438
C26.0938 36 22.7031 36 19.4062 35.5938
C18.9062 35.5938 16.5938 35.5938 16.2031 35.5938
C15.5 35.4844 15.0938 35.3906 15.0938 34.5938
C15.0938 33.8125 15.2031 33.7031 17.2031 33.7031
z
" id="CMR17-51"/>
      </defs>
      <g transform="translate(140.960588649 222.59849838)scale(0.1 -0.1)">
       <use transform="scale(0.9962640099626402)" xlink:href="#CMSY10-0"/>
       <use transform="translate(77.4874676506071 0.0)scale(0.9962640099626402)" xlink:href="#CMR17-48"/>
       <use transform="translate(123.17794476766814 0.0)scale(0.9962640099626402)" xlink:href="#CMMI12-58"/>
       <use transform="translate(150.27512185748756 0.0)scale(0.9962640099626402)" xlink:href="#CMR17-51"/>
      </g>
     </g>
    </g>
    <g id="xtick_6">
     <g id="line2d_19">
      <g>
       <use style="stroke:#000000;stroke-width:0.5;" x="176.4" xlink:href="#mc7db9fdffb" y="211.68"/>
      </g>
     </g>
     <g id="line2d_20">
      <g>
       <use style="stroke:#000000;stroke-width:0.5;" x="176.4" xlink:href="#m5a7d422ac3" y="25.2"/>
      </g>
     </g>
     <g id="text_6">
      <!-- $-0.2$ -->
      <defs>
       <path d="
M41.7031 15.4531
L39.9062 15.4531
C38.9062 8.375 38.0938 7.17188 37.7031 6.5625
C37.2031 5.76562 30 5.76562 28.5938 5.76562
L9.40625 5.76562
C13 9.67188 20 16.75 28.5 24.9531
C34.5938 30.7344 41.7031 37.5312 41.7031 47.4219
C41.7031 59.2188 32.2969 66 21.7969 66
C10.7969 66 4.09375 56.3125 4.09375 47.3438
C4.09375 43.4375 7 42.9375 8.20312 42.9375
C9.20312 42.9375 12.2031 43.5469 12.2031 47.0312
C12.2031 50.1094 9.59375 51 8.20312 51
C7.59375 51 7 50.9062 6.59375 50.7031
C8.5 59.2188 14.2969 63.4062 20.4062 63.4062
C29.0938 63.4062 34.7969 56.5156 34.7969 47.4219
C34.7969 38.7344 29.7031 31.25 24 24.75
L4.09375 2.28125
L4.09375 0
L39.2969 0
z
" id="CMR17-50"/>
      </defs>
      <g transform="translate(166.160588649 222.59849838)scale(0.1 -0.1)">
       <use transform="scale(0.9962640099626402)" xlink:href="#CMSY10-0"/>
       <use transform="translate(77.4874676506071 0.0)scale(0.9962640099626402)" xlink:href="#CMR17-48"/>
       <use transform="translate(123.17794476766814 0.0)scale(0.9962640099626402)" xlink:href="#CMMI12-58"/>
       <use transform="translate(150.27512185748756 0.0)scale(0.9962640099626402)" xlink:href="#CMR17-50"/>
      </g>
     </g>
    </g>
    <g id="xtick_7">
     <g id="line2d_21">
      <g>
       <use style="stroke:#000000;stroke-width:0.5;" x="201.6" xlink:href="#mc7db9fdffb" y="211.68"/>
      </g>
     </g>
     <g id="line2d_22">
      <g>
       <use style="stroke:#000000;stroke-width:0.5;" x="201.6" xlink:href="#m5a7d422ac3" y="25.2"/>
      </g>
     </g>
     <g id="text_7">
      <!-- $-0.1$ -->
      <defs>
       <path d="
M26.5938 63.3125
C26.5938 65.4062 26.5 65.5 25.0938 65.5
C21.2031 61.1875 15.2969 59.7969 9.70312 59.7969
C9.40625 59.7969 8.90625 59.7969 8.79688 59.6094
C8.70312 59.3906 8.70312 59.1719 8.70312 57
C11.7969 57 17 57.5938 21 59.9844
L21 7.20312
C21 3.6875 20.7969 2.5 12.2031 2.5
L9.20312 2.5
L9.20312 0
C14 0 19 0 23.7969 0
C28.5938 0 33.5938 0 38.4062 0
L38.4062 2.5
L35.4062 2.5
C26.7969 2.5 26.5938 3.59375 26.5938 7.15625
z
" id="CMR17-49"/>
      </defs>
      <g transform="translate(191.360588649 222.59849838)scale(0.1 -0.1)">
       <use transform="scale(0.9962640099626402)" xlink:href="#CMSY10-0"/>
       <use transform="translate(77.4874676506071 0.0)scale(0.9962640099626402)" xlink:href="#CMR17-48"/>
       <use transform="translate(123.17794476766814 0.0)scale(0.9962640099626402)" xlink:href="#CMMI12-58"/>
       <use transform="translate(150.27512185748756 0.0)scale(0.9962640099626402)" xlink:href="#CMR17-49"/>
      </g>
     </g>
    </g>
    <g id="xtick_8">
     <g id="line2d_23">
      <g>
       <use style="stroke:#000000;stroke-width:0.5;" x="226.8" xlink:href="#mc7db9fdffb" y="211.68"/>
      </g>
     </g>
     <g id="line2d_24">
      <g>
       <use style="stroke:#000000;stroke-width:0.5;" x="226.8" xlink:href="#m5a7d422ac3" y="25.2"/>
      </g>
     </g>
     <g id="text_8">
      <!-- $0.0$ -->
      <g transform="translate(220.434960512 222.59849838)scale(0.1 -0.1)">
       <use transform="scale(0.9962640099626402)" xlink:href="#CMR17-48"/>
       <use transform="translate(45.69047711706103 0.0)scale(0.9962640099626402)" xlink:href="#CMMI12-58"/>
       <use transform="translate(72.78765420688046 0.0)scale(0.9962640099626402)" xlink:href="#CMR17-48"/>
      </g>
     </g>
    </g>
    <g id="text_9">
     <!-- $[{\rm m}/{\rm H}]$ -->
     <defs>
      <path d="
M67.5938 30.2031
C67.5938 35.1875 66.7031 43.5938 54.7969 43.5938
C48 43.5938 43.2969 39 41.5 33.5938
L41.4062 33.5938
C40.2031 41.7969 34.2969 43.5938 28.7031 43.5938
C20.7969 43.5938 16.7031 37.5625 15.2031 33.5938
L15.0938 33.5938
L15.0938 43.5938
L3.29688 42.5
L3.29688 39.9062
C9.20312 39.9062 10.0938 39.2969 10.0938 34.5
L10.0938 6.6875
C10.0938 2.875 9.70312 2.39062 3.29688 2.39062
L3.29688 -0.203125
C5.70312 0 10.0938 0 12.7031 0
C15.2969 0 19.7969 0 22.2031 -0.203125
L22.2031 2.39062
C15.7969 2.39062 15.4062 2.78125 15.4062 6.6875
L15.4062 25.9062
C15.4062 35.1094 21 42 28 42
C35.4062 42 36.2031 35.4062 36.2031 30.5938
L36.2031 6.6875
C36.2031 2.875 35.7969 2.39062 29.4062 2.39062
L29.4062 -0.203125
C31.7969 0 36.2031 0 38.7969 0
C41.4062 0 45.9062 0 48.2969 -0.203125
L48.2969 2.39062
C41.9062 2.39062 41.5 2.78125 41.5 6.6875
L41.5 25.9062
C41.5 35.1094 47.0938 42 54.0938 42
C61.5 42 62.2969 35.4062 62.2969 30.5938
L62.2969 6.6875
C62.2969 2.875 61.9062 2.39062 55.5 2.39062
L55.5 -0.203125
C57.9062 0 62.2969 0 64.9062 0
C67.5 0 72 0 74.4062 -0.203125
L74.4062 2.39062
C68 2.39062 67.5938 2.78125 67.5938 6.6875
z
" id="CMR17-109"/>
      <path d="
M56.0938 61.0156
C56.0938 65.5 57.2031 65.5 64.0938 65.5
L64.0938 68
C61.2031 68 55.9062 68 52.7969 68
C49.7031 68 44.4062 68 41.5 68
L41.5 65.5
C48.4062 65.5 49.5 65.5 49.5 61
L49.5 36.5781
L19.7031 36.5781
L19.7031 61
C19.7031 65.5 20.7969 65.5 27.7031 65.5
L27.7031 68
C24.7969 68 19.5 68 16.4062 68
C13.2969 68 8 68 5.09375 68
L5.09375 65.5
C12 65.5 13.0938 65.5 13.0938 61.0156
L13.0938 6.98438
C13.0938 2.5 12 2.5 5.09375 2.5
L5.09375 0
C8 0 13.2969 0 16.4062 0
C19.5 0 24.7969 0 27.7031 0
L27.7031 2.5
C20.7969 2.5 19.7031 2.5 19.7031 6.96875
L19.7031 34
L49.5 34
L49.5 6.96875
C49.5 2.5 48.4062 2.5 41.5 2.5
L41.5 0
C44.4062 0 49.7031 0 52.7969 0
C55.9062 0 61.2031 0 64.0938 0
L64.0938 2.5
C57.2031 2.5 56.0938 2.5 56.0938 6.98438
z
" id="CMR17-72"/>
      <path d="
M23.5 -25
L23.5 -21.5156
L14.0938 -21.5156
L14.0938 71
L23.5 71
L23.5 74.4844
L10.5938 74.4844
L10.5938 -25
z
" id="CMR17-91"/>
      <path d="
M42.9062 71.2969
C42.9062 71.4062 43.5 72.9062 43.5 73.0938
C43.5 74.2969 42.5 75 41.7031 75
C41.2031 75 40.2969 75 39.5 72.7969
L6 -21.2969
C6 -21.4062 5.40625 -22.8906 5.40625 -23.0938
C5.40625 -24.2969 6.40625 -25 7.20312 -25
C7.79688 -25 8.70312 -24.8906 9.40625 -22.7969
z
" id="CMMI12-61"/>
      <path d="
M14.2969 74.4844
L1.40625 74.4844
L1.40625 71
L10.7969 71
L10.7969 -21.5156
L1.40625 -21.5156
L1.40625 -25
L14.2969 -25
z
" id="CMR17-93"/>
     </defs>
     <g transform="translate(119.154813553 237.007656785)scale(0.1 -0.1)">
      <use transform="scale(0.9962640099626402)" xlink:href="#CMR17-91"/>
      <use transform="translate(24.871058481864885 0.0)scale(0.9962640099626402)" xlink:href="#CMR17-109"/>
      <use transform="translate(101.79064834993774 0.0)scale(0.9962640099626402)" xlink:href="#CMMI12-61"/>
      <use transform="translate(150.56556711161272 0.0)scale(0.9962640099626402)" xlink:href="#CMR17-72"/>
      <use transform="translate(219.6379969158624 0.0)scale(0.9962640099626402)" xlink:href="#CMR17-93"/>
     </g>
    </g>
   </g>
   <g id="matplotlib.axis_2">
    <g id="ytick_1">
     <g id="line2d_25">
      <defs>
       <path d="
M0 0
L4 0" id="md7965d1ba0" style="stroke:#000000;stroke-width:0.5;"/>
      </defs>
      <g>
       <use style="stroke:#000000;stroke-width:0.5;" x="37.8" xlink:href="#md7965d1ba0" y="211.68"/>
      </g>
     </g>
     <g id="line2d_26">
      <defs>
       <path d="
M0 0
L-4 0" id="md9a1c1a7cd" style="stroke:#000000;stroke-width:0.5;"/>
      </defs>
      <g>
       <use style="stroke:#000000;stroke-width:0.5;" x="226.8" xlink:href="#md9a1c1a7cd" y="211.68"/>
      </g>
     </g>
     <g id="text_10">
      <!-- $5.9$ -->
      <defs>
       <path d="
M35.2031 29.125
C35.2031 7.25 26.0938 0.484375 18.5938 0.484375
C16.2969 0.484375 10.7031 0.484375 8.40625 4.59375
C11 4.1875 12.9062 5.57812 12.9062 8.09375
C12.9062 10.8125 10.7031 11.7031 9.29688 11.7031
C8.40625 11.7031 5.70312 11.2969 5.70312 7.90625
C5.70312 1.10938 11.5938 -2 18.7969 -2
C30.2969 -2 42 10.5312 42 32.3906
C42 59.6406 30.7969 65.2969 23.2031 65.2969
C13.2969 65.2969 3.79688 56.6875 3.79688 43.4062
C3.79688 31.1094 11.9062 22 22.0938 22
C30.5 22 34.2031 29.7344 35.2031 33
z

M22.2969 23.5938
C19.5938 23.5938 15.7969 24.0938 12.7031 30.0312
C10.5938 33.8906 10.5938 38.4531 10.5938 43.2969
C10.5938 49.1562 10.5938 53.2031 13.4062 57.5625
C14.7969 59.6406 17.4062 63 23.2031 63
C35 63 35 45.0781 35 41.125
C35 34.0938 31.7969 23.5938 22.2969 23.5938" id="CMR17-57"/>
      </defs>
      <g transform="translate(21.0699210237 214.170660025)scale(0.1 -0.1)">
       <use transform="scale(0.9962640099626402)" xlink:href="#CMR17-53"/>
       <use transform="translate(45.69047711706103 0.0)scale(0.9962640099626402)" xlink:href="#CMMI12-58"/>
       <use transform="translate(72.78765420688046 0.0)scale(0.9962640099626402)" xlink:href="#CMR17-57"/>
      </g>
     </g>
    </g>
    <g id="ytick_2">
     <g id="line2d_27">
      <g>
       <use style="stroke:#000000;stroke-width:0.5;" x="37.8" xlink:href="#md7965d1ba0" y="185.04"/>
      </g>
     </g>
     <g id="line2d_28">
      <g>
       <use style="stroke:#000000;stroke-width:0.5;" x="226.8" xlink:href="#md9a1c1a7cd" y="185.04"/>
      </g>
     </g>
     <g id="text_11">
      <!-- $6.0$ -->
      <g transform="translate(21.0699210237 187.530660025)scale(0.1 -0.1)">
       <use transform="scale(0.9962640099626402)" xlink:href="#CMR17-54"/>
       <use transform="translate(45.69047711706103 0.0)scale(0.9962640099626402)" xlink:href="#CMMI12-58"/>
       <use transform="translate(72.78765420688046 0.0)scale(0.9962640099626402)" xlink:href="#CMR17-48"/>
      </g>
     </g>
    </g>
    <g id="ytick_3">
     <g id="line2d_29">
      <g>
       <use style="stroke:#000000;stroke-width:0.5;" x="37.8" xlink:href="#md7965d1ba0" y="158.4"/>
      </g>
     </g>
     <g id="line2d_30">
      <g>
       <use style="stroke:#000000;stroke-width:0.5;" x="226.8" xlink:href="#md9a1c1a7cd" y="158.4"/>
      </g>
     </g>
     <g id="text_12">
      <!-- $6.1$ -->
      <g transform="translate(21.0699210237 160.890660025)scale(0.1 -0.1)">
       <use transform="scale(0.9962640099626402)" xlink:href="#CMR17-54"/>
       <use transform="translate(45.69047711706103 0.0)scale(0.9962640099626402)" xlink:href="#CMMI12-58"/>
       <use transform="translate(72.78765420688046 0.0)scale(0.9962640099626402)" xlink:href="#CMR17-49"/>
      </g>
     </g>
    </g>
    <g id="ytick_4">
     <g id="line2d_31">
      <g>
       <use style="stroke:#000000;stroke-width:0.5;" x="37.8" xlink:href="#md7965d1ba0" y="131.76"/>
      </g>
     </g>
     <g id="line2d_32">
      <g>
       <use style="stroke:#000000;stroke-width:0.5;" x="226.8" xlink:href="#md9a1c1a7cd" y="131.76"/>
      </g>
     </g>
     <g id="text_13">
      <!-- $6.2$ -->
      <g transform="translate(21.0699210237 134.250660025)scale(0.1 -0.1)">
       <use transform="scale(0.9962640099626402)" xlink:href="#CMR17-54"/>
       <use transform="translate(45.69047711706103 0.0)scale(0.9962640099626402)" xlink:href="#CMMI12-58"/>
       <use transform="translate(72.78765420688046 0.0)scale(0.9962640099626402)" xlink:href="#CMR17-50"/>
      </g>
     </g>
    </g>
    <g id="ytick_5">
     <g id="line2d_33">
      <g>
       <use style="stroke:#000000;stroke-width:0.5;" x="37.8" xlink:href="#md7965d1ba0" y="105.12"/>
      </g>
     </g>
     <g id="line2d_34">
      <g>
       <use style="stroke:#000000;stroke-width:0.5;" x="226.8" xlink:href="#md9a1c1a7cd" y="105.12"/>
      </g>
     </g>
     <g id="text_14">
      <!-- $6.3$ -->
      <g transform="translate(21.0699210237 107.610660025)scale(0.1 -0.1)">
       <use transform="scale(0.9962640099626402)" xlink:href="#CMR17-54"/>
       <use transform="translate(45.69047711706103 0.0)scale(0.9962640099626402)" xlink:href="#CMMI12-58"/>
       <use transform="translate(72.78765420688046 0.0)scale(0.9962640099626402)" xlink:href="#CMR17-51"/>
      </g>
     </g>
    </g>
    <g id="ytick_6">
     <g id="line2d_35">
      <g>
       <use style="stroke:#000000;stroke-width:0.5;" x="37.8" xlink:href="#md7965d1ba0" y="78.48"/>
      </g>
     </g>
     <g id="line2d_36">
      <g>
       <use style="stroke:#000000;stroke-width:0.5;" x="226.8" xlink:href="#md9a1c1a7cd" y="78.48"/>
      </g>
     </g>
     <g id="text_15">
      <!-- $6.4$ -->
      <g transform="translate(21.0699210237 80.9706600249)scale(0.1 -0.1)">
       <use transform="scale(0.9962640099626402)" xlink:href="#CMR17-54"/>
       <use transform="translate(45.69047711706103 0.0)scale(0.9962640099626402)" xlink:href="#CMMI12-58"/>
       <use transform="translate(72.78765420688046 0.0)scale(0.9962640099626402)" xlink:href="#CMR17-52"/>
      </g>
     </g>
    </g>
    <g id="ytick_7">
     <g id="line2d_37">
      <g>
       <use style="stroke:#000000;stroke-width:0.5;" x="37.8" xlink:href="#md7965d1ba0" y="51.84"/>
      </g>
     </g>
     <g id="line2d_38">
      <g>
       <use style="stroke:#000000;stroke-width:0.5;" x="226.8" xlink:href="#md9a1c1a7cd" y="51.84"/>
      </g>
     </g>
     <g id="text_16">
      <!-- $6.5$ -->
      <g transform="translate(21.0699210237 54.3306600249)scale(0.1 -0.1)">
       <use transform="scale(0.9962640099626402)" xlink:href="#CMR17-54"/>
       <use transform="translate(45.69047711706103 0.0)scale(0.9962640099626402)" xlink:href="#CMMI12-58"/>
       <use transform="translate(72.78765420688046 0.0)scale(0.9962640099626402)" xlink:href="#CMR17-53"/>
      </g>
     </g>
    </g>
    <g id="ytick_8">
     <g id="line2d_39">
      <g>
       <use style="stroke:#000000;stroke-width:0.5;" x="37.8" xlink:href="#md7965d1ba0" y="25.2"/>
      </g>
     </g>
     <g id="line2d_40">
      <g>
       <use style="stroke:#000000;stroke-width:0.5;" x="226.8" xlink:href="#md9a1c1a7cd" y="25.2"/>
      </g>
     </g>
     <g id="text_17">
      <!-- $6.6$ -->
      <g transform="translate(21.0699210237 27.6906600249)scale(0.1 -0.1)">
       <use transform="scale(0.9962640099626402)" xlink:href="#CMR17-54"/>
       <use transform="translate(45.69047711706103 0.0)scale(0.9962640099626402)" xlink:href="#CMMI12-58"/>
       <use transform="translate(72.78765420688046 0.0)scale(0.9962640099626402)" xlink:href="#CMR17-54"/>
      </g>
     </g>
    </g>
    <g id="text_18">
     <!-- $T_{\rm eff}$ -->
     <defs>
      <path d="
M41.7031 61.0938
C42.2969 63.5 42.5 64.3906 44 64.7969
C44.7969 65 48.0938 65 50.2031 65
C60.2031 65 64.9062 64.5938 64.9062 56.7812
C64.9062 55.2656 64.5 51.4688 63.9062 47.75
L63.7969 46.5625
C63.7969 46.1562 64.2031 45.5625 64.7969 45.5625
C65.7969 45.5625 65.7969 46.0625 66.0938 47.6562
L69 65.375
C69.2031 66.2969 69.2031 66.5 69.2031 66.7969
C69.2031 67.8906 68.5938 67.8906 66.5938 67.8906
L11.9062 67.8906
C9.59375 67.8906 9.5 67.7969 8.90625 66
L2.79688 47.9688
C2.70312 47.75 2.40625 46.6562 2.40625 46.5625
C2.40625 46.0625 2.79688 45.5625 3.40625 45.5625
C4.20312 45.5625 4.40625 45.9531 4.79688 47.25
C9 59.3906 11.0938 65 24.4062 65
L31.0938 65
C33.5 65 34.5 65 34.5 63.9062
C34.5 63.5938 34.5 63.4062 34 61.5938
L20.5938 7.79688
C19.5938 3.89062 19.4062 2.89062 8.79688 2.89062
C6.29688 2.89062 5.59375 2.89062 5.59375 1
C5.59375 0 6.70312 0 7.20312 0
C9.70312 0 12.2969 0 14.7969 0
L30.4062 0
C32.9062 0 35.5938 0 38.0938 0
C39.2031 0 40.2031 0 40.2031 1.89062
C40.2031 2.89062 39.5 2.89062 36.9062 2.89062
C27.9062 2.89062 27.9062 3.79688 27.9062 5.29688
C27.9062 5.40625 27.9062 6.10938 28.2969 7.70312
z
" id="CMMI12-84"/>
      <path d="
M39.9062 40
L51.2969 40
L51.2969 42.5781
L39.7031 42.5781
L39.7031 54.5938
C39.7031 62.8438 43.9062 68 48.2031 68
C49.5 68 51 67.6094 52 66.9062
C51.2031 66.7031 49.0938 66.0156 49.0938 63.5312
C49.0938 60.9531 51.0938 60.1562 52.5 60.1562
C53.9062 60.1562 55.9062 60.9531 55.9062 63.5469
C55.9062 67.3125 52.2969 69.5938 48.2969 69.5938
C44.4062 69.5938 41.2031 67.7031 38.7031 65.3281
C36.4062 68.5938 32.5938 69.5938 28.7031 69.5938
C20.9062 69.5938 9.90625 65.125 9.90625 54.2031
L9.90625 42.5781
L1.90625 42.5781
L1.90625 40
L9.90625 40
L9.90625 6.67188
C9.90625 2.875 9.5 2.39062 3.09375 2.39062
L3.09375 -0.203125
C5.5 0 9.90625 0 12.4062 0
C15 0 19.4062 0 21.7969 -0.203125
L21.7969 2.39062
C15.4062 2.39062 15 2.78125 15 6.67188
L15 40
L34.7969 40
L34.7969 6.67188
C34.7969 2.875 34.4062 2.39062 28 2.39062
L28 -0.203125
C30.4062 0 35 0 37.5938 0
C40.5 0 45.5938 0 48.2969 -0.203125
L48.2969 2.39062
C41.0938 2.39062 39.9062 2.39062 39.9062 6.85938
z

M14.7969 42.5781
L14.7969 54.2031
C14.7969 63.2344 21.7969 68 28.5 68
C30 68 33.9062 67.6875 36.2969 65.4219
C34.5 65.4219 32.7969 64.625 32.7969 62.1406
C32.7969 59.5625 35.0938 58.8594 35.2969 58.8594
C34.7969 57.0625 34.7969 55.0938 34.7969 54.3906
L34.7969 42.5781
z
" id="CMR17-11"/>
      <path d="
M38.0938 23
C38.5 23.4062 38.5 23.6094 38.5 24.625
C38.5 34.9688 33.0938 44 21.7031 44
C11.0938 44 2.70312 33.8906 2.70312 21.6094
C2.70312 8.60938 12.2031 -1 22.7969 -1
C34 -1 38.4062 9.46875 38.4062 11.5469
C38.4062 12.25 37.7969 12.25 37.5938 12.25
C36.9062 12.25 36.7969 12.0469 36.4062 10.875
C34.2031 4.14062 28.7031 0.796875 23.5 0.796875
C19.2031 0.796875 14.9062 3.17188 12.2031 7.5
C9.09375 12.5469 9.09375 18.375 9.09375 23
z

M9.20312 24.5
C9.90625 39.1406 17.5938 42.4062 21.5938 42.4062
C28.4062 42.4062 33 35.8906 33.0938 24.5
z
" id="CMR17-101"/>
     </defs>
     <g transform="translate(14.1327426934 125.484779586)rotate(-90.0)scale(0.1 -0.1)">
      <use transform="translate(0.0 14.943914544092467)scale(0.9962640099626402)" xlink:href="#CMMI12-84"/>
      <use transform="translate(57.175043659519 0.0)scale(0.6973817666173724)" xlink:href="#CMR17-101"/>
      <use transform="translate(85.51487524809309 0.0)scale(0.6973817666173724)" xlink:href="#CMR17-11"/>
     </g>
    </g>
    <g id="text_19">
     <!-- $\times10^{3}$ -->
     <defs>
      <path d="
M38.9062 27.8906
L18.9062 47.7969
C17.7031 49 17.5 49.1875 16.7031 49.1875
C15.7031 49.1875 14.7031 48.2969 14.7031 47.1875
C14.7031 46.5 14.9062 46.2969 16 45.1875
L36 25.0938
L16 5
C14.9062 3.89062 14.7031 3.6875 14.7031 3
C14.7031 1.89062 15.7031 1 16.7031 1
C17.5 1 17.7031 1.1875 18.9062 2.39062
L38.7969 22.2969
L59.5 1.59375
C59.7031 1.5 60.4062 1 61 1
C62.2031 1 63 1.89062 63 3
C63 3.1875 63 3.59375 62.7031 4.09375
C62.5938 4.29688 46.7031 20 41.7031 25.0938
L60 43.3906
C60.5 44 62 45.2969 62.5 45.8906
C62.5938 46.0938 63 46.5 63 47.1875
C63 48.2969 62.2031 49.1875 61 49.1875
C60.2031 49.1875 59.7969 48.7969 58.7031 47.6875
z
" id="CMSY10-2"/>
     </defs>
     <g transform="translate(37.8 22.2)scale(0.1 -0.1)">
      <use transform="scale(0.9962640099626402)" xlink:href="#CMSY10-2"/>
      <use transform="translate(77.4874676506071 0.0)scale(0.9962640099626402)" xlink:href="#CMR17-49"/>
      <use transform="translate(123.17794476766814 0.0)scale(0.9962640099626402)" xlink:href="#CMR17-48"/>
      <use transform="translate(168.86842188472914 36.15363894185866)scale(0.6973817666173724)" xlink:href="#CMR17-51"/>
     </g>
    </g>
   </g>
   <g id="patch_6">
    <path d="
M37.8 25.2
L226.8 25.2" style="fill:none;stroke:#000000;"/>
   </g>
   <g id="patch_7">
    <path d="
M37.8 211.68
L37.8 25.2" style="fill:none;stroke:#000000;"/>
   </g>
   <g id="patch_8">
    <path d="
M37.8 211.68
L226.8 211.68" style="fill:none;stroke:#000000;"/>
   </g>
   <g id="patch_9">
    <path d="
M226.8 211.68
L226.8 25.2" style="fill:none;stroke:#000000;"/>
   </g>
  </g>
 </g>
 <defs>
  <clipPath id="p6ee0767660">
   <rect height="186.48" width="189.0" x="37.8" y="25.2"/>
  </clipPath>
 </defs>
</svg>
