<?xml version="1.0" encoding="utf-8" standalone="no"?>
<!DOCTYPE svg PUBLIC "-//W3C//DTD SVG 1.1//EN"
  "http://www.w3.org/Graphics/SVG/1.1/DTD/svg11.dtd">
<!-- Created with matplotlib (http://matplotlib.org/) -->
<svg height="288pt" version="1.1" viewBox="0 0 1008 288" width="1008pt" xmlns="http://www.w3.org/2000/svg" xmlns:xlink="http://www.w3.org/1999/xlink">
 <defs>
  <style type="text/css">
*{stroke-linecap:butt;stroke-linejoin:round;}
  </style>
 </defs>
 <g id="figure_1">
  <g id="patch_1">
   <path d="
M0 288
L1008 288
L1008 0
L0 0
z
" style="fill:#ffffff;"/>
  </g>
  <g id="axes_1">
   <g id="line2d_1">
    <path clip-path="url(#p6c2c4a6cf7)" d="
M-0.307893 30.2028
L0.514657 52.4316
L1.33715 97.5844
L2.15959 150.314
L2.98198 173.856
L3.8043 147.927
L4.62658 94.6446
L5.4488 52.0349
L6.27096 35.7665
L7.09307 35.7926
L7.91512 37.0586
L8.73711 33.6276
L9.55905 28.9295
L10.3809 27.7195
L11.2028 28.9082
L12.0245 28.502
L13.6679 22.6824
L14.4895 21.1606
L15.3111 20.6588
L16.954 20.2958
L17.7754 20.231
L18.5968 20.3175
L20.2392 20.86
L21.0604 20.9628
L21.8815 20.9375
L22.7026 21.2646
L23.5236 23.0508
L24.3445 28.3126
L25.1654 37.419
L25.9862 45.0957
L26.807 45.0979
L27.6277 39.1233
L28.4484 34.6425
L29.269 34.9365
L30.0896 37.6342
L30.9101 39.8079
L31.7305 39.1575
L32.5509 34.5869
L33.3712 28.1387
L34.1915 23.2104
L35.0117 21.0237
L35.8319 20.506
L36.652 20.5455
L37.4721 21.4084
L38.2921 26.6971
L39.112 44.8317
L40.7517 110.286
L41.5715 111.995
L42.3913 82.4544
L43.2109 47.8977
L44.0305 29.1155
L44.8501 25.9994
L45.6696 31.6432
L46.489 39.4541
L47.3084 41.9345
L48.1278 36.4035
L48.947 28.0391
L49.7663 22.7809
L50.5854 21.0524
L51.4045 20.684
L52.2236 20.6006
L53.0426 20.7415
L55.4993 21.9829
L56.3181 22.1665
L57.1368 24.2477
L57.9555 31.6157
L58.7741 44.037
L59.5926 53.0624
L60.4111 50.192
L62.048 27.1123
L62.8663 22.0284
L63.6846 20.7159
L64.5028 20.5901
L65.321 20.8731
L66.1391 21.3846
L66.9571 22.0315
L67.7751 23.7716
L68.5931 30.9046
L69.411 49.5673
L70.2288 75.6416
L71.0466 89.7285
L71.8643 78.3997
L72.682 52.4786
L73.4996 32.7259
L74.3172 26.0353
L75.1347 26.0746
L75.9521 26.288
L76.7695 24.6385
L77.5868 22.2771
L78.4041 20.7899
L79.2213 20.5501
L80.0385 21.2739
L80.8556 22.3901
L81.6727 22.9481
L82.4897 22.5406
L83.3066 21.9202
L84.1235 22.1754
L84.9404 23.9987
L86.5739 31.4192
L87.3905 32.6551
L88.2071 30.0957
L89.0237 25.9176
L89.8402 22.9385
L90.6566 21.8347
L91.473 21.819
L92.2894 22.0122
L93.1056 21.8446
L95.5541 20.0755
L96.3702 19.9892
L98.0021 20.3001
L101.265 21.0165
L102.081 21.7597
L102.897 22.9915
L104.528 26.5518
L105.343 27.2638
L106.159 25.8601
L106.974 23.34
L107.789 22.2241
L108.604 24.2069
L109.42 28.131
L110.235 30.3732
L111.05 28.6509
L111.865 24.6841
L112.68 21.661
L113.495 20.4665
L114.309 20.1828
L115.939 20.161
L116.753 20.293
L117.568 20.6781
L118.383 21.7132
L119.197 24.011
L120.012 27.2008
L120.826 29.0996
L121.64 27.9807
L122.455 24.9247
L123.269 22.4378
L124.083 21.5922
L124.897 21.8788
L125.711 22.9826
L126.525 27.2078
L127.339 40.9125
L128.967 89.5829
L129.781 90.0717
L130.594 67.2307
L131.408 40.8611
L132.222 26.0118
L133.035 21.2789
L133.849 20.3522
L134.662 20.3296
L138.728 21.4315
L141.167 21.7895
L141.98 22.3692
L142.793 23.8634
L143.606 27.2
L144.419 31.663
L145.232 34.0661
L146.044 32.3383
L147.669 24.3673
L148.482 22.1791
L149.294 21.2473
L150.107 21.1085
L150.919 21.1889
L151.731 21.1077
L154.168 20.3789
L156.604 20.636
L157.416 20.3963
L158.227 20.436
L159.039 21.3423
L159.851 23.0371
L160.663 24.3428
L161.474 24.1311
L162.286 22.7835
L163.097 21.675
L163.909 21.5536
L164.72 22.7338
L165.531 25.768
L166.343 29.6039
L167.154 31.1943
L167.965 29.2693
L168.776 26.4179
L169.587 25.6791
L170.398 26.4832
L171.209 26.2752
L172.02 24.2622
L172.831 21.9231
L173.641 20.8048
L174.452 21.2153
L175.263 22.8679
L176.073 24.9059
L176.884 25.8512
L177.694 24.9994
L178.505 23.2619
L179.315 21.9996
L180.125 21.6564
L180.936 22.014
L181.746 23.1637
L182.556 26.7622
L183.366 38.6617
L184.176 68.1084
L184.986 114.326
L185.796 153.79
L186.606 156.728
L187.416 120.847
L188.225 74.0587
L189.035 42.1233
L189.845 28.4358
L190.654 24.2153
L191.464 22.9694
L192.273 22.5517
L193.892 22.204
L194.701 21.9571
L195.511 22.1497
L196.32 23.3112
L197.938 27.2862
L198.747 27.9949
L199.556 26.8069
L201.174 22.2543
L201.983 21.1512
L202.791 20.8911
L203.6 21.0411
L205.217 21.6543
L206.026 21.7104
L207.643 21.4868
L208.451 21.8554
L209.259 22.396
L210.067 22.5197
L211.684 21.7997
L212.492 21.7387
L213.3 22.019
L214.108 23.4069
L214.916 27.1231
L215.724 32.2634
L216.531 35.3037
L217.339 34.027
L218.954 26.2068
L219.762 23.6754
L220.57 22.2308
L221.377 21.5754
L222.184 21.4156
L222.992 21.9192
L223.799 25.1023
L224.606 35.2752
L225.413 52.9428
L226.221 67.479
L227.028 66.2344
L228.642 34.6146
L229.448 26.1776
L230.255 23.922
L231.062 24.8859
L231.869 27.6633
L232.675 29.9727
L233.482 29.83
L234.289 28.4035
L235.095 29.0534
L235.902 32.404
L236.708 34.7724
L238.321 32.2426
L239.127 40.8025
L239.933 68.61
L240.739 109.487
L241.545 136.456
L242.351 126.548
L243.963 51.0835
L244.769 30.8015
L245.575 23.9096
L246.38 22.3015
L247.186 22.2784
L247.992 22.7456
L248.797 23.0388
L249.603 22.8314
L250.408 22.4019
L251.213 22.269
L252.019 22.6017
L252.824 23.2843
L253.629 25.313
L254.434 33.5771
L255.239 55.9025
L256.044 90.1743
L256.849 114.551
L257.654 107.51
L259.264 43.7983
L260.069 28.1193
L260.874 24.0609
L261.678 23.8071
L263.287 24.6309
L264.092 25.2063
L264.896 25.9678
L265.701 26.951
L266.505 28.2027
L267.309 29.8407
L268.113 32.0561
L268.917 35.1063
L269.722 39.4599
L270.526 46.1625
L271.33 57.6604
L272.133 79.0118
L272.937 115.801
L274.545 214.563
L275.349 245.486
L276.152 256.02
L276.956 257.824
L277.759 257.865
L278.563 246.827
L279.366 212.582
L280.973 110.845
L281.776 77.2952
L282.579 58.7742
L283.382 48.1062
L284.186 41.2937
L284.989 37.3222
L288.2 28.2643
L289.003 27.0381
L292.213 24.5219
L293.016 24.2303
L293.818 24.2914
L294.62 24.5902
L295.423 25.239
L296.225 28.1201
L297.027 38.1717
L298.631 77.4646
L299.433 81.157
L300.235 69.041
L301.037 63.2718
L301.839 85.1766
L303.442 175.038
L304.244 208.07
L305.046 226.817
L305.847 222.786
L306.649 185.669
L308.252 74.3635
L309.053 44.2319
L309.854 32.3477
L310.655 28.1975
L311.457 26.0717
L312.258 24.6307
L313.059 23.7676
L313.86 23.2532
L314.661 22.9082
L315.462 23.0314
L316.262 24.143
L317.063 26.0216
L317.864 27.4288
L318.665 27.2836
L319.465 25.7667
L320.266 23.9263
L321.066 22.533
L321.867 21.7717
L322.667 21.5031
L326.668 21.3453
L328.268 21.696
L329.068 22.002
L329.868 22.55
L330.668 23.625
L331.467 25.0117
L332.267 25.7616
L333.067 25.2157
L334.666 22.7038
L335.465 22.1837
L336.265 22.1357
L337.064 22.4198
L337.863 23.0242
L338.663 23.7716
L339.462 24.2816
L340.261 24.3353
L341.859 23.953
L342.658 24.1547
L343.457 25.1008
L344.256 27.5133
L345.853 35.6224
L346.652 38.3696
L347.451 42.8126
L348.249 58.705
L349.048 96.4531
L349.846 151.766
L350.644 198.83
L351.443 207.78
L352.241 172.976
L353.039 118.203
L353.837 72.3433
L354.636 47.1077
L355.434 37.3588
L356.232 34.5038
L357.03 34.033
L357.827 34.6762
L358.625 36.2774
L359.423 38.7644
L361.018 44.9424
L361.816 48.2796
L362.614 52.4263
L363.411 58.268
L364.209 66.6617
L365.006 78.4869
L365.803 94.9256
L366.601 117.778
L367.398 148.981
L368.992 227.162
L369.789 255.196
L370.586 261.443
L371.383 243.862
L372.977 172.061
L373.773 137.954
L374.57 110.554
L375.367 89.7403
L376.163 75.1015
L376.96 65.7142
L378.553 54.1118
L380.145 43.3922
L380.942 39.8692
L381.738 37.5173
L383.33 33.8217
L384.922 30.8613
L385.718 30.5472
L386.514 35.0563
L387.31 50.1939
L388.105 73.8122
L388.901 89.6329
L389.697 83.3734
L391.288 40.5817
L392.083 30.5542
L392.879 26.9591
L393.674 25.1531
L394.469 23.9399
L395.265 23.1722
L396.06 22.675
L396.855 22.3415
L398.445 22.0061
L402.419 21.5997
L404.803 22.0933
L405.597 21.8759
L406.392 21.4632
L407.186 21.1907
L407.981 21.2352
L408.775 21.4562
L409.569 21.556
L410.363 21.3763
L411.951 20.7827
L412.745 20.7502
L413.539 21.1285
L414.333 22.2773
L415.127 24.0576
L415.921 25.2738
L416.714 24.8193
L418.302 21.4209
L419.095 20.5571
L419.889 20.2649
L420.682 20.2233
L421.475 20.3728
L422.269 20.7673
L423.062 21.2981
L423.855 21.6141
L424.648 21.4781
L426.234 20.7331
L427.027 20.6959
L427.82 20.9953
L428.613 21.7053
L429.406 22.6365
L430.199 23.1292
L430.991 22.7407
L431.784 21.9013
L432.577 21.485
L433.369 21.8233
L434.162 22.6112
L434.954 23.6981
L435.746 26.0809
L436.539 32.8483
L437.331 46.6158
L438.123 62.3998
L438.915 68.0982
L439.707 58.2161
L440.499 41.535
L441.291 30.5272
L442.083 28.3333
L443.667 32.5789
L444.458 32.0092
L446.833 23.5001
L447.625 22.9974
L448.416 25.7349
L449.208 34.0202
L449.999 45.3907
L450.79 51.3412
L451.581 46.8043
L452.372 36.9414
L453.164 30.0611
L453.955 27.4827
L454.746 25.7496
L455.536 23.6183
L456.327 22.1516
L457.118 21.6636
L457.909 21.422
L459.49 20.5929
L460.281 20.452
L461.071 20.7318
L461.862 21.5905
L463.443 24.283
L464.233 24.5878
L465.023 23.7462
L465.813 22.4784
L466.603 21.4716
L467.394 20.8192
L468.184 20.3598
L468.974 20.0563
L469.763 19.9746
L470.553 20.1397
L471.343 20.5104
L472.133 21.0154
L472.922 21.8067
L473.712 23.4856
L474.502 26.3642
L475.291 29.8171
L476.081 34.4944
L476.87 43.7534
L477.659 57.0324
L478.449 64.8082
L479.238 58.8821
L480.027 43.8125
L480.816 30.9741
L481.605 25.2413
L482.394 24.3637
L483.972 26.4755
L484.761 25.7381
L486.338 21.7479
L487.127 20.8958
L487.915 20.6408
L489.492 20.4518
L490.281 20.5312
L491.069 20.796
L493.434 22.0793
L494.222 22.1944
L495.01 22.0185
L495.798 21.6968
L496.586 21.5344
L497.374 22.3471
L498.162 26.6725
L498.95 38.33
L499.738 55.883
L500.525 68.3091
L501.313 65.5215
L502.888 35.6985
L503.675 27.2586
L504.463 23.8676
L505.25 22.6582
L506.037 22.2879
L506.825 22.3359
L508.399 23.3412
L509.186 23.3901
L509.973 22.7237
L510.76 21.8733
L511.547 21.4617
L512.334 21.5472
L513.907 21.949
L515.48 22.1451
L516.267 22.5056
L517.053 23.301
L517.84 24.5362
L519.413 27.1996
L520.199 27.5226
L520.985 26.556
L522.557 23.1208
L523.343 22.34
L524.129 22.4166
L524.915 23.2675
L526.487 26.0977
L527.273 26.4165
L528.058 25.5082
L528.844 24.2145
L529.63 23.4037
L530.415 23.1953
L531.2 23.3286
L532.771 24.0654
L534.342 24.8601
L535.127 24.9507
L536.697 24.8004
L538.267 25.0912
L539.052 25.3349
L540.622 26.1442
L542.976 27.4999
L543.76 28.5747
L546.113 33.7156
L547.682 37.6604
L548.466 38.7721
L550.034 38.6025
L550.818 39.4882
L551.602 41.5778
L552.386 44.5952
L553.17 48.3661
L553.954 52.8805
L554.738 58.3201
L555.522 64.9823
L556.305 73.1974
L557.089 83.5017
L557.872 96.8343
L558.656 114.137
L559.439 135.721
L560.222 161.76
L562.572 254.177
L563.355 268.08
L564.138 261.6
L564.921 237.269
L566.487 170.806
L567.27 142.78
L568.053 120.441
L568.836 102.677
L569.618 88.4987
L570.401 77.4962
L571.183 70.0708
L571.966 67.8418
L572.748 74.2922
L573.531 92.415
L574.313 115.801
L575.095 126.568
L575.877 112.472
L576.66 82.3536
L577.442 57.1402
L578.224 49.3832
L579.006 56.4873
L579.788 66.4236
L580.57 67.1208
L581.351 56.3821
L582.133 42.5529
L582.915 34.3242
L583.696 33.7729
L585.259 43.9863
L586.041 44.6399
L586.822 39.6598
L587.604 33.9147
L588.385 32.6655
L589.166 35.6825
L589.947 38.1046
L590.729 36.2704
L592.291 26.7271
L593.072 24.4411
L593.852 23.672
L594.633 23.4301
L596.195 23.163
L597.756 22.7802
L598.537 22.9477
L599.317 23.6575
L600.098 24.8536
L600.878 27.1067
L601.658 34.7719
L602.438 55.7419
L603.219 89.161
L603.999 115.259
L604.779 112.188
L606.339 48.9918
L607.119 29.6015
L607.899 23.0084
L608.679 21.6652
L609.458 21.6381
L610.238 22.1397
L611.797 24.0155
L612.577 24.6448
L613.356 25.0806
L614.136 25.9056
L614.915 26.982
L615.694 27.1371
L616.473 25.7216
L617.253 23.6507
L618.032 22.2608
L618.811 21.7623
L622.705 20.7981
L624.263 20.7439
L628.155 20.9043
L628.933 21.233
L629.712 22.1836
L630.49 23.7068
L631.268 24.9185
L632.046 24.8279
L633.602 22.0617
L634.38 21.2979
L635.158 21.353
L635.936 22.7495
L636.713 28.1945
L637.491 43.4237
L639.046 101.102
L639.824 111.107
L640.601 92.6595
L641.379 60.5894
L642.156 35.8105
L642.933 24.8141
L643.71 22.0724
L644.488 22.3568
L645.265 24.1768
L646.042 26.8645
L646.819 28.6444
L647.596 28.0018
L648.373 25.6104
L649.149 23.9863
L649.926 27.0082
L650.703 42.2278
L651.479 77.5108
L652.256 125.375
L653.033 157.292
L653.809 148.432
L655.362 60.9201
L656.138 34.0855
L656.914 24.3343
L657.691 21.8747
L658.467 21.0897
L659.243 20.6808
L660.019 20.5365
L660.795 20.561
L661.571 20.6995
L662.347 21.0701
L665.449 23.924
L666.225 25.5606
L667.776 31.2954
L668.551 31.18
L669.327 28.0701
L670.102 24.252
L670.877 21.8192
L671.652 21.1199
L672.427 21.5592
L673.202 22.339
L673.977 22.9309
L674.752 23.8516
L675.527 26.2969
L676.302 29.78
L677.077 31.4904
L677.851 29.5783
L678.626 25.5549
L679.401 22.2899
L680.175 20.8207
L680.95 20.4281
L682.498 20.434
L685.595 20.7024
L687.143 20.698
L687.917 21.0304
L688.691 21.9878
L689.465 23.4734
L690.239 24.6219
L691.012 24.6066
L692.56 22.5065
L693.333 21.8328
L694.107 21.5276
L694.88 21.4777
L695.654 21.6665
L696.427 22.0866
L697.2 22.8068
L697.973 24.3358
L698.747 28.9262
L699.52 42.9104
L700.293 74.5884
L701.839 162.227
L702.611 169.27
L703.384 139.027
L704.157 94.2747
L704.93 58.7923
L705.702 38.9004
L706.475 29.2015
L707.247 24.6526
L708.02 22.8957
L708.792 22.6195
L709.564 23.5585
L710.337 26.1733
L711.109 29.9085
L711.881 32.448
L712.653 32.0426
L713.425 29.9675
L714.197 30.3483
L714.969 39.5877
L715.741 65.8911
L717.285 159.059
L718.056 181.318
L718.828 163.628
L720.371 79.6323
L721.143 54.2041
L721.914 42.4985
L722.685 36.9101
L724.228 27.819
L724.999 24.4323
L725.77 24.2784
L726.541 30.6069
L727.312 48.1694
L728.083 74.608
L728.854 93.9106
L729.625 90.2053
L731.167 41.2465
L731.937 26.9201
L732.708 22.2028
L733.478 21.2986
L734.249 21.272
L735.019 21.5092
L735.79 22.033
L736.56 22.7529
L737.33 23.2431
L738.1 23.0919
L739.641 21.8467
L740.411 21.7401
L741.181 21.8853
L741.951 21.8819
L742.721 21.7303
L743.49 21.825
L745.03 22.8656
L747.338 23.4992
L748.108 23.898
L748.877 23.747
L751.185 21.4352
L751.954 21.1855
L753.492 21.204
L755.799 21.6221
L757.337 22.1596
L758.106 22.6832
L758.874 23.6557
L759.643 25.7683
L760.411 31.6319
L761.18 48.2792
L761.948 84.1913
L762.717 136.018
L763.485 180.203
L764.253 188.076
L765.021 154.067
L765.789 101.797
L766.558 59.431
L767.326 37.1437
L768.094 28.7969
L768.861 26.3697
L769.629 27.0904
L770.397 33.3606
L771.165 51.6975
L772.7 119.856
L773.468 132.563
L774.235 113.331
L775.002 78.7109
L775.77 51.6912
L776.537 38.6861
L777.304 32.5814
L778.072 27.8549
L778.839 24.4797
L779.606 23.4028
L780.373 25.1578
L781.14 32.6525
L781.907 50.9835
L782.674 78.3322
L783.44 99.091
L784.207 96.7056
L785.74 45.8407
L786.507 29.5078
L787.274 23.9448
L788.04 24.007
L788.806 27.4055
L791.105 45.7134
L791.871 47.8718
L792.638 46.0954
L793.404 40.4054
L794.17 32.6943
L794.935 26.1862
L795.701 22.7133
L796.467 21.5555
L797.233 21.3167
L798.764 21.304
L799.53 21.4327
L800.295 22.0693
L801.061 24.1698
L802.592 33.0597
L803.357 34.8927
L804.122 32.3905
L804.887 27.7589
L805.652 24.4378
L806.417 24.1464
L807.182 28.0214
L807.947 40.5961
L808.712 68.816
L809.477 109.689
L810.242 141.506
L811.007 140.342
L811.771 106.891
L812.536 65.9661
L813.3 39.1647
L814.065 29.3728
L814.829 30.8649
L816.358 49.2008
L817.122 51.8958
L817.886 44.7857
L818.651 33.6713
L819.415 25.8265
L820.179 22.8643
L820.943 22.379
L821.707 22.3745
L823.234 22.0253
L824.762 21.802
L825.525 21.8535
L826.289 22.035
L827.052 22.79
L827.816 26.4661
L828.579 38.1242
L830.106 81.2914
L830.869 86.4303
L831.632 70.8491
L832.395 47.4472
L833.158 30.9451
L833.921 24.1378
L834.684 22.2487
L835.447 21.8105
L836.21 22.0825
L836.972 23.3179
L837.735 25.3962
L838.498 27.102
L839.26 27.0574
L840.023 25.3045
L840.785 23.2615
L841.548 22.0955
L842.31 21.8188
L844.597 22.2287
L846.121 22.2302
L849.168 23.2157
L849.93 23.9054
L851.454 27.152
L852.215 27.4455
L852.977 26.3298
L853.738 25.5864
L854.5 26.7899
L855.261 29.4098
L856.022 31.5978
L856.783 32.0462
L857.545 31.8533
L858.306 35.5697
L859.067 47.7929
L859.828 64.649
L860.589 73.1569
L861.35 65.1656
L862.11 47.0495
L862.871 31.6406
L863.632 24.3808
L864.393 22.366
L865.153 22.0156
L866.674 22.0598
L868.955 22.5394
L870.476 22.6013
L872.756 23.4642
L873.516 23.4004
L874.276 23.8736
L875.036 25.6651
L875.795 28.0864
L876.555 29.1622
L877.315 27.8595
L878.074 25.2959
L878.834 23.3513
L879.594 22.6865
L880.353 22.7885
L881.872 23.3114
L882.631 23.2921
L884.908 22.5051
L887.944 22.7052
L888.703 22.5991
L889.462 22.8493
L890.22 24.7279
L890.979 31.8772
L891.737 49.5393
L894.013 134.336
L894.771 130.818
L895.529 103.029
L896.288 67.0885
L897.046 40.5124
L897.804 29.2617
L898.562 28.4977
L899.32 31.2058
L900.078 32.4927
L900.836 30.6888
L901.593 27.298
L902.351 24.691
L903.109 23.5721
L903.867 23.2483
L905.382 23.0766
L906.896 23.0675
L907.654 23.1584
L908.411 23.4337
L909.926 24.2716
L910.683 24.3507
L912.197 23.8717
L914.467 23.0364
L915.224 22.9913
L916.737 23.3634
L918.25 23.8509
L919.763 24.4743
L920.52 24.4235
L921.276 24.122
L922.032 24.1406
L922.788 24.9466
L923.545 26.1155
L924.301 26.6712
L925.057 26.2436
L925.813 25.4066
L926.568 24.8794
L927.324 24.8093
L928.08 25.0904
L928.836 26.1939
L929.591 30.5913
L930.347 44.9396
L931.102 77.6477
L932.613 177.236
L933.369 201.608
L934.124 187.839
L934.879 144.546
L935.634 93.8039
L936.39 54.9352
L937.145 34.3144
L937.9 26.7303
L938.655 24.675
L939.409 24.2114
L941.674 24.1478
L942.428 24.1473
L943.183 24.4635
L943.938 25.3899
L944.692 26.7527
L945.447 27.8618
L946.201 28.1341
L946.955 27.5924
L948.464 25.755
L949.218 25.0293
L949.972 24.633
L950.726 24.7187
L951.48 26.2412
L952.234 32.5978
L952.988 48.2767
L953.741 70.5018
L954.495 85.5108
L955.249 81.6969
L956.002 64.0407
L956.756 50.9379
L957.509 59.0824
L958.263 93.4161
L959.016 143.269
L959.77 183.167
L960.523 187.93
L961.276 155.161
L962.029 107.069
L962.782 67.7899
L963.535 45.3435
L964.288 34.5197
L965.041 29.1058
L965.794 26.5237
L966.547 25.7029
L967.299 26.0221
L968.052 27.3188
L968.805 29.3307
L970.31 34.407
L971.062 37.1118
L971.815 38.6664
L972.567 38.2498
L973.319 36.1008
L974.824 30.0053
L975.576 28.1855
L976.328 28.6659
L977.08 30.4602
L977.832 31.2233
L978.583 29.8588
L979.335 27.3919
L980.087 25.449
L980.839 24.58
L981.59 24.3916
L982.342 24.4589
L983.093 24.6616
L983.845 25.0648
L984.596 25.6184
L985.348 25.9876
L986.099 25.8563
L987.601 24.7866
L988.352 24.5618
L989.103 24.6238
L989.854 24.8848
L990.605 25.4343
L991.356 26.5823
L992.107 28.5867
L992.858 30.9549
L993.608 32.3369
L994.359 31.9135
L995.109 30.5487
L995.86 29.8431
L996.61 30.2915
L997.361 31.3395
L998.111 33.4063
L998.861 40.1094
L999.612 59.1113
L1000.36 96.9957
L1001.11 147.971
L1001.86 190.667
L1002.61 204.798
L1003.36 193.505
L1004.11 178.502
L1004.86 169.985
L1005.61 155.673
L1006.36 123.644
L1007.11 82.611
L1007.86 50.8173
L1008.61 35.117
L1008.61 35.117" style="fill:none;stroke:#ff0000;stroke-linecap:square;stroke-width:3;"/>
   </g>
  </g>
 </g>
 <defs>
  <clipPath id="p6c2c4a6cf7">
   <rect height="288.0" width="1008.0" x="0.0" y="0.0"/>
  </clipPath>
 </defs>
</svg>
