<?xml version="1.0" encoding="utf-8" standalone="no"?>
<!DOCTYPE svg PUBLIC "-//W3C//DTD SVG 1.1//EN"
  "http://www.w3.org/Graphics/SVG/1.1/DTD/svg11.dtd">
<!-- Created with matplotlib (http://matplotlib.org/) -->
<svg height="288pt" version="1.1" viewBox="0 0 1008 288" width="1008pt" xmlns="http://www.w3.org/2000/svg" xmlns:xlink="http://www.w3.org/1999/xlink">
 <defs>
  <style type="text/css">
*{stroke-linecap:butt;stroke-linejoin:round;}
  </style>
 </defs>
 <g id="figure_1">
  <g id="patch_1">
   <path d="
M0 288
L1008 288
L1008 0
L0 0
z
" style="fill:#ffffff;"/>
  </g>
  <g id="axes_1">
   <g id="line2d_1">
    <path clip-path="url(#p6c2c4a6cf7)" d="
M-0.307893 132.041
L0.514657 126.936
L1.33715 108.846
L2.15959 99.0944
L2.98198 90.9534
L3.8043 97.5132
L4.62658 109.194
L5.4488 132.931
L6.27096 138.751
L7.09307 131.267
L7.91512 133.289
L8.73711 127.649
L9.55905 133.391
L10.3809 137.533
L11.2028 131.475
L12.0245 141.799
L12.8463 137.209
L13.6679 142.45
L14.4895 136.108
L15.3111 141.271
L16.1326 143.293
L16.954 143.797
L17.7754 140.99
L18.5968 136.141
L19.418 146.422
L21.0604 139.052
L21.8815 146.263
L22.7026 142.323
L23.5236 141.474
L24.3445 142.555
L25.1654 137.938
L25.9862 150.819
L26.807 139.553
L27.6277 140.719
L29.269 155.19
L30.0896 155.46
L30.9101 152.097
L31.7305 153.185
L32.5509 147.926
L33.3712 141.811
L34.1915 128.758
L35.0117 138.017
L35.8319 141.69
L36.652 151.368
L37.4721 140.142
L38.2921 151.12
L39.112 158.115
L39.9319 159.159
L40.7517 168.79
L41.5715 168.815
L42.3913 164.885
L43.2109 143.672
L44.0305 149.369
L45.6696 145.675
L46.489 158.306
L47.3084 144.798
L48.1278 145.186
L48.947 141.315
L49.7663 145.349
L50.5854 140.577
L51.4045 140.599
L52.2236 136.46
L53.0426 135.896
L53.8616 140.302
L54.6804 136.233
L55.4993 139.695
L56.3181 141.696
L57.1368 137.582
L57.9555 143.64
L58.7741 144.946
L59.5926 143.302
L60.4111 139.119
L61.2296 142.539
L62.048 144.284
L62.8663 144.082
L63.6846 149.005
L64.5028 141.376
L65.321 135.482
L66.1391 133.748
L66.9571 138.662
L67.7751 139.85
L68.5931 146.572
L69.411 146.755
L70.2288 150.005
L71.0466 156.567
L71.8643 159.334
L72.682 147.671
L73.4996 145.399
L74.3172 148.282
L75.1347 147.533
L76.7695 140.082
L77.5868 133.724
L78.4041 145.525
L79.2213 137.044
L80.0385 144.34
L80.8556 138.47
L81.6727 138.525
L82.4897 143.694
L83.3066 142.135
L84.1235 144.375
L84.9404 131.447
L85.7571 143.04
L86.5739 134.591
L87.3905 141.943
L88.2071 134.451
L89.0237 139.862
L89.8402 148.273
L90.6566 144.072
L91.473 148.461
L92.2894 134.857
L93.1056 148.247
L93.9219 141.766
L95.5541 142.333
L96.3702 156.419
L97.1862 148.697
L98.0021 155.894
L98.818 148.295
L99.6339 145.047
L100.45 143.374
L101.265 139.501
L102.081 148.413
L102.897 136.933
L103.712 138.747
L104.528 136.987
L105.343 136.729
L106.159 130.212
L106.974 142.941
L107.789 145.697
L108.604 137.367
L109.42 139.828
L110.235 141.297
L111.05 137.069
L111.865 140.725
L112.68 148.099
L113.495 140.134
L114.309 147.02
L115.124 135.537
L115.939 141.729
L116.753 138.73
L117.568 144.359
L118.383 139.313
L119.197 136.039
L120.012 136.962
L120.826 124.572
L121.64 133.406
L122.455 131.05
L123.269 133.952
L124.083 139.879
L124.897 140.267
L125.711 143.106
L126.525 142.091
L127.339 139.625
L128.153 149.219
L128.967 141.475
L129.781 149.725
L131.408 143.366
L132.222 150.811
L133.035 144.894
L133.849 142.046
L134.662 143.969
L135.475 147.231
L136.289 142.328
L137.102 149.402
L137.915 144.408
L138.728 149.891
L139.541 134.82
L140.354 139.339
L141.167 142.571
L141.98 135.635
L142.793 141.959
L143.606 136.023
L144.419 128.521
L145.232 127.899
L146.044 135.719
L146.857 135.792
L147.669 137.101
L148.482 144.803
L149.294 141.957
L150.107 129.508
L150.919 140.251
L151.731 140.313
L153.356 134.363
L154.168 143.141
L154.98 146.749
L155.792 141.535
L156.604 138.484
L157.416 138.588
L158.227 140.422
L159.039 156.047
L159.851 144.349
L160.663 156.004
L161.474 148.803
L162.286 145.241
L163.097 149.088
L163.909 136.996
L164.72 139.829
L165.531 142.131
L166.343 147.572
L167.154 134.75
L168.776 142.022
L169.587 132.96
L170.398 138.174
L171.209 134.015
L172.02 137.677
L172.831 131.15
L174.452 146.879
L175.263 139.006
L176.073 138.568
L176.884 140.342
L177.694 143.103
L178.505 135.745
L179.315 140.375
L180.125 137.403
L180.936 147.158
L181.746 139.692
L182.556 140.068
L183.366 153.265
L184.176 153.853
L184.986 156.305
L185.796 153.972
L186.606 163.989
L187.416 156.568
L188.225 160.507
L189.035 156.718
L189.845 153.907
L190.654 148.214
L191.464 147.574
L192.273 144.238
L193.083 148.54
L193.892 144.382
L194.701 146.013
L195.511 149.081
L196.32 138.668
L197.129 134.429
L197.938 133.681
L198.747 139.224
L199.556 136.346
L200.365 138.755
L201.174 134.119
L201.983 141.11
L202.791 134.26
L203.6 132.747
L204.409 138.431
L205.217 129.764
L206.026 132.302
L206.834 137.86
L207.643 135.978
L208.451 142.934
L209.259 146.505
L210.067 134.905
L210.876 140.93
L211.684 138.105
L212.492 139.809
L213.3 136.754
L214.108 134.751
L214.916 138.012
L215.724 126.541
L217.339 123.05
L218.954 133.912
L219.762 136.394
L220.57 139.886
L221.377 140.076
L222.184 141.943
L222.992 133.146
L223.799 136.147
L224.606 131.167
L225.413 127.058
L226.221 129.003
L227.028 124.414
L227.835 124.208
L228.642 129.427
L229.448 139.948
L230.255 136.48
L231.062 138.81
L231.869 140.244
L232.675 142.358
L233.482 133.377
L234.289 131.296
L235.095 133.28
L235.902 132.586
L236.708 133.192
L237.514 140.014
L238.321 132.857
L239.127 142.421
L239.933 133.903
L240.739 128.782
L241.545 127.185
L242.351 126.974
L243.157 134.354
L243.963 139.083
L244.769 142.728
L245.575 136.883
L246.38 138.721
L247.186 139.295
L247.992 140.169
L248.797 136.167
L249.603 141.918
L250.408 136.981
L251.213 143.639
L252.019 139.274
L252.824 140.285
L253.629 149.127
L254.434 150.247
L255.239 160.363
L256.044 161.011
L256.849 165.312
L257.654 162.199
L258.459 155.776
L259.264 151.672
L260.069 150.486
L260.874 150.697
L261.678 137.726
L262.483 151.967
L263.287 152.056
L264.092 147.492
L264.896 147.816
L265.701 148.699
L266.505 150.273
L267.309 150.474
L268.113 143.288
L268.917 146.047
L269.722 152.553
L270.526 168.614
L271.33 172.958
L272.133 173.658
L272.937 170.014
L273.741 169.355
L274.545 164.909
L275.349 158.498
L276.956 150.753
L277.759 143.143
L278.563 141.007
L279.366 142.915
L280.17 136.319
L281.776 143.673
L282.579 141.45
L283.382 143.129
L284.186 138.908
L284.989 140.182
L285.792 138.621
L286.594 144.517
L287.397 146.064
L288.2 143.223
L289.003 143.551
L289.805 144.63
L290.608 158.254
L291.411 154.171
L292.213 148.452
L293.818 146.666
L294.62 141.201
L295.423 150.615
L296.225 147.082
L297.027 154.989
L297.829 151.9
L298.631 157.799
L299.433 155.017
L300.235 155.065
L301.037 160.351
L301.839 162.651
L302.641 162.975
L303.442 160.872
L304.244 161.948
L305.046 155.943
L305.847 167.527
L306.649 184.321
L307.45 194.424
L308.252 189.832
L309.053 183.169
L309.854 173.01
L310.655 159.273
L313.059 144.879
L313.86 148.065
L314.661 146.082
L315.462 136.384
L316.262 132.569
L317.063 140.634
L317.864 140.048
L318.665 135.595
L319.465 138.886
L320.266 136.711
L321.066 144.826
L321.867 136.606
L322.667 137.286
L323.467 134.19
L324.268 142.936
L325.068 142.546
L325.868 144.039
L326.668 136.153
L328.268 141.6
L329.068 133.905
L329.868 133.666
L330.668 139.163
L331.467 134.86
L332.267 142.5
L333.067 139.445
L333.866 137.279
L334.666 154.352
L336.265 178.049
L337.064 172.341
L339.462 143.151
L340.261 142.164
L341.06 146.617
L341.859 140.53
L342.658 138.86
L343.457 143.326
L344.256 139.715
L345.054 126.64
L345.853 136.525
L346.652 128.14
L347.451 130.603
L348.249 123.2
L349.048 129.11
L350.644 124.811
L351.443 127.061
L352.241 139.037
L353.039 136.3
L354.636 135.188
L355.434 143.534
L356.232 140.428
L357.03 144.389
L357.827 146.212
L358.625 146.405
L359.423 147.74
L360.221 148.734
L361.018 155.276
L361.816 154.981
L362.614 157.486
L363.411 165.31
L364.209 166.607
L365.006 160.46
L365.803 169.682
L366.601 165.016
L367.398 167.65
L368.195 156.496
L368.992 159.772
L369.789 156.927
L370.586 162.815
L371.383 164.094
L372.18 173.241
L373.773 165.191
L374.57 167.625
L376.163 155.065
L376.96 155.276
L377.756 156.496
L378.553 150.637
L379.349 143.704
L380.145 150.512
L380.942 146.501
L381.738 141.794
L382.534 142.951
L383.33 145.026
L384.126 148.753
L384.922 141.337
L385.718 150.561
L386.514 142.332
L387.31 148.197
L388.105 137.369
L388.901 145.872
L389.697 138.332
L390.492 139.013
L391.288 142.009
L392.083 141.562
L392.879 143.987
L393.674 141.565
L394.469 145.081
L395.265 137.863
L396.06 138.15
L396.855 147.186
L397.65 143.66
L398.445 138.39
L399.24 141.203
L400.035 146.529
L400.83 143.536
L401.624 148.338
L402.419 146.349
L403.214 138.572
L404.008 135.232
L404.803 136.927
L405.597 142.381
L406.392 136.964
L407.186 144.2
L407.981 144.818
L408.775 133.924
L409.569 135.473
L410.363 136.084
L411.157 136.945
L411.951 139.707
L412.745 140.062
L413.539 142.427
L414.333 135.839
L415.127 136.933
L415.921 132.249
L416.714 131.163
L417.508 140.334
L418.302 140.587
L419.095 142.722
L419.889 140.485
L420.682 139.405
L421.475 147.723
L422.269 139.224
L423.062 142.596
L424.648 135.076
L426.234 139.759
L427.027 141.039
L427.82 144.3
L428.613 142.33
L429.406 144.9
L430.199 140.25
L430.991 148.427
L431.784 141.675
L432.577 142.368
L433.369 133.129
L434.162 149.582
L434.954 136.737
L435.746 134.486
L436.539 139.011
L437.331 132.157
L438.123 143.846
L438.915 141.309
L439.707 153.437
L440.499 137.453
L441.291 145.974
L442.875 135.391
L443.667 130.15
L444.458 119.733
L445.25 124.702
L446.042 139.721
L446.833 137.62
L447.625 138.258
L448.416 130.848
L449.208 133.637
L449.999 126.987
L450.79 124.621
L451.581 124.367
L452.372 142.267
L453.164 143.504
L453.955 146.592
L454.746 144.342
L455.536 140.941
L456.327 143
L457.118 140.738
L457.909 138.92
L458.7 142.442
L459.49 144.671
L460.281 139.409
L461.071 143.258
L461.862 132.461
L462.652 138.367
L463.443 128.161
L464.233 139.891
L465.023 133.472
L465.813 138.762
L466.603 130.505
L467.394 125.623
L468.974 140.071
L469.763 140.305
L470.553 132.52
L471.343 141.884
L472.133 135.25
L472.922 143.416
L473.712 133.074
L474.502 130.076
L475.291 123.484
L476.081 119.826
L476.87 120.81
L477.659 116.63
L478.449 109.574
L479.238 114.898
L480.027 121.934
L480.816 134.679
L481.605 137.351
L483.183 145.287
L483.972 144.519
L484.761 135.932
L485.55 138.843
L486.338 138.998
L487.127 137.077
L487.915 139.957
L488.704 145.09
L489.492 134.773
L490.281 139.117
L491.069 139.15
L491.858 138.689
L492.646 139.688
L493.434 146.46
L494.222 138.743
L495.01 150.378
L495.798 149.653
L496.586 145.136
L497.374 142.229
L498.162 138.082
L498.95 136.135
L499.738 121.498
L500.525 136.014
L501.313 131.355
L502.888 135.105
L503.675 144.531
L504.463 140.925
L505.25 143.153
L506.037 137.089
L506.825 140.145
L507.612 135.259
L508.399 141.875
L509.186 137.912
L509.973 148.378
L510.76 134.247
L511.547 136.261
L512.334 140.677
L513.12 136.581
L513.907 136.445
L514.694 135.967
L515.48 137.186
L516.267 135.949
L517.053 141.265
L517.84 134.271
L518.626 137.601
L519.413 137.242
L520.199 137.647
L520.985 140.26
L521.771 156.8
L522.557 153.313
L523.343 160.958
L524.129 154.718
L524.915 144.933
L525.701 146.122
L526.487 146.729
L527.273 131.147
L528.058 146.69
L528.844 144.348
L529.63 149.366
L530.415 153.241
L531.2 145.833
L531.986 149.258
L532.771 148.429
L533.557 141.496
L534.342 140.117
L535.127 143.319
L535.912 145.258
L536.697 140.045
L537.482 140.863
L538.267 142.424
L539.052 145.878
L539.837 140.683
L540.622 148.575
L541.406 150.723
L542.191 147.589
L542.976 151.894
L543.76 143.578
L544.545 141.344
L545.329 142.508
L546.113 145.972
L546.898 148.704
L547.682 149.157
L548.466 147.005
L549.25 141.085
L550.034 156.628
L550.818 157.845
L551.602 151.106
L552.386 160.935
L553.17 157.093
L553.954 160.252
L554.738 157.22
L555.522 156.853
L556.305 166.663
L557.089 169.142
L557.872 171.172
L559.439 164.963
L560.222 165.238
L561.006 154.226
L561.789 149.459
L562.572 154.818
L563.355 161.873
L564.138 167.317
L564.921 167.768
L565.704 169.56
L566.487 168.059
L567.27 168.677
L568.053 167.983
L568.836 166.638
L569.618 164.069
L570.401 159.903
L571.183 157.167
L571.966 158.661
L572.748 150.096
L574.313 138.445
L575.095 126.499
L575.877 125.893
L576.66 133.375
L577.442 146.456
L578.224 149.059
L579.006 147.678
L579.788 152.567
L580.57 152.328
L581.351 155.013
L582.133 154.526
L582.915 155.002
L583.696 144.376
L584.478 132.069
L585.259 121.754
L586.041 122.912
L586.822 125.373
L587.604 133.327
L588.385 137.374
L589.166 127.594
L589.947 131.567
L590.729 126.796
L593.072 139.331
L593.852 145.862
L594.633 139.506
L595.414 137.13
L596.195 142.915
L596.975 141.134
L597.756 141.743
L598.537 140.229
L599.317 141.238
L600.098 143.755
L600.878 136.965
L602.438 160.11
L603.219 168.327
L603.999 166.665
L604.779 154.997
L605.559 154.446
L606.339 146.776
L607.119 157.216
L607.899 141.189
L608.679 145.465
L609.458 143.612
L610.238 139.764
L611.018 140.617
L611.797 138.323
L612.577 141.702
L613.356 144.051
L614.136 141.66
L614.915 145.03
L615.694 137.036
L616.473 142.377
L618.032 144.113
L618.811 139.406
L619.59 142.502
L620.369 137.632
L621.148 133.919
L621.926 138.005
L622.705 137.551
L623.484 138.862
L624.263 136.138
L625.041 146.594
L625.82 148.579
L626.598 145.23
L627.377 141.265
L628.155 143.878
L628.933 143.694
L629.712 142.209
L630.49 149.386
L631.268 147.245
L632.046 148.461
L632.824 146.68
L633.602 145.557
L634.38 139.308
L635.158 144.082
L635.936 143.051
L636.713 137.929
L637.491 131.058
L638.269 119.886
L639.046 102.763
L639.824 97.7822
L640.601 104.659
L642.156 134.401
L642.933 134.607
L643.71 139.885
L644.488 143.538
L645.265 139.438
L646.042 131.424
L646.819 131.303
L647.596 131.622
L648.373 135.61
L649.149 142.59
L649.926 139.591
L650.703 141.032
L651.479 145.573
L652.256 154.792
L653.033 167.976
L653.809 189.941
L654.586 229.284
L655.362 258.122
L656.138 276.052
L656.914 249.983
L658.467 181.152
L659.243 160.767
L660.019 147.968
L660.795 146.766
L661.571 146.324
L662.347 151.008
L663.122 142.549
L663.898 140.809
L664.674 131.942
L665.449 133.346
L666.225 139.995
L667 139.806
L667.776 132.094
L668.551 125.951
L669.327 132.78
L670.102 133.494
L670.877 141.721
L671.652 147.421
L672.427 139.929
L673.202 135.159
L673.977 136.392
L674.752 132.167
L675.527 139
L676.302 130.681
L677.077 126.709
L677.851 134.301
L678.626 131.644
L679.401 133.328
L680.175 139.027
L680.95 143.498
L681.724 137.211
L682.498 141.978
L683.273 139.901
L684.047 139.357
L684.821 145.598
L685.595 135.388
L686.369 144.659
L687.143 145.416
L687.917 142.93
L688.691 142.693
L689.465 134.749
L690.239 139.519
L691.012 132.9
L691.786 131.093
L692.56 133.043
L693.333 142.303
L694.107 141.27
L694.88 141.919
L695.654 143.977
L696.427 142.845
L697.2 136.325
L697.973 146.408
L698.747 144.121
L699.52 145.932
L700.293 150.571
L701.066 153.896
L701.839 155.785
L702.611 162.756
L703.384 171.188
L704.157 169.73
L704.93 171.601
L705.702 163.549
L706.475 151.302
L707.247 155.331
L708.02 142.676
L708.792 141.519
L710.337 148.166
L711.109 143.322
L711.881 151.84
L712.653 146.687
L713.425 147.466
L714.197 142.926
L714.969 153.232
L715.741 152.033
L716.513 146.635
L717.285 157.334
L718.056 157.063
L718.828 164.086
L719.6 151.435
L720.371 145.444
L721.143 150.943
L721.914 145.408
L722.685 142.833
L723.457 143.667
L724.228 139.005
L724.999 143.802
L725.77 144.781
L726.541 148.276
L727.312 146.167
L728.083 141.846
L728.854 150.868
L729.625 141.027
L730.396 150.563
L731.167 143.426
L731.937 141.457
L732.708 148.571
L733.478 148.57
L734.249 142.848
L735.019 148.436
L735.79 136.796
L737.33 147.005
L738.1 146.846
L738.871 148.674
L739.641 144.434
L740.411 139.53
L741.181 140.476
L741.951 142.081
L742.721 138.73
L743.49 145.599
L744.26 139.132
L745.03 136.635
L745.799 137.979
L746.569 142.389
L747.338 138.203
L748.108 145.247
L748.877 148.534
L749.647 147.012
L750.416 144.104
L751.185 142.498
L751.954 135.255
L752.723 140.695
L753.492 140.77
L754.261 147.411
L755.03 141.026
L755.799 140.832
L756.568 139.469
L757.337 134.286
L758.106 136.968
L758.874 137.133
L759.643 134.92
L760.411 134.56
L761.18 133.977
L761.948 128.89
L762.717 127.539
L763.485 124.805
L764.253 124.505
L765.021 127.125
L765.789 125.095
L766.558 129.799
L767.326 132.372
L768.094 145.892
L768.861 133.659
L769.629 139.976
L771.165 148.834
L771.932 146.442
L772.7 148.914
L773.468 145.871
L774.235 146.16
L775.77 143.403
L776.537 133.981
L777.304 130.625
L778.072 138.826
L778.839 139.999
L779.606 141.838
L780.373 140.223
L781.14 137.276
L781.907 137.212
L782.674 139.889
L783.44 149.209
L784.207 148.768
L784.974 138.425
L785.74 144.174
L786.507 140.783
L787.274 136.271
L788.04 138.635
L788.806 147.876
L789.573 155.564
L790.339 150.754
L791.105 150.046
L791.871 142.442
L793.404 134.371
L794.17 141.449
L794.935 133.909
L795.701 141.846
L796.467 137.579
L797.233 140.645
L797.999 139.171
L798.764 140.351
L799.53 136.582
L800.295 138.169
L801.061 136.037
L801.826 142.069
L802.592 145.443
L803.357 146.797
L804.122 138.665
L804.887 138.538
L805.652 149.319
L806.417 136.168
L807.182 140.636
L807.947 145.769
L808.712 159.471
L809.477 175.911
L810.242 166.028
L811.007 159.738
L811.771 155.379
L812.536 149.122
L813.3 149.633
L814.065 144.856
L814.829 144.649
L815.594 141.496
L816.358 137.847
L817.122 136.266
L817.886 140.735
L818.651 142.251
L819.415 149.972
L820.179 132.384
L820.943 137.634
L821.707 146.352
L822.47 134.592
L823.234 141.298
L823.998 141.965
L824.762 143.229
L825.525 146.651
L826.289 141.262
L827.052 140.844
L827.816 140.763
L828.579 155.195
L829.342 176.484
L830.106 184.734
L830.869 186.855
L831.632 178.529
L833.158 150.751
L833.921 143.085
L834.684 149.002
L835.447 134.165
L836.21 138.904
L836.972 138.264
L837.735 142.334
L838.498 131.937
L839.26 129.627
L840.023 137.773
L840.785 138.97
L841.548 141.447
L842.31 140.781
L843.072 145.247
L843.835 137.255
L844.597 140.548
L845.359 137.044
L846.121 137.834
L846.883 147.701
L847.645 145.382
L848.407 140.44
L849.168 141.004
L849.93 133.948
L850.692 136.011
L851.454 141.05
L852.215 123.046
L852.977 132.113
L853.738 133.626
L854.5 137.79
L855.261 147.024
L856.022 154.54
L856.783 152.704
L857.545 147.711
L858.306 138.605
L859.067 149.013
L859.828 143.355
L860.589 162.481
L861.35 156.592
L862.11 143.818
L862.871 146.684
L863.632 141.025
L865.153 143.745
L865.914 138.686
L866.674 143.155
L867.435 144.868
L868.195 141.575
L868.955 142.01
L869.716 143.376
L870.476 146.62
L871.236 145.931
L871.996 148.173
L872.756 140.609
L873.516 142.845
L874.276 148.882
L875.036 140.465
L875.795 137.099
L876.555 136.27
L877.315 139.939
L878.074 133.136
L878.834 142.238
L879.594 142.433
L880.353 137.539
L881.112 143.984
L881.872 134.929
L882.631 133.455
L883.39 143.694
L884.908 148.219
L885.667 149.275
L886.426 140.884
L887.185 150.424
L887.944 143.61
L888.703 149.029
L889.462 152.819
L890.22 157.842
L890.979 151.618
L891.737 158.046
L893.254 174.518
L894.013 187.22
L894.771 195.718
L895.529 181.517
L896.288 178.824
L897.046 163.667
L897.804 153.083
L898.562 153.135
L899.32 136.69
L900.078 136.059
L900.836 128.442
L901.593 138.027
L902.351 138.244
L903.109 136.645
L903.867 147.565
L904.624 140.167
L905.382 137.2
L906.139 133.416
L906.896 138.162
L907.654 146.184
L908.411 136.165
L909.168 143.818
L909.926 136.616
L910.683 138.022
L911.44 141.96
L912.197 141.972
L912.954 143.786
L913.71 149.058
L914.467 142.77
L915.224 142.171
L915.981 134.379
L916.737 138.658
L917.494 144.452
L918.25 145.129
L919.007 141.785
L919.763 137.721
L920.52 138.398
L921.276 144.404
L922.032 141.698
L922.788 137.723
L923.545 134.425
L924.301 132.2
L925.057 139.584
L925.813 138.952
L926.568 141.548
L927.324 146.823
L928.08 140.988
L928.836 147.324
L929.591 150.094
L930.347 141.038
L931.102 142.448
L931.858 148.887
L932.613 150.071
L933.369 161.457
L934.124 160.862
L934.879 165.885
L935.634 156.533
L936.39 153.54
L937.145 145.737
L937.9 140.489
L938.655 137.622
L939.409 136.056
L940.164 133.431
L940.919 141.728
L941.674 143.018
L942.428 143.669
L943.183 141.026
L943.938 140.392
L944.692 140.835
L945.447 138.876
L946.201 136.158
L946.955 135.255
L947.709 142.986
L948.464 136.121
L949.218 143.547
L949.972 141.739
L950.726 141.659
L951.48 149.52
L952.234 136.684
L952.988 145.601
L953.741 161.178
L954.495 161.918
L955.249 164.723
L956.002 163.907
L956.756 143.995
L957.509 149.059
L958.263 146.768
L959.016 147.16
L959.77 162.892
L960.523 169.794
L961.276 166.154
L962.029 165.56
L962.782 160.829
L963.535 157.604
L964.288 153.237
L965.041 139.204
L965.794 138.891
L966.547 144.094
L967.299 142.673
L968.052 141.836
L968.805 141.992
L969.557 132.652
L971.062 120.76
L971.815 125.626
L972.567 134.545
L973.319 130.972
L974.071 131.27
L974.824 136.111
L975.576 137.703
L976.328 134.079
L977.08 129.439
L977.832 131.64
L978.583 130.109
L979.335 133.108
L980.087 133.714
L980.839 142.841
L981.59 141.428
L982.342 144.128
L983.093 138.165
L983.845 138.393
L984.596 142.775
L985.348 137.726
L986.099 134.203
L986.85 144.159
L987.601 144.553
L988.352 132.55
L989.103 144.326
L989.854 146.587
L990.605 138.266
L991.356 147.141
L992.107 148.114
L992.858 150.367
L993.608 144.998
L994.359 141.082
L995.109 139.176
L995.86 155.251
L996.61 141.506
L997.361 145.862
L998.111 149.305
L998.861 142.507
L999.612 139.184
L1000.36 139.351
L1001.11 144.013
L1002.61 164.598
L1003.36 165.385
L1004.11 170.485
L1004.86 160.595
L1005.61 157.569
L1006.36 150.847
L1007.11 149.573
L1007.86 150.317
L1008.61 148.208
L1008.61 148.208" style="fill:none;stroke:#000000;stroke-linecap:square;stroke-width:3;"/>
   </g>
  </g>
 </g>
 <defs>
  <clipPath id="p6c2c4a6cf7">
   <rect height="288.0" width="1008.0" x="0.0" y="0.0"/>
  </clipPath>
 </defs>
</svg>
