<?xml version="1.0" encoding="utf-8" standalone="no"?>
<!DOCTYPE svg PUBLIC "-//W3C//DTD SVG 1.1//EN"
  "http://www.w3.org/Graphics/SVG/1.1/DTD/svg11.dtd">
<!-- Created with matplotlib (http://matplotlib.org/) -->
<svg height="504pt" version="1.1" viewBox="0 0 252 504" width="252pt" xmlns="http://www.w3.org/2000/svg" xmlns:xlink="http://www.w3.org/1999/xlink">
 <defs>
  <style type="text/css">
*{stroke-linecap:butt;stroke-linejoin:round;}
  </style>
 </defs>
 <g id="figure_1">
  <g id="patch_1">
   <path d="
M0 504
L252 504
L252 0
L0 0
z
" style="fill:#ffffff;"/>
  </g>
  <g id="axes_1">
   <g id="patch_2">
    <path d="
M47.88 168
L236.88 168
L236.88 20.16
L47.88 20.16
z
" style="fill:#ffffff;"/>
   </g>
   <g id="PolyCollection_1">
    <defs>
     <path d="
M48.9989 -376.107
L48.9989 -366.439
L51.3172 -367.769
L53.6353 -366.517
L55.9532 -365.947
L58.271 -366.054
L60.5886 -366.776
L62.906 -368.055
L65.2232 -366.006
L67.5403 -366.545
L69.8572 -364.612
L72.1739 -367.03
L74.4904 -366.16
L76.8067 -368.074
L79.1229 -369.002
L81.4389 -367.981
L83.7547 -365.625
L86.0703 -367.466
L88.3858 -368.328
L90.7011 -366.884
L93.0162 -367.937
L95.3311 -366.548
L97.6458 -365.216
L99.9604 -367.544
L102.275 -366.163
L104.589 -367.33
L106.903 -365.142
L109.217 -366.412
L111.531 -365.995
L113.844 -366.513
L116.157 -366.391
L118.471 -366.346
L120.784 -366.154
L123.096 -366.892
L125.409 -368.222
L127.721 -367.668
L130.034 -366.001
L132.346 -366.467
L134.658 -366.647
L136.969 -365.548
L139.281 -366.312
L141.592 -367.492
L143.903 -365.363
L146.214 -367.7
L148.525 -366.582
L150.836 -368.358
L153.146 -368.141
L155.457 -366.03
L157.767 -367.346
L160.077 -365.638
L162.387 -367.15
L164.696 -367.95
L167.006 -367.977
L169.315 -367.493
L171.624 -367.508
L173.933 -364.998
L176.241 -367.176
L178.55 -365.986
L180.858 -366.335
L183.167 -366.907
L185.475 -365.432
L187.782 -367.548
L190.09 -366.074
L192.397 -364.641
L194.705 -367.417
L197.012 -365.608
L199.319 -365.715
L201.625 -367.108
L203.932 -368.049
L206.238 -368.189
L208.545 -367.197
L210.851 -368.161
L213.156 -367.422
L215.462 -365.344
L217.768 -366.919
L220.073 -366.517
L222.378 -366.404
L224.683 -367.372
L226.988 -366.027
L229.292 -366.028
L231.597 -365.932
L233.901 -364.943
L236.205 -366.944
L236.205 -374.407
L236.205 -374.407
L233.901 -375.168
L231.597 -374.433
L229.292 -372.996
L226.988 -374.36
L224.683 -374.09
L222.378 -372.634
L220.073 -373.93
L217.768 -374.58
L215.462 -374.032
L213.156 -373.789
L210.851 -372.257
L208.545 -372.872
L206.238 -373.176
L203.932 -372.232
L201.625 -373.224
L199.319 -374.022
L197.012 -373.358
L194.705 -373.376
L192.397 -374.773
L190.09 -376.304
L187.782 -372.722
L185.475 -374.684
L183.167 -374.251
L180.858 -372.897
L178.55 -373.548
L176.241 -372.748
L173.933 -371.601
L171.624 -373.602
L169.315 -373.682
L167.006 -376.317
L164.696 -375.174
L162.387 -372.65
L160.077 -374.942
L157.767 -372.299
L155.457 -374.904
L153.146 -376.04
L150.836 -374.011
L148.525 -374.47
L146.214 -374.02
L143.903 -373.219
L141.592 -373.993
L139.281 -374.448
L136.969 -374.392
L134.658 -375.503
L132.346 -375.033
L130.034 -373.212
L127.721 -372.339
L125.409 -372.378
L123.096 -373.585
L120.784 -373.519
L118.471 -372.623
L116.157 -373.235
L113.844 -374.749
L111.531 -373.472
L109.217 -373.719
L106.903 -373.654
L104.589 -373.818
L102.275 -371.944
L99.9604 -372.819
L97.6458 -372.319
L95.3311 -373.585
L93.0162 -374.234
L90.7011 -372.367
L88.3858 -371.775
L86.0703 -373.683
L83.7547 -373.586
L81.4389 -373.299
L79.1229 -372.684
L76.8067 -374.417
L74.4904 -373.516
L72.1739 -373.567
L69.8572 -374.481
L67.5403 -372.71
L65.2232 -374.353
L62.906 -372.159
L60.5886 -373.298
L58.271 -373.78
L55.9532 -373.842
L53.6353 -374.074
L51.3172 -373.775
L48.9989 -376.107
z
" id="C0_0_04934a2ff0"/>
    </defs>
    <g clip-path="url(#p841f4d221e)">
     <use style="fill:#0000ff;fill-opacity:0.4;stroke:#000000;stroke-opacity:0.4;" x="0.0" xlink:href="#C0_0_04934a2ff0" y="504.0"/>
    </g>
   </g>
   <g id="line2d_1">
    <path clip-path="url(#p841f4d221e)" d="
M47.88 103.722
L236.88 103.722" style="fill:none;stroke:#4c4c4c;stroke-dasharray:1.000000,3.000000;stroke-dashoffset:0.0;"/>
   </g>
   <g id="line2d_2">
    <path clip-path="url(#p841f4d221e)" d="
M48.9989 100.794
L50.158 100.794
L50.158 103.078
L54.7942 103.031
L54.7942 104.399
L57.1121 104.399
L57.1121 104.692
L59.4298 104.692
L59.4298 102.134
L61.7473 102.134
L61.7473 102.465
L64.0646 102.465
L64.0646 102.681
L66.3817 102.681
L66.3817 106.711
L68.6987 106.711
L68.6987 101.505
L71.0155 101.505
L71.0155 104.885
L75.6486 104.905
L75.6486 101.281
L77.9648 101.281
L77.9648 102.741
L80.2809 102.741
L80.2809 103.837
L82.5968 103.837
L82.5968 101.685
L84.9125 101.685
L84.9125 104.166
L87.2281 104.166
L87.2281 103.966
L89.5434 103.966
L89.5434 105.364
L91.8586 105.364
L91.8586 99.6048
L94.1736 99.6048
L94.1736 104.093
L96.4885 104.093
L96.4885 104.27
L98.8031 104.27
L98.8031 102.837
L101.118 102.837
L101.118 103.839
L103.432 103.839
L103.432 102.002
L105.746 102.002
L105.746 104.128
L108.06 104.128
L108.06 100.772
L110.374 100.772
L110.374 105.245
L112.687 105.245
L112.687 101.012
L115.001 101.012
L115.001 101.47
L117.314 101.47
L117.314 104.816
L119.627 104.816
L119.627 103.379
L121.94 103.379
L121.94 103.693
L124.253 103.693
L124.253 104.59
L126.565 104.59
L126.565 101.499
L128.878 101.499
L128.878 102.026
L131.19 102.026
L131.19 101.004
L133.502 101.004
L133.502 105.054
L135.813 105.054
L135.813 103.534
L138.125 103.534
L138.125 101.463
L140.437 101.463
L140.437 104.308
L142.748 104.308
L142.748 102.766
L145.059 102.766
L145.059 105.557
L147.37 105.557
L147.37 104.007
L149.681 104.007
L149.681 103.323
L151.991 103.323
L151.991 103.795
L154.302 103.795
L154.302 104.718
L156.612 104.718
L156.612 103.745
L158.922 103.745
L158.922 106.802
L161.232 106.802
L161.232 106.505
L163.541 106.505
L163.541 100.077
L165.851 100.077
L165.851 101.635
L168.16 101.635
L168.16 101.445
L170.469 101.445
L170.469 101.169
L172.778 101.169
L172.778 104.049
L175.087 104.049
L175.087 101.09
L177.396 101.09
L177.396 103.928
L179.704 103.928
L179.704 101.101
L182.012 101.101
L182.012 106.872
L184.321 106.872
L184.321 104.931
L186.628 104.931
L186.628 104.288
L188.936 104.288
L188.936 101.515
L191.244 101.515
L191.244 105.006
L193.551 105.006
L193.551 103.356
L195.858 103.356
L195.858 103.067
L198.165 103.067
L198.165 103.843
L200.472 103.843
L200.472 103.965
L202.779 103.965
L202.779 103.706
L205.085 103.706
L205.085 103.397
L207.392 103.397
L207.392 100.966
L209.698 100.966
L209.698 103.983
L212.004 103.983
L212.004 104.211
L214.309 104.211
L214.309 102.651
L216.615 102.651
L216.615 104.828
L218.92 104.828
L218.92 103.284
L221.226 103.284
L221.226 104.312
L223.531 104.312
L223.531 105.667
L225.835 105.667
L225.835 106.7
L228.14 106.7
L228.14 103.219
L230.445 103.219
L230.445 102.343
L232.749 102.343
L232.749 103.696
L235.053 103.696
L235.053 103.192
L236.205 103.192
L236.205 103.192" style="fill:none;stroke:#000000;stroke-linecap:square;"/>
   </g>
   <g id="line2d_3">
    <path clip-path="url(#p841f4d221e)" d="
M47.88 73.56
L236.88 73.56" style="fill:none;stroke:#4c4c4c;stroke-dasharray:1.000000,3.000000;stroke-dashoffset:0.0;"/>
   </g>
   <g id="line2d_4">
    <path clip-path="url(#p841f4d221e)" d="
M48.9989 77.2382
L50.158 77.2382
L50.158 69.9016
L52.4762 69.9016
L52.4762 76.2036
L54.7942 76.2036
L54.7942 75.3485
L57.1121 75.3485
L57.1121 72.9384
L59.4298 72.9384
L59.4298 75.1797
L61.7473 75.1797
L61.7473 72.4164
L64.0646 72.4164
L64.0646 71.8063
L66.3817 71.8063
L66.3817 76.2687
L68.6987 76.2687
L68.6987 69.196
L71.0155 69.196
L71.0155 74.7629
L73.3321 74.7629
L73.3321 70.1607
L75.6486 70.1607
L75.6486 73.3044
L77.9648 73.3044
L77.9648 73.0139
L80.2809 73.0139
L80.2809 72.6082
L82.5968 72.6082
L82.5968 70.3117
L84.9125 70.3117
L84.9125 75.8462
L87.2281 75.8462
L87.2281 75.1144
L89.5434 75.1144
L89.5434 76.5722
L91.8586 76.5722
L91.8586 73.3866
L94.1736 73.3866
L94.1736 73.0502
L96.4885 73.0502
L96.4885 71.8061
L98.8031 71.8061
L98.8031 74.4433
L103.432 74.3949
L103.432 73.7732
L105.746 73.7732
L105.746 70.4453
L108.06 70.4453
L108.06 71.5184
L110.374 71.5184
L110.374 77.6823
L112.687 77.6823
L112.687 76.5081
L115.001 76.5081
L115.001 77.2859
L117.314 77.2859
L117.314 71.514
L119.627 71.514
L119.627 75.5118
L121.94 75.5118
L121.94 76.5568
L124.253 76.5568
L124.253 72.0127
L126.565 72.0127
L126.565 73.8429
L131.19 73.9121
L131.19 74.0223
L133.502 74.0223
L133.502 68.1738
L135.813 68.1738
L135.813 73.3235
L138.125 73.3235
L138.125 77.3649
L140.437 77.3649
L140.437 74.648
L142.748 74.648
L142.748 74.3685
L145.059 74.3685
L145.059 75.0314
L147.37 75.0314
L147.37 71.754
L149.681 71.754
L149.681 73.8591
L151.991 73.8591
L151.991 72.2258
L154.302 72.2258
L154.302 74.6748
L156.612 74.6748
L156.612 76.331
L158.922 76.331
L158.922 75.1009
L161.232 75.1009
L161.232 73.2071
L163.541 73.2071
L163.541 71.946
L165.851 71.946
L165.851 72.8614
L168.16 72.8614
L168.16 72.4691
L170.469 72.4691
L170.469 72.9668
L172.778 72.9668
L172.778 75.4411
L175.087 75.4411
L175.087 72.6856
L177.396 72.6856
L177.396 72.9317
L179.704 72.9317
L179.704 73.318
L182.012 73.318
L182.012 75.0943
L184.321 75.0943
L184.321 74.8963
L186.628 74.8963
L186.628 73.6492
L188.936 73.6492
L188.936 71.7179
L191.244 71.7179
L191.244 72.4422
L193.551 72.4422
L193.551 72.705
L198.165 72.6397
L198.165 70.9455
L200.472 70.9455
L200.472 75.0063
L202.779 75.0063
L202.779 72.5352
L205.085 72.5352
L205.085 74.6197
L207.392 74.6197
L207.392 74.2991
L209.698 74.2991
L209.698 73.4082
L212.004 73.4082
L212.004 73.1819
L214.309 73.1819
L214.309 71.9566
L216.615 71.9566
L216.615 73.3341
L218.92 73.3341
L218.92 72.252
L221.226 72.252
L221.226 77.2734
L223.531 77.2734
L223.531 73.933
L225.835 73.933
L225.835 72.2761
L228.14 72.2761
L228.14 74.5206
L230.445 74.5206
L230.445 75.3545
L232.749 75.3545
L232.749 78.7339
L235.053 78.7339
L235.053 71.2956
L236.205 71.2956
L236.205 71.2956" style="fill:none;stroke:#000000;stroke-linecap:square;"/>
   </g>
   <g id="line2d_5">
    <path clip-path="url(#p841f4d221e)" d="
M47.88 43.3985
L236.88 43.3985" style="fill:none;stroke:#4c4c4c;stroke-dasharray:1.000000,3.000000;stroke-dashoffset:0.0;"/>
   </g>
   <g id="line2d_6">
    <path clip-path="url(#p841f4d221e)" d="
M48.9989 45.6097
L50.158 45.6097
L50.158 42.8786
L52.4762 42.8786
L52.4762 40.3956
L54.7942 40.3956
L54.7942 47.568
L57.1121 47.568
L57.1121 42.9857
L59.4298 42.9857
L59.4298 45.0018
L61.7473 45.0018
L61.7473 43.4173
L64.0646 43.4173
L64.0646 40.9874
L66.3817 40.9874
L66.3817 40.8054
L68.6987 40.8054
L68.6987 42.6839
L71.0155 42.6839
L71.0155 45.4789
L73.3321 45.4789
L73.3321 45.9578
L75.6486 45.9578
L75.6486 41.6342
L77.9648 41.6342
L77.9648 43.2116
L80.2809 43.2116
L80.2809 44.1696
L82.5968 44.1696
L82.5968 41.6355
L84.9125 41.6355
L84.9125 45.3617
L87.2281 45.3617
L87.2281 42.3403
L89.5434 42.3403
L89.5434 44.1266
L94.1736 44.1435
L94.1736 46.9676
L96.4885 46.9676
L96.4885 44.1384
L98.8031 44.1384
L98.8031 41.8966
L101.118 41.8966
L101.118 42.3502
L103.432 42.3502
L103.432 43.2554
L105.746 43.2554
L105.746 43.4777
L108.06 43.4777
L108.06 44.377
L110.374 44.377
L110.374 42.3391
L112.687 42.3391
L112.687 44.5149
L115.001 44.5149
L115.001 41.4348
L117.314 41.4348
L117.314 42.8682
L119.627 42.8682
L119.627 46.4645
L121.94 46.4645
L121.94 46.623
L124.253 46.623
L124.253 43.6646
L126.565 43.6646
L126.565 43.3474
L128.878 43.3474
L128.878 46.8988
L131.19 46.8988
L131.19 46.3013
L133.502 46.3013
L133.502 43.2211
L138.125 43.236
L138.125 43.657
L140.437 43.657
L140.437 42.3872
L142.748 42.3872
L142.748 48.1523
L145.059 48.1523
L145.059 44.5327
L147.37 44.5327
L147.37 41.0004
L149.681 41.0004
L149.681 44.7666
L151.991 44.7666
L151.991 41.1043
L154.302 41.1043
L154.302 44.1769
L156.612 44.1769
L156.612 42.9459
L158.922 42.9459
L158.922 46.2863
L161.232 46.2863
L161.232 45.3046
L163.541 45.3046
L163.541 38.341
L165.851 38.341
L165.851 40.7742
L168.16 40.7742
L168.16 46.0222
L170.469 46.0222
L170.469 43.297
L172.778 43.297
L172.778 46.7875
L175.087 46.7875
L175.087 43.5598
L177.396 43.5598
L177.396 41.7249
L179.704 41.7249
L179.704 45.1947
L182.012 45.1947
L182.012 45.5342
L184.321 45.5342
L184.321 48.0837
L186.628 48.0837
L186.628 43.821
L188.936 43.821
L188.936 47.4418
L191.244 47.4418
L191.244 42.5577
L193.551 42.5577
L193.551 40.5841
L195.858 40.5841
L195.858 44.1457
L198.165 44.1457
L198.165 41.4787
L200.472 41.4787
L200.472 43.3896
L202.779 43.3896
L202.779 43.1985
L205.085 43.1985
L205.085 41.7513
L207.392 41.7513
L207.392 45.0753
L209.698 45.0753
L209.698 44.221
L212.004 44.221
L212.004 42.5153
L214.309 42.5153
L214.309 43.3553
L216.615 43.3553
L216.615 42.5768
L218.92 42.5768
L218.92 43.565
L221.226 43.565
L221.226 41.7995
L223.531 41.7995
L223.531 44.3624
L228.14 44.3313
L228.14 41.7021
L230.445 41.7021
L230.445 39.5734
L232.749 39.5734
L232.749 42.6888
L235.053 42.6888
L235.053 44.5732
L236.205 44.5732
L236.205 44.5732" style="fill:none;stroke:#000000;stroke-linecap:square;"/>
   </g>
   <g id="matplotlib.axis_1">
    <g id="xtick_1">
     <g id="line2d_7">
      <defs>
       <path d="
M0 0
L0 -4" id="mc7db9fdffb" style="stroke:#000000;stroke-width:0.5;"/>
      </defs>
      <g>
       <use style="stroke:#000000;stroke-width:0.5;" x="74.88" xlink:href="#mc7db9fdffb" y="168.0"/>
      </g>
     </g>
     <g id="line2d_8">
      <defs>
       <path d="
M0 0
L0 4" id="m5a7d422ac3" style="stroke:#000000;stroke-width:0.5;"/>
      </defs>
      <g>
       <use style="stroke:#000000;stroke-width:0.5;" x="74.88" xlink:href="#m5a7d422ac3" y="20.16"/>
      </g>
     </g>
    </g>
    <g id="xtick_2">
     <g id="line2d_9">
      <g>
       <use style="stroke:#000000;stroke-width:0.5;" x="128.88" xlink:href="#mc7db9fdffb" y="168.0"/>
      </g>
     </g>
     <g id="line2d_10">
      <g>
       <use style="stroke:#000000;stroke-width:0.5;" x="128.88" xlink:href="#m5a7d422ac3" y="20.16"/>
      </g>
     </g>
    </g>
    <g id="xtick_3">
     <g id="line2d_11">
      <g>
       <use style="stroke:#000000;stroke-width:0.5;" x="182.88" xlink:href="#mc7db9fdffb" y="168.0"/>
      </g>
     </g>
     <g id="line2d_12">
      <g>
       <use style="stroke:#000000;stroke-width:0.5;" x="182.88" xlink:href="#m5a7d422ac3" y="20.16"/>
      </g>
     </g>
    </g>
    <g id="xtick_4">
     <g id="line2d_13">
      <g>
       <use style="stroke:#000000;stroke-width:0.5;" x="236.88" xlink:href="#mc7db9fdffb" y="168.0"/>
      </g>
     </g>
     <g id="line2d_14">
      <g>
       <use style="stroke:#000000;stroke-width:0.5;" x="236.88" xlink:href="#m5a7d422ac3" y="20.16"/>
      </g>
     </g>
    </g>
   </g>
   <g id="matplotlib.axis_2">
    <g id="ytick_1">
     <g id="line2d_15">
      <defs>
       <path d="
M0 0
L4 0" id="md7965d1ba0" style="stroke:#000000;stroke-width:0.5;"/>
      </defs>
      <g>
       <use style="stroke:#000000;stroke-width:0.5;" x="47.88" xlink:href="#md7965d1ba0" y="156.627692308"/>
      </g>
     </g>
     <g id="line2d_16">
      <defs>
       <path d="
M0 0
L-4 0" id="md9a1c1a7cd" style="stroke:#000000;stroke-width:0.5;"/>
      </defs>
      <g>
       <use style="stroke:#000000;stroke-width:0.5;" x="236.88" xlink:href="#md9a1c1a7cd" y="156.627692308"/>
      </g>
     </g>
     <g id="text_1">
      <!-- $-0.3$ -->
      <defs>
       <path d="
M22.0938 33.7031
C31 33.7031 34.9062 25.9688 34.9062 17.0312
C34.9062 5 28.5 0.390625 22.7031 0.390625
C17.4062 0.390625 8.79688 3.03125 6.09375 10.8281
C6.59375 10.625 7.09375 10.625 7.59375 10.625
C10 10.625 11.7969 12.2188 11.7969 14.8125
C11.7969 17.7031 9.59375 19 7.59375 19
C5.90625 19 3.29688 18.2031 3.29688 14.4688
C3.29688 5.23438 12.2969 -2 22.9062 -2
C34 -2 42.5 6.71875 42.5 16.9531
C42.5 26.6719 34.5 33.6875 25 34.7969
C32.5938 36.375 39.9062 43.0625 39.9062 52.0156
C39.9062 59.6875 32 65.2969 23 65.2969
C13.9062 65.2969 5.90625 59.8281 5.90625 52.0156
C5.90625 48.5938 8.5 48 9.79688 48
C11.9062 48 13.7031 49.2969 13.7031 51.8906
C13.7031 54.4688 11.9062 55.7656 9.79688 55.7656
C9.40625 55.7656 8.90625 55.7656 8.5 55.5625
C11.4062 61.8594 19.2969 63 22.7969 63
C26.2969 63 32.9062 61.3281 32.9062 51.875
C32.9062 49.1094 32.5 44.1875 29.0938 39.8438
C26.0938 36 22.7031 36 19.4062 35.5938
C18.9062 35.5938 16.5938 35.5938 16.2031 35.5938
C15.5 35.4844 15.0938 35.3906 15.0938 34.5938
C15.0938 33.8125 15.2031 33.7031 17.2031 33.7031
z
" id="CMR17-51"/>
       <path d="
M42 31.6406
C42 37.75 41.9062 48.125 37.7031 56.1094
C34 63.1094 28.0938 65.5938 22.9062 65.5938
C18.0938 65.5938 12 63.4062 8.20312 56.2031
C4.20312 48.7188 3.79688 39.4375 3.79688 31.6406
C3.79688 25.9531 3.90625 17.2812 7 9.67188
C11.2969 -0.609375 19 -2 22.9062 -2
C27.5 -2 34.5 -0.109375 38.5938 9.375
C41.5938 16.2812 42 24.3594 42 31.6406
M22.9062 -0.40625
C16.5 -0.40625 12.7031 5.07812 11.2969 12.6875
C10.2031 18.5625 10.2031 27.1562 10.2031 32.75
C10.2031 40.4375 10.2031 46.8281 11.5 52.9219
C13.4062 61.3906 19 64 22.9062 64
C27 64 32.2969 61.2969 34.2031 53.125
C35.5 47.4375 35.5938 40.7344 35.5938 32.75
C35.5938 26.25 35.5938 18.2656 34.4062 12.375
C32.2969 1.48438 26.4062 -0.40625 22.9062 -0.40625" id="CMR17-48"/>
       <path d="
M18.4062 4.79688
C18.4062 7.6875 16 9.67188 13.5938 9.67188
C10.7031 9.67188 8.70312 7.28125 8.70312 4.89062
C8.70312 2 11.0938 0 13.5 0
C16.4062 0 18.4062 2.39062 18.4062 4.79688" id="CMMI12-58"/>
       <path d="
M65.9062 23
C67.5938 23 69.4062 23 69.4062 25
C69.4062 27 67.5938 27 65.9062 27
L11.7969 27
C10.0938 27 8.29688 27 8.29688 25
C8.29688 23 10.0938 23 11.7969 23
z
" id="CMSY10-0"/>
      </defs>
      <g transform="translate(23.401177299 159.118352333)scale(0.1 -0.1)">
       <use transform="scale(0.9962640099626402)" xlink:href="#CMSY10-0"/>
       <use transform="translate(77.4874676506071 0.0)scale(0.9962640099626402)" xlink:href="#CMR17-48"/>
       <use transform="translate(123.17794476766814 0.0)scale(0.9962640099626402)" xlink:href="#CMMI12-58"/>
       <use transform="translate(150.27512185748756 0.0)scale(0.9962640099626402)" xlink:href="#CMR17-51"/>
      </g>
     </g>
    </g>
    <g id="ytick_2">
     <g id="line2d_17">
      <g>
       <use style="stroke:#000000;stroke-width:0.5;" x="47.88" xlink:href="#md7965d1ba0" y="133.883076923"/>
      </g>
     </g>
     <g id="line2d_18">
      <g>
       <use style="stroke:#000000;stroke-width:0.5;" x="236.88" xlink:href="#md9a1c1a7cd" y="133.883076923"/>
      </g>
     </g>
     <g id="text_2">
      <!-- $0.0$ -->
      <g transform="translate(31.1499210237 136.373736948)scale(0.1 -0.1)">
       <use transform="scale(0.9962640099626402)" xlink:href="#CMR17-48"/>
       <use transform="translate(45.69047711706103 0.0)scale(0.9962640099626402)" xlink:href="#CMMI12-58"/>
       <use transform="translate(72.78765420688046 0.0)scale(0.9962640099626402)" xlink:href="#CMR17-48"/>
      </g>
     </g>
    </g>
    <g id="ytick_3">
     <g id="line2d_19">
      <g>
       <use style="stroke:#000000;stroke-width:0.5;" x="47.88" xlink:href="#md7965d1ba0" y="111.138461538"/>
      </g>
     </g>
     <g id="line2d_20">
      <g>
       <use style="stroke:#000000;stroke-width:0.5;" x="236.88" xlink:href="#md9a1c1a7cd" y="111.138461538"/>
      </g>
     </g>
     <g id="text_3">
      <!-- $0.3$ -->
      <g transform="translate(31.1499210237 113.629121563)scale(0.1 -0.1)">
       <use transform="scale(0.9962640099626402)" xlink:href="#CMR17-48"/>
       <use transform="translate(45.69047711706103 0.0)scale(0.9962640099626402)" xlink:href="#CMMI12-58"/>
       <use transform="translate(72.78765420688046 0.0)scale(0.9962640099626402)" xlink:href="#CMR17-51"/>
      </g>
     </g>
    </g>
    <g id="ytick_4">
     <g id="line2d_21">
      <g>
       <use style="stroke:#000000;stroke-width:0.5;" x="47.88" xlink:href="#md7965d1ba0" y="88.3938461538"/>
      </g>
     </g>
     <g id="line2d_22">
      <g>
       <use style="stroke:#000000;stroke-width:0.5;" x="236.88" xlink:href="#md9a1c1a7cd" y="88.3938461538"/>
      </g>
     </g>
     <g id="text_4">
      <!-- $0.6$ -->
      <defs>
       <path d="
M10.5938 34
C10.5938 57.6562 21.7969 63 28.2969 63
C30.4062 63 35.5 62.6406 37.5 59
C35.9062 59 32.9062 59 32.9062 55.5156
C32.9062 52.8281 35.0938 51.9219 36.5 51.9219
C37.4062 51.9219 40.0938 52.3125 40.0938 55.625
C40.0938 61.7812 35.0938 65.2969 28.2031 65.2969
C16.2969 65.2969 3.79688 52.9688 3.79688 31
C3.79688 3.95312 15.0938 -2 23.0938 -2
C32.7969 -2 42 6.67188 42 20.0469
C42 32.5156 33.9062 41.5938 23.7031 41.5938
C17.5938 41.5938 13.0938 37.6094 10.5938 30.625
z

M23.0938 0.390625
C10.7969 0.390625 10.7969 18.75 10.7969 22.4375
C10.7969 29.625 14.2031 40 23.5 40
C25.2031 40 30.0938 40 33.4062 33.125
C35.2031 29.2188 35.2031 25.1406 35.2031 20.1406
C35.2031 14.75 35.2031 10.7812 33.0938 6.78125
C30.9062 2.67188 27.7031 0.390625 23.0938 0.390625" id="CMR17-54"/>
      </defs>
      <g transform="translate(31.1499210237 90.8845061788)scale(0.1 -0.1)">
       <use transform="scale(0.9962640099626402)" xlink:href="#CMR17-48"/>
       <use transform="translate(45.69047711706103 0.0)scale(0.9962640099626402)" xlink:href="#CMMI12-58"/>
       <use transform="translate(72.78765420688046 0.0)scale(0.9962640099626402)" xlink:href="#CMR17-54"/>
      </g>
     </g>
    </g>
    <g id="ytick_5">
     <g id="line2d_23">
      <g>
       <use style="stroke:#000000;stroke-width:0.5;" x="47.88" xlink:href="#md7965d1ba0" y="65.6492307692"/>
      </g>
     </g>
     <g id="line2d_24">
      <g>
       <use style="stroke:#000000;stroke-width:0.5;" x="236.88" xlink:href="#md9a1c1a7cd" y="65.6492307692"/>
      </g>
     </g>
     <g id="text_5">
      <!-- $0.9$ -->
      <defs>
       <path d="
M35.2031 29.125
C35.2031 7.25 26.0938 0.484375 18.5938 0.484375
C16.2969 0.484375 10.7031 0.484375 8.40625 4.59375
C11 4.1875 12.9062 5.57812 12.9062 8.09375
C12.9062 10.8125 10.7031 11.7031 9.29688 11.7031
C8.40625 11.7031 5.70312 11.2969 5.70312 7.90625
C5.70312 1.10938 11.5938 -2 18.7969 -2
C30.2969 -2 42 10.5312 42 32.3906
C42 59.6406 30.7969 65.2969 23.2031 65.2969
C13.2969 65.2969 3.79688 56.6875 3.79688 43.4062
C3.79688 31.1094 11.9062 22 22.0938 22
C30.5 22 34.2031 29.7344 35.2031 33
z

M22.2969 23.5938
C19.5938 23.5938 15.7969 24.0938 12.7031 30.0312
C10.5938 33.8906 10.5938 38.4531 10.5938 43.2969
C10.5938 49.1562 10.5938 53.2031 13.4062 57.5625
C14.7969 59.6406 17.4062 63 23.2031 63
C35 63 35 45.0781 35 41.125
C35 34.0938 31.7969 23.5938 22.2969 23.5938" id="CMR17-57"/>
      </defs>
      <g transform="translate(31.1499210237 68.1398907941)scale(0.1 -0.1)">
       <use transform="scale(0.9962640099626402)" xlink:href="#CMR17-48"/>
       <use transform="translate(45.69047711706103 0.0)scale(0.9962640099626402)" xlink:href="#CMMI12-58"/>
       <use transform="translate(72.78765420688046 0.0)scale(0.9962640099626402)" xlink:href="#CMR17-57"/>
      </g>
     </g>
    </g>
    <g id="ytick_6">
     <g id="line2d_25">
      <g>
       <use style="stroke:#000000;stroke-width:0.5;" x="47.88" xlink:href="#md7965d1ba0" y="42.9046153846"/>
      </g>
     </g>
     <g id="line2d_26">
      <g>
       <use style="stroke:#000000;stroke-width:0.5;" x="236.88" xlink:href="#md9a1c1a7cd" y="42.9046153846"/>
      </g>
     </g>
     <g id="text_6">
      <!-- $1.2$ -->
      <defs>
       <path d="
M41.7031 15.4531
L39.9062 15.4531
C38.9062 8.375 38.0938 7.17188 37.7031 6.5625
C37.2031 5.76562 30 5.76562 28.5938 5.76562
L9.40625 5.76562
C13 9.67188 20 16.75 28.5 24.9531
C34.5938 30.7344 41.7031 37.5312 41.7031 47.4219
C41.7031 59.2188 32.2969 66 21.7969 66
C10.7969 66 4.09375 56.3125 4.09375 47.3438
C4.09375 43.4375 7 42.9375 8.20312 42.9375
C9.20312 42.9375 12.2031 43.5469 12.2031 47.0312
C12.2031 50.1094 9.59375 51 8.20312 51
C7.59375 51 7 50.9062 6.59375 50.7031
C8.5 59.2188 14.2969 63.4062 20.4062 63.4062
C29.0938 63.4062 34.7969 56.5156 34.7969 47.4219
C34.7969 38.7344 29.7031 31.25 24 24.75
L4.09375 2.28125
L4.09375 0
L39.2969 0
z
" id="CMR17-50"/>
       <path d="
M26.5938 63.3125
C26.5938 65.4062 26.5 65.5 25.0938 65.5
C21.2031 61.1875 15.2969 59.7969 9.70312 59.7969
C9.40625 59.7969 8.90625 59.7969 8.79688 59.6094
C8.70312 59.3906 8.70312 59.1719 8.70312 57
C11.7969 57 17 57.5938 21 59.9844
L21 7.20312
C21 3.6875 20.7969 2.5 12.2031 2.5
L9.20312 2.5
L9.20312 0
C14 0 19 0 23.7969 0
C28.5938 0 33.5938 0 38.4062 0
L38.4062 2.5
L35.4062 2.5
C26.7969 2.5 26.5938 3.59375 26.5938 7.15625
z
" id="CMR17-49"/>
      </defs>
      <g transform="translate(31.1499210237 45.3952754095)scale(0.1 -0.1)">
       <use transform="scale(0.9962640099626402)" xlink:href="#CMR17-49"/>
       <use transform="translate(45.69047711706103 0.0)scale(0.9962640099626402)" xlink:href="#CMMI12-58"/>
       <use transform="translate(72.78765420688046 0.0)scale(0.9962640099626402)" xlink:href="#CMR17-50"/>
      </g>
     </g>
    </g>
    <g id="text_7">
     <!-- $\times10^{-13}$ -->
     <defs>
      <path d="
M38.9062 27.8906
L18.9062 47.7969
C17.7031 49 17.5 49.1875 16.7031 49.1875
C15.7031 49.1875 14.7031 48.2969 14.7031 47.1875
C14.7031 46.5 14.9062 46.2969 16 45.1875
L36 25.0938
L16 5
C14.9062 3.89062 14.7031 3.6875 14.7031 3
C14.7031 1.89062 15.7031 1 16.7031 1
C17.5 1 17.7031 1.1875 18.9062 2.39062
L38.7969 22.2969
L59.5 1.59375
C59.7031 1.5 60.4062 1 61 1
C62.2031 1 63 1.89062 63 3
C63 3.1875 63 3.59375 62.7031 4.09375
C62.5938 4.29688 46.7031 20 41.7031 25.0938
L60 43.3906
C60.5 44 62 45.2969 62.5 45.8906
C62.5938 46.0938 63 46.5 63 47.1875
C63 48.2969 62.2031 49.1875 61 49.1875
C60.2031 49.1875 59.7969 48.7969 58.7031 47.6875
z
" id="CMSY10-2"/>
     </defs>
     <g transform="translate(47.88 17.16)scale(0.1 -0.1)">
      <use transform="scale(0.9962640099626402)" xlink:href="#CMSY10-2"/>
      <use transform="translate(77.4874676506071 0.0)scale(0.9962640099626402)" xlink:href="#CMR17-49"/>
      <use transform="translate(123.17794476766814 0.0)scale(0.9962640099626402)" xlink:href="#CMR17-48"/>
      <use transform="translate(168.86842188472914 36.15363894185866)scale(0.6973817666173724)" xlink:href="#CMSY10-0"/>
      <use transform="translate(223.1094151327055 36.15363894185866)scale(0.6973817666173724)" xlink:href="#CMR17-49"/>
      <use transform="translate(255.09259709682442 36.15363894185866)scale(0.6973817666173724)" xlink:href="#CMR17-51"/>
     </g>
    </g>
   </g>
   <g id="patch_3">
    <path d="
M47.88 20.16
L236.88 20.16" style="fill:none;stroke:#000000;"/>
   </g>
   <g id="patch_4">
    <path d="
M236.88 168
L236.88 20.16" style="fill:none;stroke:#000000;"/>
   </g>
   <g id="patch_5">
    <path d="
M47.88 168
L236.88 168" style="fill:none;stroke:#000000;"/>
   </g>
   <g id="patch_6">
    <path d="
M47.88 168
L47.88 20.16" style="fill:none;stroke:#000000;"/>
   </g>
   <g id="line2d_27">
    <path clip-path="url(#p841f4d221e)" d="
M48.9989 129.824
L50.158 129.824
L50.158 129.122
L52.4762 129.122
L52.4762 134.053
L54.7942 134.053
L54.7942 135.223
L57.1121 135.223
L57.1121 136.234
L59.4298 136.234
L59.4298 136.74
L61.7473 136.74
L61.7473 132.697
L64.0646 132.697
L64.0646 137.281
L66.3817 137.281
L66.3817 134
L68.6987 134
L68.6987 136.608
L71.0155 136.608
L71.0155 138.424
L73.3321 138.424
L73.3321 140.778
L75.6486 140.778
L75.6486 137.576
L77.9648 137.576
L77.9648 140.23
L80.2809 140.23
L80.2809 143.594
L82.5968 143.594
L82.5968 146.559
L84.9125 146.559
L84.9125 151.818
L87.2281 151.818
L87.2281 155.464
L89.5434 155.464
L89.5434 148.861
L91.8586 148.861
L91.8586 148.456
L94.1736 148.456
L94.1736 142.306
L96.4885 142.306
L96.4885 138.013
L98.8031 138.013
L98.8031 138.314
L101.118 138.314
L101.118 130.392
L103.432 130.392
L103.432 130.023
L105.746 130.023
L105.746 126.34
L108.06 126.34
L108.06 131.022
L110.374 131.022
L110.374 131.232
L112.687 131.232
L112.687 130.532
L115.001 130.532
L115.001 135.812
L117.314 135.812
L117.314 132.266
L119.627 132.266
L119.627 130.854
L121.94 130.854
L121.94 129.047
L124.253 129.047
L124.253 131.338
L126.565 131.338
L126.565 135.2
L128.878 135.2
L128.878 130.376
L131.19 130.376
L131.19 134.05
L133.502 134.05
L133.502 130.574
L135.813 130.574
L135.813 131.238
L138.125 131.238
L138.125 133.122
L142.748 133.123
L142.748 133.993
L145.059 133.993
L145.059 136.534
L147.37 136.534
L147.37 133.521
L149.681 133.521
L149.681 133.247
L151.991 133.247
L151.991 129.505
L154.302 129.505
L154.302 131.563
L156.612 131.563
L156.612 134.344
L158.922 134.344
L158.922 134.66
L161.232 134.66
L161.232 133.044
L163.541 133.044
L163.541 131.084
L165.851 131.084
L165.851 131.404
L168.16 131.404
L168.16 134.291
L170.469 134.291
L170.469 132.996
L172.778 132.996
L172.778 131.096
L175.087 131.096
L175.087 129.514
L177.396 129.514
L177.396 128.422
L179.704 128.422
L179.704 131.934
L182.012 131.934
L182.012 131.595
L184.321 131.595
L184.321 132.827
L186.628 132.827
L186.628 135.352
L188.936 135.352
L188.936 132.525
L191.244 132.525
L191.244 135.52
L193.551 135.52
L193.551 136.675
L195.858 136.675
L195.858 131.915
L198.165 131.915
L198.165 132.048
L200.472 132.048
L200.472 134.644
L205.085 134.633
L205.085 139.183
L207.392 139.183
L207.392 137.882
L209.698 137.882
L209.698 139.95
L212.004 139.95
L212.004 136.209
L216.615 136.26
L216.615 133.856
L218.92 133.856
L218.92 132.045
L221.226 132.045
L221.226 130.9
L223.531 130.9
L223.531 130.198
L225.835 130.198
L225.835 128.939
L228.14 128.939
L228.14 132.924
L230.445 132.924
L230.445 133.538
L232.749 133.538
L232.749 133.85
L235.053 133.85
L235.053 132.575
L236.205 132.575
L236.205 132.575" style="fill:none;stroke:#000000;stroke-linecap:square;"/>
   </g>
  </g>
  <g id="axes_2">
   <g id="patch_7">
    <path d="
M47.88 315.84
L236.88 315.84
L236.88 168
L47.88 168
z
" style="fill:#ffffff;"/>
   </g>
   <g id="PolyCollection_2">
    <defs>
     <path d="
M48.9989 -225.255
L48.9989 -215.36
L51.3172 -214.236
L53.6353 -217.254
L55.9532 -215.544
L58.271 -214.512
L60.5886 -216.998
L62.906 -217.316
L65.2232 -219.056
L67.5403 -213.392
L69.8572 -212.964
L72.1739 -211.385
L74.4904 -209.471
L76.8067 -213.115
L79.1229 -215.003
L81.4389 -215.699
L83.7547 -212.478
L86.0703 -215.052
L88.3858 -215.561
L90.7011 -215.123
L93.0162 -215.115
L95.3311 -219.844
L97.6458 -216.707
L99.9604 -217.034
L102.275 -218.461
L104.589 -215.106
L106.903 -215.083
L109.217 -214.197
L111.531 -214.718
L113.844 -212.152
L116.157 -216.284
L118.471 -213.873
L120.784 -215.189
L123.096 -212.767
L125.409 -214.911
L127.721 -216.971
L130.034 -217.232
L132.346 -218.261
L134.658 -218.076
L136.969 -217.405
L139.281 -216.5
L141.592 -214.586
L143.903 -217.505
L146.214 -217.181
L148.525 -218.211
L150.836 -219.009
L153.146 -219.048
L155.457 -219.651
L157.767 -219.089
L160.077 -216.727
L162.387 -213.84
L164.696 -214.761
L167.006 -214.574
L169.315 -211.193
L171.624 -211.733
L173.933 -211.677
L176.241 -212.872
L178.55 -213.621
L180.858 -214.942
L183.167 -213.485
L185.475 -212.128
L187.782 -216.066
L190.09 -214.007
L192.397 -211.803
L194.705 -212.74
L197.012 -215.601
L199.319 -219.052
L201.625 -217.728
L203.932 -217.649
L206.238 -216.673
L208.545 -215.508
L210.851 -214.028
L213.156 -214.986
L215.462 -218.346
L217.768 -217.943
L220.073 -216.415
L222.378 -218.963
L224.683 -215.625
L226.988 -216.91
L229.292 -217.216
L231.597 -215.241
L233.901 -216.348
L236.205 -217.705
L236.205 -232.524
L236.205 -232.524
L233.901 -231.749
L231.597 -232.485
L229.292 -232.526
L226.988 -230.021
L224.683 -230.696
L222.378 -228.482
L220.073 -231.594
L217.768 -227.991
L215.462 -229.194
L213.156 -226.747
L210.851 -230.21
L208.545 -228.727
L206.238 -228.795
L203.932 -228.914
L201.625 -228.332
L199.319 -227.375
L197.012 -228.173
L194.705 -229.817
L192.397 -228.216
L190.09 -227.236
L187.782 -230.087
L185.475 -229.447
L183.167 -229.855
L180.858 -229.85
L178.55 -230.332
L176.241 -228.69
L173.933 -230.187
L171.624 -233.559
L169.315 -231.217
L167.006 -229.164
L164.696 -231.421
L162.387 -227.807
L160.077 -230.156
L157.767 -230.574
L155.457 -229.936
L153.146 -231.767
L150.836 -229.62
L148.525 -231.526
L146.214 -230.183
L143.903 -232.869
L141.592 -228.375
L139.281 -233.016
L136.969 -228.908
L134.658 -229.623
L132.346 -228.225
L130.034 -229.652
L127.721 -233.458
L125.409 -233.285
L123.096 -234.248
L120.784 -230.545
L118.471 -229.785
L116.157 -228.677
L113.844 -227.354
L111.531 -227.188
L109.217 -225.776
L106.903 -226.525
L104.589 -228.659
L102.275 -227.069
L99.9604 -227.335
L97.6458 -232.361
L95.3311 -229.674
L93.0162 -230.769
L90.7011 -230.626
L88.3858 -232.113
L86.0703 -230.443
L83.7547 -227.334
L81.4389 -229.627
L79.1229 -228.882
L76.8067 -229.708
L74.4904 -230.683
L72.1739 -228.673
L69.8572 -232.191
L67.5403 -229.697
L65.2232 -227.19
L62.906 -229.821
L60.5886 -230.298
L58.271 -230.198
L55.9532 -228.601
L53.6353 -225.111
L51.3172 -226.642
L48.9989 -225.255
z
" id="C1_0_1840e80933"/>
    </defs>
    <g clip-path="url(#p2ba5469660)">
     <use style="fill:#0000ff;fill-opacity:0.4;stroke:#000000;stroke-opacity:0.4;" x="0.0" xlink:href="#C1_0_1840e80933" y="504.0"/>
    </g>
   </g>
   <g id="line2d_28">
    <path clip-path="url(#p2ba5469660)" d="
M47.88 251.562
L236.88 251.562" style="fill:none;stroke:#4c4c4c;stroke-dasharray:1.000000,3.000000;stroke-dashoffset:0.0;"/>
   </g>
   <g id="line2d_29">
    <path clip-path="url(#p2ba5469660)" d="
M48.9989 257.151
L50.158 257.151
L50.158 255.246
L52.4762 255.246
L52.4762 253.949
L54.7942 253.949
L54.7942 251.197
L57.1121 251.197
L57.1121 252.393
L59.4298 252.393
L59.4298 250.568
L61.7473 250.568
L61.7473 246.783
L64.0646 246.783
L64.0646 247.192
L66.3817 247.192
L66.3817 248.311
L68.6987 248.311
L68.6987 252.801
L71.0155 252.801
L71.0155 254.34
L73.3321 254.34
L73.3321 259.414
L75.6486 259.414
L75.6486 253.962
L77.9648 253.962
L77.9648 251.477
L80.2809 251.477
L80.2809 252.007
L82.5968 252.007
L82.5968 250.635
L84.9125 250.635
L84.9125 246.374
L87.2281 246.374
L87.2281 250.961
L89.5434 250.961
L89.5434 250.24
L91.8586 250.24
L91.8586 252.814
L94.1736 252.814
L94.1736 252.214
L96.4885 252.214
L96.4885 250.118
L98.8031 250.118
L98.8031 254.936
L101.118 254.936
L101.118 253.512
L103.432 253.512
L103.432 253.821
L105.746 253.821
L105.746 252.595
L108.06 252.595
L108.06 255.839
L110.374 255.839
L110.374 251.231
L112.687 251.231
L112.687 249.588
L115.001 249.588
L115.001 251.917
L117.314 251.917
L117.314 253.387
L119.627 253.387
L119.627 248.748
L121.94 248.748
L121.94 245.356
L124.253 245.356
L124.253 248.234
L128.878 248.165
L128.878 249.153
L131.19 249.153
L131.19 251.381
L133.502 251.381
L133.502 250.998
L135.813 250.998
L135.813 247.91
L138.125 247.91
L138.125 246.786
L142.748 246.874
L142.748 245.039
L145.059 245.039
L145.059 247.986
L147.37 247.986
L147.37 246.436
L149.681 246.436
L149.681 251.683
L151.991 251.683
L151.991 249.977
L154.302 249.977
L154.302 249.725
L156.612 249.725
L156.612 252.174
L158.922 252.174
L158.922 251.532
L161.232 251.532
L161.232 246.031
L163.541 246.031
L163.541 249.984
L165.851 249.984
L165.851 250.574
L168.16 250.574
L168.16 246.074
L170.469 246.074
L170.469 247.264
L172.778 247.264
L172.778 247.708
L175.087 247.708
L175.087 245.603
L177.396 245.603
L177.396 246.281
L179.704 246.281
L179.704 245.247
L182.012 245.247
L182.012 246.452
L184.321 246.452
L184.321 248.661
L186.628 248.661
L186.628 245.981
L188.936 245.981
L188.936 247.103
L191.244 247.103
L191.244 250.66
L193.551 250.66
L193.551 249.141
L195.858 249.141
L195.858 250.896
L198.165 250.896
L198.165 250.387
L200.472 250.387
L200.472 251.741
L202.779 251.741
L202.779 250.379
L205.085 250.379
L205.085 249.836
L207.392 249.836
L207.392 249.571
L209.698 249.571
L209.698 251.535
L212.004 251.535
L212.004 254.018
L214.309 254.018
L214.309 251.65
L216.615 251.65
L216.615 249.798
L218.92 249.798
L218.92 249.953
L221.226 249.953
L221.226 248.79
L223.531 248.79
L223.531 251.226
L225.835 251.226
L225.835 246.016
L228.14 246.016
L228.14 247.478
L230.445 247.478
L230.445 247.674
L232.749 247.674
L232.749 249.988
L235.053 249.988
L235.053 245.563
L236.205 245.563
L236.205 245.563" style="fill:none;stroke:#000000;stroke-linecap:square;"/>
   </g>
   <g id="line2d_30">
    <path clip-path="url(#p2ba5469660)" d="
M47.88 221.4
L236.88 221.4" style="fill:none;stroke:#4c4c4c;stroke-dasharray:1.000000,3.000000;stroke-dashoffset:0.0;"/>
   </g>
   <g id="line2d_31">
    <path clip-path="url(#p2ba5469660)" d="
M48.9989 228.317
L50.158 228.317
L50.158 229.441
L52.4762 229.441
L52.4762 224.371
L54.7942 224.371
L54.7942 223.977
L57.1121 223.977
L57.1121 221.525
L59.4298 221.525
L59.4298 222.277
L61.7473 222.277
L61.7473 218.91
L64.0646 218.91
L64.0646 224.621
L66.3817 224.621
L66.3817 225.634
L68.6987 225.634
L68.6987 225.991
L73.3321 226.011
L73.3321 222.483
L75.6486 222.483
L75.6486 224.257
L77.9648 224.257
L77.9648 223.771
L80.2809 223.771
L80.2809 227.978
L82.5968 227.978
L82.5968 227.661
L84.9125 227.661
L84.9125 223.014
L87.2281 223.014
L87.2281 220.237
L89.5434 220.237
L89.5434 223.345
L91.8586 223.345
L91.8586 223.581
L94.1736 223.581
L94.1736 222.222
L96.4885 222.222
L96.4885 221.608
L98.8031 221.608
L98.8031 223.381
L101.118 223.381
L101.118 223.571
L103.432 223.571
L103.432 224.106
L105.746 224.106
L105.746 228.206
L108.06 228.206
L108.06 224.64
L110.374 224.64
L110.374 228.959
L112.687 228.959
L112.687 228.17
L115.001 228.17
L115.001 226.715
L117.314 226.715
L117.314 220.374
L119.627 220.374
L119.627 220.8
L121.94 220.8
L121.94 218.459
L124.253 218.459
L124.253 222.999
L126.565 222.999
L126.565 220.599
L128.878 220.599
L128.878 216.417
L131.19 216.417
L131.19 218.114
L133.502 218.114
L133.502 216.988
L135.813 216.988
L135.813 215.499
L138.125 215.499
L138.125 210.661
L140.437 210.661
L140.437 215.383
L142.748 215.383
L142.748 219.621
L145.059 219.621
L145.059 221.419
L147.37 221.419
L147.37 221.929
L149.681 221.929
L149.681 221.133
L151.991 221.133
L151.991 222.826
L154.302 222.826
L154.302 221.359
L156.612 221.359
L156.612 218.177
L158.922 218.177
L158.922 220.887
L161.232 220.887
L161.232 219.855
L165.851 219.884
L165.851 224.42
L168.16 224.42
L168.16 222.493
L170.469 222.493
L170.469 217.005
L172.778 217.005
L172.778 219.737
L175.087 219.737
L175.087 217.079
L177.396 217.079
L177.396 221.606
L179.704 221.606
L179.704 223.816
L182.012 223.816
L182.012 224.584
L184.321 224.584
L184.321 231.549
L186.628 231.549
L186.628 227.098
L188.936 227.098
L188.936 226.344
L191.244 226.344
L191.244 231.874
L193.551 231.874
L193.551 230.937
L195.858 230.937
L195.858 228.076
L198.165 228.076
L198.165 224.448
L200.472 224.448
L200.472 225.949
L202.779 225.949
L202.779 224.564
L205.085 224.564
L205.085 220.531
L207.392 220.531
L207.392 220.863
L209.698 220.863
L209.698 221.744
L212.004 221.744
L212.004 220.352
L214.309 220.352
L214.309 214.483
L216.615 214.483
L216.615 215.686
L218.92 215.686
L218.92 222.926
L221.226 222.926
L221.226 219.966
L223.531 219.966
L223.531 220.257
L225.835 220.257
L225.835 222.681
L228.14 222.681
L228.14 226.13
L230.445 226.13
L230.445 228.436
L232.749 228.436
L232.749 224.632
L236.205 224.692
L236.205 224.692" style="fill:none;stroke:#000000;stroke-linecap:square;"/>
   </g>
   <g id="line2d_32">
    <path clip-path="url(#p2ba5469660)" d="
M47.88 191.238
L236.88 191.238" style="fill:none;stroke:#4c4c4c;stroke-dasharray:1.000000,3.000000;stroke-dashoffset:0.0;"/>
   </g>
   <g id="line2d_33">
    <path clip-path="url(#p2ba5469660)" d="
M48.9989 195.492
L50.158 195.492
L50.158 194.664
L52.4762 194.664
L52.4762 195.527
L54.7942 195.527
L54.7942 195.983
L57.1121 195.983
L57.1121 190.45
L59.4298 190.45
L59.4298 189.61
L61.7473 189.61
L61.7473 186.796
L64.0646 186.796
L64.0646 189.773
L66.3817 189.773
L66.3817 188.44
L68.6987 188.44
L68.6987 187.588
L71.0155 187.588
L71.0155 192.455
L73.3321 192.455
L73.3321 197.068
L75.6486 197.068
L75.6486 200.157
L77.9648 200.157
L77.9648 198.512
L80.2809 198.512
L80.2809 197.676
L82.5968 197.676
L82.5968 195.208
L84.9125 195.208
L84.9125 191.493
L87.2281 191.493
L87.2281 186.103
L89.5434 186.103
L89.5434 187.561
L91.8586 187.561
L91.8586 183.207
L94.1736 183.207
L94.1736 183.841
L96.4885 183.841
L96.4885 186.771
L98.8031 186.771
L98.8031 187.07
L101.118 187.07
L101.118 187.955
L103.432 187.955
L103.432 189.839
L105.746 189.839
L105.746 188.209
L108.06 188.209
L108.06 189.798
L110.374 189.798
L110.374 186.328
L112.687 186.328
L112.687 188.976
L115.001 188.976
L115.001 188.609
L117.314 188.609
L117.314 192.268
L119.627 192.268
L119.627 192.043
L121.94 192.043
L121.94 192.631
L124.253 192.631
L124.253 198.605
L126.565 198.605
L126.565 193.44
L128.878 193.44
L128.878 196.163
L131.19 196.163
L131.19 195.254
L133.502 195.254
L133.502 190.767
L135.813 190.767
L135.813 194.008
L138.125 194.008
L138.125 188.208
L140.437 188.208
L140.437 190.587
L142.748 190.587
L142.748 194.621
L145.059 194.621
L145.059 193.514
L147.37 193.514
L147.37 187.857
L149.681 187.857
L149.681 191.513
L151.991 191.513
L151.991 188.817
L158.922 188.819
L158.922 193.151
L161.232 193.151
L161.232 193.609
L163.541 193.609
L163.541 196.816
L165.851 196.816
L165.851 193.783
L168.16 193.783
L168.16 198.005
L170.469 198.005
L170.469 192.495
L172.778 192.495
L172.778 183.329
L175.087 183.329
L175.087 184.92
L177.396 184.92
L177.396 186.965
L179.704 186.965
L179.704 189.074
L182.012 189.074
L182.012 185.859
L184.321 185.859
L184.321 188.656
L186.628 188.656
L186.628 187.572
L188.936 187.572
L188.936 186.279
L191.244 186.279
L191.244 190.845
L193.551 190.845
L193.551 189.364
L195.858 189.364
L195.858 194.779
L198.165 194.779
L198.165 191.979
L200.472 191.979
L200.472 194.892
L202.779 194.892
L202.779 192.095
L205.085 192.095
L205.085 193.108
L207.392 193.108
L207.392 189.083
L209.698 189.083
L209.698 187.607
L214.309 187.593
L214.309 186.007
L216.615 186.007
L216.615 189.86
L218.92 189.86
L218.92 187.344
L221.226 187.344
L221.226 188.169
L223.531 188.169
L223.531 185.421
L225.835 185.421
L225.835 185.182
L228.14 185.182
L228.14 184.978
L230.445 184.978
L230.445 184.581
L232.749 184.581
L232.749 186.685
L235.053 186.685
L235.053 191.42
L236.205 191.42
L236.205 191.42" style="fill:none;stroke:#000000;stroke-linecap:square;"/>
   </g>
   <g id="matplotlib.axis_3">
    <g id="xtick_5">
     <g id="line2d_34">
      <g>
       <use style="stroke:#000000;stroke-width:0.5;" x="74.88" xlink:href="#mc7db9fdffb" y="315.84"/>
      </g>
     </g>
     <g id="line2d_35">
      <g>
       <use style="stroke:#000000;stroke-width:0.5;" x="74.88" xlink:href="#m5a7d422ac3" y="168.0"/>
      </g>
     </g>
    </g>
    <g id="xtick_6">
     <g id="line2d_36">
      <g>
       <use style="stroke:#000000;stroke-width:0.5;" x="128.88" xlink:href="#mc7db9fdffb" y="315.84"/>
      </g>
     </g>
     <g id="line2d_37">
      <g>
       <use style="stroke:#000000;stroke-width:0.5;" x="128.88" xlink:href="#m5a7d422ac3" y="168.0"/>
      </g>
     </g>
    </g>
    <g id="xtick_7">
     <g id="line2d_38">
      <g>
       <use style="stroke:#000000;stroke-width:0.5;" x="182.88" xlink:href="#mc7db9fdffb" y="315.84"/>
      </g>
     </g>
     <g id="line2d_39">
      <g>
       <use style="stroke:#000000;stroke-width:0.5;" x="182.88" xlink:href="#m5a7d422ac3" y="168.0"/>
      </g>
     </g>
    </g>
    <g id="xtick_8">
     <g id="line2d_40">
      <g>
       <use style="stroke:#000000;stroke-width:0.5;" x="236.88" xlink:href="#mc7db9fdffb" y="315.84"/>
      </g>
     </g>
     <g id="line2d_41">
      <g>
       <use style="stroke:#000000;stroke-width:0.5;" x="236.88" xlink:href="#m5a7d422ac3" y="168.0"/>
      </g>
     </g>
    </g>
   </g>
   <g id="matplotlib.axis_4">
    <g id="ytick_7">
     <g id="line2d_42">
      <g>
       <use style="stroke:#000000;stroke-width:0.5;" x="47.88" xlink:href="#md7965d1ba0" y="304.467692308"/>
      </g>
     </g>
     <g id="line2d_43">
      <g>
       <use style="stroke:#000000;stroke-width:0.5;" x="236.88" xlink:href="#md9a1c1a7cd" y="304.467692308"/>
      </g>
     </g>
     <g id="text_8">
      <!-- $-0.3$ -->
      <g transform="translate(23.401177299 306.958352333)scale(0.1 -0.1)">
       <use transform="scale(0.9962640099626402)" xlink:href="#CMSY10-0"/>
       <use transform="translate(77.4874676506071 0.0)scale(0.9962640099626402)" xlink:href="#CMR17-48"/>
       <use transform="translate(123.17794476766814 0.0)scale(0.9962640099626402)" xlink:href="#CMMI12-58"/>
       <use transform="translate(150.27512185748756 0.0)scale(0.9962640099626402)" xlink:href="#CMR17-51"/>
      </g>
     </g>
    </g>
    <g id="ytick_8">
     <g id="line2d_44">
      <g>
       <use style="stroke:#000000;stroke-width:0.5;" x="47.88" xlink:href="#md7965d1ba0" y="281.723076923"/>
      </g>
     </g>
     <g id="line2d_45">
      <g>
       <use style="stroke:#000000;stroke-width:0.5;" x="236.88" xlink:href="#md9a1c1a7cd" y="281.723076923"/>
      </g>
     </g>
     <g id="text_9">
      <!-- $0.0$ -->
      <g transform="translate(31.1499210237 284.213736948)scale(0.1 -0.1)">
       <use transform="scale(0.9962640099626402)" xlink:href="#CMR17-48"/>
       <use transform="translate(45.69047711706103 0.0)scale(0.9962640099626402)" xlink:href="#CMMI12-58"/>
       <use transform="translate(72.78765420688046 0.0)scale(0.9962640099626402)" xlink:href="#CMR17-48"/>
      </g>
     </g>
    </g>
    <g id="ytick_9">
     <g id="line2d_46">
      <g>
       <use style="stroke:#000000;stroke-width:0.5;" x="47.88" xlink:href="#md7965d1ba0" y="258.978461538"/>
      </g>
     </g>
     <g id="line2d_47">
      <g>
       <use style="stroke:#000000;stroke-width:0.5;" x="236.88" xlink:href="#md9a1c1a7cd" y="258.978461538"/>
      </g>
     </g>
     <g id="text_10">
      <!-- $0.3$ -->
      <g transform="translate(31.1499210237 261.469121563)scale(0.1 -0.1)">
       <use transform="scale(0.9962640099626402)" xlink:href="#CMR17-48"/>
       <use transform="translate(45.69047711706103 0.0)scale(0.9962640099626402)" xlink:href="#CMMI12-58"/>
       <use transform="translate(72.78765420688046 0.0)scale(0.9962640099626402)" xlink:href="#CMR17-51"/>
      </g>
     </g>
    </g>
    <g id="ytick_10">
     <g id="line2d_48">
      <g>
       <use style="stroke:#000000;stroke-width:0.5;" x="47.88" xlink:href="#md7965d1ba0" y="236.233846154"/>
      </g>
     </g>
     <g id="line2d_49">
      <g>
       <use style="stroke:#000000;stroke-width:0.5;" x="236.88" xlink:href="#md9a1c1a7cd" y="236.233846154"/>
      </g>
     </g>
     <g id="text_11">
      <!-- $0.6$ -->
      <g transform="translate(31.1499210237 238.724506179)scale(0.1 -0.1)">
       <use transform="scale(0.9962640099626402)" xlink:href="#CMR17-48"/>
       <use transform="translate(45.69047711706103 0.0)scale(0.9962640099626402)" xlink:href="#CMMI12-58"/>
       <use transform="translate(72.78765420688046 0.0)scale(0.9962640099626402)" xlink:href="#CMR17-54"/>
      </g>
     </g>
    </g>
    <g id="ytick_11">
     <g id="line2d_50">
      <g>
       <use style="stroke:#000000;stroke-width:0.5;" x="47.88" xlink:href="#md7965d1ba0" y="213.489230769"/>
      </g>
     </g>
     <g id="line2d_51">
      <g>
       <use style="stroke:#000000;stroke-width:0.5;" x="236.88" xlink:href="#md9a1c1a7cd" y="213.489230769"/>
      </g>
     </g>
     <g id="text_12">
      <!-- $0.9$ -->
      <g transform="translate(31.1499210237 215.979890794)scale(0.1 -0.1)">
       <use transform="scale(0.9962640099626402)" xlink:href="#CMR17-48"/>
       <use transform="translate(45.69047711706103 0.0)scale(0.9962640099626402)" xlink:href="#CMMI12-58"/>
       <use transform="translate(72.78765420688046 0.0)scale(0.9962640099626402)" xlink:href="#CMR17-57"/>
      </g>
     </g>
    </g>
    <g id="ytick_12">
     <g id="line2d_52">
      <g>
       <use style="stroke:#000000;stroke-width:0.5;" x="47.88" xlink:href="#md7965d1ba0" y="190.744615385"/>
      </g>
     </g>
     <g id="line2d_53">
      <g>
       <use style="stroke:#000000;stroke-width:0.5;" x="236.88" xlink:href="#md9a1c1a7cd" y="190.744615385"/>
      </g>
     </g>
     <g id="text_13">
      <!-- $1.2$ -->
      <g transform="translate(31.1499210237 193.23527541)scale(0.1 -0.1)">
       <use transform="scale(0.9962640099626402)" xlink:href="#CMR17-49"/>
       <use transform="translate(45.69047711706103 0.0)scale(0.9962640099626402)" xlink:href="#CMMI12-58"/>
       <use transform="translate(72.78765420688046 0.0)scale(0.9962640099626402)" xlink:href="#CMR17-50"/>
      </g>
     </g>
    </g>
    <g id="text_14">
     <!-- $f_\lambda \quad [\textrm{erg}\;\textrm{cm}^{-2}\;\textrm{s}^{-1}\;\textrm{\AA}^{-1}]$ -->
     <defs>
      <path d="
M43.2969 61.8125
C43.2969 66.7969 39.2969 70.5938 34.5938 70.5938
C29.9062 70.5938 25.9062 66.7969 25.9062 61.8125
C25.9062 56.7969 29.9062 53 34.5938 53
C39.2969 53 43.2969 56.7969 43.2969 61.8125
M34.5938 54.5938
C30.4062 54.5938 27.7031 57.1875 27.7031 61.8125
C27.7031 66.5 30.5 69 34.5938 69
C38.7969 69 41.5 66.4062 41.5 61.8125
C41.5 57.0938 38.7031 54.5938 34.5938 54.5938" id="CMR17-23"/>
      <path d="
M36.2969 68.4062
C35.7969 69.7031 35.5938 70 34.5938 70
C33.5938 70 33.4062 69.7031 32.9062 68.4062
L11.7031 8.84375
C9.79688 3.48438 5.79688 2.39062 2.29688 2.39062
L2.29688 -0.203125
C4.09375 0 8.09375 0 10 0
C12.5 0 16.5 0 18.9062 -0.203125
L18.9062 2.39062
C14.2031 2.39062 13.5 5.64062 13.5 6.85938
C13.5 7.76562 13.7031 8.28125 13.9062 8.89062
L19.2031 24
L45.4062 24
L51.4062 6.90625
C51.9062 5.70312 51.9062 5.5 51.9062 5.10938
C51.9062 2.39062 47.5938 2.39062 45.7031 2.39062
L45.7031 0
C48.5938 0 53.7969 0 56.9062 0
C59.5 0 64.5 0 66.9062 -0.203125
L66.9062 2.39062
C61.5938 2.39062 59.7969 2.39062 58.5 6.04688
z

M32.2969 60.5312
L44.5 26.5938
L20.0938 26.5938
z
" id="CMR17-65"/>
      <path d="
M30.9062 61.9531
C28.4062 69 20.5 69 19.2031 69
C18.5938 69 17.5 69 17.5 68
C17.5 67.2188 18.0938 67.1094 18.5938 67.0156
C20.0938 66.8125 21.2969 66.6094 22.9062 63.75
C23.9062 61.8594 34.2031 32.1719 34.2031 31.9688
C34.2031 31.875 34.0938 31.7656 33.2969 30.9688
L7.29688 4.85938
C6.09375 3.65625 5.29688 2.85938 5.29688 1.59375
C5.29688 0.1875 6.5 -1 8.09375 -1
C8.5 -1 9.59375 -0.796875 10.2031 -0.203125
C11.7969 1.28125 26.0938 18.6562 35.2031 29.3906
C37.7969 21.6094 41 12.4531 44.0938 4.07812
C44.5938 2.59375 45.0938 1.1875 46.5 -0.09375
C47.5 -1 47.7031 -1 50.5 -1
L52.4062 -1
C52.7969 -1 53.5 -1 53.5 -0.171875
C53.5 0.265625 53.4062 0.359375 53 0.78125
C52.0938 1.875 51.4062 3.65625 51 4.84375
z
" id="CMMI12-21"/>
      <path d="
M34.9062 35
C33 35 30.2031 35 30.2031 31.5156
C30.2031 28.7188 32.5 27.9219 33.7969 27.9219
C34.5 27.9219 37.4062 28.2344 37.4062 31.625
C37.4062 38.5469 30.5938 43.7969 22.9062 43.7969
C12.2969 43.7969 3.29688 34.0312 3.29688 21.2969
C3.29688 8.0625 12.7031 -1 22.9062 -1
C35.2969 -1 38.4062 10.5938 38.4062 11.6875
C38.4062 12.0938 38.2969 12.3906 37.5938 12.3906
C36.9062 12.3906 36.7969 12.2969 36.4062 10.9844
C33.7969 2.8125 28.0938 0.796875 23.7969 0.796875
C17.4062 0.796875 9.70312 6.67188 9.70312 21.3906
C9.70312 36.5312 17.0938 42 23 42
C26.9062 42 32.7031 40.2031 34.9062 35" id="CMR17-99"/>
      <path d="
M44.5938 40.0938
C46.5938 40.0938 47.4062 40.0938 47.4062 42
C47.4062 43 46.5938 43 44.7969 43
L36.7031 43
C38.5938 53.5781 40 60.8906 40.7969 64.1719
C41.4062 66.6406 43.5 69 46.0938 69
C48.2031 69 50.2969 68.0938 51.2969 67.1562
C47.4062 66.75 46.2031 63.7812 46.2031 62.0156
C46.2031 59.9531 47.7031 58.7344 49.5938 58.7344
C51.5938 58.7344 54.5938 60.4688 54.5938 64.3594
C54.5938 68.6406 50.4062 71 46 71
C41.7031 71 37.5 67.7188 35.5 63.7188
C33.7031 60.125 32.7031 56.4375 30.4062 43
L23.7031 43
C21.7969 43 20.7969 43 20.7969 41.2031
C20.7969 40.0938 21.4062 40.0938 23.4062 40.0938
L29.7969 40.0938
C28 30.875 23.9062 8.46875 21.5938 -2.14062
C19.9062 -10.7656 18.4062 -18 13.4062 -18
C13.0938 -18 10.2031 -18 8.40625 -16.1094
C13.5 -15.7031 13.5 -11.3438 13.5 -11.25
C13.5 -9.26562 12 -8.07812 10.0938 -8.07812
C8.09375 -8.07812 5.09375 -9.76562 5.09375 -13.5469
C5.09375 -17.8125 9.5 -20 13.4062 -20
C23.5938 -20 27.7969 -1.84375 28.9062 3.10938
C30.7031 10.75 35.5938 37.125 36.0938 40.0938
z
" id="CMMI12-102"/>
      <path d="
M11.0938 18.1875
C13 16.6875 16.2969 15 20.2969 15
C28.2031 15 35 21.2031 35 29.5
C35 32.0938 34.2031 36.0938 31.2031 39.2031
C34 42.0625 38.0938 43 40.4062 43
C40.7969 43 41.4062 43 41.9062 42.7656
C41.5 42.6719 40.5938 42.2812 40.5938 40.7344
C40.5938 39.4844 41.5 38.6094 42.7969 38.6094
C44.2969 38.6094 45.0938 39.5781 45.0938 40.8438
C45.0938 42.6719 43.5938 44.5938 40.4062 44.5938
C36.4062 44.5938 32.9062 42.7812 30.0938 40.3125
C27.0938 43.0156 23.5 44 20.2969 44
C12.4062 44 5.59375 37.7969 5.59375 29.5
C5.59375 23.7812 8.90625 20.1875 9.90625 19.1875
C6.90625 15.6875 6.90625 11.6094 6.90625 11.1094
C6.90625 8.51562 7.90625 4.71875 11.2969 2.625
C6.09375 1.32812 2 -2.64062 2 -7.59375
C2 -14.7344 11.5 -20 22.9062 -20
C33.9062 -20 43.7969 -14.9375 43.7969 -7.48438
C43.7969 6 29 6 21.2969 6
C19 6 14.9062 6 14.4062 6.10938
C11.2969 6.60938 9.20312 9.40625 9.20312 12.8906
C9.20312 13.7812 9.20312 16 11.0938 18.1875
M20.2969 16.6875
C11.5 16.6875 11.5 27.5 11.5 29.5156
C11.5 31.5 11.5 42.3125 20.2969 42.3125
C29.0938 42.3125 29.0938 31.5 29.0938 29.5156
C29.0938 27.5 29.0938 16.6875 20.2969 16.6875
M22.9062 -18.2969
C12.9062 -18.2969 6 -13.0469 6 -7.59375
C6 -4.51562 7.70312 -1.64062 9.90625 -0.0625
C12.4062 1.625 13.4062 1.625 20.2031 1.625
C28.4062 1.625 39.7969 1.625 39.7969 -7.59375
C39.7969 -13.0469 32.9062 -18.2969 22.9062 -18.2969" id="CMR17-103"/>
      <path d="
M67.5938 30.2031
C67.5938 35.1875 66.7031 43.5938 54.7969 43.5938
C48 43.5938 43.2969 39 41.5 33.5938
L41.4062 33.5938
C40.2031 41.7969 34.2969 43.5938 28.7031 43.5938
C20.7969 43.5938 16.7031 37.5625 15.2031 33.5938
L15.0938 33.5938
L15.0938 43.5938
L3.29688 42.5
L3.29688 39.9062
C9.20312 39.9062 10.0938 39.2969 10.0938 34.5
L10.0938 6.6875
C10.0938 2.875 9.70312 2.39062 3.29688 2.39062
L3.29688 -0.203125
C5.70312 0 10.0938 0 12.7031 0
C15.2969 0 19.7969 0 22.2031 -0.203125
L22.2031 2.39062
C15.7969 2.39062 15.4062 2.78125 15.4062 6.6875
L15.4062 25.9062
C15.4062 35.1094 21 42 28 42
C35.4062 42 36.2031 35.4062 36.2031 30.5938
L36.2031 6.6875
C36.2031 2.875 35.7969 2.39062 29.4062 2.39062
L29.4062 -0.203125
C31.7969 0 36.2031 0 38.7969 0
C41.4062 0 45.9062 0 48.2969 -0.203125
L48.2969 2.39062
C41.9062 2.39062 41.5 2.78125 41.5 6.6875
L41.5 25.9062
C41.5 35.1094 47.0938 42 54.0938 42
C61.5 42 62.2969 35.4062 62.2969 30.5938
L62.2969 6.6875
C62.2969 2.875 61.9062 2.39062 55.5 2.39062
L55.5 -0.203125
C57.9062 0 62.2969 0 64.9062 0
C67.5 0 72 0 74.4062 -0.203125
L74.4062 2.39062
C68 2.39062 67.5938 2.78125 67.5938 6.6875
z
" id="CMR17-109"/>
      <path d="
M38.0938 23
C38.5 23.4062 38.5 23.6094 38.5 24.625
C38.5 34.9688 33.0938 44 21.7031 44
C11.0938 44 2.70312 33.8906 2.70312 21.6094
C2.70312 8.60938 12.2031 -1 22.7969 -1
C34 -1 38.4062 9.46875 38.4062 11.5469
C38.4062 12.25 37.7969 12.25 37.5938 12.25
C36.9062 12.25 36.7969 12.0469 36.4062 10.875
C34.2031 4.14062 28.7031 0.796875 23.5 0.796875
C19.2031 0.796875 14.9062 3.17188 12.2031 7.5
C9.09375 12.5469 9.09375 18.375 9.09375 23
z

M9.20312 24.5
C9.90625 39.1406 17.5938 42.4062 21.5938 42.4062
C28.4062 42.4062 33 35.8906 33.0938 24.5
z
" id="CMR17-101"/>
      <path d="
M23.5 -25
L23.5 -21.5156
L14.0938 -21.5156
L14.0938 71
L23.5 71
L23.5 74.4844
L10.5938 74.4844
L10.5938 -25
z
" id="CMR17-91"/>
      <path d="
M15 23.3906
C15 33 19.0938 42 26.5938 42
C27.2969 42 28 41.9062 28.7031 41.5938
C28.7031 41.5938 26.5 40.8906 26.5 38.3125
C26.5 35.9062 28.4062 34.9062 29.9062 34.9062
C31.0938 34.9062 33.2969 35.6094 33.2969 38.4062
C33.2969 41.6094 30.0938 43.5938 26.7031 43.5938
C19.0938 43.5938 15.7969 36.2031 14.7969 32.7031
L14.7031 32.7031
L14.7031 43.5938
L3.09375 42.5
L3.09375 39.9062
C9 39.9062 9.90625 39.2969 9.90625 34.5
L9.90625 6.6875
C9.90625 2.875 9.5 2.39062 3.09375 2.39062
L3.09375 -0.203125
C5.5 0 10.0938 0 12.7031 0
C15.5938 0 20.7031 0 23.4062 -0.203125
L23.4062 2.39062
C16.2031 2.39062 15 2.39062 15 6.875
z
" id="CMR17-114"/>
      <path d="
M30.9062 42.1094
C30.9062 43.9062 30.7969 44 30.2031 44
C29.7969 44 29.7031 43.9062 28.5 42.4219
C28.2031 42.0156 27.2969 41.0156 27 40.625
C23.7969 44 19.2969 44 17.5938 44
C6.5 44 2.5 38.1719 2.5 32.375
C2.5 23.3438 12.7031 21.25 15.5938 20.6406
C21.9062 19.3438 24.0938 18.9375 26.2031 17.125
C27.5 15.9375 29.7031 13.7344 29.7031 10.125
C29.7031 5.90625 27.2969 0.5 18.0938 0.5
C9.40625 0.5 6.29688 7.0625 4.5 15.8281
C4.20312 17.2188 4.20312 17.3281 3.40625 17.3281
C2.59375 17.3281 2.5 17.2188 2.5 15.2344
L2.5 0.890625
C2.5 -0.890625 2.59375 -1 3.20312 -1
C3.70312 -1 3.79688 -0.890625 4.29688 -0.09375
C4.90625 0.796875 6.40625 3.1875 7 4.1875
C9 1.54688 12.5 -1 18.0938 -1
C28 -1 33.2969 4.40625 33.2969 12.2344
C33.2969 17.3438 30.5938 20.0625 29.2969 21.25
C26.2969 24.375 22.7969 25.0625 18.5938 25.8594
C13.0938 27.0781 6.09375 28.4688 6.09375 34.5938
C6.09375 37.1875 7.5 42.7188 17.5938 42.7188
C28.2969 42.7188 28.9062 32.75 29.0938 29.5625
C29.2031 29.0781 29.7031 28.9688 30 28.9688
C30.9062 28.9688 30.9062 29.2812 30.9062 30.9688
z
" id="CMR17-115"/>
      <path d="
M14.2969 74.4844
L1.40625 74.4844
L1.40625 71
L10.7969 71
L10.7969 -21.5156
L1.40625 -21.5156
L1.40625 -25
L14.2969 -25
z
" id="CMR17-93"/>
     </defs>
     <g transform="translate(16.4639989687 293.635802374)rotate(-90.0)scale(0.1 -0.1)">
      <use transform="translate(0.0 14.943914544092468)scale(0.9962640099626402)" xlink:href="#CMMI12-102"/>
      <use transform="translate(48.083237663449566 0.0)scale(0.6973817666173724)" xlink:href="#CMMI12-21"/>
      <use transform="translate(179.79508301389322 14.943914544092468)scale(0.9962640099626402)" xlink:href="#CMR17-91"/>
      <use transform="translate(204.66614149575813 14.943914544092468)scale(0.9962640099626402)" xlink:href="#CMR17-101"/>
      <use transform="translate(245.15180195847606 14.943914544092468)scale(0.9962640099626402)" xlink:href="#CMR17-114"/>
      <use transform="translate(280.432569757939 14.943914544092468)scale(0.9962640099626402)" xlink:href="#CMR17-103"/>
      <use transform="translate(353.7970555971747 14.943914544092468)scale(0.9962640099626402)" xlink:href="#CMR17-99"/>
      <use transform="translate(394.2827160598926 14.943914544092468)scale(0.9962640099626402)" xlink:href="#CMR17-109"/>
      <use transform="translate(471.2023059279655 51.097553485951124)scale(0.6973817666173724)" xlink:href="#CMSY10-0"/>
      <use transform="translate(525.4432991759419 51.097553485951124)scale(0.6973817666173724)" xlink:href="#CMR17-50"/>
      <use transform="translate(585.5986218672167 14.943914544092468)scale(0.9962640099626402)" xlink:href="#CMR17-115"/>
      <use transform="translate(621.3999595024518 51.097553485951124)scale(0.6973817666173724)" xlink:href="#CMSY10-0"/>
      <use transform="translate(675.6409527504281 51.097553485951124)scale(0.6973817666173724)" xlink:href="#CMR17-49"/>
      <use transform="translate(735.7962754417031 32.56265870660803)scale(0.9962640099626402)" xlink:href="#CMR17-23"/>
      <use transform="translate(735.7962754417031 14.943914544092468)scale(0.9962640099626402)" xlink:href="#CMR17-65"/>
      <use transform="translate(804.8687052459528 74.82118143388077)scale(0.6973817666173724)" xlink:href="#CMSY10-0"/>
      <use transform="translate(859.109698493929 74.82118143388077)scale(0.6973817666173724)" xlink:href="#CMR17-49"/>
      <use transform="translate(891.5910124630293 14.943914544092468)scale(0.9962640099626402)" xlink:href="#CMR17-93"/>
     </g>
    </g>
    <g id="text_15">
     <!-- $\times10^{-13}$ -->
     <g transform="translate(47.88 165.0)scale(0.1 -0.1)">
      <use transform="scale(0.9962640099626402)" xlink:href="#CMSY10-2"/>
      <use transform="translate(77.4874676506071 0.0)scale(0.9962640099626402)" xlink:href="#CMR17-49"/>
      <use transform="translate(123.17794476766814 0.0)scale(0.9962640099626402)" xlink:href="#CMR17-48"/>
      <use transform="translate(168.86842188472914 36.15363894185866)scale(0.6973817666173724)" xlink:href="#CMSY10-0"/>
      <use transform="translate(223.1094151327055 36.15363894185866)scale(0.6973817666173724)" xlink:href="#CMR17-49"/>
      <use transform="translate(255.09259709682442 36.15363894185866)scale(0.6973817666173724)" xlink:href="#CMR17-51"/>
     </g>
    </g>
   </g>
   <g id="patch_8">
    <path d="
M47.88 168
L236.88 168" style="fill:none;stroke:#000000;"/>
   </g>
   <g id="patch_9">
    <path d="
M236.88 315.84
L236.88 168" style="fill:none;stroke:#000000;"/>
   </g>
   <g id="patch_10">
    <path d="
M47.88 315.84
L236.88 315.84" style="fill:none;stroke:#000000;"/>
   </g>
   <g id="patch_11">
    <path d="
M47.88 315.84
L47.88 168" style="fill:none;stroke:#000000;"/>
   </g>
   <g id="line2d_54">
    <path clip-path="url(#p2ba5469660)" d="
M48.9989 277.664
L50.158 277.664
L50.158 276.962
L52.4762 276.962
L52.4762 281.893
L54.7942 281.893
L54.7942 283.063
L57.1121 283.063
L57.1121 284.074
L59.4298 284.074
L59.4298 284.58
L61.7473 284.58
L61.7473 280.537
L64.0646 280.537
L64.0646 285.121
L66.3817 285.121
L66.3817 281.84
L68.6987 281.84
L68.6987 284.448
L71.0155 284.448
L71.0155 286.264
L73.3321 286.264
L73.3321 288.618
L75.6486 288.618
L75.6486 285.416
L77.9648 285.416
L77.9648 288.07
L80.2809 288.07
L80.2809 291.434
L82.5968 291.434
L82.5968 294.399
L84.9125 294.399
L84.9125 299.658
L87.2281 299.658
L87.2281 303.304
L89.5434 303.304
L89.5434 296.701
L91.8586 296.701
L91.8586 296.296
L94.1736 296.296
L94.1736 290.146
L96.4885 290.146
L96.4885 285.853
L98.8031 285.853
L98.8031 286.154
L101.118 286.154
L101.118 278.232
L103.432 278.232
L103.432 277.863
L105.746 277.863
L105.746 274.18
L108.06 274.18
L108.06 278.862
L110.374 278.862
L110.374 279.072
L112.687 279.072
L112.687 278.372
L115.001 278.372
L115.001 283.652
L117.314 283.652
L117.314 280.106
L119.627 280.106
L119.627 278.694
L121.94 278.694
L121.94 276.887
L124.253 276.887
L124.253 279.178
L126.565 279.178
L126.565 283.04
L128.878 283.04
L128.878 278.216
L131.19 278.216
L131.19 281.89
L133.502 281.89
L133.502 278.414
L135.813 278.414
L135.813 279.078
L138.125 279.078
L138.125 280.962
L142.748 280.963
L142.748 281.833
L145.059 281.833
L145.059 284.374
L147.37 284.374
L147.37 281.361
L149.681 281.361
L149.681 281.087
L151.991 281.087
L151.991 277.345
L154.302 277.345
L154.302 279.403
L156.612 279.403
L156.612 282.184
L158.922 282.184
L158.922 282.5
L161.232 282.5
L161.232 280.884
L163.541 280.884
L163.541 278.924
L165.851 278.924
L165.851 279.244
L168.16 279.244
L168.16 282.131
L170.469 282.131
L170.469 280.836
L172.778 280.836
L172.778 278.936
L175.087 278.936
L175.087 277.354
L177.396 277.354
L177.396 276.262
L179.704 276.262
L179.704 279.774
L182.012 279.774
L182.012 279.435
L184.321 279.435
L184.321 280.667
L186.628 280.667
L186.628 283.192
L188.936 283.192
L188.936 280.365
L191.244 280.365
L191.244 283.36
L193.551 283.36
L193.551 284.515
L195.858 284.515
L195.858 279.755
L198.165 279.755
L198.165 279.888
L200.472 279.888
L200.472 282.484
L205.085 282.473
L205.085 287.023
L207.392 287.023
L207.392 285.722
L209.698 285.722
L209.698 287.79
L212.004 287.79
L212.004 284.049
L216.615 284.1
L216.615 281.696
L218.92 281.696
L218.92 279.885
L221.226 279.885
L221.226 278.74
L223.531 278.74
L223.531 278.038
L225.835 278.038
L225.835 276.779
L228.14 276.779
L228.14 280.764
L230.445 280.764
L230.445 281.378
L232.749 281.378
L232.749 281.69
L235.053 281.69
L235.053 280.415
L236.205 280.415
L236.205 280.415" style="fill:none;stroke:#000000;stroke-linecap:square;"/>
   </g>
  </g>
  <g id="axes_3">
   <g id="patch_12">
    <path d="
M47.88 463.68
L236.88 463.68
L236.88 315.84
L47.88 315.84
z
" style="fill:#ffffff;"/>
   </g>
   <g id="PolyCollection_3">
    <defs>
     <path d="
M48.9989 -80.3705
L48.9989 -68.1327
L51.3172 -67.4202
L53.6353 -68.5682
L55.9532 -69.6427
L58.271 -68.8079
L60.5886 -69.5941
L62.906 -68.1071
L65.2232 -68.0363
L67.5403 -67.1526
L69.8572 -69.0393
L72.1739 -68.7736
L74.4904 -66.6701
L76.8067 -67.0664
L79.1229 -62.8054
L81.4389 -52.4073
L83.7547 -51.3207
L86.0703 -48.043
L88.3858 -43.9667
L90.7011 -49.2301
L93.0162 -56.1588
L95.3311 -59.2044
L97.6458 -63.2252
L99.9604 -67.5401
L102.275 -68.3281
L104.589 -64.8006
L106.903 -63.0225
L109.217 -66.8354
L111.531 -66.1234
L113.844 -65.5615
L116.157 -65.8583
L118.471 -69.3504
L120.784 -68.8081
L123.096 -68.8014
L125.409 -65.3005
L127.721 -67.5537
L130.034 -64.1181
L132.346 -66.2456
L134.658 -71.5589
L136.969 -71.1562
L139.281 -71.8335
L141.592 -74.026
L143.903 -70.0412
L146.214 -70.5457
L148.525 -64.9492
L150.836 -65.6742
L153.146 -69.4151
L155.457 -69.1116
L157.767 -62.8885
L160.077 -65.0387
L162.387 -65.3673
L164.696 -65.6279
L167.006 -67.9937
L169.315 -64.2348
L171.624 -66.7783
L173.933 -64.9285
L176.241 -65.9663
L178.55 -69.5128
L180.858 -65.9857
L183.167 -67.2676
L185.475 -65.4045
L187.782 -65.3922
L190.09 -64.7851
L192.397 -67.4541
L194.705 -65.7722
L197.012 -69.1036
L199.319 -68.6713
L201.625 -69.1642
L203.932 -69.3288
L206.238 -67.8861
L208.545 -70.2907
L210.851 -69.4053
L213.156 -68.2761
L215.462 -69.2102
L217.768 -66.8643
L220.073 -68.6511
L222.378 -69.8971
L224.683 -68.2926
L226.988 -69.2377
L229.292 -68.7177
L231.597 -66.7806
L233.901 -68.7704
L236.205 -67.6526
L236.205 -81.4721
L236.205 -81.4721
L233.901 -84.8261
L231.597 -83.6993
L229.292 -79.676
L226.988 -82.9748
L224.683 -80.8541
L222.378 -81.0255
L220.073 -82.4978
L217.768 -81.1432
L215.462 -81.046
L213.156 -79.8855
L210.851 -79.5428
L208.545 -79.3419
L206.238 -80.265
L203.932 -79.8227
L201.625 -79.2778
L199.319 -79.1228
L197.012 -82.7915
L194.705 -88.5721
L192.397 -83.3252
L190.09 -83.0809
L187.782 -82.8215
L185.475 -81.2978
L183.167 -78.9628
L180.858 -80.5649
L178.55 -81.0155
L176.241 -80.8705
L173.933 -80.3238
L171.624 -80.678
L169.315 -78.4649
L167.006 -77.9918
L164.696 -80.4559
L162.387 -81.3566
L160.077 -79.4576
L157.767 -79.4214
L155.457 -80.6299
L153.146 -81.4043
L150.836 -83.4463
L148.525 -82.8187
L146.214 -78.7978
L143.903 -84.4489
L141.592 -80.58
L139.281 -81.1841
L136.969 -81.772
L134.658 -83.6108
L132.346 -80.5852
L130.034 -81.6009
L127.721 -82.6854
L125.409 -87.0252
L123.096 -82.1949
L120.784 -79.2708
L118.471 -78.5826
L116.157 -79.6476
L113.844 -77.9528
L111.531 -83.7249
L109.217 -80.685
L106.903 -80.1104
L104.589 -77.5691
L102.275 -82.8015
L99.9604 -84.4469
L97.6458 -85.9306
L95.3311 -90.0642
L93.0162 -94.1485
L90.7011 -97.8441
L88.3858 -100.51
L86.0703 -103.761
L83.7547 -96.8555
L81.4389 -89.215
L79.1229 -82.4363
L76.8067 -81.3714
L74.4904 -82.1316
L72.1739 -81.7587
L69.8572 -80.5725
L67.5403 -83.0058
L65.2232 -84.6447
L62.906 -82.0328
L60.5886 -81.5362
L58.271 -81.5902
L55.9532 -84.3006
L53.6353 -81.4
L51.3172 -80.6364
L48.9989 -80.3705
z
" id="C2_0_6c06f2ffb9"/>
    </defs>
    <g clip-path="url(#p8642684f20)">
     <use style="fill:#0000ff;fill-opacity:0.4;stroke:#000000;stroke-opacity:0.4;" x="0.0" xlink:href="#C2_0_6c06f2ffb9" y="504.0"/>
    </g>
   </g>
   <g id="line2d_55">
    <path clip-path="url(#p8642684f20)" d="
M47.88 399.402
L236.88 399.402" style="fill:none;stroke:#4c4c4c;stroke-dasharray:1.000000,3.000000;stroke-dashoffset:0.0;"/>
   </g>
   <g id="line2d_56">
    <path clip-path="url(#p8642684f20)" d="
M48.9989 405.706
L50.158 405.706
L50.158 399.039
L52.4762 399.039
L52.4762 398.503
L54.7942 398.503
L54.7942 398.152
L57.1121 398.152
L57.1121 397.104
L59.4298 397.104
L59.4298 396.466
L61.7473 396.466
L61.7473 394.688
L64.0646 394.688
L64.0646 394.51
L66.3817 394.51
L66.3817 395.109
L68.6987 395.109
L68.6987 397.795
L71.0155 397.795
L71.0155 399.703
L73.3321 399.703
L73.3321 402.311
L75.6486 402.311
L75.6486 400.065
L77.9648 400.065
L77.9648 395.835
L80.2809 395.835
L80.2809 387.507
L82.5968 387.507
L82.5968 385.496
L84.9125 385.496
L84.9125 380.579
L87.2281 380.579
L87.2281 380.411
L89.5434 380.411
L89.5434 380.03
L91.8586 380.03
L91.8586 383.602
L94.1736 383.602
L94.1736 383.774
L96.4885 383.774
L96.4885 389.637
L98.8031 389.637
L98.8031 397.442
L101.118 397.442
L101.118 398.606
L103.432 398.606
L103.432 401.484
L105.746 401.484
L105.746 400.536
L108.06 400.536
L108.06 400.416
L110.374 400.416
L110.374 399.26
L112.687 399.26
L112.687 400.427
L115.001 400.427
L115.001 397.423
L117.314 397.423
L117.314 395.501
L119.627 395.501
L119.627 395.695
L121.94 395.695
L121.94 398.5
L124.253 398.5
L124.253 393.712
L126.565 393.712
L126.565 392.564
L128.878 392.564
L128.878 392.238
L131.19 392.238
L131.19 399.041
L133.502 399.041
L133.502 397.633
L135.813 397.633
L135.813 400.711
L138.125 400.711
L138.125 401.605
L140.437 401.605
L140.437 398.848
L142.748 398.848
L142.748 397.501
L145.059 397.501
L145.059 396.714
L147.37 396.714
L147.37 397.261
L149.681 397.261
L149.681 397.462
L151.991 397.462
L151.991 395.131
L154.302 395.131
L154.302 398.638
L156.612 398.638
L156.612 400.584
L158.922 400.584
L158.922 399.417
L163.541 399.359
L163.541 396.645
L165.851 396.645
L165.851 401.944
L168.16 401.944
L168.16 396.211
L170.469 396.211
L170.469 393.16
L172.778 393.16
L172.778 396.601
L175.087 396.601
L175.087 395.298
L177.396 395.298
L177.396 395.648
L179.704 395.648
L179.704 396.326
L182.012 396.326
L182.012 397.473
L184.321 397.473
L184.321 396.496
L186.628 396.496
L186.628 395.945
L188.936 395.945
L188.936 396.555
L191.244 396.555
L191.244 397.818
L193.551 397.818
L193.551 402.575
L195.858 402.575
L195.858 395.891
L198.165 395.891
L198.165 402.796
L200.472 402.796
L200.472 404.674
L202.779 404.674
L202.779 400.694
L205.085 400.694
L205.085 401.384
L209.698 401.458
L209.698 397.486
L212.004 397.486
L212.004 399.551
L214.309 399.551
L214.309 399.355
L216.615 399.355
L216.615 398.59
L218.92 398.59
L218.92 398.93
L221.226 398.93
L221.226 399.471
L223.531 399.471
L223.531 395.184
L225.835 395.184
L225.835 398.79
L228.14 398.79
L228.14 397.411
L230.445 397.411
L230.445 394.531
L232.749 394.531
L232.749 397.942
L235.053 397.942
L235.053 399.667
L236.205 399.667
L236.205 399.667" style="fill:none;stroke:#000000;stroke-linecap:square;"/>
   </g>
   <g id="line2d_57">
    <path clip-path="url(#p8642684f20)" d="
M47.88 369.24
L236.88 369.24" style="fill:none;stroke:#4c4c4c;stroke-dasharray:1.000000,3.000000;stroke-dashoffset:0.0;"/>
   </g>
   <g id="line2d_58">
    <path clip-path="url(#p8642684f20)" d="
M48.9989 374.559
L50.158 374.559
L50.158 370.972
L52.4762 370.972
L52.4762 372.011
L54.7942 372.011
L54.7942 368.041
L57.1121 368.041
L57.1121 362.297
L59.4298 362.297
L59.4298 364.635
L61.7473 364.635
L61.7473 365.807
L64.0646 365.807
L64.0646 365.303
L66.3817 365.303
L66.3817 364.263
L68.6987 364.263
L68.6987 369.587
L71.0155 369.587
L71.0155 366.116
L73.3321 366.116
L73.3321 367.731
L75.6486 367.731
L75.6486 364.594
L77.9648 364.594
L77.9648 369.663
L80.2809 369.663
L80.2809 377.195
L82.5968 377.195
L82.5968 377.6
L84.9125 377.6
L84.9125 375.621
L87.2281 375.621
L87.2281 377.628
L89.5434 377.628
L89.5434 375.549
L91.8586 375.549
L91.8586 373.931
L94.1736 373.931
L94.1736 378.274
L96.4885 378.274
L96.4885 375.428
L98.8031 375.428
L98.8031 376.137
L101.118 376.137
L101.118 369.392
L103.432 369.392
L103.432 369.79
L105.746 369.79
L105.746 370.907
L108.06 370.907
L108.06 370.631
L112.687 370.619
L112.687 366.807
L115.001 366.807
L115.001 364.029
L117.314 364.029
L117.314 365.094
L119.627 365.094
L119.627 364.406
L121.94 364.406
L121.94 361.482
L124.253 361.482
L124.253 356.652
L126.565 356.652
L126.565 360.992
L128.878 360.992
L128.878 363.948
L131.19 363.948
L131.19 365.81
L133.502 365.81
L133.502 367.542
L135.813 367.542
L135.813 363.725
L138.125 363.725
L138.125 365.244
L140.437 365.244
L140.437 368.232
L142.748 368.232
L142.748 362.365
L145.059 362.365
L145.059 364.879
L147.37 364.879
L147.37 366.398
L149.681 366.398
L149.681 371.949
L151.991 371.949
L151.991 370.322
L154.302 370.322
L154.302 374.009
L156.612 374.009
L156.612 365.527
L158.922 365.527
L158.922 370.517
L161.232 370.517
L161.232 368.392
L163.541 368.392
L163.541 365.073
L165.851 365.073
L165.851 368.116
L168.16 368.116
L168.16 367.26
L170.469 367.26
L170.469 365.134
L172.778 365.134
L172.778 368.909
L175.087 368.909
L175.087 372.127
L177.396 372.127
L177.396 373.123
L179.704 373.123
L179.704 371.525
L182.012 371.525
L182.012 371.265
L184.321 371.265
L184.321 371.851
L186.628 371.851
L186.628 376.5
L188.936 376.5
L188.936 378.892
L191.244 378.892
L191.244 376.223
L193.551 376.223
L193.551 377.905
L195.858 377.905
L195.858 374.573
L198.165 374.573
L198.165 375.006
L200.472 375.006
L200.472 374.158
L202.779 374.158
L202.779 368.601
L205.085 368.601
L205.085 366.795
L207.392 366.795
L207.392 364.335
L209.698 364.335
L209.698 366.977
L212.004 366.977
L212.004 364.796
L214.309 364.796
L214.309 363.949
L216.615 363.949
L216.615 371.847
L218.92 371.847
L218.92 370.66
L221.226 370.66
L221.226 369.816
L223.531 369.816
L223.531 369.666
L225.835 369.666
L225.835 373.328
L228.14 373.328
L228.14 371.578
L230.445 371.578
L230.445 376.896
L232.749 376.896
L232.749 374.907
L235.053 374.907
L235.053 374.132
L236.205 374.132
L236.205 374.132" style="fill:none;stroke:#000000;stroke-linecap:square;"/>
   </g>
   <g id="line2d_59">
    <path clip-path="url(#p8642684f20)" d="
M47.88 339.078
L236.88 339.078" style="fill:none;stroke:#4c4c4c;stroke-dasharray:1.000000,3.000000;stroke-dashoffset:0.0;"/>
   </g>
   <g id="line2d_60">
    <path clip-path="url(#p8642684f20)" d="
M48.9989 339.536
L50.158 339.536
L50.158 344.117
L52.4762 344.117
L52.4762 338.817
L54.7942 338.817
L54.7942 339.555
L57.1121 339.555
L57.1121 337.476
L59.4298 337.476
L59.4298 334.98
L61.7473 334.98
L61.7473 336.841
L64.0646 336.841
L64.0646 339.815
L66.3817 339.815
L66.3817 340.251
L68.6987 340.251
L68.6987 337.563
L71.0155 337.563
L71.0155 339.132
L73.3321 339.132
L73.3321 344.356
L75.6486 344.356
L75.6486 343.711
L77.9648 343.711
L77.9648 350.203
L80.2809 350.203
L80.2809 348.085
L82.5968 348.085
L82.5968 344.151
L84.9125 344.151
L84.9125 334.975
L87.2281 334.975
L87.2281 329.799
L89.5434 329.799
L89.5434 324.271
L91.8586 324.271
L91.8586 329.224
L94.1736 329.224
L94.1736 328.702
L96.4885 328.702
L96.4885 329.36
L98.8031 329.36
L98.8031 330.807
L101.118 330.807
L101.118 340.082
L103.432 340.082
L103.432 341.28
L105.746 341.28
L105.746 342.274
L108.06 342.274
L108.06 344.034
L110.374 344.034
L110.374 340.085
L112.687 340.085
L112.687 340.818
L115.001 340.818
L115.001 337.372
L117.314 337.372
L117.314 339.709
L119.627 339.709
L119.627 341.636
L121.94 341.636
L121.94 344.714
L124.253 344.714
L124.253 338.509
L126.565 338.509
L126.565 342.928
L128.878 342.928
L128.878 340.339
L131.19 340.339
L131.19 338.388
L133.502 338.388
L133.502 337.633
L138.125 337.563
L138.125 336.366
L140.437 336.366
L140.437 337.758
L142.748 337.758
L142.748 335.95
L145.059 335.95
L145.059 337.177
L147.37 337.177
L147.37 336.612
L149.681 336.612
L149.681 342.03
L151.991 342.03
L151.991 340.288
L154.302 340.288
L154.302 337.595
L156.612 337.595
L156.612 339.644
L158.922 339.644
L158.922 339.822
L161.232 339.822
L161.232 343.844
L163.541 343.844
L163.541 336.775
L165.851 336.775
L165.851 337.183
L168.16 337.183
L168.16 338.759
L170.469 338.759
L170.469 336.759
L172.778 336.759
L172.778 336.536
L175.087 336.536
L175.087 339.572
L177.396 339.572
L177.396 339.12
L179.704 339.12
L179.704 338.383
L182.012 338.383
L182.012 336.402
L184.321 336.402
L184.321 335.966
L186.628 335.966
L186.628 343.514
L188.936 343.514
L188.936 339.919
L191.244 339.919
L191.244 340.898
L193.551 340.898
L193.551 342.107
L195.858 342.107
L195.858 339.97
L198.165 339.97
L198.165 339.392
L200.472 339.392
L200.472 338.792
L202.779 338.792
L202.779 337.882
L205.085 337.882
L205.085 334.033
L207.392 334.033
L207.392 336.174
L209.698 336.174
L209.698 337.482
L212.004 337.482
L212.004 333.63
L214.309 333.63
L214.309 332.469
L216.615 332.469
L216.615 335.106
L218.92 335.106
L218.92 331.018
L221.226 331.018
L221.226 334.563
L223.531 334.563
L223.531 332.947
L225.835 332.947
L225.835 332.14
L228.14 332.14
L228.14 334.688
L230.445 334.688
L230.445 334.342
L232.749 334.342
L232.749 338.862
L235.053 338.862
L235.053 336.968
L236.205 336.968
L236.205 336.968" style="fill:none;stroke:#000000;stroke-linecap:square;"/>
   </g>
   <g id="matplotlib.axis_5">
    <g id="xtick_9">
     <g id="line2d_61">
      <g>
       <use style="stroke:#000000;stroke-width:0.5;" x="74.88" xlink:href="#mc7db9fdffb" y="463.68"/>
      </g>
     </g>
     <g id="line2d_62">
      <g>
       <use style="stroke:#000000;stroke-width:0.5;" x="74.88" xlink:href="#m5a7d422ac3" y="315.84"/>
      </g>
     </g>
     <g id="text_16">
      <!-- 5202 -->
      <defs>
       <path d="
M11.4062 57.6875
C12.4062 57.2812 16.5 56 20.7031 56
C30 56 35.0938 61.0156 38 63.9219
C38 64.7344 38 65.25 37.4062 65.25
C37.2969 65.25 37.0938 65.25 36.2969 64.8281
C32.7969 63.3125 28.7031 62.0781 23.7031 62.0781
C20.7031 62.0781 16.2031 62.5 11.2969 64.7344
C10.2031 65.25 10 65.25 9.90625 65.25
C9.40625 65.25 9.29688 65.1406 9.29688 63.1562
L9.29688 34.2812
C9.29688 32.5 9.29688 32 10.2969 32
C10.7969 32 11 32.2031 11.5 32.9062
C14.7031 37.4844 19.0938 39.4062 24.0938 39.4062
C27.5938 39.4062 35.0938 37.2188 35.0938 20.1406
C35.0938 16.9531 35.0938 11.1719 32.0938 6.57812
C29.5938 2.48438 25.7031 0.390625 21.4062 0.390625
C14.7969 0.390625 8.09375 5 6.29688 12.7188
C6.70312 12.6094 7.5 12.4219 7.90625 12.4219
C9.20312 12.4219 11.7031 13.125 11.7031 16.2188
C11.7031 18.9062 9.79688 20 7.90625 20
C5.59375 20 4.09375 18.5938 4.09375 15.7969
C4.09375 7.09375 11 -2 21.5938 -2
C31.9062 -2 41.7031 6.875 41.7031 19.75
C41.7031 31.7188 33.9062 41 24.2031 41
C19.0938 41 14.7969 39.0938 11.4062 35.4531
z
" id="CMR17-53"/>
      </defs>
      <g transform="translate(64.9173294968 474.59849838)scale(0.1 -0.1)">
       <use transform="scale(0.9962640099626402)" xlink:href="#CMR17-53"/>
       <use transform="translate(45.69047711706103 0.0)scale(0.9962640099626402)" xlink:href="#CMR17-50"/>
       <use transform="translate(91.38095423412206 0.0)scale(0.9962640099626402)" xlink:href="#CMR17-48"/>
       <use transform="translate(137.07143135118307 0.0)scale(0.9962640099626402)" xlink:href="#CMR17-50"/>
      </g>
     </g>
    </g>
    <g id="xtick_10">
     <g id="line2d_63">
      <g>
       <use style="stroke:#000000;stroke-width:0.5;" x="128.88" xlink:href="#mc7db9fdffb" y="463.68"/>
      </g>
     </g>
     <g id="line2d_64">
      <g>
       <use style="stroke:#000000;stroke-width:0.5;" x="128.88" xlink:href="#m5a7d422ac3" y="315.84"/>
      </g>
     </g>
     <g id="text_17">
      <!-- 5203 -->
      <g transform="translate(118.917329497 474.59849838)scale(0.1 -0.1)">
       <use transform="scale(0.9962640099626402)" xlink:href="#CMR17-53"/>
       <use transform="translate(45.69047711706103 0.0)scale(0.9962640099626402)" xlink:href="#CMR17-50"/>
       <use transform="translate(91.38095423412206 0.0)scale(0.9962640099626402)" xlink:href="#CMR17-48"/>
       <use transform="translate(137.07143135118307 0.0)scale(0.9962640099626402)" xlink:href="#CMR17-51"/>
      </g>
     </g>
    </g>
    <g id="xtick_11">
     <g id="line2d_65">
      <g>
       <use style="stroke:#000000;stroke-width:0.5;" x="182.88" xlink:href="#mc7db9fdffb" y="463.68"/>
      </g>
     </g>
     <g id="line2d_66">
      <g>
       <use style="stroke:#000000;stroke-width:0.5;" x="182.88" xlink:href="#m5a7d422ac3" y="315.84"/>
      </g>
     </g>
     <g id="text_18">
      <!-- 5204 -->
      <defs>
       <path d="
M33.5938 64.3281
C33.5938 66.4062 33.5 66.5 31.7031 66.5
L2 19.5938
L2 17
L27.7969 17
L27.7969 7.14062
C27.7969 3.5 27.5938 2.5 20.5938 2.5
L18.7031 2.5
L18.7031 0
C21.9062 0 27.2969 0 30.7031 0
C34.0938 0 39.5 0 42.7031 0
L42.7031 2.5
L40.7969 2.5
C33.7969 2.5 33.5938 3.5 33.5938 7.14062
L33.5938 17
L43.7969 17
L43.7969 19.5938
L33.5938 19.5938
z

M28.0938 57.7656
L28.0938 19.5938
L4 19.5938
z
" id="CMR17-52"/>
      </defs>
      <g transform="translate(172.917329497 474.59849838)scale(0.1 -0.1)">
       <use transform="scale(0.9962640099626402)" xlink:href="#CMR17-53"/>
       <use transform="translate(45.69047711706103 0.0)scale(0.9962640099626402)" xlink:href="#CMR17-50"/>
       <use transform="translate(91.38095423412206 0.0)scale(0.9962640099626402)" xlink:href="#CMR17-48"/>
       <use transform="translate(137.07143135118307 0.0)scale(0.9962640099626402)" xlink:href="#CMR17-52"/>
      </g>
     </g>
    </g>
    <g id="xtick_12">
     <g id="line2d_67">
      <g>
       <use style="stroke:#000000;stroke-width:0.5;" x="236.88" xlink:href="#mc7db9fdffb" y="463.68"/>
      </g>
     </g>
     <g id="line2d_68">
      <g>
       <use style="stroke:#000000;stroke-width:0.5;" x="236.88" xlink:href="#m5a7d422ac3" y="315.84"/>
      </g>
     </g>
     <g id="text_19">
      <!-- 5205 -->
      <g transform="translate(226.917329497 474.59849838)scale(0.1 -0.1)">
       <use transform="scale(0.9962640099626402)" xlink:href="#CMR17-53"/>
       <use transform="translate(45.69047711706103 0.0)scale(0.9962640099626402)" xlink:href="#CMR17-50"/>
       <use transform="translate(91.38095423412206 0.0)scale(0.9962640099626402)" xlink:href="#CMR17-48"/>
       <use transform="translate(137.07143135118307 0.0)scale(0.9962640099626402)" xlink:href="#CMR17-53"/>
      </g>
     </g>
    </g>
    <g id="text_20">
     <!-- $\lambda$ [\AA] -->
     <g transform="translate(131.310373708 490.215620816)scale(0.1 -0.1)">
      <use transform="scale(0.9962640099626402)" xlink:href="#CMMI12-21"/>
      <use transform="translate(86.98003823552305 0.0)scale(0.9962640099626402)" xlink:href="#CMR17-91"/>
      <use transform="translate(111.85109671738793 17.61874416251557)scale(0.9962640099626402)" xlink:href="#CMR17-23"/>
      <use transform="translate(111.85109671738793 0.0)scale(0.9962640099626402)" xlink:href="#CMR17-65"/>
      <use transform="translate(180.92352652163763 0.0)scale(0.9962640099626402)" xlink:href="#CMR17-93"/>
     </g>
    </g>
   </g>
   <g id="matplotlib.axis_6">
    <g id="ytick_13">
     <g id="line2d_69">
      <g>
       <use style="stroke:#000000;stroke-width:0.5;" x="47.88" xlink:href="#md7965d1ba0" y="452.307692308"/>
      </g>
     </g>
     <g id="line2d_70">
      <g>
       <use style="stroke:#000000;stroke-width:0.5;" x="236.88" xlink:href="#md9a1c1a7cd" y="452.307692308"/>
      </g>
     </g>
     <g id="text_21">
      <!-- $-0.3$ -->
      <g transform="translate(23.401177299 454.798352333)scale(0.1 -0.1)">
       <use transform="scale(0.9962640099626402)" xlink:href="#CMSY10-0"/>
       <use transform="translate(77.4874676506071 0.0)scale(0.9962640099626402)" xlink:href="#CMR17-48"/>
       <use transform="translate(123.17794476766814 0.0)scale(0.9962640099626402)" xlink:href="#CMMI12-58"/>
       <use transform="translate(150.27512185748756 0.0)scale(0.9962640099626402)" xlink:href="#CMR17-51"/>
      </g>
     </g>
    </g>
    <g id="ytick_14">
     <g id="line2d_71">
      <g>
       <use style="stroke:#000000;stroke-width:0.5;" x="47.88" xlink:href="#md7965d1ba0" y="429.563076923"/>
      </g>
     </g>
     <g id="line2d_72">
      <g>
       <use style="stroke:#000000;stroke-width:0.5;" x="236.88" xlink:href="#md9a1c1a7cd" y="429.563076923"/>
      </g>
     </g>
     <g id="text_22">
      <!-- $0.0$ -->
      <g transform="translate(31.1499210237 432.053736948)scale(0.1 -0.1)">
       <use transform="scale(0.9962640099626402)" xlink:href="#CMR17-48"/>
       <use transform="translate(45.69047711706103 0.0)scale(0.9962640099626402)" xlink:href="#CMMI12-58"/>
       <use transform="translate(72.78765420688046 0.0)scale(0.9962640099626402)" xlink:href="#CMR17-48"/>
      </g>
     </g>
    </g>
    <g id="ytick_15">
     <g id="line2d_73">
      <g>
       <use style="stroke:#000000;stroke-width:0.5;" x="47.88" xlink:href="#md7965d1ba0" y="406.818461538"/>
      </g>
     </g>
     <g id="line2d_74">
      <g>
       <use style="stroke:#000000;stroke-width:0.5;" x="236.88" xlink:href="#md9a1c1a7cd" y="406.818461538"/>
      </g>
     </g>
     <g id="text_23">
      <!-- $0.3$ -->
      <g transform="translate(31.1499210237 409.309121563)scale(0.1 -0.1)">
       <use transform="scale(0.9962640099626402)" xlink:href="#CMR17-48"/>
       <use transform="translate(45.69047711706103 0.0)scale(0.9962640099626402)" xlink:href="#CMMI12-58"/>
       <use transform="translate(72.78765420688046 0.0)scale(0.9962640099626402)" xlink:href="#CMR17-51"/>
      </g>
     </g>
    </g>
    <g id="ytick_16">
     <g id="line2d_75">
      <g>
       <use style="stroke:#000000;stroke-width:0.5;" x="47.88" xlink:href="#md7965d1ba0" y="384.073846154"/>
      </g>
     </g>
     <g id="line2d_76">
      <g>
       <use style="stroke:#000000;stroke-width:0.5;" x="236.88" xlink:href="#md9a1c1a7cd" y="384.073846154"/>
      </g>
     </g>
     <g id="text_24">
      <!-- $0.6$ -->
      <g transform="translate(31.1499210237 386.564506179)scale(0.1 -0.1)">
       <use transform="scale(0.9962640099626402)" xlink:href="#CMR17-48"/>
       <use transform="translate(45.69047711706103 0.0)scale(0.9962640099626402)" xlink:href="#CMMI12-58"/>
       <use transform="translate(72.78765420688046 0.0)scale(0.9962640099626402)" xlink:href="#CMR17-54"/>
      </g>
     </g>
    </g>
    <g id="ytick_17">
     <g id="line2d_77">
      <g>
       <use style="stroke:#000000;stroke-width:0.5;" x="47.88" xlink:href="#md7965d1ba0" y="361.329230769"/>
      </g>
     </g>
     <g id="line2d_78">
      <g>
       <use style="stroke:#000000;stroke-width:0.5;" x="236.88" xlink:href="#md9a1c1a7cd" y="361.329230769"/>
      </g>
     </g>
     <g id="text_25">
      <!-- $0.9$ -->
      <g transform="translate(31.1499210237 363.819890794)scale(0.1 -0.1)">
       <use transform="scale(0.9962640099626402)" xlink:href="#CMR17-48"/>
       <use transform="translate(45.69047711706103 0.0)scale(0.9962640099626402)" xlink:href="#CMMI12-58"/>
       <use transform="translate(72.78765420688046 0.0)scale(0.9962640099626402)" xlink:href="#CMR17-57"/>
      </g>
     </g>
    </g>
    <g id="ytick_18">
     <g id="line2d_79">
      <g>
       <use style="stroke:#000000;stroke-width:0.5;" x="47.88" xlink:href="#md7965d1ba0" y="338.584615385"/>
      </g>
     </g>
     <g id="line2d_80">
      <g>
       <use style="stroke:#000000;stroke-width:0.5;" x="236.88" xlink:href="#md9a1c1a7cd" y="338.584615385"/>
      </g>
     </g>
     <g id="text_26">
      <!-- $1.2$ -->
      <g transform="translate(31.1499210237 341.07527541)scale(0.1 -0.1)">
       <use transform="scale(0.9962640099626402)" xlink:href="#CMR17-49"/>
       <use transform="translate(45.69047711706103 0.0)scale(0.9962640099626402)" xlink:href="#CMMI12-58"/>
       <use transform="translate(72.78765420688046 0.0)scale(0.9962640099626402)" xlink:href="#CMR17-50"/>
      </g>
     </g>
    </g>
    <g id="text_27">
     <!-- $\times10^{-13}$ -->
     <g transform="translate(47.88 312.84)scale(0.1 -0.1)">
      <use transform="scale(0.9962640099626402)" xlink:href="#CMSY10-2"/>
      <use transform="translate(77.4874676506071 0.0)scale(0.9962640099626402)" xlink:href="#CMR17-49"/>
      <use transform="translate(123.17794476766814 0.0)scale(0.9962640099626402)" xlink:href="#CMR17-48"/>
      <use transform="translate(168.86842188472914 36.15363894185866)scale(0.6973817666173724)" xlink:href="#CMSY10-0"/>
      <use transform="translate(223.1094151327055 36.15363894185866)scale(0.6973817666173724)" xlink:href="#CMR17-49"/>
      <use transform="translate(255.09259709682442 36.15363894185866)scale(0.6973817666173724)" xlink:href="#CMR17-51"/>
     </g>
    </g>
   </g>
   <g id="patch_13">
    <path d="
M47.88 315.84
L236.88 315.84" style="fill:none;stroke:#000000;"/>
   </g>
   <g id="patch_14">
    <path d="
M236.88 463.68
L236.88 315.84" style="fill:none;stroke:#000000;"/>
   </g>
   <g id="patch_15">
    <path d="
M47.88 463.68
L236.88 463.68" style="fill:none;stroke:#000000;"/>
   </g>
   <g id="patch_16">
    <path d="
M47.88 463.68
L47.88 315.84" style="fill:none;stroke:#000000;"/>
   </g>
   <g id="line2d_81">
    <path clip-path="url(#p8642684f20)" d="
M48.9989 425.504
L50.158 425.504
L50.158 424.802
L52.4762 424.802
L52.4762 429.733
L54.7942 429.733
L54.7942 430.903
L57.1121 430.903
L57.1121 431.914
L59.4298 431.914
L59.4298 432.42
L61.7473 432.42
L61.7473 428.377
L64.0646 428.377
L64.0646 432.961
L66.3817 432.961
L66.3817 429.68
L68.6987 429.68
L68.6987 432.288
L71.0155 432.288
L71.0155 434.104
L73.3321 434.104
L73.3321 436.458
L75.6486 436.458
L75.6486 433.256
L77.9648 433.256
L77.9648 435.91
L80.2809 435.91
L80.2809 439.274
L82.5968 439.274
L82.5968 442.239
L84.9125 442.239
L84.9125 447.498
L87.2281 447.498
L87.2281 451.144
L89.5434 451.144
L89.5434 444.541
L91.8586 444.541
L91.8586 444.136
L94.1736 444.136
L94.1736 437.986
L96.4885 437.986
L96.4885 433.693
L98.8031 433.693
L98.8031 433.994
L101.118 433.994
L101.118 426.072
L103.432 426.072
L103.432 425.703
L105.746 425.703
L105.746 422.02
L108.06 422.02
L108.06 426.702
L110.374 426.702
L110.374 426.912
L112.687 426.912
L112.687 426.212
L115.001 426.212
L115.001 431.492
L117.314 431.492
L117.314 427.946
L119.627 427.946
L119.627 426.534
L121.94 426.534
L121.94 424.727
L124.253 424.727
L124.253 427.018
L126.565 427.018
L126.565 430.88
L128.878 430.88
L128.878 426.056
L131.19 426.056
L131.19 429.73
L133.502 429.73
L133.502 426.254
L135.813 426.254
L135.813 426.918
L138.125 426.918
L138.125 428.802
L142.748 428.803
L142.748 429.673
L145.059 429.673
L145.059 432.214
L147.37 432.214
L147.37 429.201
L149.681 429.201
L149.681 428.927
L151.991 428.927
L151.991 425.185
L154.302 425.185
L154.302 427.243
L156.612 427.243
L156.612 430.024
L158.922 430.024
L158.922 430.34
L161.232 430.34
L161.232 428.724
L163.541 428.724
L163.541 426.764
L165.851 426.764
L165.851 427.084
L168.16 427.084
L168.16 429.971
L170.469 429.971
L170.469 428.676
L172.778 428.676
L172.778 426.776
L175.087 426.776
L175.087 425.194
L177.396 425.194
L177.396 424.102
L179.704 424.102
L179.704 427.614
L182.012 427.614
L182.012 427.275
L184.321 427.275
L184.321 428.507
L186.628 428.507
L186.628 431.032
L188.936 431.032
L188.936 428.205
L191.244 428.205
L191.244 431.2
L193.551 431.2
L193.551 432.355
L195.858 432.355
L195.858 427.595
L198.165 427.595
L198.165 427.728
L200.472 427.728
L200.472 430.324
L205.085 430.313
L205.085 434.863
L207.392 434.863
L207.392 433.562
L209.698 433.562
L209.698 435.63
L212.004 435.63
L212.004 431.889
L216.615 431.94
L216.615 429.536
L218.92 429.536
L218.92 427.725
L221.226 427.725
L221.226 426.58
L223.531 426.58
L223.531 425.878
L225.835 425.878
L225.835 424.619
L228.14 424.619
L228.14 428.604
L230.445 428.604
L230.445 429.218
L232.749 429.218
L232.749 429.53
L235.053 429.53
L235.053 428.255
L236.205 428.255
L236.205 428.255" style="fill:none;stroke:#000000;stroke-linecap:square;"/>
   </g>
  </g>
 </g>
 <defs>
  <clipPath id="p2ba5469660">
   <rect height="147.84" width="189.0" x="47.88" y="168.0"/>
  </clipPath>
  <clipPath id="p841f4d221e">
   <rect height="147.84" width="189.0" x="47.88" y="20.16"/>
  </clipPath>
  <clipPath id="p8642684f20">
   <rect height="147.84" width="189.0" x="47.88" y="315.84"/>
  </clipPath>
 </defs>
</svg>
