<?xml version="1.0" encoding="utf-8" standalone="no"?>
<!DOCTYPE svg PUBLIC "-//W3C//DTD SVG 1.1//EN"
  "http://www.w3.org/Graphics/SVG/1.1/DTD/svg11.dtd">
<!-- Created with matplotlib (http://matplotlib.org/) -->
<svg height="288pt" version="1.1" viewBox="0 0 1008 288" width="1008pt" xmlns="http://www.w3.org/2000/svg" xmlns:xlink="http://www.w3.org/1999/xlink">
 <defs>
  <style type="text/css">
*{stroke-linecap:butt;stroke-linejoin:round;}
  </style>
 </defs>
 <g id="figure_1">
  <g id="patch_1">
   <path d="
M0 288
L1008 288
L1008 0
L0 0
z
" style="fill:#ffffff;"/>
  </g>
  <g id="axes_1">
   <g id="line2d_1">
    <path clip-path="url(#p6c2c4a6cf7)" d="
M-0.307893 18.2435
L0.514657 35.3676
L1.33715 62.4307
L2.15959 105.408
L2.98198 120.81
L3.8043 101.44
L4.62658 59.8382
L5.4488 40.9658
L6.27096 30.5177
L7.09307 23.0593
L7.91512 26.3477
L8.73711 17.2762
L9.55905 18.3207
L10.3809 21.2521
L11.2028 16.3834
L12.0245 26.3014
L12.8463 18.8697
L13.6679 21.1325
L14.4895 13.2684
L15.3111 17.9302
L16.1326 19.7366
L16.954 20.0924
L17.7754 17.2212
L18.5968 12.4586
L19.418 22.9984
L21.0604 16.015
L21.8815 23.2009
L22.7026 19.5872
L23.5236 20.5251
L24.3445 26.868
L25.1654 31.3567
L25.9862 51.9151
L26.807 40.6511
L27.6277 35.8422
L28.4484 38.3467
L29.269 46.1268
L30.0896 49.0938
L30.9101 47.9051
L31.7305 48.343
L32.5509 38.5129
L33.3712 25.95
L34.1915 7.96884
L35.0117 15.0406
L35.8319 18.1962
L36.652 27.913
L37.4721 17.5503
L38.2921 33.817
L39.112 58.9463
L39.9319 94.0153
L40.7517 135.076
L41.5715 136.809
L42.3913 103.339
L43.2109 47.5694
L44.0305 34.4845
L44.8501 29.4467
L45.6696 33.3183
L46.489 53.7596
L47.3084 42.7328
L48.1278 37.5894
L48.947 25.3543
L49.7663 24.13
L50.5854 17.6299
L51.4045 17.2831
L52.2236 13.0602
L53.0426 12.6378
L53.8616 17.4982
L54.6804 13.9757
L55.4993 17.6783
L56.3181 19.862
L57.1368 17.8297
L58.7741 44.9827
L59.5926 52.3647
L60.4111 45.3111
L62.048 27.3965
L62.8663 22.1105
L63.6846 25.7212
L64.5028 17.9658
L65.321 12.3553
L66.1391 11.1325
L66.9571 16.6935
L67.7751 19.6214
L68.5931 33.4762
L69.411 52.3223
L70.2288 81.6467
L71.0466 102.296
L71.8643 93.7334
L72.682 56.1498
L73.4996 34.1254
L74.3172 30.3175
L75.1347 29.6072
L75.9521 25.9823
L76.7695 20.7208
L77.5868 12.0014
L78.4041 22.3151
L79.2213 13.5939
L80.0385 21.6136
L80.8556 16.8599
L81.6727 17.4733
L82.4897 22.2347
L83.3066 20.055
L84.1235 22.55
L84.9404 11.4461
L85.7571 26.6071
L86.5739 22.0097
L87.3905 30.5979
L88.2071 20.5463
L89.0237 21.7793
L89.8402 27.2115
L90.6566 21.9063
L91.473 26.2803
L92.2894 12.8694
L93.1056 26.0917
L93.9219 18.9828
L94.738 18.5819
L95.5541 18.4081
L96.3702 32.4085
L97.1862 24.8062
L98.0021 32.1945
L98.818 24.761
L99.6339 21.6306
L100.45 20.0787
L101.265 16.517
L102.081 26.1725
L102.897 15.9247
L103.712 19.4547
L104.528 19.5389
L105.343 19.9927
L106.159 12.0716
L106.974 22.2806
L107.789 23.9209
L108.604 17.5743
L109.42 23.9588
L110.235 27.6699
L111.05 21.7198
L111.865 21.4089
L112.68 25.7605
L113.495 16.601
L114.309 23.2025
L115.124 11.6714
L115.939 17.8902
L116.753 15.0229
L117.568 21.0369
L118.383 17.0259
L119.197 16.0503
L120.012 20.1624
L120.826 9.67138
L121.64 17.3871
L122.455 11.9746
L123.269 12.3899
L124.083 17.4711
L124.897 18.1458
L125.711 22.0891
L126.525 25.2986
L127.339 36.5373
L128.153 71.6502
L128.967 87.0575
L129.781 95.7965
L131.408 40.2272
L132.222 32.8231
L133.035 22.1725
L133.849 18.3987
L134.662 20.2987
L135.475 23.8028
L136.289 19.1749
L137.102 26.4539
L137.915 21.6533
L138.728 27.322
L139.541 12.3458
L140.354 16.9163
L141.167 20.3609
L141.98 14.0039
L142.793 21.8219
L143.606 19.2229
L144.419 16.1844
L145.232 17.965
L146.044 24.0572
L146.857 19.9066
L147.669 17.4679
L148.482 22.9821
L149.294 19.204
L150.107 6.6169
L150.919 17.4394
L151.731 17.4206
L153.356 10.8938
L154.168 19.5196
L154.98 23.2372
L155.792 18.2102
L156.604 15.12
L157.416 14.9846
L158.227 16.858
L159.039 33.3898
L159.851 23.3864
L160.663 36.3466
L161.474 28.9338
L162.286 24.0245
L163.097 26.7629
L163.909 14.5494
L164.72 18.5626
L165.531 23.8988
L166.343 33.1759
L167.154 21.9441
L167.965 23.8559
L168.776 24.4399
L169.587 14.6388
L170.398 20.6573
L171.209 16.2899
L172.02 17.9394
L172.831 9.0734
L173.641 15.4728
L174.452 24.0939
L175.263 17.8735
L176.073 19.4738
L176.884 22.1928
L177.694 24.1024
L178.505 15.0068
L179.315 18.3746
L180.125 15.0595
L180.936 25.1723
L181.746 18.8558
L182.556 22.83
L183.366 47.927
L184.176 77.9617
L184.986 126.632
L185.796 163.762
L186.606 176.716
L188.225 90.5661
L189.035 54.8415
L189.845 38.343
L190.654 28.4292
L191.464 26.5434
L192.273 22.7895
L193.083 26.9399
L193.892 22.5858
L194.701 23.97
L195.511 27.2311
L196.32 17.9797
L197.129 15.7438
L197.938 16.9668
L198.747 23.2186
L199.556 19.1533
L200.365 19.1687
L201.174 12.3737
L201.983 18.2616
L202.791 11.1513
L203.6 9.78814
L204.409 15.7925
L205.217 7.41861
L206.026 10.012
L206.834 15.4019
L207.643 13.4652
L208.451 20.7892
L209.259 24.9009
L210.067 13.4252
L210.876 19.0876
L211.684 15.9044
L212.492 17.5473
L213.3 14.773
L214.108 14.1579
L214.916 21.1347
L215.724 14.8045
L216.531 16.1568
L217.339 13.0774
L218.954 16.1185
L219.762 16.0696
L220.57 18.1168
L221.377 17.6516
L222.184 19.3589
L222.992 11.0652
L223.799 17.2497
L224.606 22.4419
L225.413 36.0012
L226.221 52.4821
L227.028 46.6482
L227.835 30.9948
L228.642 20.0418
L229.448 22.1258
L230.255 16.4016
L231.062 19.6955
L232.675 28.3306
L233.482 19.207
L234.289 15.6995
L236.708 23.9647
L237.514 29.5535
L238.321 21.0996
L239.933 58.5132
L240.739 94.2692
L241.545 119.641
L242.351 109.522
L243.963 46.1664
L244.769 29.5292
L245.575 16.7927
L246.38 17.0229
L247.186 17.5733
L247.992 18.9149
L248.797 15.206
L249.603 20.7495
L250.408 15.3825
L251.213 21.9082
L252.019 17.8754
L252.824 19.5697
L254.434 39.8237
L256.849 135.863
L257.654 125.709
L259.264 51.4708
L260.069 34.6053
L260.874 30.758
L261.678 17.5328
L262.483 32.1419
L263.287 32.6874
L264.092 28.6984
L264.896 29.7842
L265.701 31.65
L266.505 34.4758
L267.309 36.3151
L268.113 31.344
L268.917 37.1535
L269.722 48.0129
L270.526 70.7765
L271.33 86.6188
L272.133 108.67
L272.937 141.815
L274.545 235.472
L275.349 259.984
L276.152 266.854
L276.956 264.577
L277.759 257.008
L278.563 243.834
L279.366 211.497
L280.17 152.906
L280.973 106.619
L281.776 76.9685
L282.579 56.2239
L283.382 47.2351
L284.186 36.2013
L284.989 33.5042
L285.792 29.6416
L286.594 33.3686
L287.397 32.4362
L288.2 27.4874
L289.003 26.5887
L289.805 27.015
L290.608 40.0415
L291.411 35.2781
L292.213 28.9736
L293.016 27.7742
L293.818 26.9574
L294.62 21.7911
L295.423 31.8543
L296.225 31.202
L297.829 65.7987
L298.631 91.2638
L299.433 92.1736
L300.235 80.1059
L301.037 79.6229
L301.839 103.827
L303.442 191.91
L304.244 226.018
L305.046 238.76
L305.847 246.314
L306.649 225.99
L307.45 177.342
L308.252 120.195
L309.053 83.4005
L309.854 61.3581
L310.655 43.4705
L311.457 36.3764
L313.059 24.6471
L313.86 27.3182
L314.661 24.9898
L315.462 15.4157
L316.262 12.712
L317.063 22.6553
L317.864 23.4765
L318.665 18.8788
L319.465 20.6526
L320.266 16.6371
L321.066 23.3594
L321.867 14.3773
L322.667 14.7889
L323.467 11.6662
L324.268 20.4141
L325.068 19.9692
L325.868 21.3868
L326.668 13.4984
L327.468 16.1628
L328.268 19.2956
L329.068 11.9074
L329.868 12.2158
L330.668 18.7882
L331.467 15.8719
L332.267 24.2618
L333.866 17.1367
L334.666 33.0559
L336.265 56.1849
L337.064 50.7608
L339.462 23.4329
L340.261 22.4993
L341.06 26.7231
L341.859 20.4825
L342.658 19.0151
L343.457 24.4263
L344.256 23.2282
L345.054 14.1799
L345.853 28.1478
L346.652 22.5092
L347.451 29.4159
L348.249 37.9053
L349.048 81.5631
L349.846 134.768
L350.644 179.641
L351.443 190.84
L352.241 168.013
L353.039 110.504
L353.837 64.1381
L354.636 38.2956
L355.434 36.8923
L356.232 30.9314
L357.03 34.4218
L357.827 36.8885
L358.625 38.6826
L360.221 46.5184
L361.018 56.2187
L361.816 59.2602
L362.614 65.9123
L363.411 79.5775
L364.209 89.2687
L365.006 94.947
L365.803 120.608
L366.601 138.795
L367.398 172.631
L368.195 200.26
L368.992 242.934
L369.789 268.123
L370.586 280.258
L371.383 263.956
L372.18 239.394
L373.773 159.145
L376.163 86.1668
L376.96 76.9902
L377.756 72.0221
L379.349 48.1508
L380.145 49.9047
L381.738 35.3111
L382.534 34.5302
L383.33 34.8478
L384.126 36.9986
L384.922 28.1982
L385.718 37.1078
L386.514 33.3886
L387.31 54.391
L388.105 67.1815
L388.901 91.5046
L389.697 77.7055
L390.492 56.0217
L391.288 38.591
L392.083 28.1163
L392.879 26.9463
L393.674 22.718
L394.469 25.0213
L395.265 17.0348
L396.06 16.8253
L396.855 25.5277
L397.65 21.7899
L398.445 16.3958
L399.24 19.1248
L400.035 24.3589
L400.83 21.2571
L401.624 25.9601
L402.419 23.9484
L403.214 16.3069
L404.008 13.214
L404.803 15.0205
L405.597 20.2572
L406.392 14.427
L407.186 21.3904
L407.981 22.0533
L408.775 11.3805
L409.569 13.0289
L411.157 13.9844
L411.951 16.49
L412.745 16.8123
L413.539 19.5559
L414.333 14.1163
L415.127 16.9906
L415.921 13.5228
L416.714 11.9824
L417.508 19.4142
L418.302 18.0076
L419.095 19.2795
L419.889 16.7496
L420.682 15.6281
L421.475 24.0956
L422.269 15.9916
L423.062 19.8943
L424.648 12.5546
L425.441 14.3761
L426.234 16.4922
L427.027 17.7344
L427.82 21.2954
L428.613 20.035
L429.406 23.537
L430.199 19.3792
L430.991 27.1674
L431.784 19.5767
L432.577 19.8532
L433.369 10.9523
L434.162 28.1935
L434.954 16.4347
L435.746 16.5669
L436.539 27.8598
L437.331 34.7725
L438.123 62.2454
L438.915 65.4068
L439.707 67.6532
L440.499 34.9881
L441.291 32.5015
L442.083 24.6386
L442.875 21.9467
L443.667 18.7286
L444.458 7.74257
L445.25 9.76608
L446.042 21.4224
L446.833 17.1198
L447.625 17.2557
L448.416 12.5829
L449.208 23.6568
L449.999 28.3776
L450.79 31.9621
L451.581 27.1714
L452.372 35.2085
L453.164 29.5655
L453.955 30.0752
L454.746 26.0915
L455.536 20.5597
L456.327 21.1517
L457.118 18.402
L457.909 16.3419
L458.7 19.4487
L459.49 21.2634
L460.281 15.8612
L461.071 19.9901
L461.862 10.0513
L462.652 17.3581
L463.443 8.44391
L464.233 20.4784
L465.023 13.218
L465.813 17.2409
L466.603 7.97656
L467.394 2.44178
L468.974 16.1278
L469.763 16.28
L470.553 8.6601
L471.343 18.3946
L472.133 12.2653
L472.922 21.2226
L473.712 12.5593
L474.502 12.44
L475.291 9.30109
L476.081 10.3201
L477.659 29.6625
L478.449 30.3818
L479.238 29.7804
L480.027 21.7461
L480.816 21.6534
L481.605 18.5923
L482.394 21.4261
L483.183 26.7863
L483.972 26.9941
L484.761 17.6704
L485.55 18.4656
L486.338 16.7458
L487.127 13.9726
L487.915 16.5977
L488.704 21.6055
L489.492 11.2249
L490.281 15.648
L491.069 15.946
L491.858 15.9029
L492.646 17.3838
L493.434 24.5395
L494.222 16.9379
L495.01 28.3966
L495.798 27.3497
L496.586 22.6705
L497.374 20.576
L498.162 20.754
L498.95 30.4647
L499.738 33.3813
L500.525 60.3229
L501.313 52.8769
L502.888 26.8039
L503.675 27.7898
L504.463 20.7922
L505.25 21.8115
L506.037 15.3773
L506.825 18.4812
L507.612 14.0405
L508.399 21.2163
L509.186 17.3025
L509.973 27.1014
L510.76 12.1202
L511.547 13.723
L512.334 18.2242
L513.12 14.3728
L513.907 14.3945
L514.694 13.99
L515.48 15.3308
L516.267 14.4542
L517.053 20.566
L517.84 14.807
L518.626 19.5823
L520.199 21.1692
L520.985 22.8165
L521.771 37.5449
L522.557 32.4335
L523.343 39.2982
L524.129 33.1346
L524.915 24.2007
L525.701 26.8504
L526.487 28.8271
L527.273 13.5635
L528.058 28.1981
L528.844 24.5628
L530.415 32.4364
L531.2 25.1611
L531.986 28.9007
L532.771 28.4948
L533.557 22.0154
L534.342 20.9775
L535.127 24.27
L535.912 26.1123
L536.697 20.8453
L537.482 21.7672
L538.267 23.5148
L539.052 27.2128
L539.837 22.3786
L540.622 30.7193
L541.406 33.2851
L542.191 30.5307
L542.976 35.3936
L543.76 28.1522
L544.545 27.5513
L545.329 30.4943
L546.898 40.3747
L547.682 42.8177
L548.466 41.7768
L549.25 35.8235
L550.034 51.2306
L550.818 53.3328
L551.602 48.6838
L552.386 61.5298
L553.17 61.4596
L553.954 69.1324
L554.738 71.5404
L555.522 77.8356
L556.305 95.8604
L557.089 108.643
L559.439 156.684
L560.222 182.998
L561.006 202.727
L561.789 231.173
L562.572 264.995
L563.355 285.953
L564.138 284.918
L564.921 261.037
L567.27 167.458
L568.053 144.424
L569.618 108.567
L570.401 93.3997
L571.183 83.2379
L571.966 82.503
L572.748 80.3887
L573.531 92.8491
L574.313 110.246
L575.095 109.067
L575.877 94.3654
L576.66 71.7288
L577.442 59.5966
L578.224 54.4422
L579.006 60.1656
L579.788 74.9904
L580.57 75.4489
L581.351 67.3955
L582.133 53.0791
L582.915 45.3267
L583.696 34.1485
L584.478 26.6608
L585.259 21.7399
L586.041 23.552
L586.822 21.0326
L587.604 23.2414
L588.385 26.0392
L589.166 19.2762
L589.947 25.6719
L590.729 19.0666
L592.291 17.074
L593.072 19.7722
L593.852 25.5342
L594.633 18.9365
L595.414 16.4437
L596.195 22.0782
L596.975 20.0743
L597.756 20.5229
L598.537 19.1769
L599.317 20.8955
L600.098 24.6085
L600.878 20.0713
L601.658 39.1189
L602.438 71.8521
L603.219 113.488
L603.999 137.924
L604.779 123.185
L605.559 92.7191
L606.339 51.7679
L607.119 42.8171
L607.899 20.1973
L608.679 23.13
L609.458 21.2505
L610.238 17.9041
L611.018 19.6652
L611.797 18.3386
L612.577 22.3472
L613.356 25.1311
L614.136 23.5659
L614.915 28.012
L615.694 20.1732
L616.473 24.0984
L617.253 22.9203
L618.032 22.3738
L618.811 17.1685
L619.59 20.0599
L620.369 14.9367
L621.148 10.9729
L621.926 14.8956
L622.705 14.3491
L623.484 15.6122
L624.263 12.8819
L625.041 23.3642
L625.82 25.3926
L626.598 22.0795
L627.377 18.1215
L628.155 20.7821
L628.933 20.9275
L629.712 20.3922
L630.49 29.0929
L631.268 28.1639
L632.046 29.2886
L632.824 26.1968
L633.602 23.6186
L634.38 16.6063
L635.158 21.4354
L636.713 22.1238
L637.491 30.4816
L638.269 47.3031
L639.046 59.8653
L639.824 64.8892
L640.601 53.3189
L641.379 37.0609
L642.933 15.4216
L643.71 17.9575
L644.488 21.895
L645.265 19.6146
L646.042 14.2888
L646.819 15.9469
L647.596 15.6234
L648.373 17.2202
L649.149 22.5763
L649.926 22.599
L650.703 39.2598
L651.479 79.0837
L652.256 136.167
L653.033 181.267
L653.809 194.373
L654.586 191.366
L655.362 175.042
L656.138 166.138
L658.467 58.2414
L659.243 37.4482
L660.019 24.505
L660.795 23.3268
L661.571 23.0235
L662.347 28.0783
L663.122 20.3343
L663.898 19.4534
L664.674 11.2351
L665.449 13.2704
L666.225 21.5554
L667 24.4163
L667.776 19.3895
L668.551 13.1307
L669.327 16.8502
L670.102 13.7464
L671.652 24.5414
L672.427 17.4886
L673.202 13.4976
L673.977 15.3234
L674.752 12.0185
L675.527 21.2973
L676.302 16.4614
L677.077 14.1995
L677.851 19.8794
L678.626 13.1986
L679.401 11.6177
L680.95 19.9265
L681.724 13.5947
L682.498 18.4118
L683.273 16.419
L684.047 15.9707
L684.821 22.2858
L685.595 12.0899
L686.369 21.3293
L687.143 22.1139
L687.917 19.9607
L688.691 20.6804
L689.465 14.2223
L690.239 20.1412
L691.012 13.5068
L691.786 10.7
L692.56 11.5499
L693.333 20.1354
L694.107 18.7972
L694.88 19.3969
L695.654 21.6437
L696.427 20.9314
L697.2 15.1321
L697.973 26.744
L698.747 29.0474
L699.52 44.842
L700.293 81.1591
L701.066 131.598
L701.839 174.012
L702.611 188.026
L703.384 166.215
L704.157 120.005
L704.93 86.3929
L705.702 58.4497
L706.475 36.5037
L707.247 35.9841
L708.02 21.5721
L708.792 20.1382
L709.564 24.5347
L710.337 30.339
L711.109 29.2302
L711.881 40.2884
L712.653 34.7298
L713.425 33.4335
L714.197 29.2748
L714.969 48.8197
L715.741 73.9243
L716.513 113.761
L717.285 172.393
L718.056 194.38
L718.828 183.714
L719.6 128.299
L720.371 81.0767
L721.914 43.9065
L722.685 35.7435
L723.457 32.0997
L724.228 22.8242
L724.999 24.2346
L725.77 25.0598
L726.541 34.8831
L727.312 50.3361
L728.083 72.4538
L728.854 100.778
L730.396 73.1186
L731.167 40.6729
L731.937 24.3773
L732.708 26.7735
L733.478 25.869
L734.249 20.1203
L735.019 25.9447
L735.79 14.8286
L737.33 26.2477
L738.1 25.9374
L738.871 27.1
L740.411 17.2705
L741.181 18.3615
L741.951 19.9632
L742.721 16.4599
L743.49 23.4236
L744.26 17.4673
L745.03 15.5003
L745.799 17.0321
L746.569 21.5274
L747.338 17.7027
L748.108 25.145
L748.877 28.2806
L749.647 25.9752
L750.416 22.1504
L751.185 19.9328
L751.954 12.4408
L752.723 17.8443
L753.492 17.9737
L754.261 24.7174
L755.03 18.4731
L755.799 18.4537
L756.568 17.3126
L757.337 12.446
L758.106 15.6515
L758.874 16.7886
L759.643 16.6886
L760.411 22.1918
L761.18 38.2559
L761.948 69.0817
L762.717 119.558
L763.485 161.008
L764.253 168.582
L765.021 137.192
L765.789 82.8914
L766.558 45.2304
L767.326 25.5161
L768.094 30.6894
L768.861 16.029
L769.629 23.0668
L770.397 34.045
L771.165 56.5311
L771.932 87.3515
L772.7 124.77
L773.468 134.434
L774.235 115.49
L775.002 79.4726
L775.77 51.0945
L776.537 28.6672
L777.304 19.2064
L778.072 22.6806
L778.839 20.4791
L779.606 21.2409
L780.373 21.381
L781.14 25.9284
L781.907 44.1959
L783.44 104.3
L784.207 101.474
L784.974 67.347
L786.507 26.2907
L787.274 16.2162
L788.04 18.6418
L789.573 45.0544
L790.339 47.1707
L791.105 51.7598
L792.638 40.742
L793.404 30.7767
L794.17 30.1428
L794.935 16.0953
L795.701 20.5594
L796.467 15.1342
L797.233 17.9617
L797.999 16.459
L798.764 17.6554
L799.53 14.0149
L800.295 16.2381
L801.061 16.2067
L801.826 26.4399
L802.592 34.5027
L803.357 37.6901
L804.122 27.0559
L804.887 22.2971
L805.652 29.7571
L806.417 16.314
L807.182 24.657
L807.947 42.3648
L808.712 84.2868
L809.477 141.6
L810.242 163.534
L811.007 156.08
L811.771 118.27
L812.536 71.0885
L813.3 44.7972
L814.065 30.2285
L814.829 31.5141
L816.358 43.0477
L817.122 44.1618
L817.886 41.5207
L818.651 31.9224
L819.415 31.7985
L820.179 11.2485
L820.943 16.0129
L821.707 24.7267
L822.47 12.8354
L823.234 19.3238
L823.998 19.8261
L824.762 21.0306
L825.525 24.504
L826.289 19.297
L827.052 19.6339
L827.816 23.2293
L828.579 49.319
L829.342 92.2323
L830.106 122.026
L830.869 129.285
L831.632 105.378
L832.395 67.5304
L833.158 37.6957
L833.921 23.2228
L834.684 27.2509
L835.447 11.9754
L836.21 16.9869
L836.972 17.5818
L837.735 23.7302
L838.498 15.0391
L839.26 12.6844
L840.023 19.0773
L840.785 18.231
L841.548 19.542
L842.31 18.6001
L843.072 23.1975
L843.835 15.399
L844.597 18.7765
L845.359 15.2445
L846.121 16.0646
L846.883 26.1724
L847.645 24.2064
L848.407 19.4895
L849.168 20.2194
L849.93 13.853
L850.692 17.5119
L851.454 24.2023
L852.215 6.49147
L852.977 14.4426
L853.738 15.2123
L854.5 20.5794
L855.261 32.4337
L856.022 42.1375
L856.783 40.7497
L858.306 30.1746
L859.067 52.8055
L859.828 64.0042
L860.589 91.6384
L861.35 77.7578
L862.11 46.8671
L863.632 21.4059
L864.393 20.8713
L865.153 21.7607
L865.914 16.6753
L866.674 21.2146
L867.435 23.085
L868.195 19.99
L868.955 20.5493
L869.716 21.9248
L870.476 25.2214
L871.236 24.8236
L871.996 27.4726
L872.756 20.0732
L873.516 22.2454
L874.276 28.7551
L875.036 22.1298
L875.795 21.1855
L876.555 21.4324
L877.315 23.7987
L878.074 14.4319
L878.834 21.5891
L879.594 21.1197
L880.353 16.3276
L881.112 23.0774
L881.872 14.2407
L882.631 12.747
L883.39 22.718
L884.908 26.724
L885.667 27.8546
L886.426 19.6301
L887.185 29.2265
L887.944 22.3155
L888.703 27.6283
L889.462 31.6679
L890.22 38.5702
L890.979 39.4952
L891.737 63.5858
L894.013 177.555
L894.771 182.536
L897.046 60.1796
L897.804 38.3444
L898.562 37.6327
L899.32 23.8958
L900.078 24.5519
L900.836 15.1308
L901.593 21.3254
L903.109 16.2173
L903.867 26.813
L904.624 19.3006
L905.382 16.2765
L906.139 12.4723
L906.896 17.2297
L907.654 25.3423
L908.411 15.5991
L909.168 23.7051
L909.926 16.8879
L910.683 18.3727
L911.44 22.1151
L912.197 21.8436
L912.954 23.3661
L913.71 28.3301
L914.467 21.8063
L915.224 21.1621
L915.981 13.5145
L916.737 18.0213
L917.494 24.0427
L918.25 24.9796
L919.007 21.9818
L919.763 18.1949
L920.52 18.8213
L921.276 24.5258
L922.032 21.8386
L922.788 18.6694
L923.545 16.5408
L924.301 14.8712
L925.057 21.828
L925.813 20.3584
L926.568 22.4276
L927.324 27.6321
L928.08 22.0789
L929.591 36.6854
L930.347 41.9774
L931.102 76.0962
L932.613 183.307
L933.369 219.065
L934.124 204.701
L934.879 166.431
L935.634 106.337
L936.39 64.4751
L937.145 36.0517
L937.9 23.2195
L938.655 18.2969
L939.409 16.2671
L940.164 13.5892
L940.919 21.9038
L941.674 23.1653
L942.428 23.8161
L943.183 21.4894
L943.938 21.7822
L944.692 23.5874
L945.447 22.7383
L946.201 20.2917
L946.955 18.8473
L947.709 25.6629
L948.464 17.876
L949.218 24.5767
L949.972 22.3719
L950.726 22.3773
L951.48 31.7612
L952.234 25.2815
L952.988 49.8776
L953.741 87.6799
L954.495 103.429
L955.249 102.42
L956.002 83.9482
L956.756 50.9333
L957.509 64.1414
L958.263 96.1839
L959.77 202.059
L960.523 213.724
L961.276 177.315
L962.782 84.6188
L963.535 58.9471
L964.288 43.7566
L965.041 24.3101
L965.794 21.4149
L966.547 25.7964
L967.299 24.6948
L968.052 25.1553
L968.805 27.3231
L969.557 20.3464
L971.062 13.8714
L971.815 20.2928
L972.567 28.7953
L973.319 23.073
L974.071 20.3349
L974.824 22.1162
L975.576 21.8882
L977.08 15.8987
L977.832 18.8635
L978.583 15.9675
L979.335 16.4995
L980.087 15.163
L980.839 23.4212
L981.59 21.8194
L982.342 24.5872
L983.093 18.8265
L983.845 19.4579
L984.596 24.3937
L985.348 19.7134
L986.099 16.0596
L986.85 25.4762
L987.601 25.3393
L988.352 13.1122
L989.103 24.9498
L989.854 27.4718
L990.605 19.7007
L991.356 29.723
L992.107 32.7006
L992.858 37.3221
L995.109 25.7249
L995.86 41.094
L996.61 27.7971
L998.111 38.7117
L998.861 38.6161
L999.612 54.2955
L1000.36 92.3471
L1001.86 201.075
L1002.61 225.396
L1004.11 204.987
L1005.61 169.241
L1007.86 57.134
L1008.61 39.3245
L1008.61 39.3245" style="fill:none;stroke:#0000ff;stroke-linecap:square;stroke-width:3;"/>
   </g>
  </g>
 </g>
 <defs>
  <clipPath id="p6c2c4a6cf7">
   <rect height="288.0" width="1008.0" x="0.0" y="0.0"/>
  </clipPath>
 </defs>
</svg>
