<?xml version="1.0" encoding="utf-8" standalone="no"?>
<!DOCTYPE svg PUBLIC "-//W3C//DTD SVG 1.1//EN"
  "http://www.w3.org/Graphics/SVG/1.1/DTD/svg11.dtd">
<!-- Created with matplotlib (http://matplotlib.org/) -->
<svg height="194pt" version="1.1" viewBox="0 0 252 194" width="252pt" xmlns="http://www.w3.org/2000/svg" xmlns:xlink="http://www.w3.org/1999/xlink">
 <defs>
  <style type="text/css">
*{stroke-linecap:butt;stroke-linejoin:round;}
  </style>
 </defs>
 <g id="figure_1">
  <g id="patch_1">
   <path d="
M0 194.4
L252 194.4
L252 0
L0 0
z
" style="fill:#ffffff;"/>
  </g>
  <g id="axes_1">
   <g id="patch_2">
    <path d="
M42.84 88.452
L209.16 88.452
L209.16 13.608
L42.84 13.608
z
" style="fill:#ffffff;"/>
   </g>
   <g id="line2d_1">
    <path clip-path="url(#p3f85bb24e7)" d="
M43.3262 26.0294
L43.7438 26.0294
L43.7438 24.8109
L44.579 24.8109
L44.579 25.2902
L45.4142 25.2902
L45.4142 27.2241
L46.2492 27.2241
L46.2492 30.7367
L47.0843 30.7367
L47.0843 32.4521
L47.9192 32.4521
L47.9192 31.5722
L48.7541 31.5722
L48.7541 30.7481
L49.589 30.7481
L49.589 26.297
L50.4237 26.297
L50.4237 24.2046
L51.2585 24.2046
L51.2585 25.9898
L52.0931 25.9898
L52.0931 25.2274
L52.9277 25.2274
L52.9277 26.0171
L53.7622 26.0171
L53.7622 24.3277
L54.5967 24.3277
L54.5967 24.2132
L55.4311 24.2132
L55.4311 25.1036
L56.2655 25.1036
L56.2655 22.9312
L57.0998 22.9312
L57.0998 22.3056
L57.934 22.3056
L57.934 23.5434
L58.7682 23.5434
L58.7682 22.087
L59.6023 22.087
L59.6023 22.6794
L60.4364 22.6794
L60.4364 21.6688
L61.2704 21.6688
L61.2704 23.8458
L62.1043 23.8458
L62.1043 24.2841
L62.9382 24.2841
L62.9382 25.3269
L63.772 25.3269
L63.772 23.2539
L64.6057 23.2539
L64.6057 22.7654
L65.4394 22.7654
L65.4394 23.0134
L66.273 23.0134
L66.273 22.7352
L67.1066 22.7352
L67.1066 24.6928
L67.9401 24.6928
L67.9401 23.031
L68.7736 23.031
L68.7736 26.1597
L69.607 26.1597
L69.607 30.7969
L70.4403 30.7969
L70.4403 42.3366
L71.2736 42.3366
L71.2736 56.7678
L72.1068 56.7678
L72.1068 61.583
L72.9399 61.583
L72.9399 58.1986
L73.773 58.1986
L73.773 46.9421
L74.606 46.9421
L74.606 35.0185
L75.439 35.0185
L75.439 28.5037
L76.2719 28.5037
L76.2719 25.3936
L77.1047 25.3936
L77.1047 22.9668
L77.9375 22.9668
L77.9375 29.6748
L78.7702 29.6748
L78.7702 36.802
L79.6029 36.802
L79.6029 47.8999
L80.4355 47.8999
L80.4355 62.8048
L81.268 62.8048
L81.268 70.7511
L82.1005 70.7511
L82.1005 68.7364
L82.9329 68.7364
L82.9329 57.9877
L83.7653 57.9877
L83.7653 46.0414
L84.5976 46.0414
L84.5976 31.5644
L85.4298 31.5644
L85.4298 28.0589
L86.262 28.0589
L86.262 25.5456
L87.0941 25.5456
L87.0941 25.1863
L88.7582 25.1697
L88.7582 23.9023
L89.5901 23.9023
L89.5901 26.8583
L90.422 26.8583
L90.422 22.7324
L91.2538 22.7324
L91.2538 24.4525
L92.0855 24.4525
L92.0855 26.0581
L92.9172 26.0581
L92.9172 25.6506
L93.7489 25.6506
L93.7489 23.7366
L94.5804 23.7366
L94.5804 25.3524
L95.4119 25.3524
L95.4119 24.4932
L96.2434 24.4932
L96.2434 27.5707
L97.0748 27.5707
L97.0748 23.2815
L97.9061 23.2815
L97.9061 25.1004
L98.7374 25.1004
L98.7374 27.2708
L99.5686 27.2708
L99.5686 35.8712
L100.4 35.8712
L100.4 48.3911
L101.231 48.3911
L101.231 62.1997
L102.062 62.1997
L102.062 67.0861
L102.893 67.0861
L102.893 58.2775
L103.724 58.2775
L103.724 44.0525
L104.555 44.0525
L104.555 32.5547
L105.385 32.5547
L105.385 30.1892
L106.216 30.1892
L106.216 27.8069
L107.047 27.8069
L107.047 25.2744
L107.877 25.2744
L107.877 27.3279
L108.708 27.3279
L108.708 27.5174
L110.369 27.4381
L110.369 29.7785
L111.199 29.7785
L111.199 33.0505
L112.029 33.0505
L112.029 34.3906
L112.86 34.3906
L112.86 32.7175
L113.69 32.7175
L113.69 30.6326
L114.52 30.6326
L114.52 28.7914
L115.35 28.7914
L115.35 36.4288
L116.18 36.4288
L116.18 45.584
L117.01 45.584
L117.01 61.8648
L117.84 61.8648
L117.84 74.3867
L118.67 74.3867
L118.67 73.9476
L119.499 73.9476
L119.499 66.1184
L120.329 66.1184
L120.329 51.0963
L121.159 51.0963
L121.159 37.8931
L121.988 37.8931
L121.988 31.2239
L122.818 31.2239
L122.818 27.9388
L123.647 27.9388
L123.647 26.105
L124.477 26.105
L124.477 23.3178
L125.306 23.3178
L125.306 25.2467
L126.135 25.2467
L126.135 24.6446
L126.964 24.6446
L126.964 27.8034
L127.794 27.8034
L127.794 36.1449
L128.623 36.1449
L128.623 44.9353
L129.452 44.9353
L129.452 52.8431
L130.281 52.8431
L130.281 50.4873
L131.11 50.4873
L131.11 40.2391
L131.938 40.2391
L131.938 31.3424
L132.767 31.3424
L132.767 28.5895
L133.596 28.5895
L133.596 24.6027
L134.425 24.6027
L134.425 27.682
L135.253 27.682
L135.253 29.2965
L136.082 29.2965
L136.082 30.3319
L136.91 30.3319
L136.91 28.2311
L137.739 28.2311
L137.739 29.5669
L138.567 29.5669
L138.567 28.1545
L139.395 28.1545
L139.395 27.6521
L140.223 27.6521
L140.223 30.1645
L141.052 30.1645
L141.052 38.5587
L141.88 38.5587
L141.88 54.0453
L142.708 54.0453
L142.708 69.2591
L143.536 69.2591
L143.536 73.8418
L144.364 73.8418
L144.364 70.1755
L145.192 70.1755
L145.192 62.0381
L146.019 62.0381
L146.019 54.3867
L146.847 54.3867
L146.847 49.2255
L147.675 49.2255
L147.675 39.078
L148.503 39.078
L148.503 33.4795
L149.33 33.4795
L149.33 32.7912
L150.158 32.7912
L150.158 35.0274
L150.985 35.0274
L150.985 37.4573
L151.812 37.4573
L151.812 35.8484
L152.64 35.8484
L152.64 32.9706
L154.294 32.9428
L154.294 29.2297
L155.121 29.2297
L155.121 29.0792
L155.948 29.0792
L155.948 26.1246
L156.775 26.1246
L156.775 29.6561
L157.602 29.6561
L157.602 28.9814
L158.429 28.9814
L158.429 32.6416
L159.256 32.6416
L159.256 42.7469
L160.083 42.7469
L160.083 55.1348
L160.91 55.1348
L160.91 71.4028
L161.736 71.4028
L161.736 81.7856
L162.563 81.7856
L162.563 79.3056
L163.389 79.3056
L163.389 66.3552
L164.216 66.3552
L164.216 48.4632
L165.042 48.4632
L165.042 36.785
L165.869 36.785
L165.869 29.924
L166.695 29.924
L166.695 26.6625
L167.521 26.6625
L167.521 26.8349
L168.347 26.8349
L168.347 24.4294
L169.173 24.4294
L169.173 24.6227
L170 24.6227
L170 27.4809
L170.825 27.4809
L170.825 28.8598
L171.651 28.8598
L171.651 25.587
L172.477 25.587
L172.477 28.79
L173.303 28.79
L173.303 27.9419
L174.129 27.9419
L174.129 28.6507
L174.955 28.6507
L174.955 30.6195
L175.78 30.6195
L175.78 28.5061
L176.606 28.5061
L176.606 26.0524
L177.431 26.0524
L177.431 27.2368
L178.257 27.2368
L178.257 24.167
L179.082 24.167
L179.082 22.7236
L179.907 22.7236
L179.907 23.4458
L180.733 23.4458
L180.733 23.2234
L181.558 23.2234
L181.558 24.6732
L182.383 24.6732
L182.383 25.1826
L184.033 25.2777
L184.033 25.8235
L184.858 25.8235
L184.858 23.3071
L185.683 23.3071
L185.683 25.6125
L186.508 25.6125
L186.508 24.7568
L187.332 24.7568
L187.332 22.3673
L188.157 22.3673
L188.157 25.9769
L188.982 25.9769
L188.982 24.942
L189.806 24.942
L189.806 27.1176
L190.631 27.1176
L190.631 24.8032
L191.455 24.8032
L191.455 25.521
L192.28 25.521
L192.28 28.4495
L193.104 28.4495
L193.104 27.4169
L193.928 27.4169
L193.928 31.7635
L195.577 31.8228
L195.577 33.2202
L196.401 33.2202
L196.401 32.0811
L197.225 32.0811
L197.225 31.466
L198.049 31.466
L198.049 32.5926
L198.873 32.5926
L198.873 36.3101
L199.697 36.3101
L199.697 39.721
L200.52 39.721
L200.52 37.8545
L201.344 37.8545
L201.344 33.9997
L202.168 33.9997
L202.168 28.2498
L202.992 28.2498
L202.992 26.7425
L203.815 26.7425
L203.815 26.3746
L204.639 26.3746
L204.639 26.8618
L205.462 26.8618
L205.462 25.6443
L207.109 25.652
L207.109 26.257
L207.932 26.257
L207.932 27.5711
L208.344 27.5711
L208.344 27.5711" style="fill:none;stroke:#0000ff;stroke-linecap:square;"/>
   </g>
   <g id="line2d_2">
    <path clip-path="url(#p3f85bb24e7)" d="
M43.3262 24.4731
L43.7438 24.4731
L43.7438 24.4731
L43.7438 24.4731
L43.7438 24.5424
L44.579 24.5424
L44.579 24.7704
L45.4142 24.7704
L45.4142 25.3318
L46.2492 25.3318
L46.2492 26.3981
L47.0843 26.3981
L47.0843 27.6492
L47.9192 27.6492
L47.9192 28.2722
L48.7541 28.2722
L48.7541 27.8397
L49.589 27.8397
L49.589 27.0462
L50.4237 27.0462
L50.4237 27.4211
L51.2585 27.4211
L51.2585 29.8321
L52.0931 29.8321
L52.0931 33.1141
L52.9277 33.1141
L52.9277 34.8317
L53.7622 34.8317
L53.7622 33.6271
L54.5967 33.6271
L54.5967 30.4684
L55.4311 30.4684
L55.4311 27.4693
L56.2655 27.4693
L56.2655 25.7497
L57.0998 25.7497
L57.0998 25.0297
L57.934 25.0297
L57.934 24.7335
L58.7682 24.7335
L58.7682 24.5849
L63.772 24.6932
L63.772 24.9449
L64.6057 24.9449
L64.6057 25.144
L66.273 25.1528
L66.273 24.9981
L67.1066 24.9981
L67.1066 24.8463
L68.7736 24.892
L68.7736 25.639
L69.607 25.639
L69.607 28.5569
L70.4403 28.5569
L70.4403 35.2524
L71.2736 35.2524
L71.2736 44.2481
L72.1068 44.2481
L72.1068 50.1456
L72.9399 50.1456
L72.9399 48.492
L73.773 48.492
L73.773 40.6011
L74.606 40.6011
L74.606 32.0786
L75.439 32.0786
L75.439 26.9843
L76.2719 26.9843
L76.2719 25.3571
L77.1047 25.3571
L77.1047 26.2547
L77.9375 26.2547
L77.9375 30.4747
L78.7702 30.4747
L78.7702 39.0496
L79.6029 39.0496
L79.6029 50.3311
L80.4355 50.3311
L80.4355 60.4495
L81.268 60.4495
L81.268 65.5036
L82.1005 65.5036
L82.1005 63.1943
L82.9329 63.1943
L82.9329 54.2722
L83.7653 54.2722
L83.7653 42.4409
L84.5976 42.4409
L84.5976 32.5782
L85.4298 32.5782
L85.4298 27.3387
L86.262 27.3387
L86.262 25.6764
L87.0941 25.6764
L87.0941 25.4934
L87.9262 25.4934
L87.9262 25.7165
L88.7582 25.7165
L88.7582 25.9305
L90.422 25.8663
L90.422 25.4956
L91.2538 25.4956
L91.2538 25.0911
L92.0855 25.0911
L92.0855 24.9203
L96.2434 24.8218
L96.2434 24.725
L97.9061 24.7866
L97.9061 25.5177
L98.7374 25.5177
L98.7374 28.5666
L99.5686 28.5666
L99.5686 36.4613
L100.4 36.4613
L100.4 49.3137
L101.231 49.3137
L101.231 61.5554
L102.062 61.5554
L102.062 65.1019
L102.893 65.1019
L102.893 57.3239
L103.724 57.3239
L103.724 43.9114
L104.555 43.9114
L104.555 32.8056
L105.385 32.8056
L105.385 27.185
L106.216 27.185
L106.216 25.3489
L107.047 25.3489
L107.047 25.0146
L107.877 25.0146
L107.877 25.4295
L108.708 25.4295
L108.708 26.6407
L109.538 26.6407
L109.538 28.3974
L110.369 28.3974
L110.369 29.9948
L111.199 29.9948
L111.199 30.7291
L112.029 30.7291
L112.029 30.2826
L112.86 30.2826
L112.86 28.9944
L113.69 28.9944
L113.69 27.8153
L114.52 27.8153
L114.52 28.633
L115.35 28.633
L115.35 34.2145
L116.18 34.2145
L116.18 45.6706
L117.01 45.6706
L117.01 59.6323
L117.84 59.6323
L117.84 69.3885
L119.499 69.4508
L119.499 59.9939
L120.329 59.9939
L120.329 46.4863
L121.159 46.4863
L121.159 34.9216
L121.988 34.9216
L121.988 28.2207
L122.818 28.2207
L122.818 25.6568
L123.647 25.6568
L123.647 25.0049
L124.477 25.0049
L124.477 24.8474
L126.135 24.8108
L126.135 25.0849
L126.964 25.0849
L126.964 26.483
L127.794 26.483
L127.794 30.117
L128.623 30.117
L128.623 35.447
L129.452 35.447
L129.452 39.2965
L130.281 39.2965
L130.281 38.7047
L131.11 38.7047
L131.11 34.1616
L131.938 34.1616
L131.938 29.0804
L132.767 29.0804
L132.767 26.1775
L133.596 26.1775
L133.596 25.5122
L134.425 25.5122
L134.425 26.0173
L135.253 26.0173
L135.253 26.8287
L136.082 26.8287
L136.082 27.297
L136.91 27.297
L136.91 27.0946
L137.739 27.0946
L137.739 26.4019
L138.567 26.4019
L138.567 25.7375
L140.223 25.723
L140.223 27.6084
L141.052 27.6084
L141.052 33.6596
L141.88 33.6596
L141.88 44.737
L142.708 44.737
L142.708 56.8518
L143.536 56.8518
L143.536 63.2859
L144.364 63.2859
L144.364 61.8042
L145.192 61.8042
L145.192 56.6968
L146.019 56.6968
L146.019 52.1475
L146.847 52.1475
L146.847 47.5163
L147.675 47.5163
L147.675 40.9188
L148.503 40.9188
L148.503 34.0332
L149.33 34.0332
L149.33 30.1755
L150.158 30.1755
L150.158 29.5192
L151.812 29.5871
L151.812 28.7277
L152.64 28.7277
L152.64 27.1853
L153.467 27.1853
L153.467 25.9493
L154.294 25.9493
L154.294 25.4754
L155.121 25.4754
L155.121 25.6063
L155.948 25.6063
L155.948 26.0824
L156.775 26.0824
L156.775 26.7012
L157.602 26.7012
L157.602 27.6676
L158.429 27.6676
L158.429 30.5478
L159.256 30.5478
L159.256 38.3719
L160.083 38.3719
L160.083 52.5523
L160.91 52.5523
L160.91 69.0716
L161.736 69.0716
L161.736 79.6163
L162.563 79.6163
L162.563 78.0682
L163.389 78.0682
L163.389 65.9549
L164.216 65.9549
L164.216 50.4081
L165.042 50.4081
L165.042 37.8578
L165.869 37.8578
L165.869 30.4471
L166.695 30.4471
L166.695 27.0263
L167.521 27.0263
L167.521 25.7621
L168.347 25.7621
L168.347 25.4179
L170.825 25.5165
L170.825 25.5781
L172.477 25.6325
L172.477 25.9958
L173.303 25.9958
L173.303 27.0666
L174.129 27.0666
L174.129 28.6119
L174.955 28.6119
L174.955 29.5939
L175.78 29.5939
L175.78 29.1946
L176.606 29.1946
L176.606 27.7011
L177.431 27.7011
L177.431 26.1852
L178.257 26.1852
L178.257 25.3857
L179.907 25.2953
L179.907 25.7842
L180.733 25.7842
L180.733 26.8003
L181.558 26.8003
L181.558 27.9388
L182.383 27.9388
L182.383 28.5187
L183.208 28.5187
L183.208 28.1874
L184.033 28.1874
L184.033 27.2323
L184.858 27.2323
L184.858 26.2591
L185.683 26.2591
L185.683 25.6096
L186.508 25.6096
L186.508 25.2835
L187.332 25.2835
L187.332 25.1708
L189.806 25.2243
L189.806 25.33
L190.631 25.33
L190.631 25.4878
L191.455 25.4878
L191.455 25.8117
L192.28 25.8117
L192.28 26.8094
L193.104 26.8094
L193.104 29.5103
L193.928 29.5103
L193.928 34.5912
L194.753 34.5912
L194.753 40.6654
L195.577 40.6654
L195.577 44.3529
L196.401 44.3529
L196.401 43.3648
L197.225 43.3648
L197.225 39.1976
L198.049 39.1976
L198.049 35.8944
L198.873 35.8944
L198.873 35.5998
L199.697 35.5998
L199.697 36.4196
L200.52 36.4196
L200.52 35.4889
L201.344 35.4889
L201.344 32.3782
L202.168 32.3782
L202.168 28.9838
L202.992 28.9838
L202.992 27.0249
L203.815 27.0249
L203.815 26.5277
L204.639 26.5277
L204.639 26.7047
L205.462 26.7047
L205.462 26.9966
L206.285 26.9966
L206.285 27.1924
L207.109 27.1924
L207.109 27.3119
L207.932 27.3119
L207.932 27.5011
L208.344 27.5011
L208.344 27.5011" style="fill:none;stroke:#ff0000;stroke-linecap:square;"/>
   </g>
   <g id="matplotlib.axis_1">
    <g id="xtick_1">
     <g id="line2d_3">
      <defs>
       <path d="
M0 0
L0 -4" id="mc7db9fdffb" style="stroke:#000000;stroke-width:0.5;"/>
      </defs>
      <g>
       <use style="stroke:#000000;stroke-width:0.5;" x="42.84" xlink:href="#mc7db9fdffb" y="88.452"/>
      </g>
     </g>
     <g id="line2d_4">
      <defs>
       <path d="
M0 0
L0 4" id="m5a7d422ac3" style="stroke:#000000;stroke-width:0.5;"/>
      </defs>
      <g>
       <use style="stroke:#000000;stroke-width:0.5;" x="42.84" xlink:href="#m5a7d422ac3" y="13.608"/>
      </g>
     </g>
    </g>
    <g id="xtick_2">
     <g id="line2d_5">
      <g>
       <use style="stroke:#000000;stroke-width:0.5;" x="79.8" xlink:href="#mc7db9fdffb" y="88.452"/>
      </g>
     </g>
     <g id="line2d_6">
      <g>
       <use style="stroke:#000000;stroke-width:0.5;" x="79.8" xlink:href="#m5a7d422ac3" y="13.608"/>
      </g>
     </g>
    </g>
    <g id="xtick_3">
     <g id="line2d_7">
      <g>
       <use style="stroke:#000000;stroke-width:0.5;" x="116.76" xlink:href="#mc7db9fdffb" y="88.452"/>
      </g>
     </g>
     <g id="line2d_8">
      <g>
       <use style="stroke:#000000;stroke-width:0.5;" x="116.76" xlink:href="#m5a7d422ac3" y="13.608"/>
      </g>
     </g>
    </g>
    <g id="xtick_4">
     <g id="line2d_9">
      <g>
       <use style="stroke:#000000;stroke-width:0.5;" x="153.72" xlink:href="#mc7db9fdffb" y="88.452"/>
      </g>
     </g>
     <g id="line2d_10">
      <g>
       <use style="stroke:#000000;stroke-width:0.5;" x="153.72" xlink:href="#m5a7d422ac3" y="13.608"/>
      </g>
     </g>
    </g>
    <g id="xtick_5">
     <g id="line2d_11">
      <g>
       <use style="stroke:#000000;stroke-width:0.5;" x="190.68" xlink:href="#mc7db9fdffb" y="88.452"/>
      </g>
     </g>
     <g id="line2d_12">
      <g>
       <use style="stroke:#000000;stroke-width:0.5;" x="190.68" xlink:href="#m5a7d422ac3" y="13.608"/>
      </g>
     </g>
    </g>
   </g>
   <g id="matplotlib.axis_2">
    <g id="ytick_1">
     <g id="line2d_13">
      <defs>
       <path d="
M0 0
L4 0" id="md7965d1ba0" style="stroke:#000000;stroke-width:0.5;"/>
      </defs>
      <g>
       <use style="stroke:#000000;stroke-width:0.5;" x="42.84" xlink:href="#md7965d1ba0" y="77.76"/>
      </g>
     </g>
     <g id="line2d_14">
      <defs>
       <path d="
M0 0
L-4 0" id="md9a1c1a7cd" style="stroke:#000000;stroke-width:0.5;"/>
      </defs>
      <g>
       <use style="stroke:#000000;stroke-width:0.5;" x="209.16" xlink:href="#md9a1c1a7cd" y="77.76"/>
      </g>
     </g>
     <g id="text_1">
      <!-- $1.00$ -->
      <defs>
       <path d="
M42 31.6406
C42 37.75 41.9062 48.125 37.7031 56.1094
C34 63.1094 28.0938 65.5938 22.9062 65.5938
C18.0938 65.5938 12 63.4062 8.20312 56.2031
C4.20312 48.7188 3.79688 39.4375 3.79688 31.6406
C3.79688 25.9531 3.90625 17.2812 7 9.67188
C11.2969 -0.609375 19 -2 22.9062 -2
C27.5 -2 34.5 -0.109375 38.5938 9.375
C41.5938 16.2812 42 24.3594 42 31.6406
M22.9062 -0.40625
C16.5 -0.40625 12.7031 5.07812 11.2969 12.6875
C10.2031 18.5625 10.2031 27.1562 10.2031 32.75
C10.2031 40.4375 10.2031 46.8281 11.5 52.9219
C13.4062 61.3906 19 64 22.9062 64
C27 64 32.2969 61.2969 34.2031 53.125
C35.5 47.4375 35.5938 40.7344 35.5938 32.75
C35.5938 26.25 35.5938 18.2656 34.4062 12.375
C32.2969 1.48438 26.4062 -0.40625 22.9062 -0.40625" id="CMR17-48"/>
       <path d="
M18.4062 4.79688
C18.4062 7.6875 16 9.67188 13.5938 9.67188
C10.7031 9.67188 8.70312 7.28125 8.70312 4.89062
C8.70312 2 11.0938 0 13.5 0
C16.4062 0 18.4062 2.39062 18.4062 4.79688" id="CMMI12-58"/>
       <path d="
M26.5938 63.3125
C26.5938 65.4062 26.5 65.5 25.0938 65.5
C21.2031 61.1875 15.2969 59.7969 9.70312 59.7969
C9.40625 59.7969 8.90625 59.7969 8.79688 59.6094
C8.70312 59.3906 8.70312 59.1719 8.70312 57
C11.7969 57 17 57.5938 21 59.9844
L21 7.20312
C21 3.6875 20.7969 2.5 12.2031 2.5
L9.20312 2.5
L9.20312 0
C14 0 19 0 23.7969 0
C28.5938 0 33.5938 0 38.4062 0
L38.4062 2.5
L35.4062 2.5
C26.7969 2.5 26.5938 3.59375 26.5938 7.15625
z
" id="CMR17-49"/>
      </defs>
      <g transform="translate(21.1285857721 80.2506600249)scale(0.1 -0.1)">
       <use transform="scale(0.9962640099626402)" xlink:href="#CMR17-49"/>
       <use transform="translate(45.69047711706103 0.0)scale(0.9962640099626402)" xlink:href="#CMMI12-58"/>
       <use transform="translate(72.78765420688046 0.0)scale(0.9962640099626402)" xlink:href="#CMR17-48"/>
       <use transform="translate(118.47813132394148 0.0)scale(0.9962640099626402)" xlink:href="#CMR17-48"/>
      </g>
     </g>
    </g>
    <g id="ytick_2">
     <g id="line2d_15">
      <g>
       <use style="stroke:#000000;stroke-width:0.5;" x="42.84" xlink:href="#md7965d1ba0" y="64.395"/>
      </g>
     </g>
     <g id="line2d_16">
      <g>
       <use style="stroke:#000000;stroke-width:0.5;" x="209.16" xlink:href="#md9a1c1a7cd" y="64.395"/>
      </g>
     </g>
     <g id="text_2">
      <!-- $1.25$ -->
      <defs>
       <path d="
M41.7031 15.4531
L39.9062 15.4531
C38.9062 8.375 38.0938 7.17188 37.7031 6.5625
C37.2031 5.76562 30 5.76562 28.5938 5.76562
L9.40625 5.76562
C13 9.67188 20 16.75 28.5 24.9531
C34.5938 30.7344 41.7031 37.5312 41.7031 47.4219
C41.7031 59.2188 32.2969 66 21.7969 66
C10.7969 66 4.09375 56.3125 4.09375 47.3438
C4.09375 43.4375 7 42.9375 8.20312 42.9375
C9.20312 42.9375 12.2031 43.5469 12.2031 47.0312
C12.2031 50.1094 9.59375 51 8.20312 51
C7.59375 51 7 50.9062 6.59375 50.7031
C8.5 59.2188 14.2969 63.4062 20.4062 63.4062
C29.0938 63.4062 34.7969 56.5156 34.7969 47.4219
C34.7969 38.7344 29.7031 31.25 24 24.75
L4.09375 2.28125
L4.09375 0
L39.2969 0
z
" id="CMR17-50"/>
       <path d="
M11.4062 57.6875
C12.4062 57.2812 16.5 56 20.7031 56
C30 56 35.0938 61.0156 38 63.9219
C38 64.7344 38 65.25 37.4062 65.25
C37.2969 65.25 37.0938 65.25 36.2969 64.8281
C32.7969 63.3125 28.7031 62.0781 23.7031 62.0781
C20.7031 62.0781 16.2031 62.5 11.2969 64.7344
C10.2031 65.25 10 65.25 9.90625 65.25
C9.40625 65.25 9.29688 65.1406 9.29688 63.1562
L9.29688 34.2812
C9.29688 32.5 9.29688 32 10.2969 32
C10.7969 32 11 32.2031 11.5 32.9062
C14.7031 37.4844 19.0938 39.4062 24.0938 39.4062
C27.5938 39.4062 35.0938 37.2188 35.0938 20.1406
C35.0938 16.9531 35.0938 11.1719 32.0938 6.57812
C29.5938 2.48438 25.7031 0.390625 21.4062 0.390625
C14.7969 0.390625 8.09375 5 6.29688 12.7188
C6.70312 12.6094 7.5 12.4219 7.90625 12.4219
C9.20312 12.4219 11.7031 13.125 11.7031 16.2188
C11.7031 18.9062 9.79688 20 7.90625 20
C5.59375 20 4.09375 18.5938 4.09375 15.7969
C4.09375 7.09375 11 -2 21.5938 -2
C31.9062 -2 41.7031 6.875 41.7031 19.75
C41.7031 31.7188 33.9062 41 24.2031 41
C19.0938 41 14.7969 39.0938 11.4062 35.4531
z
" id="CMR17-53"/>
      </defs>
      <g transform="translate(21.1285857721 66.8856600249)scale(0.1 -0.1)">
       <use transform="scale(0.9962640099626402)" xlink:href="#CMR17-49"/>
       <use transform="translate(45.69047711706103 0.0)scale(0.9962640099626402)" xlink:href="#CMMI12-58"/>
       <use transform="translate(72.78765420688046 0.0)scale(0.9962640099626402)" xlink:href="#CMR17-50"/>
       <use transform="translate(118.47813132394148 0.0)scale(0.9962640099626402)" xlink:href="#CMR17-53"/>
      </g>
     </g>
    </g>
    <g id="ytick_3">
     <g id="line2d_17">
      <g>
       <use style="stroke:#000000;stroke-width:0.5;" x="42.84" xlink:href="#md7965d1ba0" y="51.03"/>
      </g>
     </g>
     <g id="line2d_18">
      <g>
       <use style="stroke:#000000;stroke-width:0.5;" x="209.16" xlink:href="#md9a1c1a7cd" y="51.03"/>
      </g>
     </g>
     <g id="text_3">
      <!-- $1.50$ -->
      <g transform="translate(21.1285857721 53.5206600249)scale(0.1 -0.1)">
       <use transform="scale(0.9962640099626402)" xlink:href="#CMR17-49"/>
       <use transform="translate(45.69047711706103 0.0)scale(0.9962640099626402)" xlink:href="#CMMI12-58"/>
       <use transform="translate(72.78765420688046 0.0)scale(0.9962640099626402)" xlink:href="#CMR17-53"/>
       <use transform="translate(118.47813132394148 0.0)scale(0.9962640099626402)" xlink:href="#CMR17-48"/>
      </g>
     </g>
    </g>
    <g id="ytick_4">
     <g id="line2d_19">
      <g>
       <use style="stroke:#000000;stroke-width:0.5;" x="42.84" xlink:href="#md7965d1ba0" y="37.665"/>
      </g>
     </g>
     <g id="line2d_20">
      <g>
       <use style="stroke:#000000;stroke-width:0.5;" x="209.16" xlink:href="#md9a1c1a7cd" y="37.665"/>
      </g>
     </g>
     <g id="text_4">
      <!-- $1.75$ -->
      <defs>
       <path d="
M45.0938 61.5781
L45.0938 63.7656
L21.5938 63.7656
C9.90625 63.7656 9.70312 65.0781 9.29688 67
L7.5 67
L4.59375 48.3438
L6.40625 48.3438
C6.70312 50.2344 7.40625 55.3125 8.59375 57.2031
C9.20312 58 16.5938 58 18.2969 58
L40.2969 58
L29.2031 41.5781
C21.7969 30.5312 16.7031 15.6094 16.7031 2.57812
C16.7031 1.39062 16.7031 -2 20.2969 -2
C23.9062 -2 23.9062 1.39062 23.9062 2.67188
L23.9062 7.26562
C23.9062 23.5625 26.7031 34.3125 31.2969 41.1875
z
" id="CMR17-55"/>
      </defs>
      <g transform="translate(21.1285857721 40.1556600249)scale(0.1 -0.1)">
       <use transform="scale(0.9962640099626402)" xlink:href="#CMR17-49"/>
       <use transform="translate(45.69047711706103 0.0)scale(0.9962640099626402)" xlink:href="#CMMI12-58"/>
       <use transform="translate(72.78765420688046 0.0)scale(0.9962640099626402)" xlink:href="#CMR17-55"/>
       <use transform="translate(118.47813132394148 0.0)scale(0.9962640099626402)" xlink:href="#CMR17-53"/>
      </g>
     </g>
    </g>
    <g id="ytick_5">
     <g id="line2d_21">
      <g>
       <use style="stroke:#000000;stroke-width:0.5;" x="42.84" xlink:href="#md7965d1ba0" y="24.3"/>
      </g>
     </g>
     <g id="line2d_22">
      <g>
       <use style="stroke:#000000;stroke-width:0.5;" x="209.16" xlink:href="#md9a1c1a7cd" y="24.3"/>
      </g>
     </g>
     <g id="text_5">
      <!-- $2.00$ -->
      <g transform="translate(21.1285857721 26.7906600249)scale(0.1 -0.1)">
       <use transform="scale(0.9962640099626402)" xlink:href="#CMR17-50"/>
       <use transform="translate(45.69047711706103 0.0)scale(0.9962640099626402)" xlink:href="#CMMI12-58"/>
       <use transform="translate(72.78765420688046 0.0)scale(0.9962640099626402)" xlink:href="#CMR17-48"/>
       <use transform="translate(118.47813132394148 0.0)scale(0.9962640099626402)" xlink:href="#CMR17-48"/>
      </g>
     </g>
    </g>
   </g>
   <g id="patch_3">
    <path d="
M42.84 88.452
L209.16 88.452" style="fill:none;stroke:#000000;"/>
   </g>
   <g id="patch_4">
    <path d="
M42.84 13.608
L209.16 13.608" style="fill:none;stroke:#000000;"/>
   </g>
   <g id="patch_5">
    <path d="
M42.84 88.452
L42.84 13.608" style="fill:none;stroke:#000000;"/>
   </g>
   <g id="patch_6">
    <path d="
M209.16 88.452
L209.16 13.608" style="fill:none;stroke:#000000;"/>
   </g>
  </g>
  <g id="axes_2">
   <g id="patch_7">
    <path d="
M42.84 163.296
L209.16 163.296
L209.16 88.452
L42.84 88.452
z
" style="fill:#ffffff;"/>
   </g>
   <g id="line2d_23">
    <path clip-path="url(#p066df7f4f2)" d="
M43.3262 129.765
L43.7438 129.765
L43.7438 126.545
L44.579 126.545
L44.579 127.173
L45.4142 127.173
L45.4142 130.605
L46.2492 130.605
L46.2492 136.721
L47.0843 136.721
L47.0843 137.881
L47.9192 137.881
L47.9192 134.124
L48.7541 134.124
L48.7541 133.145
L49.589 133.145
L49.589 124.001
L50.4237 124.001
L50.4237 117.833
L51.2585 117.833
L51.2585 116.268
L52.0931 116.268
L52.0931 106.157
L52.9277 106.157
L52.9277 103.838
L53.7622 103.838
L53.7622 102.626
L54.5967 102.626
L54.5967 110.236
L55.4311 110.236
L55.4311 119.96
L56.2655 119.96
L56.2655 118.828
L57.0998 118.828
L57.0998 119.064
L57.934 119.064
L57.934 122.899
L58.7682 122.899
L58.7682 119.629
L59.6023 119.629
L59.6023 121.3
L60.4364 121.3
L60.4364 118.853
L61.2704 118.853
L61.2704 124.298
L62.1043 124.298
L62.1043 125.256
L62.9382 125.256
L62.9382 127.458
L63.772 127.458
L63.772 121.647
L64.6057 121.647
L64.6057 119.928
L65.4394 119.928
L65.4394 120.525
L66.273 120.525
L66.273 120.217
L67.1066 120.217
L67.1066 125.49
L67.9401 125.49
L67.9401 121.221
L68.7736 121.221
L68.7736 127.176
L69.607 127.176
L69.607 131.474
L70.4403 131.474
L70.4403 143.584
L71.2736 143.584
L71.2736 157.173
L72.1068 157.173
L72.1068 154.468
L72.9399 154.468
L72.9399 150.14
L73.773 150.14
L73.773 141.727
L74.606 141.727
L74.606 133.224
L75.439 133.224
L75.439 129.672
L76.2719 129.672
L76.2719 125.965
L77.1047 125.965
L77.1047 117.654
L77.9375 117.654
L77.9375 123.874
L78.7702 123.874
L78.7702 120.255
L79.6029 120.255
L79.6029 119.796
L80.4355 119.796
L80.4355 131.762
L81.268 131.762
L81.268 138.993
L82.1005 138.993
L82.1005 139.729
L82.9329 139.729
L82.9329 135.163
L83.7653 135.163
L83.7653 134.875
L84.5976 134.875
L84.5976 123.34
L85.4298 123.34
L85.4298 127.675
L86.262 127.675
L86.262 125.547
L87.0941 125.547
L87.0941 125.106
L87.9262 125.106
L87.9262 124.507
L88.7582 124.507
L88.7582 120.803
L89.5901 120.803
L89.5901 128.354
L90.422 128.354
L90.422 118.966
L91.2538 118.966
L91.2538 124.277
L92.0855 124.277
L92.0855 128.719
L92.9172 128.719
L92.9172 127.618
L93.7489 127.618
L93.7489 122.725
L94.5804 122.725
L94.5804 126.898
L95.4119 126.898
L95.4119 125.052
L96.2434 125.052
L96.2434 132.988
L97.0748 132.988
L97.0748 122.111
L97.9061 122.111
L97.9061 124.831
L98.7374 124.831
L98.7374 122.635
L99.5686 122.635
L99.5686 124.399
L100.4 124.399
L100.4 123.567
L101.231 123.567
L101.231 127.485
L102.062 127.485
L102.062 130.835
L102.893 130.835
L102.893 128.258
L103.724 128.258
L103.724 126.227
L104.555 126.227
L104.555 125.247
L105.385 125.247
L105.385 133.384
L106.216 133.384
L106.216 132.019
L107.047 132.019
L107.047 126.524
L107.877 126.524
L107.877 130.62
L108.708 130.62
L108.708 128.066
L109.538 128.066
L109.538 123.476
L110.369 123.476
L110.369 125.333
L111.199 125.333
L111.199 131.678
L112.029 131.678
L112.029 136.144
L112.86 136.144
L112.86 135.182
L113.69 135.182
L113.69 132.917
L114.52 132.917
L114.52 126.27
L115.35 126.27
L115.35 131.41
L116.18 131.41
L116.18 125.658
L117.01 125.658
L117.01 131.455
L117.84 131.455
L117.84 138.37
L118.67 138.37
L118.67 137.116
L119.499 137.116
L119.499 141.185
L120.329 141.185
L120.329 137.399
L121.159 137.399
L121.159 133.303
L122.818 133.382
L122.818 131.579
L123.647 131.579
L123.647 128.624
L124.477 128.624
L124.477 122.05
L125.306 122.05
L125.306 126.964
L126.135 126.964
L126.135 124.773
L126.964 124.773
L126.964 129.175
L127.794 129.175
L127.794 140.944
L128.623 140.944
L128.623 149.595
L129.452 149.595
L129.452 159.741
L130.281 159.741
L130.281 155.331
L131.11 155.331
L131.11 141.068
L131.938 141.068
L131.938 131.529
L132.767 131.529
L132.767 131.904
L133.596 131.904
L133.596 123.6
L134.425 123.6
L134.425 130.036
L135.253 130.036
L135.253 132.043
L136.082 132.043
L136.082 133.461
L136.91 133.461
L136.91 128.715
L137.739 128.715
L137.739 133.787
L138.567 133.787
L138.567 131.917
L139.395 131.917
L139.395 130.697
L140.223 130.697
L140.223 132.264
L141.052 132.264
L141.052 138.122
L141.88 138.122
L141.88 149.145
L142.708 149.145
L142.708 156.892
L143.536 156.892
L143.536 152.264
L144.364 152.264
L144.364 146.802
L145.192 146.802
L145.192 139.227
L146.019 139.227
L146.019 131.472
L146.847 131.472
L146.847 130.147
L147.675 130.147
L147.675 121.272
L148.503 121.272
L148.503 124.49
L149.33 124.49
L149.33 132.413
L150.158 132.413
L150.158 139.644
L150.985 139.644
L150.985 145.549
L151.812 145.549
L151.812 143.676
L152.64 143.676
L152.64 140.337
L153.467 140.337
L153.467 143.358
L154.294 143.358
L154.294 135.26
L155.121 135.26
L155.121 134.556
L155.948 134.556
L155.948 125.979
L156.775 125.979
L156.775 133.261
L157.602 133.261
L157.602 129.159
L158.429 129.159
L158.429 131.108
L159.256 131.108
L159.256 136.811
L160.083 136.811
L160.083 132.33
L160.91 132.33
L160.91 131.702
L161.736 131.702
L161.736 131.297
L162.563 131.297
L162.563 128.968
L163.389 128.968
L163.389 126.875
L164.216 126.875
L164.216 121.012
L165.042 121.012
L165.042 123.192
L165.869 123.192
L165.869 124.566
L166.695 124.566
L166.695 124.965
L167.521 124.965
L167.521 128.556
L168.347 128.556
L168.347 123.403
L169.173 123.403
L169.173 123.885
L170 123.885
L170 130.785
L170.825 130.785
L170.825 134.078
L171.651 134.078
L171.651 125.76
L172.477 125.76
L172.477 132.859
L173.303 132.859
L173.303 128.062
L174.129 128.062
L174.129 125.971
L174.955 125.971
L174.955 128.438
L175.78 128.438
L175.78 124.153
L176.606 124.153
L176.606 121.752
L177.431 121.752
L177.431 128.503
L178.257 128.503
L178.257 122.827
L179.082 122.827
L179.082 119.445
L179.907 119.445
L179.907 120.028
L180.733 120.028
L180.733 116.932
L181.558 116.932
L181.558 117.71
L182.383 117.71
L182.383 117.534
L183.208 117.534
L183.208 118.6
L184.033 118.6
L184.033 122.352
L184.858 122.352
L184.858 118.494
L185.683 118.494
L185.683 125.881
L186.508 125.881
L186.508 124.557
L187.332 124.557
L187.332 118.865
L188.157 118.865
L188.157 127.896
L188.982 127.896
L188.982 125.168
L189.806 125.168
L189.806 130.343
L190.631 130.343
L190.631 124.163
L191.455 124.163
L191.455 125.147
L192.28 125.147
L192.28 129.974
L193.104 129.974
L193.104 120.641
L193.928 120.641
L193.928 118.805
L194.753 118.805
L194.753 103.768
L195.577 103.768
L195.577 98.0424
L196.401 98.0424
L196.401 97.6646
L197.225 97.6646
L197.225 106.545
L198.049 106.545
L198.049 117.62
L198.873 117.62
L198.873 127.65
L199.697 127.65
L199.697 134.128
L200.52 134.128
L200.52 131.788
L201.344 131.788
L201.344 129.928
L202.168 129.928
L202.168 124.039
L202.992 124.039
L202.992 125.168
L203.815 125.168
L203.815 125.491
L204.639 125.491
L204.639 126.267
L205.462 126.267
L205.462 122.493
L206.285 122.493
L206.285 122.023
L207.109 122.023
L207.109 123.237
L207.932 123.237
L207.932 126.049
L208.344 126.049
L208.344 126.049" style="fill:none;stroke:#000000;stroke-linecap:square;"/>
   </g>
   <g id="matplotlib.axis_3">
    <g id="xtick_6">
     <g id="line2d_24">
      <g>
       <use style="stroke:#000000;stroke-width:0.5;" x="42.84" xlink:href="#mc7db9fdffb" y="163.296"/>
      </g>
     </g>
     <g id="line2d_25">
      <g>
       <use style="stroke:#000000;stroke-width:0.5;" x="42.84" xlink:href="#m5a7d422ac3" y="88.452"/>
      </g>
     </g>
     <g id="text_6">
      <!-- 5260 -->
      <defs>
       <path d="
M10.5938 34
C10.5938 57.6562 21.7969 63 28.2969 63
C30.4062 63 35.5 62.6406 37.5 59
C35.9062 59 32.9062 59 32.9062 55.5156
C32.9062 52.8281 35.0938 51.9219 36.5 51.9219
C37.4062 51.9219 40.0938 52.3125 40.0938 55.625
C40.0938 61.7812 35.0938 65.2969 28.2031 65.2969
C16.2969 65.2969 3.79688 52.9688 3.79688 31
C3.79688 3.95312 15.0938 -2 23.0938 -2
C32.7969 -2 42 6.67188 42 20.0469
C42 32.5156 33.9062 41.5938 23.7031 41.5938
C17.5938 41.5938 13.0938 37.6094 10.5938 30.625
z

M23.0938 0.390625
C10.7969 0.390625 10.7969 18.75 10.7969 22.4375
C10.7969 29.625 14.2031 40 23.5 40
C25.2031 40 30.0938 40 33.4062 33.125
C35.2031 29.2188 35.2031 25.1406 35.2031 20.1406
C35.2031 14.75 35.2031 10.7812 33.0938 6.78125
C30.9062 2.67188 27.7031 0.390625 23.0938 0.390625" id="CMR17-54"/>
      </defs>
      <g transform="translate(32.8773294968 174.21449838)scale(0.1 -0.1)">
       <use transform="scale(0.9962640099626402)" xlink:href="#CMR17-53"/>
       <use transform="translate(45.69047711706103 0.0)scale(0.9962640099626402)" xlink:href="#CMR17-50"/>
       <use transform="translate(91.38095423412206 0.0)scale(0.9962640099626402)" xlink:href="#CMR17-54"/>
       <use transform="translate(137.07143135118307 0.0)scale(0.9962640099626402)" xlink:href="#CMR17-48"/>
      </g>
     </g>
    </g>
    <g id="xtick_7">
     <g id="line2d_26">
      <g>
       <use style="stroke:#000000;stroke-width:0.5;" x="79.8" xlink:href="#mc7db9fdffb" y="163.296"/>
      </g>
     </g>
     <g id="line2d_27">
      <g>
       <use style="stroke:#000000;stroke-width:0.5;" x="79.8" xlink:href="#m5a7d422ac3" y="88.452"/>
      </g>
     </g>
     <g id="text_7">
      <!-- 5262 -->
      <g transform="translate(69.8373294968 174.21449838)scale(0.1 -0.1)">
       <use transform="scale(0.9962640099626402)" xlink:href="#CMR17-53"/>
       <use transform="translate(45.69047711706103 0.0)scale(0.9962640099626402)" xlink:href="#CMR17-50"/>
       <use transform="translate(91.38095423412206 0.0)scale(0.9962640099626402)" xlink:href="#CMR17-54"/>
       <use transform="translate(137.07143135118307 0.0)scale(0.9962640099626402)" xlink:href="#CMR17-50"/>
      </g>
     </g>
    </g>
    <g id="xtick_8">
     <g id="line2d_28">
      <g>
       <use style="stroke:#000000;stroke-width:0.5;" x="116.76" xlink:href="#mc7db9fdffb" y="163.296"/>
      </g>
     </g>
     <g id="line2d_29">
      <g>
       <use style="stroke:#000000;stroke-width:0.5;" x="116.76" xlink:href="#m5a7d422ac3" y="88.452"/>
      </g>
     </g>
     <g id="text_8">
      <!-- 5264 -->
      <defs>
       <path d="
M33.5938 64.3281
C33.5938 66.4062 33.5 66.5 31.7031 66.5
L2 19.5938
L2 17
L27.7969 17
L27.7969 7.14062
C27.7969 3.5 27.5938 2.5 20.5938 2.5
L18.7031 2.5
L18.7031 0
C21.9062 0 27.2969 0 30.7031 0
C34.0938 0 39.5 0 42.7031 0
L42.7031 2.5
L40.7969 2.5
C33.7969 2.5 33.5938 3.5 33.5938 7.14062
L33.5938 17
L43.7969 17
L43.7969 19.5938
L33.5938 19.5938
z

M28.0938 57.7656
L28.0938 19.5938
L4 19.5938
z
" id="CMR17-52"/>
      </defs>
      <g transform="translate(106.797329497 174.21449838)scale(0.1 -0.1)">
       <use transform="scale(0.9962640099626402)" xlink:href="#CMR17-53"/>
       <use transform="translate(45.69047711706103 0.0)scale(0.9962640099626402)" xlink:href="#CMR17-50"/>
       <use transform="translate(91.38095423412206 0.0)scale(0.9962640099626402)" xlink:href="#CMR17-54"/>
       <use transform="translate(137.07143135118307 0.0)scale(0.9962640099626402)" xlink:href="#CMR17-52"/>
      </g>
     </g>
    </g>
    <g id="xtick_9">
     <g id="line2d_30">
      <g>
       <use style="stroke:#000000;stroke-width:0.5;" x="153.72" xlink:href="#mc7db9fdffb" y="163.296"/>
      </g>
     </g>
     <g id="line2d_31">
      <g>
       <use style="stroke:#000000;stroke-width:0.5;" x="153.72" xlink:href="#m5a7d422ac3" y="88.452"/>
      </g>
     </g>
     <g id="text_9">
      <!-- 5266 -->
      <g transform="translate(143.757329497 174.21449838)scale(0.1 -0.1)">
       <use transform="scale(0.9962640099626402)" xlink:href="#CMR17-53"/>
       <use transform="translate(45.69047711706103 0.0)scale(0.9962640099626402)" xlink:href="#CMR17-50"/>
       <use transform="translate(91.38095423412206 0.0)scale(0.9962640099626402)" xlink:href="#CMR17-54"/>
       <use transform="translate(137.07143135118307 0.0)scale(0.9962640099626402)" xlink:href="#CMR17-54"/>
      </g>
     </g>
    </g>
    <g id="xtick_10">
     <g id="line2d_32">
      <g>
       <use style="stroke:#000000;stroke-width:0.5;" x="190.68" xlink:href="#mc7db9fdffb" y="163.296"/>
      </g>
     </g>
     <g id="line2d_33">
      <g>
       <use style="stroke:#000000;stroke-width:0.5;" x="190.68" xlink:href="#m5a7d422ac3" y="88.452"/>
      </g>
     </g>
     <g id="text_10">
      <!-- 5268 -->
      <defs>
       <path d="
M27.2031 35.375
C33.5 38.5625 39.9062 43.3281 39.9062 50.9844
C39.9062 60.0312 31.0938 65.2969 23 65.2969
C13.9062 65.2969 5.90625 58.7344 5.90625 49.6875
C5.90625 47.2031 6.5 42.9219 10.4062 39.1406
C11.4062 38.1562 15.5938 35.1719 18.2969 33.2812
C13.7969 30.9844 3.29688 25.5312 3.29688 14.5938
C3.29688 4.35938 13.0938 -2 22.7969 -2
C33.5 -2 42.5 5.65625 42.5 15.7969
C42.5 24.8438 36.4062 29.0312 32.4062 31.7031
z

M14.0938 44.125
C13.2969 44.625 9.29688 47.7031 9.29688 52.375
C9.29688 58.4375 15.5938 63 22.7969 63
C30.7031 63 36.5 57.4531 36.5 50.9844
C36.5 41.7344 26.0938 36.4688 25.5938 36.4688
C25.5 36.4688 25.4062 36.4688 24.5938 37.0781
z

M32.5 23.7344
C34 22.6406 38.7969 19.375 38.7969 13.2969
C38.7969 5.95312 31.4062 0.390625 23 0.390625
C13.9062 0.390625 7 6.84375 7 14.6875
C7 22.5469 13.0938 29.0938 20 32.1875
z
" id="CMR17-56"/>
      </defs>
      <g transform="translate(180.717329497 174.21449838)scale(0.1 -0.1)">
       <use transform="scale(0.9962640099626402)" xlink:href="#CMR17-53"/>
       <use transform="translate(45.69047711706103 0.0)scale(0.9962640099626402)" xlink:href="#CMR17-50"/>
       <use transform="translate(91.38095423412206 0.0)scale(0.9962640099626402)" xlink:href="#CMR17-54"/>
       <use transform="translate(137.07143135118307 0.0)scale(0.9962640099626402)" xlink:href="#CMR17-56"/>
      </g>
     </g>
    </g>
    <g id="text_11">
     <!-- $\lambda$ [\AA] -->
     <defs>
      <path d="
M36.2969 68.4062
C35.7969 69.7031 35.5938 70 34.5938 70
C33.5938 70 33.4062 69.7031 32.9062 68.4062
L11.7031 8.84375
C9.79688 3.48438 5.79688 2.39062 2.29688 2.39062
L2.29688 -0.203125
C4.09375 0 8.09375 0 10 0
C12.5 0 16.5 0 18.9062 -0.203125
L18.9062 2.39062
C14.2031 2.39062 13.5 5.64062 13.5 6.85938
C13.5 7.76562 13.7031 8.28125 13.9062 8.89062
L19.2031 24
L45.4062 24
L51.4062 6.90625
C51.9062 5.70312 51.9062 5.5 51.9062 5.10938
C51.9062 2.39062 47.5938 2.39062 45.7031 2.39062
L45.7031 0
C48.5938 0 53.7969 0 56.9062 0
C59.5 0 64.5 0 66.9062 -0.203125
L66.9062 2.39062
C61.5938 2.39062 59.7969 2.39062 58.5 6.04688
z

M32.2969 60.5312
L44.5 26.5938
L20.0938 26.5938
z
" id="CMR17-65"/>
      <path d="
M23.5 -25
L23.5 -21.5156
L14.0938 -21.5156
L14.0938 71
L23.5 71
L23.5 74.4844
L10.5938 74.4844
L10.5938 -25
z
" id="CMR17-91"/>
      <path d="
M30.9062 61.9531
C28.4062 69 20.5 69 19.2031 69
C18.5938 69 17.5 69 17.5 68
C17.5 67.2188 18.0938 67.1094 18.5938 67.0156
C20.0938 66.8125 21.2969 66.6094 22.9062 63.75
C23.9062 61.8594 34.2031 32.1719 34.2031 31.9688
C34.2031 31.875 34.0938 31.7656 33.2969 30.9688
L7.29688 4.85938
C6.09375 3.65625 5.29688 2.85938 5.29688 1.59375
C5.29688 0.1875 6.5 -1 8.09375 -1
C8.5 -1 9.59375 -0.796875 10.2031 -0.203125
C11.7969 1.28125 26.0938 18.6562 35.2031 29.3906
C37.7969 21.6094 41 12.4531 44.0938 4.07812
C44.5938 2.59375 45.0938 1.1875 46.5 -0.09375
C47.5 -1 47.7031 -1 50.5 -1
L52.4062 -1
C52.7969 -1 53.5 -1 53.5 -0.171875
C53.5 0.265625 53.4062 0.359375 53 0.78125
C52.0938 1.875 51.4062 3.65625 51 4.84375
z
" id="CMMI12-21"/>
      <path d="
M14.2969 74.4844
L1.40625 74.4844
L1.40625 71
L10.7969 71
L10.7969 -21.5156
L1.40625 -21.5156
L1.40625 -25
L14.2969 -25
z
" id="CMR17-93"/>
      <path d="
M43.2969 61.8125
C43.2969 66.7969 39.2969 70.5938 34.5938 70.5938
C29.9062 70.5938 25.9062 66.7969 25.9062 61.8125
C25.9062 56.7969 29.9062 53 34.5938 53
C39.2969 53 43.2969 56.7969 43.2969 61.8125
M34.5938 54.5938
C30.4062 54.5938 27.7031 57.1875 27.7031 61.8125
C27.7031 66.5 30.5 69 34.5938 69
C38.7969 69 41.5 66.4062 41.5 61.8125
C41.5 57.0938 38.7031 54.5938 34.5938 54.5938" id="CMR17-23"/>
     </defs>
     <g transform="translate(114.930373708 189.831620816)scale(0.1 -0.1)">
      <use transform="scale(0.9962640099626402)" xlink:href="#CMMI12-21"/>
      <use transform="translate(86.98003823552305 0.0)scale(0.9962640099626402)" xlink:href="#CMR17-91"/>
      <use transform="translate(111.85109671738793 17.61874416251557)scale(0.9962640099626402)" xlink:href="#CMR17-23"/>
      <use transform="translate(111.85109671738793 0.0)scale(0.9962640099626402)" xlink:href="#CMR17-65"/>
      <use transform="translate(180.92352652163763 0.0)scale(0.9962640099626402)" xlink:href="#CMR17-93"/>
     </g>
    </g>
   </g>
   <g id="matplotlib.axis_4">
    <g id="ytick_6">
     <g id="line2d_34">
      <g>
       <use style="stroke:#000000;stroke-width:0.5;" x="42.84" xlink:href="#md7965d1ba0" y="152.604"/>
      </g>
     </g>
     <g id="line2d_35">
      <g>
       <use style="stroke:#000000;stroke-width:0.5;" x="209.16" xlink:href="#md9a1c1a7cd" y="152.604"/>
      </g>
     </g>
     <g id="text_12">
      <!-- $-0.2$ -->
      <defs>
       <path d="
M65.9062 23
C67.5938 23 69.4062 23 69.4062 25
C69.4062 27 67.5938 27 65.9062 27
L11.7969 27
C10.0938 27 8.29688 27 8.29688 25
C8.29688 23 10.0938 23 11.7969 23
z
" id="CMSY10-0"/>
      </defs>
      <g transform="translate(18.361177299 155.094660025)scale(0.1 -0.1)">
       <use transform="scale(0.9962640099626402)" xlink:href="#CMSY10-0"/>
       <use transform="translate(77.4874676506071 0.0)scale(0.9962640099626402)" xlink:href="#CMR17-48"/>
       <use transform="translate(123.17794476766814 0.0)scale(0.9962640099626402)" xlink:href="#CMMI12-58"/>
       <use transform="translate(150.27512185748756 0.0)scale(0.9962640099626402)" xlink:href="#CMR17-50"/>
      </g>
     </g>
    </g>
    <g id="ytick_7">
     <g id="line2d_36">
      <g>
       <use style="stroke:#000000;stroke-width:0.5;" x="42.84" xlink:href="#md7965d1ba0" y="139.239"/>
      </g>
     </g>
     <g id="line2d_37">
      <g>
       <use style="stroke:#000000;stroke-width:0.5;" x="209.16" xlink:href="#md9a1c1a7cd" y="139.239"/>
      </g>
     </g>
     <g id="text_13">
      <!-- $-0.1$ -->
      <g transform="translate(18.361177299 141.729660025)scale(0.1 -0.1)">
       <use transform="scale(0.9962640099626402)" xlink:href="#CMSY10-0"/>
       <use transform="translate(77.4874676506071 0.0)scale(0.9962640099626402)" xlink:href="#CMR17-48"/>
       <use transform="translate(123.17794476766814 0.0)scale(0.9962640099626402)" xlink:href="#CMMI12-58"/>
       <use transform="translate(150.27512185748756 0.0)scale(0.9962640099626402)" xlink:href="#CMR17-49"/>
      </g>
     </g>
    </g>
    <g id="ytick_8">
     <g id="line2d_38">
      <g>
       <use style="stroke:#000000;stroke-width:0.5;" x="42.84" xlink:href="#md7965d1ba0" y="125.874"/>
      </g>
     </g>
     <g id="line2d_39">
      <g>
       <use style="stroke:#000000;stroke-width:0.5;" x="209.16" xlink:href="#md9a1c1a7cd" y="125.874"/>
      </g>
     </g>
     <g id="text_14">
      <!-- $0.0$ -->
      <g transform="translate(26.1099210237 128.364660025)scale(0.1 -0.1)">
       <use transform="scale(0.9962640099626402)" xlink:href="#CMR17-48"/>
       <use transform="translate(45.69047711706103 0.0)scale(0.9962640099626402)" xlink:href="#CMMI12-58"/>
       <use transform="translate(72.78765420688046 0.0)scale(0.9962640099626402)" xlink:href="#CMR17-48"/>
      </g>
     </g>
    </g>
    <g id="ytick_9">
     <g id="line2d_40">
      <g>
       <use style="stroke:#000000;stroke-width:0.5;" x="42.84" xlink:href="#md7965d1ba0" y="112.509"/>
      </g>
     </g>
     <g id="line2d_41">
      <g>
       <use style="stroke:#000000;stroke-width:0.5;" x="209.16" xlink:href="#md9a1c1a7cd" y="112.509"/>
      </g>
     </g>
     <g id="text_15">
      <!-- $0.1$ -->
      <g transform="translate(26.1099210237 114.999660025)scale(0.1 -0.1)">
       <use transform="scale(0.9962640099626402)" xlink:href="#CMR17-48"/>
       <use transform="translate(45.69047711706103 0.0)scale(0.9962640099626402)" xlink:href="#CMMI12-58"/>
       <use transform="translate(72.78765420688046 0.0)scale(0.9962640099626402)" xlink:href="#CMR17-49"/>
      </g>
     </g>
    </g>
    <g id="ytick_10">
     <g id="line2d_42">
      <g>
       <use style="stroke:#000000;stroke-width:0.5;" x="42.84" xlink:href="#md7965d1ba0" y="99.144"/>
      </g>
     </g>
     <g id="line2d_43">
      <g>
       <use style="stroke:#000000;stroke-width:0.5;" x="209.16" xlink:href="#md9a1c1a7cd" y="99.144"/>
      </g>
     </g>
     <g id="text_16">
      <!-- $0.2$ -->
      <g transform="translate(26.1099210237 101.634660025)scale(0.1 -0.1)">
       <use transform="scale(0.9962640099626402)" xlink:href="#CMR17-48"/>
       <use transform="translate(45.69047711706103 0.0)scale(0.9962640099626402)" xlink:href="#CMMI12-58"/>
       <use transform="translate(72.78765420688046 0.0)scale(0.9962640099626402)" xlink:href="#CMR17-50"/>
      </g>
     </g>
    </g>
   </g>
   <g id="patch_8">
    <path d="
M42.84 163.296
L209.16 163.296" style="fill:none;stroke:#000000;"/>
   </g>
   <g id="patch_9">
    <path d="
M42.84 88.452
L209.16 88.452" style="fill:none;stroke:#000000;"/>
   </g>
   <g id="patch_10">
    <path d="
M42.84 163.296
L42.84 88.452" style="fill:none;stroke:#000000;"/>
   </g>
   <g id="patch_11">
    <path d="
M209.16 163.296
L209.16 88.452" style="fill:none;stroke:#000000;"/>
   </g>
  </g>
  <g id="text_17">
   <!-- $f_\lambda\, \times 10^{-13}\, [\textrm{erg}\;\textrm{cm}^{-2}\;\textrm{s}^{-1}\;\textrm{\AA}^{-1}]$ -->
   <defs>
    <path d="
M30.9062 42.1094
C30.9062 43.9062 30.7969 44 30.2031 44
C29.7969 44 29.7031 43.9062 28.5 42.4219
C28.2031 42.0156 27.2969 41.0156 27 40.625
C23.7969 44 19.2969 44 17.5938 44
C6.5 44 2.5 38.1719 2.5 32.375
C2.5 23.3438 12.7031 21.25 15.5938 20.6406
C21.9062 19.3438 24.0938 18.9375 26.2031 17.125
C27.5 15.9375 29.7031 13.7344 29.7031 10.125
C29.7031 5.90625 27.2969 0.5 18.0938 0.5
C9.40625 0.5 6.29688 7.0625 4.5 15.8281
C4.20312 17.2188 4.20312 17.3281 3.40625 17.3281
C2.59375 17.3281 2.5 17.2188 2.5 15.2344
L2.5 0.890625
C2.5 -0.890625 2.59375 -1 3.20312 -1
C3.70312 -1 3.79688 -0.890625 4.29688 -0.09375
C4.90625 0.796875 6.40625 3.1875 7 4.1875
C9 1.54688 12.5 -1 18.0938 -1
C28 -1 33.2969 4.40625 33.2969 12.2344
C33.2969 17.3438 30.5938 20.0625 29.2969 21.25
C26.2969 24.375 22.7969 25.0625 18.5938 25.8594
C13.0938 27.0781 6.09375 28.4688 6.09375 34.5938
C6.09375 37.1875 7.5 42.7188 17.5938 42.7188
C28.2969 42.7188 28.9062 32.75 29.0938 29.5625
C29.2031 29.0781 29.7031 28.9688 30 28.9688
C30.9062 28.9688 30.9062 29.2812 30.9062 30.9688
z
" id="CMR17-115"/>
    <path d="
M44.5938 40.0938
C46.5938 40.0938 47.4062 40.0938 47.4062 42
C47.4062 43 46.5938 43 44.7969 43
L36.7031 43
C38.5938 53.5781 40 60.8906 40.7969 64.1719
C41.4062 66.6406 43.5 69 46.0938 69
C48.2031 69 50.2969 68.0938 51.2969 67.1562
C47.4062 66.75 46.2031 63.7812 46.2031 62.0156
C46.2031 59.9531 47.7031 58.7344 49.5938 58.7344
C51.5938 58.7344 54.5938 60.4688 54.5938 64.3594
C54.5938 68.6406 50.4062 71 46 71
C41.7031 71 37.5 67.7188 35.5 63.7188
C33.7031 60.125 32.7031 56.4375 30.4062 43
L23.7031 43
C21.7969 43 20.7969 43 20.7969 41.2031
C20.7969 40.0938 21.4062 40.0938 23.4062 40.0938
L29.7969 40.0938
C28 30.875 23.9062 8.46875 21.5938 -2.14062
C19.9062 -10.7656 18.4062 -18 13.4062 -18
C13.0938 -18 10.2031 -18 8.40625 -16.1094
C13.5 -15.7031 13.5 -11.3438 13.5 -11.25
C13.5 -9.26562 12 -8.07812 10.0938 -8.07812
C8.09375 -8.07812 5.09375 -9.76562 5.09375 -13.5469
C5.09375 -17.8125 9.5 -20 13.4062 -20
C23.5938 -20 27.7969 -1.84375 28.9062 3.10938
C30.7031 10.75 35.5938 37.125 36.0938 40.0938
z
" id="CMMI12-102"/>
    <path d="
M11.0938 18.1875
C13 16.6875 16.2969 15 20.2969 15
C28.2031 15 35 21.2031 35 29.5
C35 32.0938 34.2031 36.0938 31.2031 39.2031
C34 42.0625 38.0938 43 40.4062 43
C40.7969 43 41.4062 43 41.9062 42.7656
C41.5 42.6719 40.5938 42.2812 40.5938 40.7344
C40.5938 39.4844 41.5 38.6094 42.7969 38.6094
C44.2969 38.6094 45.0938 39.5781 45.0938 40.8438
C45.0938 42.6719 43.5938 44.5938 40.4062 44.5938
C36.4062 44.5938 32.9062 42.7812 30.0938 40.3125
C27.0938 43.0156 23.5 44 20.2969 44
C12.4062 44 5.59375 37.7969 5.59375 29.5
C5.59375 23.7812 8.90625 20.1875 9.90625 19.1875
C6.90625 15.6875 6.90625 11.6094 6.90625 11.1094
C6.90625 8.51562 7.90625 4.71875 11.2969 2.625
C6.09375 1.32812 2 -2.64062 2 -7.59375
C2 -14.7344 11.5 -20 22.9062 -20
C33.9062 -20 43.7969 -14.9375 43.7969 -7.48438
C43.7969 6 29 6 21.2969 6
C19 6 14.9062 6 14.4062 6.10938
C11.2969 6.60938 9.20312 9.40625 9.20312 12.8906
C9.20312 13.7812 9.20312 16 11.0938 18.1875
M20.2969 16.6875
C11.5 16.6875 11.5 27.5 11.5 29.5156
C11.5 31.5 11.5 42.3125 20.2969 42.3125
C29.0938 42.3125 29.0938 31.5 29.0938 29.5156
C29.0938 27.5 29.0938 16.6875 20.2969 16.6875
M22.9062 -18.2969
C12.9062 -18.2969 6 -13.0469 6 -7.59375
C6 -4.51562 7.70312 -1.64062 9.90625 -0.0625
C12.4062 1.625 13.4062 1.625 20.2031 1.625
C28.4062 1.625 39.7969 1.625 39.7969 -7.59375
C39.7969 -13.0469 32.9062 -18.2969 22.9062 -18.2969" id="CMR17-103"/>
    <path d="
M38.0938 23
C38.5 23.4062 38.5 23.6094 38.5 24.625
C38.5 34.9688 33.0938 44 21.7031 44
C11.0938 44 2.70312 33.8906 2.70312 21.6094
C2.70312 8.60938 12.2031 -1 22.7969 -1
C34 -1 38.4062 9.46875 38.4062 11.5469
C38.4062 12.25 37.7969 12.25 37.5938 12.25
C36.9062 12.25 36.7969 12.0469 36.4062 10.875
C34.2031 4.14062 28.7031 0.796875 23.5 0.796875
C19.2031 0.796875 14.9062 3.17188 12.2031 7.5
C9.09375 12.5469 9.09375 18.375 9.09375 23
z

M9.20312 24.5
C9.90625 39.1406 17.5938 42.4062 21.5938 42.4062
C28.4062 42.4062 33 35.8906 33.0938 24.5
z
" id="CMR17-101"/>
    <path d="
M67.5938 30.2031
C67.5938 35.1875 66.7031 43.5938 54.7969 43.5938
C48 43.5938 43.2969 39 41.5 33.5938
L41.4062 33.5938
C40.2031 41.7969 34.2969 43.5938 28.7031 43.5938
C20.7969 43.5938 16.7031 37.5625 15.2031 33.5938
L15.0938 33.5938
L15.0938 43.5938
L3.29688 42.5
L3.29688 39.9062
C9.20312 39.9062 10.0938 39.2969 10.0938 34.5
L10.0938 6.6875
C10.0938 2.875 9.70312 2.39062 3.29688 2.39062
L3.29688 -0.203125
C5.70312 0 10.0938 0 12.7031 0
C15.2969 0 19.7969 0 22.2031 -0.203125
L22.2031 2.39062
C15.7969 2.39062 15.4062 2.78125 15.4062 6.6875
L15.4062 25.9062
C15.4062 35.1094 21 42 28 42
C35.4062 42 36.2031 35.4062 36.2031 30.5938
L36.2031 6.6875
C36.2031 2.875 35.7969 2.39062 29.4062 2.39062
L29.4062 -0.203125
C31.7969 0 36.2031 0 38.7969 0
C41.4062 0 45.9062 0 48.2969 -0.203125
L48.2969 2.39062
C41.9062 2.39062 41.5 2.78125 41.5 6.6875
L41.5 25.9062
C41.5 35.1094 47.0938 42 54.0938 42
C61.5 42 62.2969 35.4062 62.2969 30.5938
L62.2969 6.6875
C62.2969 2.875 61.9062 2.39062 55.5 2.39062
L55.5 -0.203125
C57.9062 0 62.2969 0 64.9062 0
C67.5 0 72 0 74.4062 -0.203125
L74.4062 2.39062
C68 2.39062 67.5938 2.78125 67.5938 6.6875
z
" id="CMR17-109"/>
    <path d="
M22.0938 33.7031
C31 33.7031 34.9062 25.9688 34.9062 17.0312
C34.9062 5 28.5 0.390625 22.7031 0.390625
C17.4062 0.390625 8.79688 3.03125 6.09375 10.8281
C6.59375 10.625 7.09375 10.625 7.59375 10.625
C10 10.625 11.7969 12.2188 11.7969 14.8125
C11.7969 17.7031 9.59375 19 7.59375 19
C5.90625 19 3.29688 18.2031 3.29688 14.4688
C3.29688 5.23438 12.2969 -2 22.9062 -2
C34 -2 42.5 6.71875 42.5 16.9531
C42.5 26.6719 34.5 33.6875 25 34.7969
C32.5938 36.375 39.9062 43.0625 39.9062 52.0156
C39.9062 59.6875 32 65.2969 23 65.2969
C13.9062 65.2969 5.90625 59.8281 5.90625 52.0156
C5.90625 48.5938 8.5 48 9.79688 48
C11.9062 48 13.7031 49.2969 13.7031 51.8906
C13.7031 54.4688 11.9062 55.7656 9.79688 55.7656
C9.40625 55.7656 8.90625 55.7656 8.5 55.5625
C11.4062 61.8594 19.2969 63 22.7969 63
C26.2969 63 32.9062 61.3281 32.9062 51.875
C32.9062 49.1094 32.5 44.1875 29.0938 39.8438
C26.0938 36 22.7031 36 19.4062 35.5938
C18.9062 35.5938 16.5938 35.5938 16.2031 35.5938
C15.5 35.4844 15.0938 35.3906 15.0938 34.5938
C15.0938 33.8125 15.2031 33.7031 17.2031 33.7031
z
" id="CMR17-51"/>
    <path d="
M38.9062 27.8906
L18.9062 47.7969
C17.7031 49 17.5 49.1875 16.7031 49.1875
C15.7031 49.1875 14.7031 48.2969 14.7031 47.1875
C14.7031 46.5 14.9062 46.2969 16 45.1875
L36 25.0938
L16 5
C14.9062 3.89062 14.7031 3.6875 14.7031 3
C14.7031 1.89062 15.7031 1 16.7031 1
C17.5 1 17.7031 1.1875 18.9062 2.39062
L38.7969 22.2969
L59.5 1.59375
C59.7031 1.5 60.4062 1 61 1
C62.2031 1 63 1.89062 63 3
C63 3.1875 63 3.59375 62.7031 4.09375
C62.5938 4.29688 46.7031 20 41.7031 25.0938
L60 43.3906
C60.5 44 62 45.2969 62.5 45.8906
C62.5938 46.0938 63 46.5 63 47.1875
C63 48.2969 62.2031 49.1875 61 49.1875
C60.2031 49.1875 59.7969 48.7969 58.7031 47.6875
z
" id="CMSY10-2"/>
    <path d="
M34.9062 35
C33 35 30.2031 35 30.2031 31.5156
C30.2031 28.7188 32.5 27.9219 33.7969 27.9219
C34.5 27.9219 37.4062 28.2344 37.4062 31.625
C37.4062 38.5469 30.5938 43.7969 22.9062 43.7969
C12.2969 43.7969 3.29688 34.0312 3.29688 21.2969
C3.29688 8.0625 12.7031 -1 22.9062 -1
C35.2969 -1 38.4062 10.5938 38.4062 11.6875
C38.4062 12.0938 38.2969 12.3906 37.5938 12.3906
C36.9062 12.3906 36.7969 12.2969 36.4062 10.9844
C33.7969 2.8125 28.0938 0.796875 23.7969 0.796875
C17.4062 0.796875 9.70312 6.67188 9.70312 21.3906
C9.70312 36.5312 17.0938 42 23 42
C26.9062 42 32.7031 40.2031 34.9062 35" id="CMR17-99"/>
    <path d="
M15 23.3906
C15 33 19.0938 42 26.5938 42
C27.2969 42 28 41.9062 28.7031 41.5938
C28.7031 41.5938 26.5 40.8906 26.5 38.3125
C26.5 35.9062 28.4062 34.9062 29.9062 34.9062
C31.0938 34.9062 33.2969 35.6094 33.2969 38.4062
C33.2969 41.6094 30.0938 43.5938 26.7031 43.5938
C19.0938 43.5938 15.7969 36.2031 14.7969 32.7031
L14.7031 32.7031
L14.7031 43.5938
L3.09375 42.5
L3.09375 39.9062
C9 39.9062 9.90625 39.2969 9.90625 34.5
L9.90625 6.6875
C9.90625 2.875 9.5 2.39062 3.09375 2.39062
L3.09375 -0.203125
C5.5 0 10.0938 0 12.7031 0
C15.5938 0 20.7031 0 23.4062 -0.203125
L23.4062 2.39062
C16.2031 2.39062 15 2.39062 15 6.875
z
" id="CMR17-114"/>
   </defs>
   <g transform="translate(13.7847183657 161.211448718)rotate(-90.0)scale(0.1 -0.1)">
    <use transform="translate(0.0 14.943914544092468)scale(0.9962640099626402)" xlink:href="#CMMI12-102"/>
    <use transform="translate(48.083237663449566 0.0)scale(0.6973817666173724)" xlink:href="#CMMI12-21"/>
    <use transform="translate(127.15764978012143 14.943914544092468)scale(0.9962640099626402)" xlink:href="#CMSY10-2"/>
    <use transform="translate(226.78432440846828 14.943914544092468)scale(0.9962640099626402)" xlink:href="#CMR17-49"/>
    <use transform="translate(272.4748015255293 14.943914544092468)scale(0.9962640099626402)" xlink:href="#CMR17-48"/>
    <use transform="translate(318.1652786425903 51.097553485951124)scale(0.6973817666173724)" xlink:href="#CMSY10-0"/>
    <use transform="translate(372.40627189056664 51.097553485951124)scale(0.6973817666173724)" xlink:href="#CMR17-49"/>
    <use transform="translate(404.3894538546856 51.097553485951124)scale(0.6973817666173724)" xlink:href="#CMR17-51"/>
    <use transform="translate(453.4751730570906 14.943914544092468)scale(0.9962640099626402)" xlink:href="#CMR17-91"/>
    <use transform="translate(478.3462315389555 14.943914544092468)scale(0.9962640099626402)" xlink:href="#CMR17-101"/>
    <use transform="translate(518.8318920016735 14.943914544092468)scale(0.9962640099626402)" xlink:href="#CMR17-114"/>
    <use transform="translate(554.1126598011364 14.943914544092468)scale(0.9962640099626402)" xlink:href="#CMR17-103"/>
    <use transform="translate(627.4771456403721 14.943914544092468)scale(0.9962640099626402)" xlink:href="#CMR17-99"/>
    <use transform="translate(667.9628061030901 14.943914544092468)scale(0.9962640099626402)" xlink:href="#CMR17-109"/>
    <use transform="translate(744.8823959711629 51.097553485951124)scale(0.6973817666173724)" xlink:href="#CMSY10-0"/>
    <use transform="translate(799.1233892191392 51.097553485951124)scale(0.6973817666173724)" xlink:href="#CMR17-50"/>
    <use transform="translate(859.2787119104141 14.943914544092468)scale(0.9962640099626402)" xlink:href="#CMR17-115"/>
    <use transform="translate(895.0800495456492 51.097553485951124)scale(0.6973817666173724)" xlink:href="#CMSY10-0"/>
    <use transform="translate(949.3210427936256 51.097553485951124)scale(0.6973817666173724)" xlink:href="#CMR17-49"/>
    <use transform="translate(1009.4763654849005 32.56265870660803)scale(0.9962640099626402)" xlink:href="#CMR17-23"/>
    <use transform="translate(1009.4763654849005 14.943914544092468)scale(0.9962640099626402)" xlink:href="#CMR17-65"/>
    <use transform="translate(1078.5487952891501 74.82118143388077)scale(0.6973817666173724)" xlink:href="#CMSY10-0"/>
    <use transform="translate(1132.7897885371265 74.82118143388077)scale(0.6973817666173724)" xlink:href="#CMR17-49"/>
    <use transform="translate(1165.2711025062267 14.943914544092468)scale(0.9962640099626402)" xlink:href="#CMR17-93"/>
   </g>
  </g>
 </g>
 <defs>
  <clipPath id="p3f85bb24e7">
   <rect height="74.844" width="166.32" x="42.84" y="13.608"/>
  </clipPath>
  <clipPath id="p066df7f4f2">
   <rect height="74.844" width="166.32" x="42.84" y="88.452"/>
  </clipPath>
 </defs>
</svg>
