<?xml version="1.0" encoding="utf-8" standalone="no"?>
<!DOCTYPE svg PUBLIC "-//W3C//DTD SVG 1.1//EN"
  "http://www.w3.org/Graphics/SVG/1.1/DTD/svg11.dtd">
<!-- Created with matplotlib (http://matplotlib.org/) -->
<svg height="216pt" version="1.1" viewBox="0 0 216 216" width="216pt" xmlns="http://www.w3.org/2000/svg" xmlns:xlink="http://www.w3.org/1999/xlink">
 <defs>
  <style type="text/css">
*{stroke-linecap:butt;stroke-linejoin:round;}
  </style>
 </defs>
 <g id="figure_1">
  <g id="patch_1">
   <path d="
M0 216
L216 216
L216 0
L0 0
z
" style="fill:#ffffff;"/>
  </g>
  <g id="axes_1">
   <g id="patch_2">
    <path d="
M38.88 183.6
L177.12 183.6
L177.12 21.6
L38.88 21.6
z
" style="fill:#ffffff;"/>
   </g>
   <g id="line2d_1">
    <path clip-path="url(#pbe81649903)" d="
M38.88 183.599
L40.2764 183.598
L41.6727 183.597
L43.0691 183.595
L44.4655 183.592
L45.8618 183.587
L47.2582 183.58
L48.6545 183.571
L50.0509 183.556
L51.4473 183.535
L52.8436 183.505
L54.24 183.463
L55.6364 183.403
L57.0327 183.321
L58.4291 183.207
L59.8255 183.052
L61.2218 182.843
L62.6182 182.564
L64.0145 182.196
L65.4109 181.716
L66.8073 181.095
L68.2036 180.302
L69.6 179.297
L70.9964 178.04
L72.3927 176.484
L73.7891 174.577
L75.1855 172.269
L76.5818 169.504
L77.9782 166.229
L79.3745 162.397
L80.7709 157.964
L82.1673 152.897
L83.5636 147.175
L84.96 140.796
L86.3564 133.775
L87.7527 126.15
L89.1491 117.984
L90.5455 109.365
L91.9418 100.408
L93.3382 91.2504
L94.7345 82.0539
L96.1309 72.9965
L97.5273 64.2694
L98.9236 56.0702
L100.32 48.5953
L101.716 42.0327
L103.113 36.5536
L104.509 32.3056
L105.905 29.4056
L107.302 27.9348
L108.698 27.9348
L110.095 29.4056
L111.491 32.3056
L112.887 36.5536
L114.284 42.0327
L115.68 48.5953
L117.076 56.0702
L118.473 64.2694
L119.869 72.9965
L121.265 82.0539
L122.662 91.2504
L124.058 100.408
L125.455 109.365
L126.851 117.984
L128.247 126.15
L129.644 133.775
L131.04 140.796
L132.436 147.175
L133.833 152.897
L135.229 157.964
L136.625 162.397
L138.022 166.229
L139.418 169.504
L140.815 172.269
L142.211 174.577
L143.607 176.484
L145.004 178.04
L146.4 179.297
L147.796 180.302
L149.193 181.095
L150.589 181.716
L151.985 182.196
L153.382 182.564
L154.778 182.843
L156.175 183.052
L157.571 183.207
L158.967 183.321
L160.364 183.403
L161.76 183.463
L163.156 183.505
L164.553 183.535
L165.949 183.556
L167.345 183.571
L168.742 183.58
L170.138 183.587
L171.535 183.592
L172.931 183.595
L174.327 183.597
L175.724 183.598
L177.12 183.599" style="fill:none;stroke:#000000;stroke-linecap:square;"/>
   </g>
   <g id="patch_3">
    <path d="
M38.88 183.6
L38.88 21.6" style="fill:none;stroke:#000000;stroke-linecap:square;stroke-linejoin:miter;"/>
   </g>
   <g id="patch_4">
    <path d="
M38.88 21.6
L177.12 21.6" style="fill:none;stroke:#000000;stroke-linecap:square;stroke-linejoin:miter;"/>
   </g>
   <g id="patch_5">
    <path d="
M177.12 183.6
L177.12 21.6" style="fill:none;stroke:#000000;stroke-linecap:square;stroke-linejoin:miter;"/>
   </g>
   <g id="patch_6">
    <path d="
M38.88 183.6
L177.12 183.6" style="fill:none;stroke:#000000;stroke-linecap:square;stroke-linejoin:miter;"/>
   </g>
   <g id="matplotlib.axis_1">
    <g id="xtick_1">
     <g id="line2d_2">
      <defs>
       <path d="
M0 0
L0 -4" id="mc7db9fdffb" style="stroke:#000000;stroke-width:0.5;"/>
      </defs>
      <g>
       <use style="stroke:#000000;stroke-width:0.5;" x="61.4930586766" xlink:href="#mc7db9fdffb" y="183.6"/>
      </g>
     </g>
     <g id="line2d_3">
      <defs>
       <path d="
M0 0
L0 4" id="m5a7d422ac3" style="stroke:#000000;stroke-width:0.5;"/>
      </defs>
      <g>
       <use style="stroke:#000000;stroke-width:0.5;" x="61.4930586766" xlink:href="#m5a7d422ac3" y="21.6"/>
      </g>
     </g>
     <g id="text_1">
      <!-- $-2.205$ -->
      <defs>
       <path d="
M11.4062 57.6875
C12.4062 57.2812 16.5 56 20.7031 56
C30 56 35.0938 61.0156 38 63.9219
C38 64.7344 38 65.25 37.4062 65.25
C37.2969 65.25 37.0938 65.25 36.2969 64.8281
C32.7969 63.3125 28.7031 62.0781 23.7031 62.0781
C20.7031 62.0781 16.2031 62.5 11.2969 64.7344
C10.2031 65.25 10 65.25 9.90625 65.25
C9.40625 65.25 9.29688 65.1406 9.29688 63.1562
L9.29688 34.2812
C9.29688 32.5 9.29688 32 10.2969 32
C10.7969 32 11 32.2031 11.5 32.9062
C14.7031 37.4844 19.0938 39.4062 24.0938 39.4062
C27.5938 39.4062 35.0938 37.2188 35.0938 20.1406
C35.0938 16.9531 35.0938 11.1719 32.0938 6.57812
C29.5938 2.48438 25.7031 0.390625 21.4062 0.390625
C14.7969 0.390625 8.09375 5 6.29688 12.7188
C6.70312 12.6094 7.5 12.4219 7.90625 12.4219
C9.20312 12.4219 11.7031 13.125 11.7031 16.2188
C11.7031 18.9062 9.79688 20 7.90625 20
C5.59375 20 4.09375 18.5938 4.09375 15.7969
C4.09375 7.09375 11 -2 21.5938 -2
C31.9062 -2 41.7031 6.875 41.7031 19.75
C41.7031 31.7188 33.9062 41 24.2031 41
C19.0938 41 14.7969 39.0938 11.4062 35.4531
z
" id="CMR17-53"/>
       <path d="
M42 31.6406
C42 37.75 41.9062 48.125 37.7031 56.1094
C34 63.1094 28.0938 65.5938 22.9062 65.5938
C18.0938 65.5938 12 63.4062 8.20312 56.2031
C4.20312 48.7188 3.79688 39.4375 3.79688 31.6406
C3.79688 25.9531 3.90625 17.2812 7 9.67188
C11.2969 -0.609375 19 -2 22.9062 -2
C27.5 -2 34.5 -0.109375 38.5938 9.375
C41.5938 16.2812 42 24.3594 42 31.6406
M22.9062 -0.40625
C16.5 -0.40625 12.7031 5.07812 11.2969 12.6875
C10.2031 18.5625 10.2031 27.1562 10.2031 32.75
C10.2031 40.4375 10.2031 46.8281 11.5 52.9219
C13.4062 61.3906 19 64 22.9062 64
C27 64 32.2969 61.2969 34.2031 53.125
C35.5 47.4375 35.5938 40.7344 35.5938 32.75
C35.5938 26.25 35.5938 18.2656 34.4062 12.375
C32.2969 1.48438 26.4062 -0.40625 22.9062 -0.40625" id="CMR17-48"/>
       <path d="
M41.7031 15.4531
L39.9062 15.4531
C38.9062 8.375 38.0938 7.17188 37.7031 6.5625
C37.2031 5.76562 30 5.76562 28.5938 5.76562
L9.40625 5.76562
C13 9.67188 20 16.75 28.5 24.9531
C34.5938 30.7344 41.7031 37.5312 41.7031 47.4219
C41.7031 59.2188 32.2969 66 21.7969 66
C10.7969 66 4.09375 56.3125 4.09375 47.3438
C4.09375 43.4375 7 42.9375 8.20312 42.9375
C9.20312 42.9375 12.2031 43.5469 12.2031 47.0312
C12.2031 50.1094 9.59375 51 8.20312 51
C7.59375 51 7 50.9062 6.59375 50.7031
C8.5 59.2188 14.2969 63.4062 20.4062 63.4062
C29.0938 63.4062 34.7969 56.5156 34.7969 47.4219
C34.7969 38.7344 29.7031 31.25 24 24.75
L4.09375 2.28125
L4.09375 0
L39.2969 0
z
" id="CMR17-50"/>
       <path d="
M18.4062 4.79688
C18.4062 7.6875 16 9.67188 13.5938 9.67188
C10.7031 9.67188 8.70312 7.28125 8.70312 4.89062
C8.70312 2 11.0938 0 13.5 0
C16.4062 0 18.4062 2.39062 18.4062 4.79688" id="CMMI12-58"/>
       <path d="
M65.9062 23
C67.5938 23 69.4062 23 69.4062 25
C69.4062 27 67.5938 27 65.9062 27
L11.7969 27
C10.0938 27 8.29688 27 8.29688 25
C8.29688 23 10.0938 23 11.7969 23
z
" id="CMSY10-0"/>
      </defs>
      <g transform="translate(46.2723120745 194.51849838)scale(0.1 -0.1)">
       <use transform="scale(0.9962640099626402)" xlink:href="#CMSY10-0"/>
       <use transform="translate(77.4874676506071 0.0)scale(0.9962640099626402)" xlink:href="#CMR17-50"/>
       <use transform="translate(123.17794476766814 0.0)scale(0.9962640099626402)" xlink:href="#CMMI12-58"/>
       <use transform="translate(150.27512185748756 0.0)scale(0.9962640099626402)" xlink:href="#CMR17-50"/>
       <use transform="translate(195.96559897454858 0.0)scale(0.9962640099626402)" xlink:href="#CMR17-48"/>
       <use transform="translate(241.6560760916096 0.0)scale(0.9962640099626402)" xlink:href="#CMR17-53"/>
      </g>
     </g>
    </g>
    <g id="xtick_2">
     <g id="line2d_4">
      <g>
       <use style="stroke:#000000;stroke-width:0.5;" x="104.693058677" xlink:href="#mc7db9fdffb" y="183.6"/>
      </g>
     </g>
     <g id="line2d_5">
      <g>
       <use style="stroke:#000000;stroke-width:0.5;" x="104.693058677" xlink:href="#m5a7d422ac3" y="21.6"/>
      </g>
     </g>
     <g id="text_2">
      <!-- $-2.200$ -->
      <g transform="translate(89.4723120745 194.51849838)scale(0.1 -0.1)">
       <use transform="scale(0.9962640099626402)" xlink:href="#CMSY10-0"/>
       <use transform="translate(77.4874676506071 0.0)scale(0.9962640099626402)" xlink:href="#CMR17-50"/>
       <use transform="translate(123.17794476766814 0.0)scale(0.9962640099626402)" xlink:href="#CMMI12-58"/>
       <use transform="translate(150.27512185748756 0.0)scale(0.9962640099626402)" xlink:href="#CMR17-50"/>
       <use transform="translate(195.96559897454858 0.0)scale(0.9962640099626402)" xlink:href="#CMR17-48"/>
       <use transform="translate(241.6560760916096 0.0)scale(0.9962640099626402)" xlink:href="#CMR17-48"/>
      </g>
     </g>
    </g>
    <g id="xtick_3">
     <g id="line2d_6">
      <g>
       <use style="stroke:#000000;stroke-width:0.5;" x="147.893058677" xlink:href="#mc7db9fdffb" y="183.6"/>
      </g>
     </g>
     <g id="line2d_7">
      <g>
       <use style="stroke:#000000;stroke-width:0.5;" x="147.893058677" xlink:href="#m5a7d422ac3" y="21.6"/>
      </g>
     </g>
     <g id="text_3">
      <!-- $-2.195$ -->
      <defs>
       <path d="
M26.5938 63.3125
C26.5938 65.4062 26.5 65.5 25.0938 65.5
C21.2031 61.1875 15.2969 59.7969 9.70312 59.7969
C9.40625 59.7969 8.90625 59.7969 8.79688 59.6094
C8.70312 59.3906 8.70312 59.1719 8.70312 57
C11.7969 57 17 57.5938 21 59.9844
L21 7.20312
C21 3.6875 20.7969 2.5 12.2031 2.5
L9.20312 2.5
L9.20312 0
C14 0 19 0 23.7969 0
C28.5938 0 33.5938 0 38.4062 0
L38.4062 2.5
L35.4062 2.5
C26.7969 2.5 26.5938 3.59375 26.5938 7.15625
z
" id="CMR17-49"/>
       <path d="
M35.2031 29.125
C35.2031 7.25 26.0938 0.484375 18.5938 0.484375
C16.2969 0.484375 10.7031 0.484375 8.40625 4.59375
C11 4.1875 12.9062 5.57812 12.9062 8.09375
C12.9062 10.8125 10.7031 11.7031 9.29688 11.7031
C8.40625 11.7031 5.70312 11.2969 5.70312 7.90625
C5.70312 1.10938 11.5938 -2 18.7969 -2
C30.2969 -2 42 10.5312 42 32.3906
C42 59.6406 30.7969 65.2969 23.2031 65.2969
C13.2969 65.2969 3.79688 56.6875 3.79688 43.4062
C3.79688 31.1094 11.9062 22 22.0938 22
C30.5 22 34.2031 29.7344 35.2031 33
z

M22.2969 23.5938
C19.5938 23.5938 15.7969 24.0938 12.7031 30.0312
C10.5938 33.8906 10.5938 38.4531 10.5938 43.2969
C10.5938 49.1562 10.5938 53.2031 13.4062 57.5625
C14.7969 59.6406 17.4062 63 23.2031 63
C35 63 35 45.0781 35 41.125
C35 34.0938 31.7969 23.5938 22.2969 23.5938" id="CMR17-57"/>
      </defs>
      <g transform="translate(132.672312074 194.51849838)scale(0.1 -0.1)">
       <use transform="scale(0.9962640099626402)" xlink:href="#CMSY10-0"/>
       <use transform="translate(77.4874676506071 0.0)scale(0.9962640099626402)" xlink:href="#CMR17-50"/>
       <use transform="translate(123.17794476766814 0.0)scale(0.9962640099626402)" xlink:href="#CMMI12-58"/>
       <use transform="translate(150.27512185748756 0.0)scale(0.9962640099626402)" xlink:href="#CMR17-49"/>
       <use transform="translate(195.96559897454858 0.0)scale(0.9962640099626402)" xlink:href="#CMR17-57"/>
       <use transform="translate(241.6560760916096 0.0)scale(0.9962640099626402)" xlink:href="#CMR17-53"/>
      </g>
     </g>
    </g>
    <g id="text_4">
     <!-- $w_5$ -->
     <defs>
      <path d="
M34.4062 6.09375
C36.5938 0.09375 42.7969 -1 46.5938 -1
C54.2031 -1 58.7031 5.59375 61.5 12.4688
C63.7969 18.2656 67.5 31.4375 67.5 37.3281
C67.5 43.4062 64.4062 44 63.5 44
C61.0938 44 58.9062 41.6094 58.9062 39.6094
C58.9062 38.4219 59.5938 37.7188 60.0938 37.3281
C61 36.4219 63.5938 33.7344 63.5938 28.5469
C63.5938 25.1406 60.7969 15.7656 58.7031 11.0781
C55.9062 4.98438 52.2031 1 47 1
C41.4062 1 39.5938 5.1875 39.5938 9.78125
C39.5938 12.6719 40.5 16.1719 40.9062 17.8594
L45.0938 34.625
C45.5938 36.625 46.5 40.1094 46.5 40.5156
C46.5 42.0156 45.2969 43.0156 43.7969 43.0156
C40.9062 43.0156 40.2031 40.5156 39.5938 38.125
C38.5938 34.2344 34.4062 17.3594 34 15.1719
C33.5938 13.4688 33.5938 12.375 33.5938 10.1719
C33.5938 7.78125 30.4062 3.98438 30.2969 3.79688
C29.2031 2.6875 27.5938 1 24.5 1
C16.5938 1 16.5938 8.48438 16.5938 10.1719
C16.5938 13.375 17.2969 17.7656 21.7969 29.6406
C23 32.7344 23.5 34.0312 23.5 36.0156
C23.5 40.2188 20.5 44 15.5938 44
C6.40625 44 2.70312 29.5312 2.70312 28.7344
C2.70312 28.3438 3.09375 27.8438 3.79688 27.8438
C4.70312 27.8438 4.79688 28.2344 5.20312 29.625
C7.70312 38.3438 11.5938 41.9062 15.2969 41.9062
C16.2969 41.9062 17.9062 41.9062 17.9062 38.7188
C17.9062 38.2188 17.9062 36.125 16.2031 31.7344
C11.5 19.2656 10.5 15.1719 10.5 11.375
C10.5 0.890625 19.0938 -1 24.2031 -1
C25.9062 -1 30.4062 -1 34.4062 6.09375" id="CMMI12-119"/>
     </defs>
     <g transform="translate(102.448172259 208.37417509)scale(0.1 -0.1)">
      <use transform="translate(0.0 14.943914544092467)scale(0.9962640099626402)" xlink:href="#CMMI12-119"/>
      <use transform="translate(69.73198953630916 0.0)scale(0.6973817666173724)" xlink:href="#CMR17-53"/>
     </g>
    </g>
   </g>
   <g id="matplotlib.axis_2">
    <g id="ytick_1">
     <g id="line2d_8">
      <defs>
       <path d="
M0 0
L4 0" id="md7965d1ba0" style="stroke:#000000;stroke-width:0.5;"/>
      </defs>
      <g>
       <use style="stroke:#000000;stroke-width:0.5;" x="38.88" xlink:href="#md7965d1ba0" y="183.6"/>
      </g>
     </g>
     <g id="line2d_9">
      <defs>
       <path d="
M0 0
L-4 0" id="md9a1c1a7cd" style="stroke:#000000;stroke-width:0.5;"/>
      </defs>
      <g>
       <use style="stroke:#000000;stroke-width:0.5;" x="177.12" xlink:href="#md9a1c1a7cd" y="183.6"/>
      </g>
     </g>
     <g id="text_5">
      <!-- $0$ -->
      <g transform="translate(29.8986647484 186.090660025)scale(0.1 -0.1)">
       <use transform="scale(0.9962640099626402)" xlink:href="#CMR17-48"/>
      </g>
     </g>
    </g>
    <g id="ytick_2">
     <g id="line2d_10">
      <g>
       <use style="stroke:#000000;stroke-width:0.5;" x="38.88" xlink:href="#md7965d1ba0" y="151.2"/>
      </g>
     </g>
     <g id="line2d_11">
      <g>
       <use style="stroke:#000000;stroke-width:0.5;" x="177.12" xlink:href="#md9a1c1a7cd" y="151.2"/>
      </g>
     </g>
     <g id="text_6">
      <!-- $50$ -->
      <g transform="translate(24.9173294968 153.690660025)scale(0.1 -0.1)">
       <use transform="scale(0.9962640099626402)" xlink:href="#CMR17-53"/>
       <use transform="translate(45.69047711706103 0.0)scale(0.9962640099626402)" xlink:href="#CMR17-48"/>
      </g>
     </g>
    </g>
    <g id="ytick_3">
     <g id="line2d_12">
      <g>
       <use style="stroke:#000000;stroke-width:0.5;" x="38.88" xlink:href="#md7965d1ba0" y="118.8"/>
      </g>
     </g>
     <g id="line2d_13">
      <g>
       <use style="stroke:#000000;stroke-width:0.5;" x="177.12" xlink:href="#md9a1c1a7cd" y="118.8"/>
      </g>
     </g>
     <g id="text_7">
      <!-- $100$ -->
      <g transform="translate(19.9359942452 121.290660025)scale(0.1 -0.1)">
       <use transform="scale(0.9962640099626402)" xlink:href="#CMR17-49"/>
       <use transform="translate(45.69047711706103 0.0)scale(0.9962640099626402)" xlink:href="#CMR17-48"/>
       <use transform="translate(91.38095423412206 0.0)scale(0.9962640099626402)" xlink:href="#CMR17-48"/>
      </g>
     </g>
    </g>
    <g id="ytick_4">
     <g id="line2d_14">
      <g>
       <use style="stroke:#000000;stroke-width:0.5;" x="38.88" xlink:href="#md7965d1ba0" y="86.4"/>
      </g>
     </g>
     <g id="line2d_15">
      <g>
       <use style="stroke:#000000;stroke-width:0.5;" x="177.12" xlink:href="#md9a1c1a7cd" y="86.4"/>
      </g>
     </g>
     <g id="text_8">
      <!-- $150$ -->
      <g transform="translate(19.9359942452 88.8906600249)scale(0.1 -0.1)">
       <use transform="scale(0.9962640099626402)" xlink:href="#CMR17-49"/>
       <use transform="translate(45.69047711706103 0.0)scale(0.9962640099626402)" xlink:href="#CMR17-53"/>
       <use transform="translate(91.38095423412206 0.0)scale(0.9962640099626402)" xlink:href="#CMR17-48"/>
      </g>
     </g>
    </g>
    <g id="ytick_5">
     <g id="line2d_16">
      <g>
       <use style="stroke:#000000;stroke-width:0.5;" x="38.88" xlink:href="#md7965d1ba0" y="54.0"/>
      </g>
     </g>
     <g id="line2d_17">
      <g>
       <use style="stroke:#000000;stroke-width:0.5;" x="177.12" xlink:href="#md9a1c1a7cd" y="54.0"/>
      </g>
     </g>
     <g id="text_9">
      <!-- $200$ -->
      <g transform="translate(19.9359942452 56.4906600249)scale(0.1 -0.1)">
       <use transform="scale(0.9962640099626402)" xlink:href="#CMR17-50"/>
       <use transform="translate(45.69047711706103 0.0)scale(0.9962640099626402)" xlink:href="#CMR17-48"/>
       <use transform="translate(91.38095423412206 0.0)scale(0.9962640099626402)" xlink:href="#CMR17-48"/>
      </g>
     </g>
    </g>
    <g id="ytick_6">
     <g id="line2d_18">
      <g>
       <use style="stroke:#000000;stroke-width:0.5;" x="38.88" xlink:href="#md7965d1ba0" y="21.6"/>
      </g>
     </g>
     <g id="line2d_19">
      <g>
       <use style="stroke:#000000;stroke-width:0.5;" x="177.12" xlink:href="#md9a1c1a7cd" y="21.6"/>
      </g>
     </g>
     <g id="text_10">
      <!-- $250$ -->
      <g transform="translate(19.9359942452 24.0906600249)scale(0.1 -0.1)">
       <use transform="scale(0.9962640099626402)" xlink:href="#CMR17-50"/>
       <use transform="translate(45.69047711706103 0.0)scale(0.9962640099626402)" xlink:href="#CMR17-53"/>
       <use transform="translate(91.38095423412206 0.0)scale(0.9962640099626402)" xlink:href="#CMR17-48"/>
      </g>
     </g>
    </g>
    <g id="text_11">
     <!-- $p(w_5 |\, \theta_\ast)$ -->
     <defs>
      <path d="
M4.29688 -12.3281
C3.59375 -15.3125 3.20312 -16.1094 -0.90625 -16.1094
C-2.09375 -16.1094 -3.09375 -16.1094 -3.09375 -18
C-3.09375 -18.2031 -3 -19 -1.90625 -19
C-0.59375 -19 0.796875 -19 2.09375 -19
L6.40625 -19
C8.5 -19 13.5938 -19 15.7031 -19
C16.2969 -19 17.5 -19 17.5 -17.2031
C17.5 -16.1094 16.7969 -16.1094 15.0938 -16.1094
C10.5 -16.1094 10.2031 -15.4219 10.2031 -14.6406
C10.2031 -13.4531 14.7031 3.42188 15.2969 5.6875
C16.4062 2.89062 19.0938 -1 24.2969 -1
C35.5938 -1 47.7969 13.6719 47.7969 28.3438
C47.7969 37.5156 42.5938 44 35.0938 44
C28.7031 44 23.2969 37.8125 22.2031 36.4219
C21.4062 41.4062 17.5 44 13.5 44
C10.5938 44 8.29688 42.6094 6.40625 38.8125
C4.59375 35.2188 3.20312 29.1406 3.20312 28.7344
C3.20312 28.3438 3.59375 27.8438 4.29688 27.8438
C5.09375 27.8438 5.20312 27.9375 5.79688 30.2344
C7.29688 36.125 9.20312 42.0156 13.2031 42.0156
C15.5 42.0156 16.2969 40.4219 16.2969 37.4531
C16.2969 35.0781 16 34.0781 15.5938 32.2969
z

M21.5938 31.1406
C22.2969 33.9219 25.0938 36.8281 26.7031 38.2188
C27.7969 39.2188 31.0938 42.0156 34.9062 42.0156
C39.2969 42.0156 41.2969 37.625 41.2969 32.4375
C41.2969 27.6406 38.5 16.3594 36 11.1719
C33.5 5.78125 28.9062 1 24.2969 1
C17.5 1 16.4062 9.57812 16.4062 9.98438
C16.4062 10.2812 16.5938 11.0781 16.7031 11.5781
z
" id="CMMI12-112"/>
      <path d="
M15.9062 71.4062
C15.9062 73.2031 15.9062 75 13.9062 75
C11.9062 75 11.9062 73.2031 11.9062 71.4062
L11.9062 -21.4062
C11.9062 -23.2031 11.9062 -25 13.9062 -25
C15.9062 -25 15.9062 -23.2031 15.9062 -21.4062
z
" id="CMSY10-106"/>
      <path d="
M27.5 42.4844
C27.5938 43.875 27.5938 46.2812 25 46.2812
C23.4062 46.2812 22.0938 44.9688 22.4062 43.6719
L22.4062 42.375
L23.7969 26.875
L11 36.1875
C10.0938 36.6875 9.90625 36.875 9.20312 36.875
C7.79688 36.875 6.5 35.4844 6.5 34.0781
C6.5 32.4844 7.5 32.0781 8.5 31.5781
L22.7031 24.7812
L8.90625 18.0938
C7.29688 17.2969 6.5 16.8906 6.5 15.3906
C6.5 13.8906 7.79688 12.5938 9.20312 12.5938
C9.90625 12.5938 10.0938 12.5938 12.5938 14.5
L23.7969 22.5781
L22.2969 5.79688
C22.2969 3.6875 24.0938 3.1875 24.9062 3.1875
C26.0938 3.1875 27.5938 3.875 27.5938 5.79688
L26.0938 22.5781
L38.9062 13.2969
C39.7969 12.7969 40 12.5938 40.7031 12.5938
C42.0938 12.5938 43.4062 14 43.4062 15.3906
C43.4062 16.875 42.5 17.375 41.2969 17.9844
C35.2969 20.9844 35.0938 20.9844 27.2031 24.6875
L41 31.375
C42.5938 32.1875 43.4062 32.5781 43.4062 34.0781
C43.4062 35.5781 42.0938 36.875 40.7031 36.875
C40 36.875 39.7969 36.875 37.2969 34.9844
L26.0938 26.875
z
" id="CMSY10-3"/>
      <path d="
M26.2969 24.6719
C26.2969 31.8438 25.5938 43.9844 19.5938 56.8281
C14.7969 67.1875 6.59375 74.4531 5.40625 74.4531
C5.09375 74.4531 4.70312 74.3438 4.70312 73.8594
C4.70312 73.6719 4.79688 73.5625 4.90625 73.3594
C9.70312 68.3906 21.9062 55.75 21.9062 24.7969
C21.9062 -6.28125 9.79688 -18.9219 4.90625 -23.9062
C4.79688 -24.0938 4.70312 -24.2031 4.70312 -24.3906
C4.70312 -24.8906 5.09375 -25 5.40625 -25
C6.5 -25 15 -17.625 19.9062 -6.67188
C24.9062 4.375 26.2969 15.125 26.2969 24.6719" id="CMR17-41"/>
      <path d="
M44.2969 50
C44.2969 60.1562 41.0938 70 32.9062 70
C18.9062 70 4 40.8594 4 19
C4 14.4219 5 -1 15.5 -1
C29.0938 -1 44.2969 27.4375 44.2969 50
M14 36
C15.5 41.8594 17.5938 50.2188 21.5938 57.2656
C24.9062 63.2344 28.4062 68 32.7969 68
C36.0938 68 38.2969 65.2188 38.2969 55.6875
C38.2969 52.0938 38 47.1406 35.0938 36
z

M34.4062 33.0156
C31.9062 23.2812 29.7969 17 26.2031 10.7344
C23.2969 5.67188 19.7969 1 15.5938 1
C12.5 1 10 3.39062 10 13.2188
C10 19.6875 11.5938 26.4531 13.2031 33.0156
z
" id="CMMI12-18"/>
      <path d="
M30.5938 -24.4062
C30.5938 -24.3125 30.5938 -24.1094 30.2969 -23.8125
C25.7031 -19.1406 13.4062 -6.39062 13.4062 24.6719
C13.4062 55.75 25.5 68.3906 30.4062 73.3594
C30.4062 73.4688 30.5938 73.6719 30.5938 73.9531
C30.5938 74.25 30.2969 74.4531 29.9062 74.4531
C28.7969 74.4531 20.2969 67.0781 15.4062 56.125
C10.4062 45.0781 9 34.3281 9 24.7812
C9 17.6094 9.70312 5.46875 15.7031 -7.375
C20.5 -17.7344 28.7031 -25 29.9062 -25
C30.4062 -25 30.5938 -24.7969 30.5938 -24.4062" id="CMR17-40"/>
     </defs>
     <g transform="translate(12.9988159149 121.623875311)rotate(-90.0)scale(0.1 -0.1)">
      <use transform="translate(0.0 14.943914544092468)scale(0.9962640099626402)" xlink:href="#CMMI12-112"/>
      <use transform="translate(48.95951400509807 14.943914544092468)scale(0.9962640099626402)" xlink:href="#CMR17-40"/>
      <use transform="translate(84.24028180456104 14.943914544092468)scale(0.9962640099626402)" xlink:href="#CMMI12-119"/>
      <use transform="translate(153.97227134087018 0.0)scale(0.6973817666173724)" xlink:href="#CMR17-53"/>
      <use transform="translate(186.45358530997044 14.943914544092468)scale(0.9962640099626402)" xlink:href="#CMSY10-106"/>
      <use transform="translate(230.7320752743618 14.943914544092468)scale(0.9962640099626402)" xlink:href="#CMMI12-18"/>
      <use transform="translate(276.1918653438279 0.0)scale(0.6973817666173724)" xlink:href="#CMSY10-3"/>
      <use transform="translate(311.5592072939368 14.943914544092468)scale(0.9962640099626402)" xlink:href="#CMR17-41"/>
     </g>
    </g>
   </g>
  </g>
 </g>
 <defs>
  <clipPath id="pbe81649903">
   <rect height="162.0" width="138.24" x="38.88" y="21.6"/>
  </clipPath>
 </defs>
</svg>
